<svg width="140" height="140" viewBox="0 0 140 140" fill="none" xmlns="http://www.w3.org/2000/svg">
<rect width="140" height="140" rx="20" fill="#5FCAF4"/>
<mask id="mask0_133_222" style="mask-type:luminance" maskUnits="userSpaceOnUse" x="20" y="19" width="100" height="102">
<path d="M69.9998 19.9754C42.3859 19.9754 20 42.3727 20 70.0007C20 95.3671 38.8715 116.32 63.3336 119.582V109.502C63.3336 106.659 61.5418 104.105 58.8487 103.201C44.7348 98.4569 34.6377 84.9601 35.0096 69.1565C35.4623 49.9173 51.1267 34.7905 70.3608 34.9844C89.5245 35.1783 105 50.7813 105 70.0007C105 70.4387 104.989 70.8746 104.973 71.3081C104.969 71.4052 104.966 71.5032 104.962 71.6006C104.944 72.0035 104.919 72.4054 104.888 72.8049C104.879 72.9321 104.866 73.059 104.854 73.1859C104.829 73.4649 104.801 73.742 104.769 74.0186C104.734 74.3328 104.693 74.6452 104.649 74.956C104.63 75.0982 104.611 75.2407 104.589 75.3817C100.304 103.623 63.5392 119.496 63.3374 119.583C65.5177 119.873 67.7411 120.025 69.9998 120.025C97.6142 120.025 120 97.6287 120 70.0007C120 42.3727 97.6142 19.9754 69.9998 19.9754Z" fill="white"/>
</mask>
<g mask="url(#mask0_133_222)">
<path d="M12.4083 127.618H127.591V12.3851H12.4083V127.618Z" fill="white"/>
</g>
</svg>
