<svg width="312" height="140" viewBox="0 0 312 140" fill="none" xmlns="http://www.w3.org/2000/svg">
<rect width="312" height="140" rx="20" fill="#13222A"/>
<path d="M77.9966 45.0895H61.9589L45.7811 91.0634H56.3586L59.677 81.6608H75.7175L72.8711 73.5718H62.5115L69.9776 52.3485L83.5938 91.0559L83.5967 91.0634H94.1741L77.9966 45.0895Z" fill="#FFEADB"/>
<path d="M113.578 45.4846C113.312 45.0134 112.87 44.667 112.349 44.5217C111.827 44.3764 111.27 44.4441 110.798 44.7099C110.327 44.9757 109.981 45.4178 109.836 45.939C109.691 46.4602 109.758 47.0178 110.024 47.489C115.434 57.1082 117.198 68.354 114.994 79.1678C112.79 89.9816 106.765 99.6399 98.023 106.375C89.2802 113.109 78.4042 116.471 67.386 115.842C56.3678 115.213 45.9445 110.637 38.0243 102.952C30.104 95.2668 25.2167 84.986 24.2569 73.9917C23.2971 62.9974 26.329 52.0252 32.7977 43.0837C39.2663 34.1422 48.739 27.8295 59.4816 25.3012C70.2241 22.7729 81.518 24.1982 91.2956 29.3161C90.9823 30.7585 91.1902 32.2652 91.8825 33.5688C92.5747 34.8724 93.7064 35.8885 95.0767 36.4369C96.4471 36.9852 97.9674 37.0303 99.3678 36.5641C100.768 36.0979 101.958 35.1505 102.726 33.8902C103.495 32.6299 103.791 31.1382 103.564 29.6798C103.337 28.2215 102.6 26.8908 101.485 25.924C100.37 24.9572 98.9479 24.4169 97.472 24.3989C95.9961 24.381 94.5616 24.8865 93.4231 25.8258C82.7958 20.1908 70.4932 18.5759 58.7716 21.2772C47.05 23.9785 36.6952 30.815 29.6061 40.5328C22.5169 50.2507 19.1687 62.1985 20.1755 74.1851C21.1823 86.1717 26.4767 97.3937 35.0876 105.793C43.6984 114.192 55.0487 119.205 67.0566 119.913C79.0646 120.621 90.9253 116.977 100.464 109.648C110.002 102.319 116.578 91.7976 118.988 80.0123C121.396 68.2271 119.475 55.9684 113.578 45.4846Z" fill="#FFEADB"/>
<path d="M158.486 86H151.071L162.369 53.2727H171.286L182.568 86H175.153L166.955 60.7514H166.7L158.486 86ZM158.022 73.136H175.537V78.5373H158.022V73.136ZM186.379 95.2045V61.4545H193.091V65.5774H193.394C193.693 64.9169 194.124 64.2457 194.689 63.5639C195.264 62.8714 196.01 62.2962 196.926 61.8381C197.853 61.3693 199.003 61.1349 200.378 61.1349C202.168 61.1349 203.819 61.6037 205.332 62.5412C206.844 63.468 208.054 64.869 208.959 66.744C209.865 68.6083 210.317 70.9467 210.317 73.7592C210.317 76.4972 209.875 78.8089 208.991 80.6946C208.117 82.5696 206.924 83.9918 205.411 84.9613C203.909 85.9201 202.226 86.3995 200.362 86.3995C199.041 86.3995 197.917 86.1811 196.99 85.7443C196.074 85.3075 195.323 84.7589 194.737 84.0984C194.151 83.4272 193.703 82.7507 193.394 82.0689H193.187V95.2045H186.379ZM193.043 73.7273C193.043 75.1868 193.245 76.4599 193.65 77.5465C194.055 78.6332 194.641 79.4801 195.408 80.0874C196.175 80.6839 197.107 80.9822 198.204 80.9822C199.312 80.9822 200.25 80.6786 201.017 80.0714C201.784 79.4535 202.365 78.6012 202.759 77.5146C203.164 76.4173 203.366 75.1548 203.366 73.7273C203.366 72.3104 203.169 71.0639 202.775 69.9879C202.381 68.9119 201.8 68.0703 201.033 67.4631C200.266 66.8558 199.323 66.5522 198.204 66.5522C197.096 66.5522 196.159 66.8452 195.392 67.4311C194.636 68.017 194.055 68.848 193.65 69.924C193.245 71 193.043 72.2678 193.043 73.7273ZM225.946 86.4794C223.464 86.4794 221.317 85.9521 219.506 84.8974C217.706 83.832 216.315 82.3512 215.335 80.4549C214.355 78.5479 213.865 76.3374 213.865 73.8232C213.865 71.2876 214.355 69.0717 215.335 67.1754C216.315 65.2685 217.706 63.7876 219.506 62.733C221.317 61.6676 223.464 61.1349 225.946 61.1349C228.428 61.1349 230.569 61.6676 232.37 62.733C234.181 63.7876 235.577 65.2685 236.557 67.1754C237.537 69.0717 238.027 71.2876 238.027 73.8232C238.027 76.3374 237.537 78.5479 236.557 80.4549C235.577 82.3512 234.181 83.832 232.37 84.8974C230.569 85.9521 228.428 86.4794 225.946 86.4794ZM225.978 81.206C227.107 81.206 228.05 80.8864 228.806 80.2472C229.563 79.5973 230.133 78.7131 230.516 77.5945C230.91 76.4759 231.107 75.2028 231.107 73.7752C231.107 72.3477 230.91 71.0746 230.516 69.956C230.133 68.8374 229.563 67.9531 228.806 67.3033C228.05 66.6534 227.107 66.3285 225.978 66.3285C224.838 66.3285 223.879 66.6534 223.101 67.3033C222.334 67.9531 221.754 68.8374 221.36 69.956C220.976 71.0746 220.784 72.3477 220.784 73.7752C220.784 75.2028 220.976 76.4759 221.36 77.5945C221.754 78.7131 222.334 79.5973 223.101 80.2472C223.879 80.8864 224.838 81.206 225.978 81.206ZM249.261 53.2727V86H242.453V53.2727H249.261ZM261.522 53.2727V86H254.714V53.2727H261.522ZM278.065 86.4794C275.583 86.4794 273.436 85.9521 271.625 84.8974C269.825 83.832 268.434 82.3512 267.454 80.4549C266.474 78.5479 265.984 76.3374 265.984 73.8232C265.984 71.2876 266.474 69.0717 267.454 67.1754C268.434 65.2685 269.825 63.7876 271.625 62.733C273.436 61.6676 275.583 61.1349 278.065 61.1349C280.547 61.1349 282.689 61.6676 284.489 62.733C286.3 63.7876 287.696 65.2685 288.676 67.1754C289.656 69.0717 290.146 71.2876 290.146 73.8232C290.146 76.3374 289.656 78.5479 288.676 80.4549C287.696 82.3512 286.3 83.832 284.489 84.8974C282.689 85.9521 280.547 86.4794 278.065 86.4794ZM278.097 81.206C279.226 81.206 280.169 80.8864 280.925 80.2472C281.682 79.5973 282.252 78.7131 282.635 77.5945C283.03 76.4759 283.227 75.2028 283.227 73.7752C283.227 72.3477 283.03 71.0746 282.635 69.956C282.252 68.8374 281.682 67.9531 280.925 67.3033C280.169 66.6534 279.226 66.3285 278.097 66.3285C276.957 66.3285 275.998 66.6534 275.221 67.3033C274.454 67.9531 273.873 68.8374 273.479 69.956C273.095 71.0746 272.903 72.3477 272.903 73.7752C272.903 75.2028 273.095 76.4759 273.479 77.5945C273.873 78.7131 274.454 79.5973 275.221 80.2472C275.998 80.8864 276.957 81.206 278.097 81.206Z" fill="#FFEADB"/>
</svg>
