<svg width="374" height="140" viewBox="0 0 374 140" fill="none" xmlns="http://www.w3.org/2000/svg">
<rect width="374" height="140" rx="20" fill="#F02E65"/>
<path fill-rule="evenodd" clip-rule="evenodd" d="M86.6963 103.311C80.6136 103.311 74.9114 101.68 70.0044 98.8319C66.3221 100.964 62.2303 102.39 57.935 102.99C49.1875 104.213 40.3122 101.912 33.2617 96.5912C29.7672 93.958 26.8258 90.6621 24.6057 86.8919C22.3855 83.1213 20.9301 78.9503 20.3226 74.6173C19.7151 70.2843 19.9673 65.8738 21.065 61.638C22.1627 57.4024 24.0843 53.4249 26.7199 49.9324C29.3556 46.4397 32.6536 43.5006 36.4256 41.2832C40.1975 39.0657 44.3694 37.6133 48.7031 37.0088C53.0367 36.4043 57.4468 36.6597 61.6814 37.7604C64.6043 38.5202 67.4042 39.6723 70.0064 41.1806C74.9136 38.3336 80.6145 36.7033 86.6963 36.7033C105.09 36.7033 120 51.6136 120 70.0071C120 88.4002 105.09 103.311 86.6963 103.311ZM64.4296 45.2403L64.4399 45.2316C59.8152 43.1565 54.6616 42.4001 49.5613 43.1135C42.4287 44.1109 35.9844 47.901 31.6461 53.6499C27.308 59.3989 25.4311 66.6352 26.4286 73.7685C27.4261 80.9007 31.2162 87.345 36.965 91.6832C42.7138 96.0213 49.9506 97.8983 57.0831 96.9006C64.216 95.9033 70.6603 92.1135 74.9983 86.3644C79.3365 80.6152 81.2136 73.3789 80.2158 66.2462C79.7559 62.9556 78.7013 59.8113 77.134 56.953C74.296 51.7969 69.8306 47.6623 64.4296 45.2403Z" fill="white"/>
<path d="M54.2147 58.485C54.1747 58.5833 53.6657 60.5834 53.1171 62.9555C52.5481 65.3276 51.6463 69.0724 51.1375 71.2873C50.1563 75.3455 49.5681 78.0119 49.5681 78.3652C49.5681 78.4624 50.1762 78.5416 50.9206 78.5416H52.274L52.8809 75.8354C53.2347 74.3654 54.0191 70.9929 54.6462 68.3468C55.2737 65.6995 56.0378 62.4848 56.3326 61.1902C56.6259 59.8961 56.9202 58.7209 56.9791 58.5833C57.0387 58.4074 56.7045 58.349 55.6853 58.349C54.9203 58.349 54.2531 58.4074 54.2147 58.485ZM43.6862 66.974L41.8826 68.9348L42.4125 69.5618C42.7057 69.9145 43.5103 70.7975 44.1965 71.5226L45.4513 72.8556H49.0194L47.3338 71.0317C46.4115 70.0526 45.6468 69.1112 45.6468 68.9939C45.6468 68.8567 46.3531 67.9748 47.2159 67.0335C48.0781 66.0735 48.7841 65.2489 48.7841 65.1507C48.7841 65.0726 48.039 65.0136 47.1374 65.0136H45.5103L43.6862 66.974ZM57.41 65.1311C57.41 65.1905 57.7437 65.5625 58.1543 65.9742C59.6848 67.5037 60.7628 68.7983 60.7038 69.0523C60.665 69.1898 59.9192 70.1105 59.0181 71.0716L57.3914 72.8556H59.2141L61.0374 72.8358L62.703 71.0132C63.6252 69.9941 64.37 69.0911 64.37 68.9736C64.37 68.8764 63.5859 67.9547 62.6052 66.916L60.8413 65.0136H59.1351C58.1745 65.0136 57.41 65.0726 57.41 65.1311Z" fill="white"/>
<path d="M158.485 86H151.071L162.369 53.2727H171.286L182.567 86H175.153L166.955 60.7514H166.699L158.485 86ZM158.022 73.136H175.536V78.5373H158.022V73.136ZM186.379 95.2045V61.4545H193.09V65.5774H193.394C193.692 64.9169 194.124 64.2457 194.688 63.5639C195.264 62.8714 196.009 62.2962 196.926 61.8381C197.852 61.3693 199.003 61.1349 200.377 61.1349C202.167 61.1349 203.818 61.6037 205.331 62.5412C206.844 63.468 208.053 64.869 208.959 66.744C209.864 68.6083 210.317 70.9467 210.317 73.7592C210.317 76.4972 209.875 78.8089 208.991 80.6946C208.117 82.5696 206.924 83.9918 205.411 84.9613C203.909 85.9201 202.226 86.3995 200.361 86.3995C199.04 86.3995 197.916 86.1811 196.99 85.7443C196.073 85.3075 195.322 84.7589 194.736 84.0984C194.15 83.4272 193.703 82.7507 193.394 82.0689H193.186V95.2045H186.379ZM193.042 73.7273C193.042 75.1868 193.245 76.4599 193.65 77.5465C194.055 78.6332 194.64 79.4801 195.407 80.0874C196.175 80.6839 197.107 80.9822 198.204 80.9822C199.312 80.9822 200.249 80.6786 201.017 80.0714C201.784 79.4535 202.364 78.6012 202.758 77.5146C203.163 76.4173 203.366 75.1548 203.366 73.7273C203.366 72.3104 203.169 71.0639 202.774 69.9879C202.38 68.9119 201.8 68.0703 201.032 67.4631C200.265 66.8558 199.323 66.5522 198.204 66.5522C197.096 66.5522 196.159 66.8452 195.392 67.4311C194.635 68.017 194.055 68.848 193.65 69.924C193.245 71 193.042 72.2678 193.042 73.7273ZM214.855 95.2045V61.4545H221.567V65.5774H221.871C222.169 64.9169 222.6 64.2457 223.165 63.5639C223.74 62.8714 224.486 62.2962 225.402 61.8381C226.329 61.3693 227.48 61.1349 228.854 61.1349C230.644 61.1349 232.295 61.6037 233.808 62.5412C235.32 63.468 236.53 64.869 237.435 66.744C238.341 68.6083 238.794 70.9467 238.794 73.7592C238.794 76.4972 238.351 78.8089 237.467 80.6946C236.594 82.5696 235.4 83.9918 233.888 84.9613C232.385 85.9201 230.702 86.3995 228.838 86.3995C227.517 86.3995 226.393 86.1811 225.466 85.7443C224.55 85.3075 223.799 84.7589 223.213 84.0984C222.627 83.4272 222.18 82.7507 221.871 82.0689H221.663V95.2045H214.855ZM221.519 73.7273C221.519 75.1868 221.721 76.4599 222.126 77.5465C222.531 78.6332 223.117 79.4801 223.884 80.0874C224.651 80.6839 225.583 80.9822 226.681 80.9822C227.789 80.9822 228.726 80.6786 229.493 80.0714C230.26 79.4535 230.841 78.6012 231.235 77.5146C231.64 76.4173 231.842 75.1548 231.842 73.7273C231.842 72.3104 231.645 71.0639 231.251 69.9879C230.857 68.9119 230.276 68.0703 229.509 67.4631C228.742 66.8558 227.799 66.5522 226.681 66.5522C225.573 66.5522 224.635 66.8452 223.868 67.4311C223.112 68.017 222.531 68.848 222.126 69.924C221.721 71 221.519 72.2678 221.519 73.7273ZM247.559 86L240.879 61.4545H247.766L251.57 77.946H251.793L255.756 61.4545H262.516L266.543 77.8501H266.751L270.49 61.4545H277.362L270.698 86H263.491L259.272 70.5632H258.968L254.75 86H247.559ZM280.993 86V61.4545H287.593V65.7372H287.848C288.296 64.2138 289.047 63.0632 290.102 62.2855C291.156 61.4972 292.371 61.103 293.745 61.103C294.086 61.103 294.454 61.1243 294.848 61.1669C295.242 61.2095 295.588 61.2681 295.886 61.3427V67.3832C295.567 67.2873 295.125 67.2021 294.56 67.1275C293.995 67.0529 293.479 67.0156 293.01 67.0156C292.009 67.0156 291.114 67.234 290.325 67.6708C289.548 68.0969 288.93 68.6935 288.472 69.4606C288.024 70.2276 287.801 71.1119 287.801 72.1133V86H280.993ZM299.406 86V61.4545H306.214V86H299.406ZM302.826 58.2905C301.814 58.2905 300.945 57.9549 300.221 57.2837C299.507 56.6019 299.15 55.7869 299.15 54.8388C299.15 53.9013 299.507 53.0969 300.221 52.4258C300.945 51.744 301.814 51.4031 302.826 51.4031C303.838 51.4031 304.701 51.744 305.415 52.4258C306.139 53.0969 306.501 53.9013 306.501 54.8388C306.501 55.7869 306.139 56.6019 305.415 57.2837C304.701 57.9549 303.838 58.2905 302.826 58.2905ZM324.723 61.4545V66.5682H309.941V61.4545H324.723ZM313.297 55.5739H320.104V78.4574C320.104 79.0859 320.2 79.576 320.392 79.9276C320.584 80.2685 320.85 80.5082 321.191 80.6467C321.543 80.7852 321.947 80.8544 322.405 80.8544C322.725 80.8544 323.045 80.8278 323.364 80.7745C323.684 80.7106 323.929 80.6626 324.099 80.6307L325.17 85.6964C324.829 85.8029 324.35 85.9254 323.732 86.0639C323.114 86.2131 322.363 86.3036 321.479 86.3356C319.838 86.3995 318.4 86.1811 317.164 85.6804C315.939 85.1797 314.985 84.402 314.304 83.3473C313.622 82.2926 313.286 80.9609 313.297 79.3523V55.5739ZM340.079 86.4794C337.555 86.4794 335.381 85.968 333.56 84.9453C331.748 83.9119 330.353 82.4524 329.373 80.5668C328.393 78.6705 327.903 76.4279 327.903 73.8391C327.903 71.3143 328.393 69.0984 329.373 67.1914C330.353 65.2844 331.733 63.7983 333.512 62.733C335.301 61.6676 337.4 61.1349 339.808 61.1349C341.427 61.1349 342.935 61.396 344.33 61.918C345.736 62.4293 346.962 63.2017 348.006 64.2351C349.06 65.2685 349.881 66.5682 350.467 68.1342C351.052 69.6896 351.345 71.5114 351.345 73.5994V75.4691H330.619V71.2504H344.937C344.937 70.2702 344.724 69.402 344.298 68.6456C343.872 67.8892 343.281 67.2979 342.524 66.8718C341.779 66.435 340.91 66.2166 339.92 66.2166C338.886 66.2166 337.97 66.4563 337.171 66.9357C336.383 67.4045 335.765 68.0384 335.317 68.8374C334.87 69.6257 334.641 70.5046 334.63 71.4741V75.4851C334.63 76.6996 334.854 77.7489 335.301 78.6332C335.759 79.5174 336.404 80.1992 337.235 80.6786C338.066 81.158 339.051 81.3977 340.191 81.3977C340.948 81.3977 341.64 81.2912 342.269 81.0781C342.897 80.8651 343.435 80.5455 343.883 80.1193C344.33 79.6932 344.671 79.1712 344.905 78.5533L351.202 78.9688C350.882 80.4815 350.227 81.8026 349.236 82.9318C348.256 84.0504 346.988 84.924 345.433 85.5526C343.888 86.1705 342.104 86.4794 340.079 86.4794Z" fill="white"/>
</svg>
