<svg width="140" height="140" viewBox="0 0 140 140" fill="none" xmlns="http://www.w3.org/2000/svg">
<rect width="140" height="140" rx="20" fill="#F02E65"/>
<path fill-rule="evenodd" clip-rule="evenodd" d="M86.6963 103.311C80.6136 103.311 74.9114 101.68 70.0044 98.8319C66.3221 100.964 62.2303 102.39 57.935 102.99C49.1875 104.213 40.3122 101.912 33.2617 96.5912C29.7671 93.958 26.8258 90.6621 24.6057 86.8919C22.3855 83.1213 20.9301 78.9503 20.3226 74.6173C19.7151 70.2843 19.9673 65.8738 21.065 61.638C22.1627 57.4024 24.0843 53.4249 26.7199 49.9324C29.3556 46.4397 32.6536 43.5006 36.4256 41.2832C40.1975 39.0657 44.3694 37.6133 48.7031 37.0088C53.0367 36.4043 57.4468 36.6597 61.6814 37.7604C64.6043 38.5202 67.4042 39.6723 70.0064 41.1806C74.9136 38.3336 80.6145 36.7033 86.6963 36.7033C105.09 36.7033 120 51.6136 120 70.0071C120 88.4002 105.09 103.311 86.6963 103.311ZM64.4296 45.2403L64.4399 45.2316C59.8152 43.1565 54.6616 42.4001 49.5613 43.1135C42.4287 44.1109 35.9844 47.901 31.6461 53.6499C27.308 59.3989 25.4311 66.6352 26.4286 73.7685C27.4261 80.9007 31.2162 87.345 36.965 91.6832C42.7138 96.0213 49.9506 97.8983 57.0831 96.9006C64.216 95.9033 70.6603 92.1135 74.9983 86.3644C79.3365 80.6152 81.2136 73.3789 80.2158 66.2462C79.7559 62.9556 78.7013 59.8113 77.134 56.953C74.296 51.7969 69.8306 47.6623 64.4296 45.2403Z" fill="white"/>
<path d="M54.2147 58.485C54.1747 58.5833 53.6657 60.5834 53.1171 62.9555C52.5481 65.3276 51.6462 69.0724 51.1375 71.2873C50.1563 75.3455 49.5681 78.0119 49.5681 78.3652C49.5681 78.4624 50.1762 78.5416 50.9206 78.5416H52.274L52.8809 75.8354C53.2347 74.3654 54.0191 70.9929 54.6462 68.3468C55.2737 65.6995 56.0378 62.4848 56.3326 61.1902C56.6259 59.8961 56.9202 58.7209 56.9791 58.5833C57.0387 58.4074 56.7045 58.349 55.6853 58.349C54.9203 58.349 54.2531 58.4074 54.2147 58.485ZM43.6862 66.974L41.8826 68.9348L42.4125 69.5618C42.7057 69.9145 43.5103 70.7975 44.1965 71.5226L45.4513 72.8556H49.0194L47.3338 71.0317C46.4115 70.0526 45.6468 69.1112 45.6468 68.9939C45.6468 68.8567 46.3531 67.9748 47.2159 67.0335C48.0781 66.0735 48.7841 65.2489 48.7841 65.1507C48.7841 65.0726 48.039 65.0136 47.1374 65.0136H45.5103L43.6862 66.974ZM57.41 65.1311C57.41 65.1905 57.7437 65.5625 58.1543 65.9742C59.6848 67.5037 60.7628 68.7983 60.7038 69.0523C60.665 69.1898 59.9192 70.1105 59.0181 71.0716L57.3914 72.8556H59.2141L61.0374 72.8358L62.703 71.0132C63.6252 69.9941 64.37 69.0911 64.37 68.9736C64.37 68.8764 63.5859 67.9547 62.6052 66.916L60.8413 65.0136H59.1351C58.1745 65.0136 57.41 65.0725 57.41 65.1311Z" fill="white"/>
</svg>
