<svg width="140" height="140" viewBox="0 0 140 140" fill="none" xmlns="http://www.w3.org/2000/svg">
<rect width="140" height="140" rx="20" fill="#00878F"/>
<path d="M127.879 79.1395C127.923 86.0939 125.092 92.7538 119.901 97.8971C114.479 103.242 107.176 106.247 99.5629 106.267C87.2607 106.267 76.8401 99.6907 68.5889 86.7269L68.4108 86.4214L63.0917 76.5459C58.7925 69.6926 51.4468 61.6611 40.7184 61.6611C40.566 61.6597 40.4092 61.6626 40.2481 61.6699C29.9967 61.8897 21.9169 69.5915 21.8575 79.2076C21.8246 83.586 23.6533 87.8281 26.9964 91.1449C30.5794 94.6786 35.4047 96.6671 40.4371 96.6838H63.7335C66.7096 100.592 69.8109 103.739 72.9321 106.267H40.4371C32.8227 106.248 25.5197 103.243 20.0969 97.8971C14.9119 92.7538 12.0787 86.0939 12.1205 79.1395C12.2303 64.3119 24.4841 52.4252 40.0349 52.0889C52.2512 51.8032 63.4258 58.7642 71.4616 71.662L71.6155 71.9257L76.9236 81.7837C83.3461 91.8109 90.7489 96.686 99.5629 96.686C104.557 96.686 109.454 94.6639 113.004 91.1471C116.344 87.8281 118.175 83.586 118.14 79.2076C118.081 69.7695 110.293 62.1733 100.315 61.6941C97.0124 61.5265 93.7178 62.1497 90.705 63.5118C90.5204 60.2525 89.5975 57.0778 88.0059 54.2275C86.9871 52.3793 85.7022 50.6908 84.1924 49.2161C80.2931 45.4114 75.3169 43.3146 70.1626 43.3146H70.0351C66.0474 43.3252 62.1524 44.5184 58.843 46.7434C55.4837 45.0594 51.9028 43.8598 48.207 43.1805C51.014 40.2238 54.3883 37.8634 58.1282 36.2403C61.8681 34.6171 65.8968 33.7646 69.9736 33.7335C77.7633 33.7094 85.2606 36.7668 91.0479 42.4222C93.8821 45.2041 96.1675 48.4946 97.7847 52.1219C98.5034 52.0779 99.2398 52.0713 99.9739 52.0889C115.516 52.4252 127.778 64.3119 127.879 79.1395Z" fill="white"/>
</svg>
