<svg width="140" height="140" viewBox="0 0 140 140" fill="none" xmlns="http://www.w3.org/2000/svg">
<rect width="140" height="140" rx="20" fill="#00878F"/>
<path d="M127.879 70C127.879 54.8377 115.087 42.5 99.3618 42.5C97.9126 42.5 96.4397 42.598 94.9749 42.8099C82.7596 44.5521 74.5827 53.3428 70.0044 60.0821C65.4151 53.3428 57.2399 44.5521 45.023 42.8099C43.5642 42.598 42.0885 42.5 40.6393 42.5C24.9098 42.5 12.1208 54.8377 12.1208 70C12.1208 85.1679 24.9098 97.5 40.6268 97.5C42.0857 97.5 43.5642 97.4037 45.023 97.1977C57.2399 95.4446 65.4151 86.6528 70.0044 79.9054C74.5827 86.6528 82.7596 95.4446 94.9749 97.1977C96.4397 97.4037 97.9126 97.5 99.3742 97.5C115.09 97.5 127.879 85.1679 127.879 70ZM43.6428 87.5408C42.6409 87.6837 41.6256 87.7583 40.6268 87.7583C30.2858 87.7583 21.8713 79.7874 21.8713 70C21.8713 60.213 30.2858 52.2364 40.6393 52.2364C41.6284 52.2364 42.6409 52.3195 43.6456 52.456C55.1536 54.0987 62.2016 65.4521 64.5902 69.9956C62.2004 74.5495 55.1536 85.8985 43.6428 87.5408ZM75.4157 70C77.8043 65.4521 84.8443 54.0987 96.3554 52.456C97.3538 52.3195 98.3743 52.2364 99.3618 52.2364C109.709 52.2364 118.127 60.213 118.127 70C118.127 79.7874 109.712 87.7583 99.3742 87.7583C98.3815 87.7583 97.3635 87.6837 96.3554 87.5408C84.8443 85.8985 77.7978 74.5431 75.4157 70Z" fill="white"/>
<path d="M49.902 67.314H32.78V72.8329H49.902V67.314Z" fill="white"/>
<path d="M101.263 72.8329H107.051V67.314H101.263V61.5068H95.73V67.314H89.9321V72.8329H95.73V78.6397H101.263V72.8329Z" fill="white"/>
</svg>
