<svg width="435" height="140" viewBox="0 0 435 140" fill="none" xmlns="http://www.w3.org/2000/svg">
<rect width="435" height="140" rx="20" fill="#334693"/>
<path d="M30.3711 90.5H21.3086L35.1172 50.5H46.0156L59.8047 90.5H50.7422L40.7227 59.6406H40.4102L30.3711 90.5ZM29.8047 74.7773H51.2109V81.3789H29.8047V74.7773ZM85.4053 62.0039C85.249 60.4284 84.5785 59.2044 83.3936 58.332C82.2087 57.4596 80.6006 57.0234 78.5693 57.0234C77.1891 57.0234 76.0238 57.2187 75.0732 57.6094C74.1227 57.987 73.3936 58.5143 72.8857 59.1914C72.391 59.8685 72.1436 60.6367 72.1436 61.4961C72.1175 62.2122 72.2673 62.8372 72.5928 63.3711C72.9313 63.9049 73.3936 64.3672 73.9795 64.7578C74.5654 65.1354 75.2425 65.4674 76.0107 65.7539C76.779 66.0273 77.5993 66.2617 78.4717 66.457L82.0654 67.3164C83.8102 67.707 85.4118 68.2279 86.8701 68.8789C88.3285 69.5299 89.5915 70.3307 90.6592 71.2812C91.7269 72.2318 92.5537 73.3516 93.1396 74.6406C93.7386 75.9297 94.0446 77.4076 94.0576 79.0742C94.0446 81.5221 93.4196 83.6445 92.1826 85.4414C90.9587 87.2253 89.1878 88.612 86.8701 89.6016C84.5654 90.5781 81.7855 91.0664 78.5303 91.0664C75.3011 91.0664 72.4886 90.5716 70.0928 89.582C67.71 88.5924 65.848 87.1276 64.5068 85.1875C63.1787 83.2344 62.4821 80.819 62.417 77.9414H70.6006C70.6917 79.2826 71.0758 80.4023 71.7529 81.3008C72.443 82.1862 73.361 82.8568 74.5068 83.3125C75.6657 83.7552 76.9743 83.9766 78.4326 83.9766C79.8649 83.9766 81.1084 83.7682 82.1631 83.3516C83.2308 82.9349 84.0576 82.3555 84.6436 81.6133C85.2295 80.8711 85.5225 80.0182 85.5225 79.0547C85.5225 78.1562 85.2555 77.401 84.7217 76.7891C84.2008 76.1771 83.4326 75.6562 82.417 75.2266C81.4144 74.7969 80.1839 74.4062 78.7256 74.0547L74.3701 72.9609C70.9977 72.1406 68.335 70.8581 66.3818 69.1133C64.4287 67.3685 63.4587 65.0182 63.4717 62.0625C63.4587 59.6406 64.1032 57.5247 65.4053 55.7148C66.7204 53.9049 68.5238 52.4922 70.8154 51.4766C73.1071 50.4609 75.7113 49.9531 78.6279 49.9531C81.5967 49.9531 84.1878 50.4609 86.4014 51.4766C88.6279 52.4922 90.3597 53.9049 91.5967 55.7148C92.8337 57.5247 93.4717 59.6211 93.5107 62.0039H85.4053ZM99.7461 90.5V50.5H115.527C118.561 50.5 121.146 51.0794 123.281 52.2383C125.417 53.3841 127.044 54.9792 128.164 57.0234C129.297 59.0547 129.863 61.3984 129.863 64.0547C129.863 66.7109 129.29 69.0547 128.145 71.0859C126.999 73.1172 125.339 74.6992 123.164 75.832C121.003 76.9648 118.385 77.5312 115.313 77.5312H105.254V70.7539H113.945C115.573 70.7539 116.914 70.474 117.969 69.9141C119.036 69.3411 119.831 68.5534 120.352 67.5508C120.885 66.5352 121.152 65.3698 121.152 64.0547C121.152 62.7266 120.885 61.5677 120.352 60.5781C119.831 59.5755 119.036 58.8008 117.969 58.2539C116.901 57.694 115.547 57.4141 113.906 57.4141H108.203V90.5H99.7461ZM138.184 91.0078C136.895 91.0078 135.788 90.5521 134.863 89.6406C133.952 88.7161 133.496 87.6094 133.496 86.3203C133.496 85.0443 133.952 83.9505 134.863 83.0391C135.788 82.1276 136.895 81.6719 138.184 81.6719C139.434 81.6719 140.527 82.1276 141.465 83.0391C142.402 83.9505 142.871 85.0443 142.871 86.3203C142.871 87.1797 142.65 87.9674 142.207 88.6836C141.777 89.3867 141.211 89.9531 140.508 90.3828C139.805 90.7995 139.03 91.0078 138.184 91.0078ZM183.315 50.5V90.5H176.011L158.608 65.3242H158.315V90.5H149.858V50.5H157.28L174.546 75.6562H174.897V50.5H183.315ZM190.303 90.5V50.5H217.256V57.4727H198.76V67.0039H215.869V73.9766H198.76V83.5273H217.334V90.5H190.303ZM222.456 57.4727V50.5H255.308V57.4727H243.062V90.5H234.702V57.4727H222.456Z" fill="url(#paint0_linear_76_38)"/>
<path d="M279.045 55.9091V85H275.523V55.9091H279.045ZM293.893 85.4545C292.075 85.4545 290.469 84.9953 289.077 84.0767C287.685 83.1487 286.596 81.8419 285.81 80.1562C285.024 78.4612 284.631 76.4583 284.631 74.1477C284.631 71.8561 285.024 69.8674 285.81 68.1818C286.596 66.4962 287.69 65.1941 289.092 64.2756C290.493 63.357 292.112 62.8977 293.95 62.8977C295.37 62.8977 296.492 63.1345 297.316 63.608C298.149 64.072 298.784 64.6023 299.219 65.1989C299.665 65.786 300.01 66.2689 300.256 66.6477H300.54V55.9091H303.893V85H300.654V81.6477H300.256C300.01 82.0455 299.66 82.5473 299.205 83.1534C298.751 83.75 298.102 84.285 297.259 84.7585C296.416 85.2225 295.294 85.4545 293.893 85.4545ZM294.347 82.4432C295.692 82.4432 296.828 82.0928 297.756 81.392C298.684 80.6818 299.39 79.7017 299.873 78.4517C300.356 77.1922 300.597 75.7386 300.597 74.0909C300.597 72.4621 300.361 71.0369 299.887 69.8153C299.414 68.5843 298.713 67.6278 297.785 66.946C296.857 66.2547 295.711 65.9091 294.347 65.9091C292.927 65.9091 291.743 66.2737 290.796 67.0028C289.859 67.7225 289.153 68.7027 288.68 69.9432C288.216 71.1742 287.984 72.5568 287.984 74.0909C287.984 75.6439 288.22 77.0549 288.694 78.3239C289.177 79.5833 289.887 80.5871 290.825 81.3352C291.772 82.0739 292.946 82.4432 294.347 82.4432ZM319.646 85.4545C317.543 85.4545 315.73 84.9905 314.205 84.0625C312.69 83.125 311.521 81.8182 310.697 80.142C309.882 78.4564 309.475 76.4962 309.475 74.2614C309.475 72.0265 309.882 70.0568 310.697 68.3523C311.521 66.6383 312.666 65.303 314.134 64.3466C315.612 63.3807 317.335 62.8977 319.305 62.8977C320.441 62.8977 321.563 63.0871 322.671 63.4659C323.779 63.8447 324.788 64.4602 325.697 65.3125C326.606 66.1553 327.33 67.2727 327.87 68.6648C328.41 70.0568 328.68 71.7708 328.68 73.8068V75.2273H311.862V72.3295H325.271C325.271 71.0985 325.024 70 324.532 69.0341C324.049 68.0682 323.358 67.3059 322.458 66.7472C321.568 66.1884 320.517 65.9091 319.305 65.9091C317.969 65.9091 316.814 66.2405 315.839 66.9034C314.873 67.5568 314.129 68.4091 313.609 69.4602C313.088 70.5114 312.827 71.6383 312.827 72.8409V74.7727C312.827 76.4205 313.112 77.8172 313.68 78.9631C314.257 80.0994 315.058 80.9659 316.08 81.5625C317.103 82.1496 318.291 82.4432 319.646 82.4432C320.526 82.4432 321.322 82.3201 322.032 82.0739C322.752 81.8182 323.372 81.4394 323.893 80.9375C324.414 80.4261 324.816 79.7917 325.1 79.0341L328.339 79.9432C327.998 81.0417 327.425 82.0076 326.62 82.8409C325.815 83.6648 324.821 84.3087 323.637 84.7727C322.453 85.2273 321.123 85.4545 319.646 85.4545ZM337.131 71.875V85H333.779V63.1818H337.018V66.5909H337.302C337.813 65.483 338.59 64.5928 339.631 63.9205C340.673 63.2386 342.018 62.8977 343.665 62.8977C345.143 62.8977 346.435 63.2008 347.543 63.8068C348.651 64.4034 349.513 65.3125 350.129 66.5341C350.744 67.7462 351.052 69.2803 351.052 71.1364V85H347.7V71.3636C347.7 69.6496 347.254 68.3144 346.364 67.358C345.474 66.392 344.253 65.9091 342.7 65.9091C341.629 65.9091 340.673 66.1411 339.83 66.6051C338.997 67.0691 338.339 67.7462 337.856 68.6364C337.373 69.5265 337.131 70.6061 337.131 71.875ZM366.666 63.1818V66.0227H355.359V63.1818H366.666ZM358.655 57.9545H362.007V78.75C362.007 79.697 362.144 80.4072 362.419 80.8807C362.703 81.3447 363.063 81.6572 363.499 81.8182C363.944 81.9697 364.412 82.0455 364.905 82.0455C365.274 82.0455 365.577 82.0265 365.814 81.9886C366.051 81.9413 366.24 81.9034 366.382 81.875L367.064 84.8864C366.837 84.9716 366.519 85.0568 366.112 85.142C365.705 85.2367 365.189 85.2841 364.564 85.2841C363.617 85.2841 362.689 85.0805 361.78 84.6733C360.88 84.2661 360.132 83.6458 359.536 82.8125C358.948 81.9792 358.655 80.928 358.655 79.6591V57.9545ZM371.709 85V63.1818H375.061V85H371.709ZM373.413 59.5455C372.76 59.5455 372.196 59.3229 371.723 58.8778C371.259 58.4328 371.027 57.8977 371.027 57.2727C371.027 56.6477 371.259 56.1127 371.723 55.6676C372.196 55.2225 372.76 55 373.413 55C374.067 55 374.625 55.2225 375.089 55.6676C375.563 56.1127 375.8 56.6477 375.8 57.2727C375.8 57.8977 375.563 58.4328 375.089 58.8778C374.625 59.3229 374.067 59.5455 373.413 59.5455ZM390.69 63.1818V66.0227H379.383V63.1818H390.69ZM382.678 57.9545H386.031V78.75C386.031 79.697 386.168 80.4072 386.442 80.8807C386.727 81.3447 387.086 81.6572 387.522 81.8182C387.967 81.9697 388.436 82.0455 388.928 82.0455C389.298 82.0455 389.601 82.0265 389.837 81.9886C390.074 81.9413 390.263 81.9034 390.406 81.875L391.087 84.8864C390.86 84.9716 390.543 85.0568 390.136 85.142C389.728 85.2367 389.212 85.2841 388.587 85.2841C387.64 85.2841 386.712 85.0805 385.803 84.6733C384.904 84.2661 384.156 83.6458 383.559 82.8125C382.972 81.9792 382.678 80.928 382.678 79.6591V57.9545ZM397.891 93.1818C397.323 93.1818 396.817 93.1345 396.371 93.0398C395.926 92.9545 395.619 92.8693 395.448 92.7841L396.3 89.8295C397.115 90.0379 397.835 90.1136 398.46 90.0568C399.085 90 399.638 89.7206 400.121 89.2188C400.614 88.7263 401.064 87.9261 401.471 86.8182L402.096 85.1136L394.028 63.1818H397.664L403.687 80.5682H403.914L409.937 63.1818H413.573L404.312 88.1818C403.895 89.3087 403.379 90.2415 402.763 90.9801C402.148 91.7282 401.433 92.2822 400.619 92.642C399.814 93.0019 398.905 93.1818 397.891 93.1818Z" fill="white"/>
<defs>
<linearGradient id="paint0_linear_76_38" x1="258" y1="103.5" x2="97.4884" y2="-46.4476" gradientUnits="userSpaceOnUse">
<stop stop-color="#E666CC"/>
<stop offset="1" stop-color="#9780E5"/>
</linearGradient>
</defs>
</svg>
