<svg width="378" height="140" viewBox="0 0 378 140" fill="none" xmlns="http://www.w3.org/2000/svg">
<rect width="378" height="140" rx="20" fill="#512BD4"/>
<path d="M27.7734 90.5H21.3672L35.7617 50.5H42.7344L57.1289 90.5H50.7227L39.4141 57.7656H39.1016L27.7734 90.5ZM28.8477 74.8359H49.6289V79.9141H28.8477V74.8359ZM84.3994 61.0078C84.1911 59.1589 83.3317 57.7266 81.8213 56.7109C80.3109 55.6823 78.4098 55.168 76.1182 55.168C74.4775 55.168 73.0583 55.4284 71.8604 55.9492C70.6624 56.457 69.7314 57.1602 69.0674 58.0586C68.4163 58.944 68.0908 59.9531 68.0908 61.0859C68.0908 62.0365 68.3122 62.8568 68.7549 63.5469C69.2106 64.237 69.8031 64.8164 70.5322 65.2852C71.2744 65.7409 72.0687 66.125 72.915 66.4375C73.7614 66.737 74.5752 66.9844 75.3564 67.1797L79.2627 68.1953C80.5387 68.5078 81.8473 68.931 83.1885 69.4648C84.5296 69.9987 85.7731 70.7018 86.9189 71.5742C88.0648 72.4466 88.9893 73.5273 89.6924 74.8164C90.4085 76.1055 90.7666 77.6484 90.7666 79.4453C90.7666 81.7109 90.1807 83.7227 89.0088 85.4805C87.8499 87.2383 86.1637 88.625 83.9502 89.6406C81.7497 90.6563 79.0869 91.1641 75.9619 91.1641C72.9671 91.1641 70.376 90.6888 68.1885 89.7383C66.001 88.7878 64.2887 87.4401 63.0518 85.6953C61.8148 83.9375 61.1312 81.8542 61.001 79.4453H67.0557C67.1729 80.8906 67.6416 82.0951 68.4619 83.0586C69.2952 84.0091 70.3564 84.7187 71.6455 85.1875C72.9476 85.6432 74.3734 85.8711 75.9229 85.8711C77.6286 85.8711 79.1455 85.6042 80.4736 85.0703C81.8148 84.5234 82.8695 83.7682 83.6377 82.8047C84.4059 81.8281 84.79 80.6888 84.79 79.3867C84.79 78.2018 84.4515 77.2318 83.7744 76.4766C83.1104 75.7214 82.2054 75.0964 81.0596 74.6016C79.9268 74.1068 78.6442 73.6706 77.2119 73.293L72.4854 72.0039C69.2822 71.1315 66.7432 69.849 64.8682 68.1562C63.0062 66.4635 62.0752 64.224 62.0752 61.4375C62.0752 59.1328 62.7002 57.1211 63.9502 55.4023C65.2002 53.6836 66.8929 52.349 69.0283 51.3984C71.1637 50.4349 73.5726 49.9531 76.2549 49.9531C78.9632 49.9531 81.3525 50.4284 83.4229 51.3789C85.5062 52.3294 87.1468 53.638 88.3447 55.3047C89.5426 56.9583 90.1676 58.8594 90.2197 61.0078H84.3994ZM97.9785 90.5V50.5H112.236C115.348 50.5 117.926 51.0664 119.971 52.1992C122.015 53.332 123.545 54.8815 124.561 56.8477C125.576 58.8008 126.084 61.0013 126.084 63.4492C126.084 65.9102 125.57 68.1237 124.541 70.0898C123.525 72.043 121.989 73.5924 119.932 74.7383C117.887 75.8711 115.316 76.4375 112.217 76.4375H102.412V71.3203H111.67C113.636 71.3203 115.231 70.9818 116.455 70.3047C117.679 69.6146 118.577 68.6771 119.15 67.4922C119.723 66.3073 120.01 64.9596 120.01 63.4492C120.01 61.9388 119.723 60.5977 119.15 59.4258C118.577 58.2539 117.673 57.3359 116.436 56.6719C115.212 56.0078 113.597 55.6758 111.592 55.6758H104.014V90.5H97.9785ZM134.658 90.8711C133.59 90.8711 132.673 90.4935 131.904 89.7383C131.136 88.9701 130.752 88.0456 130.752 86.9648C130.752 85.8971 131.136 84.9857 131.904 84.2305C132.673 83.4622 133.59 83.0781 134.658 83.0781C135.726 83.0781 136.644 83.4622 137.412 84.2305C138.18 84.9857 138.564 85.8971 138.564 86.9648C138.564 87.681 138.382 88.3385 138.018 88.9375C137.666 89.5234 137.197 89.9922 136.611 90.3437C136.025 90.6953 135.374 90.8711 134.658 90.8711ZM179.141 50.5V90.5H173.594L153.262 61.1641H152.891V90.5H146.855V50.5H152.441L172.793 79.875H173.164V50.5H179.141ZM187.944 90.5V50.5H213.022V55.6953H193.979V67.8828H211.714V73.0586H193.979V85.3047H213.257V90.5H187.944ZM219.111 55.6953V50.5H250.068V55.6953H237.588V90.5H231.572V55.6953H219.111Z" fill="white"/>
<path d="M293.932 65H290.409C290.201 63.9867 289.836 63.0966 289.315 62.3295C288.804 61.5625 288.179 60.9186 287.44 60.3977C286.711 59.8674 285.902 59.4697 285.011 59.2045C284.121 58.9394 283.193 58.8068 282.227 58.8068C280.466 58.8068 278.87 59.2519 277.44 60.142C276.02 61.0322 274.888 62.3438 274.045 64.0767C273.212 65.8097 272.795 67.9356 272.795 70.4545C272.795 72.9735 273.212 75.0994 274.045 76.8324C274.888 78.5653 276.02 79.8769 277.44 80.767C278.87 81.6572 280.466 82.1023 282.227 82.1023C283.193 82.1023 284.121 81.9697 285.011 81.7045C285.902 81.4394 286.711 81.0464 287.44 80.5256C288.179 79.9953 288.804 79.3466 289.315 78.5795C289.836 77.803 290.201 76.9129 290.409 75.9091H293.932C293.667 77.3958 293.184 78.7263 292.483 79.9006C291.782 81.0748 290.911 82.0739 289.869 82.8977C288.828 83.7121 287.658 84.3324 286.361 84.7585C285.073 85.1847 283.695 85.3977 282.227 85.3977C279.746 85.3977 277.54 84.7917 275.608 83.5795C273.676 82.3674 272.156 80.6439 271.048 78.4091C269.94 76.1742 269.386 73.5227 269.386 70.4545C269.386 67.3864 269.94 64.7348 271.048 62.5C272.156 60.2652 273.676 58.5417 275.608 57.3295C277.54 56.1174 279.746 55.5114 282.227 55.5114C283.695 55.5114 285.073 55.7244 286.361 56.1506C287.658 56.5767 288.828 57.2017 289.869 58.0256C290.911 58.84 291.782 59.8343 292.483 61.0085C293.184 62.1733 293.667 63.5038 293.932 65ZM308.033 85.4545C306.064 85.4545 304.335 84.9858 302.849 84.0483C301.371 83.1108 300.216 81.7992 299.383 80.1136C298.559 78.428 298.147 76.4583 298.147 74.2045C298.147 71.9318 298.559 69.9479 299.383 68.2528C300.216 66.5578 301.371 65.2415 302.849 64.304C304.335 63.3665 306.064 62.8977 308.033 62.8977C310.003 62.8977 311.727 63.3665 313.204 64.304C314.691 65.2415 315.846 66.5578 316.67 68.2528C317.503 69.9479 317.92 71.9318 317.92 74.2045C317.92 76.4583 317.503 78.428 316.67 80.1136C315.846 81.7992 314.691 83.1108 313.204 84.0483C311.727 84.9858 310.003 85.4545 308.033 85.4545ZM308.033 82.4432C309.53 82.4432 310.761 82.0597 311.727 81.2926C312.692 80.5256 313.407 79.517 313.871 78.267C314.335 77.017 314.567 75.6629 314.567 74.2045C314.567 72.7462 314.335 71.3873 313.871 70.1278C313.407 68.8684 312.692 67.8504 311.727 67.0739C310.761 66.2973 309.53 65.9091 308.033 65.9091C306.537 65.9091 305.306 66.2973 304.34 67.0739C303.374 67.8504 302.659 68.8684 302.195 70.1278C301.731 71.3873 301.499 72.7462 301.499 74.2045C301.499 75.6629 301.731 77.017 302.195 78.267C302.659 79.517 303.374 80.5256 304.34 81.2926C305.306 82.0597 306.537 82.4432 308.033 82.4432ZM323.037 85V63.1818H326.276V66.4773H326.503C326.901 65.3977 327.62 64.5218 328.662 63.8494C329.704 63.1771 330.878 62.8409 332.185 62.8409C332.431 62.8409 332.739 62.8456 333.108 62.8551C333.477 62.8646 333.757 62.8788 333.946 62.8977V66.3068C333.832 66.2784 333.572 66.2358 333.165 66.179C332.767 66.1127 332.346 66.0795 331.901 66.0795C330.84 66.0795 329.893 66.3021 329.06 66.7472C328.236 67.1828 327.582 67.7888 327.099 68.5653C326.626 69.3324 326.389 70.2083 326.389 71.1932V85H323.037ZM346.403 85.4545C344.301 85.4545 342.488 84.9905 340.963 84.0625C339.448 83.125 338.278 81.8182 337.455 80.142C336.64 78.4564 336.233 76.4962 336.233 74.2614C336.233 72.0265 336.64 70.0568 337.455 68.3523C338.278 66.6383 339.424 65.303 340.892 64.3466C342.369 63.3807 344.093 62.8977 346.062 62.8977C347.199 62.8977 348.321 63.0871 349.429 63.4659C350.537 63.8447 351.545 64.4602 352.455 65.3125C353.364 66.1553 354.088 67.2727 354.628 68.6648C355.168 70.0568 355.438 71.7708 355.438 73.8068V75.2273H338.619V72.3295H352.028C352.028 71.0985 351.782 70 351.29 69.0341C350.807 68.0682 350.116 67.3059 349.216 66.7472C348.326 66.1884 347.275 65.9091 346.062 65.9091C344.727 65.9091 343.572 66.2405 342.597 66.9034C341.631 67.5568 340.887 68.4091 340.366 69.4602C339.846 70.5114 339.585 71.6383 339.585 72.8409V74.7727C339.585 76.4205 339.869 77.8172 340.438 78.9631C341.015 80.0994 341.815 80.9659 342.838 81.5625C343.861 82.1496 345.049 82.4432 346.403 82.4432C347.284 82.4432 348.08 82.3201 348.79 82.0739C349.509 81.8182 350.13 81.4394 350.651 80.9375C351.171 80.4261 351.574 79.7917 351.858 79.0341L355.097 79.9432C354.756 81.0417 354.183 82.0076 353.378 82.8409C352.573 83.6648 351.579 84.3087 350.395 84.7727C349.211 85.2273 347.881 85.4545 346.403 85.4545Z" fill="white"/>
</svg>
