<svg width="383" height="140" viewBox="0 0 383 140" fill="none" xmlns="http://www.w3.org/2000/svg">
<rect width="383" height="140" rx="20" fill="#334693"/>
<path d="M30.3711 90.5H21.3086L35.1172 50.5H46.0156L59.8047 90.5H50.7422L40.7227 59.6406H40.4102L30.3711 90.5ZM29.8047 74.7773H51.2109V81.3789H29.8047V74.7773ZM85.4053 62.0039C85.249 60.4284 84.5785 59.2044 83.3936 58.332C82.2087 57.4596 80.6006 57.0234 78.5693 57.0234C77.1891 57.0234 76.0238 57.2187 75.0732 57.6094C74.1227 57.987 73.3936 58.5143 72.8857 59.1914C72.391 59.8685 72.1436 60.6367 72.1436 61.4961C72.1175 62.2122 72.2673 62.8372 72.5928 63.3711C72.9313 63.9049 73.3936 64.3672 73.9795 64.7578C74.5654 65.1354 75.2425 65.4674 76.0107 65.7539C76.779 66.0273 77.5993 66.2617 78.4717 66.457L82.0654 67.3164C83.8102 67.707 85.4118 68.2279 86.8701 68.8789C88.3285 69.5299 89.5915 70.3307 90.6592 71.2812C91.7269 72.2318 92.5537 73.3516 93.1396 74.6406C93.7386 75.9297 94.0446 77.4076 94.0576 79.0742C94.0446 81.5221 93.4196 83.6445 92.1826 85.4414C90.9587 87.2253 89.1878 88.612 86.8701 89.6016C84.5654 90.5781 81.7855 91.0664 78.5303 91.0664C75.3011 91.0664 72.4886 90.5716 70.0928 89.582C67.71 88.5924 65.848 87.1276 64.5068 85.1875C63.1787 83.2344 62.4821 80.819 62.417 77.9414H70.6006C70.6917 79.2826 71.0758 80.4023 71.7529 81.3008C72.443 82.1862 73.361 82.8568 74.5068 83.3125C75.6657 83.7552 76.9743 83.9766 78.4326 83.9766C79.8649 83.9766 81.1084 83.7682 82.1631 83.3516C83.2308 82.9349 84.0576 82.3555 84.6436 81.6133C85.2295 80.8711 85.5225 80.0182 85.5225 79.0547C85.5225 78.1562 85.2555 77.401 84.7217 76.7891C84.2008 76.1771 83.4326 75.6562 82.417 75.2266C81.4144 74.7969 80.1839 74.4062 78.7256 74.0547L74.3701 72.9609C70.9977 72.1406 68.335 70.8581 66.3818 69.1133C64.4287 67.3685 63.4587 65.0182 63.4717 62.0625C63.4587 59.6406 64.1032 57.5247 65.4053 55.7148C66.7204 53.9049 68.5238 52.4922 70.8154 51.4766C73.1071 50.4609 75.7113 49.9531 78.6279 49.9531C81.5967 49.9531 84.1878 50.4609 86.4014 51.4766C88.6279 52.4922 90.3597 53.9049 91.5967 55.7148C92.8337 57.5247 93.4717 59.6211 93.5107 62.0039H85.4053ZM99.7461 90.5V50.5H115.527C118.561 50.5 121.146 51.0794 123.281 52.2383C125.417 53.3841 127.044 54.9792 128.164 57.0234C129.297 59.0547 129.863 61.3984 129.863 64.0547C129.863 66.7109 129.29 69.0547 128.145 71.0859C126.999 73.1172 125.339 74.6992 123.164 75.832C121.003 76.9648 118.385 77.5312 115.313 77.5312H105.254V70.7539H113.945C115.573 70.7539 116.914 70.474 117.969 69.9141C119.036 69.3411 119.831 68.5534 120.352 67.5508C120.885 66.5352 121.152 65.3698 121.152 64.0547C121.152 62.7266 120.885 61.5677 120.352 60.5781C119.831 59.5755 119.036 58.8008 117.969 58.2539C116.901 57.694 115.547 57.4141 113.906 57.4141H108.203V90.5H99.7461ZM138.184 91.0078C136.895 91.0078 135.788 90.5521 134.863 89.6406C133.952 88.7161 133.496 87.6094 133.496 86.3203C133.496 85.0443 133.952 83.9505 134.863 83.0391C135.788 82.1276 136.895 81.6719 138.184 81.6719C139.434 81.6719 140.527 82.1276 141.465 83.0391C142.402 83.9505 142.871 85.0443 142.871 86.3203C142.871 87.1797 142.65 87.9674 142.207 88.6836C141.777 89.3867 141.211 89.9531 140.508 90.3828C139.805 90.7995 139.03 91.0078 138.184 91.0078ZM183.315 50.5V90.5H176.011L158.608 65.3242H158.315V90.5H149.858V50.5H157.28L174.546 75.6562H174.897V50.5H183.315ZM190.303 90.5V50.5H217.256V57.4727H198.76V67.0039H215.869V73.9766H198.76V83.5273H217.334V90.5H190.303ZM222.456 57.4727V50.5H255.308V57.4727H243.062V90.5H234.702V57.4727H222.456Z" fill="url(#paint0_linear_75_15)"/>
<path d="M298.932 65H295.409C295.201 63.9867 294.836 63.0966 294.315 62.3295C293.804 61.5625 293.179 60.9186 292.44 60.3977C291.711 59.8674 290.902 59.4697 290.011 59.2045C289.121 58.9394 288.193 58.8068 287.227 58.8068C285.466 58.8068 283.87 59.2519 282.44 60.142C281.02 61.0322 279.888 62.3438 279.045 64.0767C278.212 65.8097 277.795 67.9356 277.795 70.4545C277.795 72.9735 278.212 75.0994 279.045 76.8324C279.888 78.5653 281.02 79.8769 282.44 80.767C283.87 81.6572 285.466 82.1023 287.227 82.1023C288.193 82.1023 289.121 81.9697 290.011 81.7045C290.902 81.4394 291.711 81.0464 292.44 80.5256C293.179 79.9953 293.804 79.3466 294.315 78.5795C294.836 77.803 295.201 76.9129 295.409 75.9091H298.932C298.667 77.3958 298.184 78.7263 297.483 79.9006C296.782 81.0748 295.911 82.0739 294.869 82.8977C293.828 83.7121 292.658 84.3324 291.361 84.7585C290.073 85.1847 288.695 85.3977 287.227 85.3977C284.746 85.3977 282.54 84.7917 280.608 83.5795C278.676 82.3674 277.156 80.6439 276.048 78.4091C274.94 76.1742 274.386 73.5227 274.386 70.4545C274.386 67.3864 274.94 64.7348 276.048 62.5C277.156 60.2652 278.676 58.5417 280.608 57.3295C282.54 56.1174 284.746 55.5114 287.227 55.5114C288.695 55.5114 290.073 55.7244 291.361 56.1506C292.658 56.5767 293.828 57.2017 294.869 58.0256C295.911 58.84 296.782 59.8343 297.483 61.0085C298.184 62.1733 298.667 63.5038 298.932 65ZM313.033 85.4545C311.064 85.4545 309.335 84.9858 307.849 84.0483C306.371 83.1108 305.216 81.7992 304.383 80.1136C303.559 78.428 303.147 76.4583 303.147 74.2045C303.147 71.9318 303.559 69.9479 304.383 68.2528C305.216 66.5578 306.371 65.2415 307.849 64.304C309.335 63.3665 311.064 62.8977 313.033 62.8977C315.003 62.8977 316.727 63.3665 318.204 64.304C319.691 65.2415 320.846 66.5578 321.67 68.2528C322.503 69.9479 322.92 71.9318 322.92 74.2045C322.92 76.4583 322.503 78.428 321.67 80.1136C320.846 81.7992 319.691 83.1108 318.204 84.0483C316.727 84.9858 315.003 85.4545 313.033 85.4545ZM313.033 82.4432C314.53 82.4432 315.761 82.0597 316.727 81.2926C317.692 80.5256 318.407 79.517 318.871 78.267C319.335 77.017 319.567 75.6629 319.567 74.2045C319.567 72.7462 319.335 71.3873 318.871 70.1278C318.407 68.8684 317.692 67.8504 316.727 67.0739C315.761 66.2973 314.53 65.9091 313.033 65.9091C311.537 65.9091 310.306 66.2973 309.34 67.0739C308.374 67.8504 307.659 68.8684 307.195 70.1278C306.731 71.3873 306.499 72.7462 306.499 74.2045C306.499 75.6629 306.731 77.017 307.195 78.267C307.659 79.517 308.374 80.5256 309.34 81.2926C310.306 82.0597 311.537 82.4432 313.033 82.4432ZM328.037 85V63.1818H331.276V66.4773H331.503C331.901 65.3977 332.62 64.5218 333.662 63.8494C334.704 63.1771 335.878 62.8409 337.185 62.8409C337.431 62.8409 337.739 62.8456 338.108 62.8551C338.477 62.8646 338.757 62.8788 338.946 62.8977V66.3068C338.832 66.2784 338.572 66.2358 338.165 66.179C337.767 66.1127 337.346 66.0795 336.901 66.0795C335.84 66.0795 334.893 66.3021 334.06 66.7472C333.236 67.1828 332.582 67.7888 332.099 68.5653C331.626 69.3324 331.389 70.2083 331.389 71.1932V85H328.037ZM351.403 85.4545C349.301 85.4545 347.488 84.9905 345.963 84.0625C344.448 83.125 343.278 81.8182 342.455 80.142C341.64 78.4564 341.233 76.4962 341.233 74.2614C341.233 72.0265 341.64 70.0568 342.455 68.3523C343.278 66.6383 344.424 65.303 345.892 64.3466C347.369 63.3807 349.093 62.8977 351.062 62.8977C352.199 62.8977 353.321 63.0871 354.429 63.4659C355.537 63.8447 356.545 64.4602 357.455 65.3125C358.364 66.1553 359.088 67.2727 359.628 68.6648C360.168 70.0568 360.438 71.7708 360.438 73.8068V75.2273H343.619V72.3295H357.028C357.028 71.0985 356.782 70 356.29 69.0341C355.807 68.0682 355.116 67.3059 354.216 66.7472C353.326 66.1884 352.275 65.9091 351.062 65.9091C349.727 65.9091 348.572 66.2405 347.597 66.9034C346.631 67.5568 345.887 68.4091 345.366 69.4602C344.846 70.5114 344.585 71.6383 344.585 72.8409V74.7727C344.585 76.4205 344.869 77.8172 345.438 78.9631C346.015 80.0994 346.815 80.9659 347.838 81.5625C348.861 82.1496 350.049 82.4432 351.403 82.4432C352.284 82.4432 353.08 82.3201 353.79 82.0739C354.509 81.8182 355.13 81.4394 355.651 80.9375C356.171 80.4261 356.574 79.7917 356.858 79.0341L360.097 79.9432C359.756 81.0417 359.183 82.0076 358.378 82.8409C357.573 83.6648 356.579 84.3087 355.395 84.7727C354.211 85.2273 352.881 85.4545 351.403 85.4545Z" fill="white"/>
<defs>
<linearGradient id="paint0_linear_75_15" x1="258" y1="103.5" x2="97.4884" y2="-46.4476" gradientUnits="userSpaceOnUse">
<stop stop-color="#E666CC"/>
<stop offset="1" stop-color="#9780E5"/>
</linearGradient>
</defs>
</svg>
