<svg width="665" height="140" viewBox="0 0 665 140" fill="none" xmlns="http://www.w3.org/2000/svg">
<rect width="665" height="140" rx="20" fill="#252F3E"/>
<path d="M48.181 61.8177C48.181 63.0483 48.3141 64.0461 48.5469 64.7778C48.813 65.5095 49.1456 66.3077 49.6112 67.1724C49.7775 67.4385 49.844 67.7046 49.844 67.9374C49.844 68.27 49.6444 68.6026 49.2121 68.9351L47.1168 70.332C46.8174 70.5316 46.5181 70.6313 46.252 70.6313C45.9194 70.6313 45.5868 70.4651 45.2543 70.1657C44.7886 69.6668 44.3895 69.1347 44.0569 68.6026C43.7243 68.0371 43.3918 67.4052 43.0259 66.6403C40.4317 69.7001 37.1723 71.23 33.2478 71.23C30.454 71.23 28.2256 70.4318 26.5959 68.8354C24.9662 67.2389 24.1348 65.1104 24.1348 62.4496C24.1348 59.6226 25.1325 57.3278 27.1613 55.5983C29.1901 53.8688 31.8842 53.0041 35.3098 53.0041C36.4406 53.0041 37.6047 53.1039 38.8353 53.2702C40.0659 53.4365 41.3297 53.7025 42.6601 54.0019V51.5739C42.6601 49.0463 42.1279 47.2835 41.0969 46.2525C40.0326 45.2215 38.2366 44.7226 35.6757 44.7226C34.5116 44.7226 33.3143 44.8556 32.0837 45.155C30.8531 45.4543 29.6558 45.8201 28.4917 46.2858C27.9595 46.5186 27.5604 46.6516 27.3276 46.7181C27.0948 46.7847 26.9285 46.8179 26.7955 46.8179C26.3299 46.8179 26.097 46.4853 26.097 45.7869V44.1572C26.097 43.6251 26.1636 43.2259 26.3299 42.9931C26.4962 42.7603 26.7955 42.5275 27.2611 42.2947C28.4252 41.696 29.822 41.1971 31.4518 40.798C33.0815 40.3657 34.8109 40.1661 36.6402 40.1661C40.598 40.1661 43.4915 41.0641 45.354 42.8601C47.1833 44.6561 48.1145 47.3833 48.1145 51.0418V61.8177H48.181ZM34.6779 66.8731C35.7755 66.8731 36.9063 66.6735 38.1036 66.2744C39.3009 65.8753 40.3652 65.1436 41.2632 64.1458C41.7953 63.5139 42.1944 62.8155 42.394 62.0173C42.5935 61.2191 42.7266 60.2545 42.7266 59.1237V57.7269C41.7621 57.494 40.731 57.2945 39.6668 57.1615C38.6025 57.0284 37.5714 56.9619 36.5404 56.9619C34.3121 56.9619 32.6824 57.3943 31.5848 58.2923C30.4873 59.1903 29.9551 60.4541 29.9551 62.117C29.9551 63.6802 30.3542 64.8443 31.1857 65.6425C31.9839 66.474 33.148 66.8731 34.6779 66.8731ZM61.3849 70.4651C60.7862 70.4651 60.3871 70.3653 60.121 70.1325C59.8549 69.9329 59.6221 69.4673 59.4226 68.8354L51.6067 43.1262C51.4072 42.461 51.3074 42.0286 51.3074 41.7958C51.3074 41.2637 51.5735 40.9643 52.1056 40.9643H55.365C55.9969 40.9643 56.4293 41.0641 56.6621 41.2969C56.9282 41.4965 57.1277 41.9621 57.3273 42.594L62.9148 64.6115L68.1032 42.594C68.2695 41.9288 68.469 41.4965 68.7351 41.2969C69.0012 41.0974 69.4668 40.9643 70.0655 40.9643H72.7262C73.3581 40.9643 73.7905 41.0641 74.0565 41.2969C74.3226 41.4965 74.5554 41.9621 74.6885 42.594L79.9434 64.8775L85.6972 42.594C85.8967 41.9288 86.1295 41.4965 86.3623 41.2969C86.6284 41.0974 87.0608 40.9643 87.6595 40.9643H90.7525C91.2847 40.9643 91.584 41.2304 91.584 41.7958C91.584 41.9621 91.5507 42.1284 91.5175 42.328C91.4842 42.5275 91.4177 42.7936 91.2847 43.1594L83.2693 68.8686C83.0697 69.5338 82.8369 69.9662 82.5708 70.1657C82.3048 70.3653 81.8724 70.4983 81.307 70.4983H78.4467C77.8148 70.4983 77.3824 70.3985 77.1164 70.1657C76.8503 69.9329 76.6175 69.5005 76.4844 68.8354L71.3293 47.3833L66.2074 68.8021C66.0411 69.4673 65.8416 69.8997 65.5755 70.1325C65.3094 70.3653 64.8438 70.4651 64.2451 70.4651H61.3849ZM104.123 71.363C102.393 71.363 100.664 71.1635 99.0008 70.7644C97.3378 70.3653 96.0407 69.9329 95.176 69.434C94.6438 69.1347 94.278 68.8021 94.1449 68.5028C94.0119 68.2034 93.9454 67.8708 93.9454 67.5715V65.8753C93.9454 65.1769 94.2115 64.8443 94.7104 64.8443C94.9099 64.8443 95.1095 64.8775 95.309 64.9441C95.5086 65.0106 95.8079 65.1436 96.1405 65.2767C97.2713 65.7755 98.5019 66.1746 99.799 66.4407C101.129 66.7068 102.426 66.8398 103.757 66.8398C105.852 66.8398 107.482 66.474 108.613 65.7423C109.743 65.0106 110.342 63.9463 110.342 62.5827C110.342 61.6514 110.043 60.8865 109.444 60.2545C108.845 59.6226 107.715 59.0572 106.085 58.5251L101.262 57.0284C98.8345 56.2635 97.0385 55.1327 95.9409 53.636C94.8434 52.1726 94.278 50.5429 94.278 48.8135C94.278 47.4166 94.5773 46.186 95.176 45.1217C95.7746 44.0574 96.5729 43.1262 97.5706 42.3945C98.5684 41.6295 99.6992 41.0641 101.03 40.665C102.36 40.2659 103.757 40.0996 105.22 40.0996C105.952 40.0996 106.717 40.1329 107.448 40.2326C108.213 40.3324 108.912 40.4654 109.61 40.5985C110.276 40.7648 110.907 40.9311 111.506 41.1306C112.105 41.3302 112.57 41.5297 112.903 41.7293C113.369 41.9954 113.701 42.2614 113.901 42.5608C114.1 42.8268 114.2 43.1927 114.2 43.6583V45.2215C114.2 45.9199 113.934 46.2858 113.435 46.2858C113.169 46.2858 112.737 46.1527 112.171 45.8867C110.275 45.0219 108.147 44.5896 105.786 44.5896C103.89 44.5896 102.393 44.8889 101.362 45.5208C100.331 46.1527 99.799 47.1172 99.799 48.4809C99.799 49.4121 100.132 50.2103 100.797 50.8423C101.462 51.4742 102.692 52.1061 104.455 52.6715L109.178 54.1682C111.573 54.9331 113.302 55.9974 114.333 57.361C115.364 58.7246 115.863 60.2878 115.863 62.0173C115.863 63.4474 115.564 64.7445 114.998 65.8753C114.4 67.0061 113.601 68.0039 112.57 68.8021C111.539 69.6336 110.309 70.2322 108.879 70.6646C107.382 71.1302 105.819 71.363 104.123 71.363Z" fill="white"/>
<path fill-rule="evenodd" clip-rule="evenodd" d="M110.408 87.5268C99.4663 95.6087 83.5685 99.8992 69.8991 99.8992C50.742 99.8992 33.4806 92.815 20.443 81.0413C19.412 80.11 20.3432 78.8462 21.5738 79.5779C35.6757 87.7596 53.0701 92.7152 71.0632 92.7152C83.2027 92.7152 96.5395 90.1875 108.812 84.9991C110.641 84.1676 112.204 86.1964 110.408 87.5268Z" fill="#FF9900"/>
<path fill-rule="evenodd" clip-rule="evenodd" d="M114.965 82.3384C113.568 80.5424 105.719 81.4737 102.16 81.906C101.096 82.0391 100.93 81.1078 101.894 80.4094C108.147 76.0192 118.424 77.283 119.621 78.7464C120.819 80.2431 119.289 90.5201 113.435 95.4424C112.537 96.2074 111.672 95.8083 112.071 94.8105C113.402 91.5179 116.362 84.1011 114.965 82.3384Z" fill="#FF9900"/>
<path d="M158.486 86H151.071L162.369 53.2727H171.286L182.568 86H175.153L166.955 60.7514H166.699L158.486 86ZM158.022 73.136H175.536V78.5373H158.022V73.136ZM186.379 86V61.4545H192.867V65.7852H193.154C193.666 64.3469 194.518 63.2124 195.711 62.3814C196.904 61.5504 198.332 61.1349 199.994 61.1349C201.677 61.1349 203.11 61.5558 204.292 62.3974C205.475 63.2283 206.263 64.3576 206.658 65.7852H206.913C207.414 64.3789 208.319 63.255 209.63 62.4134C210.951 61.5611 212.512 61.1349 214.312 61.1349C216.603 61.1349 218.462 61.8647 219.889 63.3242C221.327 64.7731 222.046 66.8292 222.046 69.4925V86H215.255V70.8349C215.255 69.4712 214.893 68.4485 214.168 67.7667C213.444 67.0849 212.538 66.744 211.452 66.744C210.216 66.744 209.252 67.1381 208.559 67.9265C207.867 68.7042 207.52 69.7322 207.52 71.0107V86H200.921V70.6911C200.921 69.4872 200.574 68.5284 199.882 67.8146C199.2 67.1009 198.3 66.744 197.181 66.744C196.425 66.744 195.743 66.9357 195.136 67.3192C194.539 67.6921 194.065 68.2195 193.714 68.9013C193.362 69.5724 193.186 70.3608 193.186 71.2663V86H186.379ZM234.423 86.4634C232.857 86.4634 231.461 86.1918 230.236 85.6484C229.011 85.0945 228.042 84.2795 227.328 83.2035C226.625 82.1168 226.273 80.7638 226.273 79.1445C226.273 77.7809 226.523 76.6357 227.024 75.7088C227.525 74.782 228.207 74.0362 229.07 73.4716C229.933 72.907 230.913 72.4808 232.01 72.1932C233.118 71.9055 234.279 71.7031 235.494 71.5859C236.921 71.4368 238.072 71.2983 238.945 71.1705C239.819 71.032 240.453 70.8295 240.847 70.5632C241.241 70.2969 241.438 69.9027 241.438 69.3807V69.2848C241.438 68.2727 241.119 67.4897 240.479 66.9357C239.851 66.3817 238.956 66.1048 237.795 66.1048C236.57 66.1048 235.595 66.3764 234.87 66.9197C234.146 67.4524 233.667 68.1236 233.432 68.9332L227.136 68.4219C227.456 66.9304 228.084 65.6413 229.022 64.5547C229.959 63.4574 231.168 62.6158 232.649 62.0298C234.141 61.4332 235.867 61.1349 237.827 61.1349C239.19 61.1349 240.495 61.2947 241.742 61.6143C242.999 61.9339 244.112 62.4293 245.082 63.1005C246.062 63.7717 246.834 64.6346 247.399 65.6893C247.963 66.7333 248.246 67.9851 248.246 69.4446V86H241.79V82.5962H241.598C241.204 83.3633 240.677 84.0398 240.016 84.6257C239.356 85.201 238.562 85.6538 237.635 85.984C236.708 86.3036 235.637 86.4634 234.423 86.4634ZM236.373 81.7653C237.374 81.7653 238.258 81.5682 239.025 81.174C239.792 80.7692 240.394 80.2259 240.831 79.544C241.268 78.8622 241.486 78.0898 241.486 77.2269V74.6222C241.273 74.7607 240.98 74.8885 240.607 75.0057C240.245 75.1122 239.835 75.2134 239.377 75.3093C238.919 75.3945 238.461 75.4744 238.003 75.549C237.544 75.6129 237.129 75.6715 236.756 75.7248C235.957 75.842 235.259 76.0284 234.663 76.2841C234.066 76.5398 233.603 76.886 233.272 77.3228C232.942 77.7489 232.777 78.2816 232.777 78.9208C232.777 79.8477 233.113 80.5561 233.784 81.0462C234.466 81.5256 235.329 81.7653 236.373 81.7653ZM253.399 86V81.9411L265.416 67.0636V66.8878H253.815V61.4545H273.614V65.881L262.332 80.391V80.5668H274.03V86H253.399ZM289.622 86.4794C287.14 86.4794 284.993 85.9521 283.182 84.8974C281.382 83.832 279.992 82.3512 279.012 80.4549C278.031 78.5479 277.541 76.3374 277.541 73.8232C277.541 71.2876 278.031 69.0717 279.012 67.1754C279.992 65.2685 281.382 63.7876 283.182 62.733C284.993 61.6676 287.14 61.1349 289.622 61.1349C292.105 61.1349 294.246 61.6676 296.046 62.733C297.857 63.7876 299.253 65.2685 300.233 67.1754C301.213 69.0717 301.703 71.2876 301.703 73.8232C301.703 76.3374 301.213 78.5479 300.233 80.4549C299.253 82.3512 297.857 83.832 296.046 84.8974C294.246 85.9521 292.105 86.4794 289.622 86.4794ZM289.654 81.206C290.784 81.206 291.726 80.8864 292.483 80.2472C293.239 79.5973 293.809 78.7131 294.193 77.5945C294.587 76.4759 294.784 75.2028 294.784 73.7752C294.784 72.3477 294.587 71.0746 294.193 69.956C293.809 68.8374 293.239 67.9531 292.483 67.3033C291.726 66.6534 290.784 66.3285 289.654 66.3285C288.514 66.3285 287.556 66.6534 286.778 67.3033C286.011 67.9531 285.43 68.8374 285.036 69.956C284.652 71.0746 284.461 72.3477 284.461 73.7752C284.461 75.2028 284.652 76.4759 285.036 77.5945C285.43 78.7131 286.011 79.5973 286.778 80.2472C287.556 80.8864 288.514 81.206 289.654 81.206ZM312.937 71.8097V86H306.13V61.4545H312.618V65.7852H312.905C313.449 64.3576 314.36 63.2283 315.638 62.3974C316.916 61.5558 318.466 61.1349 320.288 61.1349C321.993 61.1349 323.479 61.5078 324.747 62.2536C326.014 62.9993 327 64.0646 327.703 65.4496C328.406 66.8239 328.758 68.4645 328.758 70.3714V86H321.95V71.5859C321.961 70.0838 321.577 68.9119 320.8 68.0703C320.022 67.218 318.951 66.7919 317.588 66.7919C316.671 66.7919 315.862 66.989 315.159 67.3832C314.466 67.7773 313.923 68.3526 313.529 69.109C313.145 69.8548 312.948 70.755 312.937 71.8097ZM352.033 86L342.668 53.2727H350.227L355.644 76.0124H355.916L361.892 53.2727H368.364L374.325 76.0604H374.613L380.03 53.2727H387.588L378.224 86H371.48L365.248 64.6026H364.993L358.776 86H352.033ZM399.713 86.4794C397.188 86.4794 395.015 85.968 393.193 84.9453C391.382 83.9119 389.987 82.4524 389.007 80.5668C388.027 78.6705 387.536 76.4279 387.536 73.8391C387.536 71.3143 388.027 69.0984 389.007 67.1914C389.987 65.2844 391.366 63.7983 393.145 62.733C394.935 61.6676 397.034 61.1349 399.442 61.1349C401.061 61.1349 402.568 61.396 403.964 61.918C405.37 62.4293 406.595 63.2017 407.639 64.2351C408.694 65.2685 409.514 66.5682 410.1 68.1342C410.686 69.6896 410.979 71.5114 410.979 73.5994V75.4691H390.253V71.2504H404.571C404.571 70.2702 404.358 69.402 403.932 68.6456C403.506 67.8892 402.915 67.2979 402.158 66.8718C401.413 66.435 400.544 66.2166 399.554 66.2166C398.52 66.2166 397.604 66.4563 396.805 66.9357C396.017 67.4045 395.399 68.0384 394.951 68.8374C394.504 69.6257 394.275 70.5046 394.264 71.4741V75.4851C394.264 76.6996 394.488 77.7489 394.935 78.6332C395.393 79.5174 396.038 80.1992 396.869 80.6786C397.7 81.158 398.685 81.3977 399.825 81.3977C400.582 81.3977 401.274 81.2912 401.903 81.0781C402.531 80.8651 403.069 80.5455 403.517 80.1193C403.964 79.6932 404.305 79.1712 404.539 78.5533L410.835 78.9688C410.516 80.4815 409.861 81.8026 408.87 82.9318C407.89 84.0504 406.622 84.924 405.067 85.5526C403.522 86.1705 401.737 86.4794 399.713 86.4794ZM415.55 86V53.2727H422.357V65.5774H422.565C422.863 64.9169 423.295 64.2457 423.859 63.5639C424.435 62.8714 425.18 62.2962 426.096 61.8381C427.023 61.3693 428.174 61.1349 429.548 61.1349C431.338 61.1349 432.989 61.6037 434.502 62.5412C436.015 63.468 437.224 64.869 438.13 66.744C439.035 68.6083 439.488 70.9467 439.488 73.7592C439.488 76.4972 439.046 78.8089 438.161 80.6946C437.288 82.5696 436.095 83.9918 434.582 84.9613C433.08 85.9201 431.397 86.3995 429.532 86.3995C428.211 86.3995 427.087 86.1811 426.16 85.7443C425.244 85.3075 424.493 84.7589 423.907 84.0984C423.321 83.4272 422.874 82.7507 422.565 82.0689H422.261V86H415.55ZM422.213 73.7273C422.213 75.1868 422.416 76.4599 422.821 77.5465C423.225 78.6332 423.811 79.4801 424.578 80.0874C425.345 80.6839 426.278 80.9822 427.375 80.9822C428.483 80.9822 429.42 80.6786 430.187 80.0714C430.954 79.4535 431.535 78.6012 431.929 77.5146C432.334 76.4173 432.536 75.1548 432.536 73.7273C432.536 72.3104 432.339 71.0639 431.945 69.9879C431.551 68.9119 430.97 68.0703 430.203 67.4631C429.436 66.8558 428.493 66.5522 427.375 66.5522C426.267 66.5522 425.329 66.8452 424.562 67.4311C423.806 68.017 423.225 68.848 422.821 69.924C422.416 71 422.213 72.2678 422.213 73.7273ZM472.327 62.685C472.199 61.396 471.65 60.3945 470.681 59.6808C469.712 58.967 468.396 58.6101 466.734 58.6101C465.605 58.6101 464.651 58.7699 463.873 59.0895C463.096 59.3984 462.499 59.8299 462.084 60.3839C461.679 60.9379 461.476 61.5664 461.476 62.2695C461.455 62.8555 461.578 63.3668 461.844 63.8036C462.121 64.2404 462.499 64.6186 462.979 64.9382C463.458 65.2472 464.012 65.5188 464.641 65.7532C465.269 65.9769 465.94 66.1687 466.654 66.3285L469.594 67.0316C471.022 67.3512 472.332 67.7773 473.525 68.31C474.719 68.8427 475.752 69.4979 476.626 70.2756C477.499 71.0533 478.176 71.9695 478.655 73.0241C479.145 74.0788 479.395 75.288 479.406 76.6516C479.395 78.6545 478.884 80.391 477.872 81.8612C476.871 83.3207 475.422 84.4553 473.525 85.2649C471.64 86.0639 469.365 86.4634 466.702 86.4634C464.06 86.4634 461.759 86.0586 459.799 85.2489C457.849 84.4393 456.326 83.2408 455.228 81.6534C454.142 80.0554 453.572 78.0792 453.518 75.7248H460.214C460.289 76.8221 460.603 77.7383 461.157 78.4734C461.721 79.1978 462.473 79.7464 463.41 80.1193C464.358 80.4815 465.429 80.6626 466.622 80.6626C467.794 80.6626 468.811 80.4922 469.674 80.1513C470.548 79.8104 471.224 79.3363 471.704 78.729C472.183 78.1218 472.423 77.424 472.423 76.6357C472.423 75.9006 472.204 75.2827 471.768 74.782C471.342 74.2812 470.713 73.8551 469.882 73.5036C469.062 73.152 468.055 72.8324 466.862 72.5447L463.298 71.6499C460.539 70.9787 458.36 69.9293 456.762 68.5018C455.164 67.0742 454.371 65.1513 454.381 62.733C454.371 60.7514 454.898 59.0202 455.963 57.5394C457.039 56.0586 458.515 54.9027 460.39 54.0717C462.265 53.2408 464.395 52.8253 466.782 52.8253C469.211 52.8253 471.331 53.2408 473.142 54.0717C474.964 54.9027 476.381 56.0586 477.393 57.5394C478.405 59.0202 478.927 60.7354 478.959 62.685H472.327ZM495.119 86.4794C492.594 86.4794 490.42 85.968 488.599 84.9453C486.788 83.9119 485.392 82.4524 484.412 80.5668C483.432 78.6705 482.942 76.4279 482.942 73.8391C482.942 71.3143 483.432 69.0984 484.412 67.1914C485.392 65.2844 486.772 63.7983 488.551 62.733C490.341 61.6676 492.439 61.1349 494.847 61.1349C496.466 61.1349 497.974 61.396 499.369 61.918C500.776 62.4293 502.001 63.2017 503.045 64.2351C504.099 65.2685 504.92 66.5682 505.506 68.1342C506.092 69.6896 506.385 71.5114 506.385 73.5994V75.4691H485.658V71.2504H499.977C499.977 70.2702 499.763 69.402 499.337 68.6456C498.911 67.8892 498.32 67.2979 497.564 66.8718C496.818 66.435 495.95 66.2166 494.959 66.2166C493.925 66.2166 493.009 66.4563 492.21 66.9357C491.422 67.4045 490.804 68.0384 490.357 68.8374C489.909 69.6257 489.68 70.5046 489.669 71.4741V75.4851C489.669 76.6996 489.893 77.7489 490.341 78.6332C490.799 79.5174 491.443 80.1992 492.274 80.6786C493.105 81.158 494.091 81.3977 495.23 81.3977C495.987 81.3977 496.679 81.2912 497.308 81.0781C497.936 80.8651 498.474 80.5455 498.922 80.1193C499.369 79.6932 499.71 79.1712 499.945 78.5533L506.241 78.9688C505.921 80.4815 505.266 81.8026 504.275 82.9318C503.295 84.0504 502.027 84.924 500.472 85.5526C498.927 86.1705 497.143 86.4794 495.119 86.4794ZM510.827 86V61.4545H517.427V65.7372H517.683C518.13 64.2138 518.881 63.0632 519.936 62.2855C520.99 61.4972 522.205 61.103 523.579 61.103C523.92 61.103 524.288 61.1243 524.682 61.1669C525.076 61.2095 525.422 61.2681 525.72 61.3427V67.3832C525.401 67.2873 524.959 67.2021 524.394 67.1275C523.83 67.0529 523.313 67.0156 522.844 67.0156C521.843 67.0156 520.948 67.234 520.159 67.6708C519.382 68.0969 518.764 68.6935 518.306 69.4606C517.858 70.2276 517.635 71.1119 517.635 72.1133V86H510.827ZM552.871 61.4545L544.289 86H536.619L528.038 61.4545H535.229L540.326 79.0167H540.582L545.664 61.4545H552.871ZM556.354 86V61.4545H563.162V86H556.354ZM559.774 58.2905C558.762 58.2905 557.894 57.9549 557.169 57.2837C556.456 56.6019 556.099 55.7869 556.099 54.8388C556.099 53.9013 556.456 53.0969 557.169 52.4258C557.894 51.744 558.762 51.4031 559.774 51.4031C560.786 51.4031 561.649 51.744 562.363 52.4258C563.087 53.0969 563.45 53.9013 563.45 54.8388C563.45 55.7869 563.087 56.6019 562.363 57.2837C561.649 57.9549 560.786 58.2905 559.774 58.2905ZM579.705 86.4794C577.191 86.4794 575.028 85.9467 573.217 84.8814C571.417 83.8054 570.032 82.3139 569.063 80.407C568.104 78.5 567.624 76.3054 567.624 73.8232C567.624 71.3089 568.109 69.1037 569.079 67.2074C570.059 65.3004 571.449 63.8143 573.249 62.7489C575.05 61.6729 577.191 61.1349 579.673 61.1349C581.815 61.1349 583.69 61.5238 585.298 62.3015C586.907 63.0792 588.18 64.1712 589.118 65.5774C590.055 66.9837 590.572 68.6349 590.668 70.5312H584.244C584.063 69.3061 583.583 68.3207 582.805 67.5749C582.038 66.8185 581.032 66.4403 579.785 66.4403C578.731 66.4403 577.809 66.728 577.021 67.3033C576.243 67.8679 575.636 68.6935 575.199 69.7802C574.762 70.8668 574.544 72.1825 574.544 73.7273C574.544 75.2933 574.757 76.625 575.183 77.7223C575.62 78.8196 576.232 79.6559 577.021 80.2312C577.809 80.8065 578.731 81.0941 579.785 81.0941C580.563 81.0941 581.261 80.9343 581.879 80.6147C582.507 80.2951 583.024 79.8317 583.429 79.2244C583.844 78.6065 584.116 77.8661 584.244 77.0032H590.668C590.561 78.8782 590.05 80.5295 589.134 81.957C588.228 83.3739 586.976 84.4819 585.378 85.2809C583.78 86.0799 581.889 86.4794 579.705 86.4794ZM606.212 86.4794C603.687 86.4794 601.514 85.968 599.692 84.9453C597.881 83.9119 596.486 82.4524 595.506 80.5668C594.526 78.6705 594.035 76.4279 594.035 73.8391C594.035 71.3143 594.526 69.0984 595.506 67.1914C596.486 65.2844 597.865 63.7983 599.645 62.733C601.434 61.6676 603.533 61.1349 605.941 61.1349C607.56 61.1349 609.067 61.396 610.463 61.918C611.869 62.4293 613.094 63.2017 614.138 64.2351C615.193 65.2685 616.013 66.5682 616.599 68.1342C617.185 69.6896 617.478 71.5114 617.478 73.5994V75.4691H596.752V71.2504H611.07C611.07 70.2702 610.857 69.402 610.431 68.6456C610.005 67.8892 609.414 67.2979 608.657 66.8718C607.912 66.435 607.043 66.2166 606.053 66.2166C605.019 66.2166 604.103 66.4563 603.304 66.9357C602.516 67.4045 601.898 68.0384 601.45 68.8374C601.003 69.6257 600.774 70.5046 600.763 71.4741V75.4851C600.763 76.6996 600.987 77.7489 601.434 78.6332C601.892 79.5174 602.537 80.1992 603.368 80.6786C604.199 81.158 605.184 81.3977 606.324 81.3977C607.081 81.3977 607.773 81.2912 608.402 81.0781C609.03 80.8651 609.568 80.5455 610.016 80.1193C610.463 79.6932 610.804 79.1712 611.038 78.5533L617.334 78.9688C617.015 80.4815 616.36 81.8026 615.369 82.9318C614.389 84.0504 613.121 84.924 611.566 85.5526C610.021 86.1705 608.236 86.4794 606.212 86.4794ZM642.343 68.4538L636.111 68.8374C636.005 68.3047 635.776 67.8253 635.424 67.3991C635.072 66.9624 634.609 66.6161 634.034 66.3604C633.469 66.0941 632.793 65.9609 632.004 65.9609C630.95 65.9609 630.06 66.1847 629.336 66.6321C628.611 67.0689 628.249 67.6548 628.249 68.3899C628.249 68.9759 628.483 69.4712 628.952 69.8761C629.421 70.2809 630.225 70.6058 631.365 70.8509L635.808 71.7457C638.194 72.2358 639.973 73.0241 641.145 74.1108C642.317 75.1974 642.903 76.625 642.903 78.3935C642.903 80.0021 642.429 81.4137 641.48 82.6282C640.543 83.8427 639.254 84.7908 637.613 85.4727C635.983 86.1438 634.103 86.4794 631.972 86.4794C628.723 86.4794 626.134 85.8029 624.206 84.4499C622.288 83.0863 621.164 81.2326 620.834 78.8888L627.53 78.5373C627.732 79.5281 628.222 80.2844 629 80.8065C629.778 81.3178 630.774 81.5735 631.988 81.5735C633.181 81.5735 634.14 81.3445 634.865 80.8864C635.6 80.4176 635.973 79.8157 635.983 79.0806C635.973 78.4627 635.712 77.9567 635.2 77.5625C634.689 77.1577 633.901 76.8487 632.835 76.6357L628.584 75.7887C626.187 75.3093 624.403 74.4783 623.231 73.2958C622.07 72.1133 621.489 70.6058 621.489 68.7734C621.489 67.1967 621.915 65.8384 622.768 64.6985C623.631 63.5586 624.84 62.6797 626.395 62.0618C627.961 61.4439 629.794 61.1349 631.892 61.1349C634.993 61.1349 637.432 61.7901 639.211 63.1005C641.001 64.4109 642.045 66.1953 642.343 68.4538Z" fill="white"/>
</svg>
