<svg width="140" height="140" viewBox="0 0 140 140" fill="none" xmlns="http://www.w3.org/2000/svg">
<rect width="140" height="140" rx="20" fill="#183A55"/>
<path d="M53.338 22.8599H82.9287L52.2104 113.928C52.0534 114.393 51.8248 114.831 51.5329 115.226C51.2416 115.621 50.8904 115.967 50.4916 116.253C50.0928 116.54 49.6528 116.762 49.1852 116.912C48.7177 117.062 48.2302 117.14 47.7401 117.14H24.7112C23.9636 117.14 23.2261 116.962 22.561 116.62C21.8953 116.278 21.3206 115.783 20.8847 115.175C20.4484 114.567 20.1631 113.863 20.0521 113.123C19.9408 112.383 20.0083 111.627 20.2471 110.918L48.8665 26.0689C49.0227 25.6039 49.2515 25.1663 49.544 24.7713C49.8353 24.3763 50.1878 24.03 50.5853 23.7437C50.9841 23.4575 51.4241 23.2349 51.8917 23.0849C52.3592 22.9349 52.8467 22.8574 53.3368 22.8574V22.8587L53.338 22.8599Z" fill="url(#paint0_linear_67_518)"/>
<path d="M107.887 117.14H81.316C81.0198 117.14 80.7235 117.112 80.431 117.056C80.1397 117.001 79.8534 116.919 79.5772 116.81C79.3009 116.701 79.0359 116.566 78.7846 116.409C78.5337 116.25 78.298 116.068 78.0808 115.866L47.9289 87.7067C47.6099 87.4089 47.3878 87.0222 47.2913 86.5966C47.1949 86.1711 47.2288 85.7263 47.3887 85.3203C47.5485 84.9143 47.8269 84.5658 48.1876 84.3202C48.5489 84.0752 48.9752 83.9439 49.4115 83.9439H96.3345L107.884 117.141L107.887 117.14Z" fill="#0078D4"/>
<path d="M83.0349 22.8599L62.3211 83.9502L96.1658 83.9427L107.775 117.14H81.3048C81.031 117.137 80.7573 117.112 80.4873 117.064C80.2172 117.015 79.9522 116.944 79.6947 116.849C79.1783 116.661 78.698 116.385 78.2746 116.035L57.9208 97.0386L52.2229 113.842C52.0754 114.262 51.8729 114.661 51.6204 115.027C51.1143 115.764 50.422 116.354 49.614 116.736C49.2117 116.926 48.7858 117.062 48.3477 117.14H24.7249C23.9698 117.142 23.2248 116.962 22.5535 116.615C21.8821 116.268 21.3042 115.764 20.8686 115.146C20.433 114.528 20.1525 113.815 20.0508 113.066C19.9496 112.317 20.0297 111.554 20.2846 110.842L48.8577 26.1326C49.0064 25.6589 49.2302 25.2126 49.5202 24.8101C49.809 24.4075 50.1615 24.0525 50.5615 23.76C50.9616 23.4675 51.4066 23.24 51.8779 23.0874C52.3492 22.9349 52.8429 22.8574 53.3392 22.8599H83.0362H83.0349Z" fill="url(#paint1_linear_67_518)"/>
<path d="M119.752 110.918C119.991 111.628 120.059 112.383 119.949 113.123C119.838 113.863 119.553 114.566 119.117 115.175C118.681 115.783 118.107 116.278 117.441 116.62C116.776 116.961 116.039 117.14 115.291 117.14H82.3111C83.0586 117.14 83.7962 116.961 84.4625 116.62C85.1275 116.279 85.7026 115.782 86.1388 115.175C86.5751 114.567 86.8601 113.864 86.9714 113.123C87.0827 112.383 87.0152 111.627 86.7764 110.918L58.1557 26.0665C57.8407 25.1317 57.2404 24.3194 56.4394 23.7438C56.0418 23.4575 55.6018 23.2363 55.1355 23.0863C54.6692 22.9362 54.1817 22.86 53.6929 22.86H86.6714C87.1614 22.86 87.6477 22.9362 88.1152 23.0863C88.5815 23.2363 89.0215 23.4588 89.4203 23.7438C89.8178 24.0301 90.1691 24.3763 90.4604 24.7701C90.7517 25.1639 90.9792 25.6014 91.1367 26.0665L119.757 110.918H119.752Z" fill="url(#paint2_linear_67_518)"/>
<defs>
<linearGradient id="paint0_linear_67_518" x1="90.139" y1="29.848" x2="69.5053" y2="126.708" gradientUnits="userSpaceOnUse">
<stop stop-color="#114A8B"/>
<stop offset="1" stop-color="#0669BC"/>
</linearGradient>
<linearGradient id="paint1_linear_67_518" x1="81.2045" y1="72.1752" x2="73.3419" y2="75.2136" gradientUnits="userSpaceOnUse">
<stop stop-opacity="0.3"/>
<stop offset="0.1" stop-opacity="0.2"/>
<stop offset="0.3" stop-opacity="0.1"/>
<stop offset="0.6" stop-opacity="0.1"/>
<stop offset="1" stop-opacity="0"/>
</linearGradient>
<linearGradient id="paint2_linear_67_518" x1="69.8003" y1="27.1972" x2="103.553" y2="117.116" gradientUnits="userSpaceOnUse">
<stop stop-color="#3CCBF4"/>
<stop offset="1" stop-color="#2892DF"/>
</linearGradient>
</defs>
</svg>
