<svg width="140" height="140" viewBox="0 0 140 140" fill="none" xmlns="http://www.w3.org/2000/svg">
<rect width="140" height="140" rx="20" fill="#183A55"/>
<path d="M53.3381 22.8604H82.9288L52.2105 113.929C52.0535 114.394 51.8249 114.832 51.533 115.226C51.2417 115.621 50.8905 115.968 50.4917 116.254C50.0929 116.54 49.6529 116.763 49.1853 116.913C48.7178 117.063 48.2303 117.14 47.7402 117.14H24.7112C23.9637 117.14 23.2261 116.963 22.5611 116.62C21.8953 116.279 21.3206 115.783 20.8847 115.175C20.4485 114.567 20.1631 113.864 20.0522 113.124C19.9409 112.384 20.0084 111.627 20.2472 110.919L48.8666 26.0694C49.0228 25.6043 49.2516 25.1668 49.5441 24.7718C49.8354 24.3768 50.1879 24.0305 50.5854 23.7442C50.9842 23.458 51.4242 23.2354 51.8918 23.0854C52.3593 22.9354 52.8468 22.8579 53.3369 22.8579V22.8592L53.3381 22.8604Z" fill="url(#paint0_linear_67_518)"/>
<path d="M107.887 117.14H81.3161C81.0199 117.14 80.7236 117.113 80.4311 117.057C80.1398 117.002 79.8535 116.919 79.5773 116.81C79.301 116.702 79.036 116.567 78.7847 116.409C78.5338 116.251 78.2981 116.069 78.0809 115.867L47.929 87.7072C47.61 87.4094 47.3879 87.0227 47.2914 86.5971C47.195 86.1716 47.2289 85.7268 47.3888 85.3208C47.5486 84.9148 47.827 84.5663 48.1877 84.3207C48.549 84.0757 48.9753 83.9444 49.4116 83.9444H96.3346L107.884 117.142L107.887 117.14Z" fill="#0078D4"/>
<path d="M83.035 22.8604L62.3212 83.9507L96.1659 83.9432L107.775 117.14H81.3049C81.0311 117.138 80.7574 117.113 80.4874 117.064C80.2173 117.015 79.9523 116.944 79.6948 116.849C79.1784 116.661 78.6981 116.386 78.2747 116.035L57.9209 97.0391L52.223 113.843C52.0755 114.263 51.873 114.662 51.6205 115.028C51.1144 115.765 50.4221 116.354 49.6141 116.737C49.2118 116.927 48.7859 117.063 48.3478 117.14H24.7249C23.9699 117.143 23.2249 116.963 22.5536 116.615C21.8822 116.268 21.3042 115.764 20.8686 115.147C20.433 114.529 20.1525 113.815 20.0509 113.066C19.9496 112.317 20.0298 111.554 20.2847 110.843L48.8578 26.1331C49.0065 25.6594 49.2303 25.2131 49.5203 24.8105C49.8091 24.408 50.1616 24.053 50.5616 23.7605C50.9617 23.468 51.4067 23.2404 51.878 23.0879C52.3493 22.9354 52.843 22.8579 53.3393 22.8604H83.0363H83.035Z" fill="url(#paint1_linear_67_518)"/>
<path d="M119.752 110.919C119.991 111.628 120.059 112.384 119.949 113.124C119.838 113.864 119.553 114.567 119.117 115.175C118.681 115.783 118.107 116.278 117.441 116.62C116.776 116.962 116.039 117.14 115.291 117.141H82.3112C83.0587 117.141 83.7963 116.962 84.4626 116.62C85.1276 116.279 85.7027 115.783 86.1389 115.175C86.5752 114.568 86.8602 113.864 86.9715 113.124C87.0828 112.384 87.0153 111.628 86.7765 110.919L58.1558 26.0669C57.8408 25.1322 57.2405 24.3199 56.4395 23.7443C56.0419 23.458 55.6019 23.2368 55.1356 23.0867C54.6693 22.9367 54.1818 22.8605 53.693 22.8605H86.6715C87.1615 22.8605 87.6478 22.9367 88.1153 23.0867C88.5816 23.2368 89.0216 23.4593 89.4204 23.7443C89.8179 24.0306 90.1692 24.3768 90.4605 24.7706C90.7518 25.1644 90.9793 25.6019 91.1368 26.0669L119.757 110.919H119.752Z" fill="url(#paint2_linear_67_518)"/>
<defs>
<linearGradient id="paint0_linear_67_518" x1="90.1391" y1="29.8485" x2="69.5054" y2="126.708" gradientUnits="userSpaceOnUse">
<stop stop-color="#114A8B"/>
<stop offset="1" stop-color="#0669BC"/>
</linearGradient>
<linearGradient id="paint1_linear_67_518" x1="81.2046" y1="72.1757" x2="73.342" y2="75.2141" gradientUnits="userSpaceOnUse">
<stop stop-opacity="0.3"/>
<stop offset="0.1" stop-opacity="0.2"/>
<stop offset="0.3" stop-opacity="0.1"/>
<stop offset="0.6" stop-opacity="0.1"/>
<stop offset="1" stop-opacity="0"/>
</linearGradient>
<linearGradient id="paint2_linear_67_518" x1="69.8004" y1="27.1977" x2="103.553" y2="117.116" gradientUnits="userSpaceOnUse">
<stop stop-color="#3CCBF4"/>
<stop offset="1" stop-color="#2892DF"/>
</linearGradient>
</defs>
</svg>
