<svg width="525" height="140" viewBox="0 0 525 140" fill="none" xmlns="http://www.w3.org/2000/svg">
<rect width="525" height="140" rx="20" fill="#183A55"/>
<path d="M53.3381 22.8604H82.9288L52.2105 113.929C52.0535 114.394 51.8249 114.832 51.533 115.226C51.2417 115.621 50.8905 115.968 50.4917 116.254C50.0929 116.54 49.6529 116.763 49.1853 116.913C48.7178 117.063 48.2303 117.14 47.7402 117.14H24.7112C23.9637 117.14 23.2261 116.963 22.5611 116.62C21.8953 116.279 21.3206 115.783 20.8847 115.175C20.4485 114.567 20.1631 113.864 20.0522 113.124C19.9409 112.384 20.0084 111.627 20.2472 110.919L48.8666 26.0694C49.0228 25.6043 49.2516 25.1668 49.5441 24.7718C49.8354 24.3768 50.1879 24.0305 50.5854 23.7442C50.9842 23.458 51.4242 23.2354 51.8918 23.0854C52.3593 22.9354 52.8468 22.8579 53.3369 22.8579V22.8592L53.3381 22.8604Z" fill="url(#paint0_linear_67_515)"/>
<path d="M107.887 117.14H81.3161C81.0199 117.14 80.7236 117.113 80.4311 117.057C80.1398 117.002 79.8535 116.919 79.5773 116.81C79.301 116.702 79.036 116.567 78.7847 116.409C78.5338 116.251 78.2981 116.069 78.0809 115.867L47.929 87.7072C47.61 87.4094 47.3879 87.0227 47.2914 86.5971C47.195 86.1716 47.2289 85.7268 47.3888 85.3208C47.5486 84.9148 47.827 84.5663 48.1877 84.3207C48.549 84.0757 48.9753 83.9444 49.4116 83.9444H96.3346L107.884 117.142L107.887 117.14Z" fill="#0078D4"/>
<path d="M83.035 22.8604L62.3212 83.9507L96.1659 83.9432L107.775 117.14H81.3049C81.0311 117.138 80.7574 117.113 80.4874 117.064C80.2173 117.015 79.9523 116.944 79.6948 116.849C79.1784 116.661 78.6981 116.386 78.2747 116.035L57.9209 97.0391L52.223 113.843C52.0755 114.263 51.873 114.662 51.6205 115.028C51.1144 115.765 50.4221 116.354 49.6141 116.737C49.2118 116.927 48.7859 117.063 48.3478 117.14H24.7249C23.9699 117.143 23.2249 116.963 22.5536 116.615C21.8822 116.268 21.3042 115.764 20.8686 115.147C20.433 114.529 20.1525 113.815 20.0509 113.066C19.9496 112.317 20.0298 111.554 20.2847 110.843L48.8578 26.1331C49.0065 25.6594 49.2303 25.2131 49.5203 24.8105C49.8091 24.408 50.1616 24.053 50.5616 23.7605C50.9617 23.468 51.4067 23.2404 51.878 23.0879C52.3493 22.9354 52.843 22.8579 53.3393 22.8604H83.0363H83.035Z" fill="url(#paint1_linear_67_515)"/>
<path d="M119.752 110.919C119.991 111.628 120.059 112.384 119.949 113.124C119.838 113.864 119.553 114.567 119.117 115.175C118.681 115.783 118.107 116.278 117.441 116.62C116.776 116.962 116.039 117.14 115.291 117.141H82.3112C83.0587 117.141 83.7963 116.962 84.4626 116.62C85.1276 116.279 85.7027 115.783 86.1389 115.175C86.5752 114.568 86.8602 113.864 86.9715 113.124C87.0828 112.384 87.0153 111.628 86.7765 110.919L58.1558 26.0669C57.8408 25.1322 57.2405 24.3199 56.4395 23.7443C56.0419 23.458 55.6019 23.2368 55.1356 23.0867C54.6693 22.9367 54.1818 22.8605 53.693 22.8605H86.6715C87.1615 22.8605 87.6478 22.9367 88.1153 23.0867C88.5816 23.2368 89.0216 23.4593 89.4204 23.7443C89.8179 24.0306 90.1692 24.3768 90.4605 24.7706C90.7518 25.1644 90.9793 25.6019 91.1368 26.0669L119.757 110.919H119.752Z" fill="url(#paint2_linear_67_515)"/>
<path d="M152.844 53.2727H161.378L170.391 75.2614H170.774L179.787 53.2727H188.32V86H181.609V64.6985H181.337L172.868 85.8402H168.297L159.828 64.6186H159.556V86H152.844V53.2727ZM193.893 86V61.4545H200.701V86H193.893ZM197.313 58.2905C196.301 58.2905 195.433 57.9549 194.708 57.2837C193.995 56.6019 193.638 55.7869 193.638 54.8388C193.638 53.9013 193.995 53.0969 194.708 52.4258C195.433 51.744 196.301 51.4031 197.313 51.4031C198.325 51.4031 199.188 51.744 199.902 52.4258C200.626 53.0969 200.989 53.9013 200.989 54.8388C200.989 55.7869 200.626 56.6019 199.902 57.2837C199.188 57.9549 198.325 58.2905 197.313 58.2905ZM217.244 86.4794C214.73 86.4794 212.567 85.9467 210.756 84.8814C208.956 83.8054 207.571 82.3139 206.602 80.407C205.643 78.5 205.163 76.3054 205.163 73.8232C205.163 71.3089 205.648 69.1037 206.618 67.2074C207.598 65.3004 208.988 63.8143 210.788 62.7489C212.589 61.6729 214.73 61.1349 217.212 61.1349C219.354 61.1349 221.229 61.5238 222.837 62.3015C224.446 63.0792 225.719 64.1712 226.657 65.5774C227.594 66.9837 228.111 68.6349 228.207 70.5312H221.783C221.602 69.3061 221.122 68.3207 220.344 67.5749C219.577 66.8185 218.571 66.4403 217.324 66.4403C216.27 66.4403 215.348 66.728 214.56 67.3033C213.782 67.8679 213.175 68.6935 212.738 69.7802C212.301 70.8668 212.083 72.1825 212.083 73.7273C212.083 75.2933 212.296 76.625 212.722 77.7223C213.159 78.8196 213.771 79.6559 214.56 80.2312C215.348 80.8065 216.27 81.0941 217.324 81.0941C218.102 81.0941 218.8 80.9343 219.418 80.6147C220.046 80.2951 220.563 79.8317 220.968 79.2244C221.383 78.6065 221.655 77.8661 221.783 77.0032H228.207C228.1 78.8782 227.589 80.5295 226.673 81.957C225.767 83.3739 224.515 84.4819 222.917 85.2809C221.319 86.0799 219.428 86.4794 217.244 86.4794ZM232.565 86V61.4545H239.165V65.7372H239.421C239.868 64.2138 240.619 63.0632 241.674 62.2855C242.729 61.4972 243.943 61.103 245.317 61.103C245.658 61.103 246.026 61.1243 246.42 61.1669C246.814 61.2095 247.16 61.2681 247.459 61.3427V67.3832C247.139 67.2873 246.697 67.2021 246.132 67.1275C245.568 67.0529 245.051 67.0156 244.582 67.0156C243.581 67.0156 242.686 67.234 241.898 67.6708C241.12 68.0969 240.502 68.6935 240.044 69.4606C239.597 70.2276 239.373 71.1119 239.373 72.1133V86H232.565ZM260.926 86.4794C258.444 86.4794 256.297 85.9521 254.486 84.8974C252.686 83.832 251.295 82.3512 250.315 80.4549C249.335 78.5479 248.845 76.3374 248.845 73.8232C248.845 71.2876 249.335 69.0717 250.315 67.1754C251.295 65.2685 252.686 63.7876 254.486 62.733C256.297 61.6676 258.444 61.1349 260.926 61.1349C263.408 61.1349 265.55 61.6676 267.35 62.733C269.161 63.7876 270.557 65.2685 271.537 67.1754C272.517 69.0717 273.007 71.2876 273.007 73.8232C273.007 76.3374 272.517 78.5479 271.537 80.4549C270.557 82.3512 269.161 83.832 267.35 84.8974C265.55 85.9521 263.408 86.4794 260.926 86.4794ZM260.958 81.206C262.087 81.206 263.03 80.8864 263.786 80.2472C264.543 79.5973 265.113 78.7131 265.496 77.5945C265.89 76.4759 266.088 75.2028 266.088 73.7752C266.088 72.3477 265.89 71.0746 265.496 69.956C265.113 68.8374 264.543 67.9531 263.786 67.3033C263.03 66.6534 262.087 66.3285 260.958 66.3285C259.818 66.3285 258.859 66.6534 258.081 67.3033C257.314 67.9531 256.734 68.8374 256.34 69.956C255.956 71.0746 255.764 72.3477 255.764 73.7752C255.764 75.2028 255.956 76.4759 256.34 77.5945C256.734 78.7131 257.314 79.5973 258.081 80.2472C258.859 80.8864 259.818 81.206 260.958 81.206ZM297.856 68.4538L291.624 68.8374C291.517 68.3047 291.288 67.8253 290.937 67.3991C290.585 66.9624 290.122 66.6161 289.546 66.3604C288.982 66.0941 288.305 65.9609 287.517 65.9609C286.462 65.9609 285.573 66.1847 284.848 66.6321C284.124 67.0689 283.762 67.6548 283.762 68.3899C283.762 68.9759 283.996 69.4712 284.465 69.8761C284.933 70.2809 285.738 70.6058 286.878 70.8509L291.32 71.7457C293.706 72.2358 295.486 73.0241 296.657 74.1108C297.829 75.1974 298.415 76.625 298.415 78.3935C298.415 80.0021 297.941 81.4137 296.993 82.6282C296.056 83.8427 294.767 84.7908 293.126 85.4727C291.496 86.1438 289.616 86.4794 287.485 86.4794C284.236 86.4794 281.647 85.8029 279.719 84.4499C277.801 83.0863 276.677 81.2326 276.347 78.8888L283.042 78.5373C283.245 79.5281 283.735 80.2844 284.513 80.8065C285.29 81.3178 286.286 81.5735 287.501 81.5735C288.694 81.5735 289.653 81.3445 290.377 80.8864C291.112 80.4176 291.485 79.8157 291.496 79.0806C291.485 78.4627 291.224 77.9567 290.713 77.5625C290.202 77.1577 289.413 76.8487 288.348 76.6357L284.097 75.7887C281.7 75.3093 279.916 74.4783 278.744 73.2958C277.583 72.1133 277.002 70.6058 277.002 68.7734C277.002 67.1967 277.428 65.8384 278.28 64.6985C279.143 63.5586 280.352 62.6797 281.908 62.0618C283.474 61.4439 285.306 61.1349 287.405 61.1349C290.505 61.1349 292.945 61.7901 294.724 63.1005C296.514 64.4109 297.558 66.1953 297.856 68.4538ZM313.792 86.4794C311.31 86.4794 309.163 85.9521 307.352 84.8974C305.552 83.832 304.161 82.3512 303.181 80.4549C302.201 78.5479 301.711 76.3374 301.711 73.8232C301.711 71.2876 302.201 69.0717 303.181 67.1754C304.161 65.2685 305.552 63.7876 307.352 62.733C309.163 61.6676 311.31 61.1349 313.792 61.1349C316.274 61.1349 318.416 61.6676 320.216 62.733C322.027 63.7876 323.423 65.2685 324.403 67.1754C325.383 69.0717 325.873 71.2876 325.873 73.8232C325.873 76.3374 325.383 78.5479 324.403 80.4549C323.423 82.3512 322.027 83.832 320.216 84.8974C318.416 85.9521 316.274 86.4794 313.792 86.4794ZM313.824 81.206C314.953 81.206 315.896 80.8864 316.653 80.2472C317.409 79.5973 317.979 78.7131 318.362 77.5945C318.757 76.4759 318.954 75.2028 318.954 73.7752C318.954 72.3477 318.757 71.0746 318.362 69.956C317.979 68.8374 317.409 67.9531 316.653 67.3033C315.896 66.6534 314.953 66.3285 313.824 66.3285C312.684 66.3285 311.725 66.6534 310.948 67.3033C310.181 67.9531 309.6 68.8374 309.206 69.956C308.822 71.0746 308.631 72.3477 308.631 73.7752C308.631 75.2028 308.822 76.4759 309.206 77.5945C309.6 78.7131 310.181 79.5973 310.948 80.2472C311.725 80.8864 312.684 81.206 313.824 81.206ZM343.499 61.4545V66.5682H328.35V61.4545H343.499ZM331.818 86V59.6808C331.818 57.9016 332.164 56.4261 332.856 55.2543C333.56 54.0824 334.518 53.2035 335.733 52.6175C336.947 52.0316 338.327 51.7386 339.872 51.7386C340.916 51.7386 341.869 51.8185 342.732 51.9783C343.606 52.1381 344.256 52.282 344.682 52.4098L343.467 57.5234C343.201 57.4382 342.871 57.3583 342.476 57.2837C342.093 57.2092 341.699 57.1719 341.294 57.1719C340.293 57.1719 339.595 57.4062 339.201 57.875C338.806 58.3331 338.609 58.9776 338.609 59.8086V86H331.818ZM360.714 61.4545V66.5682H345.932V61.4545H360.714ZM349.288 55.5739H356.096V78.4574C356.096 79.0859 356.191 79.576 356.383 79.9276C356.575 80.2685 356.841 80.5082 357.182 80.6467C357.534 80.7852 357.939 80.8544 358.397 80.8544C358.716 80.8544 359.036 80.8278 359.355 80.7745C359.675 80.7106 359.92 80.6626 360.091 80.6307L361.161 85.6964C360.82 85.8029 360.341 85.9254 359.723 86.0639C359.105 86.2131 358.354 86.3036 357.47 86.3356C355.829 86.3995 354.391 86.1811 353.155 85.6804C351.93 85.1797 350.977 84.402 350.295 83.3473C349.613 82.2926 349.277 80.9609 349.288 79.3523V55.5739ZM381.332 86H373.917L385.215 53.2727H394.132L405.414 86H397.999L389.802 60.7514H389.546L381.332 86ZM380.869 73.136H398.383V78.5373H380.869V73.136ZM409.098 86V81.9411L421.115 67.0636V66.8878H409.513V61.4545H429.312V65.881L418.03 80.391V80.5668H429.728V86H409.098ZM450.674 75.549V61.4545H457.481V86H450.945V81.5415H450.69C450.136 82.9798 449.214 84.1357 447.925 85.0092C446.647 85.8828 445.086 86.3196 443.243 86.3196C441.602 86.3196 440.159 85.9467 438.912 85.201C437.666 84.4553 436.691 83.3952 435.988 82.021C435.296 80.6467 434.944 79.0007 434.933 77.0831V61.4545H441.741V75.8686C441.752 77.3175 442.14 78.4627 442.907 79.3043C443.675 80.146 444.703 80.5668 445.992 80.5668C446.812 80.5668 447.579 80.3803 448.293 80.0075C449.007 79.6239 449.582 79.0593 450.019 78.3136C450.466 77.5678 450.684 76.6463 450.674 75.549ZM462.927 86V61.4545H469.526V65.7372H469.782C470.229 64.2138 470.981 63.0632 472.035 62.2855C473.09 61.4972 474.304 61.103 475.679 61.103C476.02 61.103 476.387 61.1243 476.781 61.1669C477.176 61.2095 477.522 61.2681 477.82 61.3427V67.3832C477.5 67.2873 477.058 67.2021 476.494 67.1275C475.929 67.0529 475.412 67.0156 474.944 67.0156C473.942 67.0156 473.047 67.234 472.259 67.6708C471.481 68.0969 470.863 68.6935 470.405 69.4606C469.958 70.2276 469.734 71.1119 469.734 72.1133V86H462.927ZM491.383 86.4794C488.858 86.4794 486.685 85.968 484.863 84.9453C483.052 83.9119 481.657 82.4524 480.676 80.5668C479.696 78.6705 479.206 76.4279 479.206 73.8391C479.206 71.3143 479.696 69.0984 480.676 67.1914C481.657 65.2844 483.036 63.7983 484.815 62.733C486.605 61.6676 488.704 61.1349 491.112 61.1349C492.731 61.1349 494.238 61.396 495.634 61.918C497.04 62.4293 498.265 63.2017 499.309 64.2351C500.364 65.2685 501.184 66.5682 501.77 68.1342C502.356 69.6896 502.649 71.5114 502.649 73.5994V75.4691H481.923V71.2504H496.241C496.241 70.2702 496.028 69.402 495.602 68.6456C495.176 67.8892 494.585 67.2979 493.828 66.8718C493.082 66.435 492.214 66.2166 491.223 66.2166C490.19 66.2166 489.274 66.4563 488.475 66.9357C487.686 67.4045 487.069 68.0384 486.621 68.8374C486.174 69.6257 485.945 70.5046 485.934 71.4741V75.4851C485.934 76.6996 486.158 77.7489 486.605 78.6332C487.063 79.5174 487.708 80.1992 488.539 80.6786C489.37 81.158 490.355 81.3977 491.495 81.3977C492.251 81.3977 492.944 81.2912 493.572 81.0781C494.201 80.8651 494.739 80.5455 495.186 80.1193C495.634 79.6932 495.975 79.1712 496.209 78.5533L502.505 78.9688C502.186 80.4815 501.531 81.8026 500.54 82.9318C499.56 84.0504 498.292 84.924 496.737 85.5526C495.192 86.1705 493.407 86.4794 491.383 86.4794Z" fill="white"/>
<defs>
<linearGradient id="paint0_linear_67_515" x1="90.1391" y1="29.8485" x2="69.5054" y2="126.708" gradientUnits="userSpaceOnUse">
<stop stop-color="#114A8B"/>
<stop offset="1" stop-color="#0669BC"/>
</linearGradient>
<linearGradient id="paint1_linear_67_515" x1="81.2046" y1="72.1757" x2="73.342" y2="75.2141" gradientUnits="userSpaceOnUse">
<stop stop-opacity="0.3"/>
<stop offset="0.1" stop-opacity="0.2"/>
<stop offset="0.3" stop-opacity="0.1"/>
<stop offset="0.6" stop-opacity="0.1"/>
<stop offset="1" stop-opacity="0"/>
</linearGradient>
<linearGradient id="paint2_linear_67_515" x1="69.8004" y1="27.1977" x2="103.553" y2="117.116" gradientUnits="userSpaceOnUse">
<stop stop-color="#3CCBF4"/>
<stop offset="1" stop-color="#2892DF"/>
</linearGradient>
</defs>
</svg>
