<svg width="310" height="140" viewBox="0 0 310 140" fill="none" xmlns="http://www.w3.org/2000/svg">
<rect width="310" height="140" rx="20" fill="#334693"/>
<path d="M20 74.1061C20 74.0616 20 74.0172 20.0378 73.9258C20.1835 73.2586 20.267 72.6329 20.4037 72.0191C20.816 70.1665 21.1696 68.2956 21.6923 66.4738C22.5109 63.6206 23.7779 60.9521 25.2953 58.3983C26.7735 55.9105 28.5392 53.6436 30.5225 51.5501C32.0408 49.9476 33.7248 48.5261 35.5161 47.226C37.8748 45.5143 40.402 44.1081 43.0968 43.0244C45.4923 42.0612 47.9447 41.2396 50.5224 40.9056C52.3242 40.6721 54.1313 40.3801 55.9418 40.3325C59.4056 40.2415 62.8735 40.3011 66.3396 40.3078C68.7358 40.3123 71.1367 40.3573 73.5018 39.8981C75.1254 39.5828 76.7516 39.2521 78.3436 38.8096C80.8439 38.1147 83.1814 37.0184 85.4209 35.7063C87.9533 34.2227 90.2086 32.3885 92.3031 30.3465C92.5614 30.0947 92.7465 29.7542 93.0332 29.5499C93.2143 29.4209 93.5349 29.4097 93.766 29.4628C93.8759 29.488 94.0065 29.7981 93.9848 29.9599C93.8462 30.9923 93.6725 32.02 93.5016 33.0478C93.0186 35.9529 92.0404 38.7008 90.7746 41.3442C90.2348 42.4713 89.5461 43.5265 88.9468 44.6261C88.8577 44.7895 88.7987 45.1083 88.8855 45.1944C89.0036 45.3117 89.2967 45.3465 89.4776 45.2923C90.8586 44.879 92.2417 44.4675 93.6026 43.9937C95.663 43.2762 97.6569 42.389 99.5365 41.2835C102.157 39.7423 104.579 37.9332 106.611 35.6447C107.354 34.8076 108.14 34.0022 108.821 33.1171C110.721 30.6502 112.348 28.0051 113.815 25.2601C113.969 24.9718 114.118 24.6962 114.541 24.6939C114.96 24.6915 115.121 24.9505 115.274 25.245C116.667 27.9178 117.802 30.6927 118.555 33.6159C119.085 35.6684 119.491 37.743 119.707 39.8546C119.761 40.3763 119.9 40.8892 120 41.4061C120 41.4505 120 41.4949 119.964 41.588C119.952 41.8264 119.976 42.0162 120 42.2061C120 44.6415 120 47.0769 119.963 49.5763C119.95 49.8955 119.975 50.1508 120 50.4061C120 50.4505 120 50.4949 119.963 50.5886C119.884 50.7601 119.818 50.8798 119.804 51.0052C119.697 51.983 119.646 52.9691 119.49 53.9388C119.238 55.5122 118.958 57.0833 118.62 58.6404C118.066 61.1966 117.253 63.6779 116.293 66.1095C115.245 68.7633 114.028 71.3451 112.541 73.7744C111.267 75.8536 109.86 77.8569 108.413 79.8216C107.346 81.2715 106.199 82.6805 104.947 83.9718C103.277 85.6944 101.531 87.356 99.7058 88.912C98.0326 90.3383 96.2528 91.6514 94.4406 92.899C92.9036 93.9572 91.2823 94.9036 89.6464 95.805C86.9799 97.2743 84.2026 98.5129 81.3215 99.5073C77.8428 100.708 74.3004 101.657 70.6398 102.104C68.7528 102.334 66.8609 102.648 64.9677 102.674C61.8064 102.719 58.6286 102.929 55.4834 102.399C54.2354 102.188 52.9848 101.953 51.7662 101.617C49.7086 101.051 47.7502 100.225 45.8929 99.1577C43.9993 98.0698 42.2091 96.8358 40.6649 95.2947C39.583 94.2149 38.5685 93.0558 37.6206 91.8558C36.0141 89.8219 34.8388 87.5308 34.0443 85.0702C33.2265 82.5377 32.8447 79.9377 32.9779 77.2534C33.0596 75.6078 33.2505 73.9909 33.6024 72.3885C34.1728 69.7917 35.194 67.3648 36.5723 65.1078C37.998 62.7732 39.7597 60.7054 41.8876 58.9596C43.2285 57.8595 44.64 56.8717 46.1793 56.0744C48.0757 55.0922 50.0555 54.3486 52.1467 53.868C53.9312 53.458 55.7327 53.2142 57.5491 53.2304C59.0214 53.2435 60.4976 53.4268 61.9617 53.6152C64.2685 53.9119 66.4452 54.6729 68.5286 55.6852C70.4571 56.6222 72.235 57.7942 73.8607 59.204C75.4022 60.5408 76.8061 62.0046 77.9768 63.6685C79.5092 65.8466 80.6878 68.213 81.4888 70.7621C82.1286 72.798 82.4464 74.8918 82.5888 77.0099C82.6851 78.4419 82.5877 79.8743 82.1948 81.2672C81.8113 82.6269 81.1774 83.8516 80.0253 84.7154C78.9681 85.5081 77.766 85.7628 76.4344 85.6213C74.8324 85.4511 73.5371 84.8106 72.5991 83.4922C71.7331 82.2751 71.4293 80.8695 71.413 79.4221C71.3732 75.8727 71.4033 72.3225 71.3956 68.7726C71.3947 68.3469 71.3611 67.9171 71.2961 67.4964C70.8552 64.6457 68.1981 62.3001 65.2963 62.305C62.3298 62.3099 59.3629 62.2814 56.3968 62.3197C55.3846 62.3328 54.3648 62.4461 53.3654 62.6143C50.6906 63.0647 48.3943 64.3325 46.3785 66.0979C45.1766 67.1506 44.1749 68.3841 43.3516 69.7764C42.0539 71.971 41.3093 74.3316 41.2308 76.8565C41.1899 78.1715 41.3447 79.5229 41.6254 80.8112C42.2243 83.5588 43.5542 85.9519 45.5213 87.9778C46.9518 89.451 48.604 90.6014 50.4954 91.4056C52.2237 92.1405 54.0214 92.5729 55.9029 92.5994C56.5453 92.6084 57.1891 92.5462 57.8316 92.5053C59.4937 92.3995 61.0527 91.9126 62.5547 91.2165C64.4096 90.3568 66.0105 89.1522 67.3965 87.6561C67.5681 87.4709 67.7229 87.2702 67.8945 87.0659C68.8819 88.6864 70.1917 89.8696 71.8125 90.7033C72.9779 91.3029 74.2197 91.6482 75.5263 91.8209C76.7722 91.9856 78.0132 92.0241 79.2345 91.7772C81.9323 91.2317 84.0945 89.7658 85.7326 87.5979C87.6156 85.1056 88.5127 82.2138 88.5705 79.1162C88.6025 77.3977 88.4248 75.6604 88.1766 73.9556C87.9317 72.2734 87.5398 70.6053 87.1024 68.9603C86.4983 66.6889 85.5231 64.5606 84.3607 62.5177C83.2915 60.6385 82.0674 58.862 80.5975 57.2836C79.4821 56.0859 78.256 54.9859 77.029 53.8991C75.4359 52.4881 73.6276 51.382 71.7489 50.3934C69.4522 49.1848 67.0265 48.3125 64.505 47.7182C62.3139 47.2017 60.0823 46.9417 57.833 46.9193C56.7643 46.9087 55.6873 46.9844 54.6266 47.1191C53.1243 47.3099 51.6084 47.4906 50.1434 47.8564C47.5868 48.4948 45.1423 49.4508 42.8191 50.7268C40.2451 52.1404 37.9078 53.8706 35.8528 55.9443C34.5998 57.2089 33.507 58.6413 32.417 60.056C30.9184 62.0007 29.8003 64.1745 28.9101 66.455C28.1303 68.4526 27.4578 70.49 27.1923 72.6337C27.0173 74.0466 26.7493 75.4604 26.7293 76.8768C26.7053 78.5871 26.8183 80.3104 27.0243 82.0096C27.1975 83.439 27.5262 84.8588 27.8977 86.2531C28.5281 88.6187 29.519 90.8445 30.7251 92.9757C31.8402 94.9458 33.1627 96.7688 34.692 98.4297C35.9564 99.8028 37.3294 101.066 38.827 102.195C41.4984 104.21 44.397 105.796 47.5518 106.899C49.9989 107.755 52.5051 108.4 55.0985 108.598C57.384 108.773 59.6739 108.915 61.9646 108.988C63.0975 109.024 64.2377 108.89 65.3722 108.802C66.8453 108.687 68.3193 108.569 69.7867 108.399C71.1968 108.235 72.618 108.088 74.0004 107.781C76.4379 107.24 78.8731 106.661 81.2664 105.953C84.3498 105.042 87.3537 103.878 90.2212 102.419C92.4377 101.291 94.5773 100.012 96.7562 98.8087C97.0354 98.6545 97.3403 98.4535 97.7255 98.7788C96.6649 99.7888 95.6583 100.802 94.5927 101.748C93.3786 102.826 92.1309 103.868 90.8639 104.884C88.659 106.651 86.255 108.116 83.7508 109.415C80.7435 110.974 77.6102 112.227 74.3351 113.1C72.6736 113.542 71.0024 113.966 69.3145 114.287C67.808 114.574 66.2757 114.74 64.7486 114.9C63.1139 115.071 61.474 115.237 59.8327 115.288C58.2255 115.338 56.6116 115.28 55.0047 115.194C53.6801 115.122 52.347 115.021 51.0436 114.788C49.2564 114.468 47.4752 114.078 45.7247 113.597C42.8258 112.801 40.112 111.552 37.5279 110.014C35.5279 108.824 33.6378 107.474 31.9556 105.877C30.5911 104.581 29.3329 103.166 28.1021 101.74C26.5428 99.9324 25.3012 97.8991 24.2024 95.7852C23.0914 93.648 22.2174 91.4125 21.5424 89.098C20.8796 86.8252 20.409 84.5177 20.1927 82.1586C20.1815 82.0362 20.0666 81.9234 20 81.8061C20 81.7616 20 81.7172 20.0366 81.6234C20.0488 81.3513 20.0244 81.1287 20 80.9061C20 78.904 20 76.9019 20.0366 74.8369C20.0488 74.5513 20.0244 74.3287 20 74.1061Z" fill="url(#paint0_linear_67_540)"/>
<path d="M64.4786 81.5778C63.0005 84.2965 60.7962 85.9403 57.7526 86.4067C55.0879 86.815 52.6614 86.2036 50.5795 84.5089C48.6945 82.9745 47.5876 80.9724 47.2858 78.5147C46.9806 76.0292 47.5907 73.7998 49.0558 71.8287C50.3314 70.1128 52.0688 68.9986 54.1674 68.5177C54.7689 68.3798 55.4 68.3195 56.0182 68.3152C58.9175 68.2947 61.8171 68.3058 64.7165 68.3063C65.3124 68.3064 65.4987 68.4929 65.4991 69.1085C65.5011 72.008 65.5321 74.908 65.4838 77.8067C65.4651 78.928 65.2268 80.0368 64.7132 81.0613C64.634 81.2193 64.5735 81.3866 64.4786 81.5778Z" fill="url(#paint1_linear_67_540)"/>
<path d="M152.844 86V53.2727H165.948C168.356 53.2727 170.364 53.6296 171.973 54.3434C173.581 55.0572 174.79 56.0479 175.6 57.3157C176.41 58.5728 176.815 60.0217 176.815 61.6623C176.815 62.9407 176.559 64.0646 176.048 65.0341C175.536 65.9929 174.833 66.7812 173.938 67.3991C173.054 68.0064 172.042 68.4379 170.902 68.6935V69.0131C172.148 69.0664 173.315 69.418 174.402 70.0678C175.499 70.7177 176.388 71.6286 177.07 72.8004C177.752 73.9616 178.093 75.3466 178.093 76.9553C178.093 78.6918 177.662 80.2418 176.799 81.6055C175.946 82.9585 174.684 84.0291 173.011 84.8175C171.339 85.6058 169.277 86 166.827 86H152.844ZM159.764 80.343H165.405C167.333 80.343 168.739 79.9755 169.624 79.2404C170.508 78.4947 170.95 77.5039 170.95 76.2681C170.95 75.3626 170.732 74.5636 170.295 73.8711C169.858 73.1786 169.235 72.6353 168.425 72.2411C167.626 71.8469 166.673 71.6499 165.565 71.6499H159.764V80.343ZM159.764 66.9677H164.893C165.842 66.9677 166.683 66.8026 167.418 66.4723C168.164 66.1314 168.75 65.652 169.176 65.0341C169.613 64.4162 169.831 63.6758 169.831 62.8129C169.831 61.6303 169.411 60.6768 168.569 59.9524C167.738 59.228 166.555 58.8658 165.021 58.8658H159.764V66.9677ZM189.275 53.2727V86H182.468V53.2727H189.275ZM201.728 86.4634C200.162 86.4634 198.766 86.1918 197.541 85.6484C196.316 85.0945 195.346 84.2795 194.632 83.2035C193.929 82.1168 193.578 80.7638 193.578 79.1445C193.578 77.7809 193.828 76.6357 194.329 75.7088C194.83 74.782 195.511 74.0362 196.374 73.4716C197.237 72.907 198.217 72.4808 199.315 72.1932C200.423 71.9055 201.584 71.7031 202.798 71.5859C204.226 71.4368 205.376 71.2983 206.25 71.1705C207.124 71.032 207.757 70.8295 208.152 70.5632C208.546 70.2969 208.743 69.9027 208.743 69.3807V69.2848C208.743 68.2727 208.423 67.4897 207.784 66.9357C207.156 66.3817 206.261 66.1048 205.099 66.1048C203.874 66.1048 202.9 66.3764 202.175 66.9197C201.451 67.4524 200.971 68.1236 200.737 68.9332L194.441 68.4219C194.76 66.9304 195.389 65.6413 196.326 64.5547C197.264 63.4574 198.473 62.6158 199.954 62.0298C201.445 61.4332 203.171 61.1349 205.131 61.1349C206.495 61.1349 207.8 61.2947 209.047 61.6143C210.304 61.9339 211.417 62.4293 212.386 63.1005C213.366 63.7717 214.139 64.6346 214.703 65.6893C215.268 66.7333 215.55 67.9851 215.55 69.4446V86H209.094V82.5962H208.903C208.509 83.3633 207.981 84.0398 207.321 84.6257C206.66 85.201 205.866 85.6538 204.94 85.984C204.013 86.3036 202.942 86.4634 201.728 86.4634ZM203.677 81.7653C204.679 81.7653 205.563 81.5682 206.33 81.174C207.097 80.7692 207.699 80.2259 208.136 79.544C208.572 78.8622 208.791 78.0898 208.791 77.2269V74.6222C208.578 74.7607 208.285 74.8885 207.912 75.0057C207.55 75.1122 207.14 75.2134 206.681 75.3093C206.223 75.3945 205.765 75.4744 205.307 75.549C204.849 75.6129 204.434 75.6715 204.061 75.7248C203.262 75.842 202.564 76.0284 201.967 76.2841C201.371 76.5398 200.907 76.886 200.577 77.3228C200.247 77.7489 200.082 78.2816 200.082 78.9208C200.082 79.8477 200.417 80.5561 201.088 81.0462C201.77 81.5256 202.633 81.7653 203.677 81.7653ZM220.704 86V81.9411L232.721 67.0636V66.8878H221.119V61.4545H240.919V65.881L229.637 80.391V80.5668H241.334V86H220.704ZM256.927 86.4794C254.445 86.4794 252.298 85.9521 250.487 84.8974C248.687 83.832 247.296 82.3512 246.316 80.4549C245.336 78.5479 244.846 76.3374 244.846 73.8232C244.846 71.2876 245.336 69.0717 246.316 67.1754C247.296 65.2685 248.687 63.7876 250.487 62.733C252.298 61.6676 254.445 61.1349 256.927 61.1349C259.409 61.1349 261.551 61.6676 263.351 62.733C265.162 63.7876 266.558 65.2685 267.538 67.1754C268.518 69.0717 269.008 71.2876 269.008 73.8232C269.008 76.3374 268.518 78.5479 267.538 80.4549C266.558 82.3512 265.162 83.832 263.351 84.8974C261.551 85.9521 259.409 86.4794 256.927 86.4794ZM256.959 81.206C258.088 81.206 259.031 80.8864 259.787 80.2472C260.544 79.5973 261.114 78.7131 261.497 77.5945C261.891 76.4759 262.089 75.2028 262.089 73.7752C262.089 72.3477 261.891 71.0746 261.497 69.956C261.114 68.8374 260.544 67.9531 259.787 67.3033C259.031 66.6534 258.088 66.3285 256.959 66.3285C255.819 66.3285 254.86 66.6534 254.082 67.3033C253.315 67.9531 252.735 68.8374 252.341 69.956C251.957 71.0746 251.765 72.3477 251.765 73.7752C251.765 75.2028 251.957 76.4759 252.341 77.5945C252.735 78.7131 253.315 79.5973 254.082 80.2472C254.86 80.8864 255.819 81.206 256.959 81.206ZM273.434 86V61.4545H280.034V65.7372H280.29C280.737 64.2138 281.488 63.0632 282.543 62.2855C283.598 61.4972 284.812 61.103 286.187 61.103C286.527 61.103 286.895 61.1243 287.289 61.1669C287.683 61.2095 288.03 61.2681 288.328 61.3427V67.3832C288.008 67.2873 287.566 67.2021 287.002 67.1275C286.437 67.0529 285.92 67.0156 285.451 67.0156C284.45 67.0156 283.555 67.234 282.767 67.6708C281.989 68.0969 281.371 68.6935 280.913 69.4606C280.466 70.2276 280.242 71.1119 280.242 72.1133V86H273.434Z" fill="url(#paint2_linear_67_540)"/>
<defs>
<linearGradient id="paint0_linear_67_540" x1="120" y1="115.306" x2="3.51358" y2="81.4985" gradientUnits="userSpaceOnUse">
<stop stop-color="#E666CC"/>
<stop offset="1" stop-color="#9780E5"/>
</linearGradient>
<linearGradient id="paint1_linear_67_540" x1="120" y1="115.306" x2="3.51358" y2="81.4985" gradientUnits="userSpaceOnUse">
<stop stop-color="#E666CC"/>
<stop offset="1" stop-color="#9780E5"/>
</linearGradient>
<linearGradient id="paint2_linear_67_540" x1="290" y1="97" x2="169.294" y2="14.7014" gradientUnits="userSpaceOnUse">
<stop stop-color="#E666CC"/>
<stop offset="1" stop-color="#9780E5"/>
</linearGradient>
</defs>
</svg>
