<svg width="388" height="140" viewBox="0 0 388 140" fill="none" xmlns="http://www.w3.org/2000/svg">
<rect width="388" height="140" rx="20" fill="#61DAFB"/>
<rect width="388" height="140" rx="20" fill="url(#paint0_linear_67_504)"/>
<path fill-rule="evenodd" clip-rule="evenodd" d="M40.7703 30.1699C35.0645 30.1699 30.8424 35.164 31.0314 40.5801C31.2129 45.7834 30.9771 52.5224 29.2807 58.0181C27.5781 63.5293 24.7008 67.0217 20 67.4699V72.5308C24.7008 72.9801 27.5781 76.4707 29.2805 81.9826C30.9771 87.4783 31.2127 94.2174 31.0312 99.4207C30.8422 104.836 35.0643 109.831 40.7711 109.831H99.2373C104.943 109.831 109.165 104.837 108.975 99.4207C108.794 94.2174 109.03 87.4783 110.726 81.9826C112.429 76.4707 115.299 72.9787 120 72.5308V67.4699C115.299 67.0207 112.429 63.5301 110.726 58.0181C109.029 52.5232 108.794 45.7834 108.975 40.5801C109.165 35.1648 104.943 30.1699 99.2373 30.1699H40.7703ZM87.7967 79.2064C87.7967 86.664 82.234 91.1869 73.0025 91.1869H57.2881C56.8386 91.1869 56.4075 91.0083 56.0896 90.6905C55.7717 90.3726 55.5932 89.9415 55.5932 89.492V50.509C55.5932 50.0594 55.7717 49.6283 56.0896 49.3105C56.4075 48.9926 56.8386 48.814 57.2881 48.814H72.9131C80.6105 48.814 85.6623 52.9836 85.6623 59.3851C85.6623 63.8783 82.2639 67.9008 77.9344 68.6054V68.8398C83.8281 69.4863 87.7967 73.5683 87.7967 79.2064ZM71.2891 54.1869H62.3289V66.8431H69.8756C75.7096 66.8431 78.9264 64.4939 78.9264 60.2949C78.9258 56.3597 76.1602 54.1869 71.2891 54.1869ZM62.3289 71.8648V85.8123H71.6187C77.693 85.8123 80.9104 83.375 80.9104 78.7945C80.9104 74.214 77.6027 71.864 71.2281 71.864L62.3289 71.8648Z" fill="white"/>
<path d="M152.844 86V53.2727H165.948C168.356 53.2727 170.364 53.6296 171.973 54.3434C173.581 55.0572 174.79 56.0479 175.6 57.3157C176.41 58.5728 176.815 60.0217 176.815 61.6623C176.815 62.9407 176.559 64.0646 176.048 65.0341C175.536 65.9929 174.833 66.7812 173.938 67.3991C173.054 68.0064 172.042 68.4379 170.902 68.6935V69.0131C172.148 69.0664 173.315 69.418 174.402 70.0678C175.499 70.7177 176.388 71.6286 177.07 72.8004C177.752 73.9616 178.093 75.3466 178.093 76.9553C178.093 78.6918 177.662 80.2418 176.799 81.6055C175.946 82.9585 174.684 84.0291 173.011 84.8175C171.339 85.6058 169.277 86 166.827 86H152.844ZM159.764 80.343H165.405C167.333 80.343 168.739 79.9755 169.624 79.2404C170.508 78.4947 170.95 77.5039 170.95 76.2681C170.95 75.3626 170.732 74.5636 170.295 73.8711C169.858 73.1786 169.235 72.6353 168.425 72.2411C167.626 71.8469 166.673 71.6499 165.565 71.6499H159.764V80.343ZM159.764 66.9677H164.893C165.842 66.9677 166.683 66.8026 167.418 66.4723C168.164 66.1314 168.75 65.652 169.176 65.0341C169.613 64.4162 169.831 63.6758 169.831 62.8129C169.831 61.6303 169.411 60.6768 168.569 59.9524C167.738 59.228 166.555 58.8658 165.021 58.8658H159.764V66.9677ZM193.558 86.4794C191.076 86.4794 188.929 85.9521 187.118 84.8974C185.317 83.832 183.927 82.3512 182.947 80.4549C181.967 78.5479 181.477 76.3374 181.477 73.8232C181.477 71.2876 181.967 69.0717 182.947 67.1754C183.927 65.2685 185.317 63.7876 187.118 62.733C188.929 61.6676 191.076 61.1349 193.558 61.1349C196.04 61.1349 198.181 61.6676 199.982 62.733C201.793 63.7876 203.188 65.2685 204.169 67.1754C205.149 69.0717 205.639 71.2876 205.639 73.8232C205.639 76.3374 205.149 78.5479 204.169 80.4549C203.188 82.3512 201.793 83.832 199.982 84.8974C198.181 85.9521 196.04 86.4794 193.558 86.4794ZM193.59 81.206C194.719 81.206 195.662 80.8864 196.418 80.2472C197.175 79.5973 197.745 78.7131 198.128 77.5945C198.522 76.4759 198.719 75.2028 198.719 73.7752C198.719 72.3477 198.522 71.0746 198.128 69.956C197.745 68.8374 197.175 67.9531 196.418 67.3033C195.662 66.6534 194.719 66.3285 193.59 66.3285C192.45 66.3285 191.491 66.6534 190.713 67.3033C189.946 67.9531 189.366 68.8374 188.972 69.956C188.588 71.0746 188.396 72.3477 188.396 73.7752C188.396 75.2028 188.588 76.4759 188.972 77.5945C189.366 78.7131 189.946 79.5973 190.713 80.2472C191.491 80.8864 192.45 81.206 193.59 81.206ZM221.155 86.4794C218.673 86.4794 216.527 85.9521 214.715 84.8974C212.915 83.832 211.525 82.3512 210.545 80.4549C209.565 78.5479 209.074 76.3374 209.074 73.8232C209.074 71.2876 209.565 69.0717 210.545 67.1754C211.525 65.2685 212.915 63.7876 214.715 62.733C216.527 61.6676 218.673 61.1349 221.155 61.1349C223.638 61.1349 225.779 61.6676 227.579 62.733C229.391 63.7876 230.786 65.2685 231.766 67.1754C232.746 69.0717 233.236 71.2876 233.236 73.8232C233.236 76.3374 232.746 78.5479 231.766 80.4549C230.786 82.3512 229.391 83.832 227.579 84.8974C225.779 85.9521 223.638 86.4794 221.155 86.4794ZM221.187 81.206C222.317 81.206 223.259 80.8864 224.016 80.2472C224.772 79.5973 225.342 78.7131 225.726 77.5945C226.12 76.4759 226.317 75.2028 226.317 73.7752C226.317 72.3477 226.12 71.0746 225.726 69.956C225.342 68.8374 224.772 67.9531 224.016 67.3033C223.259 66.6534 222.317 66.3285 221.187 66.3285C220.047 66.3285 219.089 66.6534 218.311 67.3033C217.544 67.9531 216.963 68.8374 216.569 69.956C216.186 71.0746 215.994 72.3477 215.994 73.7752C215.994 75.2028 216.186 76.4759 216.569 77.5945C216.963 78.7131 217.544 79.5973 218.311 80.2472C219.089 80.8864 220.047 81.206 221.187 81.206ZM250.719 61.4545V66.5682H235.937V61.4545H250.719ZM239.293 55.5739H246.1V78.4574C246.1 79.0859 246.196 79.576 246.388 79.9276C246.58 80.2685 246.846 80.5082 247.187 80.6467C247.539 80.7852 247.943 80.8544 248.402 80.8544C248.721 80.8544 249.041 80.8278 249.36 80.7745C249.68 80.7106 249.925 80.6626 250.095 80.6307L251.166 85.6964C250.825 85.8029 250.346 85.9254 249.728 86.0639C249.11 86.2131 248.359 86.3036 247.475 86.3356C245.834 86.3995 244.396 86.1811 243.16 85.6804C241.935 85.1797 240.981 84.402 240.3 83.3473C239.618 82.2926 239.282 80.9609 239.293 79.3523V55.5739ZM275.268 68.4538L269.036 68.8374C268.929 68.3047 268.7 67.8253 268.349 67.3991C267.997 66.9624 267.534 66.6161 266.958 66.3604C266.394 66.0941 265.717 65.9609 264.929 65.9609C263.874 65.9609 262.985 66.1847 262.26 66.6321C261.536 67.0689 261.174 67.6548 261.174 68.3899C261.174 68.9759 261.408 69.4712 261.877 69.8761C262.346 70.2809 263.15 70.6058 264.29 70.8509L268.732 71.7457C271.119 72.2358 272.898 73.0241 274.07 74.1108C275.241 75.1974 275.827 76.625 275.827 78.3935C275.827 80.0021 275.353 81.4137 274.405 82.6282C273.468 83.8427 272.179 84.7908 270.538 85.4727C268.908 86.1438 267.028 86.4794 264.897 86.4794C261.648 86.4794 259.059 85.8029 257.131 84.4499C255.213 83.0863 254.089 81.2326 253.759 78.8888L260.455 78.5373C260.657 79.5281 261.147 80.2844 261.925 80.8065C262.702 81.3178 263.699 81.5735 264.913 81.5735C266.106 81.5735 267.065 81.3445 267.789 80.8864C268.525 80.4176 268.897 79.8157 268.908 79.0806C268.897 78.4627 268.636 77.9567 268.125 77.5625C267.614 77.1577 266.825 76.8487 265.76 76.6357L261.509 75.7887C259.112 75.3093 257.328 74.4783 256.156 73.2958C254.995 72.1133 254.414 70.6058 254.414 68.7734C254.414 67.1967 254.84 65.8384 255.692 64.6985C256.555 63.5586 257.765 62.6797 259.32 62.0618C260.886 61.4439 262.718 61.1349 264.817 61.1349C267.917 61.1349 270.357 61.7901 272.136 63.1005C273.926 64.4109 274.97 66.1953 275.268 68.4538ZM293.17 61.4545V66.5682H278.388V61.4545H293.17ZM281.744 55.5739H288.552V78.4574C288.552 79.0859 288.647 79.576 288.839 79.9276C289.031 80.2685 289.297 80.5082 289.638 80.6467C289.99 80.7852 290.395 80.8544 290.853 80.8544C291.172 80.8544 291.492 80.8278 291.812 80.7745C292.131 80.7106 292.376 80.6626 292.547 80.6307L293.617 85.6964C293.276 85.8029 292.797 85.9254 292.179 86.0639C291.561 86.2131 290.81 86.3036 289.926 86.3356C288.285 86.3995 286.847 86.1811 285.611 85.6804C284.386 85.1797 283.433 84.402 282.751 83.3473C282.069 82.2926 281.733 80.9609 281.744 79.3523V55.5739ZM297.604 86V61.4545H304.204V65.7372H304.46C304.907 64.2138 305.658 63.0632 306.713 62.2855C307.768 61.4972 308.982 61.103 310.356 61.103C310.697 61.103 311.065 61.1243 311.459 61.1669C311.853 61.2095 312.199 61.2681 312.498 61.3427V67.3832C312.178 67.2873 311.736 67.2021 311.171 67.1275C310.607 67.0529 310.09 67.0156 309.621 67.0156C308.62 67.0156 307.725 67.234 306.937 67.6708C306.159 68.0969 305.541 68.6935 305.083 69.4606C304.636 70.2276 304.412 71.1119 304.412 72.1133V86H297.604ZM322.314 86.4634C320.748 86.4634 319.352 86.1918 318.127 85.6484C316.902 85.0945 315.932 84.2795 315.218 83.2035C314.515 82.1168 314.164 80.7638 314.164 79.1445C314.164 77.7809 314.414 76.6357 314.915 75.7088C315.415 74.782 316.097 74.0362 316.96 73.4716C317.823 72.907 318.803 72.4808 319.901 72.1932C321.009 71.9055 322.17 71.7031 323.384 71.5859C324.812 71.4368 325.962 71.2983 326.836 71.1705C327.71 71.032 328.343 70.8295 328.738 70.5632C329.132 70.2969 329.329 69.9027 329.329 69.3807V69.2848C329.329 68.2727 329.009 67.4897 328.37 66.9357C327.741 66.3817 326.847 66.1048 325.685 66.1048C324.46 66.1048 323.485 66.3764 322.761 66.9197C322.037 67.4524 321.557 68.1236 321.323 68.9332L315.027 68.4219C315.346 66.9304 315.975 65.6413 316.912 64.5547C317.85 63.4574 319.059 62.6158 320.54 62.0298C322.031 61.4332 323.757 61.1349 325.717 61.1349C327.081 61.1349 328.386 61.2947 329.632 61.6143C330.89 61.9339 332.003 62.4293 332.972 63.1005C333.952 63.7717 334.725 64.6346 335.289 65.6893C335.854 66.7333 336.136 67.9851 336.136 69.4446V86H329.68V82.5962H329.489C329.094 83.3633 328.567 84.0398 327.907 84.6257C327.246 85.201 326.452 85.6538 325.526 85.984C324.599 86.3036 323.528 86.4634 322.314 86.4634ZM324.263 81.7653C325.265 81.7653 326.149 81.5682 326.916 81.174C327.683 80.7692 328.285 80.2259 328.722 79.544C329.158 78.8622 329.377 78.0898 329.377 77.2269V74.6222C329.164 74.7607 328.871 74.8885 328.498 75.0057C328.136 75.1122 327.725 75.2134 327.267 75.3093C326.809 75.3945 326.351 75.4744 325.893 75.549C325.435 75.6129 325.02 75.6715 324.647 75.7248C323.848 75.842 323.15 76.0284 322.553 76.2841C321.957 76.5398 321.493 76.886 321.163 77.3228C320.833 77.7489 320.668 78.2816 320.668 78.9208C320.668 79.8477 321.003 80.5561 321.674 81.0462C322.356 81.5256 323.219 81.7653 324.263 81.7653ZM341.418 95.2045V61.4545H348.129V65.5774H348.433C348.731 64.9169 349.163 64.2457 349.727 63.5639C350.303 62.8714 351.048 62.2962 351.965 61.8381C352.892 61.3693 354.042 61.1349 355.416 61.1349C357.206 61.1349 358.857 61.6037 360.37 62.5412C361.883 63.468 363.092 64.869 363.998 66.744C364.903 68.6083 365.356 70.9467 365.356 73.7592C365.356 76.4972 364.914 78.8089 364.03 80.6946C363.156 82.5696 361.963 83.9918 360.45 84.9613C358.948 85.9201 357.265 86.3995 355.4 86.3995C354.079 86.3995 352.955 86.1811 352.029 85.7443C351.112 85.3075 350.361 84.7589 349.775 84.0984C349.189 83.4272 348.742 82.7507 348.433 82.0689H348.225V95.2045H341.418ZM348.081 73.7273C348.081 75.1868 348.284 76.4599 348.689 77.5465C349.094 78.6332 349.68 79.4801 350.447 80.0874C351.214 80.6839 352.146 80.9822 353.243 80.9822C354.351 80.9822 355.289 80.6786 356.056 80.0714C356.823 79.4535 357.403 78.6012 357.797 77.5146C358.202 76.4173 358.405 75.1548 358.405 73.7273C358.405 72.3104 358.208 71.0639 357.813 69.9879C357.419 68.9119 356.839 68.0703 356.072 67.4631C355.305 66.8558 354.362 66.5522 353.243 66.5522C352.135 66.5522 351.198 66.8452 350.431 67.4311C349.674 68.017 349.094 68.848 348.689 69.924C348.284 71 348.081 72.2678 348.081 73.7273Z" fill="white"/>
<defs>
<linearGradient id="paint0_linear_67_504" x1="0" y1="0" x2="154.763" y2="272.476" gradientUnits="userSpaceOnUse">
<stop stop-color="#9013FE"/>
<stop offset="1" stop-color="#6610F2"/>
</linearGradient>
</defs>
</svg>
