<svg width="140" height="140" viewBox="0 0 140 140" fill="none" xmlns="http://www.w3.org/2000/svg">
<g clip-path="url(#clip0_42_89)">
<rect width="140" height="140" rx="20" fill="#659AD2"/>
<path d="M140 33L75 70L140 107.5V33Z" fill="#00599C"/>
<path d="M140 107.5L75 70L0 113L0 140.001H140V107.5Z" fill="#004482"/>
<path d="M73.5073 14C94.3186 14 112.489 25.2509 122.221 41.9741L122.75 43L99.25 56.5C94.4257 48.369 83.9719 42.2294 73.8268 42.1164L73.5073 42.1146C58.0363 42.1146 45.4936 54.5993 45.4936 69.9997C45.4936 75.0359 46.8425 79.7568 49.1882 83.8343C54.0169 92.2256 63.0943 97.8854 73.5073 97.8854C83.9845 97.8854 93.1136 92.1537 97.9178 83.6727L98.25 83L122.25 97C112.624 113.582 94.7034 125.773 74.1339 125.997L73.5073 126C52.6303 126 34.4085 114.68 24.7008 97.8682C19.9616 89.661 17.25 80.146 17.25 69.9997C17.25 39.0723 42.4367 14 73.5073 14Z" fill="white"/>
</g>
<defs>
<clipPath id="clip0_42_89">
<rect width="140" height="140" rx="20" fill="white"/>
</clipPath>
</defs>
</svg>
