<svg width="209" height="140" viewBox="0 0 209 140" fill="none" xmlns="http://www.w3.org/2000/svg">
<g clip-path="url(#clip0_42_85)">
<rect width="209" height="140" rx="20" fill="#00599C"/>
<path d="M196 140L76 69.9998L0 114.5L0 140H196Z" fill="#004482"/>
<path d="M196 0L76 69.9998L196 140V0Z" fill="#00599C"/>
<path d="M76 69.9998L196 0L0 0L0 114.5L76 69.9998Z" fill="#659AD2"/>
<path d="M76.2573 14C97.0686 14 115.239 25.2509 124.971 41.9741L124.876 41.8131L100.39 55.8475C95.5659 47.7165 86.7219 42.2294 76.5768 42.1164L76.2573 42.1146C60.7863 42.1146 48.2436 54.5993 48.2436 69.9997C48.2436 75.0359 49.5925 79.7568 51.9382 83.8343C56.7669 92.2256 65.8443 97.8854 76.2573 97.8854C86.7345 97.8854 95.8636 92.1537 100.668 83.6727L100.551 83.8762L125 97.9753C115.375 114.557 97.4534 125.773 76.8839 125.997L76.2573 126C55.3803 126 37.1585 114.68 27.4508 97.8682C22.7116 89.661 20 80.146 20 69.9997C20 39.0723 45.1867 14 76.2573 14Z" fill="white"/>
<path d="M186.721 64.7305H179.721C179.593 63.8249 179.332 63.0206 178.938 62.3175C178.544 61.6037 178.038 60.9964 177.42 60.4957C176.802 59.995 176.088 59.6115 175.279 59.3452C174.48 59.0788 173.612 58.9457 172.674 58.9457C170.98 58.9457 169.505 59.3665 168.248 60.2081C166.99 61.0391 166.016 62.2536 165.323 63.8516C164.631 65.4389 164.284 67.3672 164.284 69.6364C164.284 71.9695 164.631 73.9297 165.323 75.517C166.026 77.1044 167.006 78.3029 168.263 79.1126C169.521 79.9222 170.975 80.3271 172.626 80.3271C173.553 80.3271 174.411 80.2045 175.199 79.9595C175.998 79.7145 176.706 79.3576 177.324 78.8888C177.942 78.4094 178.453 77.8288 178.858 77.147C179.274 76.4652 179.561 75.6875 179.721 74.8139L186.721 74.8459C186.539 76.348 186.087 77.7969 185.362 79.1925C184.648 80.5774 183.684 81.8185 182.47 82.9158C181.266 84.0025 179.828 84.8654 178.155 85.5046C176.493 86.1332 174.613 86.4474 172.514 86.4474C169.595 86.4474 166.985 85.7869 164.684 84.4659C162.393 83.1449 160.582 81.2326 159.251 78.729C157.93 76.2255 157.269 73.1946 157.269 69.6364C157.269 66.0675 157.94 63.0312 159.283 60.5277C160.625 58.0241 162.447 56.1172 164.748 54.8068C167.049 53.4858 169.638 52.8253 172.514 52.8253C174.411 52.8253 176.168 53.0916 177.788 53.6243C179.418 54.157 180.861 54.9347 182.118 55.9574C183.375 56.9695 184.398 58.2106 185.186 59.6808C185.985 61.1509 186.497 62.8342 186.721 64.7305Z" fill="white"/>
</g>
<defs>
<clipPath id="clip0_42_85">
<rect width="209" height="140" rx="20" fill="white"/>
</clipPath>
</defs>
</svg>
