<svg width="350" height="140" viewBox="0 0 350 140" fill="none" xmlns="http://www.w3.org/2000/svg">
<rect width="349.095" height="140" rx="20" fill="#680488"/>
<path d="M26.0316 46.2945C27.7199 45.5865 29.2313 44.933 30.7562 44.293C34.868 42.5639 38.9935 40.8211 43.1054 39.0919C47.6393 37.1858 52.1732 35.2796 56.7072 33.3599C59.866 32.0255 63.0111 30.6776 66.1563 29.3433C69.8461 27.7775 73.5495 26.2254 77.2392 24.646C80.5342 23.2436 83.8155 21.814 87.0968 20.398C88.2541 19.6491 89.8063 19.9895 90.5551 21.1468C90.5824 21.2013 90.6232 21.2557 90.6504 21.3102C94.6806 26.5113 98.2751 32.0255 101.407 37.8121C104.089 42.6864 106.349 47.7922 108.173 53.0478C109.317 56.3971 110.257 59.801 111.169 63.2185C111.754 65.4514 112.149 67.7524 112.585 70.0262C113.429 74.6963 113.906 79.4072 114.042 84.159C114.178 88.8836 114.055 93.6081 113.66 98.319C113.633 99.49 112.966 100.538 111.931 101.069C109.698 102.268 107.452 103.479 105.233 104.691C97.4854 108.898 89.7246 113.105 81.9774 117.313C80.5614 118.089 79.159 118.878 77.7294 119.641C76.4904 120.308 76.1909 120.076 76.0411 118.688C75.8505 117.04 75.5373 115.393 75.2514 113.759C74.9519 112.057 74.6387 110.355 74.2847 108.667C71.3301 95.1875 65.353 82.5524 56.8161 71.7145C52.0779 65.819 46.659 60.4818 40.6954 55.8253C36.2704 52.4351 31.6003 49.3852 26.7124 46.703C26.5218 46.594 26.3584 46.4851 26.0452 46.2945H26.0316ZM46.5501 51.7134C47.3398 52.3942 47.9797 52.9661 48.6332 53.5243C56.217 60.0052 62.7797 67.6026 68.0897 76.0578C70.8808 80.4692 73.3044 85.0985 75.3331 89.8911C76.2589 92.0968 77.0622 94.357 77.8656 96.6035C78.5191 98.4688 79.0773 100.389 79.69 102.268C80.044 103.343 80.4797 103.534 81.5145 103.016C82.4131 102.567 83.2845 102.063 84.1695 101.6C89.6837 98.6458 95.198 95.6777 100.726 92.7231C102.496 91.77 104.279 90.8442 106.049 89.9047C106.934 89.5371 107.506 88.6657 107.493 87.699C107.411 84.9215 107.343 82.1439 107.098 79.38C106.894 76.9564 106.472 74.5465 106.118 72.1502C105.913 70.8159 105.723 69.468 105.41 68.1473C104.742 65.3697 104.075 62.5649 103.245 59.8282C102.332 56.8601 101.311 53.9191 100.195 51.0327C98.3976 46.4715 96.26 42.0601 93.7956 37.8257C93.1012 36.6139 92.3932 35.4158 91.6035 34.2585C91.1814 33.5096 90.2556 33.2237 89.4795 33.5913C89.2208 33.673 88.9621 33.7547 88.7034 33.8636C82.6718 36.4233 76.6265 38.9694 70.5949 41.5291C63.0928 44.7015 55.5771 47.8467 48.0614 51.0054C47.5985 51.2097 47.1492 51.4275 46.5501 51.6998V51.7134ZM97.1722 97.0937C94.7214 96.9711 92.6383 98.8637 92.5157 101.314C92.5157 101.437 92.5157 101.546 92.5157 101.668C92.543 104.242 94.6397 106.311 97.2131 106.298C99.7183 106.27 101.747 104.283 101.829 101.791C101.87 99.2449 99.8545 97.1481 97.3084 97.1073C97.2539 97.1073 97.2131 97.1073 97.1586 97.1073L97.1722 97.0937Z" fill="white"/>
<path d="M72.8278 115.611C72.7189 115.488 72.6236 115.366 72.5283 115.229C68.4301 108.381 62.9839 102.445 56.5166 97.7608C50.3624 93.1588 43.7181 89.2512 36.7061 86.106C31.3961 83.6552 25.9227 81.5993 20.4221 79.6251C20.2995 79.5842 20.177 79.5161 20 79.4344C20.0953 79.2983 20.2042 79.1758 20.3132 79.0396L32.4853 66.7176C34.4596 64.7162 36.4338 62.7011 38.4081 60.6996C39.3611 59.7329 39.5654 59.7057 40.6546 60.4954C41.4851 61.0809 42.2884 61.7208 43.0645 62.3879C43.6364 62.7419 43.8134 63.4908 43.4594 64.0626C43.3913 64.1716 43.3096 64.2669 43.2007 64.3486C42.7514 64.9068 42.2748 65.4242 41.7711 65.9143C38.6123 68.937 35.4399 71.946 32.2811 74.955C31.9407 75.2817 31.6276 75.6357 31.3144 75.9897C30.9604 76.3982 31.0966 76.7386 31.5186 76.9428C32.036 77.1879 32.5534 77.4057 33.098 77.5964C40.3687 80.1152 47.2036 83.7369 53.3714 88.3253C58.096 91.9062 62.2895 96.1678 65.7887 100.96C68.2939 104.323 70.4043 107.972 72.079 111.812C72.4058 112.574 72.6917 113.35 73.0185 114.099C73.2363 114.589 73.1682 115.175 72.8415 115.597L72.8278 115.611Z" fill="white"/>
<path d="M70.4588 116.972C67.6268 114.889 64.5905 113.119 61.3909 111.689C57.0067 109.77 52.4183 108.34 47.721 107.428C41.4307 106.27 35.0587 105.508 28.673 105.14C28.0467 105.1 27.4204 105.031 26.7124 104.963C26.9303 104.555 27.1073 104.215 27.2843 103.888C29.7486 99.5172 32.2267 95.1467 34.7047 90.7897C34.7864 90.6536 34.8544 90.5174 34.9497 90.3812C35.4399 89.6188 35.9028 89.5235 36.6789 90C37.2099 90.3268 37.7681 90.6127 38.3264 90.8986C38.694 91.0212 38.8846 91.416 38.7621 91.77C38.7621 91.7973 38.7348 91.8381 38.7212 91.8653C38.5442 92.2602 38.34 92.6414 38.1085 92.9954C36.5972 95.3917 35.0859 97.788 33.5746 100.184C32.7985 101.41 33.0163 101.886 34.4868 102.05C38.4625 102.458 42.411 103.084 46.3186 103.942C52.3639 105.222 58.164 107.441 63.5013 110.532C65.9793 112.003 68.2394 113.813 70.2137 115.897C70.4724 116.169 70.7447 116.441 70.4724 116.931L70.4588 116.972Z" fill="white"/>
<path d="M175.816 64.7305H168.816C168.689 63.8249 168.428 63.0206 168.033 62.3175C167.639 61.6037 167.133 60.9964 166.515 60.4957C165.897 59.995 165.184 59.6115 164.374 59.3452C163.575 59.0788 162.707 58.9457 161.769 58.9457C160.075 58.9457 158.6 59.3665 157.343 60.2081C156.086 61.0391 155.111 62.2536 154.418 63.8516C153.726 65.4389 153.38 67.3672 153.38 69.6364C153.38 71.9695 153.726 73.9297 154.418 75.517C155.121 77.1044 156.102 78.3029 157.359 79.1126C158.616 79.9222 160.07 80.3271 161.721 80.3271C162.648 80.3271 163.506 80.2045 164.294 79.9595C165.093 79.7145 165.802 79.3576 166.419 78.8888C167.037 78.4094 167.549 77.8288 167.954 77.147C168.369 76.4652 168.657 75.6875 168.816 74.8139L175.816 74.8459C175.635 76.348 175.182 77.7969 174.457 79.1925C173.744 80.5774 172.78 81.8185 171.565 82.9158C170.361 84.0025 168.923 84.8654 167.25 85.5046C165.588 86.1332 163.708 86.4474 161.609 86.4474C158.69 86.4474 156.08 85.7869 153.779 84.4659C151.489 83.1449 149.678 81.2326 148.346 78.729C147.025 76.2255 146.364 73.1946 146.364 69.6364C146.364 66.0675 147.036 63.0312 148.378 60.5277C149.72 58.0241 151.542 56.1172 153.843 54.8068C156.144 53.4858 158.733 52.8253 161.609 52.8253C163.506 52.8253 165.264 53.0916 166.883 53.6243C168.513 54.157 169.956 54.9347 171.213 55.9574C172.471 56.9695 173.493 58.2106 174.282 59.6808C175.081 61.1509 175.592 62.8342 175.816 64.7305ZM187.457 71.8097V86H180.65V53.2727H187.265V65.7852H187.553C188.107 64.3363 189.002 63.2017 190.238 62.3814C191.474 61.5504 193.024 61.1349 194.888 61.1349C196.593 61.1349 198.079 61.5078 199.346 62.2536C200.625 62.9886 201.616 64.0486 202.319 65.4336C203.033 66.8079 203.384 68.4538 203.373 70.3714V86H196.566V71.5859C196.577 70.0732 196.193 68.896 195.415 68.0543C194.648 67.2127 193.572 66.7919 192.187 66.7919C191.261 66.7919 190.44 66.989 189.726 67.3832C189.023 67.7773 188.469 68.3526 188.064 69.109C187.67 69.8548 187.468 70.755 187.457 71.8097ZM215.73 86.4634C214.164 86.4634 212.768 86.1918 211.543 85.6484C210.318 85.0945 209.349 84.2795 208.635 83.2035C207.932 82.1168 207.58 80.7638 207.58 79.1445C207.58 77.7809 207.831 76.6357 208.331 75.7088C208.832 74.782 209.514 74.0362 210.377 73.4716C211.24 72.907 212.22 72.4808 213.317 72.1932C214.425 71.9055 215.586 71.7031 216.801 71.5859C218.228 71.4368 219.379 71.2983 220.252 71.1705C221.126 71.032 221.76 70.8295 222.154 70.5632C222.548 70.2969 222.745 69.9027 222.745 69.3807V69.2848C222.745 68.2727 222.426 67.4897 221.787 66.9357C221.158 66.3817 220.263 66.1048 219.102 66.1048C217.877 66.1048 216.902 66.3764 216.178 66.9197C215.453 67.4524 214.974 68.1236 214.739 68.9332L208.443 68.4219C208.763 66.9304 209.391 65.6413 210.329 64.5547C211.266 63.4574 212.475 62.6158 213.956 62.0298C215.448 61.4332 217.174 61.1349 219.134 61.1349C220.497 61.1349 221.803 61.2947 223.049 61.6143C224.306 61.9339 225.419 62.4293 226.389 63.1005C227.369 63.7717 228.141 64.6346 228.706 65.6893C229.271 66.7333 229.553 67.9851 229.553 69.4446V86H223.097V82.5962H222.905C222.511 83.3633 221.984 84.0398 221.323 84.6257C220.663 85.201 219.869 85.6538 218.942 85.984C218.015 86.3036 216.945 86.4634 215.73 86.4634ZM217.68 81.7653C218.681 81.7653 219.565 81.5682 220.332 81.174C221.099 80.7692 221.701 80.2259 222.138 79.544C222.575 78.8622 222.793 78.0898 222.793 77.2269V74.6222C222.58 74.7607 222.287 74.8885 221.914 75.0057C221.552 75.1122 221.142 75.2134 220.684 75.3093C220.226 75.3945 219.768 75.4744 219.31 75.549C218.852 75.6129 218.436 75.6715 218.063 75.7248C217.264 75.842 216.566 76.0284 215.97 76.2841C215.373 76.5398 214.91 76.886 214.58 77.3228C214.249 77.7489 214.084 78.2816 214.084 78.9208C214.084 79.8477 214.42 80.5561 215.091 81.0462C215.773 81.5256 216.636 81.7653 217.68 81.7653ZM234.834 86V61.4545H241.434V65.7372H241.69C242.137 64.2138 242.888 63.0632 243.943 62.2855C244.998 61.4972 246.212 61.103 247.586 61.103C247.927 61.103 248.295 61.1243 248.689 61.1669C249.083 61.2095 249.429 61.2681 249.728 61.3427V67.3832C249.408 67.2873 248.966 67.2021 248.401 67.1275C247.837 67.0529 247.32 67.0156 246.851 67.0156C245.85 67.0156 244.955 67.234 244.167 67.6708C243.389 68.0969 242.771 68.6935 242.313 69.4606C241.866 70.2276 241.642 71.1119 241.642 72.1133V86H234.834ZM263.163 95.7159C260.958 95.7159 259.067 95.4123 257.49 94.805C255.924 94.2085 254.678 93.3935 253.751 92.3601C252.824 91.3267 252.222 90.1655 251.945 88.8764L258.241 88.0295C258.433 88.5195 258.737 88.9776 259.152 89.4038C259.568 89.8299 260.116 90.1708 260.798 90.4265C261.49 90.6928 262.332 90.826 263.323 90.826C264.804 90.826 266.023 90.4638 266.982 89.7393C267.952 89.0256 268.436 87.8271 268.436 86.1438V81.6534H268.149C267.851 82.3352 267.403 82.9798 266.807 83.587C266.21 84.1942 265.443 84.6896 264.505 85.0732C263.568 85.4567 262.449 85.6484 261.15 85.6484C259.307 85.6484 257.629 85.2223 256.116 84.37C254.614 83.5071 253.415 82.1914 252.52 80.4229C251.636 78.6438 251.194 76.396 251.194 73.6793C251.194 70.8988 251.647 68.5763 252.552 66.712C253.458 64.8477 254.662 63.4521 256.164 62.5252C257.677 61.5984 259.333 61.1349 261.134 61.1349C262.508 61.1349 263.658 61.3693 264.585 61.8381C265.512 62.2962 266.258 62.8714 266.822 63.5639C267.398 64.2457 267.84 64.9169 268.149 65.5774H268.405V61.4545H275.164V86.2397C275.164 88.3278 274.653 90.0749 273.63 91.4812C272.607 92.8874 271.19 93.9421 269.379 94.6452C267.579 95.359 265.507 95.7159 263.163 95.7159ZM263.307 80.5348C264.404 80.5348 265.331 80.2631 266.087 79.7198C266.854 79.1658 267.44 78.3775 267.845 77.3548C268.261 76.3214 268.468 75.0856 268.468 73.6474C268.468 72.2092 268.266 70.9627 267.861 69.908C267.456 68.8427 266.87 68.017 266.103 67.4311C265.336 66.8452 264.404 66.5522 263.307 66.5522C262.188 66.5522 261.245 66.8558 260.478 67.4631C259.711 68.0597 259.131 68.8906 258.737 69.956C258.342 71.0213 258.145 72.2518 258.145 73.6474C258.145 75.0643 258.342 76.2894 258.737 77.3228C259.141 78.3455 259.722 79.1392 260.478 79.7038C261.245 80.2578 262.188 80.5348 263.307 80.5348ZM280.581 86V61.4545H287.389V86H280.581ZM284.001 58.2905C282.989 58.2905 282.121 57.9549 281.396 57.2837C280.683 56.6019 280.326 55.7869 280.326 54.8388C280.326 53.9013 280.683 53.0969 281.396 52.4258C282.121 51.744 282.989 51.4031 284.001 51.4031C285.013 51.4031 285.876 51.744 286.59 52.4258C287.314 53.0969 287.677 53.9013 287.677 54.8388C287.677 55.7869 287.314 56.6019 286.59 57.2837C285.876 57.9549 285.013 58.2905 284.001 58.2905ZM299.65 53.2727V86H292.842V53.2727H299.65ZM309.306 95.2045C308.443 95.2045 307.633 95.1353 306.877 94.9968C306.131 94.869 305.513 94.7038 305.023 94.5014L306.557 89.4197C307.356 89.6648 308.075 89.7979 308.714 89.8192C309.364 89.8406 309.924 89.6914 310.392 89.3718C310.872 89.0522 311.261 88.5089 311.559 87.7418L311.958 86.7031L303.153 61.4545H310.312L315.394 79.4801H315.65L320.779 61.4545H327.986L318.446 88.6527C317.988 89.9737 317.365 91.1243 316.577 92.1044C315.799 93.0952 314.813 93.8569 313.62 94.3896C312.427 94.9329 310.989 95.2045 309.306 95.2045Z" fill="white"/>
</svg>
