<svg width="140" height="140" viewBox="0 0 140 140" fill="none" xmlns="http://www.w3.org/2000/svg">
<rect width="140" height="140" rx="20" fill="#1268A3"/>
<path d="M114.273 70.3753C99.1006 70.6716 102.261 80.2296 91.5682 82.6468C80.7061 85.1025 78.9914 56.2469 68.132 56.2469C57.2712 56.2469 54.8654 84.2769 41.2663 103.52L40.8784 104.065L70.0346 120.813L114.273 95.3989V70.3753Z" fill="#36A2EB"/>
<path d="M114.273 69.5055C109.194 63.0187 105.749 55.5613 98.3368 55.5613C85.2208 55.5613 88.6719 76.8542 74.1762 76.8542C59.6791 76.8542 58.155 53.9508 41.7323 75.4806C36.4993 82.3406 32.2871 89.9897 28.9784 97.2277L70.0346 120.814L114.273 95.3998V69.5055Z" fill="#FFCE56"/>
<path d="M25.7952 78.3252C30.7725 64.6086 32.9206 53.4994 42.4228 53.4994C56.9185 53.4994 60.369 94.0257 72.7959 89.9028C85.2208 85.782 83.8398 63.8013 103.169 63.8013C106.848 63.8013 110.604 66.0443 114.273 69.6724V95.3987L70.0346 120.813L25.7959 95.3987L25.7952 78.3252Z" fill="#FE6184"/>
<path d="M70 124L23 97.0007V43L70 16L117 43V97L70 124ZM28.5219 93.8282L70 117.656L111.478 93.8282V46.1725L70 22.3443L28.5219 46.1725V93.8282Z" fill="#E7E9ED"/>
</svg>
