<svg width="341" height="140" viewBox="0 0 341 140" fill="none" xmlns="http://www.w3.org/2000/svg">
<rect width="341" height="140" rx="20" fill="#1268A3"/>
<path d="M111.273 70.3753C96.1006 70.6716 99.2608 80.2296 88.5682 82.6468C77.7061 85.1024 75.9914 56.2469 65.132 56.2469C54.2712 56.2469 51.8654 84.2769 38.2663 103.52L37.8784 104.065L67.0346 120.813L111.273 95.3989V70.3753Z" fill="#36A2EB"/>
<path d="M111.273 69.5055C106.194 63.0187 102.749 55.5613 95.3368 55.5613C82.2208 55.5613 85.6719 76.8542 71.1762 76.8542C56.6791 76.8542 55.155 53.9508 38.7323 75.4806C33.4993 82.3406 29.2871 89.9897 25.9784 97.2277L67.0346 120.814L111.273 95.3998V69.5055Z" fill="#FFCE56"/>
<path d="M22.7952 78.3252C27.7725 64.6086 29.9206 53.4994 39.4228 53.4994C53.9185 53.4994 57.369 94.0257 69.7959 89.9028C82.2208 85.782 80.8398 63.8013 100.169 63.8013C103.848 63.8013 107.604 66.0443 111.273 69.6724V95.3987L67.0346 120.813L22.7959 95.3987L22.7952 78.3252Z" fill="#FE6184"/>
<path d="M67 124L20 97.0007V43L67 16L114 43V97L67 124ZM25.5219 93.8282L67 117.656L108.478 93.8282V46.1725L67 22.3443L25.5219 46.1725V93.8282Z" fill="#E7E9ED"/>
<path d="M175.721 64.7305H168.721C168.593 63.8249 168.332 63.0206 167.938 62.3175C167.544 61.6037 167.038 60.9964 166.42 60.4957C165.802 59.995 165.088 59.6115 164.279 59.3452C163.48 59.0788 162.612 58.9457 161.674 58.9457C159.98 58.9457 158.505 59.3665 157.248 60.2081C155.99 61.0391 155.016 62.2536 154.323 63.8516C153.631 65.4389 153.284 67.3672 153.284 69.6364C153.284 71.9695 153.631 73.9297 154.323 75.517C155.026 77.1044 156.006 78.3029 157.263 79.1126C158.521 79.9222 159.975 80.3271 161.626 80.3271C162.553 80.3271 163.411 80.2045 164.199 79.9595C164.998 79.7145 165.706 79.3576 166.324 78.8888C166.942 78.4094 167.453 77.8288 167.858 77.147C168.274 76.4652 168.561 75.6875 168.721 74.8139L175.721 74.8459C175.539 76.348 175.087 77.7969 174.362 79.1925C173.648 80.5774 172.684 81.8185 171.47 82.9158C170.266 84.0025 168.828 84.8654 167.155 85.5046C165.493 86.1332 163.613 86.4474 161.514 86.4474C158.595 86.4474 155.985 85.7869 153.684 84.4659C151.393 83.1449 149.582 81.2326 148.251 78.729C146.93 76.2255 146.269 73.1946 146.269 69.6364C146.269 66.0675 146.94 63.0312 148.283 60.5277C149.625 58.0241 151.447 56.1172 153.748 54.8068C156.049 53.4858 158.638 52.8253 161.514 52.8253C163.411 52.8253 165.168 53.0916 166.788 53.6243C168.418 54.157 169.861 54.9347 171.118 55.9574C172.375 56.9695 173.398 58.2106 174.186 59.6808C174.985 61.1509 175.497 62.8342 175.721 64.7305ZM187.362 71.8097V86H180.555V53.2727H187.17V65.7852H187.458C188.012 64.3363 188.907 63.2017 190.143 62.3814C191.378 61.5504 192.928 61.1349 194.793 61.1349C196.497 61.1349 197.983 61.5078 199.251 62.2536C200.53 62.9886 201.52 64.0486 202.224 65.4336C202.937 66.8079 203.289 68.4538 203.278 70.3714V86H196.471V71.5859C196.481 70.0732 196.098 68.896 195.32 68.0543C194.553 67.2127 193.477 66.7919 192.092 66.7919C191.165 66.7919 190.345 66.989 189.631 67.3832C188.928 67.7773 188.374 68.3526 187.969 69.109C187.575 69.8548 187.373 70.755 187.362 71.8097ZM215.635 86.4634C214.069 86.4634 212.673 86.1918 211.448 85.6484C210.223 85.0945 209.253 84.2795 208.54 83.2035C207.837 82.1168 207.485 80.7638 207.485 79.1445C207.485 77.7809 207.735 76.6357 208.236 75.7088C208.737 74.782 209.419 74.0362 210.282 73.4716C211.144 72.907 212.125 72.4808 213.222 72.1932C214.33 71.9055 215.491 71.7031 216.706 71.5859C218.133 71.4368 219.284 71.2983 220.157 71.1705C221.031 71.032 221.665 70.8295 222.059 70.5632C222.453 70.2969 222.65 69.9027 222.65 69.3807V69.2848C222.65 68.2727 222.331 67.4897 221.691 66.9357C221.063 66.3817 220.168 66.1048 219.007 66.1048C217.782 66.1048 216.807 66.3764 216.082 66.9197C215.358 67.4524 214.878 68.1236 214.644 68.9332L208.348 68.4219C208.668 66.9304 209.296 65.6413 210.234 64.5547C211.171 63.4574 212.38 62.6158 213.861 62.0298C215.353 61.4332 217.078 61.1349 219.039 61.1349C220.402 61.1349 221.707 61.2947 222.954 61.6143C224.211 61.9339 225.324 62.4293 226.294 63.1005C227.274 63.7717 228.046 64.6346 228.611 65.6893C229.175 66.7333 229.458 67.9851 229.458 69.4446V86H223.002V82.5962H222.81C222.416 83.3633 221.888 84.0398 221.228 84.6257C220.567 85.201 219.774 85.6538 218.847 85.984C217.92 86.3036 216.849 86.4634 215.635 86.4634ZM217.584 81.7653C218.586 81.7653 219.47 81.5682 220.237 81.174C221.004 80.7692 221.606 80.2259 222.043 79.544C222.48 78.8622 222.698 78.0898 222.698 77.2269V74.6222C222.485 74.7607 222.192 74.8885 221.819 75.0057C221.457 75.1122 221.047 75.2134 220.589 75.3093C220.131 75.3945 219.672 75.4744 219.214 75.549C218.756 75.6129 218.341 75.6715 217.968 75.7248C217.169 75.842 216.471 76.0284 215.875 76.2841C215.278 76.5398 214.815 76.886 214.484 77.3228C214.154 77.7489 213.989 78.2816 213.989 78.9208C213.989 79.8477 214.324 80.5561 214.996 81.0462C215.677 81.5256 216.54 81.7653 217.584 81.7653ZM234.739 86V61.4545H241.339V65.7372H241.595C242.042 64.2138 242.793 63.0632 243.848 62.2855C244.902 61.4972 246.117 61.103 247.491 61.103C247.832 61.103 248.2 61.1243 248.594 61.1669C248.988 61.2095 249.334 61.2681 249.633 61.3427V67.3832C249.313 67.2873 248.871 67.2021 248.306 67.1275C247.742 67.0529 247.225 67.0156 246.756 67.0156C245.755 67.0156 244.86 67.234 244.071 67.6708C243.294 68.0969 242.676 68.6935 242.218 69.4606C241.77 70.2276 241.547 71.1119 241.547 72.1133V86H234.739ZM267.438 61.4545V66.5682H252.657V61.4545H267.438ZM256.013 55.5739H262.82V78.4574C262.82 79.0859 262.916 79.576 263.108 79.9276C263.3 80.2685 263.566 80.5082 263.907 80.6467C264.258 80.7852 264.663 80.8544 265.121 80.8544C265.441 80.8544 265.76 80.8278 266.08 80.7745C266.4 80.7106 266.645 80.6626 266.815 80.6307L267.886 85.6964C267.545 85.8029 267.066 85.9254 266.448 86.0639C265.83 86.2131 265.079 86.3036 264.194 86.3356C262.554 86.3995 261.116 86.1811 259.88 85.6804C258.655 85.1797 257.701 84.402 257.019 83.3473C256.338 82.2926 256.002 80.9609 256.013 79.3523V55.5739ZM275.852 86.4155C274.797 86.4155 273.892 86.0426 273.135 85.2969C272.39 84.5405 272.017 83.6349 272.017 82.5803C272.017 81.5362 272.39 80.6413 273.135 79.8956C273.892 79.1499 274.797 78.777 275.852 78.777C276.875 78.777 277.77 79.1499 278.537 79.8956C279.304 80.6413 279.687 81.5362 279.687 82.5803C279.687 83.2834 279.506 83.9279 279.144 84.5138C278.792 85.0891 278.329 85.5526 277.754 85.9041C277.178 86.245 276.544 86.4155 275.852 86.4155ZM285.276 61.4545H292.084V87.2145C292.084 89.1108 291.711 90.6449 290.965 91.8168C290.219 92.9886 289.149 93.8462 287.753 94.3896C286.368 94.9329 284.712 95.2045 282.783 95.2045C282.549 95.2045 282.325 95.1992 282.112 95.1886C281.888 95.1886 281.654 95.1832 281.409 95.1726V89.8512C281.59 89.8619 281.75 89.8672 281.888 89.8672C282.016 89.8778 282.155 89.8832 282.304 89.8832C283.401 89.8832 284.168 89.6488 284.605 89.18C285.052 88.7219 285.276 88.0295 285.276 87.1026V61.4545ZM288.664 58.2905C287.663 58.2905 286.8 57.9549 286.075 57.2837C285.351 56.6019 284.989 55.7869 284.989 54.8388C284.989 53.9013 285.351 53.0969 286.075 52.4258C286.8 51.744 287.663 51.4031 288.664 51.4031C289.687 51.4031 290.555 51.744 291.269 52.4258C291.993 53.0969 292.355 53.9013 292.355 54.8388C292.355 55.7869 291.993 56.6019 291.269 57.2837C290.555 57.9549 289.687 58.2905 288.664 58.2905ZM317.96 68.4538L311.727 68.8374C311.621 68.3047 311.392 67.8253 311.04 67.3991C310.689 66.9624 310.225 66.6161 309.65 66.3604C309.085 66.0941 308.409 65.9609 307.62 65.9609C306.566 65.9609 305.676 66.1847 304.952 66.6321C304.227 67.0689 303.865 67.6548 303.865 68.3899C303.865 68.9759 304.099 69.4712 304.568 69.8761C305.037 70.2809 305.841 70.6058 306.981 70.8509L311.424 71.7457C313.81 72.2358 315.589 73.0241 316.761 74.1108C317.933 75.1974 318.519 76.625 318.519 78.3935C318.519 80.0021 318.045 81.4137 317.097 82.6282C316.159 83.8427 314.87 84.7908 313.229 85.4727C311.599 86.1438 309.719 86.4794 307.588 86.4794C304.339 86.4794 301.75 85.8029 299.822 84.4499C297.904 83.0863 296.781 81.2326 296.45 78.8888L303.146 78.5373C303.348 79.5281 303.838 80.2844 304.616 80.8065C305.394 81.3178 306.39 81.5735 307.604 81.5735C308.798 81.5735 309.756 81.3445 310.481 80.8864C311.216 80.4176 311.589 79.8157 311.599 79.0806C311.589 78.4627 311.328 77.9567 310.816 77.5625C310.305 77.1577 309.517 76.8487 308.451 76.6357L304.201 75.7887C301.804 75.3093 300.019 74.4783 298.847 73.2958C297.686 72.1133 297.105 70.6058 297.105 68.7734C297.105 67.1967 297.532 65.8384 298.384 64.6985C299.247 63.5586 300.456 62.6797 302.011 62.0618C303.577 61.4439 305.41 61.1349 307.509 61.1349C310.609 61.1349 313.048 61.7901 314.827 63.1005C316.617 64.4109 317.661 66.1953 317.96 68.4538Z" fill="white"/>
</svg>
