<svg width="140" height="140" viewBox="0 0 140 140" fill="none" xmlns="http://www.w3.org/2000/svg">
<rect width="140" height="140" rx="20" fill="#3448C5"/>
<path d="M103.276 59.9048C100.984 52.7173 96.4781 46.4384 90.4029 41.9656C84.3278 37.4928 76.9942 35.055 69.4503 35.0006C63.0721 34.964 56.8046 36.666 51.321 39.9237C45.8374 43.1814 41.3451 47.8715 38.3268 53.4905C32.7793 54.4846 27.694 57.2233 23.8108 61.3078C19.9276 65.3923 17.4494 70.6095 16.7367 76.2001C16.024 81.7907 17.1142 87.4628 19.8485 92.3908C22.5827 97.319 26.8184 101.246 31.9391 103.6L32.6036 103.901H32.6479V96.3705C29.135 94.2143 26.3851 91.0128 24.7833 87.215C23.1814 83.4172 22.8081 79.2134 23.7156 75.1927C24.6231 71.1721 26.7659 67.5362 29.8437 64.7946C32.9214 62.053 36.7799 60.3432 40.8783 59.9048L42.7388 59.7098L43.5539 58.0354C45.8681 53.1308 49.5345 48.9889 54.1219 46.0964C58.7094 43.204 64.0272 41.6812 69.4503 41.7073C75.9122 41.7529 82.1734 43.9575 87.2382 47.9709C92.3029 51.9843 95.8806 57.5757 97.4021 63.8561L98.0399 66.3899H100.698C104.982 66.4778 109.063 68.2376 112.067 71.2935C115.072 74.3494 116.763 78.459 116.778 82.7446C116.778 88.9905 113.172 94.1025 107.032 96.6894V103.83L107.475 103.688C117.345 100.455 123.476 92.4281 123.476 82.7446C123.435 77.1399 121.367 71.7394 117.654 67.541C113.941 63.3426 108.834 60.6301 103.276 59.9048Z" fill="white"/>
<path d="M56.4617 103.033L57.9324 104.504C57.972 104.545 57.999 104.596 58.0098 104.652C58.0206 104.708 58.0148 104.766 57.9932 104.819C57.9715 104.871 57.9349 104.917 57.888 104.949C57.8409 104.981 57.7855 104.999 57.7285 105H46.1226C44.7127 105 43.3606 104.44 42.3639 103.443C41.367 102.446 40.8069 101.094 40.8069 99.6843V77.1457C40.8069 77.0681 40.7761 76.9937 40.7212 76.9389C40.6664 76.8841 40.5921 76.8532 40.5146 76.8532H38.0338C37.9761 76.8539 37.9195 76.8373 37.8711 76.8058C37.8228 76.7743 37.7848 76.7292 37.7622 76.676C37.7394 76.623 37.7329 76.5644 37.7433 76.5077C37.7539 76.4509 37.781 76.3985 37.8212 76.3571L47.673 66.5054C47.7002 66.4778 47.7326 66.4559 47.7683 66.4409C47.8041 66.4259 47.8424 66.4182 47.8812 66.4182C47.92 66.4182 47.9583 66.4259 47.994 66.4409C48.0298 66.4559 48.0622 66.4778 48.0894 66.5054L57.9324 76.3571C57.972 76.398 57.999 76.4495 58.0098 76.5054C58.0206 76.5614 58.0148 76.6193 57.9932 76.6721C57.9715 76.7247 57.9349 76.7699 57.888 76.8021C57.8409 76.8343 57.7855 76.8521 57.7285 76.8532H55.2125C55.1341 76.8532 55.0588 76.8837 55.0025 76.9383C54.9463 76.9929 54.9135 77.0673 54.9112 77.1457V99.2944C54.9148 100.696 55.472 102.04 56.4617 103.033ZM78.2295 103.033L79.7091 104.504C79.7493 104.545 79.7763 104.598 79.7868 104.654C79.7974 104.711 79.7909 104.77 79.7681 104.823C79.7454 104.876 79.7075 104.921 79.6591 104.953C79.6108 104.984 79.5541 105.001 79.4964 105H67.917C66.5072 105 65.1551 104.44 64.1582 103.443C63.1613 102.446 62.6013 101.094 62.6013 99.6843V82.8423C62.6013 82.7639 62.5708 82.6886 62.5162 82.6324C62.4616 82.5761 62.3873 82.5434 62.3089 82.541H59.8017C59.7448 82.54 59.6894 82.5222 59.6423 82.49C59.5953 82.4578 59.5588 82.4126 59.5371 82.3599C59.5155 82.3071 59.5097 82.2493 59.5205 82.1933C59.5313 82.1374 59.5582 82.0857 59.5979 82.0449L69.4409 72.2109C69.468 72.1833 69.5004 72.1614 69.5362 72.1464C69.572 72.1314 69.6103 72.1237 69.649 72.1237C69.6878 72.1237 69.7261 72.1314 69.7619 72.1464C69.7977 72.1614 69.8301 72.1833 69.8572 72.2109L79.7091 82.0272C79.7493 82.0686 79.7763 82.121 79.7868 82.1777C79.7974 82.2345 79.7909 82.2931 79.7681 82.3462C79.7454 82.3992 79.7075 82.4444 79.6591 82.4759C79.6108 82.5075 79.5541 82.5239 79.4964 82.5234H76.9803C76.9019 82.5256 76.8276 82.5584 76.773 82.6146C76.7184 82.6709 76.6879 82.7462 76.6879 82.8246V99.2944C76.6892 100.695 77.2431 102.039 78.2295 103.033ZM100.006 103.033L101.477 104.504C101.517 104.545 101.544 104.596 101.554 104.652C101.565 104.708 101.559 104.766 101.538 104.819C101.516 104.871 101.479 104.917 101.433 104.949C101.385 104.981 101.33 104.999 101.273 105H89.6582C88.2485 105 86.8964 104.44 85.8995 103.443C84.9026 102.446 84.3425 101.094 84.3425 99.6843V88.4947C84.3425 88.4172 84.3117 88.3427 84.257 88.288C84.2021 88.2331 84.1278 88.2023 84.0502 88.2023H81.5695C81.5108 88.2029 81.4531 88.1858 81.4041 88.1532C81.3553 88.1205 81.3173 88.0738 81.2953 88.0193C81.2732 87.9649 81.2682 87.9049 81.2808 87.8474C81.2933 87.79 81.323 87.7377 81.3658 87.6973L91.2176 77.8544C91.244 77.827 91.2757 77.8053 91.3106 77.7905C91.3457 77.7756 91.3832 77.768 91.4213 77.768C91.4593 77.768 91.4969 77.7756 91.532 77.7905C91.567 77.8053 91.5986 77.827 91.6251 77.8544L101.477 87.6973C101.52 87.7377 101.549 87.79 101.562 87.8474C101.574 87.9049 101.569 87.9649 101.547 88.0193C101.525 88.0738 101.487 88.1205 101.439 88.1532C101.39 88.1858 101.332 88.2029 101.273 88.2023H98.7481C98.6706 88.2023 98.5963 88.2331 98.5414 88.288C98.4865 88.3427 98.4557 88.4172 98.4557 88.4947V99.2944C98.4594 100.696 99.0166 102.04 100.006 103.033Z" fill="white"/>
</svg>
