<svg width="411" height="140" viewBox="0 0 411 140" fill="none" xmlns="http://www.w3.org/2000/svg">
<rect width="411" height="140" rx="20" fill="#F6821F"/>
<g clip-path="url(#clip0_144_2)">
<path d="M94.69 94.6507L95.251 92.6392C95.9165 90.2499 95.669 88.0413 94.5497 86.4156C93.5212 84.9185 91.8053 84.04 89.7235 83.936L50.272 83.416C50.1501 83.4111 50.0308 83.3793 49.9227 83.3229C49.8145 83.2623 49.7215 83.1781 49.6505 83.0766C49.5813 82.9678 49.5379 82.8447 49.5236 82.7166C49.5093 82.5886 49.5245 82.459 49.568 82.3377C49.6342 82.1389 49.7564 81.9632 49.92 81.8314C50.0809 81.7022 50.2776 81.6249 50.4838 81.6097L90.301 81.0842C95.0227 80.8598 100.135 76.8804 101.925 72.0253L104.197 65.8674C104.292 65.6063 104.313 65.324 104.257 65.0518C101.68 53.0042 91.335 44 78.96 44C67.5585 44 57.8758 51.6413 54.408 62.2629C52.0928 60.4421 49.1526 59.5971 46.2185 59.9093C40.746 60.4731 36.3488 65.0463 35.807 70.728C35.6663 72.1462 35.7686 73.5778 36.1095 74.9619C27.1637 75.2274 20 82.8331 20 92.1766C20 93.0141 20.0596 93.8452 20.1787 94.6699C20.2035 94.8615 20.2943 95.0366 20.4345 95.1625C20.572 95.2912 20.7535 95.3596 20.9377 95.3623L93.7715 95.3705H93.7908C93.9966 95.3649 94.1947 95.2917 94.3545 95.1625C94.518 95.0316 94.6355 94.8524 94.69 94.6507Z" fill="white"/>
<path d="M107.835 66.3133C107.468 66.3133 107.104 66.3224 106.743 66.3407C106.685 66.3443 106.627 66.3572 106.573 66.379C106.475 66.4104 106.389 66.4682 106.322 66.5459C106.252 66.6224 106.202 66.7143 106.174 66.8141L104.623 72.3781C103.955 74.7701 104.205 76.976 105.321 78.6017C106.353 80.0988 108.066 80.9773 110.15 81.0813L118.56 81.604C118.678 81.6114 118.794 81.6441 118.898 81.6998C119.008 81.7609 119.1 81.8477 119.169 81.9526C119.237 82.0576 119.278 82.1775 119.289 82.3019C119.306 82.4311 119.292 82.5624 119.247 82.6851C119.181 82.8839 119.059 83.0596 118.895 83.1914C118.734 83.3196 118.538 83.3959 118.332 83.4103L109.595 83.9358C104.851 84.163 99.7362 88.1396 97.9487 92.9948L97.3162 94.708C97.2893 94.7796 97.2796 94.8565 97.2877 94.9325C97.2958 95.0085 97.3216 95.0815 97.363 95.1459C97.4023 95.209 97.4564 95.2619 97.5205 95.3C97.5846 95.3381 97.6569 95.3603 97.7315 95.3649H127.819C127.994 95.3625 128.163 95.305 128.303 95.2007C128.446 95.0904 128.548 94.9366 128.595 94.7628C129.129 92.785 129.398 90.7458 129.395 88.6979C129.395 76.3356 119.742 66.3133 107.835 66.3133Z" fill="white" fill-opacity="0.8"/>
</g>
<path d="M191.721 64.7305H184.721C184.593 63.8249 184.332 63.0206 183.938 62.3175C183.544 61.6037 183.038 60.9964 182.42 60.4957C181.802 59.995 181.088 59.6115 180.279 59.3452C179.48 59.0788 178.612 58.9457 177.674 58.9457C175.98 58.9457 174.505 59.3665 173.248 60.2081C171.99 61.0391 171.016 62.2536 170.323 63.8516C169.631 65.4389 169.284 67.3672 169.284 69.6364C169.284 71.9695 169.631 73.9297 170.323 75.517C171.026 77.1044 172.006 78.3029 173.263 79.1126C174.521 79.9222 175.975 80.3271 177.626 80.3271C178.553 80.3271 179.411 80.2045 180.199 79.9595C180.998 79.7145 181.706 79.3576 182.324 78.8888C182.942 78.4094 183.453 77.8288 183.858 77.147C184.274 76.4652 184.561 75.6875 184.721 74.8139L191.721 74.8459C191.539 76.348 191.087 77.7969 190.362 79.1925C189.648 80.5774 188.684 81.8185 187.47 82.9158C186.266 84.0025 184.828 84.8654 183.155 85.5046C181.493 86.1332 179.613 86.4474 177.514 86.4474C174.595 86.4474 171.985 85.7869 169.684 84.4659C167.393 83.1449 165.582 81.2326 164.251 78.729C162.93 76.2255 162.269 73.1946 162.269 69.6364C162.269 66.0675 162.94 63.0312 164.283 60.5277C165.625 58.0241 167.447 56.1172 169.748 54.8068C172.049 53.4858 174.638 52.8253 177.514 52.8253C179.411 52.8253 181.168 53.0916 182.788 53.6243C184.418 54.157 185.861 54.9347 187.118 55.9574C188.375 56.9695 189.398 58.2106 190.186 59.6808C190.985 61.1509 191.497 62.8342 191.721 64.7305ZM203.362 53.2727V86H196.555V53.2727H203.362ZM219.905 86.4794C217.423 86.4794 215.277 85.9521 213.465 84.8974C211.665 83.832 210.275 82.3512 209.295 80.4549C208.315 78.5479 207.824 76.3374 207.824 73.8232C207.824 71.2876 208.315 69.0717 209.295 67.1754C210.275 65.2685 211.665 63.7876 213.465 62.733C215.277 61.6676 217.423 61.1349 219.905 61.1349C222.388 61.1349 224.529 61.6676 226.329 62.733C228.141 63.7876 229.536 65.2685 230.516 67.1754C231.496 69.0717 231.986 71.2876 231.986 73.8232C231.986 76.3374 231.496 78.5479 230.516 80.4549C229.536 82.3512 228.141 83.832 226.329 84.8974C224.529 85.9521 222.388 86.4794 219.905 86.4794ZM219.937 81.206C221.067 81.206 222.009 80.8864 222.766 80.2472C223.522 79.5973 224.092 78.7131 224.476 77.5945C224.87 76.4759 225.067 75.2028 225.067 73.7752C225.067 72.3477 224.87 71.0746 224.476 69.956C224.092 68.8374 223.522 67.9531 222.766 67.3033C222.009 66.6534 221.067 66.3285 219.937 66.3285C218.797 66.3285 217.839 66.6534 217.061 67.3033C216.294 67.9531 215.713 68.8374 215.319 69.956C214.936 71.0746 214.744 72.3477 214.744 73.7752C214.744 75.2028 214.936 76.4759 215.319 77.5945C215.713 78.7131 216.294 79.5973 217.061 80.2472C217.839 80.8864 218.797 81.206 219.937 81.206ZM252.153 75.549V61.4545H258.961V86H252.425V81.5415H252.169C251.615 82.9798 250.694 84.1357 249.405 85.0092C248.126 85.8828 246.566 86.3196 244.723 86.3196C243.082 86.3196 241.638 85.9467 240.392 85.201C239.146 84.4553 238.171 83.3952 237.468 82.021C236.775 80.6467 236.424 79.0007 236.413 77.0831V61.4545H243.22V75.8686C243.231 77.3175 243.62 78.4627 244.387 79.3043C245.154 80.146 246.182 80.5668 247.471 80.5668C248.291 80.5668 249.059 80.3803 249.772 80.0075C250.486 79.6239 251.061 79.0593 251.498 78.3136C251.946 77.5678 252.164 76.6463 252.153 75.549ZM273.451 86.3995C271.586 86.3995 269.898 85.9201 268.385 84.9613C266.883 83.9918 265.69 82.5696 264.806 80.6946C263.932 78.8089 263.495 76.4972 263.495 73.7592C263.495 70.9467 263.948 68.6083 264.854 66.744C265.759 64.869 266.963 63.468 268.465 62.5412C269.978 61.6037 271.634 61.1349 273.435 61.1349C274.809 61.1349 275.954 61.3693 276.871 61.8381C277.797 62.2962 278.543 62.8714 279.108 63.5639C279.683 64.2457 280.12 64.9169 280.418 65.5774H280.626V53.2727H287.417V86H280.706V82.0689H280.418C280.099 82.7507 279.646 83.4272 279.06 84.0984C278.485 84.7589 277.733 85.3075 276.807 85.7443C275.89 86.1811 274.772 86.3995 273.451 86.3995ZM275.608 80.9822C276.705 80.9822 277.632 80.6839 278.389 80.0874C279.156 79.4801 279.742 78.6332 280.146 77.5465C280.562 76.4599 280.77 75.1868 280.77 73.7273C280.77 72.2678 280.567 71 280.162 69.924C279.758 68.848 279.172 68.017 278.405 67.4311C277.638 66.8452 276.705 66.5522 275.608 66.5522C274.49 66.5522 273.547 66.8558 272.78 67.4631C272.013 68.0703 271.432 68.9119 271.038 69.9879C270.644 71.0639 270.447 72.3104 270.447 73.7273C270.447 75.1548 270.644 76.4173 271.038 77.5146C271.443 78.6012 272.023 79.4535 272.78 80.0714C273.547 80.6786 274.49 80.9822 275.608 80.9822ZM306.214 61.4545V66.5682H291.065V61.4545H306.214ZM294.533 86V59.6808C294.533 57.9016 294.879 56.4261 295.571 55.2543C296.274 54.0824 297.233 53.2035 298.448 52.6175C299.662 52.0316 301.042 51.7386 302.587 51.7386C303.631 51.7386 304.584 51.8185 305.447 51.9783C306.321 52.1381 306.97 52.282 307.397 52.4098L306.182 57.5234C305.916 57.4382 305.585 57.3583 305.191 57.2837C304.808 57.2092 304.414 57.1719 304.009 57.1719C303.007 57.1719 302.31 57.4062 301.915 57.875C301.521 58.3331 301.324 58.9776 301.324 59.8086V86H294.533ZM317.18 53.2727V86H310.373V53.2727H317.18ZM329.633 86.4634C328.067 86.4634 326.671 86.1918 325.446 85.6484C324.221 85.0945 323.252 84.2795 322.538 83.2035C321.835 82.1168 321.483 80.7638 321.483 79.1445C321.483 77.7809 321.733 76.6357 322.234 75.7088C322.735 74.782 323.417 74.0362 324.28 73.4716C325.142 72.907 326.123 72.4808 327.22 72.1932C328.328 71.9055 329.489 71.7031 330.704 71.5859C332.131 71.4368 333.282 71.2983 334.155 71.1705C335.029 71.032 335.663 70.8295 336.057 70.5632C336.451 70.2969 336.648 69.9027 336.648 69.3807V69.2848C336.648 68.2727 336.329 67.4897 335.689 66.9357C335.061 66.3817 334.166 66.1048 333.005 66.1048C331.78 66.1048 330.805 66.3764 330.08 66.9197C329.356 67.4524 328.877 68.1236 328.642 68.9332L322.346 68.4219C322.666 66.9304 323.294 65.6413 324.232 64.5547C325.169 63.4574 326.378 62.6158 327.859 62.0298C329.351 61.4332 331.076 61.1349 333.037 61.1349C334.4 61.1349 335.705 61.2947 336.952 61.6143C338.209 61.9339 339.322 62.4293 340.292 63.1005C341.272 63.7717 342.044 64.6346 342.609 65.6893C343.173 66.7333 343.456 67.9851 343.456 69.4446V86H337V82.5962H336.808C336.414 83.3633 335.886 84.0398 335.226 84.6257C334.565 85.201 333.772 85.6538 332.845 85.984C331.918 86.3036 330.847 86.4634 329.633 86.4634ZM331.582 81.7653C332.584 81.7653 333.468 81.5682 334.235 81.174C335.002 80.7692 335.604 80.2259 336.041 79.544C336.478 78.8622 336.696 78.0898 336.696 77.2269V74.6222C336.483 74.7607 336.19 74.8885 335.817 75.0057C335.455 75.1122 335.045 75.2134 334.587 75.3093C334.129 75.3945 333.671 75.4744 333.212 75.549C332.754 75.6129 332.339 75.6715 331.966 75.7248C331.167 75.842 330.469 76.0284 329.873 76.2841C329.276 76.5398 328.813 76.886 328.482 77.3228C328.152 77.7489 327.987 78.2816 327.987 78.9208C327.987 79.8477 328.323 80.5561 328.994 81.0462C329.676 81.5256 330.538 81.7653 331.582 81.7653ZM348.737 86V61.4545H355.337V65.7372H355.593C356.04 64.2138 356.791 63.0632 357.846 62.2855C358.9 61.4972 360.115 61.103 361.489 61.103C361.83 61.103 362.198 61.1243 362.592 61.1669C362.986 61.2095 363.332 61.2681 363.631 61.3427V67.3832C363.311 67.2873 362.869 67.2021 362.304 67.1275C361.74 67.0529 361.223 67.0156 360.754 67.0156C359.753 67.0156 358.858 67.234 358.07 67.6708C357.292 68.0969 356.674 68.6935 356.216 69.4606C355.768 70.2276 355.545 71.1119 355.545 72.1133V86H348.737ZM377.194 86.4794C374.669 86.4794 372.496 85.968 370.674 84.9453C368.863 83.9119 367.467 82.4524 366.487 80.5668C365.507 78.6705 365.017 76.4279 365.017 73.8391C365.017 71.3143 365.507 69.0984 366.487 67.1914C367.467 65.2844 368.847 63.7983 370.626 62.733C372.416 61.6676 374.514 61.1349 376.922 61.1349C378.541 61.1349 380.049 61.396 381.444 61.918C382.851 62.4293 384.076 63.2017 385.12 64.2351C386.175 65.2685 386.995 66.5682 387.581 68.1342C388.167 69.6896 388.46 71.5114 388.46 73.5994V75.4691H367.733V71.2504H382.052C382.052 70.2702 381.839 69.402 381.412 68.6456C380.986 67.8892 380.395 67.2979 379.639 66.8718C378.893 66.435 378.025 66.2166 377.034 66.2166C376.001 66.2166 375.084 66.4563 374.285 66.9357C373.497 67.4045 372.879 68.0384 372.432 68.8374C371.984 69.6257 371.755 70.5046 371.744 71.4741V75.4851C371.744 76.6996 371.968 77.7489 372.416 78.6332C372.874 79.5174 373.518 80.1992 374.349 80.6786C375.18 81.158 376.166 81.3977 377.306 81.3977C378.062 81.3977 378.754 81.2912 379.383 81.0781C380.012 80.8651 380.55 80.5455 380.997 80.1193C381.444 79.6932 381.785 79.1712 382.02 78.5533L388.316 78.9688C387.996 80.4815 387.341 81.8026 386.35 82.9318C385.37 84.0504 384.102 84.924 382.547 85.5526C381.002 86.1705 379.218 86.4794 377.194 86.4794Z" fill="white"/>
<defs>
<clipPath id="clip0_144_2">
<rect width="110" height="52" fill="white" transform="translate(20 44)"/>
</clipPath>
</defs>
</svg>
