<svg width="140" height="140" viewBox="0 0 140 140" fill="none" xmlns="http://www.w3.org/2000/svg">
<rect width="140" height="140" rx="20" fill="#F6821F"/>
<g clip-path="url(#clip0_144_5)">
<path d="M89.69 94.6507L90.251 92.6392C90.9165 90.2499 90.669 88.0413 89.5497 86.4156C88.5212 84.9185 86.8053 84.04 84.7235 83.936L45.272 83.416C45.1501 83.4111 45.0308 83.3793 44.9227 83.3229C44.8145 83.2623 44.7215 83.1781 44.6505 83.0766C44.5813 82.9678 44.5379 82.8447 44.5236 82.7166C44.5093 82.5886 44.5245 82.459 44.568 82.3377C44.6342 82.1389 44.7564 81.9632 44.92 81.8314C45.0809 81.7022 45.2776 81.6249 45.4838 81.6097L85.301 81.0842C90.0227 80.8598 95.135 76.8804 96.9253 72.0253L99.1968 65.8674C99.2922 65.6063 99.3131 65.324 99.2572 65.0518C96.6805 53.0042 86.335 44 73.96 44C62.5585 44 52.8758 51.6413 49.408 62.2629C47.0928 60.4421 44.1526 59.5971 41.2185 59.9093C35.746 60.4731 31.3488 65.0463 30.807 70.728C30.6663 72.1462 30.7686 73.5778 31.1095 74.9619C22.1637 75.2274 15 82.8331 15 92.1766C15 93.0141 15.0596 93.8452 15.1787 94.6699C15.2035 94.8615 15.2943 95.0366 15.4345 95.1625C15.572 95.2912 15.7535 95.3596 15.9377 95.3623L88.7715 95.3705H88.7908C88.9966 95.3649 89.1947 95.2917 89.3545 95.1625C89.518 95.0316 89.6355 94.8524 89.69 94.6507Z" fill="white"/>
<path d="M102.835 66.3133C102.468 66.3133 102.104 66.3224 101.743 66.3407C101.685 66.3443 101.627 66.3572 101.573 66.379C101.475 66.4104 101.389 66.4682 101.322 66.5459C101.252 66.6224 101.202 66.7143 101.174 66.8141L99.623 72.3781C98.9547 74.7701 99.205 76.976 100.321 78.6017C101.353 80.0988 103.066 80.9773 105.15 81.0813L113.56 81.604C113.678 81.6114 113.794 81.6441 113.898 81.6998C114.008 81.7609 114.1 81.8477 114.169 81.9526C114.237 82.0576 114.278 82.1775 114.289 82.3019C114.306 82.4311 114.292 82.5624 114.247 82.6851C114.181 82.8839 114.059 83.0596 113.895 83.1914C113.734 83.3196 113.538 83.3959 113.332 83.4103L104.595 83.9358C99.8512 84.163 94.7362 88.1396 92.9487 92.9948L92.3162 94.708C92.2893 94.7796 92.2796 94.8565 92.2877 94.9325C92.2958 95.0085 92.3216 95.0815 92.363 95.1459C92.4023 95.209 92.4564 95.2619 92.5205 95.3C92.5846 95.3381 92.6569 95.3603 92.7315 95.3649H122.819C122.994 95.3625 123.163 95.305 123.303 95.2007C123.446 95.0904 123.548 94.9366 123.595 94.7628C124.129 92.785 124.398 90.7458 124.395 88.6979C124.395 76.3356 114.742 66.3133 102.835 66.3133Z" fill="white" fill-opacity="0.8"/>
</g>
<defs>
<clipPath id="clip0_144_5">
<rect width="110" height="52" fill="white" transform="translate(15 44)"/>
</clipPath>
</defs>
</svg>
