<svg width="140" height="140" viewBox="0 0 140 140" fill="none" xmlns="http://www.w3.org/2000/svg">
<rect width="140" height="140" rx="20" fill="#3448C5"/>
<path d="M103.276 59.9048C100.984 52.7173 96.4782 46.4384 90.4031 41.9656C84.3279 37.4928 76.9943 35.055 69.4504 35.0006C63.0722 34.964 56.8047 36.666 51.3212 39.9237C45.8376 43.1814 41.3453 47.8715 38.3269 53.4905C32.7794 54.4846 27.6941 57.2233 23.8109 61.3078C19.9277 65.3923 17.4495 70.6095 16.7368 76.2001C16.0242 81.7907 17.1143 87.4628 19.8486 92.3908C22.5829 97.319 26.8186 101.246 31.9392 103.6L32.6037 103.901H32.648V96.3705C29.1352 94.2143 26.3852 91.0128 24.7834 87.215C23.1816 83.4172 22.8082 79.2134 23.7157 75.1927C24.6232 71.1721 26.766 67.5362 29.8438 64.7946C32.9216 62.053 36.78 60.3432 40.8784 59.9048L42.739 59.7098L43.554 58.0354C45.8682 53.1308 49.5346 48.9889 54.122 46.0964C58.7095 43.204 64.0273 41.6812 69.4504 41.7073C75.9123 41.7529 82.1736 43.9575 87.2384 47.9709C92.303 51.9843 95.8807 57.5757 97.4022 63.8561L98.04 66.3899H100.698C104.983 66.4778 109.063 68.2376 112.068 71.2935C115.072 74.3494 116.763 78.459 116.778 82.7446C116.778 88.9905 113.172 94.1025 107.033 96.6894V103.83L107.476 103.688C117.345 100.455 123.476 92.4281 123.476 82.7446C123.435 77.1399 121.367 71.7394 117.654 67.541C113.941 63.3426 108.834 60.6301 103.276 59.9048Z" fill="white"/>
<path d="M56.4618 103.033L57.9325 104.504C57.9722 104.545 57.9991 104.596 58.0099 104.652C58.0207 104.708 58.0149 104.766 57.9933 104.819C57.9716 104.871 57.935 104.917 57.8881 104.949C57.841 104.981 57.7856 104.999 57.7286 105H46.1227C44.7129 105 43.3608 104.44 42.364 103.443C41.3671 102.446 40.807 101.094 40.807 99.6843V77.1457C40.807 77.0681 40.7762 76.9937 40.7213 76.9389C40.6666 76.8841 40.5922 76.8532 40.5147 76.8532H38.0339C37.9762 76.8539 37.9196 76.8373 37.8713 76.8058C37.8229 76.7743 37.785 76.7292 37.7623 76.676C37.7395 76.623 37.733 76.5644 37.7435 76.5077C37.7541 76.4509 37.7811 76.3985 37.8213 76.3571L47.6732 66.5054C47.7003 66.4778 47.7327 66.4559 47.7685 66.4409C47.8042 66.4259 47.8426 66.4182 47.8813 66.4182C47.9201 66.4182 47.9584 66.4259 47.9941 66.4409C48.03 66.4559 48.0624 66.4778 48.0895 66.5054L57.9325 76.3571C57.9722 76.398 57.9991 76.4495 58.0099 76.5054C58.0207 76.5614 58.0149 76.6193 57.9933 76.6721C57.9716 76.7247 57.935 76.7699 57.8881 76.8021C57.841 76.8343 57.7856 76.8521 57.7286 76.8532H55.2126C55.1342 76.8532 55.0589 76.8837 55.0027 76.9383C54.9464 76.9929 54.9137 77.0673 54.9113 77.1457V99.2944C54.915 100.696 55.4722 102.04 56.4618 103.033ZM78.2296 103.033L79.7092 104.504C79.7494 104.545 79.7765 104.598 79.7869 104.654C79.7975 104.711 79.791 104.77 79.7682 104.823C79.7456 104.876 79.7076 104.921 79.6592 104.953C79.6109 104.984 79.5542 105.001 79.4966 105H67.9172C66.5073 105 65.1552 104.44 64.1583 103.443C63.1614 102.446 62.6014 101.094 62.6014 99.6843V82.8423C62.6014 82.7639 62.571 82.6886 62.5163 82.6324C62.4618 82.5761 62.3874 82.5434 62.309 82.541H59.8018C59.7449 82.54 59.6895 82.5222 59.6424 82.49C59.5955 82.4578 59.5589 82.4126 59.5372 82.3599C59.5156 82.3071 59.5098 82.2493 59.5206 82.1933C59.5314 82.1374 59.5584 82.0857 59.598 82.0449L69.441 72.2109C69.4682 72.1833 69.5006 72.1614 69.5363 72.1464C69.5721 72.1314 69.6104 72.1237 69.6491 72.1237C69.6879 72.1237 69.7262 72.1314 69.7621 72.1464C69.7978 72.1614 69.8302 72.1833 69.8574 72.2109L79.7092 82.0272C79.7494 82.0686 79.7765 82.121 79.7869 82.1777C79.7975 82.2345 79.791 82.2931 79.7682 82.3462C79.7456 82.3992 79.7076 82.4444 79.6592 82.4759C79.6109 82.5075 79.5542 82.5239 79.4966 82.5234H76.9804C76.902 82.5256 76.8277 82.5584 76.7732 82.6146C76.7185 82.6709 76.688 82.7462 76.688 82.8246V99.2944C76.6893 100.695 77.2432 102.039 78.2296 103.033ZM100.006 103.033L101.477 104.504C101.517 104.545 101.544 104.596 101.554 104.652C101.565 104.708 101.559 104.766 101.538 104.819C101.516 104.871 101.48 104.917 101.433 104.949C101.386 104.981 101.33 104.999 101.273 105H89.6584C88.2486 105 86.8965 104.44 85.8997 103.443C84.9028 102.446 84.3427 101.094 84.3427 99.6843V88.4947C84.3427 88.4172 84.3118 88.3427 84.2571 88.288C84.2022 88.2331 84.1279 88.2023 84.0504 88.2023H81.5696C81.5109 88.2029 81.4532 88.1858 81.4043 88.1532C81.3554 88.1205 81.3174 88.0738 81.2954 88.0193C81.2734 87.9649 81.2683 87.9049 81.281 87.8474C81.2935 87.79 81.3231 87.7377 81.3659 87.6973L91.2177 77.8544C91.2441 77.827 91.2758 77.8053 91.3108 77.7905C91.3458 77.7756 91.3834 77.768 91.4214 77.768C91.4594 77.768 91.4971 77.7756 91.5321 77.7905C91.5671 77.8053 91.5988 77.827 91.6252 77.8544L101.477 87.6973C101.52 87.7377 101.549 87.79 101.562 87.8474C101.575 87.9049 101.57 87.9649 101.548 88.0193C101.525 88.0738 101.488 88.1205 101.439 88.1532C101.39 88.1858 101.332 88.2029 101.273 88.2023H98.7483C98.6707 88.2023 98.5964 88.2331 98.5415 88.288C98.4867 88.3427 98.4559 88.4172 98.4559 88.4947V99.2944C98.4595 100.696 99.0167 102.04 100.006 103.033Z" fill="white"/>
</svg>
