<svg width="140" height="140" viewBox="0 0 140 140" fill="none" xmlns="http://www.w3.org/2000/svg">
<rect width="140" height="140" rx="20" fill="#14151A"/>
<g clip-path="url(#clip0_134_380)">
<path d="M60.5867 79.6785C60.0977 79.9233 58.9975 80.5354 58.1418 81.1474C56.6748 82.2491 54.8411 82.6163 52.5183 82.0043C50.9291 81.637 50.8068 82.0043 51.9071 84.5748C58.8753 99.7533 80.1467 100.365 87.6039 85.5541C89.3154 82.2491 89.0709 81.637 86.7481 82.2491C84.7922 82.7387 83.4474 82.4939 81.4914 81.025C78.9242 79.0665 75.5012 79.0665 73.6674 81.025C71.8337 82.9835 68.044 82.8611 65.8435 80.7802C64.621 79.5561 62.0537 79.0665 60.5867 79.6785Z" fill="#3CBEEF"/>
<path d="M114.01 35.1218L104.474 29.7359L83.2029 17.3728C81.1247 16.1487 78.8019 16.2711 76.7237 17.3728C74.7677 18.5968 73.5452 20.6778 73.5452 23.0035L73.912 43.0783V48.7091V51.1572C73.912 52.0141 74.5232 52.8709 75.379 53.1157C85.7702 55.8087 93.3496 65.4789 93.3496 75.8835C93.3496 86.2881 82.8362 99.3857 69.8777 99.3857C56.9193 99.3857 46.4059 88.8587 46.4059 75.8835C46.4059 62.9083 53.0073 56.5431 62.7873 53.4829L64.7433 52.9933C65.7213 52.8709 66.4548 52.0141 66.4548 51.0348V47.6074V44.9144V22.8811C66.4548 20.5553 65.2323 18.4744 63.2763 17.3728C61.3203 16.2711 58.8753 16.2711 56.9193 17.3728L47.6284 22.7587L25.9902 35.2442C22.3227 37.4476 20 41.3646 20 45.6489V89.5931C20 93.8774 22.3227 97.9168 25.9902 99.9978L64.0098 121.909C65.8435 123.01 67.9218 123.5 70 123.5C72.0782 123.5 74.1565 123.01 75.9902 121.909L114.01 99.9978C117.677 97.7944 120 93.8774 120 89.5931V45.6489C120 41.3646 117.677 37.3252 114.01 35.2442V35.1218ZM116.088 89.5931C116.088 92.4085 114.499 95.1015 112.054 96.5704L74.0342 118.481C71.5892 119.95 68.4108 119.95 65.9658 118.481L27.9462 96.5704C25.5012 95.1015 23.912 92.4085 23.912 89.5931V45.6489C23.912 42.8335 25.5012 40.1405 27.9462 38.6716L43.8386 29.4911L58.753 20.8002C59.8533 20.1881 60.8313 20.5553 61.198 20.8002C61.5648 21.045 62.4205 21.657 62.4205 22.8811V49.3211C62.4205 49.3211 61.8093 49.4435 61.8093 49.5659C50.3178 53.1157 42.4939 63.7652 42.4939 75.8835C42.4939 88.0018 54.8411 103.425 70 103.425C85.1589 103.425 97.5061 91.062 97.5061 75.8835C97.5061 60.705 89.5599 53.3605 78.0685 49.6883V43.0783L77.7017 23.0035C77.7017 21.7794 78.5574 21.1674 78.9242 20.9226C79.2909 20.6778 80.2689 20.3105 81.3692 20.9226L102.641 33.2857L112.176 38.6716C114.621 40.1405 116.21 42.8335 116.21 45.6489V89.5931H116.088Z" fill="#98A2AE"/>
<path d="M72.2005 77.5974C73.3483 77.5974 74.2788 76.6657 74.2788 75.5165C74.2788 74.3672 73.3483 73.4355 72.2005 73.4355C71.0528 73.4355 70.1223 74.3672 70.1223 75.5165C70.1223 76.6657 71.0528 77.5974 72.2005 77.5974Z" stroke="#3CBEEF" stroke-width="0.8" stroke-miterlimit="10"/>
<path d="M62.9096 73.6802C64.53 73.6802 65.8436 72.365 65.8436 70.7425C65.8436 69.12 64.53 67.8047 62.9096 67.8047C61.2892 67.8047 59.9756 69.12 59.9756 70.7425C59.9756 72.365 61.2892 73.6802 62.9096 73.6802Z" stroke="#3CBEEF" stroke-width="0.8" stroke-miterlimit="10"/>
<path d="M68.7774 64.7446C71.073 64.7446 72.9339 62.8813 72.9339 60.5828C72.9339 58.2842 71.073 56.4209 68.7774 56.4209C66.4819 56.4209 64.621 58.2842 64.621 60.5828C64.621 62.8813 66.4819 64.7446 68.7774 64.7446Z" stroke="#3CBEEF" stroke-width="0.8" stroke-miterlimit="10"/>
</g>
<defs>
<clipPath id="clip0_134_380">
<rect width="100" height="107" fill="white" transform="translate(20 16.5)"/>
</clipPath>
</defs>
</svg>
