<svg width="456" height="140" viewBox="0 0 456 140" fill="none" xmlns="http://www.w3.org/2000/svg">
<rect width="456" height="140" rx="20" fill="#14151A"/>
<g clip-path="url(#clip0_134_372)">
<path d="M60.5867 79.6785C60.0977 79.9233 58.9975 80.5354 58.1418 81.1474C56.6748 82.2491 54.8411 82.6163 52.5183 82.0043C50.9291 81.637 50.8068 82.0043 51.9071 84.5748C58.8753 99.7533 80.1467 100.365 87.6039 85.5541C89.3154 82.2491 89.0709 81.637 86.7481 82.2491C84.7922 82.7387 83.4474 82.4939 81.4914 81.025C78.9242 79.0665 75.5012 79.0665 73.6674 81.025C71.8337 82.9835 68.044 82.8611 65.8435 80.7802C64.621 79.5561 62.0537 79.0665 60.5867 79.6785Z" fill="#3CBEEF"/>
<path d="M114.01 35.1218L104.474 29.7359L83.2029 17.3728C81.1247 16.1487 78.8019 16.2711 76.7237 17.3728C74.7677 18.5968 73.5452 20.6778 73.5452 23.0035L73.912 43.0783V48.7091V51.1572C73.912 52.0141 74.5232 52.8709 75.379 53.1157C85.7702 55.8087 93.3496 65.4789 93.3496 75.8835C93.3496 86.2881 82.8362 99.3857 69.8777 99.3857C56.9193 99.3857 46.4059 88.8587 46.4059 75.8835C46.4059 62.9083 53.0073 56.5431 62.7873 53.4829L64.7433 52.9933C65.7213 52.8709 66.4548 52.0141 66.4548 51.0348V47.6074V44.9144V22.8811C66.4548 20.5553 65.2323 18.4744 63.2763 17.3728C61.3203 16.2711 58.8753 16.2711 56.9193 17.3728L47.6284 22.7587L25.9902 35.2442C22.3227 37.4476 20 41.3646 20 45.6489V89.5931C20 93.8774 22.3227 97.9168 25.9902 99.9978L64.0098 121.909C65.8435 123.01 67.9218 123.5 70 123.5C72.0782 123.5 74.1565 123.01 75.9902 121.909L114.01 99.9978C117.677 97.7944 120 93.8774 120 89.5931V45.6489C120 41.3646 117.677 37.3252 114.01 35.2442V35.1218ZM116.088 89.5931C116.088 92.4085 114.499 95.1015 112.054 96.5704L74.0342 118.481C71.5892 119.95 68.4108 119.95 65.9658 118.481L27.9462 96.5704C25.5012 95.1015 23.912 92.4085 23.912 89.5931V45.6489C23.912 42.8335 25.5012 40.1405 27.9462 38.6716L43.8386 29.4911L58.753 20.8002C59.8533 20.1881 60.8313 20.5553 61.198 20.8002C61.5648 21.045 62.4205 21.657 62.4205 22.8811V49.3211C62.4205 49.3211 61.8093 49.4435 61.8093 49.5659C50.3178 53.1157 42.4939 63.7652 42.4939 75.8835C42.4939 88.0018 54.8411 103.425 70 103.425C85.1589 103.425 97.5061 91.062 97.5061 75.8835C97.5061 60.705 89.5599 53.3605 78.0685 49.6883V43.0783L77.7017 23.0035C77.7017 21.7794 78.5574 21.1674 78.9242 20.9226C79.2909 20.6778 80.2689 20.3105 81.3692 20.9226L102.641 33.2857L112.176 38.6716C114.621 40.1405 116.21 42.8335 116.21 45.6489V89.5931H116.088Z" fill="#98A2AE"/>
<path d="M72.2005 77.5974C73.3483 77.5974 74.2788 76.6657 74.2788 75.5165C74.2788 74.3672 73.3483 73.4355 72.2005 73.4355C71.0528 73.4355 70.1223 74.3672 70.1223 75.5165C70.1223 76.6657 71.0528 77.5974 72.2005 77.5974Z" stroke="#3CBEEF" stroke-width="0.8" stroke-miterlimit="10"/>
<path d="M62.9096 73.6802C64.53 73.6802 65.8436 72.365 65.8436 70.7425C65.8436 69.12 64.53 67.8047 62.9096 67.8047C61.2892 67.8047 59.9756 69.12 59.9756 70.7425C59.9756 72.365 61.2892 73.6802 62.9096 73.6802Z" stroke="#3CBEEF" stroke-width="0.8" stroke-miterlimit="10"/>
<path d="M68.7774 64.7446C71.073 64.7446 72.9339 62.8813 72.9339 60.5828C72.9339 58.2842 71.073 56.4209 68.7774 56.4209C66.4819 56.4209 64.621 58.2842 64.621 60.5828C64.621 62.8813 66.4819 64.7446 68.7774 64.7446Z" stroke="#3CBEEF" stroke-width="0.8" stroke-miterlimit="10"/>
</g>
<path d="M181.721 64.7305H174.721C174.593 63.8249 174.332 63.0206 173.938 62.3175C173.544 61.6037 173.038 60.9964 172.42 60.4957C171.802 59.995 171.088 59.6115 170.279 59.3452C169.48 59.0788 168.612 58.9457 167.674 58.9457C165.98 58.9457 164.505 59.3665 163.248 60.2081C161.99 61.0391 161.016 62.2536 160.323 63.8516C159.631 65.4389 159.284 67.3672 159.284 69.6364C159.284 71.9695 159.631 73.9297 160.323 75.517C161.026 77.1044 162.006 78.3029 163.263 79.1126C164.521 79.9222 165.975 80.3271 167.626 80.3271C168.553 80.3271 169.411 80.2045 170.199 79.9595C170.998 79.7145 171.706 79.3576 172.324 78.8888C172.942 78.4094 173.453 77.8288 173.858 77.147C174.274 76.4652 174.561 75.6875 174.721 74.8139L181.721 74.8459C181.539 76.348 181.087 77.7969 180.362 79.1925C179.648 80.5774 178.684 81.8185 177.47 82.9158C176.266 84.0025 174.828 84.8654 173.155 85.5046C171.493 86.1332 169.613 86.4474 167.514 86.4474C164.595 86.4474 161.985 85.7869 159.684 84.4659C157.393 83.1449 155.582 81.2326 154.251 78.729C152.93 76.2255 152.269 73.1946 152.269 69.6364C152.269 66.0675 152.94 63.0312 154.283 60.5277C155.625 58.0241 157.447 56.1172 159.748 54.8068C162.049 53.4858 164.638 52.8253 167.514 52.8253C169.411 52.8253 171.168 53.0916 172.788 53.6243C174.418 54.157 175.861 54.9347 177.118 55.9574C178.375 56.9695 179.398 58.2106 180.186 59.6808C180.985 61.1509 181.497 62.8342 181.721 64.7305ZM197.645 86.4794C195.162 86.4794 193.016 85.9521 191.205 84.8974C189.404 83.832 188.014 82.3512 187.034 80.4549C186.054 78.5479 185.564 76.3374 185.564 73.8232C185.564 71.2876 186.054 69.0717 187.034 67.1754C188.014 65.2685 189.404 63.7876 191.205 62.733C193.016 61.6676 195.162 61.1349 197.645 61.1349C200.127 61.1349 202.268 61.6676 204.069 62.733C205.88 63.7876 207.275 65.2685 208.256 67.1754C209.236 69.0717 209.726 71.2876 209.726 73.8232C209.726 76.3374 209.236 78.5479 208.256 80.4549C207.275 82.3512 205.88 83.832 204.069 84.8974C202.268 85.9521 200.127 86.4794 197.645 86.4794ZM197.677 81.206C198.806 81.206 199.749 80.8864 200.505 80.2472C201.262 79.5973 201.831 78.7131 202.215 77.5945C202.609 76.4759 202.806 75.2028 202.806 73.7752C202.806 72.3477 202.609 71.0746 202.215 69.956C201.831 68.8374 201.262 67.9531 200.505 67.3033C199.749 66.6534 198.806 66.3285 197.677 66.3285C196.537 66.3285 195.578 66.6534 194.8 67.3033C194.033 67.9531 193.453 68.8374 193.058 69.956C192.675 71.0746 192.483 72.3477 192.483 73.7752C192.483 75.2028 192.675 76.4759 193.058 77.5945C193.453 78.7131 194.033 79.5973 194.8 80.2472C195.578 80.8864 196.537 81.206 197.677 81.206ZM220.96 71.8097V86H214.152V61.4545H220.64V65.7852H220.928C221.471 64.3576 222.382 63.2283 223.66 62.3974C224.939 61.5558 226.489 61.1349 228.311 61.1349C230.015 61.1349 231.501 61.5078 232.769 62.2536C234.037 62.9993 235.022 64.0646 235.725 65.4496C236.428 66.8239 236.78 68.4645 236.78 70.3714V86H229.972V71.5859C229.983 70.0838 229.6 68.9119 228.822 68.0703C228.044 67.218 226.974 66.7919 225.61 66.7919C224.694 66.7919 223.884 66.989 223.181 67.3832C222.488 67.7773 221.945 68.3526 221.551 69.109C221.167 69.8548 220.97 70.755 220.96 71.8097ZM255.201 61.4545V66.5682H240.419V61.4545H255.201ZM243.775 55.5739H250.583V78.4574C250.583 79.0859 250.679 79.576 250.87 79.9276C251.062 80.2685 251.329 80.5082 251.669 80.6467C252.021 80.7852 252.426 80.8544 252.884 80.8544C253.204 80.8544 253.523 80.8278 253.843 80.7745C254.162 80.7106 254.407 80.6626 254.578 80.6307L255.649 85.6964C255.308 85.8029 254.828 85.9254 254.21 86.0639C253.592 86.2131 252.841 86.3036 251.957 86.3356C250.316 86.3995 248.878 86.1811 247.642 85.6804C246.417 85.1797 245.464 84.402 244.782 83.3473C244.1 82.2926 243.765 80.9609 243.775 79.3523V55.5739ZM266.635 86.4634C265.069 86.4634 263.673 86.1918 262.448 85.6484C261.223 85.0945 260.253 84.2795 259.54 83.2035C258.837 82.1168 258.485 80.7638 258.485 79.1445C258.485 77.7809 258.735 76.6357 259.236 75.7088C259.737 74.782 260.419 74.0362 261.282 73.4716C262.144 72.907 263.125 72.4808 264.222 72.1932C265.33 71.9055 266.491 71.7031 267.706 71.5859C269.133 71.4368 270.284 71.2983 271.157 71.1705C272.031 71.032 272.665 70.8295 273.059 70.5632C273.453 70.2969 273.65 69.9027 273.65 69.3807V69.2848C273.65 68.2727 273.331 67.4897 272.691 66.9357C272.063 66.3817 271.168 66.1048 270.007 66.1048C268.782 66.1048 267.807 66.3764 267.082 66.9197C266.358 67.4524 265.878 68.1236 265.644 68.9332L259.348 68.4219C259.668 66.9304 260.296 65.6413 261.234 64.5547C262.171 63.4574 263.38 62.6158 264.861 62.0298C266.353 61.4332 268.078 61.1349 270.039 61.1349C271.402 61.1349 272.707 61.2947 273.954 61.6143C275.211 61.9339 276.324 62.4293 277.294 63.1005C278.274 63.7717 279.046 64.6346 279.611 65.6893C280.175 66.7333 280.458 67.9851 280.458 69.4446V86H274.002V82.5962H273.81C273.416 83.3633 272.888 84.0398 272.228 84.6257C271.567 85.201 270.774 85.6538 269.847 85.984C268.92 86.3036 267.849 86.4634 266.635 86.4634ZM268.584 81.7653C269.586 81.7653 270.47 81.5682 271.237 81.174C272.004 80.7692 272.606 80.2259 273.043 79.544C273.48 78.8622 273.698 78.0898 273.698 77.2269V74.6222C273.485 74.7607 273.192 74.8885 272.819 75.0057C272.457 75.1122 272.047 75.2134 271.589 75.3093C271.131 75.3945 270.672 75.4744 270.214 75.549C269.756 75.6129 269.341 75.6715 268.968 75.7248C268.169 75.842 267.471 76.0284 266.875 76.2841C266.278 76.5398 265.815 76.886 265.484 77.3228C265.154 77.7489 264.989 78.2816 264.989 78.9208C264.989 79.8477 265.324 80.5561 265.996 81.0462C266.677 81.5256 267.54 81.7653 268.584 81.7653ZM285.739 86V61.4545H292.547V86H285.739ZM289.159 58.2905C288.147 58.2905 287.278 57.9549 286.554 57.2837C285.84 56.6019 285.483 55.7869 285.483 54.8388C285.483 53.9013 285.84 53.0969 286.554 52.4258C287.278 51.744 288.147 51.4031 289.159 51.4031C290.171 51.4031 291.034 51.744 291.748 52.4258C292.472 53.0969 292.834 53.9013 292.834 54.8388C292.834 55.7869 292.472 56.6019 291.748 57.2837C291.034 57.9549 290.171 58.2905 289.159 58.2905ZM304.807 71.8097V86H298V61.4545H304.488V65.7852H304.775C305.319 64.3576 306.23 63.2283 307.508 62.3974C308.786 61.5558 310.336 61.1349 312.158 61.1349C313.863 61.1349 315.349 61.5078 316.617 62.2536C317.884 62.9993 318.87 64.0646 319.573 65.4496C320.276 66.8239 320.628 68.4645 320.628 70.3714V86H313.82V71.5859C313.831 70.0838 313.447 68.9119 312.67 68.0703C311.892 67.218 310.821 66.7919 309.458 66.7919C308.541 66.7919 307.732 66.989 307.029 67.3832C306.336 67.7773 305.793 68.3526 305.399 69.109C305.015 69.8548 304.818 70.755 304.807 71.8097ZM337.179 86.4794C334.654 86.4794 332.481 85.968 330.659 84.9453C328.848 83.9119 327.453 82.4524 326.472 80.5668C325.492 78.6705 325.002 76.4279 325.002 73.8391C325.002 71.3143 325.492 69.0984 326.472 67.1914C327.453 65.2844 328.832 63.7983 330.611 62.733C332.401 61.6676 334.5 61.1349 336.907 61.1349C338.527 61.1349 340.034 61.396 341.43 61.918C342.836 62.4293 344.061 63.2017 345.105 64.2351C346.16 65.2685 346.98 66.5682 347.566 68.1342C348.152 69.6896 348.445 71.5114 348.445 73.5994V75.4691H327.719V71.2504H342.037C342.037 70.2702 341.824 69.402 341.398 68.6456C340.972 67.8892 340.38 67.2979 339.624 66.8718C338.878 66.435 338.01 66.2166 337.019 66.2166C335.986 66.2166 335.07 66.4563 334.271 66.9357C333.482 67.4045 332.864 68.0384 332.417 68.8374C331.97 69.6257 331.741 70.5046 331.73 71.4741V75.4851C331.73 76.6996 331.954 77.7489 332.401 78.6332C332.859 79.5174 333.504 80.1992 334.335 80.6786C335.166 81.158 336.151 81.3977 337.291 81.3977C338.047 81.3977 338.74 81.2912 339.368 81.0781C339.997 80.8651 340.535 80.5455 340.982 80.1193C341.43 79.6932 341.771 79.1712 342.005 78.5533L348.301 78.9688C347.982 80.4815 347.326 81.8026 346.336 82.9318C345.356 84.0504 344.088 84.924 342.532 85.5526C340.988 86.1705 339.203 86.4794 337.179 86.4794ZM352.888 86V61.4545H359.487V65.7372H359.743C360.19 64.2138 360.941 63.0632 361.996 62.2855C363.051 61.4972 364.265 61.103 365.64 61.103C365.981 61.103 366.348 61.1243 366.742 61.1669C367.136 61.2095 367.483 61.2681 367.781 61.3427V67.3832C367.461 67.2873 367.019 67.2021 366.455 67.1275C365.89 67.0529 365.373 67.0156 364.905 67.0156C363.903 67.0156 363.008 67.234 362.22 67.6708C361.442 68.0969 360.824 68.6935 360.366 69.4606C359.919 70.2276 359.695 71.1119 359.695 72.1133V86H352.888ZM378.108 53.2727V86H371.301V53.2727H378.108ZM390.561 86.4634C388.995 86.4634 387.599 86.1918 386.374 85.6484C385.149 85.0945 384.179 84.2795 383.465 83.2035C382.762 82.1168 382.411 80.7638 382.411 79.1445C382.411 77.7809 382.661 76.6357 383.162 75.7088C383.663 74.782 384.344 74.0362 385.207 73.4716C386.07 72.907 387.05 72.4808 388.148 72.1932C389.256 71.9055 390.417 71.7031 391.631 71.5859C393.059 71.4368 394.209 71.2983 395.083 71.1705C395.957 71.032 396.59 70.8295 396.985 70.5632C397.379 70.2969 397.576 69.9027 397.576 69.3807V69.2848C397.576 68.2727 397.256 67.4897 396.617 66.9357C395.989 66.3817 395.094 66.1048 393.932 66.1048C392.707 66.1048 391.733 66.3764 391.008 66.9197C390.284 67.4524 389.804 68.1236 389.57 68.9332L383.274 68.4219C383.593 66.9304 384.222 65.6413 385.159 64.5547C386.097 63.4574 387.306 62.6158 388.787 62.0298C390.278 61.4332 392.004 61.1349 393.964 61.1349C395.328 61.1349 396.633 61.2947 397.88 61.6143C399.137 61.9339 400.25 62.4293 401.219 63.1005C402.199 63.7717 402.972 64.6346 403.536 65.6893C404.101 66.7333 404.383 67.9851 404.383 69.4446V86H397.927V82.5962H397.736C397.342 83.3633 396.814 84.0398 396.154 84.6257C395.493 85.201 394.699 85.6538 393.773 85.984C392.846 86.3036 391.775 86.4634 390.561 86.4634ZM392.51 81.7653C393.512 81.7653 394.396 81.5682 395.163 81.174C395.93 80.7692 396.532 80.2259 396.969 79.544C397.405 78.8622 397.624 78.0898 397.624 77.2269V74.6222C397.411 74.7607 397.118 74.8885 396.745 75.0057C396.383 75.1122 395.973 75.2134 395.514 75.3093C395.056 75.3945 394.598 75.4744 394.14 75.549C393.682 75.6129 393.267 75.6715 392.894 75.7248C392.095 75.842 391.397 76.0284 390.8 76.2841C390.204 76.5398 389.74 76.886 389.41 77.3228C389.08 77.7489 388.915 78.2816 388.915 78.9208C388.915 79.8477 389.25 80.5561 389.921 81.0462C390.603 81.5256 391.466 81.7653 392.51 81.7653ZM409.793 86V53.2727H416.6V65.5774H416.808C417.106 64.9169 417.538 64.2457 418.102 63.5639C418.678 62.8714 419.423 62.2962 420.34 61.8381C421.266 61.3693 422.417 61.1349 423.791 61.1349C425.581 61.1349 427.232 61.6037 428.745 62.5412C430.258 63.468 431.467 64.869 432.373 66.744C433.278 68.6083 433.731 70.9467 433.731 73.7592C433.731 76.4972 433.289 78.8089 432.405 80.6946C431.531 82.5696 430.338 83.9918 428.825 84.9613C427.323 85.9201 425.64 86.3995 423.775 86.3995C422.454 86.3995 421.33 86.1811 420.403 85.7443C419.487 85.3075 418.736 84.7589 418.15 84.0984C417.564 83.4272 417.117 82.7507 416.808 82.0689H416.504V86H409.793ZM416.456 73.7273C416.456 75.1868 416.659 76.4599 417.064 77.5465C417.468 78.6332 418.054 79.4801 418.821 80.0874C419.589 80.6839 420.521 80.9822 421.618 80.9822C422.726 80.9822 423.663 80.6786 424.43 80.0714C425.198 79.4535 425.778 78.6012 426.172 77.5146C426.577 76.4173 426.78 75.1548 426.78 73.7273C426.78 72.3104 426.582 71.0639 426.188 69.9879C425.794 68.9119 425.214 68.0703 424.446 67.4631C423.679 66.8558 422.737 66.5522 421.618 66.5522C420.51 66.5522 419.573 66.8452 418.805 67.4311C418.049 68.017 417.468 68.848 417.064 69.924C416.659 71 416.456 72.2678 416.456 73.7273Z" fill="white"/>
<defs>
<clipPath id="clip0_134_372">
<rect width="100" height="107" fill="white" transform="translate(20 16.5)"/>
</clipPath>
</defs>
</svg>
