<svg width="292" height="140" viewBox="0 0 292 140" fill="none" xmlns="http://www.w3.org/2000/svg">
<g clip-path="url(#clip0_42_51)">
<rect width="292" height="140" rx="20" fill="#00599C"/>
<path d="M196 140L76 69.9998L0 114.5L0 140H196Z" fill="#004482"/>
<path d="M196 0L76 69.9998L196 140V0Z" fill="#00599C"/>
<path d="M76 69.9998L196 0L0 0L0 114.5L76 69.9998Z" fill="#659AD2"/>
<path d="M76.2573 14C97.0686 14 115.239 25.2509 124.971 41.9741L124.876 41.8131L100.39 55.8475C95.5659 47.7165 86.7219 42.2294 76.5768 42.1164L76.2573 42.1146C60.7863 42.1146 48.2436 54.5993 48.2436 69.9997C48.2436 75.0359 49.5925 79.7568 51.9382 83.8343C56.7669 92.2256 65.8443 97.8854 76.2573 97.8854C86.7345 97.8854 95.8636 92.1537 100.668 83.6727L100.551 83.8762L125 97.9753C115.375 114.557 97.4534 125.773 76.8839 125.997L76.2573 126C55.3803 126 37.1585 114.68 27.4508 97.8682C22.7116 89.661 20 80.146 20 69.9997C20 39.0723 45.1867 14 76.2573 14Z" fill="white"/>
<path d="M122.667 66.3331H116.444V60H110.223V66.3331H104V72.6663H110.223V79H116.444V72.6663H122.667V66.3331Z" fill="white"/>
<path d="M146 66.3331H139.777V60H133.556V66.3331H127.333V72.6663H133.556V79H139.777V72.6663H146V66.3331Z" fill="white"/>
<path d="M207.721 64.7305H200.721C200.593 63.8249 200.332 63.0206 199.938 62.3175C199.544 61.6037 199.038 60.9964 198.42 60.4957C197.802 59.995 197.088 59.6115 196.279 59.3452C195.48 59.0788 194.612 58.9457 193.674 58.9457C191.98 58.9457 190.505 59.3665 189.248 60.2081C187.99 61.0391 187.016 62.2536 186.323 63.8516C185.631 65.4389 185.284 67.3672 185.284 69.6364C185.284 71.9695 185.631 73.9297 186.323 75.517C187.026 77.1044 188.006 78.3029 189.263 79.1126C190.521 79.9222 191.975 80.3271 193.626 80.3271C194.553 80.3271 195.411 80.2045 196.199 79.9595C196.998 79.7145 197.706 79.3576 198.324 78.8888C198.942 78.4094 199.453 77.8288 199.858 77.147C200.274 76.4652 200.561 75.6875 200.721 74.8139L207.721 74.8459C207.539 76.348 207.087 77.7969 206.362 79.1925C205.648 80.5774 204.684 81.8185 203.47 82.9158C202.266 84.0025 200.828 84.8654 199.155 85.5046C197.493 86.1332 195.613 86.4474 193.514 86.4474C190.595 86.4474 187.985 85.7869 185.684 84.4659C183.393 83.1449 181.582 81.2326 180.251 78.729C178.93 76.2255 178.269 73.1946 178.269 69.6364C178.269 66.0675 178.94 63.0312 180.283 60.5277C181.625 58.0241 183.447 56.1172 185.748 54.8068C188.049 53.4858 190.638 52.8253 193.514 52.8253C195.411 52.8253 197.168 53.0916 198.788 53.6243C200.418 54.157 201.861 54.9347 203.118 55.9574C204.375 56.9695 205.398 58.2106 206.186 59.6808C206.985 61.1509 207.497 62.8342 207.721 64.7305ZM222.27 81.0142V58.3864H227.991V81.0142H222.27ZM213.817 72.5607V66.8398H236.445V72.5607H213.817ZM252.856 81.0142V58.3864H258.577V81.0142H252.856ZM244.403 72.5607V66.8398H267.031V72.5607H244.403Z" fill="white"/>
</g>
<defs>
<clipPath id="clip0_42_51">
<rect width="292" height="140" rx="20" fill="white"/>
</clipPath>
</defs>
</svg>
