<svg width="140" height="140" viewBox="0 0 140 140" fill="none" xmlns="http://www.w3.org/2000/svg">
<g clip-path="url(#clip0_75_5)">
<rect width="140" height="140" rx="20" fill="#659AD2"/>
<path d="M140 26.5L65.5481 70.0006L140 113V26.5Z" fill="#00599C"/>
<path d="M140 113L65.5481 70.0006L0 107.501L0 140.001H140V113Z" fill="#004482"/>
<path d="M63.2573 14C84.0686 14 102.239 25.2509 111.971 41.9741L112.5 43L89 56.5C84.1757 48.369 73.7219 42.2294 63.5768 42.1164L63.2573 42.1146C47.7863 42.1146 35.2436 54.5993 35.2436 69.9997C35.2436 75.0359 36.5925 79.7568 38.9382 83.8343C43.7669 92.2256 52.8443 97.8854 63.2573 97.8854C73.7345 97.8854 82.8636 92.1537 87.6678 83.6727L88 83L112 97C102.374 113.582 84.4534 125.773 63.8839 125.997L63.2573 126C42.3803 126 24.1585 114.68 14.4508 97.8682C9.71162 89.661 7 80.146 7 69.9997C7 39.0723 32.1867 14 63.2573 14Z" fill="white"/>
<path d="M109.667 66.3331H103.444V60H97.2226V66.3331H91V72.6663H97.2226V79H103.444V72.6663H109.667V66.3331Z" fill="white"/>
<path d="M133 66.3331H126.777V60H120.556V66.3331H114.333V72.6663H120.556V79H126.777V72.6663H133V66.3331Z" fill="white"/>
</g>
<defs>
<clipPath id="clip0_75_5">
<rect width="140" height="140" rx="20" fill="white"/>
</clipPath>
</defs>
</svg>
