<svg width="255" height="140" viewBox="0 0 255 140" fill="none" xmlns="http://www.w3.org/2000/svg">
<g clip-path="url(#clip0_41_29)">
<rect width="255" height="140" rx="20" fill="#390091"/>
<path d="M196 0L76 69.9998L196 140V0Z" fill="#390091"/>
<path d="M196 140L76 69.9998L0 114.5L0 140H196Z" fill="#280068"/>
<path d="M76 69.9998L196 0L0 0L0 114.5L76 69.9998Z" fill="#A179DC"/>
<path d="M76.2573 14C97.0686 14 115.239 25.2509 124.971 41.9741L124.876 41.8131L100.39 55.8475C95.5659 47.7165 86.7219 42.2294 76.5768 42.1164L76.2573 42.1146C60.7863 42.1146 48.2436 54.5993 48.2436 69.9997C48.2436 75.0359 49.5925 79.7568 51.9382 83.8343C56.7669 92.2256 65.8443 97.8854 76.2573 97.8854C86.7345 97.8854 95.8636 92.1537 100.668 83.6727L100.551 83.8762L125 97.9753C115.375 114.557 97.4534 125.773 76.8839 125.997L76.2573 126C55.3803 126 37.1585 114.68 27.4508 97.8682C22.7116 89.661 20 80.146 20 69.9997C20 39.0723 45.1867 14 76.2573 14Z" fill="white"/>
<path d="M121 54V62H129V54H133V62H141V66H133V74H141V78H133V86H129V78H121V86H117V78H109V74H117V66H109V62H117V54H121ZM129 66H121V74H129V66Z" fill="white"/>
<path d="M202.721 64.7305H195.721C195.593 63.8249 195.332 63.0206 194.938 62.3175C194.544 61.6037 194.038 60.9964 193.42 60.4957C192.802 59.995 192.088 59.6115 191.279 59.3452C190.48 59.0788 189.612 58.9457 188.674 58.9457C186.98 58.9457 185.505 59.3665 184.248 60.2081C182.99 61.0391 182.016 62.2536 181.323 63.8516C180.631 65.4389 180.284 67.3672 180.284 69.6364C180.284 71.9695 180.631 73.9297 181.323 75.517C182.026 77.1044 183.006 78.3029 184.263 79.1126C185.521 79.9222 186.975 80.3271 188.626 80.3271C189.553 80.3271 190.411 80.2045 191.199 79.9595C191.998 79.7145 192.706 79.3576 193.324 78.8888C193.942 78.4094 194.453 77.8288 194.858 77.147C195.274 76.4652 195.561 75.6875 195.721 74.8139L202.721 74.8459C202.539 76.348 202.087 77.7969 201.362 79.1925C200.648 80.5774 199.684 81.8185 198.47 82.9158C197.266 84.0025 195.828 84.8654 194.155 85.5046C192.493 86.1332 190.613 86.4474 188.514 86.4474C185.595 86.4474 182.985 85.7869 180.684 84.4659C178.393 83.1449 176.582 81.2326 175.251 78.729C173.93 76.2255 173.269 73.1946 173.269 69.6364C173.269 66.0675 173.94 63.0312 175.283 60.5277C176.625 58.0241 178.447 56.1172 180.748 54.8068C183.049 53.4858 185.638 52.8253 188.514 52.8253C190.411 52.8253 192.168 53.0916 193.788 53.6243C195.418 54.157 196.861 54.9347 198.118 55.9574C199.375 56.9695 200.398 58.2106 201.186 59.6808C201.985 61.1509 202.497 62.8342 202.721 64.7305ZM219.955 86L225.324 53.2727H230.438L225.069 86H219.955ZM205.301 77.8821L206.148 72.7685H231.716L230.869 77.8821H205.301ZM208.449 86L213.819 53.2727H218.932L213.563 86H208.449ZM207.171 66.5043L208.034 61.3906H233.602L232.739 66.5043H207.171Z" fill="white"/>
</g>
<defs>
<clipPath id="clip0_41_29">
<rect width="255" height="140" rx="20" fill="white"/>
</clipPath>
</defs>
</svg>
