<svg width="140" height="140" viewBox="0 0 140 140" fill="none" xmlns="http://www.w3.org/2000/svg">
<rect width="140" height="140" rx="20" fill="#006FB9"/>
<path d="M70.0525 20H69.9913H25.772L27.3772 37.6592H70.0525V20Z" fill="#EBEBEB"/>
<path d="M70.0524 119.977V101.605L69.975 101.625L50.308 96.3146L49.0508 82.2307H31.3239L33.7979 109.958L69.9711 120L70.0524 119.977Z" fill="#EBEBEB"/>
<path d="M28.9522 55.7426L30.5348 73.4016H70.0523V55.7426H28.9522Z" fill="#EBEBEB"/>
<path d="M91.7366 73.4012L89.6868 96.3036L69.9914 101.62V119.992L106.193 109.958L110.609 60.4843L111.04 55.7424L114.228 20H69.9913L69.9914 37.6592H94.8749L93.2681 55.7424H69.9914V73.4012H91.7366Z" fill="white"/>
</svg>
