<svg width="252" height="140" viewBox="0 0 252 140" fill="none" xmlns="http://www.w3.org/2000/svg">
<rect width="251.456" height="140" rx="20" fill="#006FB9"/>
<path d="M64.2805 20H64.2194H20L21.6052 37.6592H64.2805V20Z" fill="#EBEBEB"/>
<path d="M64.2804 119.977V101.605L64.203 101.625L44.5361 96.3146L43.2788 82.2307H25.5519L28.0259 109.958L64.1991 120L64.2804 119.977Z" fill="#EBEBEB"/>
<path d="M23.1802 55.7426L24.7628 73.4016H64.2803V55.7426H23.1802Z" fill="#EBEBEB"/>
<path d="M85.9646 73.4012L83.9149 96.3036L64.2195 101.62V119.992L100.421 109.958L104.837 60.4843L105.268 55.7424L108.456 20H64.2194L64.2195 37.6592H89.1029L87.4961 55.7424H64.2195V73.4012H85.9646Z" fill="white"/>
<path d="M170.176 64.7305H163.177C163.049 63.8249 162.788 63.0206 162.394 62.3175C162 61.6037 161.494 60.9964 160.876 60.4957C160.258 59.995 159.544 59.6115 158.734 59.3452C157.935 59.0788 157.067 58.9457 156.13 58.9457C154.436 58.9457 152.96 59.3665 151.703 60.2081C150.446 61.0391 149.471 62.2536 148.779 63.8516C148.086 65.4389 147.74 67.3672 147.74 69.6364C147.74 71.9695 148.086 73.9297 148.779 75.517C149.482 77.1044 150.462 78.3029 151.719 79.1126C152.976 79.9222 154.43 80.3271 156.082 80.3271C157.008 80.3271 157.866 80.2045 158.654 79.9595C159.453 79.7145 160.162 79.3576 160.78 78.8888C161.398 78.4094 161.909 77.8288 162.314 77.147C162.729 76.4652 163.017 75.6875 163.177 74.8139L170.176 74.8459C169.995 76.348 169.542 77.7969 168.818 79.1925C168.104 80.5774 167.14 81.8185 165.925 82.9158C164.722 84.0025 163.283 84.8654 161.611 85.5046C159.949 86.1332 158.068 86.4474 155.97 86.4474C153.051 86.4474 150.441 85.7869 148.14 84.4659C145.849 83.1449 144.038 81.2326 142.706 78.729C141.385 76.2255 140.725 73.1946 140.725 69.6364C140.725 66.0675 141.396 63.0312 142.738 60.5277C144.081 58.0241 145.902 56.1172 148.203 54.8068C150.505 53.4858 153.093 52.8253 155.97 52.8253C157.866 52.8253 159.624 53.0916 161.243 53.6243C162.873 54.157 164.317 54.9347 165.574 55.9574C166.831 56.9695 167.854 58.2106 168.642 59.6808C169.441 61.1509 169.952 62.8342 170.176 64.7305ZM192.892 62.685C192.764 61.396 192.215 60.3945 191.246 59.6808C190.276 58.967 188.961 58.6101 187.299 58.6101C186.17 58.6101 185.216 58.7699 184.438 59.0895C183.661 59.3984 183.064 59.8299 182.649 60.3839C182.244 60.9379 182.041 61.5664 182.041 62.2695C182.02 62.8555 182.143 63.3668 182.409 63.8036C182.686 64.2404 183.064 64.6186 183.543 64.9382C184.023 65.2472 184.577 65.5188 185.205 65.7532C185.834 65.9769 186.505 66.1687 187.219 66.3285L190.159 67.0316C191.587 67.3512 192.897 67.7773 194.09 68.31C195.284 68.8427 196.317 69.4979 197.19 70.2756C198.064 71.0533 198.741 71.9695 199.22 73.0241C199.71 74.0788 199.96 75.288 199.971 76.6516C199.96 78.6545 199.449 80.391 198.437 81.8612C197.436 83.3207 195.987 84.4553 194.09 85.2649C192.205 86.0639 189.93 86.4634 187.267 86.4634C184.625 86.4634 182.324 86.0586 180.363 85.2489C178.414 84.4393 176.89 83.2408 175.793 81.6534C174.706 80.0554 174.136 78.0792 174.083 75.7248H180.779C180.853 76.8221 181.168 77.7383 181.722 78.4734C182.286 79.1978 183.037 79.7464 183.975 80.1193C184.923 80.4815 185.994 80.6626 187.187 80.6626C188.359 80.6626 189.376 80.4922 190.239 80.1513C191.113 79.8104 191.789 79.3363 192.269 78.729C192.748 78.1218 192.988 77.424 192.988 76.6357C192.988 75.9006 192.769 75.2827 192.333 74.782C191.906 74.2812 191.278 73.8551 190.447 73.5036C189.627 73.152 188.62 72.8324 187.427 72.5447L183.863 71.6499C181.104 70.9787 178.925 69.9293 177.327 68.5018C175.729 67.0742 174.936 65.1513 174.946 62.733C174.936 60.7514 175.463 59.0202 176.528 57.5394C177.604 56.0586 179.08 54.9027 180.955 54.0717C182.83 53.2408 184.96 52.8253 187.347 52.8253C189.776 52.8253 191.896 53.2408 193.707 54.0717C195.529 54.9027 196.945 56.0586 197.958 57.5394C198.97 59.0202 199.492 60.7354 199.524 62.685H192.892ZM222.379 62.685C222.251 61.396 221.703 60.3945 220.733 59.6808C219.764 58.967 218.448 58.6101 216.786 58.6101C215.657 58.6101 214.703 58.7699 213.926 59.0895C213.148 59.3984 212.551 59.8299 212.136 60.3839C211.731 60.9379 211.529 61.5664 211.529 62.2695C211.507 62.8555 211.63 63.3668 211.896 63.8036C212.173 64.2404 212.551 64.6186 213.031 64.9382C213.51 65.2472 214.064 65.5188 214.693 65.7532C215.321 65.9769 215.992 66.1687 216.706 66.3285L219.647 67.0316C221.074 67.3512 222.384 67.7773 223.578 68.31C224.771 68.8427 225.804 69.4979 226.678 70.2756C227.551 71.0533 228.228 71.9695 228.707 73.0241C229.197 74.0788 229.448 75.288 229.458 76.6516C229.448 78.6545 228.936 80.391 227.924 81.8612C226.923 83.3207 225.474 84.4553 223.578 85.2649C221.692 86.0639 219.417 86.4634 216.754 86.4634C214.112 86.4634 211.811 86.0586 209.851 85.2489C207.901 84.4393 206.378 83.2408 205.28 81.6534C204.194 80.0554 203.624 78.0792 203.571 75.7248H210.266C210.341 76.8221 210.655 77.7383 211.209 78.4734C211.774 79.1978 212.525 79.7464 213.462 80.1193C214.41 80.4815 215.481 80.6626 216.674 80.6626C217.846 80.6626 218.864 80.4922 219.726 80.1513C220.6 79.8104 221.277 79.3363 221.756 78.729C222.235 78.1218 222.475 77.424 222.475 76.6357C222.475 75.9006 222.257 75.2827 221.82 74.782C221.394 74.2812 220.765 73.8551 219.934 73.5036C219.114 73.152 218.107 72.8324 216.914 72.5447L213.35 71.6499C210.591 70.9787 208.413 69.9293 206.814 68.5018C205.216 67.0742 204.423 65.1513 204.433 62.733C204.423 60.7514 204.95 59.0202 206.015 57.5394C207.091 56.0586 208.567 54.9027 210.442 54.0717C212.317 53.2408 214.448 52.8253 216.834 52.8253C219.263 52.8253 221.383 53.2408 223.194 54.0717C225.016 54.9027 226.433 56.0586 227.445 57.5394C228.457 59.0202 228.979 60.7354 229.011 62.685H222.379Z" fill="white"/>
</svg>
