<svg width="140" height="140" viewBox="0 0 140 140" fill="none" xmlns="http://www.w3.org/2000/svg">
<rect width="140" height="140" rx="20" fill="#8866FF"/>
<path d="M105.957 79.697C105.399 79.5569 104.936 79.4168 104.518 79.228C104.209 79.0908 103.952 78.9277 103.726 78.7361C103.574 78.6103 103.511 78.413 103.528 78.2157C103.754 75.862 103.508 73.7858 103.729 71.4522C104.658 61.992 110.552 64.9891 115.844 63.4419C118.883 62.5783 121.921 60.8795 123.031 57.5336C123.211 56.9874 123.051 56.3925 122.673 55.9578C119.209 51.9798 115.369 48.4652 111.201 45.4538C97.2261 35.4102 79.0598 31.2406 62.3783 33.68C61.7489 33.7715 61.4171 34.4779 61.7604 35.0212C63.8745 38.3386 66.661 41.0554 69.8565 43.0544C70.4401 43.4176 70.2055 44.2012 69.539 44.0496C67.9712 43.695 65.9572 43.0029 64.0633 41.656C63.8803 41.5244 63.6457 41.493 63.4368 41.5759C62.59 41.9162 61.3684 42.4081 60.3586 42.8485C59.775 43.103 59.6577 43.858 60.1354 44.2784C68.5148 51.6081 80.7019 52.7234 90.2485 46.8551C90.8293 46.4976 91.759 47.2326 91.5731 47.8932C91.2727 48.9513 90.9208 50.407 90.5489 52.3888C88.183 64.4743 81.3599 63.5363 72.9119 60.4906C56.033 54.3163 46.4578 59.5898 37.9469 49.1515C37.3547 48.428 36.3133 48.1763 35.6096 48.7912C33.853 50.3269 32.8145 52.569 32.8145 54.9626C32.8145 57.8024 34.265 60.2332 36.4163 61.6889C36.6852 61.869 37.0428 61.7918 37.2431 61.5373C37.7666 60.8681 38.1957 60.422 38.7307 60.1417C39.3143 59.8357 39.6004 60.6794 39.1055 61.1198C37.2974 62.7356 36.7796 64.6602 35.5981 68.4552C33.7414 74.4035 34.531 80.4949 25.8513 82.0878C21.2568 82.3223 21.3512 85.4595 19.6776 90.1439C17.7408 95.7977 15.2004 98.3029 10.5001 103.245C9.85925 103.92 9.80489 105.001 10.5087 105.607C12.3882 107.223 14.3221 107.311 16.2904 106.493C21.1652 104.431 24.9244 98.0598 28.4518 93.9388C32.3968 89.3489 41.8633 91.3164 49.0097 86.8179C52.8661 84.4329 55.1805 81.3843 54.4395 76.8201C54.3222 76.0851 55.1547 75.6418 55.458 76.3225C56.0301 77.6122 56.4078 78.9907 56.5651 80.412C56.6052 80.7838 56.9342 81.0612 57.3061 81.0383C65.0389 80.6007 75.0003 89.4718 84.6012 91.5166C85.1677 91.6596 85.7227 90.9418 85.3994 90.447C84.8101 89.5376 84.4382 88.2793 84.3008 87.7073C84.1635 87.1354 84.9789 86.4547 86.0917 87.7073C88.7637 90.7158 92.7031 93.1038 97.6952 93.4698C99.9696 93.6586 102.476 93.3754 105.076 92.5804C108.186 91.6424 111.064 90.4241 114.497 91.0819C117.049 91.5509 119.417 92.8607 120.902 95.0627C122.985 98.1313 127.385 98.9435 129.731 95.7376C130.048 95.3001 130.074 94.7167 129.865 94.2191C124.701 82.0049 111.593 81.167 105.957 79.697Z" fill="white"/>
</svg>
