<svg width="140" height="140" viewBox="0 0 140 140" fill="none" xmlns="http://www.w3.org/2000/svg">
<rect width="140" height="140" rx="20" fill="#0C4B33"/>
<path d="M66.0631 20H82.4369V95.046C74.0499 96.6325 67.8757 97.2567 61.1954 97.2567C41.1972 97.2358 30.7871 88.3015 30.7871 71.1427C30.7871 54.61 41.8293 43.8804 58.9406 43.8804C61.5958 43.8804 63.6187 44.0894 66.0631 44.7154V20ZM66.6369 58.2396C64.7192 57.6133 63.139 57.4045 61.1158 57.4045C52.8343 57.4045 48.0508 62.4561 48.0508 71.3089C48.0508 79.9281 52.6238 84.6874 61.0107 84.6874C62.8227 84.6874 64.2979 84.5854 66.6369 84.2722V58.2396Z" fill="white"/>
<path d="M109.213 45.8952V83.4698C109.213 96.4097 108.243 102.632 105.398 107.997C102.743 113.155 99.245 116.408 92.0171 120L76.8236 112.84C84.0515 109.481 87.5494 106.513 89.7835 101.983C92.1222 97.3513 92.8597 91.9863 92.8597 77.8753V45.8955L109.213 45.8952ZM91.2098 20H107.583V36.6371H91.2098V20Z" fill="white"/>
</svg>
