<svg width="328" height="140" viewBox="0 0 328 140" fill="none" xmlns="http://www.w3.org/2000/svg">
<rect width="328" height="140" rx="20" fill="#2496ED"/>
<path d="M119.014 61.2093C118.743 60.9939 116.211 59.0822 110.871 59.0822C109.461 59.0884 108.055 59.2093 106.664 59.4438C105.631 52.3607 99.7749 48.9073 99.5123 48.7524L98.0786 47.9255L97.1356 49.2863C95.9547 51.1142 95.0926 53.1292 94.5865 55.2456C93.6305 59.2889 94.2119 63.0866 96.2658 66.3333C93.7856 67.7154 89.807 68.0557 89.0018 68.0857H23.1303C21.4097 68.0881 20.0136 69.4785 20.0042 71.1989C19.9274 76.9696 20.9051 82.7059 22.8891 88.1253C25.1583 94.0761 28.5342 98.4595 32.9262 101.142C37.8479 104.156 45.8439 105.878 54.9078 105.878C59.0024 105.891 63.0894 105.521 67.115 104.772C72.7111 103.744 78.0959 101.788 83.0468 98.9847C87.1262 96.6224 90.7977 93.6171 93.9192 90.0845C99.138 84.1768 102.247 77.5973 104.559 71.7501H105.48C111.194 71.7501 114.708 69.4636 116.646 67.5475C117.933 66.3255 118.939 64.8368 119.591 63.1857L120 61.9887L119.014 61.2093Z" fill="white"/>
<path d="M29.236 66.1568H38.0631C38.4888 66.1568 38.8338 65.8117 38.8338 65.3861V57.5234C38.8362 57.0977 38.493 56.7508 38.0674 56.7484H29.236C28.8102 56.7484 28.4653 57.0935 28.4653 57.5191V65.386C28.4653 65.8117 28.8102 66.1568 29.236 66.1568Z" fill="white"/>
<path d="M41.4002 66.1568H50.2273C50.653 66.1568 50.998 65.8117 50.998 65.3861V57.5234C51.0004 57.0977 50.6572 56.7508 50.2315 56.7484H41.4001C40.972 56.7484 40.625 57.0953 40.625 57.5234V65.386C40.6276 65.8124 40.9738 66.1568 41.4002 66.1568Z" fill="white"/>
<path d="M53.7494 66.1568H62.5765C63.0022 66.1568 63.3472 65.8117 63.3472 65.3861V57.5234C63.3496 57.0977 63.0064 56.7508 62.5807 56.7484H53.7493C53.3235 56.7484 52.9786 57.0935 52.9786 57.5191V65.386C52.9787 65.8117 53.3238 66.1568 53.7494 66.1568Z" fill="white"/>
<path d="M65.9523 66.1568H74.7794C75.2058 66.1568 75.5521 65.8125 75.5544 65.3861V57.5234C75.5544 57.0953 75.2075 56.7484 74.7794 56.7484H65.9523C65.5266 56.7484 65.1816 57.0935 65.1816 57.5191V65.386C65.1816 65.8117 65.5267 66.1568 65.9523 66.1568Z" fill="white"/>
<path d="M41.4002 54.8453H50.2273C50.6536 54.8429 50.998 54.4965 50.998 54.0702V46.2077C50.998 45.782 50.6529 45.437 50.2273 45.437H41.4002C40.9739 45.437 40.6275 45.7813 40.6252 46.2077V54.0702C40.6275 54.4974 40.9731 54.8429 41.4002 54.8453Z" fill="white"/>
<path d="M53.7494 54.8453H62.5765C63.0027 54.8429 63.3472 54.4965 63.3472 54.0702V46.2077C63.3472 45.782 63.002 45.437 62.5765 45.437H53.7494C53.3237 45.437 52.9787 45.7821 52.9787 46.2077V54.0702C52.9787 54.4965 53.3231 54.8429 53.7494 54.8453Z" fill="white"/>
<path d="M65.9523 54.8453H74.7794C75.2065 54.8429 75.5521 54.4974 75.5544 54.0702V46.2077C75.5521 45.7813 75.2058 45.437 74.7794 45.437H65.9523C65.5266 45.437 65.1816 45.7821 65.1816 46.2077V54.0702C65.1816 54.4965 65.526 54.8429 65.9523 54.8453Z" fill="white"/>
<path d="M65.9523 43.5295H74.7794C75.2058 43.5295 75.5521 43.1851 75.5544 42.7588V34.8918C75.5521 34.4654 75.2058 34.1211 74.7794 34.1211H65.9523C65.5266 34.1211 65.1816 34.4661 65.1816 34.8918V42.7587C65.1816 43.1844 65.5267 43.5295 65.9523 43.5295Z" fill="white"/>
<path d="M78.2629 66.1568H87.0899C87.5164 66.1568 87.8625 65.8125 87.865 65.3861V57.5234C87.865 57.0953 87.518 56.7484 87.0899 56.7484H78.2629C77.8373 56.7484 77.4922 57.0935 77.4922 57.5191V65.386C77.4922 65.8117 77.8373 66.1568 78.2629 66.1568Z" fill="white"/>
<path d="M164.446 86H152.844V53.2727H164.542C167.834 53.2727 170.668 53.9279 173.043 55.2383C175.419 56.538 177.246 58.4077 178.525 60.8473C179.814 63.2869 180.458 66.206 180.458 69.6044C180.458 73.0135 179.814 75.9432 178.525 78.3935C177.246 80.8437 175.408 82.7241 173.011 84.0344C170.625 85.3448 167.77 86 164.446 86ZM159.764 80.0714H164.158C166.204 80.0714 167.924 79.7092 169.32 78.9847C170.726 78.2496 171.781 77.1151 172.484 75.581C173.198 74.0362 173.555 72.044 173.555 69.6044C173.555 67.1861 173.198 65.2099 172.484 63.6758C171.781 62.1417 170.732 61.0124 169.336 60.288C167.94 59.5636 166.22 59.2013 164.174 59.2013H159.764V80.0714ZM196.546 86.4794C194.064 86.4794 191.917 85.9521 190.106 84.8974C188.306 83.832 186.915 82.3512 185.935 80.4549C184.955 78.5479 184.465 76.3374 184.465 73.8232C184.465 71.2876 184.955 69.0717 185.935 67.1754C186.915 65.2685 188.306 63.7876 190.106 62.733C191.917 61.6676 194.064 61.1349 196.546 61.1349C199.028 61.1349 201.17 61.6676 202.97 62.733C204.781 63.7876 206.177 65.2685 207.157 67.1754C208.137 69.0717 208.627 71.2876 208.627 73.8232C208.627 76.3374 208.137 78.5479 207.157 80.4549C206.177 82.3512 204.781 83.832 202.97 84.8974C201.17 85.9521 199.028 86.4794 196.546 86.4794ZM196.578 81.206C197.707 81.206 198.65 80.8864 199.407 80.2472C200.163 79.5973 200.733 78.7131 201.116 77.5945C201.511 76.4759 201.708 75.2028 201.708 73.7752C201.708 72.3477 201.511 71.0746 201.116 69.956C200.733 68.8374 200.163 67.9531 199.407 67.3033C198.65 66.6534 197.707 66.3285 196.578 66.3285C195.438 66.3285 194.479 66.6534 193.702 67.3033C192.935 67.9531 192.354 68.8374 191.96 69.956C191.576 71.0746 191.384 72.3477 191.384 73.7752C191.384 75.2028 191.576 76.4759 191.96 77.5945C192.354 78.7131 192.935 79.5973 193.702 80.2472C194.479 80.8864 195.438 81.206 196.578 81.206ZM224.144 86.4794C221.63 86.4794 219.467 85.9467 217.656 84.8814C215.855 83.8054 214.47 82.3139 213.501 80.407C212.542 78.5 212.063 76.3054 212.063 73.8232C212.063 71.3089 212.547 69.1037 213.517 67.2074C214.497 65.3004 215.887 63.8143 217.688 62.7489C219.488 61.6729 221.63 61.1349 224.112 61.1349C226.253 61.1349 228.128 61.5238 229.737 62.3015C231.345 63.0792 232.619 64.1712 233.556 65.5774C234.494 66.9837 235.01 68.6349 235.106 70.5312H228.682C228.501 69.3061 228.022 68.3207 227.244 67.5749C226.477 66.8185 225.47 66.4403 224.224 66.4403C223.169 66.4403 222.247 66.728 221.459 67.3033C220.681 67.8679 220.074 68.6935 219.637 69.7802C219.201 70.8668 218.982 72.1825 218.982 73.7273C218.982 75.2933 219.195 76.625 219.621 77.7223C220.058 78.8196 220.671 79.6559 221.459 80.2312C222.247 80.8065 223.169 81.0941 224.224 81.0941C225.001 81.0941 225.699 80.9343 226.317 80.6147C226.946 80.2951 227.462 79.8317 227.867 79.2244C228.283 78.6065 228.554 77.8661 228.682 77.0032H235.106C235 78.8782 234.488 80.5295 233.572 81.957C232.666 83.3739 231.415 84.4819 229.817 85.2809C228.219 86.0799 226.328 86.4794 224.144 86.4794ZM245.633 78.9368L245.649 70.771H246.64L254.502 61.4545H262.316L251.753 73.7912H250.139L245.633 78.9368ZM239.465 86V53.2727H246.272V86H239.465ZM254.806 86L247.583 75.3093L252.121 70.4993L262.78 86H254.806ZM275.831 86.4794C273.307 86.4794 271.133 85.968 269.312 84.9453C267.5 83.9119 266.105 82.4524 265.125 80.5668C264.145 78.6705 263.655 76.4279 263.655 73.8391C263.655 71.3143 264.145 69.0984 265.125 67.1914C266.105 65.2844 267.484 63.7983 269.264 62.733C271.053 61.6676 273.152 61.1349 275.56 61.1349C277.179 61.1349 278.687 61.396 280.082 61.918C281.488 62.4293 282.714 63.2017 283.758 64.2351C284.812 65.2685 285.633 66.5682 286.218 68.1342C286.804 69.6896 287.097 71.5114 287.097 73.5994V75.4691H266.371V71.2504H280.689C280.689 70.2702 280.476 69.402 280.05 68.6456C279.624 67.8892 279.033 67.2979 278.276 66.8718C277.531 66.435 276.662 66.2166 275.672 66.2166C274.638 66.2166 273.722 66.4563 272.923 66.9357C272.135 67.4045 271.517 68.0384 271.069 68.8374C270.622 69.6257 270.393 70.5046 270.382 71.4741V75.4851C270.382 76.6996 270.606 77.7489 271.053 78.6332C271.511 79.5174 272.156 80.1992 272.987 80.6786C273.818 81.158 274.803 81.3977 275.943 81.3977C276.7 81.3977 277.392 81.2912 278.021 81.0781C278.649 80.8651 279.187 80.5455 279.635 80.1193C280.082 79.6932 280.423 79.1712 280.657 78.5533L286.954 78.9688C286.634 80.4815 285.979 81.8026 284.988 82.9318C284.008 84.0504 282.74 84.924 281.185 85.5526C279.64 86.1705 277.856 86.4794 275.831 86.4794ZM291.54 86V61.4545H298.14V65.7372H298.395C298.843 64.2138 299.594 63.0632 300.649 62.2855C301.703 61.4972 302.918 61.103 304.292 61.103C304.633 61.103 305 61.1243 305.395 61.1669C305.789 61.2095 306.135 61.2681 306.433 61.3427V67.3832C306.114 67.2873 305.672 67.2021 305.107 67.1275C304.542 67.0529 304.026 67.0156 303.557 67.0156C302.555 67.0156 301.661 67.234 300.872 67.6708C300.095 68.0969 299.477 68.6935 299.019 69.4606C298.571 70.2276 298.347 71.1119 298.347 72.1133V86H291.54Z" fill="white"/>
</svg>
