<svg width="140" height="140" viewBox="0 0 140 140" fill="none" xmlns="http://www.w3.org/2000/svg">
<rect width="140" height="140" rx="20" fill="#121212"/>
<path d="M43.1612 69.2814C44.3247 67.2356 43.6118 64.645 41.569 63.4951C39.5261 62.3452 36.927 63.0715 35.7635 65.1173L22.1065 89.1317C20.943 91.1775 21.6559 93.7681 23.6987 94.918C25.7415 96.0679 28.3407 95.3416 29.5042 93.2958L43.1612 69.2814Z" fill="#C5F74F"/>
<path d="M72.5982 50.8683C73.7617 48.8225 73.0488 46.2319 71.006 45.082C68.9632 43.9322 66.364 44.6584 65.2005 46.7042L51.5435 70.7187C50.38 72.7644 51.0929 75.355 53.1357 76.5049C55.1786 77.6548 57.7777 76.9285 58.9412 74.8827L72.5982 50.8683Z" fill="#C5F74F"/>
<path d="M117.893 50.8702C119.057 48.8245 118.344 46.2339 116.301 45.084C114.258 43.9341 111.659 44.6604 110.496 46.7062L96.8386 70.7206C95.6752 72.7664 96.3881 75.357 98.4309 76.5069C100.474 77.6567 103.073 76.9305 104.236 74.8847L117.893 50.8702Z" fill="#C5F74F"/>
<path d="M88.4469 69.2814C89.6103 67.2356 88.8974 64.645 86.8546 63.4951C84.8118 62.3452 82.2126 63.0715 81.0492 65.1173L67.3921 89.1317C66.2287 91.1775 66.9416 93.7681 68.9844 94.918C71.0272 96.0679 73.6264 95.3416 74.7898 93.2958L88.4469 69.2814Z" fill="#C5F74F"/>
</svg>
