<svg width="211" height="140" viewBox="0 0 211 140" fill="none" xmlns="http://www.w3.org/2000/svg">
<rect width="211" height="140" rx="20" fill="#332E47"/>
<path d="M23.4766 90.5V50.5H50.4297V57.4727H31.9336V67.0039H49.043V73.9766H31.9336V83.5273H50.5078V90.5H23.4766ZM57.1533 90.5V50.5H83.6377V57.4727H65.6104V67.0039H81.8799V73.9766H65.6104V90.5H57.1533Z" fill="url(#paint0_linear_76_45)"/>
<path d="M126.932 65H123.409C123.201 63.9867 122.836 63.0966 122.315 62.3295C121.804 61.5625 121.179 60.9186 120.44 60.3977C119.711 59.8674 118.902 59.4697 118.011 59.2045C117.121 58.9394 116.193 58.8068 115.227 58.8068C113.466 58.8068 111.87 59.2519 110.44 60.142C109.02 61.0322 107.888 62.3438 107.045 64.0767C106.212 65.8097 105.795 67.9356 105.795 70.4545C105.795 72.9735 106.212 75.0994 107.045 76.8324C107.888 78.5653 109.02 79.8769 110.44 80.767C111.87 81.6572 113.466 82.1023 115.227 82.1023C116.193 82.1023 117.121 81.9697 118.011 81.7045C118.902 81.4394 119.711 81.0464 120.44 80.5256C121.179 79.9953 121.804 79.3466 122.315 78.5795C122.836 77.803 123.201 76.9129 123.409 75.9091H126.932C126.667 77.3958 126.184 78.7263 125.483 79.9006C124.782 81.0748 123.911 82.0739 122.869 82.8977C121.828 83.7121 120.658 84.3324 119.361 84.7585C118.073 85.1847 116.695 85.3977 115.227 85.3977C112.746 85.3977 110.54 84.7917 108.608 83.5795C106.676 82.3674 105.156 80.6439 104.048 78.4091C102.94 76.1742 102.386 73.5227 102.386 70.4545C102.386 67.3864 102.94 64.7348 104.048 62.5C105.156 60.2652 106.676 58.5417 108.608 57.3295C110.54 56.1174 112.746 55.5114 115.227 55.5114C116.695 55.5114 118.073 55.7244 119.361 56.1506C120.658 56.5767 121.828 57.2017 122.869 58.0256C123.911 58.84 124.782 59.8343 125.483 61.0085C126.184 62.1733 126.667 63.5038 126.932 65ZM141.033 85.4545C139.064 85.4545 137.335 84.9858 135.849 84.0483C134.371 83.1108 133.216 81.7992 132.383 80.1136C131.559 78.428 131.147 76.4583 131.147 74.2045C131.147 71.9318 131.559 69.9479 132.383 68.2528C133.216 66.5578 134.371 65.2415 135.849 64.304C137.335 63.3665 139.064 62.8977 141.033 62.8977C143.003 62.8977 144.727 63.3665 146.204 64.304C147.691 65.2415 148.846 66.5578 149.67 68.2528C150.503 69.9479 150.92 71.9318 150.92 74.2045C150.92 76.4583 150.503 78.428 149.67 80.1136C148.846 81.7992 147.691 83.1108 146.204 84.0483C144.727 84.9858 143.003 85.4545 141.033 85.4545ZM141.033 82.4432C142.53 82.4432 143.761 82.0597 144.727 81.2926C145.692 80.5256 146.407 79.517 146.871 78.267C147.335 77.017 147.567 75.6629 147.567 74.2045C147.567 72.7462 147.335 71.3873 146.871 70.1278C146.407 68.8684 145.692 67.8504 144.727 67.0739C143.761 66.2973 142.53 65.9091 141.033 65.9091C139.537 65.9091 138.306 66.2973 137.34 67.0739C136.374 67.8504 135.659 68.8684 135.195 70.1278C134.731 71.3873 134.499 72.7462 134.499 74.2045C134.499 75.6629 134.731 77.017 135.195 78.267C135.659 79.517 136.374 80.5256 137.34 81.2926C138.306 82.0597 139.537 82.4432 141.033 82.4432ZM156.037 85V63.1818H159.276V66.4773H159.503C159.901 65.3977 160.62 64.5218 161.662 63.8494C162.704 63.1771 163.878 62.8409 165.185 62.8409C165.431 62.8409 165.739 62.8456 166.108 62.8551C166.477 62.8646 166.757 62.8788 166.946 62.8977V66.3068C166.832 66.2784 166.572 66.2358 166.165 66.179C165.767 66.1127 165.346 66.0795 164.901 66.0795C163.84 66.0795 162.893 66.3021 162.06 66.7472C161.236 67.1828 160.582 67.7888 160.099 68.5653C159.626 69.3324 159.389 70.2083 159.389 71.1932V85H156.037ZM179.403 85.4545C177.301 85.4545 175.488 84.9905 173.963 84.0625C172.448 83.125 171.278 81.8182 170.455 80.142C169.64 78.4564 169.233 76.4962 169.233 74.2614C169.233 72.0265 169.64 70.0568 170.455 68.3523C171.278 66.6383 172.424 65.303 173.892 64.3466C175.369 63.3807 177.093 62.8977 179.062 62.8977C180.199 62.8977 181.321 63.0871 182.429 63.4659C183.537 63.8447 184.545 64.4602 185.455 65.3125C186.364 66.1553 187.088 67.2727 187.628 68.6648C188.168 70.0568 188.438 71.7708 188.438 73.8068V75.2273H171.619V72.3295H185.028C185.028 71.0985 184.782 70 184.29 69.0341C183.807 68.0682 183.116 67.3059 182.216 66.7472C181.326 66.1884 180.275 65.9091 179.062 65.9091C177.727 65.9091 176.572 66.2405 175.597 66.9034C174.631 67.5568 173.887 68.4091 173.366 69.4602C172.846 70.5114 172.585 71.6383 172.585 72.8409V74.7727C172.585 76.4205 172.869 77.8172 173.438 78.9631C174.015 80.0994 174.815 80.9659 175.838 81.5625C176.861 82.1496 178.049 82.4432 179.403 82.4432C180.284 82.4432 181.08 82.3201 181.79 82.0739C182.509 81.8182 183.13 81.4394 183.651 80.9375C184.171 80.4261 184.574 79.7917 184.858 79.0341L188.097 79.9432C187.756 81.0417 187.183 82.0076 186.378 82.8409C185.573 83.6648 184.579 84.3087 183.395 84.7727C182.211 85.2273 180.881 85.4545 179.403 85.4545Z" fill="white"/>
<defs>
<linearGradient id="paint0_linear_76_45" x1="86" y1="103.5" x2="7.88542" y2="83.2637" gradientUnits="userSpaceOnUse">
<stop stop-color="#E666CC"/>
<stop offset="1" stop-color="#9780E5"/>
</linearGradient>
</defs>
</svg>
