<svg width="140" height="140" viewBox="0 0 140 140" fill="none" xmlns="http://www.w3.org/2000/svg">
<rect width="140" height="140" rx="20" fill="#E8362D"/>
<path d="M35.9651 25.3805C36.7759 26.2138 36.764 27.5439 35.9762 28.3992C27.0804 38.057 22.2614 50.4842 22.2614 63.6955C22.2614 77.6086 27.6781 90.6519 37.4281 100.507C47.2503 110.362 60.2502 115.724 74.1168 115.724C87.2831 115.724 99.6681 110.825 109.293 101.956C110.148 101.169 111.471 101.159 112.301 101.972C113.148 102.801 113.158 104.168 112.291 104.975C101.872 114.679 88.42 120 74.1168 120C59.0946 120 45.011 114.131 34.4665 103.478C23.8499 92.8987 18 78.768 18 63.6955C18 49.3432 23.3043 35.8449 32.9777 25.3907C33.7809 24.5226 35.1404 24.533 35.9651 25.3805Z" fill="white"/>
<path d="M40.3889 43.1155C42.6999 42.5359 45.8775 42.6086 48.9829 43.0433C52.0099 43.4905 54.9547 44.1901 57.7954 45.1201C60.4173 45.9784 62.0556 48.5167 62.0556 51.2839C62.0556 56.7784 55.7183 60.3023 50.4027 58.9812C48.6324 58.5412 46.808 58.225 44.9387 58.0435C43.4221 57.8261 41.9774 58.9128 41.7607 60.6519C41.544 62.2461 42.7722 63.6957 44.3611 63.8406C50.4999 64.4203 56.1335 66.8112 60.7557 70.2894C69.4945 76.9561 74.6939 87.8982 73.5385 99.6373C73.3731 101.185 73.1027 102.702 72.7391 104.179C71.6898 108.442 67.3917 110.909 63.1192 109.959C62.882 109.906 62.6457 109.851 62.4103 109.796C61.7911 109.649 61.2042 109.391 60.6669 109.049C57.8424 107.252 57.1387 103.493 57.8788 100.221C58.1542 99.0029 58.2998 97.7417 58.2999 96.4493C58.2999 87.9962 52.1255 80.8397 44.0718 79.4327C44.0242 79.4244 43.9757 79.4203 43.9274 79.4203C42.844 79.2754 40.6777 79.0575 39.3056 78.6228C31.8667 76.2315 26.5221 69.2751 26.5221 61.0142C26.5221 56.3766 28.1831 52.1013 31.0719 48.8404C33.5275 46.0868 36.7056 44.0576 40.3889 43.1155Z" fill="white"/>
<path d="M76.4507 81.2894C76.2193 80.7522 76.6389 80.1449 77.2222 80.1449C86.2684 80.1449 94.684 86.0585 94.9009 95.1323C94.9114 95.57 94.9167 96.009 94.9167 96.4493C94.9167 98.1645 94.8289 99.8622 94.6706 101.533C94.3685 104.723 92.2768 107.462 89.2589 108.509C88.9896 108.603 88.7193 108.694 88.4484 108.783C87.2542 109.175 85.9705 109.168 84.7603 108.828L84.6203 108.789C81.0332 107.783 79.0412 104.011 79.3889 100.29C80.0609 93.581 78.9501 87.092 76.4507 81.2894Z" fill="white"/>
<path d="M44.7942 86.1593C48.7664 86.1593 52.0164 89.4202 52.0164 93.4057C52.0164 97.3912 48.7664 100.652 44.7942 100.652C40.8219 100.652 37.5719 97.3912 37.5719 93.4057C37.5719 89.4202 40.8219 86.1593 44.7942 86.1593Z" fill="white"/>
<path d="M110.193 80.1449C112.608 80.1449 114.716 81.8203 115.106 84.212C115.28 85.2827 115.092 86.3902 114.551 87.3295C113.006 90.0118 111.176 92.5327 109.115 94.8134C108.232 95.7898 106.962 96.3042 105.648 96.3042C102.912 96.3042 100.716 94.0751 100.491 91.3394C100.434 90.6448 100.365 89.9536 100.284 89.2659C99.7392 84.6247 103.104 80.1449 107.761 80.1449H110.193Z" fill="white"/>
<path d="M48.7739 23.4349C50.5617 22.3149 52.7109 21.9515 54.7827 22.3403C55.4314 22.4621 56.0773 22.5922 56.7203 22.7307C59.9111 23.4177 62.0556 26.3375 62.0556 29.612C62.0556 34.7695 56.8794 38.3581 51.8232 37.4286C49.8851 37.0723 47.9143 36.8102 45.9158 36.6473C43.2285 36.4283 41.0392 34.2564 41.0392 31.5512C41.0392 30.1921 41.5944 28.8853 42.6206 27.9981C44.5559 26.325 46.6119 24.7892 48.7739 23.4349Z" fill="white"/>
<path d="M70.8739 49.1605H70.7222V68.8375C70.7222 70.2575 71.8848 71.4239 73.3 71.4239H93.4927C93.3158 59.1258 83.2573 49.1605 70.8739 49.1605ZM70.8739 32.9321H70.7222V41.2999C87.3768 41.3759 100.923 54.8151 101.1 71.4239H109.743C109.591 50.1748 92.2291 32.9321 70.8739 32.9321ZM122 68.8629V51.0876C116.137 36.6849 104.335 25.2996 89.6513 20H73.3C71.8848 20 70.7222 21.1664 70.7222 22.5864V25.0968C96.3485 25.1728 117.198 45.8895 117.35 71.4493H119.422C120.863 71.4239 122 70.2829 122 68.8629ZM115.252 27.176C117.628 29.5596 120.054 32.5771 122 35.2395V22.5611C122.001 22.2245 121.936 21.891 121.808 21.5798C121.68 21.2686 121.492 20.9859 121.255 20.7479C121.017 20.5099 120.736 20.3213 120.425 20.1929C120.115 20.0646 119.783 19.999 119.447 20H106.432C109.465 22.1046 112.599 24.5135 115.252 27.176Z" fill="white"/>
</svg>
