<svg width="542" height="140" viewBox="0 0 542 140" fill="none" xmlns="http://www.w3.org/2000/svg">
<rect width="542" height="140" rx="20" fill="#E8362D"/>
<path d="M38.4545 23.2623C39.2874 24.1142 39.2752 25.4741 38.4659 26.3485C29.3277 36.2225 24.3775 48.9279 24.3775 62.435C24.3775 76.6595 29.9417 89.9949 39.9573 100.071C50.0471 110.146 63.4011 115.629 77.6455 115.629C91.1705 115.629 103.893 110.619 113.78 101.552C114.658 100.747 116.018 100.737 116.87 101.569C117.74 102.416 117.75 103.813 116.86 104.639C106.157 114.56 92.3383 120 77.6455 120C62.2141 120 47.7468 113.999 36.9151 103.109C26.0092 92.292 20 77.8449 20 62.435C20 47.7614 25.4488 33.9609 35.3857 23.2727C36.2108 22.3852 37.6073 22.3958 38.4545 23.2623Z" fill="white"/>
<path d="M42.9988 41.3943C45.3728 40.8017 48.637 40.8761 51.8269 41.3205C54.9364 41.7777 57.9614 42.493 60.8795 43.4438C63.5729 44.3213 65.2557 46.9164 65.2557 49.7456C65.2557 55.3631 58.7458 58.9658 53.2854 57.6152C51.4669 57.1653 49.5927 56.842 47.6726 56.6565C46.1146 56.4342 44.6306 57.5452 44.408 59.3233C44.1854 60.9532 45.4471 62.4352 47.0792 62.5834C53.3853 63.1761 59.1723 65.6205 63.9204 69.1766C72.8973 75.9925 78.2384 87.1796 77.0514 99.1814C76.8816 100.764 76.6038 102.315 76.2303 103.825C75.1524 108.183 70.7372 110.705 66.3483 109.734C66.1046 109.68 65.8619 109.624 65.6201 109.567C64.9841 109.417 64.3812 109.153 63.8292 108.804C60.9278 106.966 60.2049 103.124 60.9651 99.7781C61.2481 98.5329 61.3977 97.2435 61.3977 95.9221C61.3977 87.2797 55.0552 79.963 46.7821 78.5245C46.7331 78.516 46.6833 78.5118 46.6337 78.5118C45.5207 78.3637 43.2955 78.1409 41.886 77.6965C34.2444 75.2516 28.7542 68.1395 28.7542 59.6937C28.7543 54.9523 30.4605 50.5812 33.428 47.2474C35.9505 44.4321 39.2151 42.3574 42.9988 41.3943Z" fill="white"/>
<path d="M80.043 80.4228C79.8053 79.8735 80.2363 79.2527 80.8355 79.2527C90.1281 79.2527 98.773 85.2987 98.9958 94.5756C99.0066 95.0231 99.012 95.4719 99.012 95.9221C99.012 97.6757 98.9218 99.4113 98.7592 101.12C98.449 104.381 96.3002 107.181 93.2002 108.252C92.9234 108.347 92.6458 108.441 92.3676 108.532C91.1408 108.933 89.8221 108.925 88.579 108.578L88.4351 108.538C84.7503 107.509 82.7041 103.653 83.0612 99.8485C83.7515 92.9895 82.6105 86.3553 80.043 80.4228Z" fill="white"/>
<path d="M47.5241 85.4017C51.6045 85.4017 54.943 88.7356 54.9431 92.8103C54.9431 96.885 51.6045 100.219 47.5241 100.219C43.4436 100.219 40.1051 96.885 40.1051 92.8103C40.1051 88.7356 43.4437 85.4017 47.5241 85.4017Z" fill="white"/>
<path d="M114.704 79.2527C117.185 79.2527 119.351 80.9656 119.751 83.4108C119.93 84.5055 119.737 85.6378 119.182 86.5981C117.594 89.3404 115.715 91.9178 113.597 94.2495C112.69 95.2479 111.386 95.7737 110.036 95.7737C107.225 95.7737 104.969 93.4947 104.738 90.6977C104.679 89.9876 104.608 89.281 104.526 88.5778C103.966 83.8328 107.422 79.2527 112.206 79.2527H114.704Z" fill="white"/>
<path d="M51.6122 21.2731C53.4488 20.1281 55.6565 19.7565 57.7847 20.154C58.4511 20.2785 59.1146 20.4116 59.7751 20.5531C63.0529 21.2556 65.2557 24.2407 65.2557 27.5885C65.2557 32.8615 59.9385 36.5304 54.7446 35.5801C52.7537 35.2158 50.7293 34.9479 48.6763 34.7813C45.9158 34.5574 43.6668 32.3369 43.6668 29.5711C43.6668 28.1816 44.2372 26.8455 45.2913 25.9385C47.2794 24.2279 49.3914 22.6577 51.6122 21.2731Z" fill="white"/>
<path d="M116.323 59.4964C116.323 56.8369 114.164 54.6809 111.501 54.6809C108.837 54.6809 106.678 56.8369 106.678 59.4964C106.678 62.156 108.837 64.312 111.501 64.312C114.164 64.312 116.323 62.156 116.323 59.4964ZM123 59.4964C123 65.8385 117.852 70.9798 111.501 70.9798C105.15 70.9798 100.001 65.8385 100.001 59.4964C100.001 53.1544 105.15 48.0131 111.501 48.0131C117.852 48.0131 123 53.1544 123 59.4964Z" fill="white"/>
<path d="M89.12 32.3316C89.12 29.672 86.961 27.516 84.2977 27.516C81.6344 27.516 79.4754 29.672 79.4754 32.3316C79.4754 34.9912 81.6344 37.1472 84.2977 37.1472C86.961 37.1472 89.12 34.9912 89.12 32.3316ZM95.7971 32.3316C95.7971 38.6736 90.6487 43.8149 84.2977 43.8149C77.9468 43.8149 72.7983 38.6736 72.7983 32.3316C72.7983 25.9895 77.9468 20.8482 84.2977 20.8482C90.6487 20.8482 95.7971 25.9895 95.7971 32.3316Z" fill="white"/>
<path d="M120.28 32.3316C120.28 30.4903 118.785 28.9977 116.941 28.9977H95.305C95.625 30.0528 95.7971 31.1721 95.7971 32.3316C95.7971 33.491 95.625 34.6103 95.305 35.6654H116.941C118.785 35.6654 120.28 34.1728 120.28 32.3316Z" fill="white"/>
<path d="M78.8571 62.8303H100.493C100.173 61.7752 100.001 60.6559 100.001 59.4964C100.001 58.337 100.173 57.2177 100.493 56.1626H78.8571C77.0133 56.1626 75.5186 57.6552 75.5186 59.4964C75.5186 61.3377 77.0133 62.8303 78.8571 62.8303Z" fill="white"/>
<path d="M155.844 86V53.2727H177.897V58.9776H162.764V66.7759H176.762V72.4808H162.764V80.2951H177.961V86H155.844ZM201.152 62.685C201.024 61.396 200.476 60.3945 199.506 59.6808C198.537 58.967 197.221 58.6101 195.559 58.6101C194.43 58.6101 193.476 58.7699 192.699 59.0895C191.921 59.3984 191.324 59.8299 190.909 60.3839C190.504 60.9379 190.302 61.5664 190.302 62.2695C190.28 62.8555 190.403 63.3668 190.669 63.8036C190.946 64.2404 191.324 64.6186 191.804 64.9382C192.283 65.2472 192.837 65.5188 193.466 65.7532C194.094 65.9769 194.765 66.1687 195.479 66.3285L198.419 67.0316C199.847 67.3512 201.157 67.7773 202.351 68.31C203.544 68.8427 204.577 69.4979 205.451 70.2756C206.324 71.0533 207.001 71.9695 207.48 73.0241C207.97 74.0788 208.221 75.288 208.231 76.6516C208.221 78.6545 207.709 80.391 206.697 81.8612C205.696 83.3207 204.247 84.4553 202.351 85.2649C200.465 86.0639 198.19 86.4634 195.527 86.4634C192.885 86.4634 190.584 86.0586 188.624 85.2489C186.674 84.4393 185.151 83.2408 184.053 81.6534C182.967 80.0554 182.397 78.0792 182.343 75.7248H189.039C189.114 76.8221 189.428 77.7383 189.982 78.4734C190.547 79.1978 191.298 79.7464 192.235 80.1193C193.183 80.4815 194.254 80.6626 195.447 80.6626C196.619 80.6626 197.636 80.4922 198.499 80.1513C199.373 79.8104 200.049 79.3363 200.529 78.729C201.008 78.1218 201.248 77.424 201.248 76.6357C201.248 75.9006 201.03 75.2827 200.593 74.782C200.167 74.2812 199.538 73.8551 198.707 73.5036C197.887 73.152 196.88 72.8324 195.687 72.5447L192.123 71.6499C189.364 70.9787 187.185 69.9293 185.587 68.5018C183.989 67.0742 183.196 65.1513 183.206 62.733C183.196 60.7514 183.723 59.0202 184.788 57.5394C185.864 56.0586 187.34 54.9027 189.215 54.0717C191.09 53.2408 193.221 52.8253 195.607 52.8253C198.036 52.8253 200.156 53.2408 201.967 54.0717C203.789 54.9027 205.206 56.0586 206.218 57.5394C207.23 59.0202 207.752 60.7354 207.784 62.685H201.152ZM212.885 86V53.2727H225.797C228.28 53.2727 230.394 53.7468 232.142 54.695C233.889 55.6325 235.22 56.9375 236.137 58.6101C237.063 60.272 237.527 62.1896 237.527 64.3629C237.527 66.5362 237.058 68.4538 236.121 70.1158C235.183 71.7777 233.825 73.0721 232.046 73.9989C230.277 74.9258 228.136 75.3892 225.622 75.3892H217.392V69.8441H224.503C225.835 69.8441 226.932 69.6151 227.795 69.157C228.669 68.6882 229.318 68.0437 229.744 67.2234C230.181 66.3924 230.4 65.4389 230.4 64.3629C230.4 63.2763 230.181 62.3281 229.744 61.5185C229.318 60.6982 228.669 60.0643 227.795 59.6168C226.921 59.1587 225.813 58.9297 224.471 58.9297H219.805V86H212.885ZM281.312 64.7305H274.313C274.185 63.8249 273.924 63.0206 273.53 62.3175C273.136 61.6037 272.63 60.9964 272.012 60.4957C271.394 59.995 270.68 59.6115 269.871 59.3452C269.072 59.0788 268.203 58.9457 267.266 58.9457C265.572 58.9457 264.096 59.3665 262.839 60.2081C261.582 61.0391 260.607 62.2536 259.915 63.8516C259.222 65.4389 258.876 67.3672 258.876 69.6364C258.876 71.9695 259.222 73.9297 259.915 75.517C260.618 77.1044 261.598 78.3029 262.855 79.1126C264.112 79.9222 265.567 80.3271 267.218 80.3271C268.145 80.3271 269.002 80.2045 269.791 79.9595C270.59 79.7145 271.298 79.3576 271.916 78.8888C272.534 78.4094 273.045 77.8288 273.45 77.147C273.866 76.4652 274.153 75.6875 274.313 74.8139L281.312 74.8459C281.131 76.348 280.678 77.7969 279.954 79.1925C279.24 80.5774 278.276 81.8185 277.062 82.9158C275.858 84.0025 274.42 84.8654 272.747 85.5046C271.085 86.1332 269.205 86.4474 267.106 86.4474C264.187 86.4474 261.577 85.7869 259.276 84.4659C256.985 83.1449 255.174 81.2326 253.843 78.729C252.521 76.2255 251.861 73.1946 251.861 69.6364C251.861 66.0675 252.532 63.0312 253.874 60.5277C255.217 58.0241 257.039 56.1172 259.34 54.8068C261.641 53.4858 264.23 52.8253 267.106 52.8253C269.002 52.8253 270.76 53.0916 272.379 53.6243C274.009 54.157 275.453 54.9347 276.71 55.9574C277.967 56.9695 278.99 58.2106 279.778 59.6808C280.577 61.1509 281.089 62.8342 281.312 64.7305ZM297.237 86.4794C294.754 86.4794 292.608 85.9521 290.797 84.8974C288.996 83.832 287.606 82.3512 286.626 80.4549C285.646 78.5479 285.156 76.3374 285.156 73.8232C285.156 71.2876 285.646 69.0717 286.626 67.1754C287.606 65.2685 288.996 63.7876 290.797 62.733C292.608 61.6676 294.754 61.1349 297.237 61.1349C299.719 61.1349 301.86 61.6676 303.661 62.733C305.472 63.7876 306.867 65.2685 307.847 67.1754C308.827 69.0717 309.317 71.2876 309.317 73.8232C309.317 76.3374 308.827 78.5479 307.847 80.4549C306.867 82.3512 305.472 83.832 303.661 84.8974C301.86 85.9521 299.719 86.4794 297.237 86.4794ZM297.268 81.206C298.398 81.206 299.341 80.8864 300.097 80.2472C300.853 79.5973 301.423 78.7131 301.807 77.5945C302.201 76.4759 302.398 75.2028 302.398 73.7752C302.398 72.3477 302.201 71.0746 301.807 69.956C301.423 68.8374 300.853 67.9531 300.097 67.3033C299.341 66.6534 298.398 66.3285 297.268 66.3285C296.129 66.3285 295.17 66.6534 294.392 67.3033C293.625 67.9531 293.044 68.8374 292.65 69.956C292.267 71.0746 292.075 72.3477 292.075 73.7752C292.075 75.2028 292.267 76.4759 292.65 77.5945C293.044 78.7131 293.625 79.5973 294.392 80.2472C295.17 80.8864 296.129 81.206 297.268 81.206ZM313.744 86V61.4545H320.232V65.7852H320.52C321.031 64.3469 321.883 63.2124 323.076 62.3814C324.27 61.5504 325.697 61.1349 327.359 61.1349C329.042 61.1349 330.475 61.5558 331.658 62.3974C332.84 63.2283 333.629 64.3576 334.023 65.7852H334.278C334.779 64.3789 335.685 63.255 336.995 62.4134C338.316 61.5611 339.877 61.1349 341.677 61.1349C343.968 61.1349 345.827 61.8647 347.254 63.3242C348.692 64.7731 349.412 66.8292 349.412 69.4925V86H342.62V70.8349C342.62 69.4712 342.258 68.4485 341.533 67.7667C340.809 67.0849 339.903 66.744 338.817 66.744C337.581 66.744 336.617 67.1381 335.924 67.9265C335.232 68.7042 334.886 69.7322 334.886 71.0107V86H328.286V70.6911C328.286 69.4872 327.94 68.5284 327.247 67.8146C326.565 67.1009 325.665 66.744 324.547 66.744C323.79 66.744 323.108 66.9357 322.501 67.3192C321.904 67.6921 321.43 68.2195 321.079 68.9013C320.727 69.5724 320.551 70.3608 320.551 71.2663V86H313.744ZM354.789 86V61.4545H361.277V65.7852H361.564C362.076 64.3469 362.928 63.2124 364.121 62.3814C365.314 61.5504 366.742 61.1349 368.404 61.1349C370.087 61.1349 371.52 61.5558 372.703 62.3974C373.885 63.2283 374.673 64.3576 375.068 65.7852H375.323C375.824 64.3789 376.73 63.255 378.04 62.4134C379.361 61.5611 380.922 61.1349 382.722 61.1349C385.013 61.1349 386.872 61.8647 388.299 63.3242C389.737 64.7731 390.457 66.8292 390.457 69.4925V86H383.665V70.8349C383.665 69.4712 383.303 68.4485 382.578 67.7667C381.854 67.0849 380.948 66.744 379.862 66.744C378.626 66.744 377.662 67.1381 376.969 67.9265C376.277 68.7042 375.931 69.7322 375.931 71.0107V86H369.331V70.6911C369.331 69.4872 368.985 68.5284 368.292 67.8146C367.61 67.1009 366.71 66.744 365.591 66.744C364.835 66.744 364.153 66.9357 363.546 67.3192C362.949 67.6921 362.475 68.2195 362.124 68.9013C361.772 69.5724 361.596 70.3608 361.596 71.2663V86H354.789ZM402.833 86.4634C401.267 86.4634 399.871 86.1918 398.646 85.6484C397.421 85.0945 396.452 84.2795 395.738 83.2035C395.035 82.1168 394.683 80.7638 394.683 79.1445C394.683 77.7809 394.934 76.6357 395.434 75.7088C395.935 74.782 396.617 74.0362 397.48 73.4716C398.343 72.907 399.323 72.4808 400.42 72.1932C401.528 71.9055 402.689 71.7031 403.904 71.5859C405.331 71.4368 406.482 71.2983 407.355 71.1705C408.229 71.032 408.863 70.8295 409.257 70.5632C409.651 70.2969 409.848 69.9027 409.848 69.3807V69.2848C409.848 68.2727 409.529 67.4897 408.89 66.9357C408.261 66.3817 407.366 66.1048 406.205 66.1048C404.98 66.1048 404.005 66.3764 403.281 66.9197C402.556 67.4524 402.077 68.1236 401.842 68.9332L395.546 68.4219C395.866 66.9304 396.494 65.6413 397.432 64.5547C398.369 63.4574 399.578 62.6158 401.059 62.0298C402.551 61.4332 404.277 61.1349 406.237 61.1349C407.6 61.1349 408.906 61.2947 410.152 61.6143C411.409 61.9339 412.522 62.4293 413.492 63.1005C414.472 63.7717 415.244 64.6346 415.809 65.6893C416.374 66.7333 416.656 67.9851 416.656 69.4446V86H410.2V82.5962H410.008C409.614 83.3633 409.087 84.0398 408.426 84.6257C407.766 85.201 406.972 85.6538 406.045 85.984C405.118 86.3036 404.048 86.4634 402.833 86.4634ZM404.783 81.7653C405.784 81.7653 406.668 81.5682 407.435 81.174C408.202 80.7692 408.804 80.2259 409.241 79.544C409.678 78.8622 409.896 78.0898 409.896 77.2269V74.6222C409.683 74.7607 409.39 74.8885 409.017 75.0057C408.655 75.1122 408.245 75.2134 407.787 75.3093C407.329 75.3945 406.871 75.4744 406.413 75.549C405.955 75.6129 405.539 75.6715 405.166 75.7248C404.367 75.842 403.669 76.0284 403.073 76.2841C402.476 76.5398 402.013 76.886 401.683 77.3228C401.352 77.7489 401.187 78.2816 401.187 78.9208C401.187 79.8477 401.523 80.5561 402.194 81.0462C402.876 81.5256 403.739 81.7653 404.783 81.7653ZM428.745 71.8097V86H421.937V61.4545H428.425V65.7852H428.713C429.256 64.3576 430.167 63.2283 431.445 62.3974C432.724 61.5558 434.274 61.1349 436.096 61.1349C437.8 61.1349 439.286 61.5078 440.554 62.2536C441.822 62.9993 442.807 64.0646 443.51 65.4496C444.214 66.8239 444.565 68.4645 444.565 70.3714V86H437.758V71.5859C437.768 70.0838 437.385 68.9119 436.607 68.0703C435.829 67.218 434.759 66.7919 433.395 66.7919C432.479 66.7919 431.669 66.989 430.966 67.3832C430.274 67.7773 429.73 68.3526 429.336 69.109C428.953 69.8548 428.756 70.755 428.745 71.8097ZM458.975 86.3995C457.111 86.3995 455.422 85.9201 453.91 84.9613C452.407 83.9918 451.214 82.5696 450.33 80.6946C449.456 78.8089 449.02 76.4972 449.02 73.7592C449.02 70.9467 449.472 68.6083 450.378 66.744C451.283 64.869 452.487 63.468 453.989 62.5412C455.502 61.6037 457.159 61.1349 458.959 61.1349C460.334 61.1349 461.479 61.3693 462.395 61.8381C463.322 62.2962 464.068 62.8714 464.632 63.5639C465.207 64.2457 465.644 64.9169 465.943 65.5774H466.15V53.2727H472.942V86H466.23V82.0689H465.943C465.623 82.7507 465.17 83.4272 464.584 84.0984C464.009 84.7589 463.258 85.3075 462.331 85.7443C461.415 86.1811 460.296 86.3995 458.975 86.3995ZM461.133 80.9822C462.23 80.9822 463.157 80.6839 463.913 80.0874C464.68 79.4801 465.266 78.6332 465.671 77.5465C466.086 76.4599 466.294 75.1868 466.294 73.7273C466.294 72.2678 466.092 71 465.687 69.924C465.282 68.848 464.696 68.017 463.929 67.4311C463.162 66.8452 462.23 66.5522 461.133 66.5522C460.014 66.5522 459.071 66.8558 458.304 67.4631C457.537 68.0703 456.956 68.9119 456.562 69.9879C456.168 71.0639 455.971 72.3104 455.971 73.7273C455.971 75.1548 456.168 76.4173 456.562 77.5146C456.967 78.6012 457.548 79.4535 458.304 80.0714C459.071 80.6786 460.014 80.9822 461.133 80.9822ZM489.725 86.4794C487.2 86.4794 485.027 85.968 483.205 84.9453C481.394 83.9119 479.998 82.4524 479.018 80.5668C478.038 78.6705 477.548 76.4279 477.548 73.8391C477.548 71.3143 478.038 69.0984 479.018 67.1914C479.998 65.2844 481.378 63.7983 483.157 62.733C484.947 61.6676 487.046 61.1349 489.453 61.1349C491.073 61.1349 492.58 61.396 493.976 61.918C495.382 62.4293 496.607 63.2017 497.651 64.2351C498.706 65.2685 499.526 66.5682 500.112 68.1342C500.698 69.6896 500.991 71.5114 500.991 73.5994V75.4691H480.265V71.2504H494.583C494.583 70.2702 494.37 69.402 493.944 68.6456C493.518 67.8892 492.926 67.2979 492.17 66.8718C491.424 66.435 490.556 66.2166 489.565 66.2166C488.532 66.2166 487.616 66.4563 486.817 66.9357C486.028 67.4045 485.41 68.0384 484.963 68.8374C484.515 69.6257 484.286 70.5046 484.276 71.4741V75.4851C484.276 76.6996 484.499 77.7489 484.947 78.6332C485.405 79.5174 486.05 80.1992 486.881 80.6786C487.711 81.158 488.697 81.3977 489.837 81.3977C490.593 81.3977 491.286 81.2912 491.914 81.0781C492.543 80.8651 493.081 80.5455 493.528 80.1193C493.976 79.6932 494.317 79.1712 494.551 78.5533L500.847 78.9688C500.528 80.4815 499.872 81.8026 498.882 82.9318C497.901 84.0504 496.634 84.924 495.078 85.5526C493.534 86.1705 491.749 86.4794 489.725 86.4794ZM505.433 86V61.4545H512.033V65.7372H512.289C512.736 64.2138 513.487 63.0632 514.542 62.2855C515.597 61.4972 516.811 61.103 518.186 61.103C518.526 61.103 518.894 61.1243 519.288 61.1669C519.682 61.2095 520.029 61.2681 520.327 61.3427V67.3832C520.007 67.2873 519.565 67.2021 519.001 67.1275C518.436 67.0529 517.919 67.0156 517.45 67.0156C516.449 67.0156 515.554 67.234 514.766 67.6708C513.988 68.0969 513.37 68.6935 512.912 69.4606C512.465 70.2276 512.241 71.1119 512.241 72.1133V86H505.433Z" fill="white"/>
</svg>
