<svg width="140" height="140" viewBox="0 0 140 140" fill="none" xmlns="http://www.w3.org/2000/svg">
<rect width="140" height="140" rx="20" fill="black"/>
<path d="M53.0991 94.3356C53.0991 98.1818 49.9367 101.329 46.0717 101.329C42.2066 101.329 39.0442 98.1818 39.0442 94.3356C39.0442 90.4895 42.2066 87.3426 46.0717 87.3426C49.9367 87.3426 53.0991 90.4895 53.0991 94.3356Z" fill="#E8362D"/>
<path d="M114.729 87.063C110.232 55.1049 84.7224 29.7902 52.6774 25.2448C48.9529 27.2028 45.5095 29.7203 42.4174 32.5874V39.3707C74.4624 39.3707 100.464 65.3147 100.464 97.133H107.28C110.232 94.1959 112.762 90.7693 114.729 87.063Z" fill="#E8362D"/>
<path d="M120 65.7343C120 40.4895 99.48 20 74.111 20C72.4947 20 70.9487 20.0699 69.4027 20.2797L68.3486 23.2867C90.9065 31.1189 108.826 48.9511 116.767 71.3987L119.789 70.3497C119.93 68.8113 120 67.2728 120 65.7343Z" fill="#E8362D"/>
<path d="M74.6029 120C59.9859 120 46.2825 114.336 36.0225 104.056C25.6922 93.8461 20 80.2097 20 65.6643C20 51.1188 25.6922 37.4824 36.0225 27.2027L38.9037 30.1397C29.3464 39.6502 24.1462 52.2377 24.1462 65.6643C24.1462 79.0909 29.4167 91.6783 38.9037 101.189C48.461 110.699 61.1103 115.874 74.6029 115.874C88.0955 115.874 100.745 110.629 110.302 101.189L113.254 104.056C102.923 114.336 89.2199 120 74.6029 120Z" fill="#E8362D"/>
<path d="M74.0408 100.35C75.1652 89.0212 70.1054 78.4618 61.6023 72.0282C57.1047 68.6715 51.6234 66.3638 45.6501 65.8044C44.104 65.6645 42.9094 64.2659 43.1202 62.7275C43.331 61.0491 44.7365 60.0002 46.2123 60.21C52.7477 60.8394 58.721 63.147 63.7105 66.6436C74.5327 74.1261 81.1384 87.0632 79.733 100.979C79.5221 103.217 79.1005 105.315 78.468 107.413L86.7604 109.721C89.22 109.021 91.6796 108.112 93.9283 107.063C94.4905 103.916 94.8419 100.63 94.8419 97.273C94.8419 71.1191 75.4463 49.4407 50.1476 45.7344C47.1258 45.3149 44.0338 45.2449 41.785 45.8044C38.201 46.7135 35.109 48.6715 32.7196 51.3288C29.9087 54.4757 28.2924 58.6016 28.2924 63.0771C28.2924 71.0492 33.4927 77.7625 40.7309 80.0701C42.0661 80.4897 44.1743 80.6995 45.2284 80.8394H45.2987C53.1694 82.1681 59.213 89.0911 59.213 97.273C59.213 100.56 58.2291 103.637 56.5425 106.294L62.305 109.93C65.0457 110.63 67.9269 111.119 70.8784 111.329C72.4947 107.972 73.6191 104.266 74.0408 100.35Z" fill="#E8362D"/>
</svg>
