<svg width="595" height="140" viewBox="0 0 595 140" fill="none" xmlns="http://www.w3.org/2000/svg">
<rect width="595" height="140" rx="20" fill="black"/>
<g clip-path="url(#clip0_133_255)">
<path d="M52.9226 94.3358C52.9226 98.1819 49.7771 101.329 45.9327 101.329C42.0882 101.329 38.9427 98.1819 38.9427 94.3358C38.9427 90.4896 42.0882 87.3428 45.9327 87.3428C49.7771 87.3428 52.9226 90.4896 52.9226 94.3358Z" fill="#E8362D"/>
<path d="M114.224 87.0633C109.751 55.1053 84.3772 29.7906 52.5031 25.2451C48.7985 27.2032 45.3734 29.7206 42.2979 32.5878V39.371C74.1719 39.371 100.035 65.315 100.035 97.1332H106.815C109.751 94.1962 112.267 90.7696 114.224 87.0633Z" fill="#E8362D"/>
<path d="M119.467 65.7343C119.467 40.4895 99.0561 20 73.8224 20C72.2148 20 70.677 20.0699 69.1392 20.2797L68.0907 23.2867C90.5284 31.1189 108.353 48.9511 116.251 71.3986L119.257 70.3497C119.397 68.8112 119.467 67.2727 119.467 65.7343Z" fill="#E8362D"/>
<path d="M74.3117 120C59.7727 120 46.1423 114.336 35.937 104.056C25.6618 93.8465 20 80.2101 20 65.6647C20 51.1192 25.6618 37.4828 35.937 27.2031L38.8029 30.1402C29.2966 39.6507 24.1241 52.2381 24.1241 65.6647C24.1241 79.0912 29.3665 91.6786 38.8029 101.189C48.3092 110.7 60.8911 115.874 74.3117 115.874C87.7324 115.874 100.314 110.63 109.821 101.189L112.756 104.056C102.481 114.336 88.8508 120 74.3117 120Z" fill="#E8362D"/>
<path d="M73.7525 100.35C74.8708 89.0212 69.8381 78.4618 61.3803 72.0282C56.9067 68.6716 51.4546 66.3639 45.5132 65.8044C43.9754 65.6646 42.7871 64.266 42.9968 62.7275C43.2065 61.0492 44.6045 60.0002 46.0724 60.21C52.573 60.8394 58.5144 63.1471 63.4773 66.6436C74.2417 74.1261 80.8123 87.0632 79.4143 100.979C79.2046 103.217 78.7852 105.315 78.1561 107.413L86.4042 109.721C88.8507 109.021 91.2972 108.112 93.5339 107.063C94.0931 103.916 94.4426 100.63 94.4426 97.273C94.4426 71.1191 75.1504 49.4408 49.9867 45.7345C46.981 45.3149 43.9055 45.245 41.6687 45.8044C38.1038 46.7135 35.0283 48.6716 32.6517 51.3289C29.8557 54.4758 28.248 58.6016 28.248 63.0772C28.248 71.0492 33.4206 77.7625 40.6202 80.0702C41.9483 80.4898 44.0453 80.6995 45.0938 80.8394H45.1637C52.9924 82.1681 59.0037 89.0912 59.0037 97.273C59.0037 100.56 58.0251 103.637 56.3475 106.294L62.0793 109.93C64.8054 110.63 67.6712 111.119 70.607 111.329C72.2147 107.972 73.3331 104.266 73.7525 100.35Z" fill="#E8362D"/>
<path d="M525.372 35.1045H514.887V104.965H525.372V35.1045Z" fill="white"/>
<path d="M344.892 75.7341C346.08 75.1746 347.198 74.4753 348.107 73.5662C350.344 71.3984 351.812 68.2516 351.812 64.2655V47.6222C351.812 43.6362 350.344 40.4893 348.107 38.3215C345.87 36.1537 342.655 34.9648 339.649 34.9648L309.383 35.1047V105.035H319.868V76.9229H330.702C333.428 77.0627 338.531 78.1816 340.069 85.1746L344.193 105.035L355.656 104.965L351.322 86.2935C349.994 80.3495 347.897 77.2725 344.892 75.7341ZM319.868 44.8949V44.825H337.902C340.069 44.825 341.257 46.7131 341.257 48.811V63.1467C341.257 65.2446 340.069 67.1327 337.902 67.1327H319.868V44.8949Z" fill="white"/>
<path d="M158.191 38.3912C155.954 40.559 154.486 43.7059 154.486 47.6919V92.3772C154.486 96.3632 155.954 99.5101 158.191 101.678C160.428 103.846 163.643 105.035 166.649 105.035H194.958V95.2444H168.326C166.159 95.2444 164.971 93.3562 164.971 91.2583V73.2164H191.183V63.4262H164.971V48.8807C164.971 46.7828 166.159 44.8947 168.326 44.8947H194.958V35.1045H166.649C163.713 35.1045 160.428 36.2234 158.191 38.3912Z" fill="white"/>
<path d="M548.368 44.8947H575V35.1045H546.691C543.755 35.1045 540.47 36.2933 538.233 38.4611C535.996 40.629 534.528 43.7758 534.528 47.7618V104.825H545.013V73.2164H571.225V63.4262H545.013V48.8807C545.013 46.7828 546.202 44.8947 548.368 44.8947Z" fill="white"/>
<path d="M234.731 63.4262H218.444C216.347 63.4262 214.669 61.7478 214.669 59.6499V48.8807C214.669 46.7828 215.858 44.8947 218.025 44.8947H244.167V35.1045H216.277C213.341 35.1045 210.056 36.2933 207.819 38.4611C205.583 40.629 204.115 43.7758 204.115 47.7618V62.2374C204.115 69.0206 209.637 74.5451 216.417 74.5451H232.703C234.8 74.5451 236.478 76.2234 236.478 78.3213V91.2583C236.478 93.3562 235.29 95.2444 233.123 95.2444H204.185V105.035H234.87C237.806 105.035 241.091 103.846 243.328 101.678C245.565 99.5101 247.033 96.3632 247.033 92.3772V75.7339C247.033 68.9506 241.511 63.4262 234.731 63.4262Z" fill="white"/>
<path d="M365.093 38.3912C362.856 40.559 361.388 43.7059 361.388 47.6919V92.3772C361.388 96.3632 362.856 99.5101 365.093 101.678C367.329 103.846 370.545 105.035 373.55 105.035H401.86V95.2444H375.228C373.061 95.2444 371.873 93.3562 371.873 91.2583V73.2164H398.085V63.4262H371.873V48.8807C371.873 46.7828 373.061 44.8947 375.228 44.8947H401.86V35.1045H373.55C370.615 35.1045 367.329 36.2234 365.093 38.3912Z" fill="white"/>
<path d="M441.632 63.4262H425.346C423.249 63.4262 421.571 61.7478 421.571 59.6499V48.8807C421.571 46.7828 422.759 44.8947 424.926 44.8947H451.069V35.1045H423.179C420.243 35.1045 416.958 36.2933 414.721 38.4611C412.484 40.629 411.016 43.7758 411.016 47.7618V62.2374C411.016 69.0206 416.538 74.5451 423.319 74.5451H439.605C441.702 74.5451 443.38 76.2234 443.38 78.3213V91.2583C443.38 93.3562 442.191 95.2444 440.025 95.2444H411.086V105.035H441.772C444.708 105.035 447.993 103.846 450.23 101.678C452.467 99.5101 453.934 96.3632 453.934 92.3772V75.7339C453.934 68.9506 448.412 63.4262 441.632 63.4262Z" fill="white"/>
<path d="M493.148 63.4262H476.861C474.764 63.4262 473.087 61.7478 473.087 59.6499V48.8807C473.087 46.7828 474.275 44.8947 476.442 44.8947H502.584V35.1045H474.695C471.759 35.1045 468.474 36.2933 466.237 38.4611C464 40.629 462.532 43.7758 462.532 47.7618V62.2374C462.532 69.0206 468.054 74.5451 474.834 74.5451H491.121C493.218 74.5451 494.895 76.2234 494.895 78.3213V91.2583C494.895 93.3562 493.707 95.2444 491.54 95.2444H462.602V105.035H493.288C496.224 105.035 499.509 103.846 501.746 101.678C503.982 99.5101 505.45 96.3632 505.45 92.3772V75.7339C505.45 68.9506 499.928 63.4262 493.148 63.4262Z" fill="white"/>
<path d="M288.273 35.0352L256.469 35.1051V105.035H266.954V77.8324H288.203C291.139 77.8324 294.424 76.6435 296.661 74.4757C298.898 72.3079 300.366 69.161 300.366 65.175V47.6226C300.366 43.6366 298.898 40.4897 296.661 38.3219C294.494 36.154 291.209 35.0352 288.273 35.0352ZM289.951 64.0561C289.951 66.154 288.763 68.0421 286.596 68.0421H267.024V44.8953V44.8254H286.596C288.763 44.8254 289.951 46.7135 289.951 48.8114V64.0561Z" fill="white"/>
</g>
<defs>
<clipPath id="clip0_133_255">
<rect width="555" height="100" fill="white" transform="translate(20 20)"/>
</clipPath>
</defs>
</svg>
