<svg width="140" height="140" viewBox="0 0 140 140" fill="none" xmlns="http://www.w3.org/2000/svg">
<rect width="140" height="140" rx="20" fill="black"/>
<path d="M67.0947 56.7634C68.0037 55.4236 68.9987 55.2533 69.8059 55.2533C70.6131 55.2533 71.9579 55.4236 72.8672 56.7634C80.0321 66.6047 91.8589 86.209 100.583 100.67C106.272 110.101 110.642 117.344 111.539 118.266C114.904 121.726 119.52 119.57 122.202 115.645C124.842 111.78 125.575 109.067 125.575 106.172C125.575 104.201 87.3216 33.0564 83.4691 27.1345C79.7642 21.4387 78.5575 20 72.2165 20H67.4715C61.1493 20 60.2357 21.4387 56.5305 27.1345C52.6784 33.0564 14.4248 104.201 14.4248 106.172C14.4248 109.067 15.1578 111.78 17.7983 115.645C20.4803 119.57 25.0959 121.726 28.4612 118.266C29.3578 117.344 33.7276 110.101 39.4169 100.67C48.1409 86.209 59.9298 66.6047 67.0947 56.7634Z" fill="white"/>
</svg>
