<svg width="341" height="140" viewBox="0 0 341 140" fill="none" xmlns="http://www.w3.org/2000/svg">
<rect width="341" height="140" rx="20" fill="#049688"/>
<path d="M64.3802 119.665C62.8936 119.488 61.3344 119.26 60.9165 119.157C60.3015 119.011 59.6829 118.881 59.0613 118.767C58.3513 118.629 57.647 118.464 56.9498 118.273C53.7119 117.345 53.4798 117.27 51.0387 116.272C48.7929 115.358 44.6551 113.221 43.2396 112.249C42.8521 111.981 42.4897 111.764 42.4342 111.764C42.3795 111.764 41.4734 111.128 40.4204 110.35C33.7258 105.4 28.6998 99.391 25.0682 91.9901C24.4433 90.7189 23.9332 89.5912 23.9332 89.4851C23.9332 89.3805 23.8207 89.091 23.6832 88.8476C23.3996 88.3411 22.9958 87.2502 22.67 86.1225C22.53 85.6434 22.367 85.1713 22.1818 84.7078C22.0295 84.3488 21.9068 83.9118 21.9068 83.7354C21.9068 83.5583 21.7545 82.9824 21.5686 82.4517C21.3827 81.925 21.2327 81.303 21.2327 81.0705C21.2327 80.8395 21.0866 80.0404 20.9061 79.2944C20.4671 77.4528 20 72.6824 20 70.0089C20 67.3385 20.4671 62.5682 20.9061 60.7273C21.0858 59.9805 21.2327 59.1666 21.2327 58.9169C21.2327 58.6664 21.3459 58.1755 21.4826 57.8244C21.6233 57.4748 21.8029 56.8466 21.8857 56.4291C21.9717 56.0116 22.1669 55.2921 22.3255 54.8255L22.7864 53.4786C23.1247 52.4696 23.4387 51.6159 23.5887 51.2834C23.6746 51.0977 24.0097 50.3392 24.3362 49.5978C24.8643 48.4 25.9962 46.1409 26.6578 44.9586C26.8992 44.5255 26.9906 44.3819 28.2967 42.3428C30.366 39.1059 33.9023 35.0785 37.1942 32.2075C38.3542 31.1954 42.2295 28.2566 42.4037 28.2566C42.4522 28.2566 42.8178 28.0373 43.2185 27.7689C44.2707 27.065 45.3026 26.4672 46.6478 25.7938C47.1307 25.5552 47.6088 25.3073 48.082 25.0501C48.3046 24.9221 48.7226 24.7301 50.8684 23.7703C51.341 23.5596 51.8503 23.3676 53.3181 22.8549C53.6415 22.7426 54.2915 22.5046 54.7555 22.3305C55.2226 22.1573 55.7718 22.0137 55.9764 22.0137C56.178 22.0137 56.7084 21.8733 57.1544 21.7C57.5997 21.526 58.4082 21.3278 58.9542 21.2607C59.4979 21.1967 60.2205 21.0445 60.5595 20.9251C60.8954 20.8096 61.8172 20.6598 62.6069 20.5935C63.6363 20.5006 64.6628 20.3796 65.6855 20.2306C67.7853 19.9231 72.3504 19.9231 74.4283 20.2306C75.4097 20.3713 76.3946 20.4871 77.3819 20.5779C78.1263 20.6395 79.0754 20.7948 79.4933 20.9228C79.9113 21.0476 80.6346 21.2037 81.0986 21.2607C81.5626 21.3223 82.3438 21.5143 82.8344 21.6906C83.3265 21.8701 83.8843 22.0137 84.0764 22.0137C84.2686 22.0137 84.6654 22.1206 84.9552 22.2548C85.2482 22.3859 85.8676 22.6052 86.3348 22.7426C86.7988 22.883 87.5948 23.1601 88.108 23.3645C88.6173 23.5682 89.3008 23.8366 89.6274 23.9584C90.2289 24.1847 94.6737 26.4064 95.2783 26.7848C100.185 29.8415 102.709 31.8384 106.102 35.3407C110.194 39.5655 112.91 43.5891 115.674 49.512C115.87 49.9303 116.168 50.5491 116.339 50.8839C116.507 51.2226 116.648 51.619 116.648 51.7657C116.648 51.9139 116.788 52.3588 116.962 52.756C117.432 53.8352 117.834 55.0635 118.024 56.0022C118.118 56.4627 118.292 57.0323 118.411 57.2672C118.53 57.5013 118.67 58.0967 118.726 58.5845C118.78 59.0714 118.942 59.8705 119.08 60.3551C119.876 63.1105 120.272 71.2286 119.79 74.819C119.647 75.8858 119.486 77.1757 119.431 77.6845C119.339 78.5562 118.878 80.8091 118.484 82.3238L118.078 83.9274C117.313 87.0153 115.421 91.4142 113.111 95.4837C112.195 97.0991 109.126 101.468 108.546 101.979C108.494 102.025 108.235 102.331 107.972 102.653C107.71 102.979 106.868 103.891 106.105 104.677C102.745 108.143 100.036 110.286 95.2783 113.237C94.7143 113.587 89.9297 115.922 89.0352 116.285C88.5712 116.471 87.7963 116.784 87.3143 116.979C86.8355 117.172 86.3012 117.334 86.1332 117.337C85.9653 117.339 85.5231 117.489 85.1505 117.669C84.7787 117.848 84.3053 117.998 84.0952 118.001C83.8874 118.004 83.2804 118.151 82.7461 118.327C82.2126 118.507 81.4705 118.699 81.0978 118.756C80.726 118.815 79.93 118.973 79.3254 119.108C78.7216 119.242 76.896 119.504 75.2735 119.69C71.6542 120.111 67.9976 120.103 64.3802 119.665ZM68.054 109.911C68.2883 109.728 68.5297 109.365 68.5938 109.11C68.7344 108.545 91.4303 63.0918 91.8576 62.5221C92.2177 62.0407 92.2513 61.2697 91.9216 60.9981C91.7482 60.8522 89.575 60.8061 83.7741 60.8155C79.423 60.8249 75.7649 60.828 75.6453 60.8249C75.4688 60.8186 75.4321 57.9141 75.45 45.4736C75.4625 37.0325 75.4227 30.0491 75.3618 29.9523C75.3008 29.854 75.0626 29.7752 74.8306 29.7752C74.5041 29.7752 74.3517 29.9156 74.151 30.4057C73.7721 31.3172 72.7253 33.3867 67.6298 43.2699C66.5714 45.3209 65.5155 47.3733 64.4622 49.4269C63.5592 51.1921 62.1343 53.9632 61.3008 55.584C59.0573 59.9409 56.8185 64.3003 54.5844 68.662C50.7309 76.1816 50.2646 77.0782 50.099 77.2764C49.7787 77.6635 49.6045 78.5562 49.7849 78.8917C49.949 79.1992 50.2763 79.2117 58.4113 79.1992C63.0616 79.1937 66.8971 79.2179 66.9369 79.2538C67.044 79.3639 67.0041 108.369 66.894 109.06C66.8213 109.515 66.8698 109.755 67.0775 109.963C67.4369 110.322 67.5353 110.319 68.054 109.911Z" fill="white"/>
<path d="M152.844 86V53.2727H174.513V58.9776H159.764V66.7759H173.075V72.4808H159.764V86H152.844ZM185.732 86.4634C184.165 86.4634 182.77 86.1918 181.545 85.6484C180.32 85.0945 179.35 84.2795 178.636 83.2035C177.933 82.1168 177.582 80.7638 177.582 79.1445C177.582 77.7809 177.832 76.6357 178.333 75.7088C178.833 74.782 179.515 74.0362 180.378 73.4716C181.241 72.907 182.221 72.4808 183.319 72.1932C184.426 71.9055 185.588 71.7031 186.802 71.5859C188.23 71.4368 189.38 71.2983 190.254 71.1705C191.127 71.032 191.761 70.8295 192.156 70.5632C192.55 70.2969 192.747 69.9027 192.747 69.3807V69.2848C192.747 68.2727 192.427 67.4897 191.788 66.9357C191.159 66.3817 190.265 66.1048 189.103 66.1048C187.878 66.1048 186.903 66.3764 186.179 66.9197C185.455 67.4524 184.975 68.1236 184.741 68.9332L178.445 68.4219C178.764 66.9304 179.393 65.6413 180.33 64.5547C181.268 63.4574 182.477 62.6158 183.958 62.0298C185.449 61.4332 187.175 61.1349 189.135 61.1349C190.499 61.1349 191.804 61.2947 193.05 61.6143C194.308 61.9339 195.421 62.4293 196.39 63.1005C197.37 63.7717 198.143 64.6346 198.707 65.6893C199.272 66.7333 199.554 67.9851 199.554 69.4446V86H193.098V82.5962H192.907C192.512 83.3633 191.985 84.0398 191.325 84.6257C190.664 85.201 189.87 85.6538 188.944 85.984C188.017 86.3036 186.946 86.4634 185.732 86.4634ZM187.681 81.7653C188.683 81.7653 189.567 81.5682 190.334 81.174C191.101 80.7692 191.703 80.2259 192.14 79.544C192.576 78.8622 192.795 78.0898 192.795 77.2269V74.6222C192.582 74.7607 192.289 74.8885 191.916 75.0057C191.554 75.1122 191.143 75.2134 190.685 75.3093C190.227 75.3945 189.769 75.4744 189.311 75.549C188.853 75.6129 188.438 75.6715 188.065 75.7248C187.266 75.842 186.568 76.0284 185.971 76.2841C185.375 76.5398 184.911 76.886 184.581 77.3228C184.251 77.7489 184.086 78.2816 184.086 78.9208C184.086 79.8477 184.421 80.5561 185.092 81.0462C185.774 81.5256 186.637 81.7653 187.681 81.7653ZM225.258 68.4538L219.026 68.8374C218.92 68.3047 218.691 67.8253 218.339 67.3991C217.987 66.9624 217.524 66.6161 216.949 66.3604C216.384 66.0941 215.708 65.9609 214.919 65.9609C213.865 65.9609 212.975 66.1847 212.251 66.6321C211.526 67.0689 211.164 67.6548 211.164 68.3899C211.164 68.9759 211.398 69.4712 211.867 69.8761C212.336 70.2809 213.14 70.6058 214.28 70.8509L218.722 71.7457C221.109 72.2358 222.888 73.0241 224.06 74.1108C225.232 75.1974 225.818 76.625 225.818 78.3935C225.818 80.0021 225.344 81.4137 224.395 82.6282C223.458 83.8427 222.169 84.7908 220.528 85.4727C218.898 86.1438 217.018 86.4794 214.887 86.4794C211.638 86.4794 209.049 85.8029 207.121 84.4499C205.203 83.0863 204.079 81.2326 203.749 78.8888L210.445 78.5373C210.647 79.5281 211.137 80.2844 211.915 80.8065C212.693 81.3178 213.689 81.5735 214.903 81.5735C216.096 81.5735 217.055 81.3445 217.78 80.8864C218.515 80.4176 218.888 79.8157 218.898 79.0806C218.888 78.4627 218.627 77.9567 218.115 77.5625C217.604 77.1577 216.816 76.8487 215.75 76.6357L211.499 75.7887C209.102 75.3093 207.318 74.4783 206.146 73.2958C204.985 72.1133 204.404 70.6058 204.404 68.7734C204.404 67.1967 204.83 65.8384 205.683 64.6985C206.546 63.5586 207.755 62.6797 209.31 62.0618C210.876 61.4439 212.709 61.1349 214.807 61.1349C217.907 61.1349 220.347 61.7901 222.126 63.1005C223.916 64.4109 224.96 66.1953 225.258 68.4538ZM243.16 61.4545V66.5682H228.378V61.4545H243.16ZM231.734 55.5739H238.542V78.4574C238.542 79.0859 238.638 79.576 238.829 79.9276C239.021 80.2685 239.288 80.5082 239.628 80.6467C239.98 80.7852 240.385 80.8544 240.843 80.8544C241.163 80.8544 241.482 80.8278 241.802 80.7745C242.121 80.7106 242.366 80.6626 242.537 80.6307L243.608 85.6964C243.267 85.8029 242.787 85.9254 242.169 86.0639C241.551 86.2131 240.8 86.3036 239.916 86.3356C238.275 86.3995 236.837 86.1811 235.601 85.6804C234.376 85.1797 233.423 84.402 232.741 83.3473C232.059 82.2926 231.724 80.9609 231.734 79.3523V55.5739ZM253.363 86H245.949L257.247 53.2727H266.163L277.445 86H270.031L261.833 60.7514H261.577L253.363 86ZM252.9 73.136H270.414V78.5373H252.9V73.136ZM281.384 86V53.2727H294.296C296.779 53.2727 298.893 53.7468 300.641 54.695C302.388 55.6325 303.719 56.9375 304.636 58.6101C305.562 60.272 306.026 62.1896 306.026 64.3629C306.026 66.5362 305.557 68.4538 304.62 70.1158C303.682 71.7777 302.324 73.0721 300.545 73.9989C298.776 74.9258 296.635 75.3892 294.121 75.3892H285.891V69.8441H293.002C294.334 69.8441 295.431 69.6151 296.294 69.157C297.168 68.6882 297.817 68.0437 298.244 67.2234C298.68 66.3924 298.899 65.4389 298.899 64.3629C298.899 63.2763 298.68 62.3281 298.244 61.5185C297.817 60.6982 297.168 60.0643 296.294 59.6168C295.42 59.1587 294.312 58.9297 292.97 58.9297H288.304V86H281.384ZM317.44 53.2727V86H310.52V53.2727H317.44Z" fill="white"/>
</svg>
