<svg width="140" height="140" viewBox="0 0 140 140" fill="none" xmlns="http://www.w3.org/2000/svg">
<rect width="140" height="140" rx="20" fill="#7E311E"/>
<path d="M55.128 117.126C59.3122 118.81 63.8516 119.809 68.618 119.975C75.0686 120.201 81.2027 118.867 86.6866 116.334C80.1105 113.75 74.1549 109.972 69.0721 105.274C65.7773 110.55 60.9041 114.716 55.128 117.126Z" fill="#FF9100"/>
<path d="M69.0711 105.276C57.4685 94.5447 50.4298 79.0132 51.0246 61.9779C51.044 61.4247 51.0731 60.8719 51.1073 60.3192C49.0293 59.7818 46.8599 59.4538 44.6273 59.3759C41.4317 59.2642 38.3369 59.6606 35.4152 60.4833C32.318 65.9089 30.4488 72.1341 30.216 78.8018C29.6151 96.0105 40.0289 111.047 55.127 117.127C60.9032 114.718 65.7762 110.556 69.0711 105.276Z" fill="#FFC400"/>
<path d="M69.0716 105.275C71.7692 100.958 73.4048 95.8967 73.5952 90.444C74.0961 76.1004 64.4535 63.7616 51.1078 60.3185C51.0737 60.8712 51.0444 61.424 51.0251 61.9772C50.4302 79.0125 57.4689 94.544 69.0716 105.275Z" fill="#FF9100"/>
<path d="M72.1027 20C64.5019 26.0892 58.4998 34.1184 54.8685 43.3678C52.7895 48.6658 51.483 54.3566 51.1016 60.3221C64.4473 63.7652 74.0899 76.104 73.589 90.4476C73.3985 95.9003 71.7582 100.956 69.0654 105.278C74.1481 109.981 80.1039 113.754 86.68 116.338C99.8792 110.237 109.244 97.1077 109.787 81.5787C110.138 71.5173 106.272 62.5503 100.81 54.9813C95.0412 46.9763 72.1027 20 72.1027 20Z" fill="#DD2C00"/>
</svg>
