<svg width="140" height="140" viewBox="0 0 140 140" fill="none" xmlns="http://www.w3.org/2000/svg">
<rect width="140" height="140" rx="20" fill="#538DD7"/>
<path d="M113.114 90.2253C113.114 91.6322 111.912 92.2477 110.505 92.8338C104.878 95.2079 98.8696 97.4354 92.4802 97.4354C80.6099 97.4354 72.3446 84.3048 44.6473 98.1682V113.35C44.6473 122.231 31.2529 122.202 31.2529 113.35V40.0769C28.615 38.0253 26.8564 34.8306 26.8564 31.1962C26.8564 25.0412 31.8684 20 38.0526 20C44.2076 20 49.2488 25.0119 49.2488 31.1962C49.2488 34.7719 47.5489 37.996 44.8817 40.0476V46.2026C55.7555 42.6855 64.0794 36.1202 87.7028 45.2061C95.4991 48.5474 107.838 40.6045 110.124 40.6045C111.736 40.6045 113.143 41.8062 113.143 43.213V90.2253H113.114Z" fill="white"/>
</svg>
