<svg width="140" height="140" viewBox="0 0 140 140" fill="none" xmlns="http://www.w3.org/2000/svg">
<rect width="140" height="140" rx="20" fill="#0858CF"/>
<path d="M80.558 20L92.0985 26.6365L46.6506 52.7718L35.1102 46.1352L80.558 20Z" fill="white"/>
<path d="M92.5639 28.0298L47.4022 53.9888L47.4006 67.1227L92.5624 41.1638L92.5639 28.0298Z" fill="white"/>
<path d="M74.4029 53.6615L47.4971 69.1273L47.4956 82.2616L74.4014 66.7957L74.4029 53.6615Z" fill="white"/>
<path d="M64.0887 74.4251L47.4334 83.9991L47.4318 97.1336L64.0873 87.5596L64.0887 74.4251Z" fill="white"/>
<path d="M34.2901 47.4015L45.8984 54.0738L45.894 67.2108L34.2856 60.5387L34.2901 47.4015Z" fill="white"/>
<path d="M34.4006 62.4493L45.8681 69.0406L45.8636 82.1776L34.3961 75.5864L34.4006 62.4493Z" fill="white"/>
<path d="M34.3955 77.4064L45.8669 84L45.8621 98.0036L34.3908 91.41L34.3955 77.4064Z" fill="white"/>
<path d="M59.9577 120L48.4172 113.364L93.3492 87.5249L104.89 94.1613L59.9577 120Z" fill="white"/>
<path d="M47.5023 112.228L92.5962 86.3077L92.5977 73.1738L47.5037 99.0938L47.5023 112.228Z" fill="white"/>
<path d="M65.5954 86.6351L92.5011 71.1693L92.5027 58.0351L65.5968 73.5008L65.5954 86.6351Z" fill="white"/>
<path d="M75.9096 65.8714L92.5649 56.2975L92.5663 43.1631L75.911 52.737L75.9096 65.8714Z" fill="white"/>
<path d="M105.71 92.9831L94.1015 86.311L94.1059 73.1738L105.714 79.8459L105.71 92.9831Z" fill="white"/>
<path d="M105.6 77.8508L94.1325 71.2595L94.1369 58.1225L105.604 64.7137L105.6 77.8508Z" fill="white"/>
<path d="M105.604 62.8937L94.1329 56.3001L94.1375 42.5482L105.609 49.1417L105.604 62.8937Z" fill="white"/>
</svg>
