<svg width="140" height="140" viewBox="0 0 140 140" fill="none" xmlns="http://www.w3.org/2000/svg">
<rect width="140" height="140" rx="20" fill="#D73526"/>
<path d="M71.4764 105.449C71.4764 109.135 68.4884 112.123 64.8025 112.123C61.1166 112.123 58.1285 109.135 58.1285 105.449C58.1285 101.763 61.1166 98.7746 64.8025 98.7746C68.4884 98.7746 71.4764 101.763 71.4764 105.449Z" fill="#4B1100"/>
<path fill-rule="evenodd" clip-rule="evenodd" d="M57.4721 64.9123C52.6581 64.9123 44.1241 65.7878 44.1241 57.5819C44.1241 48.5011 51.4546 49.8139 57.4721 49.9233C56.7427 43.1035 56.925 33.2929 63.1613 26.5095C69.6532 19.448 75.7434 20.0543 75.7434 20.0543H88.1066C90.7325 19.726 95.9622 20.7326 95.8747 27.3847C95.7872 34.0368 90.1489 35.0433 87.3408 34.7151H77.0563C75.4516 34.8975 72.2423 36.7501 72.2423 42.702V49.923L81.5421 49.9233C84.1314 49.8502 89.3101 51.2797 89.3101 57.5816C89.3101 63.8836 84.1314 65.0946 81.5421 64.9123H72.2423V93.112C76.4986 95.6243 79.3539 100.258 79.3539 105.558C79.3539 113.534 72.888 120 64.9119 120C56.9358 120 50.4699 113.534 50.4699 105.558C50.4699 100.303 53.2763 95.704 57.4721 93.1772V64.9123ZM64.8025 112.123C68.4884 112.123 71.4764 109.135 71.4764 105.449C71.4764 101.763 68.4884 98.7746 64.8025 98.7746C61.1166 98.7746 58.1285 101.763 58.1285 105.449C58.1285 109.135 61.1166 112.123 64.8025 112.123Z" fill="white"/>
</svg>
