<svg width="140" height="140" viewBox="0 0 140 140" fill="none" xmlns="http://www.w3.org/2000/svg">
<rect width="140" height="140" rx="20" fill="#161614"/>
<path d="M70.0002 21.2344C42.3894 21.2344 20 43.6199 20 71.2346C20 93.3263 34.3265 112.068 54.1933 118.68C56.692 119.143 57.6096 117.595 57.6096 116.274C57.6096 115.082 57.5629 111.143 57.5418 106.965C43.6313 109.99 40.6961 101.066 40.6961 101.066C38.4217 95.2867 35.1445 93.7502 35.1445 93.7502C30.6082 90.6468 35.4865 90.7104 35.4865 90.7104C40.5075 91.0633 43.1513 95.8631 43.1513 95.8631C47.6107 103.507 54.8481 101.297 57.7014 100.02C58.15 96.7878 59.446 94.5824 60.8758 93.3338C49.7703 92.0691 38.0954 87.7818 38.0954 68.6233C38.0954 63.1647 40.0487 58.704 43.2474 55.2026C42.7282 53.943 41.0169 48.8577 43.7317 41.9705C43.7317 41.9705 47.9303 40.6266 57.4853 47.0958C61.4734 45.9876 65.7509 45.4324 70.0002 45.4135C74.2494 45.4324 78.53 45.9876 82.526 47.0958C92.0696 40.6266 96.2624 41.9705 96.2624 41.9705C98.9838 48.8577 97.2717 53.943 96.7525 55.2026C99.9583 58.704 101.898 63.1643 101.898 68.6233C101.898 87.8273 90.2014 92.0562 79.0677 93.2938C80.8609 94.8455 82.4589 97.8885 82.4589 102.553C82.4589 109.243 82.4009 114.627 82.4009 116.274C82.4009 117.605 83.3009 119.164 85.8357 118.673C105.691 112.054 120 93.3189 120 71.2346C120 43.6199 97.6137 21.2344 70.0002 21.2344Z" fill="white"/>
<path d="M38.7266 92.4609C38.6168 92.7091 38.2254 92.7837 37.8698 92.6135C37.507 92.4503 37.3031 92.1115 37.4208 91.8621C37.5286 91.6064 37.92 91.5351 38.2819 91.7068C38.6454 91.8696 38.8525 92.2115 38.7266 92.4609ZM41.1861 94.6554C40.9477 94.8765 40.4814 94.7738 40.165 94.4244C39.8379 94.0758 39.7768 93.6099 40.0187 93.3852C40.2646 93.1644 40.7167 93.2676 41.0446 93.6166C41.3716 93.9691 41.4355 94.4319 41.1861 94.6554ZM42.8735 97.4631C42.5669 97.676 42.0657 97.4764 41.7563 97.0317C41.45 96.5874 41.45 96.0541 41.763 95.8404C42.0735 95.6267 42.5669 95.8188 42.8806 96.26C43.1864 96.7121 43.1868 97.2451 42.8735 97.4631ZM45.7268 100.715C45.4526 101.017 44.8691 100.936 44.4417 100.524C44.0049 100.121 43.8829 99.5485 44.1578 99.2462C44.435 98.9434 45.0221 99.0285 45.4526 99.4375C45.8867 99.8399 46.019 100.416 45.7268 100.715ZM49.4145 101.813C49.2941 102.204 48.7318 102.382 48.1655 102.216C47.6 102.045 47.2298 101.586 47.344 101.19C47.4616 100.796 48.0263 100.611 48.5969 100.789C49.1615 100.959 49.5321 101.415 49.4145 101.813ZM53.612 102.279C53.6261 102.691 53.1457 103.033 52.5512 103.041C51.9532 103.053 51.4697 102.72 51.4634 102.314C51.4634 101.898 51.9328 101.559 52.5304 101.549C53.1249 101.537 53.612 101.869 53.612 102.279ZM57.735 102.121C57.8063 102.523 57.393 102.936 56.8029 103.046C56.2225 103.152 55.6852 102.904 55.6111 102.505C55.539 102.092 55.9601 101.679 56.5393 101.572C57.1307 101.47 57.6597 101.712 57.735 102.121Z" fill="white"/>
</svg>
