<svg width="140" height="140" viewBox="0 0 140 140" fill="none" xmlns="http://www.w3.org/2000/svg">
<g clip-path="url(#paint0_angular_184_658_clip_path)" data-figma-skip-parse="true"><g transform="matrix(0.07 0 0 0.07 70 70)"><foreignObject x="-1014.29" y="-1014.29" width="2028.57" height="2028.57"><div xmlns="http://www.w3.org/1999/xhtml" style="background:conic-gradient(from 90deg,rgba(251, 69, 64, 1) 0deg,rgba(49, 137, 251, 1) 84.8077deg,rgba(12, 185, 104, 1) 166.154deg,rgba(232, 207, 25, 1) 278.654deg,rgba(251, 69, 64, 1) 360deg);height:100%;width:100%;opacity:1"></div></foreignObject></g></g><rect width="140" height="140" rx="20" data-figma-gradient-fill="{&#34;type&#34;:&#34;GRADIENT_ANGULAR&#34;,&#34;stops&#34;:[{&#34;color&#34;:{&#34;r&#34;:0.98431372642517090,&#34;g&#34;:0.27058824896812439,&#34;b&#34;:0.25098040699958801,&#34;a&#34;:1.0},&#34;position&#34;:0.0},{&#34;color&#34;:{&#34;r&#34;:0.19215686619281769,&#34;g&#34;:0.53725492954254150,&#34;b&#34;:0.98431372642517090,&#34;a&#34;:1.0},&#34;position&#34;:0.23557692766189575},{&#34;color&#34;:{&#34;r&#34;:0.047058824449777603,&#34;g&#34;:0.72549021244049072,&#34;b&#34;:0.40784314274787903,&#34;a&#34;:1.0},&#34;position&#34;:0.46153846383094788},{&#34;color&#34;:{&#34;r&#34;:0.90980392694473267,&#34;g&#34;:0.81176471710205078,&#34;b&#34;:0.098039217293262482,&#34;a&#34;:1.0},&#34;position&#34;:0.77403843402862549}],&#34;stopsVar&#34;:[{&#34;color&#34;:{&#34;r&#34;:0.98431372642517090,&#34;g&#34;:0.27058824896812439,&#34;b&#34;:0.25098040699958801,&#34;a&#34;:1.0},&#34;position&#34;:0.0},{&#34;color&#34;:{&#34;r&#34;:0.19215686619281769,&#34;g&#34;:0.53725492954254150,&#34;b&#34;:0.98431372642517090,&#34;a&#34;:1.0},&#34;position&#34;:0.23557692766189575},{&#34;color&#34;:{&#34;r&#34;:0.047058824449777603,&#34;g&#34;:0.72549021244049072,&#34;b&#34;:0.40784314274787903,&#34;a&#34;:1.0},&#34;position&#34;:0.46153846383094788},{&#34;color&#34;:{&#34;r&#34;:0.90980392694473267,&#34;g&#34;:0.81176471710205078,&#34;b&#34;:0.098039217293262482,&#34;a&#34;:1.0},&#34;position&#34;:0.77403843402862549}],&#34;transform&#34;:{&#34;m00&#34;:140.0,&#34;m01&#34;:0.0,&#34;m02&#34;:0.0,&#34;m10&#34;:0.0,&#34;m11&#34;:140.0,&#34;m12&#34;:0.0},&#34;opacity&#34;:1.0,&#34;blendMode&#34;:&#34;NORMAL&#34;,&#34;visible&#34;:true}"/>
<rect x="5" y="5" width="130" height="130" rx="16" fill="#17181F"/>
<mask id="mask0_184_658" style="mask-type:luminance" maskUnits="userSpaceOnUse" x="20" y="19" width="100" height="102">
<path d="M115.77 58.306L81.4385 24.487C74.8762 18.0196 64.3181 18.0651 57.8078 24.5845L24.1453 58.319C21.4944 60.9774 20 64.5784 20 68.3353V108.024C20 114.823 25.5097 120.335 32.3059 120.335H107.694C114.49 120.335 120 114.823 120 108.024V68.4068C120 64.6109 118.473 60.9709 115.77 58.306ZM97.11 96.4084H42.89V71.5918L69.7693 44.8902L97.11 71.5918V96.4084Z" fill="white"/>
</mask>
<g mask="url(#mask0_184_658)">
<path d="M53.7632 21.3979L44.7073 28.082L64.8898 55.4479L73.9458 48.7638L53.7632 21.3979Z" fill="url(#paint1_linear_184_658)"/>
<path d="M74.2526 79.7894L127.576 123.925L141.988 54.519L74.2526 79.7894Z" fill="#18A1CE"/>
<path d="M8.30493 103.189V83.364L69.0547 79.7891L8.30493 103.189Z" fill="#FCC010"/>
<path d="M69.0547 79.1387L42.4158 136.663L132.939 121.745L69.0547 79.1387Z" fill="#32B55E"/>
<path d="M69.0547 79.1387L42.4158 136.663L116.81 132.438L69.0547 79.1387Z" fill="#32B55E"/>
<path d="M74.2527 79.7891L134.353 104.489L145.398 79.7891H74.2527Z" fill="#18A1CE"/>
<path d="M56.385 12.1904L70.6791 75.2395L16.7515 49.5649L56.385 12.1904Z" fill="#EF4B5A"/>
<path d="M118.434 25.8398L74.2527 76.5391L126.881 68.7392L118.434 25.8398Z" fill="#537DBF"/>
<path d="M42.89 96.4084H61.0571L49.9773 120.334H32.3059C25.5097 120.334 20 114.822 20 108.023V98.684L42.89 89.8662V96.4084Z" fill="url(#paint2_linear_184_658)"/>
<path d="M120 98.5898V108.023C120 114.822 114.491 120.334 107.694 120.334H105.965L84.5276 96.4084H97.1103V89.1831L120 98.5898Z" fill="url(#paint3_linear_184_658)"/>
<path d="M49.4107 65.1136L42.8906 71.5915V81.3283L20 82.6757V68.3356C20 64.5787 21.4944 60.9778 24.1453 58.3193L27.6857 54.771L49.41 65.1143L49.4107 65.1136Z" fill="url(#paint4_linear_184_658)"/>
<path d="M120 79.7894H97.1101V73.1517L120 69.7588V79.7894Z" fill="url(#paint5_linear_184_658)"/>
<path d="M101.98 44.7204L87.0912 61.8061L76.2712 51.2392L86.3622 29.3364L101.98 44.7204Z" fill="url(#paint6_linear_184_658)"/>
<path d="M58.9561 23.5355C63.8511 19.4594 78.3525 10.1425 83.9986 12.5156L73.6029 51.515L64.8952 49.7308L58.9561 23.5355Z" fill="url(#paint7_linear_184_658)"/>
<path d="M13.5839 50.0842L4.40259 77.3423L53.6597 93.9468L62.8411 66.6887L13.5839 50.0842Z" fill="url(#paint8_linear_184_658)"/>
<path d="M12.2981 115.362L50.8622 81.4136L72.6282 96.3634L34.8944 136.58L12.2981 115.362Z" fill="url(#paint9_linear_184_658)"/>
<path d="M127.928 56.0642L78.4758 63.6416L82.331 88.8217L131.784 81.2443L127.928 56.0642Z" fill="url(#paint10_linear_184_658)" fill-opacity="0.5"/>
<path d="M80.0225 18.2894L68.7068 69.0415L95.2553 74.9655L106.571 24.2135L80.0225 18.2894Z" fill="url(#paint11_linear_184_658)"/>
<path d="M46.0873 136.788C58.9169 127.533 63.296 111.677 55.8684 101.373C48.4408 91.0679 32.0191 90.217 19.1896 99.4719C6.3601 108.727 1.98098 124.583 9.40858 134.888C16.8362 145.192 33.2578 146.043 46.0873 136.788Z" fill="url(#paint12_radial_184_658)"/>
<path d="M28.8822 118.219C44.5865 116.332 56.0903 104.578 54.5765 91.9643C53.0628 79.3506 39.1047 70.6542 23.4004 72.5403C7.69599 74.4265 -3.80777 86.181 -2.29401 98.7947C-0.780246 111.408 13.1778 120.105 28.8822 118.219Z" fill="url(#paint13_radial_184_658)"/>
</g>
<defs>
<clipPath id="paint0_angular_184_658_clip_path"><rect width="140" height="140" rx="20"/></clipPath><linearGradient id="paint1_linear_184_658" x1="59.9266" y1="37.9497" x2="55.961" y2="41.0706" gradientUnits="userSpaceOnUse">
<stop stop-color="#D769A9"/>
<stop offset="1" stop-color="#EF4B5A"/>
</linearGradient>
<linearGradient id="paint2_linear_184_658" x1="35.6851" y1="101.533" x2="49.6585" y2="112.252" gradientUnits="userSpaceOnUse">
<stop stop-color="#FCC010"/>
<stop offset="1" stop-color="#32B55E"/>
</linearGradient>
<linearGradient id="paint3_linear_184_658" x1="108.454" y1="95.3782" x2="98.3777" y2="109.674" gradientUnits="userSpaceOnUse">
<stop stop-color="#18A1CE"/>
<stop offset="1" stop-color="#32B55E"/>
</linearGradient>
<linearGradient id="paint4_linear_184_658" x1="34.96" y1="62.1828" x2="33.9847" y2="78.7576" gradientUnits="userSpaceOnUse">
<stop stop-color="#EF4647"/>
<stop offset="1" stop-color="#FCC010"/>
</linearGradient>
<linearGradient id="paint5_linear_184_658" x1="108.118" y1="71.5645" x2="109.093" y2="78.7143" gradientUnits="userSpaceOnUse">
<stop stop-color="#537DBF"/>
<stop offset="1" stop-color="#18A1CE"/>
</linearGradient>
<linearGradient id="paint6_linear_184_658" x1="83.9835" y1="43.1598" x2="94.7078" y2="52.5804" gradientUnits="userSpaceOnUse">
<stop stop-color="#D769A9"/>
<stop offset="1" stop-color="#537DBF"/>
</linearGradient>
<linearGradient id="paint7_linear_184_658" x1="73.4892" y1="31.9542" x2="63.0935" y2="32.2789" gradientUnits="userSpaceOnUse">
<stop stop-color="#D769A9"/>
<stop offset="1" stop-color="#EF4B5A"/>
</linearGradient>
<linearGradient id="paint8_linear_184_658" x1="38.2125" y1="58.3865" x2="29.0246" y2="85.6423" gradientUnits="userSpaceOnUse">
<stop stop-color="#EF4B5A"/>
<stop offset="1" stop-color="#FABE0F"/>
</linearGradient>
<linearGradient id="paint9_linear_184_658" x1="34.0472" y1="96.1196" x2="52.5483" y2="117.52" gradientUnits="userSpaceOnUse">
<stop stop-color="#FCC010"/>
<stop offset="1" stop-color="#32B55E"/>
</linearGradient>
<linearGradient id="paint10_linear_184_658" x1="103.202" y1="59.8529" x2="107.06" y2="85.0326" gradientUnits="userSpaceOnUse">
<stop stop-color="#547DBF"/>
<stop offset="1" stop-color="#18A1CE"/>
</linearGradient>
<linearGradient id="paint11_linear_184_658" x1="76.3579" y1="41.7927" x2="97.0219" y2="50.6413" gradientUnits="userSpaceOnUse">
<stop stop-color="#D669A8"/>
<stop offset="1" stop-color="#577DBE"/>
</linearGradient>
<radialGradient id="paint12_radial_184_658" cx="0" cy="0" r="1" gradientTransform="matrix(13.4489 18.6582 23.2299 -16.7576 32.6735 118.093)" gradientUnits="userSpaceOnUse">
<stop stop-color="#A5CE3D"/>
<stop offset="1" stop-color="#A5CE3D" stop-opacity="0"/>
</radialGradient>
<radialGradient id="paint13_radial_184_658" cx="0" cy="0" r="1" gradientTransform="matrix(2.74091 22.8392 28.4353 -3.41522 26.1925 95.3814)" gradientUnits="userSpaceOnUse">
<stop stop-color="#FACD0C"/>
<stop offset="1" stop-color="#FACD0C" stop-opacity="0"/>
</radialGradient>
</defs>
</svg>
