<svg width="140" height="140" viewBox="0 0 140 140" fill="none" xmlns="http://www.w3.org/2000/svg">
<rect width="140" height="140" rx="20" fill="#243C68"/>
<path d="M123.827 63.076C123.633 61.0931 123.31 58.8176 122.663 56.2821C122.016 53.7791 121.047 51.016 119.624 48.1554C118.201 45.2948 116.358 42.3366 113.966 39.4435C113.028 38.3058 111.994 37.2006 110.894 36.1278C112.543 29.5289 108.89 23.8077 108.89 23.8077C102.585 23.4176 98.5758 25.7906 97.0885 26.8634C96.8299 26.7658 96.6036 26.6358 96.3449 26.5383C95.278 26.1157 94.1787 25.6931 93.0147 25.3355C91.8831 24.978 90.7191 24.6529 89.5229 24.3603C88.3266 24.0678 87.1303 23.8402 85.9017 23.6452C85.6754 23.6127 85.4814 23.5802 85.2551 23.5477C82.5068 14.7058 74.6178 11 74.6178 11C65.7912 16.6237 64.1423 24.4904 64.1423 24.4904C64.1423 24.4904 64.11 24.6529 64.0453 24.9455C63.5603 25.0755 63.0753 25.238 62.5904 25.368C61.9114 25.5631 61.2324 25.8231 60.5858 26.0832C59.9068 26.3433 59.2602 26.6033 58.5812 26.8959C57.2556 27.481 55.93 28.1311 54.6367 28.8463C53.3757 29.5614 52.1471 30.3416 50.9508 31.1543C50.7892 31.0893 50.6275 31.0242 50.6275 31.0242C38.406 26.3432 27.5748 31.9669 27.5748 31.9669C26.5725 45.0347 32.457 53.259 33.6209 54.7543C33.3299 55.5669 33.0713 56.3796 32.8126 57.1923C31.9073 60.1504 31.2284 63.1735 30.808 66.3267C30.7434 66.7818 30.6787 67.2369 30.6464 67.692C19.3302 73.3157 16 84.7906 16 84.7906C25.4086 95.6804 36.4015 96.3631 36.4015 96.3631L36.4338 96.3306C37.8241 98.8336 39.4407 101.207 41.2513 103.45C42.0272 104.392 42.8032 105.27 43.6438 106.148C40.2166 116.03 44.1288 124.221 44.1288 124.221C54.6044 124.612 61.4911 119.606 62.946 118.468C63.9806 118.825 65.0476 119.15 66.1145 119.41C69.3477 120.256 72.6456 120.743 75.9434 120.873C76.7517 120.906 77.5924 120.938 78.4007 120.906H79.5646L80.0819 120.873V120.906C85.0287 127.992 93.6937 129 93.6937 129C99.8691 122.466 100.225 115.965 100.225 114.567C100.225 114.567 100.225 114.534 100.225 114.469C100.225 114.339 100.225 114.274 100.225 114.274C100.225 114.177 100.225 114.079 100.225 113.982C101.518 113.072 102.747 112.096 103.911 111.024C106.368 108.781 108.534 106.213 110.345 103.45C110.506 103.19 110.668 102.929 110.83 102.669C117.813 103.06 122.76 98.3135 122.76 98.3135C121.596 90.9995 117.458 87.4237 116.585 86.741C116.585 86.741 116.552 86.7085 116.488 86.676C116.423 86.6435 116.423 86.611 116.423 86.611C116.391 86.5785 116.326 86.546 116.261 86.5135C116.294 86.0584 116.326 85.6358 116.358 85.1807C116.423 84.4005 116.423 83.5879 116.423 82.8077V81.7675C116.423 81.5724 116.423 81.6375 116.423 81.5724L116.391 81.0848L116.358 80.4347C116.358 80.2072 116.326 80.0121 116.294 79.8171C116.261 79.622 116.261 79.3945 116.229 79.1994L116.164 78.5818L116.067 77.9642C115.938 77.1515 115.809 76.3713 115.615 75.5587C114.871 72.4055 113.643 69.4149 112.058 66.7168C110.442 64.0187 108.437 61.6457 106.141 59.6303C103.878 57.6149 101.324 55.9895 98.6728 54.7868C95.9893 53.584 93.2087 52.8039 90.4282 52.4463C89.0379 52.2512 87.6476 52.1862 86.2573 52.2187H85.6107C85.5784 52.2187 85.4167 52.2187 85.449 52.2187H85.2227L84.7054 52.2512C84.5114 52.2512 84.3174 52.2837 84.1558 52.2837C83.4445 52.3488 82.7332 52.4463 82.0542 52.5763C79.2736 53.0964 76.6547 54.1041 74.3592 55.5019C72.0636 56.8997 70.059 58.6226 68.4424 60.573C66.8258 62.5234 65.5649 64.7014 64.6919 66.9444C63.819 69.1873 63.334 71.5278 63.2047 73.7708C63.1723 74.3234 63.1723 74.9085 63.1723 75.4612C63.1723 75.5912 63.1723 75.7537 63.1723 75.8837L63.2047 76.3388C63.237 76.5989 63.237 76.8915 63.2693 77.1515C63.3663 78.2893 63.5926 79.3945 63.8836 80.4347C64.4979 82.5477 65.4679 84.4656 66.6642 86.0909C67.8605 87.7162 69.3154 89.049 70.835 90.1218C72.3546 91.162 74.0035 91.9096 75.6201 92.3972C77.2367 92.8848 78.8533 93.0799 80.3729 93.0799C80.5669 93.0799 80.7609 93.0799 80.9226 93.0799C81.0196 93.0799 81.1166 93.0799 81.2136 93.0799C81.3106 93.0799 81.4076 93.0799 81.5045 93.0474C81.6662 93.0474 81.8279 93.0149 81.9895 93.0149C82.0219 93.0149 82.0865 93.0149 82.1189 92.9824L82.2805 92.9499C82.3775 92.9499 82.4745 92.9174 82.5715 92.9174C82.7655 92.8848 82.9271 92.8523 83.1211 92.8198C83.3151 92.7873 83.4768 92.7548 83.6385 92.6898C83.9941 92.6248 84.3174 92.4948 84.6407 92.3972C85.2874 92.1697 85.934 91.9096 86.4837 91.6171C87.0656 91.3245 87.5829 90.9669 88.1003 90.6419C88.2296 90.5443 88.3912 90.4468 88.5206 90.3168C89.0379 89.8942 89.1349 89.114 88.7146 88.5939C88.3589 88.1388 87.7123 88.0088 87.195 88.3014C87.0656 88.3664 86.9363 88.4314 86.807 88.4964C86.3543 88.724 85.9017 88.919 85.4167 89.0815C84.9317 89.2441 84.4144 89.3741 83.8971 89.4716C83.6385 89.5041 83.3798 89.5366 83.0888 89.5691C82.9595 89.5691 82.8301 89.6017 82.6685 89.6017C82.5392 89.6017 82.3775 89.6017 82.2805 89.6017C82.1512 89.6017 82.0219 89.6017 81.8925 89.6017C81.7309 89.6017 81.5692 89.6017 81.4075 89.5691C81.4075 89.5691 81.3105 89.5691 81.3752 89.5691H81.2136C81.1489 89.5691 81.0519 89.5691 80.9872 89.5366C80.8256 89.5041 80.6962 89.5041 80.5346 89.4716C79.3383 89.3091 78.142 88.9515 77.0104 88.4314C75.8464 87.9113 74.7472 87.1961 73.7449 86.2859C72.7426 85.3758 71.8696 84.303 71.1906 83.0678C70.5117 81.8325 70.0267 80.4672 69.8004 79.0369C69.7034 78.3218 69.6387 77.5741 69.671 76.859C69.671 76.6639 69.7034 76.4689 69.7034 76.2738C69.7034 76.3388 69.7034 76.2413 69.7034 76.2413V76.0138C69.7034 75.9163 69.7357 75.8187 69.7357 75.7212C69.768 75.3311 69.8327 74.941 69.8974 74.551C70.447 71.4303 71.9989 68.3747 74.3915 66.0667C75.0058 65.4815 75.6525 64.9614 76.3314 64.4738C77.0104 63.9862 77.754 63.5636 78.53 63.2061C79.306 62.8485 80.0819 62.5559 80.9226 62.3284C81.7309 62.1008 82.5715 61.9708 83.4445 61.8733C83.8648 61.8408 84.2851 61.8083 84.7377 61.8083C84.8671 61.8083 84.9317 61.8083 85.0287 61.8083H85.6107C85.7077 61.8083 85.6107 61.8083 85.643 61.8083H85.74L86.0957 61.8408C87.0333 61.9058 87.9386 62.0358 88.8439 62.2634C90.6545 62.6534 92.4327 63.3361 94.0817 64.2463C97.3795 66.0992 100.192 68.9598 101.906 72.4055C102.779 74.1284 103.393 75.9813 103.684 77.8992C103.749 78.3868 103.814 78.8744 103.846 79.362L103.911 80.0771C103.911 80.2072 103.911 80.3372 103.911 80.4347C103.911 80.5647 103.911 80.6948 103.911 80.7923V81.4749C103.911 81.7025 103.878 82.0926 103.878 82.3201C103.846 82.8402 103.781 83.3928 103.717 83.9129C103.652 84.4331 103.555 84.9532 103.458 85.4733C103.361 85.9934 103.232 86.5135 103.102 87.0011C102.844 88.0088 102.52 89.0165 102.132 90.0242C101.356 91.9747 100.322 93.8601 99.0931 95.5829C96.6036 99.0287 93.2087 101.824 89.3289 103.612C87.389 104.49 85.352 105.14 83.2505 105.465C82.2158 105.66 81.1489 105.758 80.0819 105.79H78.5947C78.724 105.79 78.5623 105.79 78.5623 105.79H78.4653C77.8834 105.79 77.3337 105.758 76.7517 105.693C74.4885 105.53 72.2576 105.107 70.059 104.49C67.8928 103.872 65.7912 102.994 63.7866 101.954C59.8098 99.8088 56.221 96.8832 53.4404 93.3399C52.0501 91.5846 50.8215 89.6667 49.8192 87.6837C48.8169 85.7008 48.0086 83.5879 47.4267 81.4749C46.8447 79.3295 46.489 77.1515 46.3274 74.941L46.295 74.5185V72.6656C46.295 72.6656 46.295 72.6981 46.295 72.6331V72.438C46.295 72.178 46.295 71.8854 46.295 71.6253C46.3274 70.5526 46.4244 69.4149 46.5537 68.3096C46.683 67.2044 46.877 66.0667 47.1033 64.9614C47.3297 63.8562 47.5883 62.751 47.9116 61.6457C48.5259 59.4678 49.3019 57.3548 50.2072 55.3719C52.0501 51.4061 54.4427 47.8628 57.3202 45.0347C58.0315 44.3196 58.7752 43.6694 59.5511 43.0193C60.3271 42.4017 61.1354 41.8165 61.976 41.2639C62.7843 40.7113 63.6573 40.2237 64.5303 39.7686C64.9506 39.541 65.4032 39.3135 65.8559 39.1185C66.0822 39.0209 66.3085 38.9234 66.5348 38.8259C66.7612 38.7284 66.9875 38.6309 67.2138 38.5333C68.1191 38.1432 69.0567 37.8182 70.0267 37.5256C70.253 37.4606 70.5117 37.3956 70.738 37.2981C70.9643 37.2331 71.223 37.168 71.4493 37.103C71.9343 36.973 72.4193 36.843 72.9042 36.7455C73.1306 36.6804 73.3892 36.6479 73.6479 36.5829C73.9065 36.5179 74.1329 36.4854 74.3915 36.4204C74.6502 36.3879 74.8765 36.3229 75.1351 36.2904L75.4908 36.2253L75.8788 36.1603C76.1374 36.1278 76.3638 36.0953 76.6224 36.0628C76.9134 36.0303 77.1721 35.9978 77.4631 35.9653C77.6894 35.9328 78.0774 35.9003 78.3037 35.8678C78.4653 35.8353 78.6593 35.8353 78.821 35.8028L79.1766 35.7702L79.3383 35.7377H79.5323C79.8233 35.7052 80.0819 35.7052 80.3729 35.6727L80.7932 35.6402C80.7932 35.6402 80.9549 35.6402 80.8256 35.6402H81.1166C81.3429 35.6402 81.6015 35.6077 81.8279 35.6077C82.7655 35.5752 83.7354 35.5752 84.6731 35.6077C86.5483 35.6727 88.3912 35.9003 90.1695 36.2253C93.7583 36.908 97.1209 38.0457 100.192 39.5736C103.264 41.0689 105.98 42.9218 108.372 44.9372C108.534 45.0672 108.663 45.1972 108.825 45.3273C108.954 45.4573 109.116 45.5873 109.245 45.7174C109.536 45.9774 109.795 46.2375 110.086 46.4975C110.377 46.7576 110.636 47.0176 110.894 47.2777C111.153 47.5377 111.412 47.7978 111.67 48.0904C112.673 49.1631 113.61 50.2358 114.451 51.341C116.132 53.519 117.49 55.7295 118.557 57.8099C118.622 57.9399 118.686 58.07 118.751 58.2C118.816 58.33 118.88 58.4601 118.945 58.5901C119.074 58.8501 119.204 59.1102 119.301 59.3702C119.43 59.6303 119.527 59.8579 119.656 60.1179C119.753 60.378 119.883 60.6055 119.98 60.8656C120.368 61.8408 120.756 62.7835 121.047 63.6612C121.532 65.0915 121.887 66.3592 122.178 67.4645C122.275 67.9196 122.695 68.2121 123.148 68.1471C123.633 68.1146 123.989 67.7245 123.989 67.2369C124.021 66.0667 123.989 64.6689 123.827 63.076Z" fill="url(#paint0_linear_230_11)"/>
<defs>
<linearGradient id="paint0_linear_230_11" x1="69.9944" y1="46.27" x2="69.9944" y2="128.139" gradientUnits="userSpaceOnUse">
<stop stop-color="#F05A28"/>
<stop offset="1" stop-color="#FBCA0A"/>
</linearGradient>
</defs>
</svg>
