<svg width="140" height="140" viewBox="0 0 140 140" fill="none" xmlns="http://www.w3.org/2000/svg">
<rect width="140" height="140" rx="20" fill="#E535AB"/>
<path fill-rule="evenodd" clip-rule="evenodd" d="M78.5439 31.4596L99.1061 43.332C99.6998 42.7038 100.381 42.1647 101.129 41.7313C105.393 39.2798 110.832 40.7353 113.309 45C115.761 49.2646 114.305 54.7037 110.041 57.1807C109.299 57.6081 108.499 57.9266 107.666 58.1262V81.8796C108.49 82.0796 109.281 82.396 110.015 82.8189C114.305 85.296 115.761 90.7353 113.284 95C110.832 99.2643 105.368 100.72 101.103 98.2687C100.277 97.7946 99.5325 97.1904 98.8989 96.4793L78.4619 108.279C78.7612 109.185 78.9132 110.133 78.9121 111.088C78.9121 115.991 74.9287 120 70 120C65.0713 120 61.088 116.016 61.088 111.088C61.088 110.212 61.2138 109.365 61.4485 108.566L40.8918 96.6973C40.3047 97.3129 39.633 97.842 38.897 98.2687C34.607 100.72 29.1676 99.2643 26.716 95C24.2647 90.7353 25.7203 85.296 29.9846 82.8189C30.7192 82.3959 31.5103 82.0795 32.3341 81.8793V58.1262C31.5011 57.9266 30.7014 57.6081 29.9592 57.1807C25.6946 54.7294 24.2389 49.2646 26.6906 45C29.1422 40.7353 34.6066 39.2798 38.8713 41.7313C39.6149 42.1624 40.2928 42.698 40.8842 43.3219L61.4523 31.4464C61.2098 30.6235 61.0872 29.77 61.088 28.9121C61.088 23.9841 65.0713 20 70 20C74.9287 20 78.9121 23.9837 78.9121 28.9121C78.9121 29.7979 78.7834 30.6527 78.5439 31.4596ZM76.4016 35.1176L97.0129 47.0178C96.6847 48.165 96.5906 49.3666 96.7361 50.551C96.8817 51.7354 97.2639 52.8783 97.8601 53.912C99.1148 56.0946 101.159 57.5416 103.427 58.1054V81.8883C103.311 81.9164 103.196 81.9474 103.082 81.9801L76.1621 35.3558C76.2435 35.2779 76.3234 35.1983 76.4016 35.1176ZM63.8435 35.361L36.9241 81.9846C36.8076 81.951 36.6906 81.9196 36.5729 81.8907V58.1054C38.8414 57.5416 40.8852 56.0946 42.1399 53.912C42.7373 52.8764 43.1199 51.731 43.2649 50.5442C43.4099 49.3574 43.3142 48.1535 42.9836 47.0046L63.5889 35.1079C63.672 35.1938 63.7568 35.2786 63.8435 35.361ZM72.4902 37.473L99.4034 84.0861C98.7868 84.6744 98.2584 85.3485 97.8344 86.0876C97.4114 86.8222 97.0951 87.6132 96.895 88.437H43.1057C42.9053 87.6132 42.5888 86.8222 42.1656 86.0876C41.7401 85.3536 41.2126 84.6836 40.5991 84.0976L67.5175 37.4751C68.3244 37.7075 69.1602 37.8249 70 37.8241C70.8646 37.8241 71.7001 37.7018 72.4902 37.473ZM76.5908 105.084L97.0681 93.2607C97.0068 93.0677 96.952 92.8727 96.9037 92.6759H43.0942C43.0657 92.7917 43.0348 92.9064 43.0017 93.0209L63.5792 104.902C64.4102 104.038 65.4074 103.351 66.5109 102.882C67.6143 102.414 68.8012 102.173 70 102.175C71.2407 102.173 72.4682 102.431 73.6033 102.932C74.7384 103.433 75.7561 104.166 76.5908 105.084Z" fill="white"/>
</svg>
