<svg width="325" height="140" viewBox="0 0 325 140" fill="none" xmlns="http://www.w3.org/2000/svg">
<rect width="324.073" height="140" rx="20" fill="#E03875"/>
<path d="M70.0473 120C61.9031 120 53.9014 118.022 46.7017 114.226C39.502 110.43 33.3359 104.941 28.7381 98.2226C24.1402 91.5041 21.2532 83.7697 20.3265 75.6968C19.3998 67.606 20.4513 59.4261 23.4096 51.8522C26.3679 44.2782 31.1261 37.5241 37.2743 32.1956C43.4226 26.8671 50.7827 23.1246 58.7131 21.2891C66.6435 19.4535 74.8946 19.5782 82.7537 21.6633C90.6128 23.7484 97.866 27.7047 103.854 33.2114L91.985 45.6148C87.2624 41.3556 81.4171 38.5577 75.1441 37.5597C68.8711 36.5617 62.4377 37.3993 56.628 39.9834C50.8184 42.5674 45.8819 46.7732 42.4246 52.1017C38.9674 57.4302 37.114 63.6497 37.114 70.0119C37.114 76.374 38.9495 82.5935 42.4246 87.922C45.8819 93.2505 50.8184 97.4563 56.628 100.04C62.4377 102.624 68.8711 103.462 75.1441 102.464C81.4171 101.466 87.2803 98.6681 91.985 94.4089L103.854 106.812C94.6404 115.295 82.5577 120.018 70.0295 120H70.0473Z" fill="white"/>
<path d="M110.269 94.997C109.468 94.997 108.666 94.7653 107.988 94.3019C107.311 93.8564 106.794 93.2149 106.474 92.4664C106.171 91.7179 106.081 90.8981 106.242 90.0962C106.402 89.2942 106.794 88.5636 107.365 87.9933C107.935 87.423 108.666 87.0309 109.468 86.8705C110.269 86.7102 111.089 86.7993 111.838 87.1022C112.586 87.4052 113.228 87.9398 113.673 88.617C114.119 89.2942 114.368 90.0783 114.368 90.8981C114.368 91.9852 113.941 93.0188 113.174 93.7851C112.408 94.5514 111.357 94.9791 110.287 94.9791L110.269 94.997Z" fill="white"/>
<path d="M69.7265 80.8287C67.588 80.8287 65.4851 80.205 63.703 79.0288C61.9209 77.8348 60.513 76.1596 59.6933 74.1815C58.8735 72.2033 58.6418 70.0292 59.0517 67.9263C59.4616 65.8234 60.4952 63.8809 62.01 62.3661C63.5248 60.8513 65.4495 59.8177 67.5523 59.39C69.6552 58.9623 71.8294 59.1761 73.8254 59.9959C75.8035 60.8157 77.4965 62.2057 78.6905 63.9878C79.8845 65.7699 80.5083 67.8728 80.5083 70.0113C80.5083 72.8805 79.3677 75.625 77.3539 77.6388C75.3402 79.6704 72.5957 80.8109 69.7265 80.8287Z" fill="white"/>
<path d="M114.974 81.0263C114.172 81.0263 113.37 80.7946 112.693 80.3312C112.016 79.8857 111.499 79.2441 111.178 78.4957C110.875 77.7472 110.786 76.9274 110.947 76.1255C111.107 75.3235 111.499 74.5928 112.069 74.0226C112.64 73.4523 113.37 73.0602 114.172 72.8998C114.974 72.7395 115.794 72.8286 116.543 73.1315C117.291 73.4345 117.933 73.9691 118.378 74.6463C118.824 75.3235 119.073 76.1076 119.073 76.9274C119.073 78.0145 118.645 79.0481 117.879 79.8144C117.113 80.5807 116.061 81.0084 114.992 81.0084L114.974 81.0263Z" fill="white"/>
<path d="M102.785 80.5256C101.965 80.5256 101.181 80.2761 100.503 79.8306C99.8263 79.3851 99.3095 78.7435 98.9887 77.9772C98.6857 77.2287 98.5966 76.3911 98.757 75.607C98.9174 74.8051 99.3095 74.0744 99.8976 73.5041C100.468 72.9339 101.216 72.5418 102 72.3992C102.802 72.2388 103.622 72.3279 104.371 72.6487C105.119 72.9695 105.761 73.5041 106.206 74.1813C106.652 74.8585 106.883 75.6605 106.866 76.4624C106.866 77.5495 106.42 78.5653 105.654 79.3316C104.887 80.0979 103.854 80.5078 102.767 80.5078L102.785 80.5256Z" fill="white"/>
<path d="M114.974 67.2147C114.172 67.2147 113.37 66.9652 112.693 66.5197C112.016 66.0742 111.499 65.4326 111.178 64.6841C110.875 63.9357 110.786 63.1159 110.947 62.3139C111.107 61.512 111.499 60.7813 112.069 60.211C112.64 59.6408 113.37 59.2487 114.172 59.0883C114.974 58.9279 115.794 59.017 116.543 59.32C117.291 59.623 117.933 60.1576 118.378 60.8348C118.824 61.512 119.073 62.2961 119.073 63.1159C119.073 64.203 118.645 65.2366 117.879 66.0029C117.113 66.7692 116.061 67.1969 114.992 67.1969L114.974 67.2147Z" fill="white"/>
<path d="M102.785 67.6776C101.983 67.6776 101.181 67.4459 100.503 66.9826C99.8263 66.5371 99.3095 65.8955 98.9887 65.147C98.6857 64.3985 98.5966 63.5788 98.757 62.7768C98.9174 61.9749 99.3095 61.2442 99.8798 60.6739C100.45 60.1037 101.181 59.7116 101.983 59.5512C102.785 59.3908 103.604 59.4799 104.353 59.7829C105.101 60.0858 105.743 60.6205 106.188 61.2977C106.634 61.9749 106.883 62.759 106.883 63.5788C106.883 64.6659 106.456 65.6995 105.689 66.4836C104.923 67.2499 103.872 67.6776 102.785 67.6776Z" fill="white"/>
<path d="M110.501 53.4381C109.699 53.4381 108.897 53.2064 108.22 52.7609C107.543 52.3154 107.026 51.6738 106.705 50.9253C106.403 50.1769 106.313 49.3571 106.474 48.5551C106.634 47.7532 107.026 47.0225 107.597 46.4523C108.167 45.882 108.897 45.4899 109.699 45.3295C110.501 45.1691 111.321 45.2582 112.07 45.5612C112.818 45.8642 113.46 46.3988 113.905 47.076C114.351 47.7532 114.6 48.5373 114.6 49.3571C114.6 50.4442 114.173 51.4778 113.406 52.2441C112.64 53.0104 111.606 53.4381 110.519 53.4559L110.501 53.4381Z" fill="white"/>
<path d="M180.794 64.7305H173.794C173.667 63.8249 173.406 63.0206 173.011 62.3175C172.617 61.6037 172.111 60.9964 171.493 60.4957C170.875 59.995 170.162 59.6115 169.352 59.3452C168.553 59.0788 167.685 58.9457 166.747 58.9457C165.053 58.9457 163.578 59.3665 162.321 60.2081C161.064 61.0391 160.089 62.2536 159.396 63.8516C158.704 65.4389 158.358 67.3672 158.358 69.6364C158.358 71.9695 158.704 73.9297 159.396 75.517C160.1 77.1044 161.08 78.3029 162.337 79.1126C163.594 79.9222 165.048 80.3271 166.699 80.3271C167.626 80.3271 168.484 80.2045 169.272 79.9595C170.071 79.7145 170.78 79.3576 171.397 78.8888C172.015 78.4094 172.527 77.8288 172.932 77.147C173.347 76.4652 173.635 75.6875 173.794 74.8139L180.794 74.8459C180.613 76.348 180.16 77.7969 179.435 79.1925C178.722 80.5774 177.758 81.8185 176.543 82.9158C175.339 84.0025 173.901 84.8654 172.228 85.5046C170.566 86.1332 168.686 86.4474 166.587 86.4474C163.668 86.4474 161.058 85.7869 158.757 84.4659C156.467 83.1449 154.656 81.2326 153.324 78.729C152.003 76.2255 151.342 73.1946 151.342 69.6364C151.342 66.0675 152.014 63.0312 153.356 60.5277C154.698 58.0241 156.52 56.1172 158.821 54.8068C161.122 53.4858 163.711 52.8253 166.587 52.8253C168.484 52.8253 170.242 53.0916 171.861 53.6243C173.491 54.157 174.934 54.9347 176.191 55.9574C177.449 56.9695 178.471 58.2106 179.26 59.6808C180.059 61.1509 180.57 62.8342 180.794 64.7305ZM196.718 86.4794C194.236 86.4794 192.089 85.9521 190.278 84.8974C188.478 83.832 187.087 82.3512 186.107 80.4549C185.127 78.5479 184.637 76.3374 184.637 73.8232C184.637 71.2876 185.127 69.0717 186.107 67.1754C187.087 65.2685 188.478 63.7876 190.278 62.733C192.089 61.6676 194.236 61.1349 196.718 61.1349C199.2 61.1349 201.342 61.6676 203.142 62.733C204.953 63.7876 206.349 65.2685 207.329 67.1754C208.309 69.0717 208.799 71.2876 208.799 73.8232C208.799 76.3374 208.309 78.5479 207.329 80.4549C206.349 82.3512 204.953 83.832 203.142 84.8974C201.342 85.9521 199.2 86.4794 196.718 86.4794ZM196.75 81.206C197.879 81.206 198.822 80.8864 199.578 80.2472C200.335 79.5973 200.905 78.7131 201.288 77.5945C201.682 76.4759 201.88 75.2028 201.88 73.7752C201.88 72.3477 201.682 71.0746 201.288 69.956C200.905 68.8374 200.335 67.9531 199.578 67.3033C198.822 66.6534 197.879 66.3285 196.75 66.3285C195.61 66.3285 194.651 66.6534 193.873 67.3033C193.106 67.9531 192.526 68.8374 192.132 69.956C191.748 71.0746 191.556 72.3477 191.556 73.7752C191.556 75.2028 191.748 76.4759 192.132 77.5945C192.526 78.7131 193.106 79.5973 193.873 80.2472C194.651 80.8864 195.61 81.206 196.75 81.206ZM220.033 71.8097V86H213.225V61.4545H219.713V65.7852H220.001C220.544 64.3576 221.455 63.2283 222.734 62.3974C224.012 61.5558 225.562 61.1349 227.384 61.1349C229.088 61.1349 230.574 61.5078 231.842 62.2536C233.11 62.9993 234.095 64.0646 234.799 65.4496C235.502 66.8239 235.853 68.4645 235.853 70.3714V86H229.046V71.5859C229.056 70.0838 228.673 68.9119 227.895 68.0703C227.117 67.218 226.047 66.7919 224.683 66.7919C223.767 66.7919 222.957 66.989 222.254 67.3832C221.562 67.7773 221.018 68.3526 220.624 69.109C220.241 69.8548 220.044 70.755 220.033 71.8097ZM261.641 68.4538L255.409 68.8374C255.302 68.3047 255.073 67.8253 254.722 67.3991C254.37 66.9624 253.907 66.6161 253.331 66.3604C252.767 66.0941 252.09 65.9609 251.302 65.9609C250.247 65.9609 249.358 66.1847 248.633 66.6321C247.909 67.0689 247.547 67.6548 247.547 68.3899C247.547 68.9759 247.781 69.4712 248.25 69.8761C248.719 70.2809 249.523 70.6058 250.663 70.8509L255.105 71.7457C257.492 72.2358 259.271 73.0241 260.443 74.1108C261.615 75.1974 262.2 76.625 262.2 78.3935C262.2 80.0021 261.726 81.4137 260.778 82.6282C259.841 83.8427 258.552 84.7908 256.911 85.4727C255.281 86.1438 253.401 86.4794 251.27 86.4794C248.021 86.4794 245.432 85.8029 243.504 84.4499C241.586 83.0863 240.462 81.2326 240.132 78.8888L246.828 78.5373C247.03 79.5281 247.52 80.2844 248.298 80.8065C249.075 81.3178 250.072 81.5735 251.286 81.5735C252.479 81.5735 253.438 81.3445 254.162 80.8864C254.898 80.4176 255.27 79.8157 255.281 79.0806C255.27 78.4627 255.009 77.9567 254.498 77.5625C253.987 77.1577 253.198 76.8487 252.133 76.6357L247.882 75.7887C245.485 75.3093 243.701 74.4783 242.529 73.2958C241.368 72.1133 240.787 70.6058 240.787 68.7734C240.787 67.1967 241.213 65.8384 242.066 64.6985C242.928 63.5586 244.138 62.6797 245.693 62.0618C247.259 61.4439 249.091 61.1349 251.19 61.1349C254.29 61.1349 256.73 61.7901 258.509 63.1005C260.299 64.4109 261.343 66.1953 261.641 68.4538ZM282.228 75.549V61.4545H289.035V86H282.499V81.5415H282.244C281.69 82.9798 280.768 84.1357 279.479 85.0092C278.201 85.8828 276.64 86.3196 274.797 86.3196C273.156 86.3196 271.713 85.9467 270.466 85.201C269.22 84.4553 268.245 83.3952 267.542 82.021C266.849 80.6467 266.498 79.0007 266.487 77.0831V61.4545H273.295V75.8686C273.305 77.3175 273.694 78.4627 274.461 79.3043C275.228 80.146 276.256 80.5668 277.545 80.5668C278.366 80.5668 279.133 80.3803 279.847 80.0075C280.56 79.6239 281.136 79.0593 281.572 78.3136C282.02 77.5678 282.238 76.6463 282.228 75.549ZM301.288 53.2727V86H294.48V53.2727H301.288Z" fill="white"/>
</svg>
