<svg width="380" height="140" viewBox="0 0 380 140" fill="none" xmlns="http://www.w3.org/2000/svg">
<rect width="380" height="140" rx="20" fill="#14C6CB"/>
<path d="M120 37.5L107.5 59.2188L95 37.5H120Z" fill="white"/>
<path d="M53.2813 51.875H45L65.7813 87.9688L57.5 102.5L20 37.5H61.7188L82.5 73.5938L86.7188 66.4063L70 37.5H86.7188L95 51.875L103.281 66.25L82.5 102.5L53.2813 51.875Z" fill="white"/>
<path d="M160.211 86L150.847 53.2727H158.406L163.823 76.0124H164.094L170.071 53.2727H176.543L182.504 76.0604H182.791L188.208 53.2727H195.767L186.403 86H179.659L173.427 64.6026H173.171L166.955 86H160.211ZM203.705 86.4634C202.139 86.4634 200.744 86.1918 199.518 85.6484C198.293 85.0945 197.324 84.2795 196.61 83.2035C195.907 82.1168 195.555 80.7638 195.555 79.1445C195.555 77.7809 195.806 76.6357 196.306 75.7088C196.807 74.782 197.489 74.0362 198.352 73.4716C199.215 72.907 200.195 72.4808 201.292 72.1932C202.4 71.9055 203.561 71.7031 204.776 71.5859C206.203 71.4368 207.354 71.2983 208.228 71.1705C209.101 71.032 209.735 70.8295 210.129 70.5632C210.523 70.2969 210.72 69.9027 210.72 69.3807V69.2848C210.72 68.2727 210.401 67.4897 209.762 66.9357C209.133 66.3817 208.238 66.1048 207.077 66.1048C205.852 66.1048 204.877 66.3764 204.153 66.9197C203.428 67.4524 202.949 68.1236 202.714 68.9332L196.418 68.4219C196.738 66.9304 197.366 65.6413 198.304 64.5547C199.241 63.4574 200.451 62.6158 201.931 62.0298C203.423 61.4332 205.149 61.1349 207.109 61.1349C208.473 61.1349 209.778 61.2947 211.024 61.6143C212.281 61.9339 213.394 62.4293 214.364 63.1005C215.344 63.7717 216.116 64.6346 216.681 65.6893C217.246 66.7333 217.528 67.9851 217.528 69.4446V86H211.072V82.5962H210.88C210.486 83.3633 209.959 84.0398 209.298 84.6257C208.638 85.201 207.844 85.6538 206.917 85.984C205.99 86.3036 204.92 86.4634 203.705 86.4634ZM205.655 81.7653C206.656 81.7653 207.54 81.5682 208.307 81.174C209.074 80.7692 209.676 80.2259 210.113 79.544C210.55 78.8622 210.768 78.0898 210.768 77.2269V74.6222C210.555 74.7607 210.262 74.8885 209.889 75.0057C209.527 75.1122 209.117 75.2134 208.659 75.3093C208.201 75.3945 207.743 75.4744 207.285 75.549C206.827 75.6129 206.411 75.6715 206.038 75.7248C205.239 75.842 204.541 76.0284 203.945 76.2841C203.348 76.5398 202.885 76.886 202.555 77.3228C202.224 77.7489 202.059 78.2816 202.059 78.9208C202.059 79.8477 202.395 80.5561 203.066 81.0462C203.748 81.5256 204.611 81.7653 205.655 81.7653ZM226.133 95.2045C225.27 95.2045 224.461 95.1353 223.704 94.9968C222.959 94.869 222.341 94.7038 221.851 94.5014L223.385 89.4197C224.184 89.6648 224.903 89.7979 225.542 89.8192C226.192 89.8406 226.751 89.6914 227.22 89.3718C227.699 89.0522 228.088 88.5089 228.386 87.7418L228.786 86.7031L219.981 61.4545H227.14L232.222 79.4801H232.477L237.607 61.4545H244.814L235.274 88.6527C234.816 89.9737 234.193 91.1243 233.404 92.1044C232.627 93.0952 231.641 93.8569 230.448 94.3896C229.255 94.9329 227.816 95.2045 226.133 95.2045ZM248.298 95.2045V61.4545H255.009V65.5774H255.313C255.611 64.9169 256.043 64.2457 256.607 63.5639C257.183 62.8714 257.928 62.2962 258.845 61.8381C259.771 61.3693 260.922 61.1349 262.296 61.1349C264.086 61.1349 265.737 61.6037 267.25 62.5412C268.763 63.468 269.972 64.869 270.878 66.744C271.783 68.6083 272.236 70.9467 272.236 73.7592C272.236 76.4972 271.794 78.8089 270.91 80.6946C270.036 82.5696 268.843 83.9918 267.33 84.9613C265.828 85.9201 264.145 86.3995 262.28 86.3995C260.959 86.3995 259.835 86.1811 258.908 85.7443C257.992 85.3075 257.241 84.7589 256.655 84.0984C256.069 83.4272 255.622 82.7507 255.313 82.0689H255.105V95.2045H248.298ZM254.961 73.7273C254.961 75.1868 255.164 76.4599 255.569 77.5465C255.973 78.6332 256.559 79.4801 257.326 80.0874C258.093 80.6839 259.026 80.9822 260.123 80.9822C261.231 80.9822 262.168 80.6786 262.935 80.0714C263.703 79.4535 264.283 78.6012 264.677 77.5146C265.082 76.4173 265.285 75.1548 265.285 73.7273C265.285 72.3104 265.087 71.0639 264.693 69.9879C264.299 68.9119 263.718 68.0703 262.951 67.4631C262.184 66.8558 261.242 66.5522 260.123 66.5522C259.015 66.5522 258.078 66.8452 257.31 67.4311C256.554 68.017 255.973 68.848 255.569 69.924C255.164 71 254.961 72.2678 254.961 73.7273ZM287.864 86.4794C285.382 86.4794 283.236 85.9521 281.424 84.8974C279.624 83.832 278.234 82.3512 277.254 80.4549C276.274 78.5479 275.783 76.3374 275.783 73.8232C275.783 71.2876 276.274 69.0717 277.254 67.1754C278.234 65.2685 279.624 63.7876 281.424 62.733C283.236 61.6676 285.382 61.1349 287.864 61.1349C290.347 61.1349 292.488 61.6676 294.288 62.733C296.1 63.7876 297.495 65.2685 298.475 67.1754C299.455 69.0717 299.945 71.2876 299.945 73.8232C299.945 76.3374 299.455 78.5479 298.475 80.4549C297.495 82.3512 296.1 83.832 294.288 84.8974C292.488 85.9521 290.347 86.4794 287.864 86.4794ZM287.896 81.206C289.026 81.206 289.968 80.8864 290.725 80.2472C291.481 79.5973 292.051 78.7131 292.435 77.5945C292.829 76.4759 293.026 75.2028 293.026 73.7752C293.026 72.3477 292.829 71.0746 292.435 69.956C292.051 68.8374 291.481 67.9531 290.725 67.3033C289.968 66.6534 289.026 66.3285 287.896 66.3285C286.756 66.3285 285.798 66.6534 285.02 67.3033C284.253 67.9531 283.672 68.8374 283.278 69.956C282.895 71.0746 282.703 72.3477 282.703 73.7752C282.703 75.2028 282.895 76.4759 283.278 77.5945C283.672 78.7131 284.253 79.5973 285.02 80.2472C285.798 80.8864 286.756 81.206 287.896 81.206ZM304.372 86V61.4545H311.179V86H304.372ZM307.792 58.2905C306.78 58.2905 305.911 57.9549 305.187 57.2837C304.473 56.6019 304.116 55.7869 304.116 54.8388C304.116 53.9013 304.473 53.0969 305.187 52.4258C305.911 51.744 306.78 51.4031 307.792 51.4031C308.804 51.4031 309.667 51.744 310.38 52.4258C311.105 53.0969 311.467 53.9013 311.467 54.8388C311.467 55.7869 311.105 56.6019 310.38 57.2837C309.667 57.9549 308.804 58.2905 307.792 58.2905ZM323.44 71.8097V86H316.633V61.4545H323.121V65.7852H323.408C323.952 64.3576 324.862 63.2283 326.141 62.3974C327.419 61.5558 328.969 61.1349 330.791 61.1349C332.496 61.1349 333.982 61.5078 335.249 62.2536C336.517 62.9993 337.503 64.0646 338.206 65.4496C338.909 66.8239 339.26 68.4645 339.26 70.3714V86H332.453V71.5859C332.464 70.0838 332.08 68.9119 331.302 68.0703C330.525 67.218 329.454 66.7919 328.09 66.7919C327.174 66.7919 326.365 66.989 325.661 67.3832C324.969 67.7773 324.426 68.3526 324.031 69.109C323.648 69.8548 323.451 70.755 323.44 71.8097ZM357.682 61.4545V66.5682H342.9V61.4545H357.682ZM346.256 55.5739H353.063V78.4574C353.063 79.0859 353.159 79.576 353.351 79.9276C353.543 80.2685 353.809 80.5082 354.15 80.6467C354.502 80.7852 354.906 80.8544 355.364 80.8544C355.684 80.8544 356.004 80.8278 356.323 80.7745C356.643 80.7106 356.888 80.6626 357.058 80.6307L358.129 85.6964C357.788 85.8029 357.309 85.9254 356.691 86.0639C356.073 86.2131 355.322 86.3036 354.438 86.3356C352.797 86.3995 351.359 86.1811 350.123 85.6804C348.898 85.1797 347.944 84.402 347.263 83.3473C346.581 82.2926 346.245 80.9609 346.256 79.3523V55.5739Z" fill="white"/>
</svg>
