<svg width="285" height="140" viewBox="0 0 285 140" fill="none" xmlns="http://www.w3.org/2000/svg">
<rect width="285" height="140" rx="20" fill="#FFCF25"/>
<path d="M20 21.5L69.8211 118.5L120 21.5H20ZM62.0636 59.9986H54.1179V52.0691H62.0636V59.9986ZM62.0636 48.0949H54.1179V40.1466H62.0636V48.0949ZM73.9635 71.9212H66.0177V63.9728H73.9635V71.9212ZM73.9635 60.0175H66.0177V52.088H73.9635V60.0175ZM73.9635 48.1138H66.0177V40.1654H73.9635V48.1138ZM85.8068 60.0175H77.861V52.088H85.8068V60.0175ZM77.861 48.1138V40.1654H85.8068V48.1138H77.861Z" fill="white"/>
<path d="M158.757 53.2727L166.667 78.1378H166.971L174.897 53.2727H182.567L171.286 86H162.369L151.071 53.2727H158.757ZM190.653 86.4634C189.087 86.4634 187.692 86.1918 186.467 85.6484C185.241 85.0945 184.272 84.2795 183.558 83.2035C182.855 82.1168 182.504 80.7638 182.504 79.1445C182.504 77.7809 182.754 76.6357 183.255 75.7088C183.755 74.782 184.437 74.0362 185.3 73.4716C186.163 72.907 187.143 72.4808 188.24 72.1932C189.348 71.9055 190.51 71.7031 191.724 71.5859C193.152 71.4368 194.302 71.2983 195.176 71.1705C196.049 71.032 196.683 70.8295 197.077 70.5632C197.472 70.2969 197.669 69.9027 197.669 69.3807V69.2848C197.669 68.2727 197.349 67.4897 196.71 66.9357C196.081 66.3817 195.186 66.1048 194.025 66.1048C192.8 66.1048 191.825 66.3764 191.101 66.9197C190.376 67.4524 189.897 68.1236 189.663 68.9332L183.366 68.4219C183.686 66.9304 184.315 65.6413 185.252 64.5547C186.19 63.4574 187.399 62.6158 188.88 62.0298C190.371 61.4332 192.097 61.1349 194.057 61.1349C195.421 61.1349 196.726 61.2947 197.972 61.6143C199.229 61.9339 200.343 62.4293 201.312 63.1005C202.292 63.7717 203.065 64.6346 203.629 65.6893C204.194 66.7333 204.476 67.9851 204.476 69.4446V86H198.02V82.5962H197.828C197.434 83.3633 196.907 84.0398 196.246 84.6257C195.586 85.201 194.792 85.6538 193.865 85.984C192.939 86.3036 191.868 86.4634 190.653 86.4634ZM192.603 81.7653C193.604 81.7653 194.489 81.5682 195.256 81.174C196.023 80.7692 196.625 80.2259 197.061 79.544C197.498 78.8622 197.717 78.0898 197.717 77.2269V74.6222C197.504 74.7607 197.211 74.8885 196.838 75.0057C196.475 75.1122 196.065 75.2134 195.607 75.3093C195.149 75.3945 194.691 75.4744 194.233 75.549C193.775 75.6129 193.359 75.6715 192.987 75.7248C192.188 75.842 191.49 76.0284 190.893 76.2841C190.297 76.5398 189.833 76.886 189.503 77.3228C189.173 77.7489 189.007 78.2816 189.007 78.9208C189.007 79.8477 189.343 80.5561 190.014 81.0462C190.696 81.5256 191.559 81.7653 192.603 81.7653ZM225.498 75.549V61.4545H232.306V86H225.77V81.5415H225.514C224.96 82.9798 224.039 84.1357 222.749 85.0092C221.471 85.8828 219.91 86.3196 218.067 86.3196C216.427 86.3196 214.983 85.9467 213.737 85.201C212.49 84.4553 211.515 83.3952 210.812 82.021C210.12 80.6467 209.768 79.0007 209.758 77.0831V61.4545H216.565V75.8686C216.576 77.3175 216.965 78.4627 217.732 79.3043C218.499 80.146 219.527 80.5668 220.816 80.5668C221.636 80.5668 222.403 80.3803 223.117 80.0075C223.831 79.6239 224.406 79.0593 224.843 78.3136C225.29 77.5678 225.509 76.6463 225.498 75.549ZM244.558 53.2727V86H237.751V53.2727H244.558ZM263.067 61.4545V66.5682H248.286V61.4545H263.067ZM251.642 55.5739H258.449V78.4574C258.449 79.0859 258.545 79.576 258.737 79.9276C258.928 80.2685 259.195 80.5082 259.536 80.6467C259.887 80.7852 260.292 80.8544 260.75 80.8544C261.07 80.8544 261.389 80.8278 261.709 80.7745C262.029 80.7106 262.274 80.6626 262.444 80.6307L263.515 85.6964C263.174 85.8029 262.694 85.9254 262.077 86.0639C261.459 86.2131 260.708 86.3036 259.823 86.3356C258.183 86.3995 256.744 86.1811 255.509 85.6804C254.284 85.1797 253.33 84.402 252.648 83.3473C251.966 82.2926 251.631 80.9609 251.642 79.3523V55.5739Z" fill="white"/>
</svg>
