<svg width="140" height="140" viewBox="0 0 140 140" fill="none" xmlns="http://www.w3.org/2000/svg">
<rect width="140" height="140" rx="20" fill="#E03875"/>
<path d="M70.5107 120C62.3664 120 54.3648 118.022 47.1651 114.226C39.9654 110.43 33.7993 104.941 29.2014 98.2226C24.6036 91.5041 21.7166 83.7697 20.7899 75.6968C19.8632 67.606 20.9146 59.4261 23.8729 51.8522C26.8312 44.2782 31.5895 37.5241 37.7377 32.1956C43.886 26.8671 51.2461 23.1246 59.1765 21.2891C67.1068 19.4535 75.358 19.5782 83.2171 21.6633C91.0762 23.7484 98.3293 27.7047 104.317 33.2114L92.4484 45.6148C87.7258 41.3556 81.8805 38.5577 75.6075 37.5597C69.3345 36.5617 62.9011 37.3993 57.0914 39.9834C51.2817 42.5674 46.3453 46.7732 42.888 52.1017C39.4307 57.4302 37.5773 63.6497 37.5773 70.0119C37.5773 76.374 39.4129 82.5935 42.888 87.922C46.3453 93.2505 51.2817 97.4563 57.0914 100.04C62.9011 102.624 69.3345 103.462 75.6075 102.464C81.8805 101.466 87.7436 98.6681 92.4484 94.4089L104.317 106.812C95.1037 115.295 83.021 120.018 70.4928 120H70.5107Z" fill="white"/>
<path d="M110.733 94.997C109.931 94.997 109.129 94.7653 108.452 94.3019C107.775 93.8564 107.258 93.2149 106.937 92.4664C106.634 91.7179 106.545 90.8981 106.705 90.0962C106.866 89.2942 107.258 88.5636 107.828 87.9933C108.398 87.423 109.129 87.0309 109.931 86.8705C110.733 86.7102 111.553 86.7993 112.301 87.1022C113.05 87.4052 113.691 87.9398 114.137 88.617C114.582 89.2942 114.832 90.0783 114.832 90.8981C114.832 91.9852 114.404 93.0188 113.638 93.7851C112.871 94.5514 111.82 94.9791 110.751 94.9791L110.733 94.997Z" fill="white"/>
<path d="M70.1899 80.8287C68.0514 80.8287 65.9485 80.205 64.1664 79.0288C62.3843 77.8348 60.9764 76.1596 60.1566 74.1815C59.3369 72.2033 59.1052 70.0292 59.5151 67.9263C59.925 65.8234 60.9586 63.8809 62.4734 62.3661C63.9882 60.8513 65.9128 59.8177 68.0157 59.39C70.1186 58.9623 72.2928 59.1761 74.2887 59.9959C76.2669 60.8157 77.9599 62.2057 79.1539 63.9878C80.3479 65.7699 80.9716 67.8728 80.9716 70.0113C80.9716 72.8805 79.8311 75.625 77.8173 77.6388C75.8035 79.6704 73.0591 80.8109 70.1899 80.8287Z" fill="white"/>
<path d="M115.438 81.0263C114.636 81.0263 113.834 80.7946 113.157 80.3312C112.479 79.8857 111.963 79.2441 111.642 78.4957C111.339 77.7472 111.25 76.9274 111.41 76.1255C111.57 75.3235 111.963 74.5928 112.533 74.0226C113.103 73.4523 113.834 73.0602 114.636 72.8998C115.438 72.7395 116.257 72.8286 117.006 73.1315C117.754 73.4345 118.396 73.9691 118.841 74.6463C119.287 75.3235 119.537 76.1076 119.537 76.9274C119.537 78.0145 119.109 79.0481 118.342 79.8144C117.576 80.5807 116.525 81.0084 115.455 81.0084L115.438 81.0263Z" fill="white"/>
<path d="M103.248 80.5256C102.428 80.5256 101.644 80.2761 100.967 79.8306C100.29 79.3851 99.7729 78.7435 99.4521 77.9772C99.1491 77.2287 99.06 76.3911 99.2204 75.607C99.3808 74.8051 99.7729 74.0744 100.361 73.5041C100.931 72.9339 101.68 72.5418 102.464 72.3992C103.266 72.2388 104.086 72.3279 104.834 72.6487C105.583 72.9695 106.224 73.5041 106.67 74.1813C107.115 74.8585 107.347 75.6605 107.329 76.4624C107.329 77.5495 106.883 78.5653 106.117 79.3316C105.351 80.0979 104.317 80.5078 103.23 80.5078L103.248 80.5256Z" fill="white"/>
<path d="M115.438 67.2147C114.636 67.2147 113.834 66.9652 113.157 66.5197C112.479 66.0742 111.963 65.4326 111.642 64.6841C111.339 63.9357 111.25 63.1159 111.41 62.3139C111.57 61.512 111.963 60.7813 112.533 60.211C113.103 59.6408 113.834 59.2487 114.636 59.0883C115.438 58.9279 116.257 59.017 117.006 59.32C117.754 59.623 118.396 60.1576 118.841 60.8348C119.287 61.512 119.537 62.2961 119.537 63.1159C119.537 64.203 119.109 65.2366 118.342 66.0029C117.576 66.7692 116.525 67.1969 115.455 67.1969L115.438 67.2147Z" fill="white"/>
<path d="M103.248 67.6776C102.446 67.6776 101.644 67.4459 100.967 66.9826C100.29 66.5371 99.7729 65.8955 99.4521 65.147C99.1491 64.3985 99.06 63.5788 99.2204 62.7768C99.3808 61.9749 99.7729 61.2442 100.343 60.6739C100.913 60.1037 101.644 59.7116 102.446 59.5512C103.248 59.3908 104.068 59.4799 104.816 59.7829C105.565 60.0858 106.206 60.6205 106.652 61.2977C107.097 61.9749 107.347 62.759 107.347 63.5788C107.347 64.6659 106.919 65.6995 106.153 66.4836C105.386 67.2499 104.335 67.6776 103.248 67.6776Z" fill="white"/>
<path d="M110.965 53.4381C110.163 53.4381 109.361 53.2064 108.684 52.7609C108.006 52.3154 107.49 51.6738 107.169 50.9253C106.866 50.1769 106.777 49.3571 106.937 48.5551C107.098 47.7532 107.49 47.0225 108.06 46.4523C108.63 45.882 109.361 45.4899 110.163 45.3295C110.965 45.1691 111.785 45.2582 112.533 45.5612C113.281 45.8642 113.923 46.3988 114.369 47.076C114.814 47.7532 115.064 48.5373 115.064 49.3571C115.064 50.4442 114.636 51.4778 113.87 52.2441C113.103 53.0104 112.07 53.4381 110.983 53.4559L110.965 53.4381Z" fill="white"/>
</svg>
