<svg width="366" height="140" viewBox="0 0 366 140" fill="none" xmlns="http://www.w3.org/2000/svg">
<rect width="365.874" height="140" rx="20" fill="#F24C53"/>
<path d="M32.831 120V112.261H48.9206V107.373H41.1813V99.6334H78.0448L60.9369 69.8982L78.0448 40.1629H40.3666V81.3035H20V20H89.8574L101.466 40.1629L84.3585 69.8982L101.874 100.244L90.4684 120H32.831Z" fill="white"/>
<path d="M36.0899 99.6328H28.3506V107.372H36.0899V99.6328Z" fill="white"/>
<path d="M27.7393 112.261H20V120H27.7393V112.261Z" fill="white"/>
<path d="M134.718 86V53.2727H147.822C150.23 53.2727 152.238 53.6296 153.846 54.3434C155.455 55.0572 156.664 56.0479 157.474 57.3157C158.284 58.5728 158.688 60.0217 158.688 61.6623C158.688 62.9407 158.433 64.0646 157.921 65.0341C157.41 65.9929 156.707 66.7812 155.812 67.3991C154.928 68.0064 153.916 68.4379 152.776 68.6935V69.0131C154.022 69.0664 155.189 69.418 156.275 70.0678C157.373 70.7177 158.262 71.6286 158.944 72.8004C159.626 73.9616 159.967 75.3466 159.967 76.9553C159.967 78.6918 159.535 80.2418 158.672 81.6055C157.82 82.9585 156.558 84.0291 154.885 84.8175C153.213 85.6058 151.151 86 148.701 86H134.718ZM141.638 80.343H147.279C149.207 80.343 150.613 79.9755 151.497 79.2404C152.382 78.4947 152.824 77.5039 152.824 76.2681C152.824 75.3626 152.605 74.5636 152.169 73.8711C151.732 73.1786 151.109 72.6353 150.299 72.2411C149.5 71.8469 148.546 71.6499 147.438 71.6499H141.638V80.343ZM141.638 66.9677H146.767C147.715 66.9677 148.557 66.8026 149.292 66.4723C150.038 66.1314 150.624 65.652 151.05 65.0341C151.487 64.4162 151.705 63.6758 151.705 62.8129C151.705 61.6303 151.284 60.6768 150.443 59.9524C149.612 59.228 148.429 58.8658 146.895 58.8658H141.638V66.9677ZM175.432 86.4794C172.949 86.4794 170.803 85.9521 168.992 84.8974C167.191 83.832 165.801 82.3512 164.821 80.4549C163.841 78.5479 163.351 76.3374 163.351 73.8232C163.351 71.2876 163.841 69.0717 164.821 67.1754C165.801 65.2685 167.191 63.7876 168.992 62.733C170.803 61.6676 172.949 61.1349 175.432 61.1349C177.914 61.1349 180.055 61.6676 181.856 62.733C183.667 63.7876 185.062 65.2685 186.042 67.1754C187.022 69.0717 187.513 71.2876 187.513 73.8232C187.513 76.3374 187.022 78.5479 186.042 80.4549C185.062 82.3512 183.667 83.832 181.856 84.8974C180.055 85.9521 177.914 86.4794 175.432 86.4794ZM175.464 81.206C176.593 81.206 177.536 80.8864 178.292 80.2472C179.048 79.5973 179.618 78.7131 180.002 77.5945C180.396 76.4759 180.593 75.2028 180.593 73.7752C180.593 72.3477 180.396 71.0746 180.002 69.956C179.618 68.8374 179.048 67.9531 178.292 67.3033C177.536 66.6534 176.593 66.3285 175.464 66.3285C174.324 66.3285 173.365 66.6534 172.587 67.3033C171.82 67.9531 171.239 68.8374 170.845 69.956C170.462 71.0746 170.27 72.3477 170.27 73.7752C170.27 75.2028 170.462 76.4759 170.845 77.5945C171.239 78.7131 171.82 79.5973 172.587 80.2472C173.365 80.8864 174.324 81.206 175.464 81.206ZM207.679 75.549V61.4545H214.487V86H207.951V81.5415H207.695C207.141 82.9798 206.22 84.1357 204.931 85.0092C203.652 85.8828 202.092 86.3196 200.249 86.3196C198.608 86.3196 197.165 85.9467 195.918 85.201C194.672 84.4553 193.697 83.3952 192.994 82.021C192.301 80.6467 191.95 79.0007 191.939 77.0831V61.4545H198.747V75.8686C198.757 77.3175 199.146 78.4627 199.913 79.3043C200.68 80.146 201.708 80.5668 202.997 80.5668C203.818 80.5668 204.585 80.3803 205.298 80.0075C206.012 79.6239 206.587 79.0593 207.024 78.3136C207.472 77.5678 207.69 76.6463 207.679 75.549ZM226.74 71.8097V86H219.932V61.4545H226.42V65.7852H226.708C227.251 64.3576 228.162 63.2283 229.44 62.3974C230.719 61.5558 232.269 61.1349 234.091 61.1349C235.795 61.1349 237.281 61.5078 238.549 62.2536C239.817 62.9993 240.802 64.0646 241.505 65.4496C242.208 66.8239 242.56 68.4645 242.56 70.3714V86H235.753V71.5859C235.763 70.0838 235.38 68.9119 234.602 68.0703C233.824 67.218 232.754 66.7919 231.39 66.7919C230.474 66.7919 229.664 66.989 228.961 67.3832C228.268 67.7773 227.725 68.3526 227.331 69.109C226.947 69.8548 226.75 70.755 226.74 71.8097ZM256.97 86.3995C255.106 86.3995 253.417 85.9201 251.904 84.9613C250.402 83.9918 249.209 82.5696 248.325 80.6946C247.451 78.8089 247.014 76.4972 247.014 73.7592C247.014 70.9467 247.467 68.6083 248.373 66.744C249.278 64.869 250.482 63.468 251.984 62.5412C253.497 61.6037 255.154 61.1349 256.954 61.1349C258.328 61.1349 259.474 61.3693 260.39 61.8381C261.317 62.2962 262.062 62.8714 262.627 63.5639C263.202 64.2457 263.639 64.9169 263.937 65.5774H264.145V53.2727H270.937V86H264.225V82.0689H263.937C263.618 82.7507 263.165 83.4272 262.579 84.0984C262.004 84.7589 261.253 85.3075 260.326 85.7443C259.41 86.1811 258.291 86.3995 256.97 86.3995ZM259.127 80.9822C260.225 80.9822 261.152 80.6839 261.908 80.0874C262.675 79.4801 263.261 78.6332 263.666 77.5465C264.081 76.4599 264.289 75.1868 264.289 73.7273C264.289 72.2678 264.087 71 263.682 69.924C263.277 68.848 262.691 68.017 261.924 67.4311C261.157 66.8452 260.225 66.5522 259.127 66.5522C258.009 66.5522 257.066 66.8558 256.299 67.4631C255.532 68.0703 254.951 68.9119 254.557 69.9879C254.163 71.0639 253.966 72.3104 253.966 73.7273C253.966 75.1548 254.163 76.4173 254.557 77.5146C254.962 78.6012 255.543 79.4535 256.299 80.0714C257.066 80.6786 258.009 80.9822 259.127 80.9822ZM283.533 86.4634C281.967 86.4634 280.571 86.1918 279.346 85.6484C278.121 85.0945 277.152 84.2795 276.438 83.2035C275.735 82.1168 275.383 80.7638 275.383 79.1445C275.383 77.7809 275.634 76.6357 276.134 75.7088C276.635 74.782 277.317 74.0362 278.18 73.4716C279.043 72.907 280.023 72.4808 281.12 72.1932C282.228 71.9055 283.389 71.7031 284.604 71.5859C286.031 71.4368 287.182 71.2983 288.055 71.1705C288.929 71.032 289.563 70.8295 289.957 70.5632C290.351 70.2969 290.548 69.9027 290.548 69.3807V69.2848C290.548 68.2727 290.229 67.4897 289.59 66.9357C288.961 66.3817 288.066 66.1048 286.905 66.1048C285.68 66.1048 284.705 66.3764 283.98 66.9197C283.256 67.4524 282.777 68.1236 282.542 68.9332L276.246 68.4219C276.566 66.9304 277.194 65.6413 278.132 64.5547C279.069 63.4574 280.278 62.6158 281.759 62.0298C283.251 61.4332 284.977 61.1349 286.937 61.1349C288.3 61.1349 289.605 61.2947 290.852 61.6143C292.109 61.9339 293.222 62.4293 294.192 63.1005C295.172 63.7717 295.944 64.6346 296.509 65.6893C297.074 66.7333 297.356 67.9851 297.356 69.4446V86H290.9V82.5962H290.708C290.314 83.3633 289.787 84.0398 289.126 84.6257C288.466 85.201 287.672 85.6538 286.745 85.984C285.818 86.3036 284.748 86.4634 283.533 86.4634ZM285.483 81.7653C286.484 81.7653 287.368 81.5682 288.135 81.174C288.902 80.7692 289.504 80.2259 289.941 79.544C290.378 78.8622 290.596 78.0898 290.596 77.2269V74.6222C290.383 74.7607 290.09 74.8885 289.717 75.0057C289.355 75.1122 288.945 75.2134 288.487 75.3093C288.029 75.3945 287.571 75.4744 287.113 75.549C286.654 75.6129 286.239 75.6715 285.866 75.7248C285.067 75.842 284.369 76.0284 283.773 76.2841C283.176 76.5398 282.713 76.886 282.382 77.3228C282.052 77.7489 281.887 78.2816 281.887 78.9208C281.887 79.8477 282.223 80.5561 282.894 81.0462C283.576 81.5256 284.439 81.7653 285.483 81.7653ZM302.637 86V61.4545H309.237V65.7372H309.493C309.94 64.2138 310.691 63.0632 311.746 62.2855C312.801 61.4972 314.015 61.103 315.389 61.103C315.73 61.103 316.098 61.1243 316.492 61.1669C316.886 61.2095 317.232 61.2681 317.531 61.3427V67.3832C317.211 67.2873 316.769 67.2021 316.204 67.1275C315.64 67.0529 315.123 67.0156 314.654 67.0156C313.653 67.0156 312.758 67.234 311.97 67.6708C311.192 68.0969 310.574 68.6935 310.116 69.4606C309.669 70.2276 309.445 71.1119 309.445 72.1133V86H302.637ZM326 95.2045C325.137 95.2045 324.328 95.1353 323.571 94.9968C322.825 94.869 322.208 94.7038 321.718 94.5014L323.252 89.4197C324.051 89.6648 324.77 89.7979 325.409 89.8192C326.059 89.8406 326.618 89.6914 327.087 89.3718C327.566 89.0522 327.955 88.5089 328.253 87.7418L328.653 86.7031L319.848 61.4545H327.007L332.089 79.4801H332.344L337.474 61.4545H344.681L335.141 88.6527C334.683 89.9737 334.06 91.1243 333.271 92.1044C332.493 93.0952 331.508 93.8569 330.315 94.3896C329.122 94.9329 327.683 95.2045 326 95.2045Z" fill="white"/>
</svg>
