<svg width="304" height="140" viewBox="0 0 304 140" fill="none" xmlns="http://www.w3.org/2000/svg">
<rect width="304" height="140" rx="20" fill="black"/>
<path d="M20 44.9386V74.817C20 76.2293 20.7247 77.5417 21.9169 78.2885L42.2531 91.027C44.9632 92.7246 48.4733 90.7657 48.4733 87.5557V62.4405C48.4733 60.9955 49.2317 59.6577 50.4683 58.9213L62.8733 51.5345V115.903C62.8733 119.103 66.3623 121.063 69.073 119.387L90.0628 106.411C91.2666 105.667 92 104.348 92 102.927V41.1144C92 37.9307 88.5415 35.9677 85.8299 37.6121L62.8733 51.5345V24.0964C62.8733 20.9214 59.4316 18.9571 56.7196 20.5843L21.9834 41.4264C20.7533 42.1645 20 43.4985 20 44.9386Z" fill="white"/>
<path d="M124.844 86V53.2727H131.764V66.7759H145.81V53.2727H152.714V86H145.81V72.4808H131.764V86H124.844ZM169.477 86.4794C166.952 86.4794 164.779 85.968 162.957 84.9453C161.146 83.9119 159.75 82.4524 158.77 80.5668C157.79 78.6705 157.3 76.4279 157.3 73.8391C157.3 71.3143 157.79 69.0984 158.77 67.1914C159.75 65.2844 161.13 63.7983 162.909 62.733C164.699 61.6676 166.798 61.1349 169.205 61.1349C170.825 61.1349 172.332 61.396 173.728 61.918C175.134 62.4293 176.359 63.2017 177.403 64.2351C178.458 65.2685 179.278 66.5682 179.864 68.1342C180.45 69.6896 180.743 71.5114 180.743 73.5994V75.4691H160.017V71.2504H174.335C174.335 70.2702 174.122 69.402 173.696 68.6456C173.27 67.8892 172.678 67.2979 171.922 66.8718C171.176 66.435 170.308 66.2166 169.317 66.2166C168.284 66.2166 167.368 66.4563 166.569 66.9357C165.78 67.4045 165.162 68.0384 164.715 68.8374C164.267 69.6257 164.038 70.5046 164.028 71.4741V75.4851C164.028 76.6996 164.251 77.7489 164.699 78.6332C165.157 79.5174 165.801 80.1992 166.632 80.6786C167.463 81.158 168.449 81.3977 169.589 81.3977C170.345 81.3977 171.038 81.2912 171.666 81.0781C172.295 80.8651 172.833 80.5455 173.28 80.1193C173.728 79.6932 174.069 79.1712 174.303 78.5533L180.599 78.9688C180.279 80.4815 179.624 81.8026 178.634 82.9318C177.653 84.0504 176.386 84.924 174.83 85.5526C173.286 86.1705 171.501 86.4794 169.477 86.4794ZM185.185 86V61.4545H191.785V65.7372H192.041C192.488 64.2138 193.239 63.0632 194.294 62.2855C195.349 61.4972 196.563 61.103 197.938 61.103C198.278 61.103 198.646 61.1243 199.04 61.1669C199.434 61.2095 199.781 61.2681 200.079 61.3427V67.3832C199.759 67.2873 199.317 67.2021 198.752 67.1275C198.188 67.0529 197.671 67.0156 197.202 67.0156C196.201 67.0156 195.306 67.234 194.518 67.6708C193.74 68.0969 193.122 68.6935 192.664 69.4606C192.217 70.2276 191.993 71.1119 191.993 72.1133V86H185.185ZM213.546 86.4794C211.064 86.4794 208.917 85.9521 207.106 84.8974C205.306 83.832 203.915 82.3512 202.935 80.4549C201.955 78.5479 201.465 76.3374 201.465 73.8232C201.465 71.2876 201.955 69.0717 202.935 67.1754C203.915 65.2685 205.306 63.7876 207.106 62.733C208.917 61.6676 211.064 61.1349 213.546 61.1349C216.028 61.1349 218.17 61.6676 219.97 62.733C221.781 63.7876 223.177 65.2685 224.157 67.1754C225.137 69.0717 225.627 71.2876 225.627 73.8232C225.627 76.3374 225.137 78.5479 224.157 80.4549C223.177 82.3512 221.781 83.832 219.97 84.8974C218.17 85.9521 216.028 86.4794 213.546 86.4794ZM213.578 81.206C214.707 81.206 215.65 80.8864 216.407 80.2472C217.163 79.5973 217.733 78.7131 218.116 77.5945C218.511 76.4759 218.708 75.2028 218.708 73.7752C218.708 72.3477 218.511 71.0746 218.116 69.956C217.733 68.8374 217.163 67.9531 216.407 67.3033C215.65 66.6534 214.707 66.3285 213.578 66.3285C212.438 66.3285 211.479 66.6534 210.702 67.3033C209.935 67.9531 209.354 68.8374 208.96 69.956C208.576 71.0746 208.384 72.3477 208.384 73.7752C208.384 75.2028 208.576 76.4759 208.96 77.5945C209.354 78.7131 209.935 79.5973 210.702 80.2472C211.479 80.8864 212.438 81.206 213.578 81.206ZM260.811 53.2727H267.731V74.5263C267.731 76.9126 267.161 79.0007 266.021 80.7905C264.892 82.5803 263.309 83.9759 261.275 84.9773C259.24 85.968 256.869 86.4634 254.164 86.4634C251.447 86.4634 249.071 85.968 247.036 84.9773C245.002 83.9759 243.42 82.5803 242.29 80.7905C241.161 79.0007 240.596 76.9126 240.596 74.5263V53.2727H247.516V73.935C247.516 75.1815 247.787 76.2894 248.331 77.2589C248.885 78.2283 249.662 78.9901 250.664 79.544C251.665 80.098 252.832 80.375 254.164 80.375C255.506 80.375 256.672 80.098 257.663 79.544C258.665 78.9901 259.437 78.2283 259.98 77.2589C260.534 76.2894 260.811 75.1815 260.811 73.935V53.2727ZM280.343 53.2727V86H273.424V53.2727H280.343Z" fill="white"/>
</svg>
