<svg width="140" height="140" viewBox="0 0 140 140" fill="none" xmlns="http://www.w3.org/2000/svg">
<rect width="140" height="140" rx="20" fill="black"/>
<path d="M70.7205 35H85.3137V79.8243C85.3137 84.8572 84.1116 89.261 81.7075 93.0356C79.3259 96.8103 75.9893 99.7537 71.6979 101.866C67.4064 103.955 62.4072 105 56.7003 105C50.9709 105 45.9604 103.955 41.669 101.866C37.3776 99.7537 34.041 96.8103 31.6594 93.0356C29.2777 89.261 28.0869 84.8572 28.0869 79.8243V35H42.6801V78.5773C42.6801 81.2061 43.253 83.5428 44.3989 85.5874C45.5673 87.632 47.2074 89.2385 49.3195 90.4068C51.4315 91.5752 53.8918 92.1594 56.7003 92.1594C59.5313 92.1594 61.9916 91.5752 64.0811 90.4068C66.1932 89.2385 67.8221 87.632 68.968 85.5874C70.1363 83.5428 70.7205 81.2061 70.7205 78.5773V35Z" fill="white"/>
<path d="M111.913 35V104.023H97.3202V35H111.913Z" fill="white"/>
</svg>
