<svg width="140" height="140" viewBox="0 0 140 140" fill="none" xmlns="http://www.w3.org/2000/svg">
<rect width="140" height="140" rx="20" fill="#082B34"/>
<path d="M82.2353 30.3626V49.1828L103.384 103.501C103.384 103.501 109.841 116.767 91.3743 120H49.2468C49.2468 120 32.035 118.204 36.1613 104.576L58.3865 49.1835V30.3626H82.2353Z" fill="#009688"/>
<path d="M82.6817 28.1743H57.3116C55.2567 28.1743 53.5854 26.3463 53.5854 24.0879C53.5854 21.8279 55.256 20 57.3116 20H82.6817C84.7459 20 86.4144 21.8279 86.4144 24.0879C86.4144 26.3463 84.7452 28.1743 82.6817 28.1743Z" fill="#004D40"/>
<path d="M75.9891 61.0919C78.7115 61.0919 80.9315 63.7519 80.9315 67.0461C80.9315 70.3258 78.71 72.9924 75.9891 72.9924C73.2603 72.9924 71.0467 70.3258 71.0467 67.0461C71.0467 63.7505 73.2603 61.0919 75.9891 61.0919Z" fill="white"/>
<path d="M60.8166 76.5378C63.1175 76.5378 64.9827 74.2897 64.9827 71.5164C64.9827 68.7432 63.1175 66.495 60.8166 66.495C58.5157 66.495 56.6505 68.7432 56.6505 71.5164C56.6505 74.2897 58.5157 76.5378 60.8166 76.5378Z" fill="white"/>
<path d="M84.1162 47.9354V38.9841C84.1162 38.9841 95.4673 36.4814 101.14 49.6844C101.14 49.6844 92.2992 56.1257 84.1162 47.9354Z" fill="#004D40"/>
<path d="M56.3144 47.9354V38.9841C56.3144 38.9841 44.9618 36.4814 39.2917 49.6844C39.2917 49.6844 48.1241 56.1257 56.3144 47.9354Z" fill="#004D40"/>
<path d="M90.9408 84.9784C72.4823 79.2524 56.9637 82.3263 49.3786 84.65L41.7298 103.061C38.2863 114.051 52.6649 115.496 52.6649 115.496H87.8503C103.273 112.89 97.8829 102.198 97.8829 102.198L90.9408 84.9784Z" fill="white"/>
<path d="M64.3391 91.8189C64.3391 93.8041 61.6712 95.4189 58.3849 95.4189C55.0987 95.4189 52.4387 93.8034 52.4387 91.8189C52.4387 89.8257 55.0987 88.2166 58.3849 88.2166C61.6726 88.2181 64.3391 89.8257 64.3391 91.8189Z" fill="#004D40"/>
<path d="M85.5137 91.8189C85.5137 93.8041 82.8457 95.4189 79.5675 95.4189C76.2718 95.4189 73.6133 93.8034 73.6133 91.8189C73.6133 89.8257 76.2718 88.2166 79.5675 88.2166C82.8472 88.2181 85.5137 89.8257 85.5137 91.8189Z" fill="#004D40"/>
</svg>
