<svg width="140" height="140" viewBox="0 0 140 140" fill="none" xmlns="http://www.w3.org/2000/svg">
<rect width="140" height="140" rx="20" fill="#E16349"/>
<path d="M85.1215 44.9164C85.1214 43.449 83.9394 42.2918 82.5205 42.2917H57.4795C56.0606 42.2918 54.8786 43.449 54.8785 44.9164V95.0836C54.8786 96.551 56.0606 97.7082 57.4795 97.7083H82.5205C83.9394 97.7082 85.1214 96.551 85.1215 95.0836V44.9164ZM26.7147 51.7523C28.1398 50.3248 30.4571 50.318 31.8896 51.7381C33.3217 53.1581 33.3271 55.4661 31.9025 56.8935L18.8174 70L31.9025 83.1065C33.3271 84.5339 33.3217 86.8419 31.8896 88.2619C30.4572 89.6819 28.1398 89.6764 26.7147 88.2491L11.0644 72.5706C9.64519 71.1485 9.64519 68.8515 11.0644 67.4294L26.7147 51.7523ZM76.2596 82.0312C78.2801 82.0312 79.9181 83.6635 79.9181 85.6771C79.9181 87.6906 78.2801 89.3229 76.2596 89.3229H63.7404C61.7199 89.3229 60.0819 87.6906 60.0819 85.6771C60.0819 83.6635 61.7199 82.0312 63.7404 82.0312H76.2596ZM108.11 51.7381C109.543 50.318 111.86 50.3248 113.285 51.7523L128.936 67.4294C130.355 68.8515 130.355 71.1485 128.936 72.5706L113.285 88.2491C111.86 89.6764 109.543 89.6819 108.11 88.2619C106.678 86.8419 106.673 84.5339 108.098 83.1065L121.181 70L108.098 56.8935C106.673 55.4661 106.678 53.1581 108.11 51.7381ZM32.4698 66.3542C34.4904 66.3542 36.1284 67.9865 36.1284 70C36.1284 72.0135 34.4904 73.6458 32.4698 73.6458H32.4384C30.418 73.6456 28.7798 72.0134 28.7798 70C28.7798 67.9866 30.418 66.3544 32.4384 66.3542H32.4698ZM76.2596 66.3542C78.2801 66.3542 79.9181 67.9865 79.9181 70C79.9181 72.0135 78.2801 73.6458 76.2596 73.6458H63.7404C61.7199 73.6458 60.0819 72.0135 60.0819 70C60.0819 67.9865 61.7199 66.3542 63.7404 66.3542H76.2596ZM107.593 66.3542C109.613 66.3545 111.252 67.9867 111.252 70C111.252 72.0133 109.613 73.6455 107.593 73.6458H107.562C105.541 73.6458 103.903 72.0135 103.903 70C103.903 67.9865 105.541 66.3542 107.562 66.3542H107.593ZM76.2596 50.6771C78.2801 50.6771 79.9181 52.3094 79.9181 54.3229C79.9181 56.3365 78.2801 57.9688 76.2596 57.9688H63.7404C61.7199 57.9688 60.0819 56.3365 60.0819 54.3229C60.0819 52.3094 61.7199 50.6771 63.7404 50.6771H76.2596ZM92.4386 47.5411H95.0411C97.0613 47.5413 98.6993 49.1738 98.6996 51.1869C98.6996 53.2004 97.0615 54.8326 95.0411 54.8328H92.4386V66.3542H95.0411C97.0615 66.3543 98.6996 67.9866 98.6996 70C98.6996 72.0134 97.0615 73.6457 95.0411 73.6458H92.4386V85.1672H95.0411C97.0615 85.1674 98.6996 86.7996 98.6996 88.8131C98.6993 90.8262 97.0613 92.4587 95.0411 92.4589H92.4386V95.0836C92.4385 100.542 88.0162 105 82.5205 105H57.4795C51.9838 105 47.5615 100.542 47.5613 95.0836V92.4589H44.9589C42.9387 92.4587 41.3007 90.8262 41.3004 88.8131C41.3004 86.7996 42.9385 85.1674 44.9589 85.1672H47.5613V73.6458H44.9589C42.9385 73.6457 41.3004 72.0134 41.3004 70C41.3004 67.9866 42.9385 66.3543 44.9589 66.3542H47.5613V54.8328H44.9589C42.9385 54.8326 41.3004 53.2004 41.3004 51.1869C41.3007 49.1738 42.9387 47.5413 44.9589 47.5411H47.5613V44.9164C47.5615 39.4576 51.9838 35.0001 57.4795 35H82.5205C88.0162 35.0001 92.4385 39.4576 92.4386 44.9164V47.5411Z" fill="white"/>
</svg>
