<svg width="549" height="140" viewBox="0 0 549 140" fill="none" xmlns="http://www.w3.org/2000/svg">
<rect width="549" height="140" rx="20" fill="#E16349"/>
<path d="M95.1215 44.9164C95.1214 43.449 93.9394 42.2918 92.5205 42.2917H67.4795C66.0606 42.2918 64.8786 43.449 64.8785 44.9164V95.0836C64.8786 96.551 66.0606 97.7082 67.4795 97.7083H92.5205C93.9394 97.7082 95.1214 96.551 95.1215 95.0836V44.9164ZM36.7147 51.7523C38.1398 50.3248 40.4571 50.318 41.8896 51.7381C43.3217 53.1581 43.3271 55.4661 41.9025 56.8935L28.8174 70L41.9025 83.1065C43.3271 84.5339 43.3217 86.8419 41.8896 88.2619C40.4572 89.6819 38.1398 89.6764 36.7147 88.2491L21.0644 72.5706C19.6452 71.1485 19.6452 68.8515 21.0644 67.4294L36.7147 51.7523ZM86.2596 82.0312C88.2801 82.0312 89.9181 83.6635 89.9181 85.6771C89.9181 87.6906 88.2801 89.3229 86.2596 89.3229H73.7404C71.7199 89.3229 70.0819 87.6906 70.0819 85.6771C70.0819 83.6635 71.7199 82.0312 73.7404 82.0312H86.2596ZM118.11 51.7381C119.543 50.318 121.86 50.3248 123.285 51.7523L138.936 67.4294C140.355 68.8515 140.355 71.1485 138.936 72.5706L123.285 88.2491C121.86 89.6764 119.543 89.6819 118.11 88.2619C116.678 86.8419 116.673 84.5339 118.098 83.1065L131.181 70L118.098 56.8935C116.673 55.4661 116.678 53.1581 118.11 51.7381ZM42.4698 66.3542C44.4904 66.3542 46.1284 67.9865 46.1284 70C46.1284 72.0135 44.4904 73.6458 42.4698 73.6458H42.4384C40.418 73.6456 38.7798 72.0134 38.7798 70C38.7798 67.9866 40.418 66.3544 42.4384 66.3542H42.4698ZM86.2596 66.3542C88.2801 66.3542 89.9181 67.9865 89.9181 70C89.9181 72.0135 88.2801 73.6458 86.2596 73.6458H73.7404C71.7199 73.6458 70.0819 72.0135 70.0819 70C70.0819 67.9865 71.7199 66.3542 73.7404 66.3542H86.2596ZM117.593 66.3542C119.613 66.3545 121.252 67.9867 121.252 70C121.252 72.0133 119.613 73.6455 117.593 73.6458H117.562C115.541 73.6458 113.903 72.0135 113.903 70C113.903 67.9865 115.541 66.3542 117.562 66.3542H117.593ZM86.2596 50.6771C88.2801 50.6771 89.9181 52.3094 89.9181 54.3229C89.9181 56.3365 88.2801 57.9688 86.2596 57.9688H73.7404C71.7199 57.9688 70.0819 56.3365 70.0819 54.3229C70.0819 52.3094 71.7199 50.6771 73.7404 50.6771H86.2596ZM102.439 47.5411H105.041C107.061 47.5413 108.699 49.1738 108.7 51.1869C108.7 53.2004 107.061 54.8326 105.041 54.8328H102.439V66.3542H105.041C107.061 66.3543 108.7 67.9866 108.7 70C108.7 72.0134 107.061 73.6457 105.041 73.6458H102.439V85.1672H105.041C107.061 85.1674 108.7 86.7996 108.7 88.8131C108.699 90.8262 107.061 92.4587 105.041 92.4589H102.439V95.0836C102.438 100.542 98.0162 105 92.5205 105H67.4795C61.9838 105 57.5615 100.542 57.5613 95.0836V92.4589H54.9589C52.9387 92.4587 51.3007 90.8262 51.3004 88.8131C51.3004 86.7996 52.9385 85.1674 54.9589 85.1672H57.5613V73.6458H54.9589C52.9385 73.6457 51.3004 72.0134 51.3004 70C51.3004 67.9866 52.9385 66.3543 54.9589 66.3542H57.5613V54.8328H54.9589C52.9385 54.8326 51.3004 53.2004 51.3004 51.1869C51.3007 49.1738 52.9387 47.5413 54.9589 47.5411H57.5613V44.9164C57.5615 39.4576 61.9838 35.0001 67.4795 35H92.5205C98.0162 35.0001 102.438 39.4576 102.439 44.9164V47.5411Z" fill="white"/>
<path d="M179.764 53.2727V86H172.844V53.2727H179.764ZM215.531 69.6364C215.531 73.2053 214.855 76.2415 213.502 78.745C212.16 81.2486 210.327 83.1609 208.005 84.4819C205.693 85.7923 203.093 86.4474 200.206 86.4474C197.298 86.4474 194.688 85.7869 192.376 84.4659C190.064 83.1449 188.237 81.2326 186.895 78.729C185.553 76.2255 184.881 73.1946 184.881 69.6364C184.881 66.0675 185.553 63.0312 186.895 60.5277C188.237 58.0241 190.064 56.1172 192.376 54.8068C194.688 53.4858 197.298 52.8253 200.206 52.8253C203.093 52.8253 205.693 53.4858 208.005 54.8068C210.327 56.1172 212.16 58.0241 213.502 60.5277C214.855 63.0312 215.531 66.0675 215.531 69.6364ZM208.516 69.6364C208.516 67.3246 208.17 65.375 207.477 63.7876C206.796 62.2003 205.831 60.9964 204.585 60.1761C203.339 59.3558 201.879 58.9457 200.206 58.9457C198.534 58.9457 197.074 59.3558 195.828 60.1761C194.581 60.9964 193.612 62.2003 192.919 63.7876C192.238 65.375 191.897 67.3246 191.897 69.6364C191.897 71.9482 192.238 73.8977 192.919 75.4851C193.612 77.0724 194.581 78.2763 195.828 79.0966C197.074 79.9169 198.534 80.3271 200.206 80.3271C201.879 80.3271 203.339 79.9169 204.585 79.0966C205.831 78.2763 206.796 77.0724 207.477 75.4851C208.17 73.8977 208.516 71.9482 208.516 69.6364ZM217.916 58.9776V53.2727H244.795V58.9776H234.775V86H227.936V58.9776H217.916ZM288.513 64.7305H281.513C281.385 63.8249 281.124 63.0206 280.73 62.3175C280.336 61.6037 279.83 60.9964 279.212 60.4957C278.594 59.995 277.88 59.6115 277.071 59.3452C276.272 59.0788 275.403 58.9457 274.466 58.9457C272.772 58.9457 271.297 59.3665 270.04 60.2081C268.782 61.0391 267.808 62.2536 267.115 63.8516C266.423 65.4389 266.076 67.3672 266.076 69.6364C266.076 71.9695 266.423 73.9297 267.115 75.517C267.818 77.1044 268.798 78.3029 270.055 79.1126C271.313 79.9222 272.767 80.3271 274.418 80.3271C275.345 80.3271 276.203 80.2045 276.991 79.9595C277.79 79.7145 278.498 79.3576 279.116 78.8888C279.734 78.4094 280.245 77.8288 280.65 77.147C281.066 76.4652 281.353 75.6875 281.513 74.8139L288.513 74.8459C288.331 76.348 287.879 77.7969 287.154 79.1925C286.44 80.5774 285.476 81.8185 284.262 82.9158C283.058 84.0025 281.62 84.8654 279.947 85.5046C278.285 86.1332 276.405 86.4474 274.306 86.4474C271.387 86.4474 268.777 85.7869 266.476 84.4659C264.185 83.1449 262.374 81.2326 261.043 78.729C259.722 76.2255 259.061 73.1946 259.061 69.6364C259.061 66.0675 259.732 63.0312 261.075 60.5277C262.417 58.0241 264.239 56.1172 266.54 54.8068C268.841 53.4858 271.43 52.8253 274.306 52.8253C276.203 52.8253 277.96 53.0916 279.58 53.6243C281.21 54.157 282.653 54.9347 283.91 55.9574C285.167 56.9695 286.19 58.2106 286.978 59.6808C287.777 61.1509 288.289 62.8342 288.513 64.7305ZM304.437 86.4794C301.954 86.4794 299.808 85.9521 297.997 84.8974C296.196 83.832 294.806 82.3512 293.826 80.4549C292.846 78.5479 292.356 76.3374 292.356 73.8232C292.356 71.2876 292.846 69.0717 293.826 67.1754C294.806 65.2685 296.196 63.7876 297.997 62.733C299.808 61.6676 301.954 61.1349 304.437 61.1349C306.919 61.1349 309.06 61.6676 310.861 62.733C312.672 63.7876 314.067 65.2685 315.047 67.1754C316.028 69.0717 316.518 71.2876 316.518 73.8232C316.518 76.3374 316.028 78.5479 315.047 80.4549C314.067 82.3512 312.672 83.832 310.861 84.8974C309.06 85.9521 306.919 86.4794 304.437 86.4794ZM304.469 81.206C305.598 81.206 306.541 80.8864 307.297 80.2472C308.054 79.5973 308.623 78.7131 309.007 77.5945C309.401 76.4759 309.598 75.2028 309.598 73.7752C309.598 72.3477 309.401 71.0746 309.007 69.956C308.623 68.8374 308.054 67.9531 307.297 67.3033C306.541 66.6534 305.598 66.3285 304.469 66.3285C303.329 66.3285 302.37 66.6534 301.592 67.3033C300.825 67.9531 300.245 68.8374 299.85 69.956C299.467 71.0746 299.275 72.3477 299.275 73.7752C299.275 75.2028 299.467 76.4759 299.85 77.5945C300.245 78.7131 300.825 79.5973 301.592 80.2472C302.37 80.8864 303.329 81.206 304.469 81.206ZM320.944 86V61.4545H327.432V65.7852H327.72C328.231 64.3469 329.083 63.2124 330.277 62.3814C331.47 61.5504 332.897 61.1349 334.559 61.1349C336.242 61.1349 337.675 61.5558 338.858 62.3974C340.04 63.2283 340.829 64.3576 341.223 65.7852H341.479C341.979 64.3789 342.885 63.255 344.195 62.4134C345.516 61.5611 347.077 61.1349 348.877 61.1349C351.168 61.1349 353.027 61.8647 354.454 63.3242C355.893 64.7731 356.612 66.8292 356.612 69.4925V86H349.82V70.8349C349.82 69.4712 349.458 68.4485 348.734 67.7667C348.009 67.0849 347.104 66.744 346.017 66.744C344.781 66.744 343.817 67.1381 343.125 67.9265C342.432 68.7042 342.086 69.7322 342.086 71.0107V86H335.486V70.6911C335.486 69.4872 335.14 68.5284 334.447 67.8146C333.766 67.1009 332.865 66.744 331.747 66.744C330.99 66.744 330.309 66.9357 329.701 67.3192C329.105 67.6921 328.631 68.2195 328.279 68.9013C327.927 69.5724 327.752 70.3608 327.752 71.2663V86H320.944ZM361.989 86V61.4545H368.477V65.7852H368.765C369.276 64.3469 370.128 63.2124 371.321 62.3814C372.515 61.5504 373.942 61.1349 375.604 61.1349C377.287 61.1349 378.72 61.5558 379.903 62.3974C381.085 63.2283 381.874 64.3576 382.268 65.7852H382.524C383.024 64.3789 383.93 63.255 385.24 62.4134C386.561 61.5611 388.122 61.1349 389.922 61.1349C392.213 61.1349 394.072 61.8647 395.499 63.3242C396.938 64.7731 397.657 66.8292 397.657 69.4925V86H390.865V70.8349C390.865 69.4712 390.503 68.4485 389.778 67.7667C389.054 67.0849 388.149 66.744 387.062 66.744C385.826 66.744 384.862 67.1381 384.169 67.9265C383.477 68.7042 383.131 69.7322 383.131 71.0107V86H376.531V70.6911C376.531 69.4872 376.185 68.5284 375.492 67.8146C374.81 67.1009 373.91 66.744 372.792 66.744C372.035 66.744 371.353 66.9357 370.746 67.3192C370.15 67.6921 369.676 68.2195 369.324 68.9013C368.972 69.5724 368.797 70.3608 368.797 71.2663V86H361.989ZM410.033 86.4634C408.467 86.4634 407.072 86.1918 405.847 85.6484C404.621 85.0945 403.652 84.2795 402.938 83.2035C402.235 82.1168 401.883 80.7638 401.883 79.1445C401.883 77.7809 402.134 76.6357 402.634 75.7088C403.135 74.782 403.817 74.0362 404.68 73.4716C405.543 72.907 406.523 72.4808 407.62 72.1932C408.728 71.9055 409.889 71.7031 411.104 71.5859C412.532 71.4368 413.682 71.2983 414.556 71.1705C415.429 71.032 416.063 70.8295 416.457 70.5632C416.851 70.2969 417.049 69.9027 417.049 69.3807V69.2848C417.049 68.2727 416.729 67.4897 416.09 66.9357C415.461 66.3817 414.566 66.1048 413.405 66.1048C412.18 66.1048 411.205 66.3764 410.481 66.9197C409.756 67.4524 409.277 68.1236 409.043 68.9332L402.746 68.4219C403.066 66.9304 403.695 65.6413 404.632 64.5547C405.57 63.4574 406.779 62.6158 408.259 62.0298C409.751 61.4332 411.477 61.1349 413.437 61.1349C414.801 61.1349 416.106 61.2947 417.352 61.6143C418.609 61.9339 419.723 62.4293 420.692 63.1005C421.672 63.7717 422.445 64.6346 423.009 65.6893C423.574 66.7333 423.856 67.9851 423.856 69.4446V86H417.4V82.5962H417.208C416.814 83.3633 416.287 84.0398 415.626 84.6257C414.966 85.201 414.172 85.6538 413.245 85.984C412.318 86.3036 411.248 86.4634 410.033 86.4634ZM411.983 81.7653C412.984 81.7653 413.869 81.5682 414.636 81.174C415.403 80.7692 416.005 80.2259 416.441 79.544C416.878 78.8622 417.097 78.0898 417.097 77.2269V74.6222C416.883 74.7607 416.59 74.8885 416.218 75.0057C415.855 75.1122 415.445 75.2134 414.987 75.3093C414.529 75.3945 414.071 75.4744 413.613 75.549C413.155 75.6129 412.739 75.6715 412.366 75.7248C411.567 75.842 410.87 76.0284 410.273 76.2841C409.676 76.5398 409.213 76.886 408.883 77.3228C408.552 77.7489 408.387 78.2816 408.387 78.9208C408.387 79.8477 408.723 80.5561 409.394 81.0462C410.076 81.5256 410.939 81.7653 411.983 81.7653ZM435.945 71.8097V86H429.138V61.4545H435.625V65.7852H435.913C436.456 64.3576 437.367 63.2283 438.646 62.3974C439.924 61.5558 441.474 61.1349 443.296 61.1349C445 61.1349 446.487 61.5078 447.754 62.2536C449.022 62.9993 450.008 64.0646 450.711 65.4496C451.414 66.8239 451.765 68.4645 451.765 70.3714V86H444.958V71.5859C444.968 70.0838 444.585 68.9119 443.807 68.0703C443.03 67.218 441.959 66.7919 440.595 66.7919C439.679 66.7919 438.869 66.989 438.166 67.3832C437.474 67.7773 436.93 68.3526 436.536 69.109C436.153 69.8548 435.956 70.755 435.945 71.8097ZM466.175 86.3995C464.311 86.3995 462.623 85.9201 461.11 84.9613C459.608 83.9918 458.414 82.5696 457.53 80.6946C456.657 78.8089 456.22 76.4972 456.22 73.7592C456.22 70.9467 456.673 68.6083 457.578 66.744C458.484 64.869 459.688 63.468 461.19 62.5412C462.702 61.6037 464.359 61.1349 466.159 61.1349C467.534 61.1349 468.679 61.3693 469.595 61.8381C470.522 62.2962 471.268 62.8714 471.832 63.5639C472.408 64.2457 472.844 64.9169 473.143 65.5774H473.35V53.2727H480.142V86H473.43V82.0689H473.143C472.823 82.7507 472.37 83.4272 471.784 84.0984C471.209 84.7589 470.458 85.3075 469.531 85.7443C468.615 86.1811 467.496 86.3995 466.175 86.3995ZM468.333 80.9822C469.43 80.9822 470.357 80.6839 471.113 80.0874C471.88 79.4801 472.466 78.6332 472.871 77.5465C473.287 76.4599 473.494 75.1868 473.494 73.7273C473.494 72.2678 473.292 71 472.887 69.924C472.482 68.848 471.896 68.017 471.129 67.4311C470.362 66.8452 469.43 66.5522 468.333 66.5522C467.214 66.5522 466.271 66.8558 465.504 67.4631C464.737 68.0703 464.157 68.9119 463.762 69.9879C463.368 71.0639 463.171 72.3104 463.171 73.7273C463.171 75.1548 463.368 76.4173 463.762 77.5146C464.167 78.6012 464.748 79.4535 465.504 80.0714C466.271 80.6786 467.214 80.9822 468.333 80.9822ZM496.925 86.4794C494.4 86.4794 492.227 85.968 490.405 84.9453C488.594 83.9119 487.199 82.4524 486.218 80.5668C485.238 78.6705 484.748 76.4279 484.748 73.8391C484.748 71.3143 485.238 69.0984 486.218 67.1914C487.199 65.2844 488.578 63.7983 490.357 62.733C492.147 61.6676 494.246 61.1349 496.653 61.1349C498.273 61.1349 499.78 61.396 501.176 61.918C502.582 62.4293 503.807 63.2017 504.851 64.2351C505.906 65.2685 506.726 66.5682 507.312 68.1342C507.898 69.6896 508.191 71.5114 508.191 73.5994V75.4691H487.465V71.2504H501.783C501.783 70.2702 501.57 69.402 501.144 68.6456C500.718 67.8892 500.127 67.2979 499.37 66.8718C498.624 66.435 497.756 66.2166 496.765 66.2166C495.732 66.2166 494.816 66.4563 494.017 66.9357C493.228 67.4045 492.611 68.0384 492.163 68.8374C491.716 69.6257 491.487 70.5046 491.476 71.4741V75.4851C491.476 76.6996 491.7 77.7489 492.147 78.6332C492.605 79.5174 493.25 80.1992 494.081 80.6786C494.912 81.158 495.897 81.3977 497.037 81.3977C497.793 81.3977 498.486 81.2912 499.114 81.0781C499.743 80.8651 500.281 80.5455 500.728 80.1193C501.176 79.6932 501.517 79.1712 501.751 78.5533L508.047 78.9688C507.728 80.4815 507.073 81.8026 506.082 82.9318C505.102 84.0504 503.834 84.924 502.278 85.5526C500.734 86.1705 498.949 86.4794 496.925 86.4794ZM512.634 86V61.4545H519.233V65.7372H519.489C519.937 64.2138 520.688 63.0632 521.742 62.2855C522.797 61.4972 524.011 61.103 525.386 61.103C525.727 61.103 526.094 61.1243 526.488 61.1669C526.883 61.2095 527.229 61.2681 527.527 61.3427V67.3832C527.207 67.2873 526.765 67.2021 526.201 67.1275C525.636 67.0529 525.119 67.0156 524.651 67.0156C523.649 67.0156 522.754 67.234 521.966 67.6708C521.188 68.0969 520.57 68.6935 520.112 69.4606C519.665 70.2276 519.441 71.1119 519.441 72.1133V86H512.634Z" fill="white"/>
</svg>
