<svg width="247" height="140" viewBox="0 0 247 140" fill="none" xmlns="http://www.w3.org/2000/svg">
<rect width="246.752" height="140" rx="20" fill="#3A75B0"/>
<path d="M43.7526 97.3354C43.7526 97.3354 39.9313 99.5576 46.4722 100.31C54.3966 101.214 58.4463 101.084 67.179 99.4311C67.179 99.4311 69.475 100.871 72.681 102.118C53.1052 110.508 28.3765 101.632 43.7526 97.3354ZM41.3605 86.387C41.3605 86.387 37.0745 89.5597 43.6203 90.2367C52.0852 91.1099 58.77 91.1814 70.3375 88.954C70.3375 88.954 71.9375 90.576 74.4533 91.4631C50.7846 98.3841 24.4221 92.0089 41.3605 86.387Z" fill="white"/>
<path d="M61.5266 67.8151C66.3503 73.3684 60.2594 78.3658 60.2594 78.3658C60.2594 78.3658 72.507 72.0432 66.8822 64.1255C61.6289 56.7424 57.6 53.0734 79.4098 40.4247C79.4098 40.4247 45.1757 48.975 61.5266 67.8151Z" fill="white"/>
<path d="M87.4175 105.434C87.4175 105.434 90.2454 107.764 84.303 109.566C73.0036 112.989 37.2732 114.023 27.3473 109.703C23.7794 108.151 30.4705 105.997 32.5752 105.544C34.7701 105.068 36.0247 105.157 36.0247 105.157C32.0566 102.362 10.3768 110.646 25.0125 113.018C64.9258 119.491 97.7704 110.104 87.4175 105.434ZM45.5901 75.0433C45.5901 75.0433 27.4156 79.3603 39.1543 80.9276C44.1105 81.5912 53.9909 81.4412 63.1944 80.6699C70.7159 80.0358 78.2685 78.6865 78.2685 78.6865C78.2685 78.6865 75.6163 79.8224 73.6976 81.1325C55.2414 85.9866 19.5875 83.7285 29.8518 78.7633C38.5324 74.5673 45.5901 75.0433 45.5901 75.0433ZM78.1935 93.2673C96.9554 83.518 88.2806 74.1492 82.2258 75.4116C80.7417 75.7202 80.0801 75.9878 80.0801 75.9878C80.0801 75.9878 80.6311 75.125 81.6833 74.7514C93.6613 70.5401 102.873 87.1717 77.8165 93.7587C77.8165 93.7587 78.1069 93.4995 78.1935 93.2673Z" fill="white"/>
<path d="M66.8822 20C66.8822 20 77.2727 30.3943 57.0272 46.3769C40.7927 59.1981 53.3252 66.5083 57.0206 74.8606C47.5441 66.3106 40.5894 58.7838 45.2553 51.7788C52.1031 41.4954 71.0743 36.5102 66.8822 20Z" fill="white"/>
<path d="M47.4338 119.685C65.4426 120.838 93.097 119.046 93.752 110.525C93.752 110.525 92.4931 113.755 78.8687 116.32C63.4978 119.213 44.5401 118.875 33.296 117.021C33.296 117.021 35.5975 118.926 47.4338 119.685Z" fill="white"/>
<path d="M139.7 53.2727H146.54V76.0923C146.54 78.2017 146.066 80.0341 145.117 81.5895C144.18 83.1449 142.875 84.3434 141.202 85.185C139.53 86.0266 137.585 86.4474 135.37 86.4474C133.399 86.4474 131.609 86.1012 130 85.4087C128.402 84.7056 127.134 83.6403 126.197 82.2127C125.259 80.7745 124.796 78.9687 124.807 76.7955H131.694C131.715 77.6584 131.891 78.3988 132.221 79.0167C132.562 79.6239 133.026 80.0927 133.612 80.4229C134.208 80.7425 134.911 80.9023 135.721 80.9023C136.573 80.9023 137.292 80.7212 137.878 80.359C138.475 79.9862 138.928 79.4428 139.237 78.729C139.546 78.0153 139.7 77.1364 139.7 76.0923V53.2727ZM159.132 86.4634C157.566 86.4634 156.17 86.1918 154.945 85.6484C153.72 85.0945 152.751 84.2795 152.037 83.2035C151.334 82.1168 150.982 80.7638 150.982 79.1445C150.982 77.7809 151.232 76.6357 151.733 75.7088C152.234 74.782 152.916 74.0362 153.779 73.4716C154.642 72.907 155.622 72.4808 156.719 72.1932C157.827 71.9055 158.988 71.7031 160.203 71.5859C161.63 71.4368 162.781 71.2983 163.654 71.1705C164.528 71.032 165.162 70.8295 165.556 70.5632C165.95 70.2969 166.147 69.9027 166.147 69.3807V69.2848C166.147 68.2727 165.828 67.4897 165.188 66.9357C164.56 66.3817 163.665 66.1048 162.504 66.1048C161.279 66.1048 160.304 66.3764 159.579 66.9197C158.855 67.4524 158.376 68.1236 158.141 68.9332L151.845 68.4219C152.165 66.9304 152.793 65.6413 153.731 64.5547C154.668 63.4574 155.877 62.6158 157.358 62.0298C158.85 61.4332 160.576 61.1349 162.536 61.1349C163.899 61.1349 165.204 61.2947 166.451 61.6143C167.708 61.9339 168.821 62.4293 169.791 63.1005C170.771 63.7717 171.543 64.6346 172.108 65.6893C172.672 66.7333 172.955 67.9851 172.955 69.4446V86H166.499V82.5962H166.307C165.913 83.3633 165.386 84.0398 164.725 84.6257C164.065 85.201 163.271 85.6538 162.344 85.984C161.417 86.3036 160.346 86.4634 159.132 86.4634ZM161.082 81.7653C162.083 81.7653 162.967 81.5682 163.734 81.174C164.501 80.7692 165.103 80.2259 165.54 79.544C165.977 78.8622 166.195 78.0898 166.195 77.2269V74.6222C165.982 74.7607 165.689 74.8885 165.316 75.0057C164.954 75.1122 164.544 75.2134 164.086 75.3093C163.628 75.3945 163.17 75.4744 162.712 75.549C162.253 75.6129 161.838 75.6715 161.465 75.7248C160.666 75.842 159.968 76.0284 159.372 76.2841C158.775 76.5398 158.312 76.886 157.981 77.3228C157.651 77.7489 157.486 78.2816 157.486 78.9208C157.486 79.8477 157.822 80.5561 158.493 81.0462C159.175 81.5256 160.038 81.7653 161.082 81.7653ZM200.241 61.4545L191.66 86H183.989L175.408 61.4545H182.599L187.696 79.0167H187.952L193.034 61.4545H200.241ZM210.065 86.4634C208.499 86.4634 207.103 86.1918 205.878 85.6484C204.653 85.0945 203.683 84.2795 202.969 83.2035C202.266 82.1168 201.915 80.7638 201.915 79.1445C201.915 77.7809 202.165 76.6357 202.666 75.7088C203.167 74.782 203.848 74.0362 204.711 73.4716C205.574 72.907 206.554 72.4808 207.652 72.1932C208.76 71.9055 209.921 71.7031 211.135 71.5859C212.563 71.4368 213.713 71.2983 214.587 71.1705C215.461 71.032 216.094 70.8295 216.489 70.5632C216.883 70.2969 217.08 69.9027 217.08 69.3807V69.2848C217.08 68.2727 216.76 67.4897 216.121 66.9357C215.493 66.3817 214.598 66.1048 213.436 66.1048C212.211 66.1048 211.236 66.3764 210.512 66.9197C209.788 67.4524 209.308 68.1236 209.074 68.9332L202.778 68.4219C203.097 66.9304 203.726 65.6413 204.663 64.5547C205.601 63.4574 206.81 62.6158 208.291 62.0298C209.782 61.4332 211.508 61.1349 213.468 61.1349C214.832 61.1349 216.137 61.2947 217.383 61.6143C218.641 61.9339 219.754 62.4293 220.723 63.1005C221.703 63.7717 222.476 64.6346 223.04 65.6893C223.605 66.7333 223.887 67.9851 223.887 69.4446V86H217.431V82.5962H217.24C216.845 83.3633 216.318 84.0398 215.658 84.6257C214.997 85.201 214.203 85.6538 213.277 85.984C212.35 86.3036 211.279 86.4634 210.065 86.4634ZM212.014 81.7653C213.016 81.7653 213.9 81.5682 214.667 81.174C215.434 80.7692 216.036 80.2259 216.473 79.544C216.909 78.8622 217.128 78.0898 217.128 77.2269V74.6222C216.915 74.7607 216.622 74.8885 216.249 75.0057C215.887 75.1122 215.477 75.2134 215.018 75.3093C214.56 75.3945 214.102 75.4744 213.644 75.549C213.186 75.6129 212.771 75.6715 212.398 75.7248C211.599 75.842 210.901 76.0284 210.304 76.2841C209.708 76.5398 209.244 76.886 208.914 77.3228C208.584 77.7489 208.419 78.2816 208.419 78.9208C208.419 79.8477 208.754 80.5561 209.425 81.0462C210.107 81.5256 210.97 81.7653 212.014 81.7653Z" fill="white"/>
</svg>
