<svg width="303" height="140" viewBox="0 0 303 140" fill="none" xmlns="http://www.w3.org/2000/svg">
<rect width="302.126" height="140" rx="20" fill="#4E293A"/>
<path fill-rule="evenodd" clip-rule="evenodd" d="M98.126 19.999H20V57.4995C33.5158 57.4995 46.2035 60.9777 57.2911 67.0215L98.126 19.999Z" fill="#F04E98"/>
<path fill-rule="evenodd" clip-rule="evenodd" d="M20 57.4995V109.963L57.2911 67.0215C46.2035 60.9777 33.5158 57.4995 20 57.4995Z" fill="#343741"/>
<mask id="mask0_114_48" style="mask-type:luminance" maskUnits="userSpaceOnUse" x="23" y="72" width="74" height="49">
<path d="M23.7026 72.0459H96.5598V120.001H23.7026V72.0459Z" fill="white"/>
</mask>
<g mask="url(#mask0_114_48)">
<path fill-rule="evenodd" clip-rule="evenodd" d="M65.3469 72.0454L27.0808 116.115L23.7026 120.002H96.5598C92.5629 100.302 81.1284 83.3237 65.3469 72.0454Z" fill="#00BFB3"/>
</g>
<path d="M130.97 86V53.2727H137.89V67.7028H138.321L150.099 53.2727H158.392L146.247 67.9265L158.536 86H150.258L141.294 72.5447L137.89 76.6996V86H130.97ZM163.406 86V61.4545H170.214V86H163.406ZM166.826 58.2905C165.814 58.2905 164.945 57.9549 164.221 57.2837C163.507 56.6019 163.15 55.7869 163.15 54.8388C163.15 53.9013 163.507 53.0969 164.221 52.4258C164.945 51.744 165.814 51.4031 166.826 51.4031C167.838 51.4031 168.701 51.744 169.415 52.4258C170.139 53.0969 170.501 53.9013 170.501 54.8388C170.501 55.7869 170.139 56.6019 169.415 57.2837C168.701 57.9549 167.838 58.2905 166.826 58.2905ZM175.795 86V53.2727H182.602V65.5774H182.81C183.108 64.9169 183.54 64.2457 184.104 63.5639C184.68 62.8714 185.425 62.2962 186.342 61.8381C187.268 61.3693 188.419 61.1349 189.793 61.1349C191.583 61.1349 193.234 61.6037 194.747 62.5412C196.26 63.468 197.469 64.869 198.375 66.744C199.28 68.6083 199.733 70.9467 199.733 73.7592C199.733 76.4972 199.291 78.8089 198.407 80.6946C197.533 82.5696 196.34 83.9918 194.827 84.9613C193.325 85.9201 191.642 86.3995 189.777 86.3995C188.456 86.3995 187.332 86.1811 186.405 85.7443C185.489 85.3075 184.738 84.7589 184.152 84.0984C183.566 83.4272 183.119 82.7507 182.81 82.0689H182.506V86H175.795ZM182.458 73.7273C182.458 75.1868 182.661 76.4599 183.066 77.5465C183.47 78.6332 184.056 79.4801 184.823 80.0874C185.59 80.6839 186.523 80.9822 187.62 80.9822C188.728 80.9822 189.665 80.6786 190.432 80.0714C191.199 79.4535 191.78 78.6012 192.174 77.5146C192.579 76.4173 192.782 75.1548 192.782 73.7273C192.782 72.3104 192.584 71.0639 192.19 69.9879C191.796 68.9119 191.215 68.0703 190.448 67.4631C189.681 66.8558 188.739 66.5522 187.62 66.5522C186.512 66.5522 185.574 66.8452 184.807 67.4311C184.051 68.017 183.47 68.848 183.066 69.924C182.661 71 182.458 72.2678 182.458 73.7273ZM211.275 86.4634C209.708 86.4634 208.313 86.1918 207.088 85.6484C205.863 85.0945 204.893 84.2795 204.179 83.2035C203.476 82.1168 203.125 80.7638 203.125 79.1445C203.125 77.7809 203.375 76.6357 203.876 75.7088C204.376 74.782 205.058 74.0362 205.921 73.4716C206.784 72.907 207.764 72.4808 208.862 72.1932C209.969 71.9055 211.131 71.7031 212.345 71.5859C213.773 71.4368 214.923 71.2983 215.797 71.1705C216.67 71.032 217.304 70.8295 217.699 70.5632C218.093 70.2969 218.29 69.9027 218.29 69.3807V69.2848C218.29 68.2727 217.97 67.4897 217.331 66.9357C216.702 66.3817 215.808 66.1048 214.646 66.1048C213.421 66.1048 212.446 66.3764 211.722 66.9197C210.998 67.4524 210.518 68.1236 210.284 68.9332L203.988 68.4219C204.307 66.9304 204.936 65.6413 205.873 64.5547C206.811 63.4574 208.02 62.6158 209.501 62.0298C210.992 61.4332 212.718 61.1349 214.678 61.1349C216.042 61.1349 217.347 61.2947 218.593 61.6143C219.85 61.9339 220.964 62.4293 221.933 63.1005C222.913 63.7717 223.686 64.6346 224.25 65.6893C224.815 66.7333 225.097 67.9851 225.097 69.4446V86H218.641V82.5962H218.45C218.055 83.3633 217.528 84.0398 216.868 84.6257C216.207 85.201 215.413 85.6538 214.487 85.984C213.56 86.3036 212.489 86.4634 211.275 86.4634ZM213.224 81.7653C214.225 81.7653 215.11 81.5682 215.877 81.174C216.644 80.7692 217.246 80.2259 217.683 79.544C218.119 78.8622 218.338 78.0898 218.338 77.2269V74.6222C218.125 74.7607 217.832 74.8885 217.459 75.0057C217.097 75.1122 216.686 75.2134 216.228 75.3093C215.77 75.3945 215.312 75.4744 214.854 75.549C214.396 75.6129 213.98 75.6715 213.608 75.7248C212.809 75.842 212.111 76.0284 211.514 76.2841C210.918 76.5398 210.454 76.886 210.124 77.3228C209.794 77.7489 209.629 78.2816 209.629 78.9208C209.629 79.8477 209.964 80.5561 210.635 81.0462C211.317 81.5256 212.18 81.7653 213.224 81.7653ZM237.186 71.8097V86H230.379V61.4545H236.867V65.7852H237.154C237.698 64.3576 238.608 63.2283 239.887 62.3974C241.165 61.5558 242.715 61.1349 244.537 61.1349C246.242 61.1349 247.728 61.5078 248.996 62.2536C250.263 62.9993 251.249 64.0646 251.952 65.4496C252.655 66.8239 253.007 68.4645 253.007 70.3714V86H246.199V71.5859C246.21 70.0838 245.826 68.9119 245.048 68.0703C244.271 67.218 243.2 66.7919 241.836 66.7919C240.92 66.7919 240.111 66.989 239.407 67.3832C238.715 67.7773 238.172 68.3526 237.778 69.109C237.394 69.8548 237.197 70.755 237.186 71.8097ZM265.371 86.4634C263.805 86.4634 262.41 86.1918 261.184 85.6484C259.959 85.0945 258.99 84.2795 258.276 83.2035C257.573 82.1168 257.221 80.7638 257.221 79.1445C257.221 77.7809 257.472 76.6357 257.972 75.7088C258.473 74.782 259.155 74.0362 260.018 73.4716C260.881 72.907 261.861 72.4808 262.958 72.1932C264.066 71.9055 265.227 71.7031 266.442 71.5859C267.869 71.4368 269.02 71.2983 269.894 71.1705C270.767 71.032 271.401 70.8295 271.795 70.5632C272.189 70.2969 272.386 69.9027 272.386 69.3807V69.2848C272.386 68.2727 272.067 67.4897 271.428 66.9357C270.799 66.3817 269.904 66.1048 268.743 66.1048C267.518 66.1048 266.543 66.3764 265.819 66.9197C265.094 67.4524 264.615 68.1236 264.38 68.9332L258.084 68.4219C258.404 66.9304 259.032 65.6413 259.97 64.5547C260.907 63.4574 262.117 62.6158 263.597 62.0298C265.089 61.4332 266.815 61.1349 268.775 61.1349C270.139 61.1349 271.444 61.2947 272.69 61.6143C273.947 61.9339 275.06 62.4293 276.03 63.1005C277.01 63.7717 277.782 64.6346 278.347 65.6893C278.912 66.7333 279.194 67.9851 279.194 69.4446V86H272.738V82.5962H272.546C272.152 83.3633 271.625 84.0398 270.964 84.6257C270.304 85.201 269.51 85.6538 268.583 85.984C267.656 86.3036 266.586 86.4634 265.371 86.4634ZM267.321 81.7653C268.322 81.7653 269.206 81.5682 269.973 81.174C270.741 80.7692 271.342 80.2259 271.779 79.544C272.216 78.8622 272.434 78.0898 272.434 77.2269V74.6222C272.221 74.7607 271.928 74.8885 271.555 75.0057C271.193 75.1122 270.783 75.2134 270.325 75.3093C269.867 75.3945 269.409 75.4744 268.951 75.549C268.493 75.6129 268.077 75.6715 267.704 75.7248C266.905 75.842 266.207 76.0284 265.611 76.2841C265.014 76.5398 264.551 76.886 264.221 77.3228C263.89 77.7489 263.725 78.2816 263.725 78.9208C263.725 79.8477 264.061 80.5561 264.732 81.0462C265.414 81.5256 266.277 81.7653 267.321 81.7653Z" fill="white"/>
</svg>
