<svg width="298" height="140" viewBox="0 0 298 140" fill="none" xmlns="http://www.w3.org/2000/svg">
<rect width="297.954" height="140" rx="20" fill="url(#paint0_linear_20_46)"/>
<path d="M119.954 120H20V20H119.954L68.9427 69.275L119.954 120Z" fill="white"/>
<path d="M152.799 86V53.2727H159.718V67.7028H160.15L171.927 53.2727H180.221L168.076 67.9265L180.365 86H172.087L163.122 72.5447L159.718 76.6996V86H152.799ZM192.985 86.4794C190.503 86.4794 188.356 85.9521 186.545 84.8974C184.744 83.832 183.354 82.3512 182.374 80.4549C181.394 78.5479 180.904 76.3374 180.904 73.8232C180.904 71.2876 181.394 69.0717 182.374 67.1754C183.354 65.2685 184.744 63.7876 186.545 62.733C188.356 61.6676 190.503 61.1349 192.985 61.1349C195.467 61.1349 197.608 61.6676 199.409 62.733C201.22 63.7876 202.615 65.2685 203.596 67.1754C204.576 69.0717 205.066 71.2876 205.066 73.8232C205.066 76.3374 204.576 78.5479 203.596 80.4549C202.615 82.3512 201.22 83.832 199.409 84.8974C197.608 85.9521 195.467 86.4794 192.985 86.4794ZM193.017 81.206C194.146 81.206 195.089 80.8864 195.845 80.2472C196.602 79.5973 197.172 78.7131 197.555 77.5945C197.949 76.4759 198.146 75.2028 198.146 73.7752C198.146 72.3477 197.949 71.0746 197.555 69.956C197.172 68.8374 196.602 67.9531 195.845 67.3033C195.089 66.6534 194.146 66.3285 193.017 66.3285C191.877 66.3285 190.918 66.6534 190.14 67.3033C189.373 67.9531 188.793 68.8374 188.399 69.956C188.015 71.0746 187.823 72.3477 187.823 73.7752C187.823 75.2028 188.015 76.4759 188.399 77.5945C188.793 78.7131 189.373 79.5973 190.14 80.2472C190.918 80.8864 191.877 81.206 193.017 81.206ZM222.548 61.4545V66.5682H207.766V61.4545H222.548ZM211.122 55.5739H217.93V78.4574C217.93 79.0859 218.026 79.576 218.217 79.9276C218.409 80.2685 218.675 80.5082 219.016 80.6467C219.368 80.7852 219.773 80.8544 220.231 80.8544C220.55 80.8544 220.87 80.8278 221.19 80.7745C221.509 80.7106 221.754 80.6626 221.925 80.6307L222.995 85.6964C222.655 85.8029 222.175 85.9254 221.557 86.0639C220.939 86.2131 220.188 86.3036 219.304 86.3356C217.663 86.3995 216.225 86.1811 214.989 85.6804C213.764 85.1797 212.811 84.402 212.129 83.3473C211.447 82.2926 211.112 80.9609 211.122 79.3523V55.5739ZM234.317 53.2727V86H227.51V53.2727H234.317ZM239.771 86V61.4545H246.578V86H239.771ZM243.19 58.2905C242.178 58.2905 241.31 57.9549 240.586 57.2837C239.872 56.6019 239.515 55.7869 239.515 54.8388C239.515 53.9013 239.872 53.0969 240.586 52.4258C241.31 51.744 242.178 51.4031 243.19 51.4031C244.202 51.4031 245.065 51.744 245.779 52.4258C246.504 53.0969 246.866 53.9013 246.866 54.8388C246.866 55.7869 246.504 56.6019 245.779 57.2837C245.065 57.9549 244.202 58.2905 243.19 58.2905ZM258.839 71.8097V86H252.031V61.4545H258.519V65.7852H258.807C259.35 64.3576 260.261 63.2283 261.539 62.3974C262.818 61.5558 264.368 61.1349 266.19 61.1349C267.894 61.1349 269.38 61.5078 270.648 62.2536C271.916 62.9993 272.901 64.0646 273.604 65.4496C274.308 66.8239 274.659 68.4645 274.659 70.3714V86H267.852V71.5859C267.862 70.0838 267.479 68.9119 266.701 68.0703C265.923 67.218 264.853 66.7919 263.489 66.7919C262.573 66.7919 261.763 66.989 261.06 67.3832C260.368 67.7773 259.824 68.3526 259.43 69.109C259.047 69.8548 258.849 70.755 258.839 71.8097Z" fill="white"/>
<defs>
<linearGradient id="paint0_linear_20_46" x1="0" y1="140" x2="311.038" y2="40.9787" gradientUnits="userSpaceOnUse">
<stop stop-color="#7F52FF"/>
<stop offset="1" stop-color="#ED4464"/>
</linearGradient>
</defs>
</svg>
