<svg width="328" height="140" viewBox="0 0 328 140" fill="none" xmlns="http://www.w3.org/2000/svg">
<rect width="327.139" height="140" rx="20" fill="#FF2D20"/>
<path d="M117.084 42.6226C117.12 42.756 117.139 42.8934 117.139 43.0315V64.4962C117.139 64.7717 117.066 65.0423 116.928 65.2807C116.79 65.5191 116.592 65.7169 116.352 65.8539L98.3368 76.2263V96.7853C98.3368 97.3448 98.0395 97.8612 97.5543 98.1429L59.948 119.792C59.8619 119.84 59.768 119.872 59.6741 119.905C59.6389 119.917 59.6056 119.938 59.5685 119.948C59.3056 120.017 59.0292 120.017 58.7664 119.948C58.7234 119.936 58.6842 119.913 58.6432 119.897C58.557 119.866 58.4671 119.839 58.3849 119.792L20.7864 98.1429C20.5476 98.0057 20.3491 97.808 20.2111 97.5696C20.073 97.3313 20.0002 97.0607 20 96.7853V32.3911C20 32.2502 20.0196 32.1133 20.0548 31.9802C20.0665 31.9352 20.0939 31.8942 20.1096 31.8492C20.1389 31.767 20.1663 31.6829 20.2093 31.6066C20.2387 31.5557 20.2817 31.5147 20.3169 31.4677C20.3619 31.4051 20.403 31.3405 20.4558 31.2858C20.5008 31.2408 20.5595 31.2075 20.6104 31.1684C20.6671 31.1214 20.718 31.0706 20.7825 31.0333H20.7845L39.5847 20.2091C39.8228 20.0721 40.0926 20 40.3672 20C40.6418 20 40.9117 20.0721 41.1497 20.2091L59.9499 31.0333H59.9538C60.0164 31.0725 60.0692 31.1214 60.126 31.1664C60.1769 31.2056 60.2336 31.2408 60.2786 31.2838C60.3333 31.3405 60.3725 31.4051 60.4195 31.4677C60.4527 31.5147 60.4977 31.5557 60.5251 31.6066C60.5701 31.6848 60.5955 31.767 60.6268 31.8492C60.6425 31.8942 60.6699 31.9352 60.6816 31.9822C60.7176 32.1155 60.736 32.253 60.7364 32.3911V72.611L76.4026 63.5904V43.0295C76.4026 42.8926 76.4221 42.7536 76.4573 42.6226C76.471 42.5757 76.4965 42.5346 76.5121 42.4896C76.5435 42.4074 76.5708 42.3233 76.6139 42.247C76.6432 42.1962 76.6862 42.1551 76.7195 42.1081C76.7664 42.0455 76.8056 41.9809 76.8604 41.9262C76.9054 41.8811 76.9621 41.8479 77.0129 41.8088C77.0716 41.7618 77.1225 41.711 77.1851 41.6738H77.1871L95.9892 30.8495C96.2272 30.7123 96.4971 30.6401 96.7717 30.6401C97.0464 30.6401 97.3163 30.7123 97.5543 30.8495L116.354 41.6738C116.421 41.7129 116.472 41.7618 116.531 41.8069C116.579 41.8459 116.636 41.8811 116.681 41.9242C116.736 41.9809 116.775 42.0455 116.822 42.1081C116.857 42.1551 116.9 42.1962 116.928 42.247C116.973 42.3233 116.998 42.4074 117.029 42.4896C117.047 42.5346 117.072 42.5757 117.084 42.6226ZM114.005 63.5904V45.741L98.3368 54.7616V72.611L114.007 63.5904H114.005ZM95.2047 95.8795V78.0183L60.7344 97.6949V115.724L95.2047 95.8795ZM23.134 35.1006V95.8795L57.6004 115.722V97.6969L39.5945 87.5064L39.5886 87.5025L39.5808 87.4986C39.5201 87.4634 39.4693 87.4125 39.4126 87.3695C39.3637 87.3303 39.3069 87.299 39.2639 87.256L39.2599 87.2502C39.2091 87.2013 39.1739 87.1406 39.1308 87.0859C39.0917 87.033 39.0447 86.9881 39.0134 86.9332L39.0115 86.9274C38.9763 86.8686 38.9548 86.7982 38.9293 86.7317C38.9039 86.673 38.8707 86.6183 38.855 86.5556V86.5537C38.8355 86.4794 38.8315 86.4011 38.8237 86.3248C38.8158 86.2662 38.8002 86.2074 38.8002 86.1488V44.1212L23.134 35.1025V35.1006ZM40.3692 23.3744L24.7049 32.3911L40.3653 41.4078L56.0275 32.3891L40.3653 23.3744H40.3692ZM57.6023 74.4148V35.1006L41.9342 44.1212V83.4353L57.6023 74.4148ZM96.7717 34.0148L81.1094 43.0315L96.7717 52.0482L112.432 43.0295L96.7717 34.0148ZM95.2047 54.7616L79.5366 45.741V63.5904L95.2047 72.611V54.7616ZM59.1654 94.9854L93.6221 75.3167L77.9716 66.3058L43.5286 86.1351L59.1654 94.9854Z" fill="white"/>
<path d="M149.983 86V53.2727H156.903V80.2951H170.933V86H149.983ZM182.387 86.4634C180.821 86.4634 179.425 86.1918 178.2 85.6484C176.975 85.0945 176.006 84.2795 175.292 83.2035C174.589 82.1168 174.237 80.7638 174.237 79.1445C174.237 77.7809 174.488 76.6357 174.988 75.7088C175.489 74.782 176.171 74.0362 177.034 73.4716C177.897 72.907 178.877 72.4808 179.974 72.1932C181.082 71.9055 182.243 71.7031 183.458 71.5859C184.885 71.4368 186.036 71.2983 186.909 71.1705C187.783 71.032 188.417 70.8295 188.811 70.5632C189.205 70.2969 189.402 69.9027 189.402 69.3807V69.2848C189.402 68.2727 189.083 67.4897 188.444 66.9357C187.815 66.3817 186.92 66.1048 185.759 66.1048C184.534 66.1048 183.559 66.3764 182.834 66.9197C182.11 67.4524 181.631 68.1236 181.396 68.9332L175.1 68.4219C175.42 66.9304 176.048 65.6413 176.986 64.5547C177.923 63.4574 179.132 62.6158 180.613 62.0298C182.105 61.4332 183.831 61.1349 185.791 61.1349C187.154 61.1349 188.459 61.2947 189.706 61.6143C190.963 61.9339 192.076 62.4293 193.046 63.1005C194.026 63.7717 194.798 64.6346 195.363 65.6893C195.928 66.7333 196.21 67.9851 196.21 69.4446V86H189.754V82.5962H189.562C189.168 83.3633 188.641 84.0398 187.98 84.6257C187.32 85.201 186.526 85.6538 185.599 85.984C184.672 86.3036 183.602 86.4634 182.387 86.4634ZM184.337 81.7653C185.338 81.7653 186.222 81.5682 186.989 81.174C187.756 80.7692 188.358 80.2259 188.795 79.544C189.232 78.8622 189.45 78.0898 189.45 77.2269V74.6222C189.237 74.7607 188.944 74.8885 188.571 75.0057C188.209 75.1122 187.799 75.2134 187.341 75.3093C186.883 75.3945 186.425 75.4744 185.967 75.549C185.509 75.6129 185.093 75.6715 184.72 75.7248C183.921 75.842 183.223 76.0284 182.627 76.2841C182.03 76.5398 181.567 76.886 181.236 77.3228C180.906 77.7489 180.741 78.2816 180.741 78.9208C180.741 79.8477 181.077 80.5561 181.748 81.0462C182.43 81.5256 183.293 81.7653 184.337 81.7653ZM201.491 86V61.4545H208.091V65.7372H208.347C208.794 64.2138 209.545 63.0632 210.6 62.2855C211.655 61.4972 212.869 61.103 214.243 61.103C214.584 61.103 214.952 61.1243 215.346 61.1669C215.74 61.2095 216.086 61.2681 216.385 61.3427V67.3832C216.065 67.2873 215.623 67.2021 215.058 67.1275C214.494 67.0529 213.977 67.0156 213.508 67.0156C212.507 67.0156 211.612 67.234 210.824 67.6708C210.046 68.0969 209.428 68.6935 208.97 69.4606C208.523 70.2276 208.299 71.1119 208.299 72.1133V86H201.491ZM226.201 86.4634C224.634 86.4634 223.239 86.1918 222.014 85.6484C220.789 85.0945 219.819 84.2795 219.105 83.2035C218.402 82.1168 218.051 80.7638 218.051 79.1445C218.051 77.7809 218.301 76.6357 218.802 75.7088C219.302 74.782 219.984 74.0362 220.847 73.4716C221.71 72.907 222.69 72.4808 223.788 72.1932C224.895 71.9055 226.057 71.7031 227.271 71.5859C228.699 71.4368 229.849 71.2983 230.723 71.1705C231.596 71.032 232.23 70.8295 232.625 70.5632C233.019 70.2969 233.216 69.9027 233.216 69.3807V69.2848C233.216 68.2727 232.896 67.4897 232.257 66.9357C231.628 66.3817 230.734 66.1048 229.572 66.1048C228.347 66.1048 227.372 66.3764 226.648 66.9197C225.924 67.4524 225.444 68.1236 225.21 68.9332L218.914 68.4219C219.233 66.9304 219.862 65.6413 220.799 64.5547C221.737 63.4574 222.946 62.6158 224.427 62.0298C225.918 61.4332 227.644 61.1349 229.604 61.1349C230.968 61.1349 232.273 61.2947 233.519 61.6143C234.777 61.9339 235.89 62.4293 236.859 63.1005C237.839 63.7717 238.612 64.6346 239.176 65.6893C239.741 66.7333 240.023 67.9851 240.023 69.4446V86H233.567V82.5962H233.376C232.981 83.3633 232.454 84.0398 231.794 84.6257C231.133 85.201 230.339 85.6538 229.413 85.984C228.486 86.3036 227.415 86.4634 226.201 86.4634ZM228.15 81.7653C229.152 81.7653 230.036 81.5682 230.803 81.174C231.57 80.7692 232.172 80.2259 232.609 79.544C233.045 78.8622 233.264 78.0898 233.264 77.2269V74.6222C233.051 74.7607 232.758 74.8885 232.385 75.0057C232.023 75.1122 231.612 75.2134 231.154 75.3093C230.696 75.3945 230.238 75.4744 229.78 75.549C229.322 75.6129 228.906 75.6715 228.534 75.7248C227.735 75.842 227.037 76.0284 226.44 76.2841C225.844 76.5398 225.38 76.886 225.05 77.3228C224.72 77.7489 224.555 78.2816 224.555 78.9208C224.555 79.8477 224.89 80.5561 225.561 81.0462C226.243 81.5256 227.106 81.7653 228.15 81.7653ZM267.309 61.4545L258.728 86H251.058L242.476 61.4545H249.667L254.765 79.0167H255.021L260.102 61.4545H267.309ZM281.188 86.4794C278.663 86.4794 276.49 85.968 274.668 84.9453C272.857 83.9119 271.462 82.4524 270.481 80.5668C269.501 78.6705 269.011 76.4279 269.011 73.8391C269.011 71.3143 269.501 69.0984 270.481 67.1914C271.462 65.2844 272.841 63.7983 274.62 62.733C276.41 61.6676 278.509 61.1349 280.916 61.1349C282.536 61.1349 284.043 61.396 285.439 61.918C286.845 62.4293 288.07 63.2017 289.114 64.2351C290.169 65.2685 290.989 66.5682 291.575 68.1342C292.161 69.6896 292.454 71.5114 292.454 73.5994V75.4691H271.728V71.2504H286.046C286.046 70.2702 285.833 69.402 285.407 68.6456C284.981 67.8892 284.389 67.2979 283.633 66.8718C282.887 66.435 282.019 66.2166 281.028 66.2166C279.995 66.2166 279.079 66.4563 278.28 66.9357C277.491 67.4045 276.873 68.0384 276.426 68.8374C275.979 69.6257 275.75 70.5046 275.739 71.4741V75.4851C275.739 76.6996 275.963 77.7489 276.41 78.6332C276.868 79.5174 277.513 80.1992 278.344 80.6786C279.175 81.158 280.16 81.3977 281.3 81.3977C282.056 81.3977 282.749 81.2912 283.377 81.0781C284.006 80.8651 284.544 80.5455 284.991 80.1193C285.439 79.6932 285.78 79.1712 286.014 78.5533L292.31 78.9688C291.991 80.4815 291.335 81.8026 290.345 82.9318C289.365 84.0504 288.097 84.924 286.541 85.5526C284.997 86.1705 283.212 86.4794 281.188 86.4794ZM303.704 53.2727V86H296.897V53.2727H303.704Z" fill="white"/>
</svg>
