<svg width="140" height="140" viewBox="0 0 140 140" fill="none" xmlns="http://www.w3.org/2000/svg">
<rect width="140" height="140" rx="20" fill="#FF2D20"/>
<path d="M118.515 42.6226C118.551 42.756 118.569 42.8934 118.57 43.0315V64.4962C118.57 64.7717 118.497 65.0423 118.359 65.2807C118.221 65.5191 118.022 65.7169 117.783 65.8539L99.7674 76.2263V96.7853C99.7674 97.3448 99.4701 97.8612 98.985 98.1429L61.3787 119.792C61.2925 119.84 61.1987 119.872 61.1048 119.905C61.0696 119.917 61.0363 119.938 60.9992 119.948C60.7363 120.017 60.4599 120.017 60.1971 119.948C60.154 119.936 60.1149 119.913 60.0738 119.897C59.9877 119.866 59.8978 119.839 59.8156 119.792L22.2171 98.1429C21.9783 98.0057 21.7798 97.808 21.6417 97.5696C21.5037 97.3313 21.4309 97.0607 21.4307 96.7853V32.3911C21.4307 32.2502 21.4502 32.1133 21.4854 31.9802C21.4972 31.9352 21.5246 31.8942 21.5402 31.8492C21.5696 31.767 21.597 31.6829 21.64 31.6066C21.6693 31.5557 21.7124 31.5147 21.7476 31.4677C21.7926 31.4051 21.8337 31.3405 21.8865 31.2858C21.9315 31.2408 21.9902 31.2075 22.041 31.1684C22.0978 31.1214 22.1486 31.0706 22.2132 31.0333H22.2151L41.0154 20.2091C41.2534 20.0721 41.5233 20 41.7978 20C42.0725 20 42.3423 20.0721 42.5804 20.2091L61.3806 31.0333H61.3845C61.4471 31.0725 61.4999 31.1214 61.5566 31.1664C61.6076 31.2056 61.6643 31.2408 61.7093 31.2838C61.764 31.3405 61.8031 31.4051 61.8501 31.4677C61.8833 31.5147 61.9284 31.5557 61.9558 31.6066C62.0008 31.6848 62.0262 31.767 62.0575 31.8492C62.0732 31.8942 62.1006 31.9352 62.1122 31.9822C62.1482 32.1155 62.1667 32.253 62.1671 32.3911V72.611L77.8333 63.5904V43.0295C77.8333 42.8926 77.8528 42.7536 77.888 42.6226C77.9017 42.5757 77.9271 42.5346 77.9427 42.4896C77.9741 42.4074 78.0015 42.3233 78.0446 42.247C78.0738 42.1962 78.1169 42.1551 78.1502 42.1081C78.1971 42.0455 78.2362 41.9809 78.2911 41.9262C78.336 41.8811 78.3928 41.8479 78.4436 41.8088C78.5022 41.7618 78.5532 41.711 78.6157 41.6738H78.6177L97.4198 30.8495C97.6579 30.7123 97.9277 30.6401 98.2024 30.6401C98.4771 30.6401 98.7469 30.7123 98.985 30.8495L117.785 41.6738C117.852 41.7129 117.903 41.7618 117.961 41.8069C118.01 41.8459 118.067 41.8811 118.112 41.9242C118.167 41.9809 118.206 42.0455 118.253 42.1081C118.288 42.1551 118.331 42.1962 118.358 42.247C118.403 42.3233 118.429 42.4074 118.46 42.4896C118.478 42.5346 118.503 42.5757 118.515 42.6226ZM115.436 63.5904V45.741L99.7674 54.7616V72.611L115.438 63.5904H115.436ZM96.6354 95.8795V78.0183L62.1651 97.6949V115.724L96.6354 95.8795ZM24.5647 35.1006V95.8795L59.0311 115.722V97.6969L41.0251 87.5064L41.0193 87.5025L41.0115 87.4986C40.9508 87.4634 40.9 87.4125 40.8432 87.3695C40.7943 87.3303 40.7376 87.299 40.6945 87.256L40.6906 87.2502C40.6398 87.2013 40.6046 87.1406 40.5615 87.0859C40.5224 87.033 40.4754 86.9881 40.4441 86.9332L40.4422 86.9274C40.407 86.8686 40.3854 86.7982 40.36 86.7317C40.3345 86.673 40.3013 86.6183 40.2856 86.5556V86.5537C40.2661 86.4794 40.2622 86.4011 40.2543 86.3248C40.2465 86.2662 40.2309 86.2074 40.2309 86.1488V44.1212L24.5647 35.1025V35.1006ZM41.7998 23.3744L26.1356 32.3911L41.7959 41.4078L57.4582 32.3891L41.7959 23.3744H41.7998ZM59.033 74.4148V35.1006L43.3649 44.1212V83.4353L59.033 74.4148ZM98.2024 34.0148L82.5401 43.0315L98.2024 52.0482L113.863 43.0295L98.2024 34.0148ZM96.6354 54.7616L80.9672 45.741V63.5904L96.6354 72.611V54.7616ZM60.5961 94.9854L95.0527 75.3167L79.4022 66.3058L44.9593 86.1351L60.5961 94.9854Z" fill="white"/>
</svg>
