<svg width="359" height="140" viewBox="0 0 359 140" fill="none" xmlns="http://www.w3.org/2000/svg">
<rect width="358.375" height="140" rx="20" fill="#20716C"/>
<path fill-rule="evenodd" clip-rule="evenodd" d="M70 120H104.375V82.5H70V120Z" fill="#00BFB3"/>
<path fill-rule="evenodd" clip-rule="evenodd" d="M23.125 20H20V82.5H60.625V57.5C60.625 36.7875 43.8344 20 23.125 20Z" fill="#FEC514"/>
<mask id="mask0_114_78" style="mask-type:luminance" maskUnits="userSpaceOnUse" x="20" y="82" width="41" height="38">
<path d="M20 82.5H60.625V119.999H20V82.5Z" fill="white"/>
</mask>
<g mask="url(#mask0_114_78)">
<path fill-rule="evenodd" clip-rule="evenodd" d="M20 82.5C20 103.209 36.7906 120 57.5 120H60.625V82.5H20Z" fill="#343741"/>
</g>
<path d="M137.219 86V53.2727H144.139V80.2951H158.169V86H137.219ZM173.714 86.4794C171.232 86.4794 169.085 85.9521 167.274 84.8974C165.474 83.832 164.083 82.3512 163.103 80.4549C162.123 78.5479 161.633 76.3374 161.633 73.8232C161.633 71.2876 162.123 69.0717 163.103 67.1754C164.083 65.2685 165.474 63.7876 167.274 62.733C169.085 61.6676 171.232 61.1349 173.714 61.1349C176.196 61.1349 178.338 61.6676 180.138 62.733C181.949 63.7876 183.345 65.2685 184.325 67.1754C185.305 69.0717 185.795 71.2876 185.795 73.8232C185.795 76.3374 185.305 78.5479 184.325 80.4549C183.345 82.3512 181.949 83.832 180.138 84.8974C178.338 85.9521 176.196 86.4794 173.714 86.4794ZM173.746 81.206C174.875 81.206 175.818 80.8864 176.574 80.2472C177.331 79.5973 177.901 78.7131 178.284 77.5945C178.679 76.4759 178.876 75.2028 178.876 73.7752C178.876 72.3477 178.679 71.0746 178.284 69.956C177.901 68.8374 177.331 67.9531 176.574 67.3033C175.818 66.6534 174.875 66.3285 173.746 66.3285C172.606 66.3285 171.647 66.6534 170.87 67.3033C170.103 67.9531 169.522 68.8374 169.128 69.956C168.744 71.0746 168.552 72.3477 168.552 73.7752C168.552 75.2028 168.744 76.4759 169.128 77.5945C169.522 78.7131 170.103 79.5973 170.87 80.2472C171.647 80.8864 172.606 81.206 173.746 81.206ZM201.28 95.7159C199.074 95.7159 197.184 95.4123 195.607 94.805C194.041 94.2085 192.794 93.3935 191.867 92.3601C190.941 91.3267 190.339 90.1655 190.062 88.8764L196.358 88.0295C196.55 88.5195 196.853 88.9776 197.269 89.4038C197.684 89.8299 198.233 90.1708 198.915 90.4265C199.607 90.6928 200.449 90.826 201.44 90.826C202.92 90.826 204.14 90.4638 205.099 89.7393C206.068 89.0256 206.553 87.8271 206.553 86.1438V81.6534H206.266C205.967 82.3352 205.52 82.9798 204.923 83.587C204.327 84.1942 203.56 84.6896 202.622 85.0732C201.685 85.4567 200.566 85.6484 199.266 85.6484C197.423 85.6484 195.745 85.2223 194.233 84.37C192.73 83.5071 191.532 82.1914 190.637 80.4229C189.753 78.6438 189.311 76.396 189.311 73.6793C189.311 70.8988 189.763 68.5763 190.669 66.712C191.574 64.8477 192.778 63.4521 194.28 62.5252C195.793 61.5984 197.45 61.1349 199.25 61.1349C200.625 61.1349 201.775 61.3693 202.702 61.8381C203.629 62.2962 204.375 62.8714 204.939 63.5639C205.514 64.2457 205.957 64.9169 206.266 65.5774H206.521V61.4545H213.281V86.2397C213.281 88.3278 212.769 90.0749 211.747 91.4812C210.724 92.8874 209.307 93.9421 207.496 94.6452C205.696 95.359 203.623 95.7159 201.28 95.7159ZM201.424 80.5348C202.521 80.5348 203.448 80.2631 204.204 79.7198C204.971 79.1658 205.557 78.3775 205.962 77.3548C206.377 76.3214 206.585 75.0856 206.585 73.6474C206.585 72.2092 206.383 70.9627 205.978 69.908C205.573 68.8427 204.987 68.017 204.22 67.4311C203.453 66.8452 202.521 66.5522 201.424 66.5522C200.305 66.5522 199.362 66.8558 198.595 67.4631C197.828 68.0597 197.247 68.8906 196.853 69.956C196.459 71.0213 196.262 72.2518 196.262 73.6474C196.262 75.0643 196.459 76.2894 196.853 77.3228C197.258 78.3455 197.839 79.1392 198.595 79.7038C199.362 80.2578 200.305 80.5348 201.424 80.5348ZM239.121 68.4538L232.888 68.8374C232.782 68.3047 232.553 67.8253 232.201 67.3991C231.85 66.9624 231.386 66.6161 230.811 66.3604C230.246 66.0941 229.57 65.9609 228.782 65.9609C227.727 65.9609 226.837 66.1847 226.113 66.6321C225.388 67.0689 225.026 67.6548 225.026 68.3899C225.026 68.9759 225.261 69.4712 225.729 69.8761C226.198 70.2809 227.002 70.6058 228.142 70.8509L232.585 71.7457C234.971 72.2358 236.75 73.0241 237.922 74.1108C239.094 75.1974 239.68 76.625 239.68 78.3935C239.68 80.0021 239.206 81.4137 238.258 82.6282C237.32 83.8427 236.031 84.7908 234.391 85.4727C232.761 86.1438 230.88 86.4794 228.75 86.4794C225.5 86.4794 222.911 85.8029 220.983 84.4499C219.066 83.0863 217.942 81.2326 217.611 78.8888L224.307 78.5373C224.509 79.5281 225 80.2844 225.777 80.8065C226.555 81.3178 227.551 81.5735 228.766 81.5735C229.959 81.5735 230.918 81.3445 231.642 80.8864C232.377 80.4176 232.75 79.8157 232.761 79.0806C232.75 78.4627 232.489 77.9567 231.978 77.5625C231.466 77.1577 230.678 76.8487 229.612 76.6357L225.362 75.7887C222.965 75.3093 221.18 74.4783 220.008 73.2958C218.847 72.1133 218.267 70.6058 218.267 68.7734C218.267 67.1967 218.693 65.8384 219.545 64.6985C220.408 63.5586 221.617 62.6797 223.172 62.0618C224.739 61.4439 226.571 61.1349 228.67 61.1349C231.77 61.1349 234.209 61.7901 235.989 63.1005C237.778 64.4109 238.822 66.1953 239.121 68.4538ZM257.022 61.4545V66.5682H242.241V61.4545H257.022ZM245.597 55.5739H252.404V78.4574C252.404 79.0859 252.5 79.576 252.692 79.9276C252.884 80.2685 253.15 80.5082 253.491 80.6467C253.842 80.7852 254.247 80.8544 254.705 80.8544C255.025 80.8544 255.344 80.8278 255.664 80.7745C255.984 80.7106 256.229 80.6626 256.399 80.6307L257.47 85.6964C257.129 85.8029 256.65 85.9254 256.032 86.0639C255.414 86.2131 254.663 86.3036 253.778 86.3356C252.138 86.3995 250.7 86.1811 249.464 85.6804C248.239 85.1797 247.285 84.402 246.603 83.3473C245.922 82.2926 245.586 80.9609 245.597 79.3523V55.5739ZM268.456 86.4634C266.89 86.4634 265.494 86.1918 264.269 85.6484C263.044 85.0945 262.075 84.2795 261.361 83.2035C260.658 82.1168 260.306 80.7638 260.306 79.1445C260.306 77.7809 260.557 76.6357 261.057 75.7088C261.558 74.782 262.24 74.0362 263.103 73.4716C263.966 72.907 264.946 72.4808 266.043 72.1932C267.151 71.9055 268.312 71.7031 269.527 71.5859C270.954 71.4368 272.105 71.2983 272.979 71.1705C273.852 71.032 274.486 70.8295 274.88 70.5632C275.274 70.2969 275.471 69.9027 275.471 69.3807V69.2848C275.471 68.2727 275.152 67.4897 274.513 66.9357C273.884 66.3817 272.989 66.1048 271.828 66.1048C270.603 66.1048 269.628 66.3764 268.904 66.9197C268.179 67.4524 267.7 68.1236 267.465 68.9332L261.169 68.4219C261.489 66.9304 262.117 65.6413 263.055 64.5547C263.992 63.4574 265.202 62.6158 266.682 62.0298C268.174 61.4332 269.9 61.1349 271.86 61.1349C273.224 61.1349 274.529 61.2947 275.775 61.6143C277.032 61.9339 278.145 62.4293 279.115 63.1005C280.095 63.7717 280.867 64.6346 281.432 65.6893C281.997 66.7333 282.279 67.9851 282.279 69.4446V86H275.823V82.5962H275.631C275.237 83.3633 274.71 84.0398 274.049 84.6257C273.389 85.201 272.595 85.6538 271.668 85.984C270.741 86.3036 269.671 86.4634 268.456 86.4634ZM270.406 81.7653C271.407 81.7653 272.291 81.5682 273.058 81.174C273.825 80.7692 274.427 80.2259 274.864 79.544C275.301 78.8622 275.519 78.0898 275.519 77.2269V74.6222C275.306 74.7607 275.013 74.8885 274.64 75.0057C274.278 75.1122 273.868 75.2134 273.41 75.3093C272.952 75.3945 272.494 75.4744 272.036 75.549C271.578 75.6129 271.162 75.6715 270.789 75.7248C269.99 75.842 269.292 76.0284 268.696 76.2841C268.099 76.5398 267.636 76.886 267.306 77.3228C266.975 77.7489 266.81 78.2816 266.81 78.9208C266.81 79.8477 267.146 80.5561 267.817 81.0462C268.499 81.5256 269.362 81.7653 270.406 81.7653ZM307.983 68.4538L301.751 68.8374C301.644 68.3047 301.415 67.8253 301.064 67.3991C300.712 66.9624 300.249 66.6161 299.673 66.3604C299.109 66.0941 298.432 65.9609 297.644 65.9609C296.589 65.9609 295.7 66.1847 294.975 66.6321C294.251 67.0689 293.888 67.6548 293.888 68.3899C293.888 68.9759 294.123 69.4712 294.592 69.8761C295.06 70.2809 295.865 70.6058 297.005 70.8509L301.447 71.7457C303.833 72.2358 305.613 73.0241 306.784 74.1108C307.956 75.1974 308.542 76.625 308.542 78.3935C308.542 80.0021 308.068 81.4137 307.12 82.6282C306.183 83.8427 304.893 84.7908 303.253 85.4727C301.623 86.1438 299.743 86.4794 297.612 86.4794C294.363 86.4794 291.774 85.8029 289.846 84.4499C287.928 83.0863 286.804 81.2326 286.474 78.8888L293.169 78.5373C293.372 79.5281 293.862 80.2844 294.64 80.8065C295.417 81.3178 296.413 81.5735 297.628 81.5735C298.821 81.5735 299.78 81.3445 300.504 80.8864C301.239 80.4176 301.612 79.8157 301.623 79.0806C301.612 78.4627 301.351 77.9567 300.84 77.5625C300.328 77.1577 299.54 76.8487 298.475 76.6357L294.224 75.7887C291.827 75.3093 290.043 74.4783 288.871 73.2958C287.71 72.1133 287.129 70.6058 287.129 68.7734C287.129 67.1967 287.555 65.8384 288.407 64.6985C289.27 63.5586 290.479 62.6797 292.035 62.0618C293.601 61.4439 295.433 61.1349 297.532 61.1349C300.632 61.1349 303.072 61.7901 304.851 63.1005C306.641 64.4109 307.685 66.1953 307.983 68.4538ZM319.636 71.8097V86H312.829V53.2727H319.445V65.7852H319.732C320.286 64.3363 321.181 63.2017 322.417 62.3814C323.653 61.5504 325.203 61.1349 327.067 61.1349C328.772 61.1349 330.258 61.5078 331.526 62.2536C332.804 62.9886 333.795 64.0486 334.498 65.4336C335.212 66.8079 335.563 68.4538 335.553 70.3714V86H328.745V71.5859C328.756 70.0732 328.372 68.896 327.595 68.0543C326.828 67.2127 325.752 66.7919 324.367 66.7919C323.44 66.7919 322.619 66.989 321.906 67.3832C321.203 67.7773 320.649 68.3526 320.244 69.109C319.85 69.8548 319.647 70.755 319.636 71.8097Z" fill="white"/>
</svg>
