<svg width="140" height="140" viewBox="0 0 140 140" fill="none" xmlns="http://www.w3.org/2000/svg">
<rect width="140" height="140" rx="20" fill="#2D3748"/>
<path d="M74.9091 69.8624C74.9088 61.7215 68.3152 55.1216 60.1818 55.1216C52.0483 55.1216 45.4548 61.7215 45.4545 69.8624C45.4545 88.8583 60.8397 104.257 79.8182 104.257C98.7968 104.257 114.182 88.8583 114.182 69.8624C114.182 53.8554 107.235 39.4786 96.1802 29.5748C94.1602 27.765 93.9886 24.6583 95.7967 22.6363C97.6049 20.6145 100.709 20.4427 102.729 22.2524C115.777 33.9415 124 50.9441 124 69.8624C124 94.2857 104.219 114.085 79.8182 114.085C55.4172 114.085 35.6364 94.2857 35.6364 69.8624C35.6366 56.2941 46.6259 45.2945 60.1818 45.2945C73.7375 45.2945 84.727 56.2941 84.7273 69.8624C84.7273 72.5761 82.5294 74.7759 79.8182 74.7759C77.107 74.7759 74.9091 72.5761 74.9091 69.8624Z" fill="white"/>
<path d="M55.2727 69.8628C55.2727 67.1491 57.4706 64.9492 60.1818 64.9492C62.893 64.9492 65.0909 67.1491 65.0909 69.8628C65.0909 78.0037 71.6847 84.6036 79.8182 84.6036C87.9516 84.6036 94.5455 78.0037 94.5455 69.8628C94.5455 50.8669 79.1604 35.4678 60.1818 35.4678C41.2033 35.4678 25.8182 50.8669 25.8182 69.8628C25.8182 86.0053 32.8839 100.489 44.1026 110.4C46.135 112.196 46.3281 115.304 44.5341 117.338C42.7399 119.372 39.6345 119.566 37.6019 117.77C24.3613 106.073 16 88.9416 16 69.8628C16 45.4395 35.7809 25.6406 60.1818 25.6406C84.5829 25.6406 104.364 45.4396 104.364 69.8628C104.364 83.4311 93.3741 94.4307 79.8182 94.4307C66.2623 94.4307 55.2727 83.4311 55.2727 69.8628Z" fill="#F56565"/>
</svg>
