<svg width="326" height="140" viewBox="0 0 326 140" fill="none" xmlns="http://www.w3.org/2000/svg">
<rect width="326" height="140" rx="20" fill="#2D3748"/>
<path d="M78.9091 69.8624C78.9088 61.7215 72.3152 55.1216 64.1818 55.1216C56.0483 55.1216 49.4548 61.7215 49.4545 69.8624C49.4545 88.8583 64.8397 104.257 83.8182 104.257C102.797 104.257 118.182 88.8583 118.182 69.8624C118.182 53.8554 111.235 39.4786 100.18 29.5748C98.1602 27.765 97.9886 24.6583 99.7967 22.6363C101.605 20.6145 104.709 20.4427 106.729 22.2524C119.777 33.9415 128 50.9441 128 69.8624C128 94.2857 108.219 114.085 83.8182 114.085C59.4172 114.085 39.6364 94.2857 39.6364 69.8624C39.6366 56.2941 50.6259 45.2945 64.1818 45.2945C77.7375 45.2945 88.727 56.2941 88.7273 69.8624C88.7273 72.5761 86.5294 74.7759 83.8182 74.7759C81.107 74.7759 78.9091 72.5761 78.9091 69.8624Z" fill="white"/>
<path d="M59.2727 69.8628C59.2727 67.1491 61.4706 64.9492 64.1818 64.9492C66.893 64.9492 69.0909 67.1491 69.0909 69.8628C69.0909 78.0037 75.6847 84.6036 83.8182 84.6036C91.9516 84.6036 98.5455 78.0037 98.5455 69.8628C98.5455 50.8669 83.1604 35.4678 64.1818 35.4678C45.2033 35.4678 29.8182 50.8669 29.8182 69.8628C29.8182 86.0053 36.8839 100.489 48.1026 110.4C50.135 112.196 50.3281 115.304 48.5341 117.338C46.7399 119.372 43.6345 119.566 41.6019 117.77C28.3613 106.073 20 88.9416 20 69.8628C20 45.4395 39.7809 25.6406 64.1818 25.6406C88.5829 25.6406 108.364 45.4396 108.364 69.8628C108.364 83.4311 97.3741 94.4307 83.8182 94.4307C70.2623 94.4307 59.2727 83.4311 59.2727 69.8628Z" fill="#F56565"/>
<path d="M160.844 86V53.2727H167.764V80.2951H181.794V86H160.844ZM201.989 75.549V61.4545H208.797V86H202.261V81.5415H202.005C201.451 82.9798 200.53 84.1357 199.241 85.0092C197.962 85.8828 196.402 86.3196 194.559 86.3196C192.918 86.3196 191.474 85.9467 190.228 85.201C188.981 84.4553 188.007 83.3952 187.304 82.021C186.611 80.6467 186.259 79.0007 186.249 77.0831V61.4545H193.056V75.8686C193.067 77.3175 193.456 78.4627 194.223 79.3043C194.99 80.146 196.018 80.5668 197.307 80.5668C198.127 80.5668 198.894 80.3803 199.608 80.0075C200.322 79.6239 200.897 79.0593 201.334 78.3136C201.782 77.5678 202 76.6463 201.989 75.549ZM225.332 86.4794C222.818 86.4794 220.655 85.9467 218.844 84.8814C217.044 83.8054 215.659 82.3139 214.689 80.407C213.731 78.5 213.251 76.3054 213.251 73.8232C213.251 71.3089 213.736 69.1037 214.705 67.2074C215.686 65.3004 217.076 63.8143 218.876 62.7489C220.677 61.6729 222.818 61.1349 225.3 61.1349C227.442 61.1349 229.317 61.5238 230.925 62.3015C232.534 63.0792 233.807 64.1712 234.744 65.5774C235.682 66.9837 236.199 68.6349 236.295 70.5312H229.871C229.689 69.3061 229.21 68.3207 228.432 67.5749C227.665 66.8185 226.659 66.4403 225.412 66.4403C224.357 66.4403 223.436 66.728 222.648 67.3033C221.87 67.8679 221.263 68.6935 220.826 69.7802C220.389 70.8668 220.171 72.1825 220.171 73.7273C220.171 75.2933 220.384 76.625 220.81 77.7223C221.247 78.8196 221.859 79.6559 222.648 80.2312C223.436 80.8065 224.357 81.0941 225.412 81.0941C226.19 81.0941 226.888 80.9343 227.506 80.6147C228.134 80.2951 228.651 79.8317 229.056 79.2244C229.471 78.6065 229.743 77.8661 229.871 77.0032H236.295C236.188 78.8782 235.677 80.5295 234.76 81.957C233.855 83.3739 232.603 84.4819 231.005 85.2809C229.407 86.0799 227.516 86.4794 225.332 86.4794ZM240.653 86V61.4545H247.461V86H240.653ZM244.073 58.2905C243.061 58.2905 242.193 57.9549 241.468 57.2837C240.754 56.6019 240.397 55.7869 240.397 54.8388C240.397 53.9013 240.754 53.0969 241.468 52.4258C242.193 51.744 243.061 51.4031 244.073 51.4031C245.085 51.4031 245.948 51.744 246.662 52.4258C247.386 53.0969 247.748 53.9013 247.748 54.8388C247.748 55.7869 247.386 56.6019 246.662 57.2837C245.948 57.9549 245.085 58.2905 244.073 58.2905ZM261.959 86.3995C260.094 86.3995 258.406 85.9201 256.893 84.9613C255.391 83.9918 254.198 82.5696 253.313 80.6946C252.44 78.8089 252.003 76.4972 252.003 73.7592C252.003 70.9467 252.456 68.6083 253.361 66.744C254.267 64.869 255.471 63.468 256.973 62.5412C258.486 61.6037 260.142 61.1349 261.943 61.1349C263.317 61.1349 264.462 61.3693 265.378 61.8381C266.305 62.2962 267.051 62.8714 267.616 63.5639C268.191 64.2457 268.628 64.9169 268.926 65.5774H269.134V53.2727H275.925V86H269.214V82.0689H268.926C268.606 82.7507 268.154 83.4272 267.568 84.0984C266.992 84.7589 266.241 85.3075 265.314 85.7443C264.398 86.1811 263.28 86.3995 261.959 86.3995ZM264.116 80.9822C265.213 80.9822 266.14 80.6839 266.896 80.0874C267.664 79.4801 268.249 78.6332 268.654 77.5465C269.07 76.4599 269.278 75.1868 269.278 73.7273C269.278 72.2678 269.075 71 268.67 69.924C268.265 68.848 267.68 68.017 266.912 67.4311C266.145 66.8452 265.213 66.5522 264.116 66.5522C262.997 66.5522 262.055 66.8558 261.287 67.4631C260.52 68.0703 259.94 68.9119 259.546 69.9879C259.151 71.0639 258.954 72.3104 258.954 73.7273C258.954 75.1548 259.151 76.4173 259.546 77.5146C259.95 78.6012 260.531 79.4535 261.287 80.0714C262.055 80.6786 262.997 80.9822 264.116 80.9822ZM292.708 86.4794C290.184 86.4794 288.01 85.968 286.188 84.9453C284.377 83.9119 282.982 82.4524 282.002 80.5668C281.022 78.6705 280.532 76.4279 280.532 73.8391C280.532 71.3143 281.022 69.0984 282.002 67.1914C282.982 65.2844 284.361 63.7983 286.141 62.733C287.93 61.6676 290.029 61.1349 292.437 61.1349C294.056 61.1349 295.563 61.396 296.959 61.918C298.365 62.4293 299.59 63.2017 300.635 64.2351C301.689 65.2685 302.51 66.5682 303.095 68.1342C303.681 69.6896 303.974 71.5114 303.974 73.5994V75.4691H283.248V71.2504H297.566C297.566 70.2702 297.353 69.402 296.927 68.6456C296.501 67.8892 295.91 67.2979 295.153 66.8718C294.408 66.435 293.539 66.2166 292.549 66.2166C291.515 66.2166 290.599 66.4563 289.8 66.9357C289.012 67.4045 288.394 68.0384 287.946 68.8374C287.499 69.6257 287.27 70.5046 287.259 71.4741V75.4851C287.259 76.6996 287.483 77.7489 287.93 78.6332C288.388 79.5174 289.033 80.1992 289.864 80.6786C290.695 81.158 291.68 81.3977 292.82 81.3977C293.577 81.3977 294.269 81.2912 294.898 81.0781C295.526 80.8651 296.064 80.5455 296.512 80.1193C296.959 79.6932 297.3 79.1712 297.534 78.5533L303.831 78.9688C303.511 80.4815 302.856 81.8026 301.865 82.9318C300.885 84.0504 299.617 84.924 298.062 85.5526C296.517 86.1705 294.733 86.4794 292.708 86.4794Z" fill="white"/>
</svg>
