<svg width="140" height="140" viewBox="0 0 140 140" fill="none" xmlns="http://www.w3.org/2000/svg">
<rect width="140" height="140" rx="20" fill="#111725"/>
<path fill-rule="evenodd" clip-rule="evenodd" d="M70.189 20.0007C53.0953 19.8891 39.1052 32.912 39.0009 49.0296C38.9087 63.3014 45.9193 70.2688 53.5111 77.8136C58.8039 83.0734 64.3788 88.6137 68.0262 97.1052C68.2723 97.3065 68.4369 97.4408 68.5076 97.5043C68.8332 97.7925 69.2516 97.9519 69.6851 97.9529C70.1188 97.9575 70.5394 97.8037 70.8689 97.52C70.888 97.5029 70.923 97.4879 70.966 97.4694C71.0838 97.4185 71.263 97.341 71.3555 97.1265C74.9908 88.7159 80.645 83.2503 86.0449 78.0309C93.7344 70.5981 100.908 63.6642 100.999 49.4356C101.104 33.3177 87.2831 20.113 70.189 20.0007ZM69.891 66.1696C78.355 66.225 85.2624 59.259 85.3182 50.6105C85.374 41.962 78.5574 34.906 70.093 34.8506C61.6286 34.7951 54.7216 41.7611 54.6655 50.4096C54.6097 59.0581 61.4266 66.1141 69.891 66.1696Z" fill="#82B4FE"/>
<path fill-rule="evenodd" clip-rule="evenodd" d="M58.8119 102.941C57.3997 102.932 56.2447 104.504 56.2322 106.452L56.1684 116.314C56.1556 118.262 57.2902 119.849 58.7027 119.858L80.322 120C81.7342 120.009 82.8892 118.437 82.9017 116.489L82.9655 106.627C82.9783 104.679 81.8437 103.092 80.4312 103.083L58.8119 102.941Z" fill="white"/>
</svg>
