<svg width="140" height="140" viewBox="0 0 140 140" fill="none" xmlns="http://www.w3.org/2000/svg">
<rect width="140" height="140" rx="20" fill="#11557C"/>
<path d="M70 120C97.6142 120 120 97.6142 120 70C120 42.3858 97.6142 20 70 20C42.3858 20 20 42.3858 20 70C20 97.6142 42.3858 120 70 120Z" fill="white"/>
<path d="M70 107.5C90.7107 107.5 107.5 90.7107 107.5 70C107.5 49.2893 90.7107 32.5 70 32.5C49.2893 32.5 32.5 49.2893 32.5 70C32.5 90.7107 49.2893 107.5 70 107.5Z" fill="white"/>
<path d="M70 95C83.8071 95 95 83.8071 95 70C95 56.1929 83.8071 45 70 45C56.1929 45 45 56.1929 45 70C45 83.8071 56.1929 95 70 95Z" fill="white"/>
<path d="M70 82.5C76.9036 82.5 82.5 76.9036 82.5 70C82.5 63.0964 76.9036 57.5 70 57.5C63.0964 57.5 57.5 63.0964 57.5 70C57.5 76.9036 63.0964 82.5 70 82.5Z" fill="white"/>
<path d="M70 20V120ZM105.227 105.227L34.7727 34.7727ZM105.227 34.7727L34.7727 105.227ZM120 70H20Z" fill="white"/>
<path d="M70 70H80.2273C80.3594 69.0576 80.3594 68.1014 80.2273 67.1591L70 70Z" fill="#4444CC"/>
<path d="M70 70L89.3182 45.5682C86.73 43.6205 83.8548 42.087 80.7955 41.0227L70 70Z" fill="#BBCC33"/>
<path d="M70 70L60.9091 29.0909C54.4493 30.5071 48.4147 33.4271 43.2955 37.6136L70 70Z" fill="#DD9933"/>
<path d="M70 70L37.0455 54.0909C33.8336 61.0069 32.8412 68.7475 34.2045 76.25L70 70Z" fill="#DDBB33"/>
<path d="M70 70L51.25 79.0909C51.5593 80.0642 51.9391 81.0137 52.3864 81.9318L70 70Z" fill="#33BBBB"/>
<path d="M70 70L64.3182 95.5682C67.694 96.2417 71.1696 96.2417 74.5455 95.5682L70 70Z" fill="#33CC99"/>
<path d="M70 70L96.1364 102.955C98.663 100.951 100.951 98.663 102.955 96.1364L70 70Z" fill="#DD7733"/>
<path d="M120 70C120 97.6142 97.6142 120 70 120M120 70C120 42.3858 97.6142 20 70 20M120 70H20M70 120C42.3858 120 20 97.6142 20 70M70 120V20M20 70C20 42.3858 42.3858 20 70 20M105.227 105.227L34.7727 34.7727M105.227 34.7727L34.7727 105.227M70 70H80.2273C80.3594 69.0576 80.3594 68.1014 80.2273 67.1591L70 70ZM70 70L89.3182 45.5682C86.73 43.6205 83.8548 42.087 80.7955 41.0227L70 70ZM70 70L60.9091 29.0909C54.4493 30.5071 48.4147 33.4271 43.2955 37.6136L70 70ZM70 70L37.0455 54.0909C33.8336 61.0069 32.8412 68.7475 34.2045 76.25L70 70ZM70 70L51.25 79.0909C51.5593 80.0642 51.9391 81.0137 52.3864 81.9318L70 70ZM70 70L64.3182 95.5682C67.694 96.2417 71.1696 96.2417 74.5455 95.5682L70 70ZM70 70L96.1364 102.955C98.663 100.951 100.951 98.663 102.955 96.1364L70 70ZM107.5 70C107.5 90.7107 90.7107 107.5 70 107.5C49.2893 107.5 32.5 90.7107 32.5 70C32.5 49.2893 49.2893 32.5 70 32.5C90.7107 32.5 107.5 49.2893 107.5 70ZM95 70C95 83.8071 83.8071 95 70 95C56.1929 95 45 83.8071 45 70C45 56.1929 56.1929 45 70 45C83.8071 45 95 56.1929 95 70ZM82.5 70C82.5 76.9036 76.9036 82.5 70 82.5C63.0964 82.5 57.5 76.9036 57.5 70C57.5 63.0964 63.0964 57.5 70 57.5C76.9036 57.5 82.5 63.0964 82.5 70Z" stroke="#808080"/>
</svg>
