<svg width="140" height="140" viewBox="0 0 140 140" fill="none" xmlns="http://www.w3.org/2000/svg">
<rect width="140" height="140" rx="20" fill="#00ED64"/>
<path d="M78.7147 31.1457C74.5039 26.1661 70.8779 21.1087 70.1371 20.0584C70.0591 19.9805 69.9421 19.9805 69.8641 20.0584C69.1233 21.1087 65.4974 26.1661 61.2865 31.1457C25.1435 77.0899 66.979 108.096 66.979 108.096L67.3298 108.329C67.6417 113.114 68.4215 120 68.4215 120H69.9811H71.5407C71.5407 120 72.3205 113.153 72.6324 108.329L72.9833 108.057C73.0222 108.057 114.858 77.0899 78.7147 31.1457ZM69.9811 107.395C69.9811 107.395 68.1096 105.8 67.6028 104.983V104.906L69.8641 54.8765C69.8641 54.7209 70.0981 54.7209 70.0981 54.8765L72.3594 104.906V104.983C71.8526 105.8 69.9811 107.395 69.9811 107.395Z" fill="#001E2B"/>
</svg>
