<svg width="140" height="140" viewBox="0 0 140 140" fill="none" xmlns="http://www.w3.org/2000/svg">
<rect width="140" height="140" rx="20" fill="#00ED64"/>
<path d="M78.7146 31.1457C74.5038 26.1661 70.8777 21.1087 70.137 20.0584C70.059 19.9805 69.942 19.9805 69.864 20.0584C69.1232 21.1087 65.4972 26.1661 61.2864 31.1457C25.1434 77.0899 66.9788 108.096 66.9788 108.096L67.3297 108.329C67.6416 113.114 68.4214 120 68.4214 120H69.981H71.5406C71.5406 120 72.3204 113.153 72.6323 108.329L72.9832 108.057C73.0221 108.057 114.858 77.0899 78.7146 31.1457ZM69.981 107.395C69.981 107.395 68.1095 105.8 67.6026 104.983V104.906L69.864 54.8765C69.864 54.7209 70.098 54.7209 70.098 54.8765L72.3593 104.906V104.983C71.8525 105.8 69.981 107.395 69.981 107.395Z" fill="#001E2B"/>
</svg>
