<svg width="140" height="140" viewBox="0 0 140 140" fill="none" xmlns="http://www.w3.org/2000/svg">
<rect width="140" height="140" rx="20" fill="#3C5280"/>
<path fill-rule="evenodd" clip-rule="evenodd" d="M70.0002 116.508L73.0821 74.4026C75.9278 73.1998 77.9249 70.3825 77.9249 67.0995C77.9249 62.7237 74.376 59.1751 70.0002 59.1751C65.624 59.1751 62.0754 62.7237 62.0754 67.0995C62.0754 70.3825 64.0727 73.1998 66.9184 74.4026L70.0002 116.508Z" fill="#F3771C"/>
<path fill-rule="evenodd" clip-rule="evenodd" d="M15.8778 67.07C15.8778 80.4753 20.7792 93.024 29.2793 102.721L24.1564 107.313C14.564 96.3969 9 82.2197 9 67.07C9 49.9998 16.0164 34.5654 27.3207 23.4922L42.7319 37.3078C28.4901 50.3637 25.5407 71.5958 35.4496 87.9528L40.6812 83.2632C33.1276 69.6175 36.0052 52.3818 47.883 41.9254L62.4732 55.0044C60.6826 56.1267 59.1607 57.6373 58.0255 59.4184C56.622 61.6198 55.8091 64.2335 55.8091 67.0361C55.8091 73.2848 59.8495 78.5911 65.4594 80.485L65.9426 87.0796C56.5949 85.1968 49.5534 76.9374 49.5534 67.0361C49.5534 62.6271 50.9497 58.5439 53.324 55.2038L48.744 51.0974L48.727 51.0821C41.2189 61.0554 41.6827 74.9008 49.7677 84.3546L34.4017 98.1287C19.2743 80.8048 18.8424 55.0925 33.3312 37.2814L28.2059 32.6865C21.1315 41.2755 16.6515 52.0812 15.9691 63.9035L15.9377 63.9387L15.9656 63.9633C15.9072 64.9914 15.8778 66.027 15.8778 67.07ZM74.5406 80.485C80.1505 78.5911 84.1914 73.2848 84.1914 67.0361C84.1914 64.2335 83.3781 61.6198 81.975 59.4189C80.8393 57.6379 79.3174 56.1267 77.5279 55.0044L92.1176 41.9254C103.995 52.3818 106.873 69.6175 99.3193 83.2632L104.55 87.9528C114.46 71.5958 111.51 50.3637 97.2681 37.3078L112.679 23.4922C123.984 34.5654 131 49.9998 131 67.07C131 82.2197 125.436 96.3969 115.844 107.313L110.721 102.721C119.221 93.024 124.122 80.4753 124.122 67.07C124.122 66.027 124.093 64.9912 124.035 63.9631L124.062 63.9386L124.031 63.9033C123.349 52.0811 118.869 41.2753 111.795 32.6863L106.669 37.2813C121.158 55.0923 120.726 80.8046 105.598 98.1285L90.2328 84.3544C98.3178 74.9006 98.7816 61.0552 91.2733 51.0819L91.256 51.0972L86.676 55.2042C89.0503 58.5437 90.4466 62.6275 90.4466 67.036C90.4466 76.9372 83.4051 85.1961 74.0579 87.0794L74.5406 80.485Z" fill="white"/>
</svg>
