<svg width="140" height="140" viewBox="0 0 140 140" fill="none" xmlns="http://www.w3.org/2000/svg">
<rect width="140" height="140" rx="20" fill="#F3E814"/>
<path d="M12.9907 90L29.8132 59.7196C34.673 50.7477 41.1776 50 55.2337 50L33.5515 90H12.9907Z" fill="black"/>
<path d="M37.2898 90L60.0935 50H80.2804L58.5982 90H37.2898Z" fill="black"/>
<path d="M104.953 50L89.2524 78.4112C83.2711 87.3832 82.1496 90 62.3365 90L84.3926 50H104.953Z" fill="black"/>
<path d="M127.009 60.0935C127.009 65.6679 122.49 70.1869 116.916 70.1869C111.341 70.1869 106.823 65.6679 106.823 60.0935C106.823 54.519 111.341 50 116.916 50C122.49 50 127.009 54.519 127.009 60.0935Z" fill="black"/>
</svg>
