<svg width="140" height="140" viewBox="0 0 140 140" fill="none" xmlns="http://www.w3.org/2000/svg">
<rect width="140" height="140" rx="20" fill="#660066"/>
<path d="M20.2957 76.6782H20V114.924C20 117.684 22.2671 119.951 25.0271 119.951H64.4061C64.0611 96.0473 44.4455 76.6782 20.2957 76.6782ZM20.2957 45.1356H20V61.3997C52.479 61.5476 78.896 87.6688 79.241 119.951H96.0966C95.8009 78.6496 61.9418 45.1356 20.2957 45.1356ZM120 114.973V80.4239C108.566 52.4298 85.5495 30.3007 56.9147 20H25.0271C22.2671 20 20 22.2671 20 25.0271V29.9064C69.9753 30.0542 110.636 70.3204 110.931 120H114.973C117.782 119.951 120 117.733 120 114.973ZM106.841 33.9478C111.474 38.5806 116.205 44.4456 120 49.6205V24.9778C120.002 24.3236 119.875 23.6754 119.625 23.0706C119.376 22.4658 119.009 21.9163 118.546 21.4536C118.084 20.991 117.534 20.6244 116.929 20.375C116.325 20.1255 115.676 19.9981 115.022 20H89.6402C95.5544 24.0907 101.666 28.7728 106.841 33.9478Z" fill="white"/>
</svg>
