<svg width="140" height="140" viewBox="0 0 140 140" fill="none" xmlns="http://www.w3.org/2000/svg">
<rect width="140" height="140" rx="20" fill="#00618A"/>
<path d="M112.901 97.3918C107.341 97.2411 103.094 97.758 99.4631 99.2892C98.4312 99.7245 96.7859 99.7358 96.6176 101.029C97.1846 101.623 97.2726 102.511 97.7234 103.242C98.5904 104.645 100.054 106.525 101.36 107.511C102.787 108.588 104.257 109.74 105.787 110.673C108.508 112.332 111.546 113.279 114.166 114.942C115.71 115.921 117.244 117.155 118.75 118.261C119.495 118.808 119.996 119.658 120.963 120C120.963 119.948 120.963 119.895 120.963 119.842C120.455 119.195 120.324 118.305 119.857 117.629C119.172 116.944 118.487 116.259 117.802 115.573C115.792 112.906 113.241 110.563 110.529 108.617C108.367 107.065 103.527 104.968 102.625 102.452C102.572 102.399 102.52 102.346 102.466 102.293C104 102.121 105.795 101.566 107.21 101.187C109.587 100.549 111.711 100.714 114.166 100.08C115.272 99.764 116.379 99.447 117.486 99.1315C117.486 98.9202 117.486 98.7103 117.486 98.499C116.245 97.2256 115.36 95.5408 114.007 94.3885C110.467 91.374 106.604 88.3623 102.625 85.8509C100.418 84.4581 97.691 83.5529 95.3526 82.3726C94.5659 81.9757 93.184 81.7694 92.6642 81.1077C91.4359 79.5415 90.7667 77.5565 89.8194 75.7324C87.8346 71.9109 85.8857 67.7372 84.1277 63.7169C82.9283 60.9752 82.1451 58.2714 80.6498 55.8117C73.4713 44.0094 65.7441 36.8856 53.774 29.8836C51.2272 28.3945 48.1605 27.8064 44.9199 27.0381C43.1816 26.9329 41.442 26.827 39.703 26.7218C38.6415 26.2781 37.5372 24.9795 36.5412 24.3502C32.5759 21.8451 22.4047 16.3962 19.4676 23.5598C17.6131 28.0815 22.2392 32.4939 23.8936 34.7851C25.0551 36.3925 26.5419 38.1946 27.3716 40.0021C27.9174 41.1901 28.0118 42.3814 28.4788 43.6387C29.6283 46.7352 30.6277 50.1042 32.1145 52.9662C32.8661 54.4141 33.6943 55.9397 34.6445 57.2348C35.227 58.0293 36.225 58.3793 36.3828 59.6064C35.4066 60.9725 35.3509 63.093 34.8023 64.8236C32.3315 72.6145 33.2633 82.2983 36.8575 88.0644C37.9605 89.8343 40.558 93.6307 44.1297 92.1748C47.2541 90.9021 46.5561 86.9586 47.4499 83.4793C47.652 82.6903 47.5281 82.1105 47.9239 81.5823C47.9239 81.6346 47.9239 81.6875 47.9239 81.7405C48.8726 83.6375 49.8213 85.5345 50.7701 87.4312C52.876 90.8232 56.6139 94.3681 59.7812 96.76C61.4237 98.0003 62.7169 100.145 64.8404 100.87C64.8404 100.818 64.8404 100.766 64.8404 100.712C64.7869 100.712 64.7348 100.712 64.682 100.712C64.2706 100.07 63.6269 99.8048 63.1014 99.2892C61.8639 98.0764 60.4884 96.5684 59.465 95.1788C56.5843 91.2677 54.0382 86.9867 51.7188 82.5308C50.6109 80.4034 49.6481 78.0559 48.7141 75.8906C48.3542 75.0556 48.3585 73.7934 47.6083 73.3608C46.5857 74.9476 45.0791 76.2304 44.2881 78.104C43.0232 81.0988 42.8598 84.7511 42.3914 88.5384C42.1139 88.6377 42.2371 88.5694 42.0744 88.6962C39.8727 88.1651 39.0987 85.8983 38.2809 83.9539C36.2109 79.036 35.8263 71.1171 37.6477 65.4564C38.1189 63.992 40.2488 59.3788 39.3867 58.0258C38.9754 56.6756 37.6175 55.895 36.8575 54.8633C35.9172 53.588 34.9783 51.909 34.3275 50.4364C32.6336 46.6018 31.8427 42.2974 30.0593 38.4216C29.2071 36.5686 27.7653 34.6936 26.5813 33.0463C25.2706 31.2215 23.8028 29.8774 22.7871 27.6703C22.4258 26.8862 21.9349 25.6308 22.4709 24.8247C22.6413 24.2806 22.8815 24.0537 23.4196 23.8762C24.3366 23.1691 26.8905 24.1115 27.8456 24.5083C30.3812 25.5614 32.497 26.5642 34.6445 27.9867C35.6756 28.6704 36.718 29.9923 37.964 30.3583C38.438 30.3583 38.9127 30.3583 39.3867 30.3583C41.6124 30.87 44.1057 30.5172 46.1849 31.1485C49.8601 32.2656 53.1535 34.003 56.1448 35.8918C65.2574 41.6454 72.7078 49.836 77.8043 59.6064C78.6241 61.1795 78.9791 62.681 79.701 64.3496C81.1583 67.7145 82.9938 71.177 84.4433 74.4675C85.89 77.7505 87.3 81.0637 89.3447 83.7957C90.4202 85.2318 94.5722 86.0022 96.4591 86.7994C97.7819 87.3586 99.9491 87.9411 101.202 88.6962C103.595 90.14 105.914 91.8586 108.159 93.4398C109.281 94.2301 112.729 95.9634 112.901 97.3918Z" fill="white"/>
<path fill-rule="evenodd" clip-rule="evenodd" d="M42.2329 37.1566C41.0735 37.1353 40.2537 37.2832 39.3867 37.4724C39.3867 37.5253 39.3867 37.5782 39.3867 37.6306C39.4395 37.6306 39.4923 37.6306 39.5452 37.6306C40.0981 38.7668 41.0742 39.498 41.7582 40.4768C42.285 41.5835 42.8118 42.6902 43.3394 43.7962C43.3915 43.7439 43.445 43.691 43.4971 43.6386C44.4762 42.9487 44.9248 41.8449 44.9199 40.1604C44.5276 39.7476 44.4698 39.2298 44.1296 38.7372C43.6774 38.0811 42.8027 37.7083 42.2329 37.1566Z" fill="white"/>
</svg>
