<svg width="340" height="140" viewBox="0 0 340 140" fill="none" xmlns="http://www.w3.org/2000/svg">
<rect width="339.394" height="140" rx="20" fill="#E0234E"/>
<path fill-rule="evenodd" clip-rule="evenodd" d="M79.113 20C78.3871 20 77.7129 20.1556 77.0907 20.363C78.413 21.2445 79.1389 22.4112 79.5018 23.7335C79.5278 23.9149 79.5796 24.0446 79.6056 24.2261C79.6316 24.3816 79.6574 24.5372 79.6574 24.6928C79.7611 26.9743 79.0611 27.2595 78.5685 28.6077C77.8166 30.3448 78.024 32.2116 78.9315 33.7152C79.0093 33.8968 79.113 34.1042 79.2426 34.2857C78.2573 27.7262 83.7279 26.741 84.7391 24.6928C84.8169 22.9038 83.3391 21.7112 82.1723 20.8815C81.0574 20.2074 80.0464 20 79.113 20ZM87.3577 21.4778C87.2539 22.0741 87.3317 21.9186 87.3058 22.2297C87.2799 22.4371 87.2799 22.6964 87.254 22.9038C87.2022 23.1112 87.1503 23.3186 87.0725 23.5261C87.0207 23.7335 86.9429 23.9409 86.8652 24.1483C86.7614 24.3557 86.6837 24.5372 86.58 24.7446C86.5022 24.8484 86.4504 24.952 86.3726 25.0557C86.3208 25.1335 86.2688 25.2113 86.217 25.2891C86.0873 25.4706 85.9577 25.6521 85.828 25.8076C85.6725 25.9632 85.5429 26.1447 85.3614 26.2743V26.3003C85.2058 26.4299 85.0503 26.5854 84.8688 26.7151C84.3243 27.1299 83.7021 27.441 83.1317 27.8299C82.9502 27.9596 82.7687 28.0633 82.6131 28.2188C82.4317 28.3485 82.2761 28.4781 82.1206 28.6337C81.9391 28.7892 81.8094 28.9448 81.6539 29.1263C81.5243 29.2818 81.3686 29.4633 81.2649 29.6448C81.1353 29.8263 81.0057 30.0078 80.902 30.1893C80.7982 30.3967 80.7205 30.5781 80.6168 30.7856C80.539 30.993 80.4612 31.1745 80.4094 31.3819C80.3316 31.6152 80.2798 31.8226 80.2279 32.03C80.202 32.1338 80.202 32.2635 80.1761 32.3672C80.1501 32.4709 80.1501 32.5746 80.1243 32.6783C80.1243 32.8857 80.0983 33.119 80.0983 33.3264C80.0983 33.4819 80.0983 33.6375 80.1243 33.7932C80.1243 34.0006 80.1503 34.2079 80.2021 34.4413C80.228 34.6487 80.2798 34.8561 80.3317 35.0635C80.4095 35.2709 80.4613 35.4784 80.5391 35.6858C80.5909 35.8154 80.6687 35.945 80.7206 36.0487L74.7574 33.7413C73.7463 33.456 72.7611 33.1968 71.7499 32.9634C71.2054 32.8338 70.661 32.7042 70.1165 32.5746C68.5609 32.2635 66.9794 32.03 65.3978 31.8745C65.346 31.8745 65.32 31.8485 65.2682 31.8485C63.7126 31.693 62.1829 31.6152 60.6273 31.6152C59.4865 31.6152 58.3458 31.667 57.2309 31.7448C55.6493 31.8486 54.0678 32.0559 52.4863 32.3153C52.0974 32.3671 51.7084 32.4449 51.3195 32.5227C50.5159 32.6782 49.738 32.8597 48.9862 33.0412C48.5972 33.1449 48.2083 33.2486 47.8194 33.3523C47.4306 33.5078 47.0675 33.6893 46.7046 33.845C46.4194 33.9746 46.1342 34.1042 45.849 34.2339C45.7972 34.2598 45.7453 34.2598 45.7194 34.2857C45.4601 34.4153 45.2267 34.519 44.9934 34.6486C44.9156 34.6746 44.8638 34.7004 44.8119 34.7264C44.5268 34.856 44.2416 35.0116 44.0082 35.1412C43.8267 35.219 43.6452 35.3228 43.4897 35.4005C43.4119 35.4524 43.3082 35.5043 43.2563 35.5302C43.023 35.6598 42.7897 35.7894 42.5823 35.919C42.3488 36.0487 42.1414 36.1783 41.96 36.3079C41.7785 36.4376 41.597 36.5412 41.4415 36.6709C41.4155 36.6968 41.3896 36.6968 41.3637 36.7227C41.2081 36.8264 41.0267 36.9561 40.871 37.0857C40.871 37.0857 40.845 37.1117 40.8192 37.1376C40.6896 37.2413 40.5599 37.3449 40.4303 37.4486C40.3785 37.4746 40.3266 37.5264 40.2748 37.5524C40.1451 37.6561 40.0155 37.7857 39.8859 37.8894C39.8599 37.9412 39.8081 37.9672 39.7822 37.9932C39.6266 38.1487 39.4711 38.2783 39.3154 38.434C39.2894 38.434 39.2894 38.4599 39.2636 38.4858C39.108 38.6154 38.9525 38.771 38.7969 38.9265C38.771 38.9525 38.771 38.9783 38.7451 38.9783C38.6155 39.108 38.4859 39.2376 38.3562 39.3931C38.3044 39.4449 38.2266 39.4969 38.1748 39.5487C38.0452 39.7042 37.8896 39.8598 37.7339 40.0154C37.708 40.0672 37.6562 40.0932 37.6302 40.1451C37.4228 40.3525 37.2413 40.5599 37.0339 40.7673C37.008 40.7932 36.9821 40.8191 36.9562 40.845C36.5413 41.2858 36.1005 41.7266 35.6339 42.1155C35.1672 42.5303 34.6745 42.9192 34.182 43.2563C33.6635 43.6192 33.1708 43.9303 32.6263 44.2414C32.1078 44.5266 31.5633 44.786 30.993 45.0193C30.4485 45.2526 29.8781 45.46 29.3077 45.6415C28.2188 45.8748 27.1039 46.3156 26.1447 46.3934C25.9372 46.3934 25.7039 46.4452 25.4965 46.4712C25.2631 46.523 25.0557 46.5749 24.8483 46.6268C24.6409 46.7045 24.4335 46.7823 24.2261 46.8601C24.0187 46.9378 23.8112 47.0416 23.6038 47.1453C23.4223 47.2749 23.2149 47.3786 23.0334 47.5082C22.852 47.6378 22.6705 47.7935 22.5149 47.949C22.3334 48.0787 22.1519 48.2601 21.9964 48.4157C21.8408 48.5972 21.6852 48.7527 21.5556 48.9342C21.426 49.1416 21.2704 49.3232 21.1667 49.5306C21.0371 49.712 20.9074 49.9194 20.8037 50.1268C20.7 50.3602 20.5963 50.5676 20.5185 50.8009C20.4408 51.0084 20.363 51.2417 20.2852 51.4751C20.2334 51.6825 20.1814 51.8899 20.1556 52.0972C20.1556 52.1232 20.1296 52.1491 20.1296 52.175C20.0778 52.4085 20.0778 52.7196 20.0518 52.8751C20.0258 53.0566 20 53.2121 20 53.3936C20 53.4974 20 53.6269 20.026 53.7306C20.0519 53.9121 20.0778 54.0678 20.1297 54.2233C20.1815 54.3789 20.2335 54.5344 20.3112 54.69V54.7159C20.389 54.8715 20.4927 55.027 20.5964 55.1826C20.7001 55.3381 20.8038 55.4938 20.9334 55.6494C21.0631 55.779 21.2186 55.9345 21.3742 56.0642C21.5298 56.2197 21.6853 56.3493 21.8668 56.4789C22.4891 57.0234 22.6446 57.205 23.4483 57.6198C23.578 57.6975 23.7076 57.7494 23.8632 57.8272C23.8892 57.8272 23.915 57.8531 23.941 57.8531C23.941 57.9049 23.941 57.9309 23.9669 57.9828C23.9929 58.1902 24.0447 58.3976 24.0966 58.605C24.1484 58.8384 24.2262 59.0458 24.304 59.2273C24.3818 59.3828 24.4336 59.5384 24.5114 59.6939C24.5374 59.7457 24.5632 59.7977 24.5892 59.8235C24.6929 60.0309 24.7966 60.2125 24.9003 60.394C25.0299 60.5755 25.1596 60.7569 25.2892 60.9384C25.4188 61.094 25.5744 61.2755 25.7299 61.431C25.8855 61.5866 26.0411 61.7162 26.2226 61.8718C26.2226 61.8718 26.2485 61.8978 26.2744 61.8978C26.4299 62.0275 26.5855 62.1571 26.7411 62.2608C26.9226 62.3904 27.104 62.4941 27.3115 62.5978C27.493 62.7015 27.7004 62.8052 27.9078 62.883C28.0633 62.9608 28.2448 63.0126 28.4263 63.0645C28.4523 63.0904 28.4781 63.0905 28.5301 63.1163C28.6338 63.1423 28.7634 63.1681 28.8671 63.194C28.7893 64.5941 28.7634 65.9164 28.9708 66.3831C29.2042 66.9016 30.345 65.3201 31.4857 63.5053C31.3302 65.2942 31.2265 67.3942 31.4857 68.0165C31.771 68.6646 33.3266 66.6424 34.6747 64.4126C53.0568 60.1606 69.8315 72.8648 71.5945 90.8061C71.2575 88.006 67.8092 86.4504 66.2277 86.8394C65.4499 88.7579 64.1276 91.2209 62.0016 92.7506C62.1831 91.0394 62.1054 89.2764 61.7424 87.5653C61.172 89.9506 60.0571 92.1803 58.5274 94.0988C56.0644 94.2803 53.6014 93.0877 52.305 91.2988C52.2013 91.2209 52.1754 91.0654 52.0976 90.9617C52.0198 90.7802 51.942 90.5987 51.8902 90.4172C51.8123 90.2358 51.7605 90.0543 51.7345 89.8728C51.7086 89.6912 51.7086 89.5098 51.7086 89.3024C51.7086 89.1727 51.7086 89.0431 51.7086 88.9135C51.7345 88.732 51.7864 88.5505 51.8382 88.3691C51.8901 88.1876 51.942 88.006 52.0198 87.8245C52.1235 87.6431 52.2013 87.4616 52.3309 87.2801C52.7716 86.0356 52.7716 85.0245 51.9679 84.4281C51.8123 84.3244 51.6567 84.2467 51.4752 84.1689C51.3715 84.1429 51.2419 84.0911 51.1382 84.0651C51.0605 84.0392 51.0086 84.0133 50.9308 83.9874C50.7493 83.9356 50.5679 83.8836 50.3864 83.8577C50.2048 83.8059 50.0233 83.78 49.8419 83.78C49.6604 83.754 49.453 83.7282 49.2715 83.7282C49.1419 83.7282 49.0123 83.7541 48.8826 83.7541C48.6751 83.7541 48.4937 83.7801 48.3122 83.8319C48.1307 83.8579 47.9492 83.8837 47.7678 83.9356C47.5863 83.9874 47.4048 84.0394 47.2233 84.1171C47.0418 84.1949 46.8862 84.2727 46.7047 84.3504C46.5492 84.4282 46.3936 84.5319 46.2121 84.6097C40.1712 88.5506 43.775 97.7806 47.8974 100.451C46.3418 100.736 44.7602 101.073 44.3195 101.41C44.2935 101.436 44.2677 101.462 44.2677 101.462C45.3825 102.136 46.5492 102.707 47.7678 103.199C49.4271 103.744 51.1901 104.236 51.968 104.444V104.47C54.1199 104.91 56.2977 105.066 58.5015 104.936C69.9871 104.133 79.3985 95.3952 81.1097 83.8838C81.1615 84.1171 81.2134 84.3245 81.2652 84.5578C81.343 85.0245 81.4468 85.5172 81.4986 86.0097V86.0357C81.5504 86.2691 81.5764 86.5024 81.6024 86.7099V86.8136C81.6284 87.0469 81.6542 87.2803 81.6542 87.4877C81.6801 87.7729 81.706 88.058 81.706 88.3433V88.7581C81.706 88.8877 81.7319 89.0433 81.7319 89.1729C81.7319 89.3285 81.706 89.484 81.706 89.6396V90.0026C81.706 90.1841 81.68 90.3396 81.68 90.5211C81.68 90.6248 81.68 90.7285 81.654 90.8581C81.654 91.0396 81.6281 91.2212 81.6281 91.4286C81.6021 91.5064 81.6021 91.5842 81.6021 91.6619C81.5761 91.8693 81.5503 92.0508 81.5243 92.2582C81.5243 92.336 81.5243 92.4138 81.4983 92.4915C81.4723 92.7508 81.4206 92.9842 81.3946 93.2435V93.2954C81.3427 93.5287 81.2908 93.788 81.2389 94.0213V94.0991C81.1871 94.3324 81.1352 94.5658 81.0834 94.7992C81.0834 94.8252 81.0575 94.8769 81.0575 94.9029C81.0056 95.1362 80.9537 95.3696 80.876 95.6029V95.6807C80.7982 95.9399 80.7204 96.1733 80.6686 96.4067C80.6426 96.4326 80.6426 96.4585 80.6426 96.4585C80.5648 96.7177 80.4871 96.977 80.4093 97.2362C80.3056 97.4956 80.2278 97.7289 80.1241 97.9882C80.0204 98.2474 79.9426 98.5067 79.8388 98.74C79.7351 98.9993 79.6314 99.2327 79.5277 99.4919H79.5017C79.398 99.7252 79.2943 99.9845 79.1647 100.218C79.1387 100.296 79.1129 100.348 79.0869 100.399C79.061 100.425 79.061 100.451 79.0351 100.477C77.3499 103.874 74.8609 106.855 71.7497 109.189C71.5423 109.318 71.3348 109.474 71.1275 109.629C71.0756 109.681 70.9978 109.707 70.946 109.759C70.7645 109.889 70.583 110.018 70.3755 110.148L70.4533 110.303H70.4793C70.8423 110.252 71.2053 110.2 71.5682 110.148H71.5942C72.2683 110.044 72.9424 109.914 73.6164 109.785C73.798 109.759 74.0054 109.707 74.1869 109.655C74.3165 109.629 74.4202 109.603 74.5498 109.577C74.7313 109.551 74.9128 109.5 75.0943 109.474C75.2499 109.422 75.4055 109.396 75.561 109.344C78.1536 108.722 80.6686 107.866 83.0798 106.855C78.9574 112.481 73.435 117.018 66.9792 120C69.9608 119.793 72.9424 119.3 75.8203 118.47C86.2688 115.385 95.0579 108.359 100.321 98.8955C99.2581 104.885 96.8728 110.588 93.3468 115.567C95.8617 113.907 98.1691 111.989 100.269 109.811C106.077 103.744 109.888 96.0436 111.184 87.7729C112.066 91.8694 112.325 96.0955 111.936 100.27C130.656 74.1614 113.492 47.0937 106.31 39.9639C106.284 39.912 106.258 39.886 106.258 39.8342C106.232 39.8602 106.232 39.8602 106.232 39.886C106.232 39.8601 106.232 39.8601 106.206 39.8342C106.206 40.1454 106.18 40.4565 106.155 40.7676C106.077 41.3639 105.999 41.9343 105.895 42.5047C105.766 43.0751 105.61 43.6455 105.455 44.2159C105.273 44.7604 105.066 45.3307 104.832 45.8752C104.599 46.3938 104.34 46.9382 104.055 47.4567C103.769 47.9494 103.458 48.4679 103.121 48.9345C102.784 49.4272 102.421 49.8939 102.058 50.3346C101.669 50.8012 101.254 51.2161 100.84 51.6309C100.58 51.8643 100.347 52.0717 100.088 52.2791C99.8803 52.4606 99.6988 52.6162 99.4914 52.7977C99.0248 53.1606 98.5581 53.4976 98.0395 53.8088C97.5469 54.12 97.0284 54.4311 96.5098 54.6903C95.9654 54.9496 95.421 55.1829 94.8764 55.4162C94.332 55.6237 93.7616 55.8052 93.1912 55.9607C92.6208 56.1163 92.0245 56.2459 91.4541 56.3496C90.8577 56.4534 90.2615 56.5052 89.6911 56.557C89.2763 56.583 88.8614 56.6088 88.4466 56.6088C87.8503 56.6088 87.2539 56.557 86.6836 56.5051C86.0872 56.4533 85.4909 56.3755 84.9206 56.2458C84.3242 56.1421 83.7538 55.9866 83.1835 55.8051H83.1575C83.7279 55.7533 84.2982 55.7014 84.8687 55.5977C85.465 55.4939 86.0353 55.3643 86.6058 55.2087C87.1761 55.0532 87.7466 54.8717 88.291 54.6643C88.8614 54.4569 89.4059 54.1977 89.9244 53.9384C90.4688 53.679 90.9615 53.3939 91.48 53.0828C91.9726 52.7457 92.4653 52.4087 92.9319 52.0457C93.3986 51.6827 93.8393 51.2938 94.2542 50.879C94.6949 50.49 95.0838 50.0493 95.4728 49.6086C95.8616 49.1419 96.2246 48.6752 96.5616 48.2085C96.6134 48.1308 96.6654 48.0271 96.7172 47.9493C96.9764 47.5344 97.2358 47.1196 97.4691 46.7048C97.7543 46.1863 98.0135 45.6677 98.2469 45.1232C98.4802 44.5787 98.6877 44.0343 98.8692 43.4639C99.0506 42.9194 99.1803 42.3491 99.3099 41.7787C99.4137 41.1823 99.5173 40.612 99.5692 40.0416C99.621 39.4452 99.6729 38.849 99.6729 38.2785C99.6729 37.8637 99.6469 37.4489 99.6211 37.0341C99.5693 36.4377 99.4915 35.8674 99.4137 35.297C99.3099 34.7006 99.1804 34.1303 99.0248 33.5598C98.8433 33.0154 98.6619 32.445 98.4544 31.9005C98.2469 31.3561 97.9877 30.8117 97.7284 30.2931C97.4433 29.7746 97.1581 29.256 96.8469 28.7634C96.5099 28.2708 96.1728 27.8041 95.8099 27.3374C95.421 26.8967 95.032 26.4559 94.6172 26.0152C94.4098 25.8078 94.1765 25.5744 93.9432 25.367C92.7764 24.4596 91.5579 23.604 90.3393 22.8262C90.1578 22.7224 90.0023 22.6447 89.8208 22.5669C88.9651 22.0224 88.1614 21.7371 87.3577 21.4778Z" fill="white"/>
<path d="M180.612 53.2727V86H174.636L160.398 65.4016H160.158V86H153.239V53.2727H159.311L173.437 73.8551H173.725V53.2727H180.612ZM197.388 86.4794C194.863 86.4794 192.689 85.968 190.868 84.9453C189.057 83.9119 187.661 82.4524 186.681 80.5668C185.701 78.6705 185.211 76.4279 185.211 73.8391C185.211 71.3143 185.701 69.0984 186.681 67.1914C187.661 65.2844 189.041 63.7983 190.82 62.733C192.61 61.6676 194.708 61.1349 197.116 61.1349C198.735 61.1349 200.243 61.396 201.638 61.918C203.045 62.4293 204.27 63.2017 205.314 64.2351C206.368 65.2685 207.189 66.5682 207.775 68.1342C208.361 69.6896 208.654 71.5114 208.654 73.5994V75.4691H187.927V71.2504H202.246C202.246 70.2702 202.032 69.402 201.606 68.6456C201.18 67.8892 200.589 67.2979 199.833 66.8718C199.087 66.435 198.219 66.2166 197.228 66.2166C196.194 66.2166 195.278 66.4563 194.479 66.9357C193.691 67.4045 193.073 68.0384 192.625 68.8374C192.178 69.6257 191.949 70.5046 191.938 71.4741V75.4851C191.938 76.6996 192.162 77.7489 192.61 78.6332C193.068 79.5174 193.712 80.1992 194.543 80.6786C195.374 81.158 196.36 81.3977 197.499 81.3977C198.256 81.3977 198.948 81.2912 199.577 81.0781C200.205 80.8651 200.743 80.5455 201.191 80.1193C201.638 79.6932 201.979 79.1712 202.214 78.5533L208.51 78.9688C208.19 80.4815 207.535 81.8026 206.544 82.9318C205.564 84.0504 204.296 84.924 202.741 85.5526C201.196 86.1705 199.412 86.4794 197.388 86.4794ZM233.519 68.4538L227.286 68.8374C227.18 68.3047 226.951 67.8253 226.599 67.3991C226.248 66.9624 225.784 66.6161 225.209 66.3604C224.644 66.0941 223.968 65.9609 223.179 65.9609C222.125 65.9609 221.235 66.1847 220.511 66.6321C219.786 67.0689 219.424 67.6548 219.424 68.3899C219.424 68.9759 219.659 69.4712 220.127 69.8761C220.596 70.2809 221.4 70.6058 222.54 70.8509L226.983 71.7457C229.369 72.2358 231.148 73.0241 232.32 74.1108C233.492 75.1974 234.078 76.625 234.078 78.3935C234.078 80.0021 233.604 81.4137 232.656 82.6282C231.718 83.8427 230.429 84.7908 228.788 85.4727C227.159 86.1438 225.278 86.4794 223.148 86.4794C219.898 86.4794 217.309 85.8029 215.381 84.4499C213.464 83.0863 212.34 81.2326 212.009 78.8888L218.705 78.5373C218.907 79.5281 219.398 80.2844 220.175 80.8065C220.953 81.3178 221.949 81.5735 223.163 81.5735C224.357 81.5735 225.315 81.3445 226.04 80.8864C226.775 80.4176 227.148 79.8157 227.159 79.0806C227.148 78.4627 226.887 77.9567 226.375 77.5625C225.864 77.1577 225.076 76.8487 224.01 76.6357L219.76 75.7887C217.363 75.3093 215.578 74.4783 214.406 73.2958C213.245 72.1133 212.665 70.6058 212.665 68.7734C212.665 67.1967 213.091 65.8384 213.943 64.6985C214.806 63.5586 216.015 62.6797 217.57 62.0618C219.136 61.4439 220.969 61.1349 223.068 61.1349C226.168 61.1349 228.607 61.7901 230.386 63.1005C232.176 64.4109 233.22 66.1953 233.519 68.4538ZM251.42 61.4545V66.5682H236.639V61.4545H251.42ZM239.995 55.5739H246.802V78.4574C246.802 79.0859 246.898 79.576 247.09 79.9276C247.281 80.2685 247.548 80.5082 247.889 80.6467C248.24 80.7852 248.645 80.8544 249.103 80.8544C249.423 80.8544 249.742 80.8278 250.062 80.7745C250.382 80.7106 250.627 80.6626 250.797 80.6307L251.868 85.6964C251.527 85.8029 251.047 85.9254 250.43 86.0639C249.812 86.2131 249.061 86.3036 248.176 86.3356C246.536 86.3995 245.098 86.1811 243.862 85.6804C242.637 85.1797 241.683 84.402 241.001 83.3473C240.319 82.2926 239.984 80.9609 239.995 79.3523V55.5739ZM279.501 53.2727H286.341V76.0923C286.341 78.2017 285.867 80.0341 284.919 81.5895C283.981 83.1449 282.676 84.3434 281.004 85.185C279.331 86.0266 277.387 86.4474 275.171 86.4474C273.2 86.4474 271.41 86.1012 269.801 85.4087C268.203 84.7056 266.936 83.6403 265.998 82.2127C265.061 80.7745 264.597 78.9687 264.608 76.7955H271.495C271.517 77.6584 271.692 78.3988 272.023 79.0167C272.364 79.6239 272.827 80.0927 273.413 80.4229C274.01 80.7425 274.713 80.9023 275.522 80.9023C276.375 80.9023 277.094 80.7212 277.68 80.359C278.276 79.9862 278.729 79.4428 279.038 78.729C279.347 78.0153 279.501 77.1364 279.501 76.0923V53.2727ZM309.816 62.685C309.688 61.396 309.139 60.3945 308.17 59.6808C307.2 58.967 305.885 58.6101 304.223 58.6101C303.093 58.6101 302.14 58.7699 301.362 59.0895C300.584 59.3984 299.988 59.8299 299.572 60.3839C299.168 60.9379 298.965 61.5664 298.965 62.2695C298.944 62.8555 299.066 63.3668 299.333 63.8036C299.61 64.2404 299.988 64.6186 300.467 64.9382C300.947 65.2472 301.501 65.5188 302.129 65.7532C302.758 65.9769 303.429 66.1687 304.143 66.3285L307.083 67.0316C308.511 67.3512 309.821 67.7773 311.014 68.31C312.207 68.8427 313.241 69.4979 314.114 70.2756C314.988 71.0533 315.664 71.9695 316.144 73.0241C316.634 74.0788 316.884 75.288 316.895 76.6516C316.884 78.6545 316.373 80.391 315.361 81.8612C314.359 83.3207 312.91 84.4553 311.014 85.2649C309.129 86.0639 306.854 86.4634 304.191 86.4634C301.549 86.4634 299.247 86.0586 297.287 85.2489C295.338 84.4393 293.814 83.2408 292.717 81.6534C291.63 80.0554 291.06 78.0792 291.007 75.7248H297.703C297.777 76.8221 298.092 77.7383 298.646 78.4734C299.21 79.1978 299.961 79.7464 300.899 80.1193C301.847 80.4815 302.918 80.6626 304.111 80.6626C305.283 80.6626 306.3 80.4922 307.163 80.1513C308.037 79.8104 308.713 79.3363 309.192 78.729C309.672 78.1218 309.912 77.424 309.912 76.6357C309.912 75.9006 309.693 75.2827 309.256 74.782C308.83 74.2812 308.202 73.8551 307.371 73.5036C306.55 73.152 305.544 72.8324 304.35 72.5447L300.787 71.6499C298.028 70.9787 295.849 69.9293 294.251 68.5018C292.653 67.0742 291.859 65.1513 291.87 62.733C291.859 60.7514 292.387 59.0202 293.452 57.5394C294.528 56.0586 296.004 54.9027 297.879 54.0717C299.754 53.2408 301.884 52.8253 304.271 52.8253C306.7 52.8253 308.82 53.2408 310.631 54.0717C312.452 54.9027 313.869 56.0586 314.881 57.5394C315.893 59.0202 316.415 60.7354 316.447 62.685H309.816Z" fill="white"/>
</svg>
