<svg width="317" height="140" viewBox="0 0 317 140" fill="none" xmlns="http://www.w3.org/2000/svg">
<rect width="317" height="140" rx="20" fill="url(#paint0_linear_67_379)"/>
<path d="M82.8541 84.2853H75.9976L75.4249 83.7127V67.6626C75.4249 64.807 74.3028 62.5937 70.8591 62.5163C69.0869 62.4699 67.0593 62.5163 64.8925 62.6014L64.5675 62.9342V83.705L63.9948 84.2776H57.1383L56.5656 83.705V56.2867L57.1383 55.714H72.5693C78.5668 55.714 83.4268 60.5739 83.4268 66.5714V83.7127L82.8541 84.2853Z" fill="white"/>
<path d="M47.0238 99.4765H46.0796L41.3668 94.7635V93.8195L48.5715 86.6147H53.563L54.2285 87.2803V92.2717L47.0238 99.4765Z" fill="#05BDBA"/>
<path d="M41.3668 46.1721V45.228L46.0796 40.5151H47.0238L54.2285 47.7198V52.7113L53.563 53.3769H48.5715L41.3668 46.1721Z" fill="#05BDBA"/>
<path d="M47.9988 74.0083H20.5727L20 73.4356V66.5636L20.5727 65.991H47.9988L48.5714 66.5636V73.4356L47.9988 74.0083Z" fill="#05BDBA"/>
<path d="M119.427 74.0083H92.0011L91.4284 73.4356V66.5636L92.0011 65.991H119.427L120 66.5636V73.4356L119.427 74.0083Z" fill="#05BDBA"/>
<path d="M66.0455 47.1472V26.5776L66.6181 26.0049H73.4902L74.0629 26.5776V47.1472L73.4902 47.7198H66.6181L66.0455 47.1472Z" fill="#05BDBA"/>
<path d="M66.0455 113.422V92.8521L66.6181 92.2794H73.4902L74.0629 92.8521V113.422L73.4902 113.994H66.6181L66.0455 113.422Z" fill="#05BDBA"/>
<path d="M180.218 53.2727V86H174.242L160.004 65.4016H159.764V86H152.844V53.2727H158.917L173.043 73.8551H173.331V53.2727H180.218ZM196.994 86.4794C194.469 86.4794 192.295 85.968 190.474 84.9453C188.663 83.9119 187.267 82.4524 186.287 80.5668C185.307 78.6705 184.817 76.4279 184.817 73.8391C184.817 71.3143 185.307 69.0984 186.287 67.1914C187.267 65.2844 188.647 63.7983 190.426 62.733C192.215 61.6676 194.314 61.1349 196.722 61.1349C198.341 61.1349 199.849 61.396 201.244 61.918C202.65 62.4293 203.876 63.2017 204.92 64.2351C205.974 65.2685 206.795 66.5682 207.381 68.1342C207.967 69.6896 208.26 71.5114 208.26 73.5994V75.4691H187.533V71.2504H201.851C201.851 70.2702 201.638 69.402 201.212 68.6456C200.786 67.8892 200.195 67.2979 199.438 66.8718C198.693 66.435 197.824 66.2166 196.834 66.2166C195.8 66.2166 194.884 66.4563 194.085 66.9357C193.297 67.4045 192.679 68.0384 192.231 68.8374C191.784 69.6257 191.555 70.5046 191.544 71.4741V75.4851C191.544 76.6996 191.768 77.7489 192.215 78.6332C192.674 79.5174 193.318 80.1992 194.149 80.6786C194.98 81.158 195.965 81.3977 197.105 81.3977C197.862 81.3977 198.554 81.2912 199.183 81.0781C199.811 80.8651 200.349 80.5455 200.797 80.1193C201.244 79.6932 201.585 79.1712 201.82 78.5533L208.116 78.9688C207.796 80.4815 207.141 81.8026 206.15 82.9318C205.17 84.0504 203.902 84.924 202.347 85.5526C200.802 86.1705 199.018 86.4794 196.994 86.4794ZM225.758 61.4545V66.5682H210.976V61.4545H225.758ZM214.332 55.5739H221.139V78.4574C221.139 79.0859 221.235 79.576 221.427 79.9276C221.619 80.2685 221.885 80.5082 222.226 80.6467C222.578 80.7852 222.983 80.8544 223.441 80.8544C223.76 80.8544 224.08 80.8278 224.399 80.7745C224.719 80.7106 224.964 80.6626 225.135 80.6307L226.205 85.6964C225.864 85.8029 225.385 85.9254 224.767 86.0639C224.149 86.2131 223.398 86.3036 222.514 86.3356C220.873 86.3995 219.435 86.1811 218.199 85.6804C216.974 85.1797 216.021 84.402 215.339 83.3473C214.657 82.2926 214.321 80.9609 214.332 79.3523V55.5739ZM237.527 53.2727V86H230.72V53.2727H237.527ZM242.98 86V61.4545H249.788V86H242.98ZM246.4 58.2905C245.388 58.2905 244.52 57.9549 243.795 57.2837C243.081 56.6019 242.725 55.7869 242.725 54.8388C242.725 53.9013 243.081 53.0969 243.795 52.4258C244.52 51.744 245.388 51.4031 246.4 51.4031C247.412 51.4031 248.275 51.744 248.989 52.4258C249.713 53.0969 250.075 53.9013 250.075 54.8388C250.075 55.7869 249.713 56.6019 248.989 57.2837C248.275 57.9549 247.412 58.2905 246.4 58.2905ZM268.441 61.4545V66.5682H253.291V61.4545H268.441ZM256.759 86V59.6808C256.759 57.9016 257.105 56.4261 257.798 55.2543C258.501 54.0824 259.46 53.2035 260.674 52.6175C261.889 52.0316 263.268 51.7386 264.813 51.7386C265.857 51.7386 266.811 51.8185 267.674 51.9783C268.547 52.1381 269.197 52.282 269.623 52.4098L268.409 57.5234C268.142 57.4382 267.812 57.3583 267.418 57.2837C267.034 57.2092 266.64 57.1719 266.235 57.1719C265.234 57.1719 264.536 57.4062 264.142 57.875C263.748 58.3331 263.551 58.9776 263.551 59.8086V86H256.759ZM276.802 95.2045C275.939 95.2045 275.13 95.1353 274.373 94.9968C273.627 94.869 273.01 94.7038 272.52 94.5014L274.054 89.4197C274.853 89.6648 275.572 89.7979 276.211 89.8192C276.861 89.8406 277.42 89.6914 277.889 89.3718C278.368 89.0522 278.757 88.5089 279.055 87.7418L279.455 86.7031L270.65 61.4545H277.809L282.891 79.4801H283.146L288.276 61.4545H295.483L285.943 88.6527C285.485 89.9737 284.862 91.1243 284.073 92.1044C283.295 93.0952 282.31 93.8569 281.117 94.3896C279.924 94.9329 278.485 95.2045 276.802 95.2045Z" fill="white"/>
<defs>
<linearGradient id="paint0_linear_67_379" x1="0" y1="0" x2="328.656" y2="103.793" gradientUnits="userSpaceOnUse">
<stop stop-color="#014847"/>
<stop offset="0.7" stop-color="#1B205B"/>
<stop offset="1" stop-color="#0E112F"/>
</linearGradient>
</defs>
</svg>
