<svg width="313" height="140" viewBox="0 0 313 140" fill="none" xmlns="http://www.w3.org/2000/svg">
<rect width="312.826" height="140" rx="20" fill="black"/>
<path d="M62.6336 35H77.2268V79.8243C77.2268 84.8572 76.0247 89.261 73.6206 93.0356C71.239 96.8103 67.9024 99.7537 63.611 101.866C59.3195 103.955 54.3203 105 48.6134 105C42.884 105 37.8735 103.955 33.5821 101.866C29.2906 99.7537 25.9541 96.8103 23.5725 93.0356C21.1908 89.261 20 84.8572 20 79.8243V35H34.5932V78.5773C34.5932 81.2061 35.1661 83.5428 36.312 85.5874C37.4803 87.632 39.1205 89.2385 41.2325 90.4068C43.3446 91.5752 45.8048 92.1594 48.6134 92.1594C51.4444 92.1594 53.9047 91.5752 55.9942 90.4068C58.1062 89.2385 59.7352 87.632 60.8811 85.5874C62.0494 83.5428 62.6336 81.2061 62.6336 78.5773V35Z" fill="white"/>
<path d="M103.826 35V104.023H89.2333V35H103.826Z" fill="white"/>
<path d="M164.045 53.2727V86H158.068L143.83 65.4016H143.59V86H136.671V53.2727H142.743L156.87 73.8551H157.157V53.2727H164.045ZM180.82 86.4794C178.295 86.4794 176.122 85.968 174.3 84.9453C172.489 83.9119 171.093 82.4524 170.113 80.5668C169.133 78.6705 168.643 76.4279 168.643 73.8391C168.643 71.3143 169.133 69.0984 170.113 67.1914C171.093 65.2844 172.473 63.7983 174.252 62.733C176.042 61.6676 178.141 61.1349 180.548 61.1349C182.168 61.1349 183.675 61.396 185.071 61.918C186.477 62.4293 187.702 63.2017 188.746 64.2351C189.801 65.2685 190.621 66.5682 191.207 68.1342C191.793 69.6896 192.086 71.5114 192.086 73.5994V75.4691H171.36V71.2504H185.678C185.678 70.2702 185.465 69.402 185.039 68.6456C184.613 67.8892 184.021 67.2979 183.265 66.8718C182.519 66.435 181.651 66.2166 180.66 66.2166C179.627 66.2166 178.711 66.4563 177.912 66.9357C177.123 67.4045 176.505 68.0384 176.058 68.8374C175.61 69.6257 175.381 70.5046 175.371 71.4741V75.4851C175.371 76.6996 175.594 77.7489 176.042 78.6332C176.5 79.5174 177.145 80.1992 177.975 80.6786C178.806 81.158 179.792 81.3977 180.932 81.3977C181.688 81.3977 182.381 81.2912 183.009 81.0781C183.638 80.8651 184.176 80.5455 184.623 80.1193C185.071 79.6932 185.412 79.1712 185.646 78.5533L191.942 78.9688C191.622 80.4815 190.967 81.8026 189.977 82.9318C188.996 84.0504 187.729 84.924 186.173 85.5526C184.629 86.1705 182.844 86.4794 180.82 86.4794ZM201.778 61.4545L206.284 70.0359L210.902 61.4545H217.886L210.775 73.7273L218.078 86H211.126L206.284 77.5146L201.522 86H194.491L201.778 73.7273L194.747 61.4545H201.778ZM234.985 61.4545V66.5682H220.203V61.4545H234.985ZM223.559 55.5739H230.366V78.4574C230.366 79.0859 230.462 79.576 230.654 79.9276C230.846 80.2685 231.112 80.5082 231.453 80.6467C231.804 80.7852 232.209 80.8544 232.667 80.8544C232.987 80.8544 233.307 80.8278 233.626 80.7745C233.946 80.7106 234.191 80.6626 234.361 80.6307L235.432 85.6964C235.091 85.8029 234.612 85.9254 233.994 86.0639C233.376 86.2131 232.625 86.3036 231.741 86.3356C230.1 86.3995 228.662 86.1811 227.426 85.6804C226.201 85.1797 225.247 84.402 224.565 83.3473C223.884 82.2926 223.548 80.9609 223.559 79.3523V55.5739ZM270.177 53.2727H277.096V74.5263C277.096 76.9126 276.526 79.0007 275.386 80.7905C274.257 82.5803 272.675 83.9759 270.64 84.9773C268.605 85.968 266.235 86.4634 263.529 86.4634C260.812 86.4634 258.437 85.968 256.402 84.9773C254.367 83.9759 252.785 82.5803 251.656 80.7905C250.527 79.0007 249.962 76.9126 249.962 74.5263V53.2727H256.881V73.935C256.881 75.1815 257.153 76.2894 257.696 77.2589C258.25 78.2283 259.028 78.9901 260.029 79.544C261.031 80.098 262.197 80.375 263.529 80.375C264.871 80.375 266.038 80.098 267.029 79.544C268.03 78.9901 268.802 78.2283 269.346 77.2589C269.9 76.2894 270.177 75.1815 270.177 73.935V53.2727ZM289.708 53.2727V86H282.789V53.2727H289.708Z" fill="white"/>
</svg>
