<svg width="140" height="140" viewBox="0 0 140 140" fill="none" xmlns="http://www.w3.org/2000/svg">
<rect width="140" height="140" rx="20" fill="#8CC84B"/>
<path d="M65.9057 21.0669C68.3852 19.6476 71.6148 19.6412 74.0922 21.0669C86.5558 28.1094 99.0233 35.141 111.485 42.1878C113.829 43.5081 115.396 46.1166 115.373 48.8173V91.1881C115.39 94.0007 113.667 96.6715 111.194 97.9618C98.7719 104.966 86.3557 111.978 73.9352 118.982C71.4044 120.429 68.1099 120.318 65.6582 118.752C61.9339 116.593 58.2032 114.444 54.4785 112.287C53.7174 111.834 52.8594 111.473 52.322 110.735C52.7971 110.094 53.6465 110.014 54.3368 109.735C55.8914 109.241 57.3192 108.447 58.7474 107.677C59.1085 107.43 59.5494 107.525 59.8956 107.746C63.0803 109.572 66.2369 111.451 69.4323 113.259C70.114 113.653 70.8042 113.13 71.3869 112.806C83.5773 105.916 95.7827 99.052 107.971 92.1601C108.423 91.9428 108.672 91.4634 108.636 90.9687C108.644 76.9915 108.638 63.0118 108.64 49.0345C108.691 48.4732 108.367 47.9571 107.859 47.7274C95.4796 40.7557 83.1065 33.7733 70.7291 26.7999C70.5146 26.6524 70.2606 26.5733 70.0004 26.573C69.7401 26.5726 69.4859 26.6509 69.271 26.7977C56.8936 33.7733 44.5226 40.7621 32.1452 47.7335C31.6395 47.9636 31.3 48.4711 31.3602 49.0345C31.3624 63.0118 31.3602 76.9915 31.3602 90.9709C31.3388 91.2122 31.3918 91.4544 31.5121 91.6647C31.6325 91.8751 31.8144 92.0435 32.0334 92.1473C35.3363 94.0203 38.6436 95.8801 41.9487 97.7467C43.8106 98.7489 46.0968 99.3444 48.1482 98.5765C49.9586 97.9273 51.2275 96.0799 51.193 94.1577C51.2101 80.2621 51.1845 66.3642 51.2058 52.4707C51.1606 51.8538 51.7457 51.3442 52.3455 51.4022C53.9325 51.3915 55.5217 51.3809 57.1087 51.4065C57.7712 51.3915 58.227 52.0558 58.1451 52.6773C58.1387 66.6609 58.1622 80.6449 58.1344 94.6286C58.1387 98.3554 56.6076 102.411 53.1604 104.234C48.9136 106.434 43.6646 105.967 39.4691 103.858C35.8371 102.045 32.371 99.9057 28.8034 97.9636C26.3242 96.6804 24.6101 93.9989 24.6275 91.1885V48.8173C24.6015 46.0606 26.2316 43.4048 28.6485 42.1038C41.069 35.0943 53.4873 28.0795 65.9057 21.0669Z" fill="white"/>
<path d="M76.7413 50.4174C82.1584 50.0687 87.9576 50.2108 92.8323 52.8795C96.6065 54.9245 98.6989 59.2165 98.7655 63.4095C98.6601 63.9751 98.0688 64.2871 97.5289 64.2483C95.9572 64.2461 94.3851 64.2696 92.8134 64.2376C92.1467 64.2632 91.7592 63.6485 91.6755 63.0591C91.2239 61.0529 90.1298 59.0659 88.2415 58.0982C85.3428 56.6469 81.9817 56.7199 78.8209 56.7502C76.5134 56.8727 74.032 57.0725 72.0771 58.4294C70.5763 59.4573 70.1204 61.5322 70.6561 63.2033C71.1611 64.4032 72.5462 64.7903 73.6794 65.1472C80.2077 66.8546 87.1257 66.6847 93.5293 68.9317C96.1805 69.8477 98.774 71.6285 99.6815 74.4043C100.869 78.1247 100.348 82.5716 97.7013 85.5584C95.5548 88.0162 92.4284 89.3539 89.3103 90.0804C85.1622 91.0054 80.8574 91.0289 76.6448 90.6182C72.6836 90.1666 68.5615 89.1259 65.5036 86.427C62.8887 84.1565 61.6115 80.6189 61.7383 77.2044C61.7686 76.6278 62.3427 76.2257 62.8951 76.2731C64.4779 76.2603 66.0606 76.256 67.6434 76.2752C68.2755 76.23 68.7442 76.7763 68.7766 77.3722C69.0687 79.2836 69.787 81.2898 71.4538 82.4231C74.6706 84.4984 78.7069 84.3563 82.3903 84.4144C85.4418 84.279 88.8673 84.2381 91.3575 82.2212C92.6713 81.0708 93.0606 79.1462 92.7055 77.4904C92.3209 76.0925 90.8585 75.4411 89.6027 75.0151C83.1581 72.9765 76.1629 73.7162 69.7806 71.4109C67.1896 70.4952 64.6841 68.7639 63.6886 66.102C62.2996 62.3346 62.9361 57.6747 65.8605 54.7888C68.7118 51.9182 72.8279 50.8131 76.7413 50.4174Z" fill="white"/>
</svg>
