<svg width="140" height="140" viewBox="0 0 140 140" fill="none" xmlns="http://www.w3.org/2000/svg">
<rect width="140" height="140" rx="20" fill="#8CC84B"/>
<path d="M65.9054 21.0669C68.3849 19.6476 71.6145 19.6412 74.0919 21.0669C86.5555 28.1094 99.023 35.141 111.485 42.1878C113.828 43.5081 115.396 46.1166 115.372 48.8173V91.1881C115.39 94.0007 113.667 96.6715 111.194 97.9618C98.7717 104.966 86.3554 111.978 73.9349 118.982C71.4041 120.429 68.1096 120.318 65.6579 118.752C61.9336 116.593 58.2029 114.444 54.4782 112.287C53.7171 111.834 52.8591 111.473 52.3218 110.735C52.7969 110.094 53.6462 110.014 54.3365 109.735C55.8911 109.241 57.319 108.447 58.7472 107.677C59.1082 107.43 59.5491 107.525 59.8953 107.746C63.08 109.572 66.2366 111.451 69.432 113.259C70.1138 113.653 70.804 113.13 71.3867 112.806C83.577 105.916 95.7825 99.052 107.971 92.1601C108.422 91.9428 108.672 91.4634 108.635 90.9687C108.644 76.9915 108.637 63.0118 108.64 49.0345C108.691 48.4732 108.366 47.9571 107.859 47.7274C95.4794 40.7557 83.1062 33.7733 70.7288 26.7999C70.5143 26.6524 70.2603 26.5733 70.0001 26.573C69.7398 26.5726 69.4856 26.6509 69.2707 26.7977C56.8933 33.7733 44.5224 40.7621 32.1449 47.7335C31.6392 47.9636 31.2997 48.4711 31.3599 49.0345C31.3621 63.0118 31.3599 76.9915 31.3599 90.9709C31.3385 91.2122 31.3916 91.4544 31.5118 91.6647C31.6322 91.8751 31.8142 92.0435 32.0332 92.1473C35.3361 94.0203 38.6434 95.8801 41.9485 97.7467C43.8104 98.7489 46.0965 99.3444 48.1479 98.5765C49.9583 97.9273 51.2272 96.0799 51.1927 94.1577C51.2098 80.2621 51.1842 66.3642 51.2055 52.4707C51.1603 51.8538 51.7454 51.3442 52.3452 51.4022C53.9322 51.3915 55.5214 51.3809 57.1084 51.4065C57.7709 51.3915 58.2267 52.0558 58.1448 52.6773C58.1384 66.6609 58.1619 80.6449 58.1341 94.6286C58.1384 98.3554 56.6073 102.411 53.1601 104.234C48.9133 106.434 43.6643 105.967 39.4688 103.858C35.8368 102.045 32.3708 99.9057 28.8032 97.9636C26.324 96.6804 24.6098 93.9989 24.6273 91.1885V48.8173C24.6013 46.0606 26.2314 43.4048 28.6482 42.1038C41.0688 35.0943 53.487 28.0795 65.9054 21.0669Z" fill="white"/>
<path d="M76.7411 50.4174C82.1581 50.0687 87.9573 50.2108 92.832 52.8795C96.6062 54.9245 98.6986 59.2165 98.7652 63.4095C98.6598 63.9751 98.0686 64.2871 97.5286 64.2483C95.9569 64.2461 94.3848 64.2696 92.8131 64.2376C92.1464 64.2632 91.7589 63.6485 91.6752 63.0591C91.2236 61.0529 90.1296 59.0659 88.2413 58.0982C85.3426 56.6469 81.9814 56.7199 78.8206 56.7502C76.5131 56.8727 74.0317 57.0725 72.0769 58.4294C70.576 59.4573 70.1201 61.5322 70.6558 63.2033C71.1609 64.4032 72.5459 64.7903 73.6791 65.1472C80.2075 66.8546 87.1254 66.6847 93.529 68.9317C96.1802 69.8477 98.7737 71.6285 99.6812 74.4043C100.868 78.1247 100.348 82.5716 97.701 85.5584C95.5545 88.0162 92.4281 89.3539 89.31 90.0804C85.1619 91.0054 80.8572 91.0289 76.6446 90.6182C72.6833 90.1666 68.5612 89.1259 65.5033 86.427C62.8885 84.1565 61.6112 80.6189 61.738 77.2044C61.7683 76.6278 62.3424 76.2257 62.8948 76.2731C64.4776 76.2603 66.0603 76.256 67.6432 76.2752C68.2752 76.23 68.7439 76.7763 68.7763 77.3722C69.0684 79.2836 69.7867 81.2898 71.4535 82.4231C74.6703 84.4984 78.7066 84.3563 82.39 84.4144C85.4415 84.279 88.8671 84.2381 91.3572 82.2212C92.671 81.0708 93.0603 79.1462 92.7052 77.4904C92.3206 76.0925 90.8582 75.4411 89.6024 75.0151C83.1578 72.9765 76.1627 73.7162 69.7803 71.4109C67.1894 70.4952 64.6838 68.7639 63.6884 66.102C62.2994 62.3346 62.9358 57.6747 65.8602 54.7888C68.7115 51.9182 72.8277 50.8131 76.7411 50.4174Z" fill="white"/>
</svg>
