<svg width="343" height="140" viewBox="0 0 343 140" fill="none" xmlns="http://www.w3.org/2000/svg">
<rect width="342.746" height="140" rx="20" fill="#8CC84B"/>
<path d="M61.2785 21.0669C63.758 19.6476 66.9876 19.6412 69.465 21.0669C81.9286 28.1094 94.3961 35.141 106.858 42.1878C109.201 43.5081 110.769 46.1166 110.745 48.8173V91.1881C110.763 94.0007 109.04 96.6715 106.567 97.9618C94.1447 104.966 81.7285 111.978 69.308 118.982C66.7772 120.429 63.4827 120.318 61.031 118.752C57.3067 116.593 53.576 114.444 49.8513 112.287C49.0902 111.834 48.2322 111.473 47.6948 110.735C48.1699 110.094 49.0193 110.014 49.7096 109.735C51.2642 109.241 52.692 108.447 54.1202 107.677C54.4813 107.43 54.9222 107.525 55.2684 107.746C58.4531 109.572 61.6097 111.451 64.8051 113.259C65.4868 113.653 66.177 113.13 66.7597 112.806C78.9501 105.916 91.1555 99.052 103.344 92.1601C103.795 91.9428 104.045 91.4634 104.008 90.9687C104.017 76.9915 104.011 63.0118 104.013 49.0345C104.064 48.4732 103.74 47.9571 103.232 47.7274C90.8524 40.7557 78.4793 33.7733 66.1019 26.7999C65.8874 26.6524 65.6334 26.5733 65.3732 26.573C65.1129 26.5726 64.8587 26.6509 64.6438 26.7977C52.2664 33.7733 39.8954 40.7621 27.518 47.7335C27.0123 47.9636 26.6728 48.4711 26.733 49.0345C26.7352 63.0118 26.733 76.9915 26.733 90.9709C26.7116 91.2122 26.7646 91.4544 26.8849 91.6647C27.0053 91.8751 27.1872 92.0435 27.4062 92.1473C30.7091 94.0203 34.0164 95.8801 37.3215 97.7467C39.1834 98.7489 41.4696 99.3444 43.521 98.5765C45.3314 97.9273 46.6003 96.0799 46.5658 94.1577C46.5829 80.2621 46.5573 66.3642 46.5786 52.4707C46.5334 51.8538 47.1185 51.3442 47.7183 51.4022C49.3053 51.3915 50.8945 51.3809 52.4815 51.4065C53.144 51.3915 53.5998 52.0558 53.5179 52.6773C53.5115 66.6609 53.535 80.6449 53.5072 94.6286C53.5115 98.3554 51.9804 102.411 48.5332 104.234C44.2864 106.434 39.0374 105.967 34.8419 103.858C31.2099 102.045 27.7438 99.9057 24.1762 97.9636C21.697 96.6804 19.9829 93.9989 20.0003 91.1885V48.8173C19.9743 46.0606 21.6044 43.4048 24.0213 42.1038C36.4418 35.0943 48.8601 28.0795 61.2785 21.0669Z" fill="white"/>
<path d="M72.1141 50.4174C77.5312 50.0687 83.3304 50.2108 88.2051 52.8795C91.9793 54.9245 94.0717 59.2165 94.1383 63.4095C94.0329 63.9751 93.4416 64.2871 92.9017 64.2483C91.33 64.2461 89.7579 64.2696 88.1862 64.2376C87.5195 64.2632 87.132 63.6485 87.0483 63.0591C86.5967 61.0529 85.5026 59.0659 83.6143 58.0982C80.7156 56.6469 77.3545 56.7199 74.1937 56.7502C71.8862 56.8727 69.4048 57.0725 67.4499 58.4294C65.9491 59.4573 65.4932 61.5322 66.0289 63.2033C66.5339 64.4032 67.919 64.7903 69.0522 65.1472C75.5805 66.8546 82.4985 66.6847 88.9021 68.9317C91.5533 69.8477 94.1468 71.6285 95.0543 74.4043C96.2414 78.1247 95.721 82.5716 93.0741 85.5584C90.9276 88.0162 87.8012 89.3539 84.6831 90.0804C80.535 91.0054 76.2302 91.0289 72.0176 90.6182C68.0564 90.1666 63.9343 89.1259 60.8764 86.427C58.2615 84.1565 56.9843 80.6189 57.1111 77.2044C57.1414 76.6278 57.7155 76.2257 58.2679 76.2731C59.8507 76.2603 61.4334 76.256 63.0162 76.2752C63.6483 76.23 64.117 76.7763 64.1494 77.3722C64.4415 79.2836 65.1598 81.2898 66.8266 82.4231C70.0434 84.4984 74.0797 84.3563 77.7631 84.4144C80.8146 84.279 84.2401 84.2381 86.7303 82.2212C88.0441 81.0708 88.4334 79.1462 88.0783 77.4904C87.6937 76.0925 86.2313 75.4411 84.9755 75.0151C78.5309 72.9765 71.5357 73.7162 65.1534 71.4109C62.5624 70.4952 60.0569 68.7639 59.0614 66.102C57.6724 62.3346 58.3089 57.6747 61.2333 54.7888C64.0846 51.9182 68.2007 50.8131 72.1141 50.4174Z" fill="white"/>
<path d="M170.964 53.2727V86H164.987L150.749 65.4016H150.509V86H143.59V53.2727H149.663L163.789 73.8551H164.077V53.2727H170.964ZM187.643 86.4794C185.161 86.4794 183.014 85.9521 181.203 84.8974C179.403 83.832 178.013 82.3512 177.032 80.4549C176.052 78.5479 175.562 76.3374 175.562 73.8232C175.562 71.2876 176.052 69.0717 177.032 67.1754C178.013 65.2685 179.403 63.7876 181.203 62.733C183.014 61.6676 185.161 61.1349 187.643 61.1349C190.125 61.1349 192.267 61.6676 194.067 62.733C195.878 63.7876 197.274 65.2685 198.254 67.1754C199.234 69.0717 199.724 71.2876 199.724 73.8232C199.724 76.3374 199.234 78.5479 198.254 80.4549C197.274 82.3512 195.878 83.832 194.067 84.8974C192.267 85.9521 190.125 86.4794 187.643 86.4794ZM187.675 81.206C188.804 81.206 189.747 80.8864 190.504 80.2472C191.26 79.5973 191.83 78.7131 192.214 77.5945C192.608 76.4759 192.805 75.2028 192.805 73.7752C192.805 72.3477 192.608 71.0746 192.214 69.956C191.83 68.8374 191.26 67.9531 190.504 67.3033C189.747 66.6534 188.804 66.3285 187.675 66.3285C186.535 66.3285 185.576 66.6534 184.799 67.3033C184.032 67.9531 183.451 68.8374 183.057 69.956C182.673 71.0746 182.482 72.3477 182.482 73.7752C182.482 75.2028 182.673 76.4759 183.057 77.5945C183.451 78.7131 184.032 79.5973 184.799 80.2472C185.576 80.8864 186.535 81.206 187.675 81.206ZM213.195 86.3995C211.331 86.3995 209.643 85.9201 208.13 84.9613C206.628 83.9918 205.434 82.5696 204.55 80.6946C203.677 78.8089 203.24 76.4972 203.24 73.7592C203.24 70.9467 203.693 68.6083 204.598 66.744C205.504 64.869 206.708 63.468 208.21 62.5412C209.722 61.6037 211.379 61.1349 213.179 61.1349C214.554 61.1349 215.699 61.3693 216.615 61.8381C217.542 62.2962 218.288 62.8714 218.852 63.5639C219.428 64.2457 219.864 64.9169 220.163 65.5774H220.371V53.2727H227.162V86H220.45V82.0689H220.163C219.843 82.7507 219.39 83.4272 218.804 84.0984C218.229 84.7589 217.478 85.3075 216.551 85.7443C215.635 86.1811 214.516 86.3995 213.195 86.3995ZM215.353 80.9822C216.45 80.9822 217.377 80.6839 218.133 80.0874C218.9 79.4801 219.486 78.6332 219.891 77.5465C220.307 76.4599 220.514 75.1868 220.514 73.7273C220.514 72.2678 220.312 71 219.907 69.924C219.502 68.848 218.916 68.017 218.149 67.4311C217.382 66.8452 216.45 66.5522 215.353 66.5522C214.234 66.5522 213.291 66.8558 212.524 67.4631C211.757 68.0703 211.177 68.9119 210.782 69.9879C210.388 71.0639 210.191 72.3104 210.191 73.7273C210.191 75.1548 210.388 76.4173 210.782 77.5146C211.187 78.6012 211.768 79.4535 212.524 80.0714C213.291 80.6786 214.234 80.9822 215.353 80.9822ZM243.945 86.4794C241.42 86.4794 239.247 85.968 237.425 84.9453C235.614 83.9119 234.219 82.4524 233.239 80.5668C232.258 78.6705 231.768 76.4279 231.768 73.8391C231.768 71.3143 232.258 69.0984 233.239 67.1914C234.219 65.2844 235.598 63.7983 237.377 62.733C239.167 61.6676 241.266 61.1349 243.674 61.1349C245.293 61.1349 246.8 61.396 248.196 61.918C249.602 62.4293 250.827 63.2017 251.871 64.2351C252.926 65.2685 253.746 66.5682 254.332 68.1342C254.918 69.6896 255.211 71.5114 255.211 73.5994V75.4691H234.485V71.2504H248.803C248.803 70.2702 248.59 69.402 248.164 68.6456C247.738 67.8892 247.147 67.2979 246.39 66.8718C245.644 66.435 244.776 66.2166 243.785 66.2166C242.752 66.2166 241.836 66.4563 241.037 66.9357C240.248 67.4045 239.631 68.0384 239.183 68.8374C238.736 69.6257 238.507 70.5046 238.496 71.4741V75.4851C238.496 76.6996 238.72 77.7489 239.167 78.6332C239.625 79.5174 240.27 80.1992 241.101 80.6786C241.932 81.158 242.917 81.3977 244.057 81.3977C244.813 81.3977 245.506 81.2912 246.134 81.0781C246.763 80.8651 247.301 80.5455 247.748 80.1193C248.196 79.6932 248.537 79.1712 248.771 78.5533L255.067 78.9688C254.748 80.4815 254.093 81.8026 253.102 82.9318C252.122 84.0504 250.854 84.924 249.299 85.5526C247.754 86.1705 245.969 86.4794 243.945 86.4794ZM283.3 53.2727H290.14V76.0923C290.14 78.2017 289.666 80.0341 288.717 81.5895C287.78 83.1449 286.475 84.3434 284.802 85.185C283.13 86.0266 281.186 86.4474 278.97 86.4474C276.999 86.4474 275.209 86.1012 273.6 85.4087C272.002 84.7056 270.735 83.6403 269.797 82.2127C268.86 80.7745 268.396 78.9687 268.407 76.7955H275.294C275.315 77.6584 275.491 78.3988 275.822 79.0167C276.162 79.6239 276.626 80.0927 277.212 80.4229C277.808 80.7425 278.511 80.9023 279.321 80.9023C280.173 80.9023 280.893 80.7212 281.478 80.359C282.075 79.9862 282.528 79.4428 282.837 78.729C283.146 78.0153 283.3 77.1364 283.3 76.0923V53.2727ZM313.614 62.685C313.487 61.396 312.938 60.3945 311.969 59.6808C310.999 58.967 309.683 58.6101 308.021 58.6101C306.892 58.6101 305.939 58.7699 305.161 59.0895C304.383 59.3984 303.787 59.8299 303.371 60.3839C302.966 60.9379 302.764 61.5664 302.764 62.2695C302.743 62.8555 302.865 63.3668 303.132 63.8036C303.409 64.2404 303.787 64.6186 304.266 64.9382C304.746 65.2472 305.299 65.5188 305.928 65.7532C306.557 65.9769 307.228 66.1687 307.942 66.3285L310.882 67.0316C312.309 67.3512 313.62 67.7773 314.813 68.31C316.006 68.8427 317.04 69.4979 317.913 70.2756C318.787 71.0533 319.463 71.9695 319.943 73.0241C320.433 74.0788 320.683 75.288 320.694 76.6516C320.683 78.6545 320.172 80.391 319.16 81.8612C318.158 83.3207 316.709 84.4553 314.813 85.2649C312.927 86.0639 310.653 86.4634 307.989 86.4634C305.347 86.4634 303.046 86.0586 301.086 85.2489C299.136 84.4393 297.613 83.2408 296.516 81.6534C295.429 80.0554 294.859 78.0792 294.806 75.7248H301.502C301.576 76.8221 301.89 77.7383 302.444 78.4734C303.009 79.1978 303.76 79.7464 304.698 80.1193C305.646 80.4815 306.716 80.6626 307.91 80.6626C309.081 80.6626 310.099 80.4922 310.962 80.1513C311.835 79.8104 312.512 79.3363 312.991 78.729C313.471 78.1218 313.71 77.424 313.71 76.6357C313.71 75.9006 313.492 75.2827 313.055 74.782C312.629 74.2812 312 73.8551 311.17 73.5036C310.349 73.152 309.342 72.8324 308.149 72.5447L304.586 71.6499C301.826 70.9787 299.648 69.9293 298.05 68.5018C296.452 67.0742 295.658 65.1513 295.669 62.733C295.658 60.7514 296.186 59.0202 297.251 57.5394C298.327 56.0586 299.802 54.9027 301.677 54.0717C303.552 53.2408 305.683 52.8253 308.069 52.8253C310.498 52.8253 312.618 53.2408 314.429 54.0717C316.251 54.9027 317.668 56.0586 318.68 57.5394C319.692 59.0202 320.214 60.7354 320.246 62.685H313.614Z" fill="white"/>
</svg>
