<svg width="321" height="140" viewBox="0 0 321 140" fill="none" xmlns="http://www.w3.org/2000/svg">
<rect width="320.564" height="140" rx="20" fill="url(#paint0_linear_206_2)"/>
<path d="M59.7586 40.3163L43.0492 31.8818L24.7114 41.0338L41.8726 49.6519L59.7586 40.3163Z" fill="#4DABCF"/>
<path d="M67.4172 44.1816L84.9359 53.0244L66.76 62.1522L49.5723 53.5197L67.4172 44.1816Z" fill="#4DABCF"/>
<path d="M90.8147 32.0098L108.812 41.0337L92.7161 49.1178L75.1611 40.263L90.8147 32.0098Z" fill="#4DABCF"/>
<path d="M83.0684 28.1227L66.8664 20L50.8384 27.9971L67.5333 36.417L83.0684 28.1227Z" fill="#4DABCF"/>
<path d="M70.4009 97.8912V120L90.0288 110.206L90.0071 88.0869L70.4009 97.8912Z" fill="#4DABCF"/>
<path d="M89.9998 80.3674L89.9781 58.4805L70.4009 68.2123V90.1065L89.9998 80.3674Z" fill="#4DABCF"/>
<path d="M113.564 76.2646V98.4609L96.8231 106.816L96.811 84.7208L113.564 76.2646Z" fill="#4DABCF"/>
<path d="M113.564 68.5041V46.7549L96.7915 55.0927L96.806 77.0231L113.564 68.5041Z" fill="#4DABCF"/>
<path d="M63.4719 68.212L50.2513 61.5655V90.2947C50.2513 90.2947 34.0831 55.8926 32.5852 52.8025C32.3919 52.4039 31.597 51.9665 31.3941 51.8602C28.4948 50.3381 20 46.0352 20 46.0352V96.7914L31.7516 103.073V76.5426C31.7516 76.5426 47.7483 107.282 47.9102 107.618C48.072 107.954 49.6787 111.193 51.3941 112.331C53.6797 113.844 63.4743 119.734 63.4743 119.734L63.4719 68.212Z" fill="#4D77CF"/>
<path d="M173.782 53.2727V86H167.806L153.568 65.4016H153.328V86H146.408V53.2727H152.481L166.607 73.8551H166.895V53.2727H173.782ZM195.112 75.549V61.4545H201.919V86H195.383V81.5415H195.128C194.574 82.9798 193.652 84.1357 192.363 85.0092C191.085 85.8828 189.524 86.3196 187.681 86.3196C186.04 86.3196 184.597 85.9467 183.35 85.201C182.104 84.4553 181.129 83.3952 180.426 82.021C179.734 80.6467 179.382 79.0007 179.371 77.0831V61.4545H186.179V75.8686C186.19 77.3175 186.578 78.4627 187.345 79.3043C188.113 80.146 189.141 80.5668 190.43 80.5668C191.25 80.5668 192.017 80.3803 192.731 80.0075C193.445 79.6239 194.02 79.0593 194.457 78.3136C194.904 77.5678 195.122 76.6463 195.112 75.549ZM207.365 86V61.4545H213.852V65.7852H214.14C214.652 64.3469 215.504 63.2124 216.697 62.3814C217.89 61.5504 219.318 61.1349 220.98 61.1349C222.663 61.1349 224.096 61.5558 225.278 62.3974C226.461 63.2283 227.249 64.3576 227.643 65.7852H227.899C228.4 64.3789 229.305 63.255 230.616 62.4134C231.937 61.5611 233.497 61.1349 235.298 61.1349C237.588 61.1349 239.447 61.8647 240.875 63.3242C242.313 64.7731 243.032 66.8292 243.032 69.4925V86H236.241V70.8349C236.241 69.4712 235.878 68.4485 235.154 67.7667C234.43 67.0849 233.524 66.744 232.437 66.744C231.202 66.744 230.237 67.1381 229.545 67.9265C228.852 68.7042 228.506 69.7322 228.506 71.0107V86H221.906V70.6911C221.906 69.4872 221.56 68.5284 220.868 67.8146C220.186 67.1009 219.286 66.744 218.167 66.744C217.411 66.744 216.729 66.9357 216.122 67.3192C215.525 67.6921 215.051 68.2195 214.699 68.9013C214.348 69.5724 214.172 70.3608 214.172 71.2663V86H207.365ZM248.409 95.2045V61.4545H255.121V65.5774H255.425C255.723 64.9169 256.155 64.2457 256.719 63.5639C257.294 62.8714 258.04 62.2962 258.956 61.8381C259.883 61.3693 261.034 61.1349 262.408 61.1349C264.198 61.1349 265.849 61.6037 267.362 62.5412C268.875 63.468 270.084 64.869 270.989 66.744C271.895 68.6083 272.348 70.9467 272.348 73.7592C272.348 76.4972 271.906 78.8089 271.021 80.6946C270.148 82.5696 268.955 83.9918 267.442 84.9613C265.94 85.9201 264.256 86.3995 262.392 86.3995C261.071 86.3995 259.947 86.1811 259.02 85.7443C258.104 85.3075 257.353 84.7589 256.767 84.0984C256.181 83.4272 255.734 82.7507 255.425 82.0689H255.217V95.2045H248.409ZM255.073 73.7273C255.073 75.1868 255.276 76.4599 255.68 77.5465C256.085 78.6332 256.671 79.4801 257.438 80.0874C258.205 80.6839 259.137 80.9822 260.235 80.9822C261.343 80.9822 262.28 80.6786 263.047 80.0714C263.814 79.4535 264.395 78.6012 264.789 77.5146C265.194 76.4173 265.396 75.1548 265.396 73.7273C265.396 72.3104 265.199 71.0639 264.805 69.9879C264.411 68.9119 263.83 68.0703 263.063 67.4631C262.296 66.8558 261.353 66.5522 260.235 66.5522C259.127 66.5522 258.189 66.8452 257.422 67.4311C256.666 68.017 256.085 68.848 255.68 69.924C255.276 71 255.073 72.2678 255.073 73.7273ZM280.298 95.2045C279.435 95.2045 278.625 95.1353 277.869 94.9968C277.123 94.869 276.505 94.7038 276.015 94.5014L277.549 89.4197C278.348 89.6648 279.067 89.7979 279.707 89.8192C280.356 89.8406 280.916 89.6914 281.384 89.3718C281.864 89.0522 282.253 88.5089 282.551 87.7418L282.951 86.7031L274.145 61.4545H281.305L286.386 79.4801H286.642L291.772 61.4545H298.979L289.438 88.6527C288.98 89.9737 288.357 91.1243 287.569 92.1044C286.791 93.0952 285.806 93.8569 284.612 94.3896C283.419 94.9329 281.981 95.2045 280.298 95.2045Z" fill="white"/>
<defs>
<linearGradient id="paint0_linear_206_2" x1="0" y1="0" x2="168.238" y2="244.72" gradientUnits="userSpaceOnUse">
<stop stop-color="#314879"/>
<stop offset="1" stop-color="#1D4858"/>
</linearGradient>
</defs>
</svg>
