<svg width="140" height="140" viewBox="0 0 140 140" fill="none" xmlns="http://www.w3.org/2000/svg">
<rect width="140" height="140" rx="20" fill="url(#paint0_linear_206_5)"/>
<path d="M62.9768 40.3163L46.2675 31.8818L27.9297 41.0338L45.0909 49.6519L62.9768 40.3163Z" fill="#4DABCF"/>
<path d="M70.6354 44.1816L88.1542 53.0244L69.9783 62.1522L52.7905 53.5197L70.6354 44.1816Z" fill="#4DABCF"/>
<path d="M94.033 32.0098L112.03 41.0337L95.9344 49.1178L78.3794 40.263L94.033 32.0098Z" fill="#4DABCF"/>
<path d="M86.2867 28.1227L70.0847 20L54.0566 27.9971L70.7515 36.417L86.2867 28.1227Z" fill="#4DABCF"/>
<path d="M73.6191 97.8912V120L93.2471 110.206L93.2254 88.0869L73.6191 97.8912Z" fill="#4DABCF"/>
<path d="M93.2181 80.3674L93.1964 58.4805L73.6191 68.2123V90.1065L93.2181 80.3674Z" fill="#4DABCF"/>
<path d="M116.782 76.2646V98.4609L100.041 106.816L100.029 84.7208L116.782 76.2646Z" fill="#4DABCF"/>
<path d="M116.782 68.5041V46.7549L100.01 55.0927L100.024 77.0231L116.782 68.5041Z" fill="#4DABCF"/>
<path d="M66.6902 68.212L53.4696 61.5655V90.2947C53.4696 90.2947 37.3014 55.8926 35.8034 52.8025C35.6102 52.4039 34.8153 51.9665 34.6123 51.8602C31.7131 50.3381 23.2183 46.0352 23.2183 46.0352V96.7914L34.9699 103.073V76.5426C34.9699 76.5426 50.9665 107.282 51.1284 107.618C51.2903 107.954 52.897 111.193 54.6124 112.331C56.8979 113.844 66.6926 119.734 66.6926 119.734L66.6902 68.212Z" fill="#4D77CF"/>
<defs>
<linearGradient id="paint0_linear_206_5" x1="0" y1="0" x2="163.111" y2="103.62" gradientUnits="userSpaceOnUse">
<stop stop-color="#314879"/>
<stop offset="1" stop-color="#1D4858"/>
</linearGradient>
</defs>
</svg>
