<svg width="340" height="140" viewBox="0 0 340 140" fill="none" xmlns="http://www.w3.org/2000/svg">
<rect width="340" height="140" rx="20" fill="#00DC82"/>
<path d="M76.1008 103.334H113.275C114.456 103.334 115.616 103.026 116.638 102.441C117.661 101.855 118.51 101.014 119.1 100C119.69 98.9867 120 97.8368 120 96.6667C119.999 95.4965 119.688 94.347 119.097 93.334L94.1318 50.4768C93.5418 49.4635 92.693 48.622 91.6707 48.0369C90.6483 47.4518 89.4887 47.1438 88.3082 47.1438C87.1277 47.1438 85.968 47.4518 84.9457 48.0369C83.9233 48.622 83.0745 49.4635 82.4843 50.4768L76.1008 61.4425L63.6202 39.9995C63.0295 38.9863 62.1803 38.1449 61.1577 37.5599C60.1352 36.9749 58.9753 36.667 57.7945 36.667C56.6138 36.667 55.454 36.9749 54.4313 37.5599C53.4088 38.1449 52.5595 38.9863 51.969 39.9995L20.903 93.334C20.312 94.347 20.0005 95.4965 20 96.6667C19.9995 97.8368 20.3099 98.9867 20.9 100C21.4901 101.014 22.3392 101.855 23.3617 102.441C24.3842 103.026 25.5442 103.334 26.7249 103.334H50.0598C59.3053 103.334 66.1235 99.3087 70.8152 91.456L88.3063 61.4425L106.616 92.8707H82.2055L76.1008 103.334ZM49.6793 92.86L33.3946 92.8563L57.8055 50.9544L69.9855 71.9053L61.8305 85.9087C58.7148 91.0037 55.1752 92.86 49.6793 92.86Z" fill="white"/>
<path d="M180.218 53.2727V86H174.242L160.004 65.4016H159.764V86H152.844V53.2727H158.917L173.043 73.8551H173.331V53.2727H180.218ZM201.548 75.549V61.4545H208.355V86H201.82V81.5415H201.564C201.01 82.9798 200.088 84.1357 198.799 85.0092C197.521 85.8828 195.96 86.3196 194.117 86.3196C192.476 86.3196 191.033 85.9467 189.786 85.201C188.54 84.4553 187.565 83.3952 186.862 82.021C186.17 80.6467 185.818 79.0007 185.807 77.0831V61.4545H192.615V75.8686C192.626 77.3175 193.014 78.4627 193.782 79.3043C194.549 80.146 195.577 80.5668 196.866 80.5668C197.686 80.5668 198.453 80.3803 199.167 80.0075C199.881 79.6239 200.456 79.0593 200.893 78.3136C201.34 77.5678 201.559 76.6463 201.548 75.549ZM219.49 61.4545L223.996 70.0359L228.614 61.4545H235.597L228.486 73.7273L235.789 86H228.838L223.996 77.5146L219.234 86H212.203L219.49 73.7273L212.458 61.4545H219.49ZM252.696 61.4545V66.5682H237.915V61.4545H252.696ZM241.27 55.5739H248.078V78.4574C248.078 79.0859 248.174 79.576 248.366 79.9276C248.557 80.2685 248.824 80.5082 249.165 80.6467C249.516 80.7852 249.921 80.8544 250.379 80.8544C250.699 80.8544 251.018 80.8278 251.338 80.7745C251.657 80.7106 251.903 80.6626 252.073 80.6307L253.144 85.6964C252.803 85.8029 252.323 85.9254 251.705 86.0639C251.088 86.2131 250.336 86.3036 249.452 86.3356C247.812 86.3995 246.373 86.1811 245.138 85.6804C243.912 85.1797 242.959 84.402 242.277 83.3473C241.595 82.2926 241.26 80.9609 241.27 79.3523V55.5739ZM280.777 53.2727H287.617V76.0923C287.617 78.2017 287.143 80.0341 286.195 81.5895C285.257 83.1449 283.952 84.3434 282.279 85.185C280.607 86.0266 278.663 86.4474 276.447 86.4474C274.476 86.4474 272.686 86.1012 271.077 85.4087C269.479 84.7056 268.212 83.6403 267.274 82.2127C266.337 80.7745 265.873 78.9687 265.884 76.7955H272.771C272.793 77.6584 272.968 78.3988 273.299 79.0167C273.639 79.6239 274.103 80.0927 274.689 80.4229C275.285 80.7425 275.989 80.9023 276.798 80.9023C277.65 80.9023 278.37 80.7212 278.956 80.359C279.552 79.9862 280.005 79.4428 280.314 78.729C280.623 78.0153 280.777 77.1364 280.777 76.0923V53.2727ZM311.092 62.685C310.964 61.396 310.415 60.3945 309.446 59.6808C308.476 58.967 307.16 58.6101 305.498 58.6101C304.369 58.6101 303.416 58.7699 302.638 59.0895C301.86 59.3984 301.264 59.8299 300.848 60.3839C300.443 60.9379 300.241 61.5664 300.241 62.2695C300.22 62.8555 300.342 63.3668 300.609 63.8036C300.886 64.2404 301.264 64.6186 301.743 64.9382C302.223 65.2472 302.777 65.5188 303.405 65.7532C304.034 65.9769 304.705 66.1687 305.419 66.3285L308.359 67.0316C309.786 67.3512 311.097 67.7773 312.29 68.31C313.483 68.8427 314.517 69.4979 315.39 70.2756C316.264 71.0533 316.94 71.9695 317.42 73.0241C317.91 74.0788 318.16 75.288 318.171 76.6516C318.16 78.6545 317.649 80.391 316.637 81.8612C315.635 83.3207 314.186 84.4553 312.29 85.2649C310.404 86.0639 308.13 86.4634 305.467 86.4634C302.824 86.4634 300.523 86.0586 298.563 85.2489C296.614 84.4393 295.09 83.2408 293.993 81.6534C292.906 80.0554 292.336 78.0792 292.283 75.7248H298.979C299.053 76.8221 299.367 77.7383 299.921 78.4734C300.486 79.1978 301.237 79.7464 302.175 80.1193C303.123 80.4815 304.193 80.6626 305.387 80.6626C306.559 80.6626 307.576 80.4922 308.439 80.1513C309.312 79.8104 309.989 79.3363 310.468 78.729C310.948 78.1218 311.187 77.424 311.187 76.6357C311.187 75.9006 310.969 75.2827 310.532 74.782C310.106 74.2812 309.478 73.8551 308.647 73.5036C307.826 73.152 306.82 72.8324 305.626 72.5447L302.063 71.6499C299.304 70.9787 297.125 69.9293 295.527 68.5018C293.929 67.0742 293.135 65.1513 293.146 62.733C293.135 60.7514 293.663 59.0202 294.728 57.5394C295.804 56.0586 297.279 54.9027 299.154 54.0717C301.029 53.2408 303.16 52.8253 305.546 52.8253C307.975 52.8253 310.095 53.2408 311.907 54.0717C313.728 54.9027 315.145 56.0586 316.157 57.5394C317.169 59.0202 317.691 60.7354 317.723 62.685H311.092Z" fill="white"/>
</svg>
