<svg width="140" height="140" viewBox="0 0 140 140" fill="none" xmlns="http://www.w3.org/2000/svg">
<rect width="140" height="140" rx="20" fill="#00DC82"/>
<path d="M76.1008 103.334H113.275C114.456 103.334 115.616 103.026 116.638 102.441C117.661 101.855 118.51 101.014 119.1 100C119.69 98.9867 120 97.8368 120 96.6667C119.999 95.4965 119.688 94.347 119.097 93.334L94.1318 50.4768C93.5418 49.4635 92.693 48.622 91.6707 48.0369C90.6483 47.4518 89.4887 47.1438 88.3082 47.1438C87.1277 47.1438 85.968 47.4518 84.9457 48.0369C83.9233 48.622 83.0745 49.4635 82.4843 50.4768L76.1008 61.4425L63.6202 39.9995C63.0295 38.9863 62.1803 38.1449 61.1577 37.5599C60.1352 36.9749 58.9753 36.667 57.7945 36.667C56.6138 36.667 55.454 36.9749 54.4313 37.5599C53.4088 38.1449 52.5595 38.9863 51.969 39.9995L20.903 93.334C20.312 94.347 20.0005 95.4965 20 96.6667C19.9995 97.8368 20.3099 98.9867 20.9 100C21.4901 101.014 22.3392 101.855 23.3617 102.441C24.3842 103.026 25.5442 103.334 26.7249 103.334H50.0598C59.3053 103.334 66.1235 99.3087 70.8152 91.456L88.3063 61.4425L106.616 92.8707H82.2055L76.1008 103.334ZM49.6793 92.86L33.3946 92.8563L57.8055 50.9544L69.9855 71.9053L61.8305 85.9087C58.7148 91.0037 55.1752 92.86 49.6793 92.86Z" fill="white"/>
</svg>
