<svg width="525" height="140" viewBox="0 0 525 140" fill="none" xmlns="http://www.w3.org/2000/svg">
<rect width="525" height="140" rx="20" fill="#202C5F"/>
<path d="M80.281 75.0402C75.4239 79.643 75.4239 87.1146 80.281 91.7174C85.1381 96.3202 93.0225 96.3202 97.8796 91.7174C102.737 87.1146 102.737 79.643 97.8796 75.0402C93.0225 70.4374 85.1381 70.4374 80.281 75.0402ZM93.455 87.5245C91.0597 89.7944 87.1342 89.7944 84.7389 87.5245C82.3436 85.2546 82.3436 81.5346 84.7389 79.2647C87.1342 76.9948 91.0597 76.9948 93.455 79.2647C95.8503 81.5346 95.8503 85.2546 93.455 87.5245ZM97.68 17.064L90.0617 24.2834C88.5647 25.7021 88.5647 28.0035 90.0617 29.4222L119.836 57.6379C121.333 59.0566 123.762 59.0566 125.259 57.6379L132.877 50.4184C134.374 48.9998 134.374 46.6984 132.877 45.2797L103.103 17.064C101.606 15.6453 99.1771 15.6453 97.68 17.064ZM44.2854 109.34C45.6494 108.048 45.6494 105.967 44.2854 104.675L40.3931 100.986C39.0291 99.6935 36.8334 99.6935 35.4695 100.986L27.4852 108.552L25.2896 106.472C24.0919 105.337 22.0959 105.337 20.8982 106.472C19.7006 107.607 19.7006 109.498 20.8982 110.633L34.1055 123.149C35.3031 124.284 37.2992 124.284 38.4968 123.149C39.6945 122.014 39.6945 120.122 38.4968 118.987L36.3012 116.907L44.2854 109.34Z" fill="#F5A800"/>
<path d="M84.6058 37.7759L67.6726 53.8226C66.1755 55.2412 66.1755 57.6057 67.6726 59.0244L78.1186 68.9235C85.5041 63.8794 95.8836 64.5099 102.537 70.8151L110.987 62.8075C112.484 61.3888 112.484 59.0244 110.987 57.6057L90.095 37.8074C88.5647 36.3572 86.1029 36.3572 84.6058 37.7759ZM73.7273 73.1165L67.5395 67.2526C66.109 65.897 63.7137 65.897 62.2832 67.2526L40.4929 87.9021C39.0624 89.2578 39.0624 91.5276 40.4929 92.8832L52.8352 104.579C54.2657 105.935 56.661 105.935 58.0915 104.579L72.0972 91.3069C69.1696 85.4746 69.7019 78.4759 73.7273 73.1165Z" fill="#425CC7"/>
<path d="M196.919 69.6364C196.919 73.2053 196.243 76.2415 194.89 78.745C193.547 81.2486 191.715 83.1609 189.392 84.4819C187.081 85.7923 184.481 86.4474 181.594 86.4474C178.686 86.4474 176.076 85.7869 173.764 84.4659C171.452 83.1449 169.625 81.2326 168.283 78.729C166.94 76.2255 166.269 73.1946 166.269 69.6364C166.269 66.0675 166.94 63.0312 168.283 60.5277C169.625 58.0241 171.452 56.1172 173.764 54.8068C176.076 53.4858 178.686 52.8253 181.594 52.8253C184.481 52.8253 187.081 53.4858 189.392 54.8068C191.715 56.1172 193.547 58.0241 194.89 60.5277C196.243 63.0312 196.919 66.0675 196.919 69.6364ZM189.904 69.6364C189.904 67.3246 189.558 65.375 188.865 63.7876C188.183 62.2003 187.219 60.9964 185.973 60.1761C184.726 59.3558 183.267 58.9457 181.594 58.9457C179.922 58.9457 178.462 59.3558 177.216 60.1761C175.969 60.9964 175 62.2003 174.307 63.7876C173.625 65.375 173.284 67.3246 173.284 69.6364C173.284 71.9482 173.625 73.8977 174.307 75.4851C175 77.0724 175.969 78.2763 177.216 79.0966C178.462 79.9169 179.922 80.3271 181.594 80.3271C183.267 80.3271 184.726 79.9169 185.973 79.0966C187.219 78.2763 188.183 77.0724 188.865 75.4851C189.558 73.8977 189.904 71.9482 189.904 69.6364ZM201.917 95.2045V61.4545H208.628V65.5774H208.932C209.23 64.9169 209.662 64.2457 210.226 63.5639C210.802 62.8714 211.547 62.2962 212.464 61.8381C213.391 61.3693 214.541 61.1349 215.915 61.1349C217.705 61.1349 219.356 61.6037 220.869 62.5412C222.382 63.468 223.591 64.869 224.497 66.744C225.402 68.6083 225.855 70.9467 225.855 73.7592C225.855 76.4972 225.413 78.8089 224.529 80.6946C223.655 82.5696 222.462 83.9918 220.949 84.9613C219.447 85.9201 217.764 86.3995 215.899 86.3995C214.578 86.3995 213.454 86.1811 212.528 85.7443C211.611 85.3075 210.86 84.7589 210.274 84.0984C209.688 83.4272 209.241 82.7507 208.932 82.0689H208.724V95.2045H201.917ZM208.581 73.7273C208.581 75.1868 208.783 76.4599 209.188 77.5465C209.593 78.6332 210.179 79.4801 210.946 80.0874C211.713 80.6839 212.645 80.9822 213.742 80.9822C214.85 80.9822 215.788 80.6786 216.555 80.0714C217.322 79.4535 217.902 78.6012 218.296 77.5146C218.701 76.4173 218.904 75.1548 218.904 73.7273C218.904 72.3104 218.707 71.0639 218.312 69.9879C217.918 68.9119 217.338 68.0703 216.571 67.4631C215.804 66.8558 214.861 66.5522 213.742 66.5522C212.634 66.5522 211.697 66.8452 210.93 67.4311C210.173 68.017 209.593 68.848 209.188 69.924C208.783 71 208.581 72.2678 208.581 73.7273ZM241.579 86.4794C239.055 86.4794 236.881 85.968 235.06 84.9453C233.248 83.9119 231.853 82.4524 230.873 80.5668C229.893 78.6705 229.403 76.4279 229.403 73.8391C229.403 71.3143 229.893 69.0984 230.873 67.1914C231.853 65.2844 233.233 63.7983 235.012 62.733C236.801 61.6676 238.9 61.1349 241.308 61.1349C242.927 61.1349 244.435 61.396 245.83 61.918C247.236 62.4293 248.462 63.2017 249.506 64.2351C250.56 65.2685 251.381 66.5682 251.967 68.1342C252.552 69.6896 252.845 71.5114 252.845 73.5994V75.4691H232.119V71.2504H246.437C246.437 70.2702 246.224 69.402 245.798 68.6456C245.372 67.8892 244.781 67.2979 244.024 66.8718C243.279 66.435 242.41 66.2166 241.42 66.2166C240.386 66.2166 239.47 66.4563 238.671 66.9357C237.883 67.4045 237.265 68.0384 236.817 68.8374C236.37 69.6257 236.141 70.5046 236.13 71.4741V75.4851C236.13 76.6996 236.354 77.7489 236.801 78.6332C237.259 79.5174 237.904 80.1992 238.735 80.6786C239.566 81.158 240.551 81.3977 241.691 81.3977C242.448 81.3977 243.14 81.2912 243.769 81.0781C244.397 80.8651 244.935 80.5455 245.383 80.1193C245.83 79.6932 246.171 79.1712 246.405 78.5533L252.702 78.9688C252.382 80.4815 251.727 81.8026 250.736 82.9318C249.756 84.0504 248.488 84.924 246.933 85.5526C245.388 86.1705 243.604 86.4794 241.579 86.4794ZM264.095 71.8097V86H257.288V61.4545H263.776V65.7852H264.063C264.607 64.3576 265.518 63.2283 266.796 62.3974C268.074 61.5558 269.625 61.1349 271.446 61.1349C273.151 61.1349 274.637 61.5078 275.905 62.2536C277.172 62.9993 278.158 64.0646 278.861 65.4496C279.564 66.8239 279.916 68.4645 279.916 70.3714V86H273.108V71.5859C273.119 70.0838 272.735 68.9119 271.958 68.0703C271.18 67.218 270.109 66.7919 268.746 66.7919C267.829 66.7919 267.02 66.989 266.317 67.3832C265.624 67.7773 265.081 68.3526 264.687 69.109C264.303 69.8548 264.106 70.755 264.095 71.8097ZM282.097 58.9776V53.2727H308.976V58.9776H298.956V86H292.117V58.9776H282.097ZM320.901 86.4794C318.376 86.4794 316.203 85.968 314.381 84.9453C312.57 83.9119 311.174 82.4524 310.194 80.5668C309.214 78.6705 308.724 76.4279 308.724 73.8391C308.724 71.3143 309.214 69.0984 310.194 67.1914C311.174 65.2844 312.554 63.7983 314.333 62.733C316.123 61.6676 318.221 61.1349 320.629 61.1349C322.248 61.1349 323.756 61.396 325.151 61.918C326.558 62.4293 327.783 63.2017 328.827 64.2351C329.882 65.2685 330.702 66.5682 331.288 68.1342C331.874 69.6896 332.167 71.5114 332.167 73.5994V75.4691H311.441V71.2504H325.759C325.759 70.2702 325.546 69.402 325.119 68.6456C324.693 67.8892 324.102 67.2979 323.346 66.8718C322.6 66.435 321.732 66.2166 320.741 66.2166C319.708 66.2166 318.791 66.4563 317.992 66.9357C317.204 67.4045 316.586 68.0384 316.139 68.8374C315.691 69.6257 315.462 70.5046 315.452 71.4741V75.4851C315.452 76.6996 315.675 77.7489 316.123 78.6332C316.581 79.5174 317.225 80.1992 318.056 80.6786C318.887 81.158 319.873 81.3977 321.013 81.3977C321.769 81.3977 322.461 81.2912 323.09 81.0781C323.719 80.8651 324.257 80.5455 324.704 80.1193C325.151 79.6932 325.492 79.1712 325.727 78.5533L332.023 78.9688C331.703 80.4815 331.048 81.8026 330.057 82.9318C329.077 84.0504 327.809 84.924 326.254 85.5526C324.709 86.1705 322.925 86.4794 320.901 86.4794ZM343.417 53.2727V86H336.609V53.2727H343.417ZM360.056 86.4794C357.531 86.4794 355.358 85.968 353.536 84.9453C351.725 83.9119 350.329 82.4524 349.349 80.5668C348.369 78.6705 347.879 76.4279 347.879 73.8391C347.879 71.3143 348.369 69.0984 349.349 67.1914C350.329 65.2844 351.709 63.7983 353.488 62.733C355.278 61.6676 357.377 61.1349 359.784 61.1349C361.404 61.1349 362.911 61.396 364.307 61.918C365.713 62.4293 366.938 63.2017 367.982 64.2351C369.037 65.2685 369.857 66.5682 370.443 68.1342C371.029 69.6896 371.322 71.5114 371.322 73.5994V75.4691H350.596V71.2504H364.914C364.914 70.2702 364.701 69.402 364.275 68.6456C363.849 67.8892 363.257 67.2979 362.501 66.8718C361.755 66.435 360.887 66.2166 359.896 66.2166C358.863 66.2166 357.947 66.4563 357.148 66.9357C356.359 67.4045 355.741 68.0384 355.294 68.8374C354.847 69.6257 354.617 70.5046 354.607 71.4741V75.4851C354.607 76.6996 354.831 77.7489 355.278 78.6332C355.736 79.5174 356.381 80.1992 357.212 80.6786C358.043 81.158 359.028 81.3977 360.168 81.3977C360.924 81.3977 361.617 81.2912 362.245 81.0781C362.874 80.8651 363.412 80.5455 363.859 80.1193C364.307 79.6932 364.648 79.1712 364.882 78.5533L371.178 78.9688C370.859 80.4815 370.203 81.8026 369.213 82.9318C368.233 84.0504 366.965 84.924 365.409 85.5526C363.865 86.1705 362.08 86.4794 360.056 86.4794ZM375.764 86V61.4545H382.252V65.7852H382.54C383.051 64.3469 383.904 63.2124 385.097 62.3814C386.29 61.5504 387.718 61.1349 389.38 61.1349C391.063 61.1349 392.496 61.5558 393.678 62.3974C394.861 63.2283 395.649 64.3576 396.043 65.7852H396.299C396.8 64.3789 397.705 63.255 399.016 62.4134C400.337 61.5611 401.897 61.1349 403.698 61.1349C405.988 61.1349 407.847 61.8647 409.275 63.3242C410.713 64.7731 411.432 66.8292 411.432 69.4925V86H404.641V70.8349C404.641 69.4712 404.278 68.4485 403.554 67.7667C402.829 67.0849 401.924 66.744 400.837 66.744C399.601 66.744 398.637 67.1381 397.945 67.9265C397.252 68.7042 396.906 69.7322 396.906 71.0107V86H390.306V70.6911C390.306 69.4872 389.96 68.5284 389.268 67.8146C388.586 67.1009 387.686 66.744 386.567 66.744C385.811 66.744 385.129 66.9357 384.522 67.3192C383.925 67.6921 383.451 68.2195 383.099 68.9013C382.748 69.5724 382.572 70.3608 382.572 71.2663V86H375.764ZM427.995 86.4794C425.471 86.4794 423.297 85.968 421.476 84.9453C419.665 83.9119 418.269 82.4524 417.289 80.5668C416.309 78.6705 415.819 76.4279 415.819 73.8391C415.819 71.3143 416.309 69.0984 417.289 67.1914C418.269 65.2844 419.649 63.7983 421.428 62.733C423.217 61.6676 425.316 61.1349 427.724 61.1349C429.343 61.1349 430.851 61.396 432.246 61.918C433.652 62.4293 434.878 63.2017 435.922 64.2351C436.976 65.2685 437.797 66.5682 438.383 68.1342C438.968 69.6896 439.261 71.5114 439.261 73.5994V75.4691H418.535V71.2504H432.853C432.853 70.2702 432.64 69.402 432.214 68.6456C431.788 67.8892 431.197 67.2979 430.44 66.8718C429.695 66.435 428.826 66.2166 427.836 66.2166C426.802 66.2166 425.886 66.4563 425.087 66.9357C424.299 67.4045 423.681 68.0384 423.233 68.8374C422.786 69.6257 422.557 70.5046 422.546 71.4741V75.4851C422.546 76.6996 422.77 77.7489 423.217 78.6332C423.676 79.5174 424.32 80.1992 425.151 80.6786C425.982 81.158 426.967 81.3977 428.107 81.3977C428.864 81.3977 429.556 81.2912 430.185 81.0781C430.813 80.8651 431.351 80.5455 431.799 80.1193C432.246 79.6932 432.587 79.1712 432.821 78.5533L439.118 78.9688C438.798 80.4815 438.143 81.8026 437.152 82.9318C436.172 84.0504 434.904 84.924 433.349 85.5526C431.804 86.1705 430.02 86.4794 427.995 86.4794ZM456.76 61.4545V66.5682H441.978V61.4545H456.76ZM445.334 55.5739H452.141V78.4574C452.141 79.0859 452.237 79.576 452.429 79.9276C452.621 80.2685 452.887 80.5082 453.228 80.6467C453.58 80.7852 453.984 80.8544 454.443 80.8544C454.762 80.8544 455.082 80.8278 455.401 80.7745C455.721 80.7106 455.966 80.6626 456.136 80.6307L457.207 85.6964C456.866 85.8029 456.387 85.9254 455.769 86.0639C455.151 86.2131 454.4 86.3036 453.516 86.3356C451.875 86.3995 450.437 86.1811 449.201 85.6804C447.976 85.1797 447.022 84.402 446.341 83.3473C445.659 82.2926 445.323 80.9609 445.334 79.3523V55.5739ZM461.194 86V61.4545H467.794V65.7372H468.05C468.497 64.2138 469.248 63.0632 470.303 62.2855C471.358 61.4972 472.572 61.103 473.946 61.103C474.287 61.103 474.655 61.1243 475.049 61.1669C475.443 61.2095 475.789 61.2681 476.088 61.3427V67.3832C475.768 67.2873 475.326 67.2021 474.761 67.1275C474.197 67.0529 473.68 67.0156 473.211 67.0156C472.21 67.0156 471.315 67.234 470.527 67.6708C469.749 68.0969 469.131 68.6935 468.673 69.4606C468.225 70.2276 468.002 71.1119 468.002 72.1133V86H461.194ZM484.557 95.2045C483.694 95.2045 482.884 95.1353 482.128 94.9968C481.382 94.869 480.764 94.7038 480.274 94.5014L481.809 89.4197C482.608 89.6648 483.327 89.7979 483.966 89.8192C484.616 89.8406 485.175 89.6914 485.644 89.3718C486.123 89.0522 486.512 88.5089 486.81 87.7418L487.21 86.7031L478.405 61.4545H485.564L490.646 79.4801H490.901L496.031 61.4545H503.238L493.698 88.6527C493.24 89.9737 492.616 91.1243 491.828 92.1044C491.05 93.0952 490.065 93.8569 488.872 94.3896C487.679 94.9329 486.24 95.2045 484.557 95.2045Z" fill="white"/>
</svg>
