<svg width="140" height="140" viewBox="0 0 140 140" fill="none" xmlns="http://www.w3.org/2000/svg">
<rect width="140" height="140" rx="20" fill="#173647"/>
<path d="M70.6168 117.232C44.3612 117.232 23 95.8728 23 69.6163C23 43.3598 44.3612 22.0005 70.6168 22.0005C96.8724 22.0005 118.234 43.3618 118.234 69.6173C118.234 95.8729 96.8724 117.232 70.6168 117.232Z" fill="#85EA2D"/>
<path d="M69.9995 24.7669C94.9818 24.7669 115.233 45.0178 115.233 70C115.233 94.9813 94.9818 115.233 69.9995 115.233C45.0182 115.233 24.7664 94.9813 24.7664 70C24.7664 45.0188 45.0182 24.7669 69.9995 24.7669ZM69.9995 20.0005C42.4297 20.0005 20 42.4302 20 70C20 97.5699 42.4297 120 69.9995 120C97.5693 120 120 97.5699 120 70C120 42.4302 97.5693 20.0005 69.9995 20.0005Z" fill="#173647"/>
<path d="M51.9194 53.3891C51.7655 55.1002 51.9764 56.8692 51.8625 58.5993C51.7276 60.3303 51.5157 62.0414 51.1699 63.7524C50.6891 66.1941 49.17 68.0401 47.0751 69.5782C51.1519 72.2318 51.6126 76.3455 51.8815 80.5182C52.0164 82.768 51.9584 85.0367 52.1893 87.2665C52.3622 88.9966 53.0348 89.4393 54.8238 89.4963C55.5544 89.5153 56.303 89.4963 57.1506 89.4963V94.8414C51.8635 95.7449 47.4989 94.2457 46.4215 89.7661C46.0747 88.132 45.8438 86.459 45.7678 84.7669C45.6519 82.9789 45.8438 81.1909 45.7099 79.4028C45.3251 74.4995 44.6904 72.8464 40 72.6156V66.5209C40.3458 66.444 40.6726 66.386 41.0184 66.348C43.595 66.2131 44.6904 65.4245 45.2481 62.8869C45.518 61.4647 45.6719 60.0225 45.7288 58.5613C45.9217 55.7738 45.8448 52.9284 46.3245 50.1599C46.9972 46.1801 49.4588 44.2572 53.5545 44.0263C54.7079 43.9683 55.8813 44.0263 57.2075 44.0263V49.4873C56.6498 49.5263 56.1691 49.6022 55.6694 49.6022C52.3432 49.4863 52.1693 50.6207 51.9194 53.3891ZM58.3219 66.0402H58.245C56.322 65.9442 54.6689 67.4434 54.572 69.3664C54.476 71.3083 55.9752 72.9624 57.8982 73.0573H58.129C60.033 73.1733 61.6661 71.7111 61.782 69.8081V69.6162C61.821 67.6743 60.2639 66.0792 58.3219 66.0402ZM70.3773 66.0402C68.5123 65.9822 66.9542 67.4434 66.8972 69.2894C66.8972 69.4053 66.8972 69.5013 66.9172 69.6162C66.9172 71.7121 68.3394 73.0583 70.4932 73.0583C72.6081 73.0583 73.9353 71.6741 73.9353 69.5013C73.9153 67.4054 72.5111 66.0212 70.3773 66.0402ZM82.7215 66.0402C80.7606 66.0012 79.1255 67.5594 79.0685 69.5203C79.0685 71.4812 80.6446 73.0573 82.6056 73.0573H82.6445C84.4136 73.3652 86.2016 71.6541 86.3175 69.5972C86.4125 67.6933 84.6824 66.0402 82.7215 66.0402ZM99.6602 66.328C97.4294 66.2321 96.314 65.4825 95.7573 63.3667C95.4105 62.0214 95.1996 60.6172 95.1227 59.2329C94.9688 56.6564 94.9878 54.0608 94.8148 51.4842C94.4111 45.3706 89.9895 43.2367 83.567 44.2932V49.6002C84.5855 49.6002 85.374 49.6002 86.1626 49.6192C87.5279 49.6382 88.5663 50.1579 88.7002 51.6771C88.8351 53.0613 88.8351 54.4646 88.9701 55.8688C89.2399 58.6573 89.3928 61.4827 89.8736 64.2322C90.2973 66.5009 91.8545 68.193 93.7954 69.5772C90.3933 71.865 89.3928 75.1332 89.2199 78.8062C89.124 81.3248 89.066 83.8624 88.9321 86.401C88.8162 88.7077 88.0096 89.4573 85.6829 89.5153C85.0292 89.5342 84.3946 89.5922 83.664 89.6312V95.0722C85.0292 95.0722 86.2785 95.1492 87.5279 95.0722C91.4117 94.8412 93.7574 92.9574 94.527 89.1885C94.8538 87.1116 95.0457 85.0168 95.1037 82.9209C95.2376 80.998 95.2196 79.056 95.4115 77.1531C95.6994 74.1727 97.0646 72.9424 100.045 72.7505C100.334 72.7115 100.603 72.6546 100.872 72.5586V66.463C100.372 66.405 100.025 66.348 99.6602 66.328Z" fill="#173647"/>
</svg>
