<svg width="140" height="140" viewBox="0 0 140 140" fill="none" xmlns="http://www.w3.org/2000/svg">
<rect width="140" height="140" rx="20" fill="#173647"/>
<path d="M70.6168 117.232C44.3612 117.232 23 95.8724 23 69.6158C23 43.3593 44.3612 22 70.6168 22C96.8724 22 118.234 43.3613 118.234 69.6168C118.234 95.8724 96.8724 117.232 70.6168 117.232Z" fill="#85EA2D"/>
<path d="M69.9995 24.7664C94.9818 24.7664 115.233 45.0173 115.233 69.9995C115.233 94.9808 94.9818 115.233 69.9995 115.233C45.0182 115.233 24.7664 94.9808 24.7664 69.9995C24.7664 45.0183 45.0182 24.7664 69.9995 24.7664ZM69.9995 20C42.4297 20 20 42.4297 20 69.9995C20 97.5694 42.4297 119.999 69.9995 119.999C97.5693 119.999 120 97.5694 120 69.9995C120 42.4297 97.5693 20 69.9995 20Z" fill="#173647"/>
<path d="M51.9194 53.3886C51.7655 55.0997 51.9764 56.8687 51.8625 58.5988C51.7276 60.3298 51.5157 62.0409 51.1699 63.7519C50.6891 66.1936 49.17 68.0396 47.0751 69.5777C51.1519 72.2313 51.6126 76.345 51.8815 80.5177C52.0164 82.7675 51.9584 85.0362 52.1893 87.266C52.3622 88.9961 53.0348 89.4388 54.8238 89.4958C55.5544 89.5148 56.303 89.4958 57.1506 89.4958V94.8409C51.8635 95.7444 47.4989 94.2452 46.4215 89.7656C46.0747 88.1315 45.8438 86.4585 45.7678 84.7664C45.6519 82.9784 45.8438 81.1904 45.7099 79.4023C45.3251 74.499 44.6904 72.8459 40 72.6151V66.5204C40.3458 66.4435 40.6726 66.3855 41.0184 66.3475C43.595 66.2126 44.6904 65.424 45.2481 62.8864C45.518 61.4642 45.6719 60.022 45.7288 58.5608C45.9217 55.7733 45.8448 52.9279 46.3245 50.1594C46.9972 46.1796 49.4588 44.2567 53.5545 44.0258C54.7079 43.9678 55.8813 44.0258 57.2075 44.0258V49.4868C56.6498 49.5258 56.1691 49.6017 55.6694 49.6017C52.3432 49.4858 52.1693 50.6202 51.9194 53.3886ZM58.3219 66.0397H58.245C56.322 65.9437 54.6689 67.4429 54.572 69.3659C54.476 71.3078 55.9752 72.9619 57.8982 73.0568H58.129C60.033 73.1728 61.6661 71.7106 61.782 69.8076V69.6157C61.821 67.6738 60.2639 66.0787 58.3219 66.0397ZM70.3773 66.0397C68.5123 65.9817 66.9542 67.4429 66.8972 69.2889C66.8972 69.4048 66.8972 69.5008 66.9172 69.6157C66.9172 71.7116 68.3394 73.0578 70.4932 73.0578C72.6081 73.0578 73.9353 71.6736 73.9353 69.5008C73.9153 67.4049 72.5111 66.0207 70.3773 66.0397ZM82.7215 66.0397C80.7606 66.0007 79.1255 67.5589 79.0685 69.5198C79.0685 71.4807 80.6446 73.0568 82.6056 73.0568H82.6445C84.4136 73.3647 86.2016 71.6536 86.3175 69.5967C86.4125 67.6928 84.6824 66.0397 82.7215 66.0397ZM99.6602 66.3275C97.4294 66.2316 96.314 65.482 95.7573 63.3662C95.4105 62.0209 95.1996 60.6167 95.1227 59.2324C94.9688 56.6559 94.9878 54.0603 94.8148 51.4837C94.4111 45.3701 89.9895 43.2362 83.567 44.2927V49.5997C84.5855 49.5997 85.374 49.5997 86.1626 49.6187C87.5279 49.6377 88.5663 50.1574 88.7002 51.6766C88.8351 53.0608 88.8351 54.4641 88.9701 55.8683C89.2399 58.6568 89.3928 61.4822 89.8736 64.2317C90.2973 66.5004 91.8545 68.1925 93.7954 69.5767C90.3933 71.8645 89.3928 75.1327 89.2199 78.8057C89.124 81.3243 89.066 83.8619 88.9321 86.4005C88.8162 88.7072 88.0096 89.4568 85.6829 89.5148C85.0292 89.5338 84.3946 89.5917 83.664 89.6307V95.0717C85.0292 95.0717 86.2785 95.1487 87.5279 95.0717C91.4117 94.8408 93.7574 92.9569 94.527 89.188C94.8538 87.1111 95.0457 85.0163 95.1037 82.9204C95.2376 80.9975 95.2196 79.0555 95.4115 77.1526C95.6994 74.1722 97.0646 72.9419 100.045 72.75C100.334 72.711 100.603 72.6541 100.872 72.5581V66.4625C100.372 66.4045 100.025 66.3475 99.6602 66.3275Z" fill="#173647"/>
</svg>
