<svg width="315" height="140" viewBox="0 0 315 140" fill="none" xmlns="http://www.w3.org/2000/svg">
<rect width="315" height="140" rx="20" fill="#C74634"/>
<path d="M51.5287 101.529C34.0127 101.529 20 87.5158 20 69.9999C20 52.484 34.0127 38.4712 51.5287 38.4712H88.4713C105.987 38.4712 120 52.484 120 69.9999C120 87.5158 105.987 101.529 88.4713 101.529H51.5287ZM87.5159 90.3821C98.9809 90.3821 107.898 81.1464 107.898 69.9999C107.898 58.5349 98.6624 49.6177 87.5159 49.6177H52.4841C41.0191 49.6177 32.1019 58.8534 32.1019 69.9999C32.1019 81.1464 41.3376 90.3821 52.4841 90.3821H87.5159Z" fill="white"/>
<path d="M182.919 69.6364C182.919 73.2053 182.243 76.2415 180.89 78.745C179.547 81.2486 177.715 83.1609 175.392 84.4819C173.081 85.7923 170.481 86.4474 167.594 86.4474C164.686 86.4474 162.076 85.7869 159.764 84.4659C157.452 83.1449 155.625 81.2326 154.283 78.729C152.94 76.2255 152.269 73.1946 152.269 69.6364C152.269 66.0675 152.94 63.0312 154.283 60.5277C155.625 58.0241 157.452 56.1172 159.764 54.8068C162.076 53.4858 164.686 52.8253 167.594 52.8253C170.481 52.8253 173.081 53.4858 175.392 54.8068C177.715 56.1172 179.547 58.0241 180.89 60.5277C182.243 63.0312 182.919 66.0675 182.919 69.6364ZM175.904 69.6364C175.904 67.3246 175.558 65.375 174.865 63.7876C174.183 62.2003 173.219 60.9964 171.973 60.1761C170.726 59.3558 169.267 58.9457 167.594 58.9457C165.922 58.9457 164.462 59.3558 163.216 60.1761C161.969 60.9964 161 62.2003 160.307 63.7876C159.625 65.375 159.284 67.3246 159.284 69.6364C159.284 71.9482 159.625 73.8977 160.307 75.4851C161 77.0724 161.969 78.2763 163.216 79.0966C164.462 79.9169 165.922 80.3271 167.594 80.3271C169.267 80.3271 170.726 79.9169 171.973 79.0966C173.219 78.2763 174.183 77.0724 174.865 75.4851C175.558 73.8977 175.904 71.9482 175.904 69.6364ZM187.917 86V61.4545H194.517V65.7372H194.772C195.22 64.2138 195.971 63.0632 197.025 62.2855C198.08 61.4972 199.295 61.103 200.669 61.103C201.01 61.103 201.377 61.1243 201.772 61.1669C202.166 61.2095 202.512 61.2681 202.81 61.3427V67.3832C202.491 67.2873 202.049 67.2021 201.484 67.1275C200.919 67.0529 200.403 67.0156 199.934 67.0156C198.932 67.0156 198.038 67.234 197.249 67.6708C196.472 68.0969 195.854 68.6935 195.396 69.4606C194.948 70.2276 194.724 71.1119 194.724 72.1133V86H187.917ZM212.626 86.4634C211.06 86.4634 209.664 86.1918 208.439 85.6484C207.214 85.0945 206.245 84.2795 205.531 83.2035C204.828 82.1168 204.476 80.7638 204.476 79.1445C204.476 77.7809 204.727 76.6357 205.227 75.7088C205.728 74.782 206.41 74.0362 207.273 73.4716C208.136 72.907 209.116 72.4808 210.213 72.1932C211.321 71.9055 212.482 71.7031 213.697 71.5859C215.124 71.4368 216.275 71.2983 217.148 71.1705C218.022 71.032 218.656 70.8295 219.05 70.5632C219.444 70.2969 219.641 69.9027 219.641 69.3807V69.2848C219.641 68.2727 219.322 67.4897 218.683 66.9357C218.054 66.3817 217.159 66.1048 215.998 66.1048C214.773 66.1048 213.798 66.3764 213.074 66.9197C212.349 67.4524 211.87 68.1236 211.635 68.9332L205.339 68.4219C205.659 66.9304 206.287 65.6413 207.225 64.5547C208.162 63.4574 209.371 62.6158 210.852 62.0298C212.344 61.4332 214.07 61.1349 216.03 61.1349C217.393 61.1349 218.699 61.2947 219.945 61.6143C221.202 61.9339 222.315 62.4293 223.285 63.1005C224.265 63.7717 225.037 64.6346 225.602 65.6893C226.167 66.7333 226.449 67.9851 226.449 69.4446V86H219.993V82.5962H219.801C219.407 83.3633 218.88 84.0398 218.219 84.6257C217.559 85.201 216.765 85.6538 215.838 85.984C214.911 86.3036 213.841 86.4634 212.626 86.4634ZM214.576 81.7653C215.577 81.7653 216.461 81.5682 217.228 81.174C217.995 80.7692 218.597 80.2259 219.034 79.544C219.471 78.8622 219.689 78.0898 219.689 77.2269V74.6222C219.476 74.7607 219.183 74.8885 218.81 75.0057C218.448 75.1122 218.038 75.2134 217.58 75.3093C217.122 75.3945 216.664 75.4744 216.206 75.549C215.748 75.6129 215.332 75.6715 214.959 75.7248C214.16 75.842 213.462 76.0284 212.866 76.2841C212.269 76.5398 211.806 76.886 211.475 77.3228C211.145 77.7489 210.98 78.2816 210.98 78.9208C210.98 79.8477 211.316 80.5561 211.987 81.0462C212.669 81.5256 213.532 81.7653 214.576 81.7653ZM242.82 86.4794C240.306 86.4794 238.144 85.9467 236.333 84.8814C234.532 83.8054 233.147 82.3139 232.178 80.407C231.219 78.5 230.74 76.3054 230.74 73.8232C230.74 71.3089 231.224 69.1037 232.194 67.2074C233.174 65.3004 234.564 63.8143 236.365 62.7489C238.165 61.6729 240.306 61.1349 242.789 61.1349C244.93 61.1349 246.805 61.5238 248.414 62.3015C250.022 63.0792 251.295 64.1712 252.233 65.5774C253.17 66.9837 253.687 68.6349 253.783 70.5312H247.359C247.178 69.3061 246.698 68.3207 245.921 67.5749C245.154 66.8185 244.147 66.4403 242.9 66.4403C241.846 66.4403 240.924 66.728 240.136 67.3033C239.358 67.8679 238.751 68.6935 238.314 69.7802C237.877 70.8668 237.659 72.1825 237.659 73.7273C237.659 75.2933 237.872 76.625 238.298 77.7223C238.735 78.8196 239.347 79.6559 240.136 80.2312C240.924 80.8065 241.846 81.0941 242.9 81.0941C243.678 81.0941 244.376 80.9343 244.994 80.6147C245.622 80.2951 246.139 79.8317 246.544 79.2244C246.959 78.6065 247.231 77.8661 247.359 77.0032H253.783C253.676 78.8782 253.165 80.5295 252.249 81.957C251.343 83.3739 250.091 84.4819 248.493 85.2809C246.895 86.0799 245.004 86.4794 242.82 86.4794ZM264.949 53.2727V86H258.141V53.2727H264.949ZM281.588 86.4794C279.063 86.4794 276.89 85.968 275.068 84.9453C273.257 83.9119 271.862 82.4524 270.882 80.5668C269.901 78.6705 269.411 76.4279 269.411 73.8391C269.411 71.3143 269.901 69.0984 270.882 67.1914C271.862 65.2844 273.241 63.7983 275.02 62.733C276.81 61.6676 278.909 61.1349 281.317 61.1349C282.936 61.1349 284.443 61.396 285.839 61.918C287.245 62.4293 288.47 63.2017 289.514 64.2351C290.569 65.2685 291.389 66.5682 291.975 68.1342C292.561 69.6896 292.854 71.5114 292.854 73.5994V75.4691H272.128V71.2504H286.446C286.446 70.2702 286.233 69.402 285.807 68.6456C285.381 67.8892 284.79 67.2979 284.033 66.8718C283.287 66.435 282.419 66.2166 281.428 66.2166C280.395 66.2166 279.479 66.4563 278.68 66.9357C277.892 67.4045 277.274 68.0384 276.826 68.8374C276.379 69.6257 276.15 70.5046 276.139 71.4741V75.4851C276.139 76.6996 276.363 77.7489 276.81 78.6332C277.268 79.5174 277.913 80.1992 278.744 80.6786C279.575 81.158 280.56 81.3977 281.7 81.3977C282.456 81.3977 283.149 81.2912 283.778 81.0781C284.406 80.8651 284.944 80.5455 285.392 80.1193C285.839 79.6932 286.18 79.1712 286.414 78.5533L292.71 78.9688C292.391 80.4815 291.736 81.8026 290.745 82.9318C289.765 84.0504 288.497 84.924 286.942 85.5526C285.397 86.1705 283.612 86.4794 281.588 86.4794Z" fill="white"/>
</svg>
