<svg width="427" height="140" viewBox="0 0 427 140" fill="none" xmlns="http://www.w3.org/2000/svg">
<rect width="427" height="140" rx="20" fill="#FF7F00"/>
<path d="M80 10C63.9734 10 48.9059 16.2409 37.5734 27.5734C26.2409 38.9059 20 53.9734 20 70C20 86.0266 26.2409 101.094 37.5734 112.427C48.9059 123.759 63.9734 130 80 130C96.0266 130 111.094 123.759 122.427 112.427C133.759 101.094 140 86.0266 140 70C140 53.9734 133.759 38.9059 122.427 27.5734C111.094 16.2409 96.0266 10 80 10Z" fill="#FF7F00"/>
<path d="M136.9 70C136.9 101.425 111.425 126.9 80 126.9C48.575 126.9 23.0998 101.425 23.0998 70C23.0998 38.575 48.575 13.1003 80 13.1003C111.425 13.1003 136.9 38.575 136.9 70Z" fill="white"/>
<path d="M95.4073 44.7166L97.8191 36.0273C100.287 35.807 102.222 33.737 102.222 31.2119C102.222 28.54 100.056 26.3744 97.3841 26.3744C94.7122 26.3744 92.5466 28.54 92.5466 31.2119C92.5466 32.972 93.4902 34.5072 94.895 35.3542L92.5278 43.8831C85.7605 42.1628 80.0474 42.2941 80.0474 42.2941L78.9889 42.7675V108.801L80.0474 109.154C86.4289 109.154 114.349 89.8731 114.417 69.1839C114.417 54.3602 104.563 47.7034 95.4073 44.7166ZM88.6859 87.25C83.2405 78.5514 85.5425 58.3042 99.7686 55.4102C103.669 54.7853 108.445 57.348 109.851 63.0409C113.405 75.1188 92.5006 92.0308 88.6859 87.25ZM97.2247 68.6163C96.0562 68.6163 94.9356 69.0804 94.1093 69.9067C93.2831 70.7329 92.8189 71.8536 92.8189 73.022C92.8189 73.6007 92.9329 74.1736 93.1543 74.7082C93.3758 75.2427 93.7003 75.7284 94.1095 76.1376C94.5187 76.5467 95.0044 76.8712 95.539 77.0926C96.0736 77.314 96.6465 77.4279 97.2252 77.4278C97.8037 77.4278 98.3766 77.3137 98.9111 77.0923C99.4457 76.8708 99.9313 76.5462 100.34 76.1371C100.749 75.7279 101.074 75.2422 101.295 74.7076C101.517 74.1731 101.631 73.6001 101.63 73.0216C101.63 71.8532 101.166 70.7327 100.34 69.9065C99.5136 69.0804 98.3931 68.6163 97.2247 68.6163ZM98.5419 72.6813C98.3957 72.6813 98.251 72.6525 98.1159 72.5965C97.9809 72.5406 97.8582 72.4586 97.7548 72.3552C97.6515 72.2519 97.5695 72.1292 97.5136 71.9942C97.4576 71.8591 97.4288 71.7144 97.4288 71.5682C97.4288 71.422 97.4576 71.2773 97.5136 71.1423C97.5695 71.0072 97.6515 70.8845 97.7548 70.7812C97.8582 70.6778 97.9809 70.5958 98.1159 70.5399C98.251 70.484 98.3957 70.4552 98.5419 70.4552C98.8371 70.4552 99.1202 70.5724 99.3289 70.7812C99.5377 70.9899 99.6549 71.273 99.6549 71.5682C99.6549 71.8634 99.5377 72.1465 99.3289 72.3552C99.1202 72.564 98.8371 72.6813 98.5419 72.6813Z" fill="#E57200"/>
<path d="M67.5177 44.0823L65.1631 35.2225C66.5103 34.3637 67.4066 32.86 67.4066 31.1439C67.4066 28.472 65.2409 26.3064 62.5691 26.3064C59.8977 26.3064 57.732 28.472 57.732 31.1439C57.732 33.8073 59.8845 35.9669 62.5447 35.98L64.9063 44.8647C55.7145 47.9162 45.7414 54.5875 45.7414 69.1834C45.9458 90.2819 73.6658 109.152 80.0473 109.152V42.2931C80.0473 42.2931 74.3038 42.2641 67.5177 44.0823ZM72.3903 87.2495C68.5756 92.0308 47.6708 75.1183 51.2244 63.0409C52.6316 57.348 57.4072 54.7853 61.3077 55.4097C75.5342 58.3042 77.8358 78.5514 72.3903 87.25V87.2495ZM63.5684 68.7527C62.4 68.7527 61.2795 69.2168 60.4532 70.0429C59.627 70.8691 59.1628 71.9896 59.1627 73.158C59.1626 73.7366 59.2765 74.3096 59.4979 74.8442C59.7194 75.3789 60.0439 75.8646 60.4531 76.2738C60.8623 76.683 61.348 77.0075 61.8826 77.2289C62.4173 77.4503 62.9903 77.5643 63.5689 77.5642C64.1475 77.5642 64.7204 77.4501 65.2549 77.2287C65.7894 77.0072 66.2751 76.6826 66.6841 76.2735C67.0932 75.8643 67.4177 75.3786 67.639 74.844C67.8604 74.3095 67.9743 73.7365 67.9742 73.158C67.9742 71.9895 67.51 70.8688 66.6838 70.0426C65.8576 69.2164 64.7369 68.7522 63.5684 68.7522V68.7527ZM62.2513 72.8172C61.9561 72.8172 61.6731 72.6999 61.4644 72.4912C61.2557 72.2826 61.1384 71.9995 61.1384 71.7044C61.1384 71.4092 61.2557 71.1262 61.4644 70.9175C61.6731 70.7088 61.9561 70.5916 62.2513 70.5916C62.5464 70.5916 62.8294 70.7088 63.0381 70.9175C63.2468 71.1262 63.3641 71.4092 63.3641 71.7044C63.3641 71.9995 63.2468 72.2826 63.0381 72.4912C62.8294 72.6999 62.5464 72.8172 62.2513 72.8172Z" fill="#FF7F00"/>
<path d="M172.844 86V53.2727H185.756C188.239 53.2727 190.353 53.7468 192.1 54.695C193.848 55.6325 195.179 56.9375 196.096 58.6101C197.022 60.272 197.486 62.1896 197.486 64.3629C197.486 66.5362 197.017 68.4538 196.08 70.1158C195.142 71.7777 193.784 73.0721 192.005 73.9989C190.236 74.9258 188.095 75.3892 185.581 75.3892H177.351V69.8441H184.462C185.794 69.8441 186.891 69.6151 187.754 69.157C188.627 68.6882 189.277 68.0437 189.703 67.2234C190.14 66.3924 190.359 65.4389 190.359 64.3629C190.359 63.2763 190.14 62.3281 189.703 61.5185C189.277 60.6982 188.627 60.0643 187.754 59.6168C186.88 59.1587 185.772 58.9297 184.43 58.9297H179.764V86H172.844ZM208.66 53.2727V86H201.852V53.2727H208.66ZM221.112 86.4634C219.546 86.4634 218.151 86.1918 216.926 85.6484C215.7 85.0945 214.731 84.2795 214.017 83.2035C213.314 82.1168 212.963 80.7638 212.963 79.1445C212.963 77.7809 213.213 76.6357 213.714 75.7088C214.214 74.782 214.896 74.0362 215.759 73.4716C216.622 72.907 217.602 72.4808 218.699 72.1932C219.807 71.9055 220.969 71.7031 222.183 71.5859C223.611 71.4368 224.761 71.2983 225.635 71.1705C226.508 71.032 227.142 70.8295 227.536 70.5632C227.931 70.2969 228.128 69.9027 228.128 69.3807V69.2848C228.128 68.2727 227.808 67.4897 227.169 66.9357C226.54 66.3817 225.645 66.1048 224.484 66.1048C223.259 66.1048 222.284 66.3764 221.56 66.9197C220.835 67.4524 220.356 68.1236 220.122 68.9332L213.825 68.4219C214.145 66.9304 214.774 65.6413 215.711 64.5547C216.649 63.4574 217.858 62.6158 219.339 62.0298C220.83 61.4332 222.556 61.1349 224.516 61.1349C225.88 61.1349 227.185 61.2947 228.431 61.6143C229.688 61.9339 230.802 62.4293 231.771 63.1005C232.751 63.7717 233.524 64.6346 234.088 65.6893C234.653 66.7333 234.935 67.9851 234.935 69.4446V86H228.479V82.5962H228.287C227.893 83.3633 227.366 84.0398 226.705 84.6257C226.045 85.201 225.251 85.6538 224.324 85.984C223.398 86.3036 222.327 86.4634 221.112 86.4634ZM223.062 81.7653C224.063 81.7653 224.948 81.5682 225.715 81.174C226.482 80.7692 227.084 80.2259 227.52 79.544C227.957 78.8622 228.176 78.0898 228.176 77.2269V74.6222C227.963 74.7607 227.67 74.8885 227.297 75.0057C226.934 75.1122 226.524 75.2134 226.066 75.3093C225.608 75.3945 225.15 75.4744 224.692 75.549C224.234 75.6129 223.818 75.6715 223.445 75.7248C222.646 75.842 221.949 76.0284 221.352 76.2841C220.756 76.5398 220.292 76.886 219.962 77.3228C219.632 77.7489 219.466 78.2816 219.466 78.9208C219.466 79.8477 219.802 80.5561 220.473 81.0462C221.155 81.5256 222.018 81.7653 223.062 81.7653ZM253.272 61.4545V66.5682H238.491V61.4545H253.272ZM241.847 55.5739H248.654V78.4574C248.654 79.0859 248.75 79.576 248.942 79.9276C249.134 80.2685 249.4 80.5082 249.741 80.6467C250.092 80.7852 250.497 80.8544 250.955 80.8544C251.275 80.8544 251.594 80.8278 251.914 80.7745C252.234 80.7106 252.479 80.6626 252.649 80.6307L253.72 85.6964C253.379 85.8029 252.9 85.9254 252.282 86.0639C251.664 86.2131 250.913 86.3036 250.028 86.3356C248.388 86.3995 246.95 86.1811 245.714 85.6804C244.489 85.1797 243.535 84.402 242.853 83.3473C242.172 82.2926 241.836 80.9609 241.847 79.3523V55.5739ZM270.906 61.4545V66.5682H255.757V61.4545H270.906ZM259.225 86V59.6808C259.225 57.9016 259.571 56.4261 260.264 55.2543C260.967 54.0824 261.926 53.2035 263.14 52.6175C264.355 52.0316 265.734 51.7386 267.279 51.7386C268.323 51.7386 269.276 51.8185 270.139 51.9783C271.013 52.1381 271.663 52.282 272.089 52.4098L270.874 57.5234C270.608 57.4382 270.278 57.3583 269.884 57.2837C269.5 57.2092 269.106 57.1719 268.701 57.1719C267.7 57.1719 267.002 57.4062 266.608 57.875C266.214 58.3331 266.017 58.9776 266.017 59.8086V86H259.225ZM285.277 86.4794C282.794 86.4794 280.648 85.9521 278.837 84.8974C277.036 83.832 275.646 82.3512 274.666 80.4549C273.686 78.5479 273.196 76.3374 273.196 73.8232C273.196 71.2876 273.686 69.0717 274.666 67.1754C275.646 65.2685 277.036 63.7876 278.837 62.733C280.648 61.6676 282.794 61.1349 285.277 61.1349C287.759 61.1349 289.9 61.6676 291.701 62.733C293.512 63.7876 294.907 65.2685 295.887 67.1754C296.867 69.0717 297.358 71.2876 297.358 73.8232C297.358 76.3374 296.867 78.5479 295.887 80.4549C294.907 82.3512 293.512 83.832 291.701 84.8974C289.9 85.9521 287.759 86.4794 285.277 86.4794ZM285.309 81.206C286.438 81.206 287.381 80.8864 288.137 80.2472C288.893 79.5973 289.463 78.7131 289.847 77.5945C290.241 76.4759 290.438 75.2028 290.438 73.7752C290.438 72.3477 290.241 71.0746 289.847 69.956C289.463 68.8374 288.893 67.9531 288.137 67.3033C287.381 66.6534 286.438 66.3285 285.309 66.3285C284.169 66.3285 283.21 66.6534 282.432 67.3033C281.665 67.9531 281.084 68.8374 280.69 69.956C280.307 71.0746 280.115 72.3477 280.115 73.7752C280.115 75.2028 280.307 76.4759 280.69 77.5945C281.084 78.7131 281.665 79.5973 282.432 80.2472C283.21 80.8864 284.169 81.206 285.309 81.206ZM301.784 86V61.4545H308.384V65.7372H308.639C309.087 64.2138 309.838 63.0632 310.893 62.2855C311.947 61.4972 313.162 61.103 314.536 61.103C314.877 61.103 315.245 61.1243 315.639 61.1669C316.033 61.2095 316.379 61.2681 316.677 61.3427V67.3832C316.358 67.2873 315.916 67.2021 315.351 67.1275C314.786 67.0529 314.27 67.0156 313.801 67.0156C312.8 67.0156 311.905 67.234 311.116 67.6708C310.339 68.0969 309.721 68.6935 309.263 69.4606C308.815 70.2276 308.592 71.1119 308.592 72.1133V86H301.784ZM320.197 86V61.4545H326.685V65.7852H326.973C327.484 64.3469 328.336 63.2124 329.529 62.3814C330.723 61.5504 332.15 61.1349 333.812 61.1349C335.495 61.1349 336.928 61.5558 338.111 62.3974C339.293 63.2283 340.082 64.3576 340.476 65.7852H340.732C341.232 64.3789 342.138 63.255 343.448 62.4134C344.769 61.5611 346.33 61.1349 348.13 61.1349C350.421 61.1349 352.28 61.8647 353.707 63.3242C355.146 64.7731 355.865 66.8292 355.865 69.4925V86H349.073V70.8349C349.073 69.4712 348.711 68.4485 347.987 67.7667C347.262 67.0849 346.357 66.744 345.27 66.744C344.034 66.744 343.07 67.1381 342.377 67.9265C341.685 68.7042 341.339 69.7322 341.339 71.0107V86H334.739V70.6911C334.739 69.4872 334.393 68.5284 333.7 67.8146C333.018 67.1009 332.118 66.744 331 66.744C330.243 66.744 329.561 66.9357 328.954 67.3192C328.358 67.6921 327.884 68.2195 327.532 68.9013C327.18 69.5724 327.005 70.3608 327.005 71.2663V86H320.197ZM368.289 53.2727V86H361.37V53.2727H368.289ZM404.057 69.6364C404.057 73.2053 403.38 76.2415 402.027 78.745C400.685 81.2486 398.853 83.1609 396.53 84.4819C394.218 85.7923 391.619 86.4474 388.732 86.4474C385.823 86.4474 383.213 85.7869 380.902 84.4659C378.59 83.1449 376.763 81.2326 375.42 78.729C374.078 76.2255 373.407 73.1946 373.407 69.6364C373.407 66.0675 374.078 63.0312 375.42 60.5277C376.763 58.0241 378.59 56.1172 380.902 54.8068C383.213 53.4858 385.823 52.8253 388.732 52.8253C391.619 52.8253 394.218 53.4858 396.53 54.8068C398.853 56.1172 400.685 58.0241 402.027 60.5277C403.38 63.0312 404.057 66.0675 404.057 69.6364ZM397.041 69.6364C397.041 67.3246 396.695 65.375 396.003 63.7876C395.321 62.2003 394.357 60.9964 393.11 60.1761C391.864 59.3558 390.404 58.9457 388.732 58.9457C387.059 58.9457 385.6 59.3558 384.353 60.1761C383.107 60.9964 382.137 62.2003 381.445 63.7876C380.763 65.375 380.422 67.3246 380.422 69.6364C380.422 71.9482 380.763 73.8977 381.445 75.4851C382.137 77.0724 383.107 78.2763 384.353 79.0966C385.6 79.9169 387.059 80.3271 388.732 80.3271C390.404 80.3271 391.864 79.9169 393.11 79.0966C394.357 78.2763 395.321 77.0724 396.003 75.4851C396.695 73.8977 397.041 71.9482 397.041 69.6364Z" fill="white"/>
</svg>
