<svg width="140" height="140" viewBox="0 0 140 140" fill="none" xmlns="http://www.w3.org/2000/svg">
<rect width="140" height="140" rx="20" fill="#FF7F00"/>
<path d="M70 10C53.9734 10 38.9059 16.2409 27.5734 27.5734C16.2409 38.9059 10 53.9734 10 70C10 86.0266 16.2409 101.094 27.5734 112.427C38.9059 123.759 53.9734 130 70 130C86.0266 130 101.094 123.759 112.427 112.427C123.759 101.094 130 86.0266 130 70C130 53.9734 123.759 38.9059 112.427 27.5734C101.094 16.2409 86.0266 10 70 10Z" fill="#FF7F00"/>
<path d="M126.9 70C126.9 101.425 101.425 126.9 70 126.9C38.575 126.9 13.0998 101.425 13.0998 70C13.0998 38.575 38.575 13.1003 70 13.1003C101.425 13.1003 126.9 38.575 126.9 70Z" fill="white"/>
<path d="M85.4073 44.7166L87.8191 36.0273C90.2866 35.807 92.2216 33.737 92.2216 31.2119C92.2216 28.54 90.0559 26.3744 87.3841 26.3744C84.7122 26.3744 82.5466 28.54 82.5466 31.2119C82.5466 32.972 83.4902 34.5072 84.895 35.3542L82.5278 43.8831C75.7605 42.1628 70.0474 42.2941 70.0474 42.2941L68.9889 42.7675V108.801L70.0474 109.154C76.4289 109.154 104.349 89.8731 104.417 69.1839C104.417 54.3602 94.563 47.7034 85.4073 44.7166ZM78.6859 87.25C73.2405 78.5514 75.5425 58.3042 89.7686 55.4102C93.6686 54.7853 98.4447 57.348 99.8514 63.0409C103.405 75.1188 82.5006 92.0308 78.6859 87.25ZM87.2247 68.6163C86.0562 68.6163 84.9356 69.0804 84.1093 69.9067C83.2831 70.7329 82.8189 71.8536 82.8189 73.022C82.8189 73.6007 82.9329 74.1736 83.1543 74.7082C83.3758 75.2427 83.7003 75.7284 84.1095 76.1376C84.5187 76.5467 85.0044 76.8712 85.539 77.0926C86.0736 77.314 86.6465 77.4279 87.2252 77.4278C87.8037 77.4278 88.3766 77.3137 88.9111 77.0923C89.4457 76.8708 89.9313 76.5462 90.3404 76.1371C90.7495 75.7279 91.0739 75.2422 91.2953 74.7076C91.5166 74.1731 91.6305 73.6001 91.6305 73.0216C91.6303 71.8532 91.1661 70.7327 90.3399 69.9065C89.5136 69.0804 88.3931 68.6163 87.2247 68.6163ZM88.5419 72.6813C88.3957 72.6813 88.251 72.6525 88.1159 72.5965C87.9809 72.5406 87.8582 72.4586 87.7548 72.3552C87.6515 72.2519 87.5695 72.1292 87.5136 71.9942C87.4576 71.8591 87.4288 71.7144 87.4288 71.5682C87.4288 71.422 87.4576 71.2773 87.5136 71.1423C87.5695 71.0072 87.6515 70.8845 87.7548 70.7812C87.8582 70.6778 87.9809 70.5958 88.1159 70.5399C88.251 70.484 88.3957 70.4552 88.5419 70.4552C88.8371 70.4552 89.1202 70.5724 89.3289 70.7812C89.5377 70.9899 89.6549 71.273 89.6549 71.5682C89.6549 71.8634 89.5377 72.1465 89.3289 72.3552C89.1202 72.564 88.8371 72.6813 88.5419 72.6813Z" fill="#E57200"/>
<path d="M57.5177 44.0823L55.1631 35.2225C56.5103 34.3637 57.4066 32.86 57.4066 31.1439C57.4066 28.472 55.2409 26.3064 52.5691 26.3064C49.8977 26.3064 47.732 28.472 47.732 31.1439C47.732 33.8073 49.8845 35.9669 52.5447 35.98L54.9063 44.8647C45.7145 47.9162 35.7414 54.5875 35.7414 69.1834C35.9458 90.2819 63.6658 109.152 70.0473 109.152V42.2931C70.0473 42.2931 64.3038 42.2641 57.5177 44.0823ZM62.3903 87.2495C58.5756 92.0308 37.6708 75.1183 41.2244 63.0409C42.6316 57.348 47.4072 54.7853 51.3077 55.4097C65.5342 58.3042 67.8358 78.5514 62.3903 87.25V87.2495ZM53.5684 68.7527C52.4 68.7527 51.2795 69.2168 50.4532 70.0429C49.627 70.8691 49.1628 71.9896 49.1627 73.158C49.1626 73.7366 49.2765 74.3096 49.4979 74.8442C49.7194 75.3789 50.0439 75.8646 50.4531 76.2738C50.8623 76.683 51.348 77.0075 51.8826 77.2289C52.4173 77.4503 52.9903 77.5643 53.5689 77.5642C54.1475 77.5642 54.7204 77.4501 55.2549 77.2287C55.7894 77.0072 56.2751 76.6826 56.6841 76.2735C57.0932 75.8643 57.4177 75.3786 57.639 74.844C57.8604 74.3095 57.9743 73.7365 57.9742 73.158C57.9742 71.9895 57.51 70.8688 56.6838 70.0426C55.8576 69.2164 54.7369 68.7522 53.5684 68.7522V68.7527ZM52.2513 72.8172C51.9561 72.8172 51.6731 72.6999 51.4644 72.4912C51.2557 72.2826 51.1384 71.9995 51.1384 71.7044C51.1384 71.4092 51.2557 71.1262 51.4644 70.9175C51.6731 70.7088 51.9561 70.5916 52.2513 70.5916C52.5464 70.5916 52.8294 70.7088 53.0381 70.9175C53.2468 71.1262 53.3641 71.4092 53.3641 71.7044C53.3641 71.9995 53.2468 72.2826 53.0381 72.4912C52.8294 72.6999 52.5464 72.8172 52.2513 72.8172Z" fill="#FF7F00"/>
</svg>
