<svg width="140" height="140" viewBox="0 0 140 140" fill="none" xmlns="http://www.w3.org/2000/svg">
<rect width="140" height="140" rx="20" fill="#336791"/>
<path d="M118.108 79.9022C117.526 78.1365 116.004 76.9067 114.034 76.6116C113.105 76.4726 112.042 76.5318 110.783 76.792C108.589 77.2459 106.962 77.4187 105.774 77.4521C110.257 69.8618 113.903 61.2063 116.002 53.0585C119.395 39.8837 117.582 33.8818 115.463 31.167C109.855 23.9812 101.672 20.121 91.8014 20.0029C86.5356 19.9383 81.913 20.9808 79.5015 21.7306C77.2562 21.3333 74.8421 21.1115 72.309 21.0705C67.5606 20.9945 63.3652 22.0325 59.7804 24.1658C57.7957 23.4928 54.6104 22.5441 50.932 21.9387C42.2806 20.5144 35.3078 21.6242 30.2076 25.2372C24.0317 29.6117 21.1688 37.2122 21.6982 47.8275C21.8664 51.1979 23.7465 61.4524 26.7068 71.1775C28.4082 76.7673 30.2224 81.4092 32.0991 84.9755C34.7605 90.0325 37.6084 93.0105 40.8054 94.08C42.5972 94.6785 45.853 95.0978 49.2773 92.238C49.7113 92.7651 50.2904 93.2889 51.0589 93.7754C52.0349 94.3926 53.2284 94.8969 54.4203 95.1958C58.7157 96.2725 62.7391 96.0033 66.1718 94.494C66.193 95.1062 66.2092 95.6911 66.2229 96.1962C66.2456 97.0154 66.2683 97.8187 66.2983 98.5699C66.5016 103.649 66.8463 107.599 67.8674 110.362C67.9235 110.514 67.9988 110.746 68.0784 110.992C68.5878 112.556 69.4396 115.174 71.6068 117.224C73.8509 119.349 76.5654 120 79.0515 120C80.2984 120 81.488 119.836 82.5315 119.612C86.2508 118.812 90.475 117.595 93.5307 113.232C96.4198 109.107 97.8242 102.895 98.0784 93.1062C98.1113 92.8293 98.1416 92.565 98.1708 92.3132L98.2314 91.7959L98.912 91.8559L99.0874 91.8677C102.876 92.0409 107.508 91.2353 110.353 89.9102C112.6 88.8642 119.804 85.0507 118.108 79.9022Z" fill="black"/>
<path d="M111.631 80.9034C100.367 83.2335 99.592 79.4093 99.592 79.4093C111.485 61.7134 116.457 39.251 112.167 33.7534C100.462 18.7571 80.2003 25.8495 79.8621 26.0333L79.7534 26.0531C77.5279 25.5897 75.0376 25.314 72.2383 25.268C67.1418 25.1845 63.2755 26.6079 60.3417 28.8389C60.3417 28.8389 24.1976 13.9075 25.8789 47.6176C26.2365 54.7889 36.1294 101.88 47.9289 87.6566C52.2418 82.4553 56.4092 78.0576 56.4092 78.0576C58.4786 79.4362 60.9564 80.1396 63.5539 79.8871L63.7558 79.7154C63.6929 80.361 63.7217 80.9926 63.8364 81.7405C60.7966 85.1461 61.6901 85.7439 55.6134 86.9984C49.4644 88.2692 53.0765 90.5313 55.435 91.123C58.2942 91.8397 64.9087 92.8552 69.3779 86.5814L69.1999 87.2973C70.3907 88.254 71.227 93.5195 71.0869 98.2932C70.9467 103.067 70.8532 106.344 71.7913 108.904C72.7303 111.463 73.6654 117.223 81.654 115.507C88.3287 114.072 91.7878 110.355 92.2692 104.155C92.6105 99.7467 93.3835 100.398 93.432 96.4572L94.052 94.5917C94.7667 88.6163 94.1656 86.6885 98.2777 87.5852L99.2776 87.6733C102.304 87.8112 106.266 87.1849 108.591 86.1013C113.597 83.7716 116.567 79.8814 111.631 80.9034Z" fill="#336791"/>
<path d="M62.4574 50.8246C61.4424 50.6829 60.5231 50.8139 60.058 51.1671C59.7967 51.3658 59.7156 51.5959 59.6937 51.7543C59.6353 52.174 59.9285 52.6381 60.1088 52.8774C60.6186 53.5549 61.3632 54.0205 62.1003 54.1231C62.2071 54.1383 62.3135 54.1451 62.4192 54.1451C63.6482 54.1451 64.7659 53.1854 64.8644 52.477C64.9875 51.5898 63.7031 50.9982 62.4574 50.8246ZM96.0844 50.8527C95.9874 50.1573 94.7534 49.959 93.5823 50.1223C92.4128 50.2856 91.2788 50.8151 91.3735 51.512C91.4492 52.054 92.4252 52.9791 93.5804 52.9791C93.6782 52.9791 93.7766 52.9727 93.8759 52.9586C94.647 52.8515 95.2128 52.3605 95.4818 52.0775C95.8908 51.6461 96.1279 51.1652 96.0844 50.8527Z" fill="white"/>
<path d="M115.379 80.6387C114.949 79.3363 113.567 78.9174 111.27 79.3929C104.451 80.8043 102.009 79.8267 101.207 79.2346C106.507 71.1373 110.868 61.3491 113.22 52.2169C114.335 47.891 114.95 43.8735 115 40.5989C115.056 37.0048 114.446 34.3637 113.187 32.7503C108.111 26.2463 100.661 22.7575 91.6425 22.6618C85.4427 22.5919 80.2046 24.1829 79.1891 24.6303C77.0507 24.097 74.7195 23.7697 72.1815 23.7279C67.5274 23.6523 63.5043 24.7697 60.1736 27.0473C58.7268 26.5072 54.9877 25.2201 50.4151 24.4814C42.5098 23.2053 36.2279 24.1722 31.745 27.3568C26.3959 31.1571 23.9264 37.9501 24.4048 47.5469C24.5658 50.7755 26.4005 60.708 29.2956 70.2201C33.1066 82.7397 37.2493 89.8271 41.608 91.2852C42.1182 91.4557 42.7064 91.575 43.3552 91.575C44.9452 91.575 46.8946 90.8564 48.9228 88.4112C51.3966 85.4354 53.9557 82.5317 56.5967 79.704C58.3101 80.6261 60.1925 81.1411 62.1177 81.1928C62.1215 81.2433 62.1264 81.2938 62.131 81.344C61.7996 81.7402 61.4751 82.1422 61.1576 82.5498C59.8236 84.2479 59.546 84.6015 55.2521 85.4879C54.0306 85.7409 50.7866 86.4112 50.7389 88.6915C50.6874 91.183 54.5738 92.2294 55.0165 92.3403C56.5596 92.7276 58.0462 92.9187 59.4638 92.9187C62.9116 92.9187 65.9458 91.7823 68.3705 89.5837C68.2959 98.4656 68.6652 107.218 69.7287 109.884C70.5998 112.067 72.7277 117.402 79.449 117.402C80.4352 117.402 81.5207 117.287 82.7149 117.03C89.7298 115.522 92.7761 112.413 93.9543 105.559C94.585 101.896 95.6671 93.1488 96.1761 88.4568C97.2502 88.7929 98.633 88.9468 100.128 88.9464C103.246 88.9464 106.844 88.2821 109.1 87.232C111.634 86.0516 116.208 83.1552 115.379 80.6387ZM98.6736 48.9331C98.6505 50.3183 98.4603 51.5758 98.2589 52.8884C98.0418 54.3001 97.8176 55.7596 97.7612 57.5314C97.7055 59.2557 97.9202 61.0483 98.1278 62.7821C98.5475 66.2838 98.9781 69.8889 97.3112 73.4461C97.0343 72.9541 96.7877 72.4456 96.5727 71.9235C96.3655 71.4198 95.9155 70.6109 95.2925 69.4912C92.8689 65.1327 87.1933 54.926 90.0987 50.7611C90.9641 49.5215 93.1605 48.2469 98.6736 48.9331ZM91.9909 25.4666C100.071 25.6455 106.463 28.6766 110.988 34.4754C114.459 38.9232 110.637 59.1615 99.5727 76.6212C99.4615 76.4793 99.3496 76.3379 99.2372 76.1969L99.097 76.0215C101.956 71.2865 101.397 66.6017 100.9 62.4483C100.695 60.7437 100.502 59.1338 100.551 57.6214C100.602 56.0187 100.813 54.6438 101.018 53.3145C101.269 51.6764 101.524 49.9814 101.454 47.9833C101.507 47.7736 101.528 47.526 101.5 47.232C101.32 45.316 99.1387 39.5814 94.6922 34.3911C92.2598 31.5521 88.7128 28.3751 83.8697 26.2323C85.9529 25.7993 88.8015 25.3956 91.9909 25.4666ZM46.7764 86.6216C44.5418 89.3159 42.9988 88.7994 42.4913 88.63C39.1848 87.524 35.348 80.516 31.9654 69.4031C29.0384 59.7874 27.328 50.1181 27.1924 47.4067C26.7652 38.8317 28.8381 32.8555 33.3539 29.644C40.7032 24.418 52.7861 27.546 57.6413 29.1324C57.5716 29.2015 57.4989 29.2661 57.4299 29.3363C49.4625 37.4048 49.6515 51.1899 49.6712 52.0327C49.6705 52.3578 49.6977 52.8181 49.7349 53.4512C49.872 55.7699 50.1272 60.0852 49.4455 64.972C48.8122 69.5133 50.2083 73.958 53.275 77.1669C53.5898 77.4956 53.9206 77.8085 54.2662 78.1043C52.9012 79.5703 49.9345 82.8123 46.7764 86.6216ZM55.2904 75.2304C52.8186 72.6439 51.696 69.0465 52.21 65.3594C52.9296 60.1972 52.6641 55.7011 52.5213 53.2856C52.5013 52.9476 52.4834 52.6514 52.4732 52.4178C53.6371 51.3828 59.0309 48.485 62.8775 49.3688C64.6326 49.7717 65.7022 50.9704 66.1469 53.0319C68.4482 63.7054 66.4514 68.154 64.847 71.729C64.5163 72.4654 64.2039 73.1616 63.9372 73.8817L63.7304 74.4385C63.207 75.846 62.7199 77.1548 62.4181 78.3975C59.7903 78.3899 57.2341 77.2646 55.2904 75.2304ZM55.6937 89.6247C54.9264 89.4325 54.2363 89.0987 53.8314 88.8218C54.1696 88.6623 54.7715 88.445 55.8153 88.2293C60.8667 87.1868 61.6469 86.4507 63.3506 84.2817C63.741 83.7842 64.1838 83.2205 64.797 82.5339L64.7978 82.5331C65.7109 81.5077 66.1287 81.6816 66.8862 81.9968C67.5001 82.2513 68.0982 83.023 68.3406 83.8723C68.4554 84.2733 68.5841 85.0345 68.1626 85.6269C64.6038 90.6236 59.418 90.5594 55.6937 89.6247ZM82.1301 114.293C75.9504 115.621 73.7624 112.459 72.3205 108.845C71.3899 106.511 70.9324 95.9886 71.257 84.3679C71.2611 84.2133 71.2392 84.0641 71.1967 83.9235C71.1588 83.6461 71.1011 83.3716 71.024 83.1024C70.5415 81.4116 69.3655 79.9972 67.9546 79.4108C67.3941 79.178 66.3654 78.7507 65.1292 79.0678C65.3928 77.9786 65.8499 76.7484 66.3457 75.4165L66.5536 74.8563C66.7877 74.2246 67.0816 73.5703 67.3922 72.8775C69.0712 69.1373 71.3706 64.0142 68.875 52.4406C67.9403 48.1056 64.8186 45.9886 60.0865 46.4804C57.2496 46.7748 54.6541 47.9225 53.3595 48.5807C53.0811 48.722 52.8266 48.8587 52.5887 48.9916C52.9501 44.624 54.3151 36.4613 59.4214 31.2969C62.6366 28.0458 66.9184 26.44 72.1353 26.5266C82.4146 26.6952 89.0064 31.985 92.7264 36.3934C95.9322 40.1917 97.668 44.0182 98.3607 46.082C93.151 45.5507 89.6078 46.5818 87.8118 49.1568C83.9042 54.7581 89.9494 65.6294 92.8548 70.8543C93.3877 71.8118 93.8475 72.6394 93.9922 72.9911C94.9383 75.2904 96.1632 76.8255 97.0574 77.9459C97.3317 78.2892 97.5975 78.6223 97.7998 78.9132C96.2219 79.3694 93.3877 80.4233 93.646 85.6915C93.4377 88.3349 91.9564 100.711 91.2039 105.084C90.2104 110.86 88.0905 113.012 82.1301 114.293ZM107.925 84.6934C106.311 85.4443 103.611 86.0075 101.046 86.1287C98.213 86.2616 96.7707 85.8104 96.4314 85.5327C96.2723 82.2498 97.4907 81.9068 98.7804 81.5437C98.983 81.4868 99.1807 81.4309 99.3716 81.3641C99.4902 81.4609 99.6201 81.557 99.7625 81.6512C102.04 83.1583 106.101 83.3208 111.835 82.1339L111.898 82.1214C111.124 82.8464 109.801 83.8195 107.925 84.6934Z" fill="white"/>
</svg>
