<svg width="364" height="140" viewBox="0 0 364 140" fill="none" xmlns="http://www.w3.org/2000/svg">
<rect width="363.728" height="140" rx="20" fill="#336791"/>
<path d="M116.472 79.9022C115.89 78.1365 114.367 76.9067 112.398 76.6116C111.469 76.4726 110.405 76.5318 109.147 76.792C106.953 77.2459 105.326 77.4187 104.138 77.4521C108.621 69.8618 112.267 61.2063 114.365 53.0585C117.759 39.8837 115.946 33.8818 113.826 31.167C108.218 23.9812 100.036 20.121 90.1652 20.0029C84.8994 19.9383 80.2768 20.9808 77.8653 21.7306C75.62 21.3333 73.2059 21.1115 70.6728 21.0705C65.9244 20.9945 61.729 22.0325 58.1442 24.1658C56.1595 23.4928 52.9742 22.5441 49.2958 21.9387C40.6444 20.5144 33.6716 21.6242 28.5714 25.2372C22.3955 29.6117 19.5325 37.2122 20.062 47.8275C20.2302 51.1979 22.1103 61.4524 25.0706 71.1775C26.7719 76.7673 28.5862 81.4092 30.4629 84.9755C33.1243 90.0325 35.9722 93.0105 39.1692 94.08C40.961 94.6785 44.2168 95.0978 47.6411 92.238C48.0751 92.7651 48.6542 93.2889 49.4227 93.7754C50.3987 94.3926 51.5922 94.8969 52.7841 95.1958C57.0795 96.2725 61.1029 96.0033 64.5356 94.494C64.5568 95.1062 64.573 95.6911 64.5867 96.1962C64.6094 97.0154 64.6321 97.8187 64.6621 98.5699C64.8654 103.649 65.2101 107.599 66.2312 110.362C66.2873 110.514 66.3626 110.746 66.4422 110.992C66.9516 112.556 67.8034 115.174 69.9706 117.224C72.2147 119.349 74.9292 120 77.4153 120C78.6622 120 79.8518 119.836 80.8953 119.612C84.6146 118.812 88.8388 117.595 91.8945 113.232C94.7836 109.107 96.188 102.895 96.4422 93.1062C96.4751 92.8293 96.5054 92.565 96.5346 92.3132L96.5952 91.7959L97.2758 91.8559L97.4512 91.8677C101.239 92.0409 105.871 91.2353 108.716 89.9102C110.964 88.8642 118.168 85.0507 116.472 79.9022Z" fill="black"/>
<path d="M109.994 80.9034C98.7303 83.2335 97.9558 79.4093 97.9558 79.4093C109.849 61.7134 114.82 39.251 110.53 33.7534C98.8254 18.7571 78.5641 25.8495 78.2259 26.0333L78.1172 26.0531C75.8917 25.5897 73.4014 25.314 70.6021 25.268C65.5056 25.1845 61.6393 26.6079 58.7055 28.8389C58.7055 28.8389 22.5614 13.9075 24.2427 47.6176C24.6002 54.7889 34.4932 101.88 46.2927 87.6566C50.6056 82.4553 54.773 78.0576 54.773 78.0576C56.8424 79.4362 59.3202 80.1396 61.9177 79.8871L62.1196 79.7154C62.0567 80.361 62.0855 80.9926 62.2002 81.7405C59.1604 85.1461 60.0539 85.7439 53.9772 86.9984C47.8282 88.2692 51.4403 90.5313 53.7988 91.123C56.658 91.8397 63.2725 92.8552 67.7417 86.5814L67.5637 87.2973C68.7545 88.254 69.5908 93.5195 69.4507 98.2932C69.3105 103.067 69.217 106.344 70.1551 108.904C71.0941 111.463 72.0292 117.223 80.0178 115.507C86.6925 114.072 90.1516 110.355 90.633 104.155C90.9743 99.7467 91.7473 100.398 91.7958 96.4572L92.4158 94.5917C93.1305 88.6163 92.5294 86.6885 96.6415 87.5852L97.6414 87.6733C100.668 87.8112 104.629 87.1849 106.954 86.1013C111.961 83.7716 114.931 79.8814 109.994 80.9034Z" fill="#336791"/>
<path d="M60.8212 50.8246C59.8062 50.6829 58.8869 50.8139 58.4218 51.1671C58.1605 51.3658 58.0794 51.5959 58.0575 51.7543C57.9991 52.174 58.2923 52.6381 58.4726 52.8774C58.9824 53.5549 59.727 54.0205 60.4641 54.1231C60.5709 54.1383 60.6773 54.1451 60.783 54.1451C62.012 54.1451 63.1297 53.1854 63.2282 52.477C63.3513 51.5898 62.0669 50.9982 60.8212 50.8246ZM94.4482 50.8527C94.3512 50.1573 93.1172 49.959 91.9461 50.1223C90.7766 50.2856 89.6426 50.8151 89.7373 51.512C89.813 52.054 90.789 52.9791 91.9442 52.9791C92.042 52.9791 92.1404 52.9727 92.2397 52.9586C93.0108 52.8515 93.5766 52.3605 93.8456 52.0775C94.2546 51.6461 94.4917 51.1652 94.4482 50.8527Z" fill="white"/>
<path d="M113.742 80.6387C113.313 79.3363 111.931 78.9174 109.634 79.3929C102.814 80.8043 100.372 79.8267 99.5705 79.2346C104.871 71.1373 109.232 61.3491 111.584 52.2169C112.698 47.891 113.314 43.8735 113.364 40.5989C113.42 37.0048 112.809 34.3637 111.55 32.7503C106.474 26.2463 99.0243 22.7575 90.0063 22.6618C83.8065 22.5919 78.5684 24.1829 77.5529 24.6303C75.4145 24.097 73.0833 23.7697 70.5453 23.7279C65.8912 23.6523 61.8681 24.7697 58.5374 27.0473C57.0906 26.5072 53.3515 25.2201 48.7789 24.4814C40.8736 23.2053 34.5917 24.1722 30.1088 27.3568C24.7597 31.1571 22.2902 37.9501 22.7686 47.5469C22.9295 50.7755 24.7642 60.708 27.6594 70.2201C31.4704 82.7397 35.6131 89.8271 39.9718 91.2852C40.482 91.4557 41.0702 91.575 41.719 91.575C43.309 91.575 45.2584 90.8564 47.2866 88.4112C49.7604 85.4354 52.3195 82.5317 54.9605 79.704C56.6739 80.6261 58.5563 81.1411 60.4815 81.1928C60.4853 81.2433 60.4902 81.2938 60.4948 81.344C60.1634 81.7402 59.8389 82.1422 59.5214 82.5498C58.1874 84.2479 57.9098 84.6015 53.6159 85.4879C52.3944 85.7409 49.1504 86.4112 49.1027 88.6915C49.0512 91.183 52.9376 92.2294 53.3803 92.3403C54.9234 92.7276 56.41 92.9187 57.8276 92.9187C61.2754 92.9187 64.3096 91.7823 66.7343 89.5837C66.6597 98.4656 67.029 107.218 68.0925 109.884C68.9636 112.067 71.0915 117.402 77.8128 117.402C78.799 117.402 79.8845 117.287 81.0787 117.03C88.0936 115.522 91.1399 112.413 92.3181 105.559C92.9488 101.896 94.0309 93.1488 94.5399 88.4568C95.614 88.7929 96.9968 88.9468 98.4918 88.9464C101.61 88.9464 105.207 88.2821 107.464 87.232C109.998 86.0516 114.572 83.1552 113.742 80.6387ZM97.0374 48.9331C97.0143 50.3183 96.8241 51.5758 96.6227 52.8884C96.4056 54.3001 96.1814 55.7596 96.125 57.5314C96.0693 59.2557 96.284 61.0483 96.4916 62.7821C96.9113 66.2838 97.3419 69.8889 95.675 73.4461C95.3981 72.9541 95.1515 72.4456 94.9365 71.9235C94.7293 71.4198 94.2793 70.6109 93.6563 69.4912C91.2327 65.1327 85.5571 54.926 88.4625 50.7611C89.3279 49.5215 91.5243 48.2469 97.0374 48.9331ZM90.3547 25.4666C98.435 25.6455 104.827 28.6766 109.352 34.4754C112.823 38.9232 109.001 59.1615 97.9365 76.6212C97.8253 76.4793 97.7134 76.3379 97.601 76.1969L97.4608 76.0215C100.32 71.2865 99.761 66.6017 99.2633 62.4483C99.0588 60.7437 98.8656 59.1338 98.9148 57.6214C98.9656 56.0187 99.1769 54.6438 99.3815 53.3145C99.6326 51.6764 99.8882 49.9814 99.8178 47.9833C99.8704 47.7736 99.8916 47.526 99.864 47.232C99.6841 45.316 97.5025 39.5814 93.056 34.3911C90.6236 31.5521 87.0766 28.3751 82.2335 26.2323C84.3167 25.7993 87.1653 25.3956 90.3547 25.4666ZM45.1402 86.6216C42.9056 89.3159 41.3626 88.7994 40.8551 88.63C37.5486 87.524 33.7118 80.516 30.3292 69.4031C27.4022 59.7874 25.6918 50.1181 25.5562 47.4067C25.129 38.8317 27.2019 32.8555 31.7177 29.644C39.067 24.418 51.1499 27.546 56.0051 29.1324C55.9354 29.2015 55.8627 29.2661 55.7937 29.3363C47.8263 37.4048 48.0153 51.1899 48.035 52.0327C48.0343 52.3578 48.0615 52.8181 48.0987 53.4512C48.2358 55.7699 48.491 60.0852 47.8093 64.972C47.176 69.5133 48.5721 73.958 51.6388 77.1669C51.9536 77.4956 52.2844 77.8085 52.63 78.1043C51.265 79.5703 48.2983 82.8123 45.1402 86.6216ZM53.6542 75.2304C51.1824 72.6439 50.0598 69.0465 50.5738 65.3594C51.2934 60.1972 51.0279 55.7011 50.8851 53.2856C50.8651 52.9476 50.8472 52.6514 50.837 52.4178C52.0009 51.3828 57.3947 48.485 61.2413 49.3688C62.9964 49.7717 64.066 50.9704 64.5107 53.0319C66.812 63.7054 64.8152 68.154 63.2108 71.729C62.8801 72.4654 62.5677 73.1616 62.301 73.8817L62.0942 74.4385C61.5708 75.846 61.0837 77.1548 60.7819 78.3975C58.1541 78.3899 55.5979 77.2646 53.6542 75.2304ZM54.0575 89.6247C53.2902 89.4325 52.6001 89.0987 52.1952 88.8218C52.5334 88.6623 53.1353 88.445 54.1791 88.2293C59.2305 87.1868 60.0107 86.4507 61.7144 84.2817C62.1048 83.7842 62.5476 83.2205 63.1608 82.5339L63.1616 82.5331C64.0747 81.5077 64.4925 81.6816 65.25 81.9968C65.8639 82.2513 66.462 83.023 66.7044 83.8723C66.8192 84.2733 66.9479 85.0345 66.5264 85.6269C62.9676 90.6236 57.7818 90.5594 54.0575 89.6247ZM80.4939 114.293C74.3142 115.621 72.1262 112.459 70.6843 108.845C69.7537 106.511 69.2962 95.9886 69.6208 84.3679C69.6249 84.2133 69.603 84.0641 69.5605 83.9235C69.5226 83.6461 69.4649 83.3716 69.3878 83.1024C68.9053 81.4116 67.7293 79.9972 66.3184 79.4108C65.7579 79.178 64.7292 78.7507 63.493 79.0678C63.7566 77.9786 64.2137 76.7484 64.7095 75.4165L64.9174 74.8563C65.1515 74.2246 65.4454 73.5703 65.756 72.8775C67.435 69.1373 69.7344 64.0142 67.2388 52.4406C66.3041 48.1056 63.1824 45.9886 58.4503 46.4804C55.6134 46.7748 53.0179 47.9225 51.7233 48.5807C51.4449 48.722 51.1904 48.8587 50.9525 48.9916C51.3139 44.624 52.6789 36.4613 57.7852 31.2969C61.0004 28.0458 65.2822 26.44 70.4991 26.5266C80.7784 26.6952 87.3702 31.985 91.0902 36.3934C94.296 40.1917 96.0318 44.0182 96.7245 46.082C91.5148 45.5507 87.9716 46.5818 86.1756 49.1568C82.268 54.7581 88.3132 65.6294 91.2186 70.8543C91.7515 71.8118 92.2113 72.6394 92.356 72.9911C93.3021 75.2904 94.527 76.8255 95.4212 77.9459C95.6955 78.2892 95.9613 78.6223 96.1636 78.9132C94.5857 79.3694 91.7515 80.4233 92.0098 85.6915C91.8015 88.3349 90.3202 100.711 89.5677 105.084C88.5742 110.86 86.4543 113.012 80.4939 114.293ZM106.288 84.6934C104.675 85.4443 101.975 86.0075 99.4099 86.1287C96.5768 86.2616 95.1345 85.8104 94.7952 85.5327C94.6361 82.2498 95.8545 81.9068 97.1442 81.5437C97.3468 81.4868 97.5445 81.4309 97.7354 81.3641C97.854 81.4609 97.9839 81.557 98.1263 81.6512C100.403 83.1583 104.465 83.3208 110.199 82.1339L110.261 82.1214C109.488 82.8464 108.165 83.8195 106.288 84.6934Z" fill="white"/>
<path d="M149.572 86V53.2727H162.484C164.966 53.2727 167.081 53.7468 168.828 54.695C170.575 55.6325 171.907 56.9375 172.823 58.6101C173.75 60.272 174.214 62.1896 174.214 64.3629C174.214 66.5362 173.745 68.4538 172.807 70.1158C171.87 71.7777 170.512 73.0721 168.732 73.9989C166.964 74.9258 164.823 75.3892 162.308 75.3892H154.079V69.8441H161.19C162.521 69.8441 163.619 69.6151 164.482 69.157C165.355 68.6882 166.005 68.0437 166.431 67.2234C166.868 66.3924 167.086 65.4389 167.086 64.3629C167.086 63.2763 166.868 62.3281 166.431 61.5185C166.005 60.6982 165.355 60.0643 164.482 59.6168C163.608 59.1587 162.5 58.9297 161.158 58.9297H156.492V86H149.572ZM189.275 86.4794C186.793 86.4794 184.646 85.9521 182.835 84.8974C181.034 83.832 179.644 82.3512 178.664 80.4549C177.684 78.5479 177.194 76.3374 177.194 73.8232C177.194 71.2876 177.684 69.0717 178.664 67.1754C179.644 65.2685 181.034 63.7876 182.835 62.733C184.646 61.6676 186.793 61.1349 189.275 61.1349C191.757 61.1349 193.898 61.6676 195.699 62.733C197.51 63.7876 198.906 65.2685 199.886 67.1754C200.866 69.0717 201.356 71.2876 201.356 73.8232C201.356 76.3374 200.866 78.5479 199.886 80.4549C198.906 82.3512 197.51 83.832 195.699 84.8974C193.898 85.9521 191.757 86.4794 189.275 86.4794ZM189.307 81.206C190.436 81.206 191.379 80.8864 192.135 80.2472C192.892 79.5973 193.462 78.7131 193.845 77.5945C194.239 76.4759 194.436 75.2028 194.436 73.7752C194.436 72.3477 194.239 71.0746 193.845 69.956C193.462 68.8374 192.892 67.9531 192.135 67.3033C191.379 66.6534 190.436 66.3285 189.307 66.3285C188.167 66.3285 187.208 66.6534 186.43 67.3033C185.663 67.9531 185.083 68.8374 184.689 69.956C184.305 71.0746 184.113 72.3477 184.113 73.7752C184.113 75.2028 184.305 76.4759 184.689 77.5945C185.083 78.7131 185.663 79.5973 186.43 80.2472C187.208 80.8864 188.167 81.206 189.307 81.206ZM226.205 68.4538L219.973 68.8374C219.866 68.3047 219.637 67.8253 219.285 67.3991C218.934 66.9624 218.471 66.6161 217.895 66.3604C217.331 66.0941 216.654 65.9609 215.866 65.9609C214.811 65.9609 213.921 66.1847 213.197 66.6321C212.473 67.0689 212.11 67.6548 212.11 68.3899C212.11 68.9759 212.345 69.4712 212.814 69.8761C213.282 70.2809 214.087 70.6058 215.227 70.8509L219.669 71.7457C222.055 72.2358 223.834 73.0241 225.006 74.1108C226.178 75.1974 226.764 76.625 226.764 78.3935C226.764 80.0021 226.29 81.4137 225.342 82.6282C224.404 83.8427 223.115 84.7908 221.475 85.4727C219.845 86.1438 217.964 86.4794 215.834 86.4794C212.584 86.4794 209.996 85.8029 208.067 84.4499C206.15 83.0863 205.026 81.2326 204.696 78.8888L211.391 78.5373C211.594 79.5281 212.084 80.2844 212.861 80.8065C213.639 81.3178 214.635 81.5735 215.85 81.5735C217.043 81.5735 218.002 81.3445 218.726 80.8864C219.461 80.4176 219.834 79.8157 219.845 79.0806C219.834 78.4627 219.573 77.9567 219.062 77.5625C218.55 77.1577 217.762 76.8487 216.697 76.6357L212.446 75.7887C210.049 75.3093 208.265 74.4783 207.093 73.2958C205.931 72.1133 205.351 70.6058 205.351 68.7734C205.351 67.1967 205.777 65.8384 206.629 64.6985C207.492 63.5586 208.701 62.6797 210.257 62.0618C211.823 61.4439 213.655 61.1349 215.754 61.1349C218.854 61.1349 221.294 61.7901 223.073 63.1005C224.863 64.4109 225.907 66.1953 226.205 68.4538ZM244.107 61.4545V66.5682H229.325V61.4545H244.107ZM232.681 55.5739H239.488V78.4574C239.488 79.0859 239.584 79.576 239.776 79.9276C239.968 80.2685 240.234 80.5082 240.575 80.6467C240.927 80.7852 241.331 80.8544 241.789 80.8544C242.109 80.8544 242.429 80.8278 242.748 80.7745C243.068 80.7106 243.313 80.6626 243.483 80.6307L244.554 85.6964C244.213 85.8029 243.734 85.9254 243.116 86.0639C242.498 86.2131 241.747 86.3036 240.863 86.3356C239.222 86.3995 237.784 86.1811 236.548 85.6804C235.323 85.1797 234.369 84.402 233.688 83.3473C233.006 82.2926 232.67 80.9609 232.681 79.3523V55.5739ZM259.336 95.7159C257.13 95.7159 255.239 95.4123 253.663 94.805C252.097 94.2085 250.85 93.3935 249.923 92.3601C248.997 91.3267 248.395 90.1655 248.118 88.8764L254.414 88.0295C254.606 88.5195 254.909 88.9776 255.325 89.4038C255.74 89.8299 256.289 90.1708 256.971 90.4265C257.663 90.6928 258.505 90.826 259.495 90.826C260.976 90.826 262.196 90.4638 263.155 89.7393C264.124 89.0256 264.609 87.8271 264.609 86.1438V81.6534H264.321C264.023 82.3352 263.576 82.9798 262.979 83.587C262.383 84.1942 261.615 84.6896 260.678 85.0732C259.74 85.4567 258.622 85.6484 257.322 85.6484C255.479 85.6484 253.801 85.2223 252.288 84.37C250.786 83.5071 249.588 82.1914 248.693 80.4229C247.809 78.6438 247.367 76.396 247.367 73.6793C247.367 70.8988 247.819 68.5763 248.725 66.712C249.63 64.8477 250.834 63.4521 252.336 62.5252C253.849 61.5984 255.506 61.1349 257.306 61.1349C258.68 61.1349 259.831 61.3693 260.758 61.8381C261.685 62.2962 262.43 62.8714 262.995 63.5639C263.57 64.2457 264.012 64.9169 264.321 65.5774H264.577V61.4545H271.337V86.2397C271.337 88.3278 270.825 90.0749 269.803 91.4812C268.78 92.8874 267.363 93.9421 265.552 94.6452C263.751 95.359 261.679 95.7159 259.336 95.7159ZM259.479 80.5348C260.577 80.5348 261.504 80.2631 262.26 79.7198C263.027 79.1658 263.613 78.3775 264.018 77.3548C264.433 76.3214 264.641 75.0856 264.641 73.6474C264.641 72.2092 264.439 70.9627 264.034 69.908C263.629 68.8427 263.043 68.017 262.276 67.4311C261.509 66.8452 260.577 66.5522 259.479 66.5522C258.361 66.5522 257.418 66.8558 256.651 67.4631C255.884 68.0597 255.303 68.8906 254.909 69.956C254.515 71.0213 254.318 72.2518 254.318 73.6474C254.318 75.0643 254.515 76.2894 254.909 77.3228C255.314 78.3455 255.895 79.1392 256.651 79.7038C257.418 80.2578 258.361 80.5348 259.479 80.5348ZM276.754 86V61.4545H283.354V65.7372H283.609C284.057 64.2138 284.808 63.0632 285.863 62.2855C286.917 61.4972 288.132 61.103 289.506 61.103C289.847 61.103 290.215 61.1243 290.609 61.1669C291.003 61.2095 291.349 61.2681 291.647 61.3427V67.3832C291.328 67.2873 290.886 67.2021 290.321 67.1275C289.756 67.0529 289.24 67.0156 288.771 67.0156C287.77 67.0156 286.875 67.234 286.086 67.6708C285.309 68.0969 284.691 68.6935 284.233 69.4606C283.785 70.2276 283.562 71.1119 283.562 72.1133V86H276.754ZM305.211 86.4794C302.686 86.4794 300.512 85.968 298.691 84.9453C296.88 83.9119 295.484 82.4524 294.504 80.5668C293.524 78.6705 293.034 76.4279 293.034 73.8391C293.034 71.3143 293.524 69.0984 294.504 67.1914C295.484 65.2844 296.864 63.7983 298.643 62.733C300.433 61.6676 302.531 61.1349 304.939 61.1349C306.558 61.1349 308.066 61.396 309.461 61.918C310.868 62.4293 312.093 63.2017 313.137 64.2351C314.191 65.2685 315.012 66.5682 315.598 68.1342C316.184 69.6896 316.477 71.5114 316.477 73.5994V75.4691H295.75V71.2504H310.069C310.069 70.2702 309.855 69.402 309.429 68.6456C309.003 67.8892 308.412 67.2979 307.656 66.8718C306.91 66.435 306.042 66.2166 305.051 66.2166C304.017 66.2166 303.101 66.4563 302.302 66.9357C301.514 67.4045 300.896 68.0384 300.448 68.8374C300.001 69.6257 299.772 70.5046 299.761 71.4741V75.4851C299.761 76.6996 299.985 77.7489 300.433 78.6332C300.891 79.5174 301.535 80.1992 302.366 80.6786C303.197 81.158 304.183 81.3977 305.322 81.3977C306.079 81.3977 306.771 81.2912 307.4 81.0781C308.028 80.8651 308.566 80.5455 309.014 80.1193C309.461 79.6932 309.802 79.1712 310.037 78.5533L316.333 78.9688C316.013 80.4815 315.358 81.8026 314.367 82.9318C313.387 84.0504 312.119 84.924 310.564 85.5526C309.019 86.1705 307.235 86.4794 305.211 86.4794ZM341.342 68.4538L335.109 68.8374C335.003 68.3047 334.774 67.8253 334.422 67.3991C334.071 66.9624 333.607 66.6161 333.032 66.3604C332.467 66.0941 331.791 65.9609 331.002 65.9609C329.948 65.9609 329.058 66.1847 328.334 66.6321C327.609 67.0689 327.247 67.6548 327.247 68.3899C327.247 68.9759 327.482 69.4712 327.95 69.8761C328.419 70.2809 329.223 70.6058 330.363 70.8509L334.806 71.7457C337.192 72.2358 338.971 73.0241 340.143 74.1108C341.315 75.1974 341.901 76.625 341.901 78.3935C341.901 80.0021 341.427 81.4137 340.479 82.6282C339.541 83.8427 338.252 84.7908 336.611 85.4727C334.982 86.1438 333.101 86.4794 330.971 86.4794C327.721 86.4794 325.132 85.8029 323.204 84.4499C321.287 83.0863 320.163 81.2326 319.832 78.8888L326.528 78.5373C326.73 79.5281 327.221 80.2844 327.998 80.8065C328.776 81.3178 329.772 81.5735 330.986 81.5735C332.18 81.5735 333.138 81.3445 333.863 80.8864C334.598 80.4176 334.971 79.8157 334.982 79.0806C334.971 78.4627 334.71 77.9567 334.198 77.5625C333.687 77.1577 332.899 76.8487 331.833 76.6357L327.583 75.7887C325.186 75.3093 323.401 74.4783 322.229 73.2958C321.068 72.1133 320.488 70.6058 320.488 68.7734C320.488 67.1967 320.914 65.8384 321.766 64.6985C322.629 63.5586 323.838 62.6797 325.393 62.0618C326.959 61.4439 328.792 61.1349 330.891 61.1349C333.991 61.1349 336.43 61.7901 338.209 63.1005C339.999 64.4109 341.043 66.1953 341.342 68.4538Z" fill="white"/>
</svg>
