<svg width="453" height="140" viewBox="0 0 453 140" fill="none" xmlns="http://www.w3.org/2000/svg">
<rect width="452.333" height="140" rx="20" fill="#E6522C"/>
<path d="M76.667 13.335C45.372 13.335 20 38.704 20 70C20 101.295 45.372 126.666 76.667 126.666C107.962 126.666 133.333 101.295 133.333 70C133.333 38.704 107.961 13.335 76.667 13.335ZM76.667 119.39C67.763 119.39 60.544 113.442 60.544 106.107H92.79C92.79 113.441 85.571 119.39 76.667 119.39ZM103.297 101.708H50.034V92.05H103.298L103.297 101.708ZM103.106 87.079H50.186C50.01 86.876 49.83 86.676 49.66 86.47C44.208 79.85 42.924 76.394 41.677 72.872C41.656 72.756 48.288 74.227 52.991 75.285C52.991 75.285 55.411 75.845 58.949 76.49C55.552 72.508 53.535 67.446 53.535 62.272C53.535 50.913 62.247 40.987 59.104 32.964C62.163 33.213 65.435 39.42 65.656 49.125C68.908 44.631 70.269 36.424 70.269 31.392C70.269 26.182 73.702 20.13 77.136 19.923C74.075 24.968 77.929 29.293 81.355 40.022C82.64 44.052 82.476 50.834 83.468 55.135C83.797 46.202 85.333 33.168 91 28.668C88.5 34.335 91.37 41.426 93.333 44.835C96.5 50.335 98.42 54.502 98.42 62.383C98.42 67.667 96.469 72.642 93.178 76.531C96.92 75.829 99.504 75.196 99.504 75.196L111.656 72.825C111.657 72.824 109.891 80.086 103.106 87.079Z" fill="white"/>
<path d="M166.177 86V53.2727H179.089C181.572 53.2727 183.686 53.7468 185.434 54.695C187.181 55.6325 188.512 56.9375 189.429 58.6101C190.355 60.272 190.819 62.1896 190.819 64.3629C190.819 66.5362 190.35 68.4538 189.413 70.1158C188.475 71.7777 187.117 73.0721 185.338 73.9989C183.569 74.9258 181.428 75.3892 178.914 75.3892H170.684V69.8441H177.795C179.127 69.8441 180.224 69.6151 181.087 69.157C181.96 68.6882 182.61 68.0437 183.036 67.2234C183.473 66.3924 183.692 65.4389 183.692 64.3629C183.692 63.2763 183.473 62.3281 183.036 61.5185C182.61 60.6982 181.96 60.0643 181.087 59.6168C180.213 59.1587 179.105 58.9297 177.763 58.9297H173.097V86H166.177ZM195.185 86V61.4545H201.785V65.7372H202.041C202.488 64.2138 203.239 63.0632 204.294 62.2855C205.349 61.4972 206.563 61.103 207.938 61.103C208.278 61.103 208.646 61.1243 209.04 61.1669C209.434 61.2095 209.781 61.2681 210.079 61.3427V67.3832C209.759 67.2873 209.317 67.2021 208.752 67.1275C208.188 67.0529 207.671 67.0156 207.202 67.0156C206.201 67.0156 205.306 67.234 204.518 67.6708C203.74 68.0969 203.122 68.6935 202.664 69.4606C202.217 70.2276 201.993 71.1119 201.993 72.1133V86H195.185ZM223.546 86.4794C221.064 86.4794 218.917 85.9521 217.106 84.8974C215.306 83.832 213.915 82.3512 212.935 80.4549C211.955 78.5479 211.465 76.3374 211.465 73.8232C211.465 71.2876 211.955 69.0717 212.935 67.1754C213.915 65.2685 215.306 63.7876 217.106 62.733C218.917 61.6676 221.064 61.1349 223.546 61.1349C226.028 61.1349 228.17 61.6676 229.97 62.733C231.781 63.7876 233.177 65.2685 234.157 67.1754C235.137 69.0717 235.627 71.2876 235.627 73.8232C235.627 76.3374 235.137 78.5479 234.157 80.4549C233.177 82.3512 231.781 83.832 229.97 84.8974C228.17 85.9521 226.028 86.4794 223.546 86.4794ZM223.578 81.206C224.707 81.206 225.65 80.8864 226.407 80.2472C227.163 79.5973 227.733 78.7131 228.116 77.5945C228.511 76.4759 228.708 75.2028 228.708 73.7752C228.708 72.3477 228.511 71.0746 228.116 69.956C227.733 68.8374 227.163 67.9531 226.407 67.3033C225.65 66.6534 224.707 66.3285 223.578 66.3285C222.438 66.3285 221.479 66.6534 220.702 67.3033C219.935 67.9531 219.354 68.8374 218.96 69.956C218.576 71.0746 218.384 72.3477 218.384 73.7752C218.384 75.2028 218.576 76.4759 218.96 77.5945C219.354 78.7131 219.935 79.5973 220.702 80.2472C221.479 80.8864 222.438 81.206 223.578 81.206ZM240.054 86V61.4545H246.541V65.7852H246.829C247.34 64.3469 248.193 63.2124 249.386 62.3814C250.579 61.5504 252.007 61.1349 253.669 61.1349C255.352 61.1349 256.785 61.5558 257.967 62.3974C259.15 63.2283 259.938 64.3576 260.332 65.7852H260.588C261.089 64.3789 261.994 63.255 263.305 62.4134C264.626 61.5611 266.186 61.1349 267.987 61.1349C270.277 61.1349 272.136 61.8647 273.564 63.3242C275.002 64.7731 275.721 66.8292 275.721 69.4925V86H268.93V70.8349C268.93 69.4712 268.567 68.4485 267.843 67.7667C267.119 67.0849 266.213 66.744 265.126 66.744C263.891 66.744 262.926 67.1381 262.234 67.9265C261.541 68.7042 261.195 69.7322 261.195 71.0107V86H254.595V70.6911C254.595 69.4872 254.249 68.5284 253.557 67.8146C252.875 67.1009 251.975 66.744 250.856 66.744C250.1 66.744 249.418 66.9357 248.811 67.3192C248.214 67.6921 247.74 68.2195 247.388 68.9013C247.037 69.5724 246.861 70.3608 246.861 71.2663V86H240.054ZM292.285 86.4794C289.76 86.4794 287.586 85.968 285.765 84.9453C283.954 83.9119 282.558 82.4524 281.578 80.5668C280.598 78.6705 280.108 76.4279 280.108 73.8391C280.108 71.3143 280.598 69.0984 281.578 67.1914C282.558 65.2844 283.938 63.7983 285.717 62.733C287.506 61.6676 289.605 61.1349 292.013 61.1349C293.632 61.1349 295.14 61.396 296.535 61.918C297.941 62.4293 299.167 63.2017 300.211 64.2351C301.265 65.2685 302.086 66.5682 302.672 68.1342C303.258 69.6896 303.551 71.5114 303.551 73.5994V75.4691H282.824V71.2504H297.142C297.142 70.2702 296.929 69.402 296.503 68.6456C296.077 67.8892 295.486 67.2979 294.729 66.8718C293.984 66.435 293.116 66.2166 292.125 66.2166C291.091 66.2166 290.175 66.4563 289.376 66.9357C288.588 67.4045 287.97 68.0384 287.522 68.8374C287.075 69.6257 286.846 70.5046 286.835 71.4741V75.4851C286.835 76.6996 287.059 77.7489 287.506 78.6332C287.965 79.5174 288.609 80.1992 289.44 80.6786C290.271 81.158 291.256 81.3977 292.396 81.3977C293.153 81.3977 293.845 81.2912 294.474 81.0781C295.102 80.8651 295.64 80.5455 296.088 80.1193C296.535 79.6932 296.876 79.1712 297.111 78.5533L303.407 78.9688C303.087 80.4815 302.432 81.8026 301.441 82.9318C300.461 84.0504 299.193 84.924 297.638 85.5526C296.093 86.1705 294.309 86.4794 292.285 86.4794ZM321.049 61.4545V66.5682H306.267V61.4545H321.049ZM309.623 55.5739H316.43V78.4574C316.43 79.0859 316.526 79.576 316.718 79.9276C316.91 80.2685 317.176 80.5082 317.517 80.6467C317.869 80.7852 318.274 80.8544 318.732 80.8544C319.051 80.8544 319.371 80.8278 319.69 80.7745C320.01 80.7106 320.255 80.6626 320.426 80.6307L321.496 85.6964C321.155 85.8029 320.676 85.9254 320.058 86.0639C319.44 86.2131 318.689 86.3036 317.805 86.3356C316.164 86.3995 314.726 86.1811 313.49 85.6804C312.265 85.1797 311.312 84.402 310.63 83.3473C309.948 82.2926 309.612 80.9609 309.623 79.3523V55.5739ZM332.818 71.8097V86H326.011V53.2727H332.626V65.7852H332.914C333.468 64.3363 334.363 63.2017 335.599 62.3814C336.834 61.5504 338.384 61.1349 340.249 61.1349C341.953 61.1349 343.44 61.5078 344.707 62.2536C345.986 62.9886 346.976 64.0486 347.68 65.4336C348.393 66.8079 348.745 68.4538 348.734 70.3714V86H341.927V71.5859C341.937 70.0732 341.554 68.896 340.776 68.0543C340.009 67.2127 338.933 66.7919 337.548 66.7919C336.621 66.7919 335.801 66.989 335.087 67.3832C334.384 67.7773 333.83 68.3526 333.425 69.109C333.031 69.8548 332.829 70.755 332.818 71.8097ZM365.278 86.4794C362.753 86.4794 360.58 85.968 358.758 84.9453C356.947 83.9119 355.551 82.4524 354.571 80.5668C353.591 78.6705 353.101 76.4279 353.101 73.8391C353.101 71.3143 353.591 69.0984 354.571 67.1914C355.551 65.2844 356.931 63.7983 358.71 62.733C360.5 61.6676 362.598 61.1349 365.006 61.1349C366.625 61.1349 368.133 61.396 369.528 61.918C370.935 62.4293 372.16 63.2017 373.204 64.2351C374.259 65.2685 375.079 66.5682 375.665 68.1342C376.251 69.6896 376.544 71.5114 376.544 73.5994V75.4691H355.817V71.2504H370.136C370.136 70.2702 369.923 69.402 369.496 68.6456C369.07 67.8892 368.479 67.2979 367.723 66.8718C366.977 66.435 366.109 66.2166 365.118 66.2166C364.085 66.2166 363.168 66.4563 362.369 66.9357C361.581 67.4045 360.963 68.0384 360.516 68.8374C360.068 69.6257 359.839 70.5046 359.828 71.4741V75.4851C359.828 76.6996 360.052 77.7489 360.5 78.6332C360.958 79.5174 361.602 80.1992 362.433 80.6786C363.264 81.158 364.25 81.3977 365.39 81.3977C366.146 81.3977 366.838 81.2912 367.467 81.0781C368.096 80.8651 368.634 80.5455 369.081 80.1193C369.528 79.6932 369.869 79.1712 370.104 78.5533L376.4 78.9688C376.08 80.4815 375.425 81.8026 374.434 82.9318C373.454 84.0504 372.186 84.924 370.631 85.5526C369.086 86.1705 367.302 86.4794 365.278 86.4794ZM396.727 75.549V61.4545H403.534V86H396.998V81.5415H396.743C396.189 82.9798 395.267 84.1357 393.978 85.0092C392.7 85.8828 391.139 86.3196 389.296 86.3196C387.655 86.3196 386.212 85.9467 384.965 85.201C383.719 84.4553 382.744 83.3952 382.041 82.021C381.348 80.6467 380.997 79.0007 380.986 77.0831V61.4545H387.794V75.8686C387.804 77.3175 388.193 78.4627 388.96 79.3043C389.727 80.146 390.755 80.5668 392.044 80.5668C392.865 80.5668 393.632 80.3803 394.346 80.0075C395.059 79.6239 395.635 79.0593 396.071 78.3136C396.519 77.5678 396.737 76.6463 396.727 75.549ZM429.402 68.4538L423.17 68.8374C423.063 68.3047 422.834 67.8253 422.483 67.3991C422.131 66.9624 421.668 66.6161 421.092 66.3604C420.528 66.0941 419.851 65.9609 419.063 65.9609C418.008 65.9609 417.119 66.1847 416.394 66.6321C415.67 67.0689 415.307 67.6548 415.307 68.3899C415.307 68.9759 415.542 69.4712 416.011 69.8761C416.479 70.2809 417.284 70.6058 418.424 70.8509L422.866 71.7457C425.252 72.2358 427.032 73.0241 428.203 74.1108C429.375 75.1974 429.961 76.625 429.961 78.3935C429.961 80.0021 429.487 81.4137 428.539 82.6282C427.601 83.8427 426.312 84.7908 424.672 85.4727C423.042 86.1438 421.161 86.4794 419.031 86.4794C415.782 86.4794 413.193 85.8029 411.264 84.4499C409.347 83.0863 408.223 81.2326 407.893 78.8888L414.588 78.5373C414.791 79.5281 415.281 80.2844 416.059 80.8065C416.836 81.3178 417.832 81.5735 419.047 81.5735C420.24 81.5735 421.199 81.3445 421.923 80.8864C422.658 80.4176 423.031 79.8157 423.042 79.0806C423.031 78.4627 422.77 77.9567 422.259 77.5625C421.747 77.1577 420.959 76.8487 419.894 76.6357L415.643 75.7887C413.246 75.3093 411.462 74.4783 410.29 73.2958C409.128 72.1133 408.548 70.6058 408.548 68.7734C408.548 67.1967 408.974 65.8384 409.826 64.6985C410.689 63.5586 411.898 62.6797 413.454 62.0618C415.02 61.4439 416.852 61.1349 418.951 61.1349C422.051 61.1349 424.491 61.7901 426.27 63.1005C428.06 64.4109 429.104 66.1953 429.402 68.4538Z" fill="white"/>
</svg>
