<svg width="140" height="140" viewBox="0 0 140 140" fill="none" xmlns="http://www.w3.org/2000/svg">
<rect width="140" height="140" rx="20" fill="#E6522C"/>
<path d="M70.0005 13.335C38.7055 13.335 13.3335 38.704 13.3335 70C13.3335 101.295 38.7055 126.666 70.0005 126.666C101.295 126.666 126.666 101.295 126.666 70C126.666 38.704 101.294 13.335 70.0005 13.335ZM70.0005 119.39C61.0965 119.39 53.8775 113.442 53.8775 106.107H86.1235C86.1235 113.441 78.9045 119.39 70.0005 119.39ZM96.6305 101.708H43.3675V92.05H96.6315L96.6305 101.708ZM96.4395 87.079H43.5195C43.3435 86.876 43.1635 86.676 42.9935 86.47C37.5415 79.85 36.2575 76.394 35.0105 72.872C34.9895 72.756 41.6215 74.227 46.3245 75.285C46.3245 75.285 48.7445 75.845 52.2825 76.49C48.8855 72.508 46.8685 67.446 46.8685 62.272C46.8685 50.913 55.5805 40.987 52.4375 32.964C55.4965 33.213 58.7685 39.42 58.9895 49.125C62.2415 44.631 63.6025 36.424 63.6025 31.392C63.6025 26.182 67.0355 20.13 70.4695 19.923C67.4085 24.968 71.2625 29.293 74.6885 40.022C75.9735 44.052 75.8095 50.834 76.8015 55.135C77.1305 46.202 78.6665 33.168 84.3335 28.668C81.8335 34.335 84.7035 41.426 86.6665 44.835C89.8335 50.335 91.7535 54.502 91.7535 62.383C91.7535 67.667 89.8025 72.642 86.5115 76.531C90.2535 75.829 92.8375 75.196 92.8375 75.196L104.989 72.825C104.99 72.824 103.224 80.086 96.4395 87.079Z" fill="white"/>
</svg>
