<svg width="140" height="140" viewBox="0 0 140 140" fill="none" xmlns="http://www.w3.org/2000/svg">
<rect width="140" height="140" rx="20" fill="#4088DA"/>
<path d="M73.901 108.694C75.1452 106.532 77.9022 105.79 80.0572 107.038C82.2123 108.287 82.9516 111.054 81.7074 113.217C80.5214 115.278 78.8152 116.99 76.7613 118.181C74.7069 119.371 72.3743 120 70.0021 120C67.6295 120 65.2979 119.371 63.243 118.181C61.188 116.99 59.479 115.279 58.2925 113.217C57.0485 111.054 57.7877 108.287 59.9427 107.038C62.0977 105.79 64.8546 106.532 66.0989 108.694C66.4944 109.382 67.0643 109.954 67.7491 110.351C68.4336 110.747 69.2119 110.956 70.0021 110.956C70.7924 110.955 71.5708 110.747 72.2552 110.351C72.9395 109.954 73.5057 109.381 73.901 108.694Z" fill="white"/>
<path d="M111.081 51.8784C111.081 42.5237 107.908 34.3168 102.977 27.1841C101.557 25.1296 102.037 22.2842 104.049 20.8338C106.06 19.3835 108.847 19.8735 110.267 21.9277C116.039 30.2776 120 40.2861 120 51.8784C120 54.3934 118.004 56.4322 115.541 56.4322C113.078 56.4322 111.081 54.3934 111.081 51.8784Z" fill="white"/>
<path d="M20 51.8784C20 40.2861 23.9611 30.2776 29.7329 21.9277C31.1532 19.8735 33.9396 19.3835 35.9515 20.8338C37.9631 22.2842 38.4429 25.1296 37.0227 27.1841C32.0925 34.3168 28.9185 42.5237 28.9185 51.8784C28.9185 54.3934 26.9221 56.4322 24.4593 56.4322C21.9965 56.4322 20 54.3934 20 51.8784Z" fill="white"/>
<path fill-rule="evenodd" clip-rule="evenodd" d="M69.9964 20C78.4859 20 86.6304 23.3446 92.6335 29.3007C98.6367 35.2571 102.007 43.3381 102.007 51.7618C102.007 61.493 103.543 67.5468 105.553 71.7679C107.064 74.9415 108.926 77.2724 111.046 79.5534L113.248 81.8485L113.346 81.9548C114.539 83.2556 115.326 84.8715 115.61 86.6075C115.894 88.3425 115.665 90.1221 114.949 91.7297C114.232 93.3375 113.058 94.7051 111.573 95.6645C110.273 96.5041 108.781 97.0034 107.241 97.1136L106.58 97.1357H33.4124C31.6398 97.1344 29.9041 96.6211 28.4196 95.66C26.9351 94.6989 25.7631 93.3303 25.048 91.7209C24.3332 90.1117 24.1052 88.3298 24.3914 86.5942C24.6778 84.8594 25.4661 83.2448 26.6601 81.946L26.7538 81.8441C29.7924 78.7316 32.425 75.9992 34.4395 71.7679C36.4491 67.5468 37.9855 61.4932 37.9855 51.7618C37.9855 43.3381 41.3605 35.2571 47.3637 29.3007C53.3665 23.3455 61.5078 20.0003 69.9964 20ZM49.774 81.7965C48.1782 81.7965 46.8846 83.0929 46.8845 84.6921C46.8845 86.2914 48.1782 87.5879 49.774 87.5879H90.2262C91.822 87.5879 93.1157 86.2914 93.1157 84.6921C93.1156 83.0929 91.822 81.7966 90.2262 81.7965H49.774ZM72.043 30.5216C70.9852 29.4615 69.0413 29.6448 67.9064 30.5724L50.6205 47.8961C49.4921 49.0269 49.4921 50.8599 50.6205 51.9908C51.7489 53.1216 53.578 53.1216 54.7063 51.9908L67.1106 39.5595V73.1093C67.1107 74.7085 68.4043 76.0049 70.0001 76.0049C71.5958 76.0048 72.8895 74.7085 72.8895 73.1093V39.5595L85.2938 51.9908C86.4222 53.1216 88.2513 53.1216 89.3797 51.9908C90.508 50.8599 90.508 49.0269 89.3797 47.8961L72.043 30.5216Z" fill="white"/>
</svg>
