<svg width="526" height="140" viewBox="0 0 526 140" fill="none" xmlns="http://www.w3.org/2000/svg">
<rect width="526" height="140" rx="20" fill="white"/>
<path d="M81.4379 20C81.4379 20.1765 81.4379 20.3529 81.4379 20.5392C81.4379 26.8725 76.3039 32.0049 69.9722 32.0049C63.6389 32.0049 58.5065 26.8709 58.5065 20.5392C58.5065 20.3529 58.5065 20.1765 58.5065 20H20V120H120V20H81.4379Z" fill="#654FF0"/>
<path d="M43.2288 73.8905H49.8562L54.3807 97.9869H54.4624L59.9003 73.8905H66.0997L71.0114 98.2827H71.1078L76.2647 73.8905H82.7647L74.3186 109.297H67.7418L62.8709 85.201H62.7435L57.5294 109.297H50.8301L43.2288 73.8905ZM90.2369 73.8905H100.685L111.06 109.297H104.224L101.967 101.418H90.0654L88.3235 109.297H81.665L90.2369 73.8905ZM94.2141 82.6176L91.3235 95.6078H100.32L97.0016 82.6176H94.2141Z" fill="white"/>
<path d="M153.92 97V46.67H194.52C196.293 46.67 197.927 47.1133 199.42 48C200.913 48.8867 202.103 50.0767 202.99 51.57C203.877 53.0167 204.32 54.6267 204.32 56.4V69.98C204.32 71.7533 203.877 73.3867 202.99 74.88C202.103 76.3733 200.913 77.5633 199.42 78.45C197.927 79.29 196.293 79.71 194.52 79.71L163.16 79.78V97H153.92ZM164 70.4H194.1C194.333 70.4 194.543 70.33 194.73 70.19C194.917 70.05 195.01 69.8633 195.01 69.63V56.75C195.01 56.5167 194.917 56.33 194.73 56.19C194.543 56.0033 194.333 55.91 194.1 55.91H164C163.767 55.91 163.557 56.0033 163.37 56.19C163.23 56.33 163.16 56.5167 163.16 56.75V69.63C163.16 69.8633 163.23 70.05 163.37 70.19C163.557 70.33 163.767 70.4 164 70.4ZM228.891 97V78.1L205.651 46.6H216.571L233.581 67.95L250.381 46.6H261.511L238.201 78.17V97H228.891ZM275.278 97C273.504 97 271.871 96.5567 270.378 95.67C268.931 94.7833 267.764 93.6167 266.878 92.17C265.991 90.6767 265.548 89.0433 265.548 87.27V56.33C265.548 54.5567 265.991 52.9467 266.878 51.5C267.764 50.0067 268.931 48.8167 270.378 47.93C271.871 47.0433 273.504 46.6 275.278 46.6H306.218C307.991 46.6 309.601 47.0433 311.048 47.93C312.541 48.8167 313.731 50.0067 314.618 51.5C315.504 52.9467 315.948 54.5567 315.948 56.33V87.27C315.948 89.0433 315.504 90.6767 314.618 92.17C313.731 93.6167 312.541 94.7833 311.048 95.67C309.601 96.5567 307.991 97 306.218 97H275.278ZM275.628 87.69H305.728C305.961 87.69 306.171 87.62 306.358 87.48C306.544 87.2933 306.638 87.0833 306.638 86.85V56.75C306.638 56.5167 306.544 56.33 306.358 56.19C306.171 56.0033 305.961 55.91 305.728 55.91H275.628C275.394 55.91 275.184 56.0033 274.998 56.19C274.858 56.33 274.788 56.5167 274.788 56.75V86.85C274.788 87.0833 274.858 87.2933 274.998 87.48C275.184 87.62 275.394 87.69 275.628 87.69ZM323.796 97V46.6H364.396C366.17 46.6 367.803 47.0433 369.296 47.93C370.79 48.8167 371.98 50.0067 372.866 51.5C373.753 52.9467 374.196 54.5567 374.196 56.33V87.27C374.196 89.0433 373.753 90.6767 372.866 92.17C371.98 93.6167 370.79 94.7833 369.296 95.67C367.803 96.5567 366.17 97 364.396 97H323.796ZM333.806 87.69H363.976C364.21 87.69 364.42 87.62 364.606 87.48C364.793 87.2933 364.886 87.0833 364.886 86.85V56.75C364.886 56.5167 364.793 56.33 364.606 56.19C364.42 56.0033 364.21 55.91 363.976 55.91H333.806C333.573 55.91 333.363 56.0033 333.176 56.19C333.036 56.33 332.966 56.5167 332.966 56.75V86.85C332.966 87.0833 333.036 87.2933 333.176 87.48C333.363 87.62 333.573 87.69 333.806 87.69ZM381.055 97V46.6H390.225V97H381.055ZM397.146 97V46.6H437.746C439.519 46.6 441.153 47.0433 442.646 47.93C444.139 48.8167 445.329 50.0067 446.216 51.5C447.103 52.9467 447.546 54.5567 447.546 56.33V87.27C447.546 89.0433 447.103 90.6767 446.216 92.17C445.329 93.6167 444.139 94.7833 442.646 95.67C441.153 96.5567 439.519 97 437.746 97H397.146ZM407.156 87.69H437.326C437.559 87.69 437.769 87.62 437.956 87.48C438.143 87.2933 438.236 87.0833 438.236 86.85V56.75C438.236 56.5167 438.143 56.33 437.956 56.19C437.769 56.0033 437.559 55.91 437.326 55.91H407.156C406.923 55.91 406.713 56.0033 406.526 56.19C406.386 56.33 406.316 56.5167 406.316 56.75V86.85C406.316 87.0833 406.386 87.2933 406.526 87.48C406.713 87.62 406.923 87.69 407.156 87.69ZM455.525 97V46.6H501.935V55.91H464.835V67.11H494.655V76.49H464.835V87.69H501.935V97H455.525Z" fill="black"/>
</svg>
