<svg width="396" height="140" viewBox="0 0 396 140" fill="none" xmlns="http://www.w3.org/2000/svg">
<rect width="396" height="140" rx="20" fill="white"/>
<path d="M23.92 97V46.67H64.52C66.2933 46.67 67.9267 47.1133 69.42 48C70.9133 48.8867 72.1033 50.0767 72.99 51.57C73.8767 53.0167 74.32 54.6267 74.32 56.4V69.98C74.32 71.7533 73.8767 73.3867 72.99 74.88C72.1033 76.3733 70.9133 77.5633 69.42 78.45C67.9267 79.29 66.2933 79.71 64.52 79.71L33.16 79.78V97H23.92ZM34 70.4H64.1C64.3333 70.4 64.5433 70.33 64.73 70.19C64.9167 70.05 65.01 69.8633 65.01 69.63V56.75C65.01 56.5167 64.9167 56.33 64.73 56.19C64.5433 56.0033 64.3333 55.91 64.1 55.91H34C33.7667 55.91 33.5567 56.0033 33.37 56.19C33.23 56.33 33.16 56.5167 33.16 56.75V69.63C33.16 69.8633 33.23 70.05 33.37 70.19C33.5567 70.33 33.7667 70.4 34 70.4ZM98.8911 97V78.1L75.6511 46.6H86.5711L103.581 67.95L120.381 46.6H131.511L108.201 78.17V97H98.8911ZM145.278 97C143.504 97 141.871 96.5567 140.378 95.67C138.931 94.7833 137.764 93.6167 136.878 92.17C135.991 90.6767 135.548 89.0433 135.548 87.27V56.33C135.548 54.5567 135.991 52.9467 136.878 51.5C137.764 50.0067 138.931 48.8167 140.378 47.93C141.871 47.0433 143.504 46.6 145.278 46.6H176.218C177.991 46.6 179.601 47.0433 181.048 47.93C182.541 48.8167 183.731 50.0067 184.618 51.5C185.504 52.9467 185.948 54.5567 185.948 56.33V87.27C185.948 89.0433 185.504 90.6767 184.618 92.17C183.731 93.6167 182.541 94.7833 181.048 95.67C179.601 96.5567 177.991 97 176.218 97H145.278ZM145.628 87.69H175.728C175.961 87.69 176.171 87.62 176.358 87.48C176.544 87.2933 176.638 87.0833 176.638 86.85V56.75C176.638 56.5167 176.544 56.33 176.358 56.19C176.171 56.0033 175.961 55.91 175.728 55.91H145.628C145.394 55.91 145.184 56.0033 144.998 56.19C144.858 56.33 144.788 56.5167 144.788 56.75V86.85C144.788 87.0833 144.858 87.2933 144.998 87.48C145.184 87.62 145.394 87.69 145.628 87.69ZM193.796 97V46.6H234.396C236.17 46.6 237.803 47.0433 239.296 47.93C240.79 48.8167 241.98 50.0067 242.866 51.5C243.753 52.9467 244.196 54.5567 244.196 56.33V87.27C244.196 89.0433 243.753 90.6767 242.866 92.17C241.98 93.6167 240.79 94.7833 239.296 95.67C237.803 96.5567 236.17 97 234.396 97H193.796ZM203.806 87.69H233.976C234.21 87.69 234.42 87.62 234.606 87.48C234.793 87.2933 234.886 87.0833 234.886 86.85V56.75C234.886 56.5167 234.793 56.33 234.606 56.19C234.42 56.0033 234.21 55.91 233.976 55.91H203.806C203.573 55.91 203.363 56.0033 203.176 56.19C203.036 56.33 202.966 56.5167 202.966 56.75V86.85C202.966 87.0833 203.036 87.2933 203.176 87.48C203.363 87.62 203.573 87.69 203.806 87.69ZM251.055 97V46.6H260.225V97H251.055ZM267.146 97V46.6H307.746C309.519 46.6 311.153 47.0433 312.646 47.93C314.139 48.8167 315.329 50.0067 316.216 51.5C317.103 52.9467 317.546 54.5567 317.546 56.33V87.27C317.546 89.0433 317.103 90.6767 316.216 92.17C315.329 93.6167 314.139 94.7833 312.646 95.67C311.153 96.5567 309.519 97 307.746 97H267.146ZM277.156 87.69H307.326C307.559 87.69 307.769 87.62 307.956 87.48C308.143 87.2933 308.236 87.0833 308.236 86.85V56.75C308.236 56.5167 308.143 56.33 307.956 56.19C307.769 56.0033 307.559 55.91 307.326 55.91H277.156C276.923 55.91 276.713 56.0033 276.526 56.19C276.386 56.33 276.316 56.5167 276.316 56.75V86.85C276.316 87.0833 276.386 87.2933 276.526 87.48C276.713 87.62 276.923 87.69 277.156 87.69ZM325.525 97V46.6H371.935V55.91H334.835V67.11H364.655V76.49H334.835V87.69H371.935V97H325.525Z" fill="black"/>
</svg>
