<svg width="140" height="140" viewBox="0 0 140 140" fill="none" xmlns="http://www.w3.org/2000/svg">
<rect width="140" height="140" rx="20" fill="#7B61C1"/>
<path fill-rule="evenodd" clip-rule="evenodd" d="M69.2245 20H71.1787L71.8181 20.0355L71.8224 20.0358L73.1326 20.1047L73.7346 20.1716L74.3657 20.2048L75.0854 20.2806L75.6874 20.3809L76.3229 20.4478L77.6031 20.6612L78.2386 20.7949L78.8489 20.8967L79.5286 21.0477L80.1306 21.2149L80.7326 21.3487L82.6134 21.8712L83.8662 22.2888L85.0382 22.7024L85.6402 22.9365L86.2228 23.1421L86.8613 23.4051L87.4299 23.6726L88.015 23.9136L88.5832 24.1977L89.1518 24.4653L89.7186 24.7487L90.3196 25.0668L91.9601 25.9896L92.4916 26.3085L93.057 26.6619L94.5025 27.6255L95.5398 28.1442L96.1416 28.4274L97.2778 29.0665L97.7794 29.3675L98.3265 29.6752L98.9099 30.0398L99.4116 30.3743L99.9467 30.7087L100.495 31.0741L102.047 32.2125L102.515 32.5804L103.043 32.9673L104.514 34.2279L104.982 34.6627L105.471 35.0822L106.836 36.4471L107.728 37.4073L108.129 37.8421L108.599 38.3476L109.019 38.8727L109.441 39.3649L109.808 39.8666L110.21 40.3348L110.993 41.4027L111.38 41.9656L111.708 42.4584L111.72 42.4762L112.082 43.0024L112.435 43.5314L112.8 44.1148L113.127 44.6969L113.412 45.2347L113.736 45.7536L114.081 46.3666L114.357 46.9525L114.649 47.5053L114.933 48.0721L115.224 48.6904L115.464 49.2742L115.731 49.876L116.227 51.0802L116.44 51.7192L116.641 52.2875L117.042 53.4916L117.256 54.0961L117.782 55.9896L118.193 57.8423L118.335 58.5171L118.642 60.3546L118.643 60.3609L118.644 60.3673L118.749 61.0369L118.892 62.3187L118.925 62.9541L118.992 63.554L119.028 64.2018L119.061 64.8329L119.061 64.8373L119.097 65.4766V67.3996L119.061 68.039L119.061 68.0433L119.028 68.6788L118.958 69.9243L118.953 69.9745L118.992 70.3476L119.063 71.6305V72.2325L119.097 72.8345V74.1555L119.063 74.7575V75.3929L119.025 76.0781L118.959 76.678L118.925 77.3134L118.788 78.5522L118.787 78.5608L118.716 79.2328L118.51 80.4689L118.508 80.4815L118.402 81.1504L118.267 81.7587L118.167 82.3607L118.016 83.0405L117.848 83.6426L117.715 84.2445L117.192 86.1253L116.975 86.7761L116.775 87.3444L116.562 87.9833L116.328 88.5518L116.127 89.1539L115.631 90.3581L115.348 90.994L115.066 91.5935L114.799 92.1286L114.248 93.2989L113.93 93.8649L113.629 94.4335L113.301 95.0156L112.967 95.5509L112.666 96.0859L112.295 96.6784L111.921 97.2228L111.581 97.7334L111.194 98.2963L110.062 99.8399L109.674 100.333L109.253 100.86L108.414 101.838L107.979 102.307L107.578 102.775L107.104 103.285L105.76 104.629L105.249 105.103L104.781 105.504L104.313 105.939L103.329 106.782L102.846 107.162L102.836 107.17L102.34 107.567L101.846 107.955L100.796 108.725L100.248 109.091L99.7125 109.425L99.2109 109.76L98.6759 110.094L98.1451 110.448L96.4582 111.397L95.9231 111.664L95.3723 111.974L94.7357 112.274L94.4976 112.378L93.358 113.137L92.823 113.472L92.2923 113.826L90.0703 115.076L89.4863 115.368L88.9178 115.635L88.3826 115.903L87.7643 116.194L87.1956 116.428L86.5922 116.712L85.9887 116.925L85.4421 117.15L84.8041 117.398L84.2007 117.611L83.5985 117.812L82.994 118.025L80.4985 118.718L78.6459 119.13L77.971 119.272L76.7355 119.478L76.7292 119.479L76.7228 119.48L76.0532 119.586L75.4125 119.657L74.146 119.79L74.1373 119.791L73.5005 119.862L72.8258 119.897L72.8214 119.898L72.2238 119.931L72.2194 119.931L70.909 120H68.9569L68.2775 119.964L67.6799 119.931L66.3654 119.862L65.7286 119.791L65.7199 119.79L65.0888 119.724L64.4481 119.653L63.7721 119.546L63.1765 119.446L63.1638 119.444L62.5347 119.345L61.8866 119.237L61.2617 119.098L61.2453 119.095L60.618 118.963L59.3674 118.685L57.4739 118.159L56.9053 117.958L56.3033 117.791L55.6638 117.565L55.0618 117.331L54.4792 117.125L53.8884 116.882L53.2714 116.642L52.6887 116.387L52.1351 116.127L51.5664 115.893L50.9149 115.586L50.3642 115.276L49.8462 115.017L49.2452 114.699L48.675 114.378L48.1732 114.077L47.6263 113.77L47.0429 113.405L45.5221 112.391L45.0953 112.19L43.9762 111.631L41.7735 110.392L41.1901 110.027L40.6883 109.693L40.1533 109.358L39.6052 108.993L39.1035 108.625L38.6019 108.29L38.027 107.869L37.5587 107.467L37.0571 107.1L35.1181 105.438L34.6075 104.964L34.1727 104.529L33.7045 104.094L32.7743 103.164L32.3549 102.674L31.9201 102.206L30.68 100.759L30.2586 100.233L29.8948 99.7696L29.8866 99.7593L29.4738 99.2433L29.0736 98.6976L28.6866 98.1348L28.334 97.6057L28.0174 97.0992L27.6495 96.5975L27.267 95.9856L26.966 95.4504L26.6214 94.899L26.3041 94.2997L25.9857 93.7337L25.7182 93.1652L25.4172 92.6301L24.5755 90.8414L24.0875 89.6563L23.8533 89.0543L23.6052 88.4515L23.3923 87.8129L23.1916 87.2443L22.774 85.9915L22.2516 84.1107L22.1178 83.5087L21.9398 82.8678L21.8329 82.227L21.5654 81.0229L21.4574 80.3749L21.3506 79.6989L21.2126 78.4562L21.1462 77.8251L21.1452 77.8164L21.0075 76.5776L20.972 75.9029L20.9718 75.8985L20.9363 75.2592V74.655L20.9028 74.0195V72.7363L20.9363 72.1009V71.4967L20.9743 70.8115L21.0412 70.2095L21.0543 69.9748L21.0078 69.5564L20.972 68.9129L20.9718 68.9085L20.9363 68.2336V67.6338L20.9028 67.0317V65.7107L20.9718 64.4694L20.972 64.465L21.0052 63.8339L21.0055 63.8296L21.0412 63.1861L21.1079 62.5863L21.1435 61.9098L21.251 61.2646L21.3172 60.669L21.4239 59.993L21.7312 58.1492L21.8733 57.4744L22.0174 56.8257L22.1847 56.2237L22.3184 55.6217L22.6772 54.3302L22.8779 53.7617L23.0416 53.1724L23.2585 52.5216L23.4715 51.9181L23.7196 51.2801L23.9537 50.7116L24.1878 50.1096L24.6758 48.9245L25.2418 47.7218L25.5512 47.1374L25.8187 46.6023L26.1369 46.0013L26.7653 44.884L27.0998 44.3489L27.4008 43.8138L27.7711 43.2213L28.1515 42.6679L28.486 42.1663L28.8729 41.6034L30.024 40.0338L30.4459 39.5416L30.8472 39.0399L32.0873 37.5932L32.5614 37.0826L32.9962 36.6478L33.431 36.1796L34.3611 35.2494L34.8293 34.8481L35.2641 34.4133L36.2638 33.5564L36.7655 33.1551L37.2577 32.7332L37.7853 32.3463L38.2535 31.9784L39.3042 31.2079L39.8523 30.8425L40.3874 30.508L40.8891 30.1736L41.4242 29.8392L41.9548 29.4854L43.6418 28.5365L44.2257 28.2445L44.7943 27.977L45.4971 27.6255L46.7419 26.7957L47.2771 26.4612L47.8077 26.1075L49.4946 25.1586L50.0469 24.8824L50.6155 24.5814L51.1822 24.298L51.8006 24.0071L52.3525 23.7798L52.8876 23.5122L53.5208 23.2515L54.1228 23.0174L54.7133 22.7742L55.3308 22.5563L55.9327 22.3557L56.5013 22.155L57.1521 21.938L59.6349 21.2484L61.5187 20.8298L62.129 20.7281L62.7644 20.5943L63.4426 20.4812L64.0781 20.4144L64.6801 20.314L65.352 20.2433L65.3607 20.2424L65.9975 20.1716L66.6373 20.1379L67.2705 20.0713L67.9514 20.0334H68.589L69.2245 20ZM33.2143 40.9036L33.1658 40.9601L32.7645 41.4618L32.3837 41.906L31.3274 43.3464L30.9785 43.8538L30.6441 44.3555L30.2887 44.8724L29.9902 45.3501L29.6892 45.8852L29.3547 46.4203L28.7792 47.4435L28.4953 47.9797L28.2278 48.5148L27.9351 49.0675L27.4309 50.1391L26.9824 51.2282L26.7483 51.8302L26.5142 52.3988L26.3843 52.7327L26.3934 52.7177L26.6609 52.2494L26.9821 51.7141L27.2831 51.2459L27.5841 50.7442L27.9176 50.2254L28.289 49.7055L28.6234 49.2707L28.9579 48.8025L29.9988 47.4492L30.2824 47.1142L30.4693 46.6469L30.67 46.1118L30.8924 45.5557L31.1367 45.0322L31.3708 44.4971L32.0978 42.9392L32.9372 41.3653L33.2143 40.9036ZM28.197 55.7L28.1933 55.7075L27.9257 56.2091L27.6761 56.7084L27.4583 57.1751L26.7853 58.7133L26.5847 59.2819L26.3447 59.8305L26.1774 60.2765L26.0143 60.831L25.8136 61.3996L25.1677 63.5957L25.0456 64.1149L24.9118 64.7169L24.778 65.2855L24.6534 65.846L24.5613 66.3678L24.5589 66.3819L24.267 68.1334L24.0755 69.8574L24.0736 69.8915L24.0755 69.9085L24.1089 70.5105L24.2336 71.6325L24.4251 72.7819L24.4275 72.7961L24.5267 73.3575L24.7203 74.5197L24.8449 75.049L24.9787 75.651L25.1008 76.1702L25.914 78.9349L26.0964 79.4519L26.2971 79.9869L26.4843 80.5174L26.7126 81.0391L26.9132 81.5742L27.5839 83.1073L27.8254 83.5902L28.1928 84.2791L28.1666 83.8589L28.0997 83.3573L28.0662 82.8222L27.9931 82.2738V81.6889L27.9262 80.6856V79.0469L27.9597 78.5452V78.0435L28.0301 76.9866L28.0671 76.4689L28.134 75.9672L28.1675 75.499L28.2414 74.9446L28.3073 74.4834L28.3093 74.4694L28.382 73.9231L28.4839 73.448L28.5507 72.9797L28.7648 71.9808L28.8765 71.4967L29.0103 71.0285L29.1106 70.5937L29.2592 70.0736L29.2761 70.0188L29.1775 69.6738L29.0772 69.2391L28.9434 68.7708L28.8317 68.2868L28.5173 66.8196L28.4504 66.3514L28.3486 65.8762L28.2758 65.3299L28.2739 65.316L28.2014 64.8091L28.1675 64.3338L28.1001 63.8286L28.0638 63.2845L28.0634 63.2774L28.0301 62.8127L27.9262 61.2541V59.1138L27.9961 58.0667L27.9965 58.0604L28.0297 57.5284L28.0662 56.9802L28.1331 56.4451L28.1666 55.9434L28.197 55.7ZM31.2423 75.2226L31.2241 75.3494L31.2222 75.3633L31.1633 75.8054L31.1298 76.2736L31.0629 76.7753L31.0333 77.1904L31.0328 77.1975L30.9697 78.1437V78.6454L30.9363 79.1471V80.5853L31.0032 81.5887V82.074L31.0638 82.529L31.0973 83.0641L31.1642 83.5658L31.1946 84.0521L31.2857 84.5079L31.3579 85.0854L31.3594 85.0976L31.4195 85.5476L31.6024 86.5231L31.7362 87.0248L31.8387 87.5715L31.9587 88.0516L32.0925 88.5533L32.3489 89.5789L32.5023 90.0392L32.8236 91.0672L32.963 91.4157L34.2979 92.872L35.7901 94.3642L36.1411 94.6859L36.5424 95.0204L36.9438 95.3883L37.2953 95.6812L37.73 96.0156L38.1023 96.3259L38.5371 96.6269L38.9385 96.9614L39.3415 97.2404L39.7104 97.517L40.1208 97.7696L40.5556 98.0706L41.7884 98.8292L42.2232 99.0634L42.6385 99.319L43.0679 99.5336L43.4819 99.7566L43.896 99.9477L44.3643 100.182L45.1935 100.565L45.6619 100.765L46.0544 100.946L46.1056 100.965L46.0388 100.869L45.3365 99.7657L45.0733 99.3896L44.656 98.6247L44.4075 98.2341L44.2175 97.8542L43.8029 97.094L43.4573 96.3337L43.2901 95.9993L43.0871 95.5527L42.9533 95.1848L42.7959 94.8387L42.6404 94.4498L42.3728 93.714L42.216 93.3218L42.1156 92.9539L41.9819 92.6195L41.8639 92.1869L41.7635 91.8524L41.6632 91.4845L41.5442 91.0877L41.4773 90.7198L41.3807 90.3981L41.1636 89.3123L41.0967 88.9444L41.0196 88.5589L40.9861 88.2579L40.9176 87.9153L40.8442 87.1813L40.8108 86.8804L40.8097 86.87L39.7265 86.0575L39.4493 85.82L39.2187 85.6182L38.9511 85.4175L38.6032 85.113L38.369 84.8789L37.7961 84.3776L37.562 84.11L37.3323 83.909L36.9938 83.5706L36.7597 83.303L36.4922 83.0355L36.2328 82.739L36.225 82.7302L35.9613 82.4336L35.6947 82.1289L35.4643 81.8326L35.1967 81.5315L34.4408 80.5596L34.2067 80.2252L33.9725 79.9242L33.6863 79.5154L33.4857 79.1809L33.2516 78.8465L33.0339 78.4837L32.7831 78.0896L32.573 77.7043L32.3723 77.3699L32.1811 77.0194L31.9175 76.6052L31.7182 76.1665L31.542 75.8142L31.3164 75.4007L31.2423 75.2226ZM44.1601 88.9468L44.3045 89.6688L44.4087 90.016L44.4756 90.3838L44.5572 90.6559L44.6575 91.0238L44.7579 91.3583L44.8405 91.6614L44.9743 91.9959L45.0746 92.3638L45.1853 92.6405L45.4529 93.3762L45.5649 93.6563L45.742 94.046L45.8758 94.4139L46.0072 94.703L46.1745 95.0375L46.4978 95.7488L46.8858 96.4601L47.0303 96.7492L47.25 97.0943L47.6354 97.801L47.8404 98.0938L48.5427 99.1975L48.7501 99.4937L49.0176 99.8616L49.2517 100.196L49.491 100.525L49.7316 100.826L50.0328 101.194L50.2781 101.501L51.2225 102.55L51.6645 102.645L52.0564 102.735L52.863 102.859L53.331 102.926L54.1522 103.052L54.5869 103.086L55.0217 103.153L55.4043 103.182L55.748 103.211H56.178L56.6128 103.244H57.0524L57.4537 103.278H58.1647L58.566 103.244H58.9722L59.3397 103.216L59.3493 103.215L59.8034 103.177H60.1094L60.4488 103.121L61.2404 103.055L61.6083 102.988L62.0096 102.954L63.3455 102.711L63.7134 102.611L64.0813 102.544L64.4364 102.447L64.7523 102.384L65.037 102.299L65.4049 102.199L66.3259 101.922L66.4994 101.853L66.478 101.838L66.2439 101.704L66.0098 101.536L65.7756 101.403L65.4339 101.159L65.2919 101.04L65.0578 100.907L64.6565 100.572L64.4224 100.438L63.9309 100.029L63.7636 99.8949L63.3624 99.5605L63.1417 99.384L62.9638 99.2061L62.8272 99.0923L62.6066 98.9158L62.4394 98.7486L62.2721 98.6148L61.987 98.3297L61.9057 98.228L61.8039 98.1466L61.2513 97.5939L61.1699 97.4922L61.0681 97.4108L60.6827 97.0253L60.4821 96.7747L60.4319 96.7076L60.0306 96.3063L59.9302 96.1725L59.6961 95.9384L59.5958 95.8046L59.462 95.6709L59.3617 95.5371L59.2613 95.4367L59.161 95.3029L59.0606 95.2026L58.9603 95.0688L58.7597 94.8682L58.6593 94.7344L58.2282 94.3033L58.2055 94.2692L58.1714 94.2465L57.6363 93.7114L57.536 93.6445L57.3688 93.4773L57.1681 93.3435L57.1012 93.2766L57.0584 93.2481L57.025 93.237L56.8243 93.1032L56.724 93.0697L56.5233 92.936L56.423 92.9025L56.3227 92.8356L56.122 92.7687L56.0217 92.7019L55.8104 92.6314L55.6953 92.5739L55.5988 92.5497L55.4984 92.5163L55.3647 92.4828L55.2644 92.4494L54.9968 92.3825L54.8964 92.3491L54.3296 92.2074H54.1624L53.8836 92.1377L53.7164 92.1042L53.5826 92.0708L53.4153 92.0373L53.2815 92.0039L52.0106 91.7497L51.8662 91.6919L51.802 91.6812L51.6348 91.6478L51.2976 91.5916L51.1304 91.5247L50.7291 91.4578L50.5618 91.3909L50.4051 91.3648L50.0205 91.2366L49.7864 91.2031L49.0866 90.9699L48.8526 90.903L48.6519 90.8361L48.0806 90.6729L47.8799 90.5726L47.6886 90.5179L47.4545 90.4176L47.2204 90.3507L45.7599 89.7247L45.4116 89.5941L45.1472 89.4431L44.9516 89.3592L44.6071 89.187L44.373 89.0532L44.1601 88.9468ZM68.9458 104.156L68.6788 104.263L68.3164 104.424L67.9124 104.545L67.6748 104.625L67.3193 104.767L66.2335 105.092L65.8656 105.193L65.4815 105.308L65.1284 105.379L64.7478 105.482L64.3799 105.549L64.012 105.65L62.4048 105.942L62.0034 105.975L61.6355 106.042L60.8218 106.11L60.3585 106.187H59.9286L59.5849 106.216L59.0877 106.254H58.6912L58.2899 106.288H57.3285L56.9272 106.254H56.4972L56.0625 106.221H55.6228L55.1687 106.183L55.1612 106.182L55.4767 106.44L55.8192 106.697L56.2206 106.965L56.6219 107.266L56.9658 107.495L57.4005 107.763L57.8018 108.03L59.0459 108.796L59.4224 108.999L59.8906 109.233L60.3252 109.467L61.6702 110.139L62.1196 110.332L62.6215 110.566L63.01 110.732L63.5117 110.9L64.0206 111.118L64.4642 111.295L65.412 111.611L65.9472 111.778L66.4076 111.932L66.898 112.054L67.3996 112.188L68.9501 112.576L70.0388 112.78L70.4143 112.71L70.9492 112.576L71.4844 112.476L71.9644 112.356L72.4662 112.222L72.9703 112.096L73.4943 111.932L73.9823 111.802L74.4538 111.645L74.989 111.477L75.4351 111.329L75.9219 111.134L76.3901 110.967L77.3503 110.583L77.761 110.407L78.2292 110.173L78.6974 109.972L79.5741 109.534L80.0087 109.3L80.438 109.085L80.8534 108.829L81.2881 108.595L82.5322 107.83L82.8761 107.6L83.2993 107.283L83.7069 107.032L84.0536 106.748L84.4814 106.463L84.8238 106.206L84.8816 106.159L84.6016 106.182L83.6697 106.254H83.2397L82.8383 106.288H81.877L81.4757 106.254H81.0409L80.6396 106.221H80.2382L79.3675 106.148L78.9382 106.109L78.5424 106.043L78.13 106.009L77.7621 105.942L77.3608 105.908L76.1214 105.683L75.7536 105.583L75.3669 105.513L75.0325 105.412L74.6646 105.345L74.2678 105.226L73.8999 105.126L72.4797 104.7L72.1242 104.558L71.8231 104.457L71.4886 104.323L71.1607 104.214L70.5586 103.947L70.2576 103.846L69.9904 103.728L69.9734 103.736L69.2738 104.047L68.9458 104.156ZM73.4798 101.857L74.7286 102.232L75.0964 102.332L75.3685 102.414L75.7364 102.481L76.0708 102.581L76.42 102.645L76.7879 102.745L77.7559 102.921L78.1573 102.954L78.5252 103.021L78.9154 103.054L79.3224 103.122L79.6231 103.149L79.6344 103.15L80.3634 103.211H80.7648L81.1661 103.244H81.6009L82.0022 103.278H82.7131L83.1145 103.244H83.5541L84.3565 103.182L84.366 103.182L84.7626 103.149L85.5799 103.086L86.0147 103.019L86.4495 102.985L86.7843 102.934L87.2526 102.834L88.1104 102.702L88.5024 102.611L88.7662 102.555L89.6546 101.567L89.9 101.261L90.201 100.893L90.4418 100.592L90.7094 100.224L90.9477 99.9261L91.1818 99.5581L91.4493 99.2237L91.8917 98.5286L92.0967 98.2358L92.2815 97.897L92.5156 97.5291L92.7068 97.1786L92.9074 96.8441L93.2677 96.1836L93.435 95.8157L93.649 95.4234L93.7917 95.1378L94.0904 94.4807L94.2337 94.0866L94.4009 93.7522L94.6471 93.0753L94.7809 92.7408L94.8853 92.4538L94.9919 92.0628L95.1257 91.7283L95.2084 91.4252L95.3087 91.0907L95.409 90.7228L95.5093 90.3884L95.5911 90.0888L95.6617 89.7357L95.762 89.4013L95.8507 88.9579L95.727 89.0197L95.4241 89.1928L95.1566 89.2931L94.9527 89.4096L94.6801 89.5264L94.4126 89.6602L92.8796 90.3172L92.6455 90.3841L92.4114 90.4845L92.1772 90.5513L91.9733 90.6388L91.6822 90.7358L91.214 90.8696L90.8126 91.0033L90.5785 91.0702L90.0962 91.231L89.8955 91.2645L89.4942 91.3982L89.2935 91.4317L89.0928 91.4986L88.7996 91.5474L88.7481 91.5577L88.5474 91.6246L88.2645 91.6812L88.0638 91.7147L87.5542 91.8166L87.387 91.8835L86.7709 92.0067H86.6065L86.484 92.0373L86.3168 92.0708L86.1829 92.1042L86.0158 92.1376L84.9025 92.416L84.8022 92.4494L84.5347 92.5163L84.4343 92.5497L84.3005 92.5832L84.1787 92.6238L84.1118 92.6684L83.9111 92.7353L83.8108 92.8022L83.6101 92.8691L83.5098 92.9359L83.4095 92.9694L83.2088 93.1032L83.1753 93.1143L82.8409 93.3373L82.8074 93.3484L82.7647 93.377L82.6643 93.4773L82.564 93.5442L82.4971 93.611L82.3968 93.678L81.4035 94.6712L81.3961 94.6823L81.2066 94.9351L80.7718 95.3698L80.5711 95.6374L80.337 95.8715L80.2367 96.0053L80.1029 96.1391L80.0025 96.2729L79.8688 96.4066L79.7684 96.5404L79.0829 97.226L78.9491 97.3932L78.0954 98.2469L77.9937 98.3283L77.8599 98.4955L77.6272 98.6817L77.2463 99.0626L77.0456 99.1963L76.9248 99.3171L76.7043 99.4936L76.5676 99.6075L76.3433 99.8318L76.0855 100.004L75.6842 100.338L75.4835 100.472L75.3015 100.624L75.002 100.837L74.8012 100.971L74.3331 101.306L74.1324 101.439L73.8561 101.637L73.5817 101.794L73.4798 101.857ZM99.1554 87.2485L99.082 87.9822L98.9976 88.4045L98.9466 88.6336L98.9161 88.9389L98.8361 89.3792L98.6858 90.1305L98.5855 90.465L98.5223 90.7808L98.4033 91.217L98.303 91.5514L98.2027 91.9193L98.1023 92.2537L97.9843 92.6864L97.8506 93.0208L97.7565 93.3656L97.5934 93.8144L97.4596 94.1488L97.1706 94.9435L97.0034 95.2779L96.8791 95.6196L96.5089 96.4341L96.3172 96.8175L96.1299 97.1609L95.9627 97.5288L95.5203 98.3398L95.3197 98.6742L95.1095 99.0595L94.8754 99.4274L94.6588 99.8244L94.3956 100.2L93.9316 100.93L94.096 100.854L94.5502 100.679L94.9731 100.498L95.3679 100.316L95.8361 100.081L96.2502 99.8904L97.099 99.4333L97.5284 99.2186L97.9437 98.963L98.3785 98.7289L99.1765 98.2378L99.6113 97.9368L100.022 97.6843L100.391 97.4076L101.228 96.8276L101.63 96.4931L102.065 96.1921L103.19 95.2546L103.992 94.5187L104.368 94.2053L105.113 93.4612L105.49 93.1154L106.529 91.9816L106.897 91.5469L107.064 91.365L107.143 91.1676L107.297 90.6747L107.464 90.1729L107.614 89.6931L107.74 89.1888L107.874 88.687L108.141 87.6169L108.263 87.1586L108.455 86.1351L108.554 85.6424L108.557 85.6246L108.646 85.1523L108.708 84.6567L108.709 84.6506L108.774 84.1611L108.776 84.1489L108.842 83.6199L108.842 83.6138L108.902 83.1645L108.933 82.6789L108.933 82.6758L108.966 82.1804L108.966 82.1741L109 81.6421L109 81.639L109.063 80.6858V78.7457L108.967 77.2979L108.966 77.2907L108.933 76.8261L108.903 76.3705L108.844 75.9319L108.842 75.918L108.745 75.2388L108.549 75.6314L108.371 76.0238L108.157 76.4161L107.956 76.8175L107.728 77.2361L107.501 77.614L107.267 77.982L107.066 78.3164L106.832 78.6844L106.614 79.0471L106.146 79.7161L105.926 80.083L105.659 80.4259L105.397 80.8008L105.104 81.1302L104.405 82.0286L104.139 82.3333L103.875 82.6299L103.867 82.6387L103.608 82.9351L103.34 83.2027L103.106 83.4702L102.768 83.8087L102.538 84.0097L102.304 84.2773L101.731 84.7786L101.497 85.0127L100.881 85.5513L100.654 85.7218L100.42 85.9559L99.4805 86.6604L99.2546 86.8016L99.1986 86.8496L99.1889 86.9473L99.1554 87.2485ZM99.3309 82.9082L99.4393 82.8134L99.6734 82.5793L100.171 82.1441L100.405 81.8766L100.71 81.6094L100.907 81.4127L101.141 81.1451L101.409 80.8776L101.614 80.6433L101.877 80.3467L101.885 80.3379L102.083 80.1119L102.789 79.2043L103.031 78.9316L103.237 78.6377L103.438 78.3785L103.619 78.0766L104.088 77.4077L104.271 77.1017L104.505 76.7337L104.706 76.3993L104.94 76.0314L105.115 75.7405L105.288 75.4233L105.488 75.022L105.676 74.6786L105.832 74.3351L106.022 73.9552L106.199 73.5291L106.4 73.1612L106.529 72.8517L106.696 72.4169L107.031 71.6143L107.172 71.2471L107.296 70.845L107.446 70.3946L107.583 70.0382L107.373 69.3549L107.205 68.9201L107.078 68.5052L106.763 67.7503L106.596 67.3156L106.3 66.6047L106.099 66.2368L105.921 65.8107L105.756 65.4797L104.78 63.691L104.606 63.3999L104.372 63.0321L104.188 62.7261L103.538 61.7971L103.304 61.4961L103.069 61.1616L101.98 59.7605L101.743 59.5238L101.484 59.2273L101.476 59.2185L101.212 58.9219L101.04 58.7254L100.773 58.4913L100.506 58.1859L100.309 57.9893L100.041 57.7552L99.8072 57.521L99.3309 57.1043V57.3847L99.2975 57.6522V57.9094L99.264 58.2104V58.4884L99.2173 58.862L99.1839 59.0961L99.0836 59.8988L99.0166 60.3671L98.9705 60.7366L98.8999 60.9835L98.833 61.4517L98.7662 61.6858L98.7448 61.8355L98.6944 62.1375L98.6275 62.3716L98.5941 62.5723L98.5272 62.8064L98.4884 63.0395L98.3546 63.4408L98.3211 63.6415L98.1796 64.0659L98.1462 64.2332L98.0124 64.6345L97.9703 64.8454L97.8685 65.0998L97.8452 65.1697L97.803 65.3805L97.7361 65.5477L97.7027 65.7149L97.5612 66.0686L97.5565 66.0781L97.5355 66.1832L97.4552 66.3838L97.4218 66.5176L97.3549 66.6848L97.3214 66.8186L97.2545 66.9858L97.1723 67.3146L97.1055 67.4484L97.0386 67.716L96.9717 67.8497L96.8305 68.4144L96.7971 68.5148L96.7636 68.6485L96.7557 68.6723V68.8396L96.6888 69.0402V69.174L96.6553 69.2743V69.4081L96.6219 69.5084V69.7426L96.5884 69.8429V69.9331H96.5584L96.5361 70H96.5884V70.2495L96.6219 70.3833V70.584L96.6553 70.7177V70.7846L96.7222 71.0522V71.127L96.7302 71.1508L96.8226 71.5204V71.6207L96.8546 71.7489L96.9382 71.9162L97.072 72.4513L97.1551 72.6176L97.2109 72.8963L97.2727 73.0199L97.3214 73.2148L97.3883 73.382L97.4218 73.5159L97.502 73.7165L97.5342 73.8773L97.6568 74.1226L97.7027 74.352L97.8456 74.7092L97.879 74.9098L97.9368 75.0543L97.979 75.2651L98.0023 75.335L98.1131 75.6122L98.1539 75.8568L98.1695 75.9035L98.2804 76.1807L98.3211 76.4254L98.4605 76.8434L98.4939 77.0776L98.5552 77.2615L98.5941 77.4946L98.661 77.7287L98.6944 77.9293L98.7661 78.1804L98.833 78.6486L98.8999 78.8827L98.9832 79.4658L99.0039 79.6312L99.0708 79.8654L99.117 80.235L99.1504 80.4691L99.1972 80.8427V81.1103L99.2975 81.913V82.1806L99.3309 82.4481V82.9082ZM96.2874 70L96.0867 69.9331H93.5784V69.3544L93.6119 69.2541V69.02L93.6453 68.9197V68.7859L93.6788 68.6855V68.6442L93.7456 68.3766V68.2762L93.838 67.9067L93.8715 67.8063L93.9049 67.6726L93.9384 67.5723L94.1317 66.7991L94.1985 66.6653L94.2654 66.3978L94.3323 66.264L94.3839 66.0576L94.4508 65.8904L94.4842 65.7566L94.5511 65.5894L94.5846 65.4556L94.6381 65.3219L94.684 65.0925L94.8066 64.8472L94.8388 64.6864L94.9056 64.5192L94.9304 64.3956L95.0409 64.064L95.0729 63.9841L95.0976 63.8605L95.2314 63.4591L95.2648 63.2919L95.3909 62.9137L95.4243 62.713L95.5581 62.3117L95.5862 62.1434L95.653 61.9093L95.6865 61.7086L95.7534 61.4745L95.7699 61.3752L95.8154 61.0566L95.8823 60.8225L95.9492 60.3543L96.0125 60.1329L96.0331 59.9674L96.1 59.4994L96.2004 58.6966L96.2338 58.4622L96.254 58.301V58.0437L96.2875 57.7427V57.4648L96.3209 57.1973V56.639L96.3543 56.338V55.6018L96.3209 55.3008V54.8099L95.6153 54.3689L95.3812 54.2351L95.1136 54.0679L94.9416 53.9696L94.4065 53.702L94.1724 53.5683L93.9817 53.4729L93.7091 53.3561L93.5053 53.2396L93.2377 53.1393L92.9733 52.9882L92.6161 52.8351L92.3486 52.7348L91.9361 52.558L91.6592 52.4789L91.4586 52.3786L91.2672 52.3239L91.0331 52.2236L90.8593 52.1739L90.5682 52.0769L90.3341 51.9766L90.2238 51.9398L89.9897 51.8729L89.87 51.833L89.7018 51.805L89.3542 51.7057L89.2346 51.6658L89.0339 51.6323L88.6326 51.4986L88.5244 51.4805L88.2415 51.424L88.0409 51.3571L87.9894 51.3468L87.6521 51.2906L87.4849 51.2237L87.4208 51.213L86.0241 50.9336L85.8903 50.9002L85.7231 50.8668L85.5893 50.8333L85.4221 50.7999L85.1657 50.7358H84.9985L84.3613 50.5765L84.261 50.5431L83.8597 50.4427L83.7593 50.4093L83.6256 50.3758L83.3689 50.2903L83.2351 50.2234L83.1908 50.2086L83.057 50.1752L82.7106 50.0597L82.6103 49.9928L82.4096 49.9259L82.3093 49.859L82.209 49.8256L82.1086 49.7587L82.0083 49.7253L81.8076 49.5915L81.5614 49.5094L81.3487 49.2967L81.0477 49.096L80.9808 49.0291L80.7801 48.8953L80.7132 48.8285L80.3861 48.6104L80.3018 48.4839L80.0778 48.2599L79.9775 48.193L79.6664 47.8819L79.5995 47.7816L79.1981 47.3802L79.1312 47.2799L78.9603 47.109L78.86 46.9752L78.6593 46.7745L78.559 46.6408L78.3249 46.4066L78.189 46.2255L78.0552 46.1252L77.8901 45.905L77.7563 45.7712L77.656 45.6374L77.5222 45.5036L77.4219 45.3699L77.0372 44.9852L76.9034 44.818L76.1517 44.0663L75.919 43.8801L75.7852 43.7129L75.6835 43.6315L75.3491 43.2971L75.2352 43.206L74.9705 42.9854L74.8604 42.8753L74.6597 42.7415L74.4354 42.5172L74.3489 42.4451L74.1483 42.3113L73.7469 41.9769L73.5463 41.8431L73.3269 41.6603L73.1581 41.5398L72.9575 41.406L72.7656 41.2689L72.4826 41.1072L72.2232 40.8911L72.1308 40.8251L71.8633 40.6913L71.595 40.4997L71.4013 40.389L71.1692 40.2439L70.9282 40.1234L70.632 39.9542L70.3999 39.8091L70.2269 39.7226L69.9865 39.6158L69.6666 39.7757L69.399 39.9429L69.1315 40.0767L68.8994 40.2218L68.6032 40.391L68.4039 40.4906L68.2039 40.6335L67.9698 40.7673L67.5016 41.1017L67.2675 41.2355L67.141 41.3259L66.8816 41.542L66.6475 41.6758L66.2862 41.9769L66.0855 42.1107L65.6842 42.4451L65.5406 42.5408L65.4305 42.6509L65.1658 42.8715L64.9985 43.0053L64.7979 43.1725L64.684 43.2636L64.3496 43.5981L64.2478 43.6795L64.1141 43.8467L63.8814 44.0328L63.1296 44.7845L62.9959 44.9518L62.6112 45.3364L62.5109 45.4702L62.2433 45.7377L62.143 45.8715L62.0092 46.0053L61.9089 46.1391L61.6748 46.3732L61.5744 46.507L61.4741 46.6073L61.3738 46.7411L61.2734 46.8414L61.1731 46.9752L60.8721 47.2762L60.7718 47.41L60.6008 47.5809L60.4496 47.8077L60.2289 47.9548L60.0818 48.1756L59.855 48.3268L59.5874 48.5943L59.4871 48.6612L59.3199 48.8284L59.2195 48.8953L59.1526 48.9622L58.8516 49.1629L58.7847 49.2298L58.3927 49.4911L58.2924 49.5246L58.1814 49.5985L58.1145 49.632L57.8242 49.8256L57.6235 49.8925L57.5231 49.9594L57.2556 50.0486L57.1887 50.0931L56.742 50.2421L56.6082 50.2755L56.5867 50.2827L56.4706 50.3601L56.14 50.4427L56.0397 50.4762L55.4025 50.6355H55.2994L55.1461 50.6661L54.611 50.7999L54.4438 50.8333L54.31 50.8668L54.1428 50.9002L54.009 50.9337L52.4451 51.2464L52.381 51.2571L52.2137 51.324L51.8124 51.3909L51.6452 51.4578L51.4005 51.4986L51.1998 51.5655L50.9992 51.5989L50.5978 51.7327L50.3648 51.7715L50.2441 51.806L49.8427 51.9398L49.6086 52.0067L49.4079 52.0736L49.2341 52.1232L49.0301 52.2107L48.8295 52.2776L48.5652 52.3908L48.3311 52.4577L47.8629 52.6584L47.6287 52.7253L47.3273 52.8544L47.0629 53.0055L46.7146 53.1361L46.5915 53.1889L46.3271 53.34L46.0596 53.4403L45.8942 53.5348L45.6266 53.6686L45.3925 53.8024L45.1515 53.9229L44.9195 54.0679L44.6233 54.2371L44.3823 54.3576L44.2148 54.4624L43.9806 54.6296L43.6794 54.8179L43.6788 54.8242V55.4345L43.6453 55.7355V56.4384L43.6788 56.7394V57.2976L43.7122 57.5652V57.8662L43.7791 58.4013V58.6688L43.7993 58.8304L43.8327 59.0644L43.8662 59.332L43.8996 59.5661L43.9203 59.7316L43.9835 59.9529L44.0334 60.3019L44.0668 60.5694L44.0839 60.6887L44.1459 60.906L44.1963 61.208L44.2176 61.3576L44.2797 61.5749L44.3132 61.7755L44.3476 61.8962L44.4415 62.1779L44.475 62.3786L44.5419 62.5792L44.5753 62.7799L44.7091 63.1813L44.7425 63.3819L44.7581 63.4286L44.869 63.7058L44.9024 63.9065L44.9602 64.0509L45.0024 64.2618L45.0257 64.3316L45.1274 64.5861L45.1596 64.7469L45.2822 64.9921L45.3281 65.2215L45.395 65.3887L45.416 65.4938L45.4829 65.6276L45.5164 65.7948L45.567 65.8961L45.6157 66.0911L45.6826 66.2583L45.7342 66.4647L45.8011 66.5984L45.9944 67.3715L46.0278 67.4719L46.0947 67.7394L46.1282 67.8398L46.1616 67.9735L46.1951 68.0739L46.2874 68.4435V68.5183L46.3543 68.719V68.9531L46.3878 69.0534V69.2875L46.4212 69.3879V70.679L46.3878 70.7793V71.0135L46.3543 71.1138V71.1552L46.3209 71.289V71.3893L46.2285 71.7589L46.2206 71.7827V71.8575L46.1282 72.2271L46.0947 72.3275L45.9609 72.8626L45.8754 73.1192L45.8346 73.2009L45.7495 73.541L45.6826 73.7082L45.6339 73.9032L45.5832 74.0045L45.5498 74.1717L45.4829 74.3055L45.4495 74.4727L45.3826 74.6065L45.3616 74.7116L45.2813 74.9123L45.2478 75.0461L45.1274 75.347L45.1027 75.4707L45.0358 75.6713L44.9937 75.8822L44.8919 76.1366L44.8686 76.2064L44.8352 76.3737L44.7247 76.7052L44.7018 76.7624L44.6756 76.9191L44.5419 77.3204L44.5084 77.5211L44.4471 77.7051L44.4137 77.9392L44.3468 78.1398L44.3133 78.3739L44.2464 78.5746L44.2176 78.7761L44.1508 79.0103L44.0839 79.4785L44.017 79.7126L43.9331 80.3L43.8662 80.8352L43.8327 81.0694L43.7456 81.7659V82.0335L43.7019 82.3838L43.6788 82.5917V83.1706L43.6453 83.4382V84.4317L43.6788 84.7327V85.0671L43.6919 85.1858L43.8803 85.3035L44.1144 85.4707L44.282 85.5755L44.5912 85.7301L44.8253 85.8973L45.2922 86.1308L45.5264 86.2646L45.7939 86.3983L46.028 86.5321L46.2186 86.6274L46.4912 86.7442L46.695 86.8607L46.8818 86.9308L48.2308 87.5089L48.4649 87.5758L48.699 87.6761L48.9759 87.7552L49.1766 87.8555L49.5417 87.9599L49.7424 88.0268L49.9765 88.0936L50.4808 88.2617L50.7149 88.2952L51.1329 88.4345L51.3776 88.4753L51.5448 88.5422L51.9462 88.6091L52.1134 88.676L52.1775 88.6867L52.3447 88.7201L52.682 88.7763L52.8719 88.8523L53.9422 89.0664L54.076 89.0998L54.2431 89.1332L54.3769 89.1667L54.5301 89.1973H54.6305L54.9789 89.267L55.7387 89.4569L55.839 89.4904L56.1065 89.5573L56.2068 89.5907L56.3407 89.6242L56.441 89.6576L56.5748 89.6911L56.8314 89.7766L56.9652 89.8435L57.3559 89.9737L57.4563 90.0406L57.6569 90.1075L57.7573 90.1744L57.8576 90.2079L58.0583 90.3416L58.1586 90.3751L58.3593 90.5089L58.6055 90.5909L58.8182 90.8037L59.0189 90.9374L59.0857 91.0043L59.2864 91.1381L59.4536 91.3053L59.554 91.3722L59.8215 91.6398L60.0483 91.791L60.1553 91.9515L60.1894 91.9742L60.5005 92.2853L60.5674 92.3856L60.939 92.7572L61.0393 92.891L61.24 93.0917L61.3403 93.2255L61.4407 93.3258L61.541 93.4596L61.6413 93.5599L61.7417 93.6937L61.8755 93.8275L61.9758 93.9613L62.2099 94.1954L62.3102 94.3291L62.7116 94.7305L62.862 94.9311L62.929 95.0148L63.0787 95.1645L63.3114 95.3506L63.4976 95.5834L63.8144 95.9003L64.0472 96.0864L64.2333 96.3191L64.2827 96.3685L64.4499 96.5023L64.6171 96.6695L64.731 96.7606L64.9957 96.9812L65.1522 97.1377L65.2661 97.2288L65.6672 97.5631L65.8347 97.6971L66.1458 97.9563L66.3799 98.0901L66.7813 98.4246L67.0154 98.5583L67.2748 98.7745L67.4013 98.8648L67.6354 98.9986L67.8695 99.1658L68.1036 99.2996L68.3036 99.4425L68.5712 99.5763L68.8052 99.7435L69.2987 99.9902L69.5663 100.157L70.0145 100.382L70.2661 100.224L70.8012 99.9568L71.0688 99.7895L71.2947 99.6766L71.4947 99.5337L71.7691 99.3769L72.0367 99.2097L72.2305 99.0989L72.4224 98.9619L72.6231 98.828L73.0913 98.4937L73.292 98.3598L73.4607 98.2394L73.68 98.0566L73.8807 97.9227L74.282 97.5883L74.4256 97.4926L74.5357 97.3825L74.8004 97.1619L74.9143 97.0708L75.1279 96.8572L75.3286 96.7234L75.6166 96.4354L75.7184 96.354L75.8521 96.1868L76.0848 96.0006L76.7028 95.3827L76.8365 95.2155L77.4888 94.5633L77.5891 94.4295L77.7228 94.2957L77.8232 94.1619L77.957 94.0282L78.0573 93.8944L78.2914 93.6603L78.4921 93.3927L78.9269 92.9579L78.9379 92.9432L79.0644 92.7535L79.566 92.2519L79.7172 92.0251L79.8778 91.9181L79.9848 91.7575L80.2116 91.6063L80.4791 91.3388L80.5794 91.2719L80.6463 91.205L80.7467 91.1381L80.847 91.0378L80.9474 90.9709L81.0142 90.904L81.4063 90.6427L81.4397 90.6315L81.7742 90.4085L81.8745 90.3751L82.0752 90.2413L82.1755 90.2079L82.2758 90.141L82.4765 90.0741L82.5768 90.0072L82.7775 89.9403L82.927 89.8406L83.2576 89.758L83.4583 89.6911L83.5921 89.6576L83.6924 89.6242L83.96 89.5573L84.0603 89.5238L85.3552 89.2001L85.5223 89.1667L85.6562 89.1332L85.8234 89.0998L85.9572 89.0663L86.3057 88.9967H86.4729L86.5257 88.9861L86.6929 88.9192L87.5211 88.7536L87.7218 88.7201L87.7733 88.7098L87.974 88.6429L88.2569 88.5863L88.365 88.5683L88.5657 88.5014L88.7664 88.468L89.1677 88.3342L89.3684 88.3008L89.6887 88.194L89.9228 88.1271L90.3242 87.9933L90.7923 87.8595L90.9027 87.8228L91.1669 87.7095L91.401 87.6426L91.6351 87.5423L91.8692 87.4754L93.1456 86.9284L93.4131 86.7946L93.6088 86.7108L93.8732 86.5597L94.1407 86.4594L94.3061 86.3649L94.5737 86.2311L94.7457 86.1328L95.0487 85.9434L95.2747 85.8304L95.5088 85.6632L95.818 85.5086L95.9856 85.4039L96.2197 85.2366L96.314 85.1777L96.3209 85.1089V84.4986L96.3543 84.1976V83.4947L96.3209 83.1937V82.6355L96.2875 82.3679V82.1004L96.1871 81.2977V81.0301L96.1669 80.8686L96.1335 80.6345L96.1128 80.4691L96.0459 80.235L95.9997 79.8654L95.9492 79.5119L95.8823 79.2778L95.8154 78.8096L95.7534 78.5924L95.7199 78.3917L95.653 78.1576L95.625 77.9893L95.5525 77.7719L95.5191 77.5378L95.3909 77.1532L95.3648 76.9965L95.3419 76.9393L95.2237 76.5846L95.1975 76.428L95.1747 76.3707L95.0641 76.0392L95.0394 75.9156L94.9634 75.7256L94.93 75.5249L94.8053 75.2133L94.7843 75.1082L94.7795 75.0987L94.6381 74.745L94.6046 74.5778L94.5511 74.444L94.5177 74.3103L94.4508 74.143L94.4326 74.0704L94.3658 73.9367L94.2836 73.6079L94.2826 73.6032L94.232 73.5019L94.0982 72.9667L94.0574 72.8851L93.9718 72.6285L93.9049 72.3609L93.8125 72.0837V71.9165L93.8046 71.8927L93.7122 71.5231V71.4482L93.6453 71.2476V71.0883L93.6119 70.9545V70.7538L93.5784 70.6201V70H96.2874ZM40.6687 82.9207V82.425L40.7125 82.0309L40.7356 81.8461V81.5785L40.8492 80.6698L40.8826 80.4357L40.9495 79.9006L41.0663 79.0834L41.1332 78.8493L41.2001 78.381L41.2669 78.1469L41.305 77.8802L41.3719 77.6796L41.4054 77.4455L41.4723 77.2448L41.5057 77.0107L41.5782 76.7933L41.6116 76.5926L41.7454 76.1913L41.7862 75.9466L41.8971 75.6694L41.9203 75.5996L41.9538 75.4324L42.0643 75.1008L42.0963 75.0209L42.121 74.8973L42.1879 74.6966L42.2301 74.4857L42.3772 74.1178L42.4107 73.984L42.4642 73.8503L42.51 73.6209L42.5769 73.4871L42.6104 73.3199L42.6773 73.1861L42.7107 73.0189L42.7939 72.8526L42.812 72.78L42.8789 72.6128L42.9945 72.1503L43.0781 71.9831L43.2026 71.4853L43.2105 71.4614V71.3866L43.3029 71.017L43.3109 70.9932V70.9184L43.3443 70.7846V70.6253L43.3778 70.525V70.2909L43.4112 70.1906V69.8763L43.3778 69.776V69.5419L43.3443 69.4416V69.1819L43.2774 68.9144V68.8395L43.2695 68.8157L43.236 68.682L43.2026 68.5816L43.1357 68.3141L43.1023 68.2137L42.9611 67.649L42.8942 67.5153L42.812 67.1865L42.7451 67.0193L42.727 66.9467L42.6438 66.7804L42.6104 66.6132L42.5435 66.4794L42.4976 66.25L42.4307 66.0828L42.4097 65.9778L42.405 65.9683L42.2635 65.6146L42.2301 65.4474L42.1981 65.3674L42.0876 65.0359L42.0628 64.9123L41.9868 64.7223L41.9534 64.5216L41.9305 64.4644L41.8123 64.1097L41.7788 63.9091L41.6451 63.5077L41.6116 63.3071L41.5447 63.1064L41.5113 62.9057L41.4714 62.786L41.3721 62.4385L41.3387 62.2379L41.2669 61.9869L41.2214 61.6683L41.2049 61.569L41.1332 61.318L41.0833 60.969L41.0499 60.7014L41.0328 60.5822L40.9623 60.3353L40.9161 59.9656L40.8826 59.7315L40.8492 59.464L40.8158 59.2299L40.7691 58.8562V58.5887L40.7022 58.0536V57.7526L40.6687 57.485V57.0783L40.5269 57.22L40.0296 57.6552L39.7955 57.9228L39.4901 58.1899L39.2934 58.3866L39.0593 58.6542L38.7918 58.9218L38.5577 59.1893L38.3209 59.426L38.1176 59.6874L37.851 59.9921L37.6123 60.2606L36.9636 61.0947L36.7295 61.4292L36.4953 61.7302L36.3133 61.9903L36.1126 62.3247L35.6622 62.9683L35.4615 63.3361L35.2274 63.6706L34.2771 65.4128L34.1009 65.7652L33.9337 66.1331L33.7437 66.513L33.1027 68.0513L32.9552 68.4348L32.8215 68.8361L32.6605 69.2546L32.4235 70.0251L32.5875 70.5583L32.7548 70.9597L32.8947 71.4143L33.0358 71.7814L33.6768 73.3198L33.8775 73.7211L34.0344 74.0976L34.2102 74.42L34.4353 74.8703L34.5704 75.1674L34.775 75.489L34.9852 75.8742L35.1859 76.2087L35.377 76.5592L35.5946 76.901L35.7782 77.207L36.0123 77.5415L36.213 77.8759L36.395 78.136L36.6291 78.437L36.8632 78.7715L37.512 79.6056L37.7796 79.9066L38.0173 80.2122L38.215 80.4383L38.2228 80.4471L38.4865 80.7436L38.6914 80.9779L38.959 81.2455L39.1931 81.513L39.3898 81.7097L39.6952 81.9769L39.9293 82.2445L40.4266 82.6796L40.6607 82.9137L40.6687 82.9207ZM31.2389 64.7874L31.3837 64.4689L31.6089 64.0186L32.6652 62.0819L32.8994 61.7475L33.1 61.3796L33.586 60.6853L33.7867 60.3509L34.0729 59.942L34.307 59.641L34.5411 59.3066L35.297 58.3347L35.5935 58.0011L35.7951 57.7708L36.06 57.4301L36.3584 57.1317L36.5925 56.8642L36.8601 56.5966L37.0942 56.3291L37.4326 55.9907L37.6623 55.7896L37.8965 55.5221L38.4694 55.0208L38.7437 54.7465L39.0514 54.5156L39.319 54.2815L39.8139 53.9103L40.048 53.6762L40.4523 53.373L40.7199 53.2058L40.7964 53.1483L40.8108 53.0193L40.8842 52.2854L40.9511 51.9509L40.9845 51.6165L41.4105 49.4868L41.5294 49.0506L41.6148 48.7658L41.678 48.45L41.797 48.0138L41.9152 47.6199L42.0489 47.252L42.1493 46.9175L42.4397 46.1187L42.5735 45.7843L42.8529 45.0159L43.0301 44.6262L43.1638 44.2918L43.7153 43.0784L43.916 42.744L44.0704 42.4043L44.7134 41.2254L44.9402 40.8475L45.3918 40.1378L45.6084 39.7408L45.8984 39.3265L46.0974 39.0528L45.784 39.1872L45.3492 39.3544L44.9687 39.5174L44.5522 39.7417L44.0967 39.952L43.6284 40.1861L43.2144 40.3772L42.8586 40.5687L42.4238 40.8363L41.9675 41.082L41.537 41.328L40.7116 41.836L40.344 42.081L39.0739 42.9603L38.6726 43.2613L38.2696 43.5403L37.8973 43.8506L37.4625 44.185L36.7097 44.8124L35.556 45.8699L35.1881 46.2378L34.8109 46.5836L34.0972 47.3622L33.6958 47.7635L33.3741 48.1145L33.0587 48.4929L32.9635 48.6055L32.9288 48.7165L32.7232 49.2649L32.5692 49.7267L32.4192 50.2066L32.282 50.7555L32.1148 51.2572L32.0059 51.6927L31.9034 52.2394L31.7696 52.7411L31.6715 53.2646L31.5473 53.7611L31.4864 54.2182L31.3771 54.8013L31.2857 55.258L31.1642 56.2305L31.1307 56.7321L31.0638 57.2673L31.0337 57.7193L31.0333 57.7255L31 58.2575L30.9363 59.214V61.1539L31.0328 62.6018L31.0333 62.6089L31.0665 63.0736L31.0969 63.5293L31.1633 64.0274L31.1962 64.4886L31.2389 64.7874ZM50.1341 38.6743L49.8923 39.0068L49.3572 39.6757L48.8504 40.3725L48.6163 40.707L48.3487 41.0749L48.1705 41.3295L47.9857 41.6682L47.5009 42.4301L47.3264 42.721L46.7653 43.7496L46.5853 44.1456L46.3846 44.4801L45.9328 45.4741L45.799 45.8086L45.6417 46.1547L45.386 46.8578L45.2522 47.1923L45.0076 47.8651L44.9072 48.1995L44.7735 48.5674L44.6909 48.8424L44.6093 49.142L44.5386 49.4951L44.4234 49.8792L44.3417 50.1787L44.1707 51.0337L44.2058 51.0137L44.4733 50.8799L44.7762 50.7069L45.0437 50.6065L45.2476 50.49L45.5927 50.3421L45.7795 50.2721L45.9834 50.1556L46.6184 49.8834L46.8525 49.8166L47.3207 49.6159L47.5548 49.549L47.7588 49.4616L47.9595 49.3947L48.2237 49.2814L48.5181 49.1973L48.7188 49.1304L48.9529 49.0636L49.3542 48.9298L49.7018 48.8305L49.87 48.8024L50.2714 48.6687L50.472 48.6352L50.6727 48.5683L50.8294 48.5422L50.9966 48.4753L51.3979 48.4084L51.5652 48.3415L51.9024 48.2853L53.3485 47.9961L53.4823 47.9627L53.6495 47.9292L53.7833 47.8958L53.9505 47.8623L54.4856 47.7286L54.5961 47.7065L54.8392 47.6254H55.0319L55.1975 47.584L55.219 47.5769L55.3351 47.4995L55.6657 47.4168L55.766 47.3834L55.8635 47.359L56.004 47.2654L56.218 47.2118L56.2892 47.1644L56.4899 47.0975L56.6008 47.0235L56.6677 46.9901L56.9581 46.7965L56.9916 46.7853L57.235 46.6231L57.3019 46.5562L57.4022 46.4893L57.5694 46.322L57.6698 46.2552L58.4921 45.4328L58.5924 45.299L58.8934 44.998L58.9938 44.8643L59.0941 44.7639L59.1944 44.6301L59.2948 44.5298L59.3951 44.396L59.6292 44.1619L59.7295 44.0281L59.8633 43.8944L59.9637 43.7606L60.2312 43.493L60.3316 43.3592L60.7496 42.9412L60.8834 42.774L61.8708 41.7866L61.9725 41.7052L62.1063 41.5379L62.339 41.3518L62.6735 41.0173L62.894 40.8409L63.0947 40.6736L63.262 40.5399L63.3986 40.426L63.6229 40.2017L63.8807 40.0298L64.282 39.6954L64.4827 39.5616L64.9241 39.1938L65.1582 39.06L65.3001 38.9417L65.6419 38.6976L65.876 38.5638L66.3442 38.2294L66.4811 38.1511L66.4597 38.1447L66.1252 38.0109L65.2043 37.7346L64.9047 37.6529L64.5702 37.586L64.2023 37.4857L63.8679 37.4188L63.5127 37.3219L62.484 37.1349L62.0826 37.068L61.7755 37.0122L61.3742 36.9787L61.0063 36.9118L59.1345 36.7559H58.3319L57.9305 36.7224H57.2148L56.78 36.7559H56.3501L56.0063 36.7845L54.3194 36.9143L52.6287 37.1744L52.2157 37.2334L51.397 37.4223L51.2042 37.4636L51.0084 37.7029L50.1341 38.6743ZM55.1349 33.8326L55.7611 33.7845L55.7707 33.7837L56.2248 33.7458H56.6644L57.0992 33.7124H58.0557L58.4571 33.7458H59.2597L61.4014 33.9243L61.7693 33.9912L62.1706 34.0246L62.5993 34.1026L63.0006 34.1695L64.1792 34.3837L64.5599 34.4876L64.8943 34.5544L65.2622 34.6548L65.5966 34.7217L66.0328 34.8406L67.1186 35.1664L67.453 35.3001L67.7451 35.3877L68.1097 35.5093L68.4441 35.6431L68.7721 35.7524L69.9955 36.2961L70.2603 36.1637L70.6185 36.0045L71.0204 35.8437L71.2944 35.7524L71.6163 35.6093L71.9508 35.509L72.2518 35.3752L74.0337 34.8406L74.4016 34.7403L74.7984 34.6213L75.185 34.551L75.5529 34.4506L75.9718 34.3745L76.2582 34.3172L76.6723 34.2136L77.1545 34.126L77.5224 34.0925L77.8351 34.0357L78.3083 33.9568L78.7599 33.9192L78.7712 33.9182L79.1334 33.8853L80.8068 33.7458H81.2129L81.6477 33.7124H82.566L83.0008 33.7458H83.8369L84.829 33.8221L84.5898 33.6264L83.8459 33.0685L83.0433 32.5334L82.6639 32.2489L82.2647 32.0032L81.8995 31.7598L81.4888 31.5386L81.0379 31.2611L80.6074 31.0151L80.2094 30.8008L79.7411 30.5667L79.3063 30.3326L78.8981 30.1285L78.4299 29.9278L77.9781 29.7019L77.5175 29.5176L77.0492 29.317L76.5476 29.1163L76.0794 28.9157L75.6358 28.7382L74.6879 28.4222L74.1527 28.255L73.6813 28.0979L73.2354 27.979L72.6694 27.8375L72.1772 27.6837L71.685 27.5914L71.1499 27.4576L70.6148 27.3573L70.0797 27.2235L70.0779 27.2231L69.6673 27.3001L69.0987 27.4005L68.6272 27.4889L68.1689 27.6111L67.1295 27.8709L66.6057 28.0346L66.1177 28.1648L65.6462 28.3219L65.1111 28.4891L64.6649 28.6379L64.1781 28.8326L63.7099 28.9998L62.7497 29.3839L62.339 29.5599L61.8708 29.794L61.4026 29.9947L60.0578 30.667L59.623 30.9011L59.1937 31.1158L58.3655 31.6255L57.9641 31.8596L57.579 32.0966L57.1667 32.3821L56.3878 32.9013L55.6097 33.4849L55.2418 33.7525L55.1349 33.8326ZM78.416 26.6279L78.6695 26.7365L79.2122 26.9536L79.6969 27.196L80.1651 27.3966L80.6933 27.6607L81.1281 27.8948L81.5963 28.129L82.0678 28.3829L82.5738 28.672L82.9924 28.9296L83.4513 29.1767L83.8888 29.4684L84.3592 29.7578L84.7825 30.0753L85.5851 30.6104L86.4466 31.2565L86.8146 31.5575L87.2159 31.8585L88.4023 32.8292L88.7367 33.1636L89.1046 33.4647L90.189 34.5491L90.3625 34.7419L90.7587 34.8333L91.1822 34.9636L91.6504 35.0639L92.1801 35.2269L92.6484 35.3941L93.0832 35.5279L93.6001 35.7125L94.0349 35.8798L94.5031 36.047L94.9813 36.2309L95.4947 36.4509L96.3642 36.8522L96.8324 37.0529L97.3281 37.2817L97.7836 37.5269L98.2518 37.7611L99.1797 38.2607L99.6145 38.5282L100.049 38.7624L100.556 39.0739L100.99 39.375L101.425 39.6425L102.352 40.2839L102.753 40.5849L103.188 40.8859L103.327 40.9906L103.188 40.759L102.875 40.3199L102.54 39.8182L101.571 38.4613L101.241 38.0417L100.873 37.6068L100.526 37.1642L100.124 36.7294L99.7564 36.2612L98.6338 35.045L98.199 34.6437L97.7976 34.2089L96.9926 33.4658L96.5244 33.0645L96.0897 32.6631L95.6668 32.3007L95.1986 31.9328L94.7304 31.5315L93.8653 30.8518L93.3845 30.5312L92.9806 30.235L92.6218 30.0662L92.1207 29.847L90.9835 29.3787L90.4838 29.1601L88.2992 28.3891L87.2115 28.0691L86.6493 27.913L86.0697 27.7766L85.5012 27.6094L85.0211 27.4964L84.4192 27.3961L83.8436 27.2607L83.331 27.1702L83.3169 27.1677L82.7647 27.0758L82.189 27.008L81.6252 26.9086L81.0663 26.8464L80.5365 26.7841L79.9728 26.751L79.3708 26.6841L78.416 26.6279ZM76.7983 23.5786L75.9176 23.4318L75.2821 23.3649L74.6801 23.2646L74.1289 23.2066L73.4891 23.1729L72.8871 23.106L71.6599 23.0414L71.6555 23.0412L71.0952 23.01H69.3036L68.6682 23.0435H68.0349L67.5117 23.0725L66.8741 23.1397L66.243 23.1729L65.6801 23.2354L65.0854 23.298L64.4834 23.3984L63.848 23.4652L63.3222 23.5529L63.2 23.5786H63.7564L64.325 23.612H64.8935L66.6927 23.7179L67.266 23.7896L67.2768 23.7909L68.4085 23.924L68.9866 23.9963L69.5552 24.0966L70.0738 24.1614L70.7763 24.0297L71.9536 23.8912L71.9644 23.8899L72.4941 23.8237L73.1117 23.751L73.6803 23.7176L74.2929 23.6455H74.872L76.0091 23.5786H76.7983ZM49.8682 29.0318L49.2997 29.2659L48.7311 29.4666L48.2134 29.6797L47.7123 29.899L47.1786 30.1501L47.0109 30.234L46.9162 30.2971L46.4618 30.6303L45.9671 31.019L45.4922 31.3356L45.0686 31.6987L44.6004 32.0666L44.1529 32.4502L43.7217 32.8149L43.2745 33.1982L42.8822 33.5604L42.4474 33.9952L42.0348 34.3761L41.6334 34.8109L41.1987 35.2122L40.4588 36.0137L40.1088 36.4273L39.7075 36.8955L39.3603 37.3058L38.2948 38.662L37.0119 40.458L36.7299 40.9281L36.71 40.9591L36.9123 40.819L37.3136 40.518L38.6523 39.5912L39.0874 39.3011L40.0011 38.7389L40.5071 38.4498L40.9203 38.2272L41.3551 37.9597L41.8689 37.683L42.3244 37.4728L42.7926 37.2387L43.2067 37.0476L43.6597 36.8036L44.2157 36.5654L44.6505 36.3981L45.1187 36.1975L45.5969 36.0135L46.0651 35.8463L46.4999 35.6791L47.0168 35.4945L47.933 35.2126L48.4012 35.0788L48.836 34.945L49.3561 34.7964L49.6254 34.7343L50.3991 33.9606L50.7962 33.5996L51.1041 33.3225L51.4636 32.963L51.8593 32.6392L52.2272 32.3048L53.0179 31.6579L53.4535 31.3312L53.8214 31.0636L54.6486 30.4432L55.4751 29.8922L55.9324 29.5756L56.4168 29.2775L56.8182 29.0434L57.729 28.4828L58.2362 28.2293L58.6709 27.9952L60.1355 27.2629L60.6038 27.0622L61.072 26.8281L61.4789 26.6537L61.4463 26.6555H60.9242L60.3972 26.7175L59.7952 26.751L58.1714 26.942L57.5694 27.0423L57.008 27.1084L56.5147 27.1954L55.9127 27.3292L55.3534 27.4279L54.817 27.5541L54.215 27.6879L53.6958 27.81L51.4997 28.456L49.8682 29.0318ZM106.78 40.8865L106.929 41.1646L107.23 41.6663L107.802 42.7385L108.036 43.2402L108.303 43.7419L108.562 44.2965L108.813 44.8703L109.007 45.3551L109.248 45.8715L109.463 46.4461L109.68 46.9869L109.715 47.0991L110.068 47.5161L110.774 48.4346L111.109 48.9029L111.443 49.3376L111.814 49.8575L112.115 50.3258L112.463 50.8129L112.783 51.3463L113.084 51.8144L113.406 52.3498L113.578 52.652L113.404 52.1304L112.964 51.0605L112.696 50.4585L112.468 49.9049L112.224 49.3863L111.973 48.8827L111.663 48.2983L111.404 47.7471L111.147 47.29L110.802 46.7385L110.485 46.1391L110.21 45.6511L109.906 45.1644L109.596 44.6988L109.584 44.681L109.222 44.1548L108.893 43.662L108.881 43.6442L108.539 43.1458L107.85 42.207L107.449 41.7388L107.081 41.2371L106.78 40.8865ZM114.707 63.1564L114.212 61.4739L114.056 60.9766L113.669 59.8795L113.488 59.3956L113.263 58.8825L113.014 58.2766L112.839 57.8117L112.591 57.3457L112.349 56.7925L112.089 56.2736L111.864 55.7899L111.788 55.6474L111.793 55.6874L111.794 55.6996L111.867 56.2414L111.9 56.7766L111.967 57.2782L112.003 57.8597L112.004 57.866L112.04 58.4114V58.9162L112.073 59.4514V61.0534L112.04 61.5552V62.0568L111.966 63.1667L111.899 63.6349L111.866 64.1366L111.793 64.6471L111.791 64.661L111.725 65.1557L111.592 66.0852L111.59 66.0991L111.517 66.6455L111.402 67.1831L111.302 67.6178L110.989 69.0754L110.722 69.9449L110.714 69.9803L110.923 70.6571L111.135 71.6466L111.235 72.0811L111.549 73.5483L111.624 74.075L111.69 74.5698L111.692 74.5837L111.825 75.5132L111.9 76.0711L111.936 76.6152L111.936 76.6223L111.969 77.087L112.073 78.6455V80.7859L112.003 81.8392L111.97 82.3713L111.97 82.3744L111.937 82.8698L111.936 82.876L111.9 83.4576L111.828 83.9994L111.826 84.0116L111.781 84.373L111.997 83.9091L112.256 83.4236L112.483 82.9066L112.75 82.3714L112.953 81.9087L113.153 81.3736L113.381 80.852L113.569 80.3214L113.769 79.7862L113.97 79.2177L114.157 78.7201L114.64 77.0778L114.796 76.5159L114.932 75.9361L115.085 75.4153L115.179 74.8541L115.32 74.2555L115.324 74.2372L115.445 73.6926L115.54 73.1234L115.633 72.5953L115.699 72.0004L115.8 71.3984L115.857 70.8784L115.891 70.2764L115.925 69.9666L115.729 68.2026L115.728 68.193L115.667 67.67L115.38 65.9485L115.255 65.4192L115.123 64.8263L115.119 64.8081L114.863 63.7183L114.707 63.1564ZM113.517 87.4713L113.252 87.8844L112.951 88.3862L112.65 88.8544L112.349 89.3562L112.001 89.8974L111.644 90.3613L110.975 91.2978L109.934 92.6511L109.674 92.9577L109.564 93.2528L109.363 93.7543L109.162 94.2896L108.947 94.8287L108.696 95.4025L108.203 96.4588L107.668 97.4621L107.418 97.9983L107.096 98.5344L106.828 99.0361L106.774 99.1261L106.934 98.9396L107.311 98.4682L107.32 98.4578L107.664 98.0196L108.739 96.5533L109.082 96.0548L109.094 96.037L109.422 95.5442L109.778 95.0275L110.076 94.5495L110.377 94.0144L110.712 93.4792L110.986 92.9913L111.287 92.4227L111.571 91.9185L112.09 90.8145L112.358 90.2792L112.611 89.7419L112.864 89.1737L113.304 88.1037L113.505 87.5017L113.517 87.4713ZM98.4461 105.144L99.9905 103.471L100.358 103.003L100.76 102.568L101.069 102.174L101.42 101.684L101.788 101.249L102.072 100.851L102.407 100.349L103.055 99.4417L103.316 99.0062L103.052 99.2259L102.151 99.8499L101.717 100.175L101.258 100.458L100.823 100.759L99.882 101.338L99.4472 101.572L98.993 101.852L98.486 102.105L97.5956 102.585L97.1401 102.795L96.6719 103.029L96.197 103.248L95.6836 103.468L95.2682 103.628L94.8169 103.836L94.3024 104.02L93.8676 104.187L93.3993 104.354L92.9191 104.539L92.4012 104.687L91.9664 104.821L91.4981 104.955L91.0263 105.1L90.5767 105.204L90.3388 105.272L90.3297 105.28L90.0552 105.585L89.3053 106.335L88.9374 106.636L88.6029 106.97L88.2074 107.294L87.8394 107.628L86.6808 108.576L86.2206 108.921L85.8458 109.171L85.4566 109.49L84.9947 109.774L84.6152 110.059L84.1564 110.364L82.7917 111.204L82.3571 111.438L81.9027 111.718L81.3955 111.971L80.9608 112.206L79.9644 112.704L79.4962 112.904L79.028 113.138L78.5308 113.352L79.1781 113.313L79.1805 113.313L79.7826 113.28L80.3025 113.249L80.8273 113.188L80.8321 113.187L81.3911 113.125L81.9549 113.025L82.5305 112.958L83.0827 112.866L83.0969 112.863L84.1872 112.671L84.7387 112.548L84.757 112.544L86.4151 112.154L86.9778 111.998L88.065 111.678L88.6337 111.477L89.2022 111.31L90.2652 110.935L90.7828 110.722L91.318 110.488L92.4194 110.034L92.9398 109.774L93.0484 109.726L93.1838 109.636L93.6382 109.303L94.1064 108.935L94.608 108.567L95.4778 107.884L95.889 107.504L96.3573 107.103L96.792 106.701L97.2374 106.32L97.6191 105.938L98.0539 105.537L98.4461 105.144ZM76.7649 116.421H76.3795L75.7775 116.388H75.2037L74.6272 116.352L74.6217 116.352L73.4462 116.282L72.8778 116.216L72.3036 116.182L71.6819 116.104L71.1134 116.004L70.5782 115.937L70.0277 115.84L69.8562 115.87L69.321 115.937L68.7525 116.037L68.1744 116.109L67.6112 116.176L67.6004 116.177L67.0271 116.249L64.6594 116.388H64.0909L63.5223 116.421H63.3175L63.6523 116.474L64.2479 116.574L64.2606 116.576L64.8493 116.669L65.4082 116.731L65.4169 116.732L66.048 116.798L66.6109 116.861L67.8381 116.925L67.8425 116.925L68.4401 116.959L69.036 116.99H70.8298L72.0568 116.925L72.0612 116.925L72.6588 116.892L72.6632 116.892L73.255 116.861L73.8179 116.798L75.0844 116.665L75.0931 116.664L75.652 116.602L76.2407 116.509L76.2534 116.507L76.7649 116.421ZM53.99 112.247L54.5829 112.379L55.6878 112.639L56.2004 112.73L56.2146 112.732L56.8095 112.831L57.9062 113.025L58.4603 113.086L58.4652 113.087L59.5974 113.22L59.6071 113.221L60.1605 113.282L61.2539 113.347L61.5009 113.361L61.3917 113.314L60.8899 113.08L60.4031 112.871L58.9385 112.139L58.5037 111.905L58.0355 111.67L57.5424 111.405L56.1777 110.565L55.7763 110.298L55.3416 110.03L54.8827 109.724L54.4814 109.423L54.0801 109.155L53.6199 108.81L52.884 108.208L52.4828 107.907L52.0322 107.539L51.6977 107.204L51.3605 106.928L50.9969 106.601L50.5997 106.24L49.8775 105.518L49.6631 105.28L49.6614 105.279L49.6236 105.27L49.1555 105.137L48.7206 105.036L48.2005 104.888L47.7192 104.74L47.2509 104.572L46.7988 104.433L46.3326 104.254L45.8645 104.087L45.4297 103.92L44.9152 103.736L44.4381 103.516L43.9699 103.315L43.0602 102.895L42.5919 102.661L42.1364 102.451L41.681 102.206L41.1738 101.952L40.7196 101.672L40.2848 101.438L38.9089 100.592L38.4741 100.291L38.015 100.008L37.5812 99.6827L37.1147 99.3597L36.7133 99.0253L36.6709 98.9959L36.8782 99.3414L37.5262 100.249L37.8607 100.75L38.161 101.171L38.5124 101.618L38.8421 102.047L39.5409 102.936L39.9237 103.351L40.3064 103.803L40.3126 103.81L40.6701 104.228L41.4866 105.044L41.8675 105.457L42.2802 105.838L42.715 106.272L43.5421 107.036L43.965 107.398L44.455 107.783L44.8713 108.168L45.3247 108.5L46.2612 109.236L46.7155 109.569L47.0109 109.766L47.4798 110.001L48.0128 110.22L48.5476 110.454L49.0657 110.667L49.6341 110.868L50.2028 111.102L50.697 111.276L51.2656 111.444L51.8342 111.644L53.4617 112.123L53.9718 112.243L53.99 112.247ZM33.1585 99.0258L33.1045 98.9357L31.9975 96.8601L31.5045 95.8039L31.2704 95.2688L31.0262 94.7453L30.8187 94.2267L30.5669 93.6511L30.3869 93.1111L30.3191 92.9303L30.2329 92.8183L29.8651 92.3835L29.1585 91.465L28.8241 90.9968L28.4896 90.562L28.1183 90.0421L27.8173 89.574L27.4828 89.1057L27.1493 88.5869L26.8168 88.0327L26.5602 87.5516L26.3895 87.286L26.4279 87.4013L26.648 87.9357L26.8821 88.5377L27.3305 89.6268L28.0942 91.2495L28.3952 91.7847L28.6628 92.3532L28.9464 92.8575L29.2311 93.3953L29.5554 93.9141L29.8564 94.4492L30.1428 94.9075L30.5107 95.4092L30.863 95.9729L31.1792 96.4472L31.5281 96.9546L31.8637 97.4123L32.2494 97.8944L32.6132 98.3575L32.6214 98.3678L32.9986 98.8393L33.1585 99.0258ZM108.742 64.7531L108.742 64.7509L108.744 64.737L108.81 64.2423L108.87 63.8233L108.903 63.3216L108.97 62.8533L109.03 61.9566V61.4549L109.063 60.9532V59.5453L109.03 59.0102V58.5116L109 58.06L109 58.0569L108.969 57.5713L108.902 57.0696L108.869 56.5345L108.808 56.0791L108.68 55.0573L108.589 54.6007L108.39 53.5393L108.387 53.5215L108.288 53.0287L108.194 52.5287L108.075 52.0492L107.941 51.547L107.815 51.0428L107.651 50.5189L107.517 50.0172L107.364 49.5259L107.21 49.0642L107.026 48.5757L106.696 48.1856L106.003 47.429L105.234 46.6598L104.888 46.2826L103.758 45.2472L103.357 44.9127L102.956 44.5448L102.203 43.9175L101.798 43.6065L101.427 43.3281L100.993 43.0272L100.591 42.7262L99.7785 42.1635L99.3437 41.896L98.9089 41.595L98.5457 41.3714L98.1109 41.1373L97.6762 40.8698L96.8649 40.4329L96.3967 40.1988L95.9826 39.9758L95.6087 39.8033L95.1404 39.6026L94.2709 39.2013L93.8877 39.037L94.0009 39.1927L94.2618 39.5654L94.7584 40.3458L94.9591 40.6802L95.2098 41.0743L95.849 42.246L96.0162 42.5804L96.2302 42.9729L96.5758 43.7331L96.743 44.0676L96.946 44.5142L97.0798 44.8821L97.2372 45.2282L97.3927 45.6171L97.6832 46.4158L97.7835 46.7503L97.9238 47.136L98.0354 47.5456L98.1179 47.8205L98.276 48.2551L98.3513 48.632L98.4368 48.9168L98.5557 49.353L98.6858 50.0033L98.7899 50.3504L98.8827 50.8604L98.9148 51.1817L98.9641 51.4281L99.047 51.8012L99.1155 52.486L99.1807 52.8124L99.2174 53.1423L99.437 53.307L99.6711 53.5076L100.788 54.3451L101.062 54.6194L101.865 55.3218L102.099 55.5559L102.366 55.79L102.705 56.1284L102.906 56.3582L103.173 56.5923L103.466 56.9265L103.474 56.9354L103.737 57.2319L103.942 57.4662L104.241 57.7646L105.492 59.3735L105.726 59.7079L105.96 60.0089L106.715 61.0866L106.932 61.4495L107.166 61.8174L107.393 62.1953L108.424 64.0855L108.66 64.5572L108.742 64.7531ZM95.8585 51.0543L95.762 50.7325L95.6245 50.045L95.5428 49.7454L95.4276 49.3613L95.3692 49.0693L95.2596 48.7681L95.1415 48.3742L95.0525 48.0479L94.9252 47.6979L94.8249 47.3634L94.5802 46.6906L94.4682 46.4106L94.2911 46.0209L94.1573 45.653L94.0258 45.3638L93.8586 45.0294L93.5353 44.3181L93.348 43.9747L93.1808 43.6403L92.6159 42.6047L92.3984 42.2629L92.1977 41.9284L91.7579 41.2373L91.5506 40.9411L91.2635 40.5464L91.048 40.2078L90.8097 39.9098L90.5421 39.5419L90.0338 38.9066L89.7328 38.5386L89.4874 38.2318L88.7734 37.4386L88.319 37.3337L87.8508 37.2668L87.4081 37.1646L86.2154 36.9811L85.7806 36.9477L85.3458 36.8808L83.7213 36.7559H82.8852L82.4504 36.7224H81.7633L81.3285 36.7559H80.932L79.4003 36.8835L79.389 36.8844L79.0268 36.9174L78.6813 36.9462L78.3518 37.0011L77.9287 37.078L77.5608 37.1115L77.3073 37.1576L76.9187 37.2547L76.5362 37.3312L76.2194 37.3888L75.8514 37.4892L75.5023 37.5527L75.2302 37.6343L74.8623 37.7346L73.4987 38.1437L73.6882 38.2385L74.064 38.5069L74.206 38.6252L74.3912 38.7311L74.6676 38.9285L74.8682 39.0622L75.1677 39.2761L75.3497 39.4278L75.5504 39.5616L75.9517 39.896L76.1524 40.0298L76.4673 40.2922L76.5774 40.4023L76.7781 40.5361L77.0024 40.7604L77.1391 40.8744L77.3596 41.0508L77.6941 41.3852L77.9268 41.5714L78.0606 41.7386L78.1623 41.82L79.1497 42.8074L79.2835 42.9747L79.7015 43.3927L79.8019 43.5265L79.9356 43.6602L80.036 43.794L80.1698 43.9278L80.2053 43.9752L80.339 44.0755L80.6045 44.4295L80.8387 44.6636L80.939 44.7974L81.1397 44.998L81.24 45.1318L81.4704 45.3622L81.5373 45.4626L81.9386 45.8639L81.9614 45.898L81.9954 45.9207L82.263 46.1883L82.4898 46.3395L82.5567 46.4398L82.6309 46.4893L82.6978 46.5562L82.8985 46.69L82.9653 46.7568L83.1084 46.8522L83.1419 46.8634L83.3425 46.9972L83.4429 47.0306L83.5432 47.0975L83.6435 47.1309L83.7439 47.1978L83.9446 47.2647L84.0157 47.3122L84.0329 47.3165L84.3899 47.4355L84.5051 47.493L84.6015 47.5171L84.7018 47.5506L85.1032 47.6509L85.2035 47.6844L85.369 47.7258H85.4666L85.815 47.7954L86.0826 47.8623L86.2498 47.8958L86.3836 47.9292L86.5508 47.9627L86.6846 47.9961L87.9635 48.2519L88.3007 48.3081L88.4679 48.375L88.5321 48.3857L88.815 48.4422L89.0156 48.5091L89.0671 48.5194L89.3604 48.5683L89.7617 48.7021L89.9624 48.7355L90.244 48.8294L90.3648 48.8639L90.5978 48.9028L90.8795 48.9967L91.1136 49.0635L91.4047 49.1606L91.6388 49.2609L91.7491 49.2977L92.0435 49.3818L92.2776 49.4821L92.5545 49.5612L92.7551 49.6616L92.9465 49.7162L93.4705 49.9408L93.738 50.0411L94.3173 50.2894L94.5211 50.4059L94.7887 50.5062L95.0531 50.6573L95.2487 50.7411L95.5932 50.9134L95.8273 51.0471L95.8602 51.0636L95.8585 51.0543Z" fill="white"/>
</svg>
