<svg width="470" height="140" viewBox="0 0 470 140" fill="none" xmlns="http://www.w3.org/2000/svg">
<rect width="470" height="140" rx="20" fill="#121212"/>
<path d="M112.8 70C112.8 73.2223 111.503 76.139 109.404 78.2483C107.304 80.36 104.404 81.6667 101.2 81.6667C97.9961 81.6667 95.0961 82.971 92.9988 85.0827C90.8991 87.1943 89.6 90.111 89.6 93.3333C89.6 96.5557 88.3032 99.4723 86.2035 101.582C84.1039 103.693 81.2039 105 78 105C74.7961 105 71.8961 103.693 69.7988 101.582C67.6991 99.4723 66.4 96.5557 66.4 93.3333C66.4 90.111 67.6991 87.1943 69.7988 85.0827C71.8961 82.971 74.7961 81.6667 78 81.6667C81.2039 81.6667 84.1039 80.36 86.2035 78.2483C88.3032 76.139 89.6 73.2223 89.6 70C89.6 63.5553 84.4078 58.3333 78 58.3333C74.7961 58.3333 71.8961 57.0267 69.7988 54.915C67.6991 52.8057 66.4 49.889 66.4 46.6667C66.4 43.4443 67.6991 40.5277 69.7988 38.416C71.8961 36.3043 74.7961 35 78 35C84.4078 35 89.6 40.222 89.6 46.6667C89.6 49.889 90.8991 52.8057 92.9988 54.915C95.0961 57.0267 97.9961 58.3333 101.2 58.3333C107.608 58.3333 112.8 63.5553 112.8 70Z" fill="#F44250"/>
<path d="M66.4 70C66.4 63.5565 61.2066 58.3333 54.8 58.3333C48.3936 58.3333 43.2 63.5565 43.2 70C43.2 76.4433 48.3936 81.6667 54.8 81.6667C61.2066 81.6667 66.4 76.4433 66.4 70Z" fill="white"/>
<path d="M43.2 93.3333C43.2 86.89 38.0065 81.6667 31.6 81.6667C25.1935 81.6667 20 86.89 20 93.3333C20 99.7768 25.1935 105 31.6 105C38.0065 105 43.2 99.7768 43.2 93.3333Z" fill="white"/>
<path d="M136 93.3333C136 86.89 130.806 81.6667 124.4 81.6667C117.994 81.6667 112.8 86.89 112.8 93.3333C112.8 99.7768 117.994 105 124.4 105C130.806 105 136 99.7768 136 93.3333Z" fill="white"/>
<path d="M168.844 86V53.2727H181.756C184.228 53.2727 186.337 53.7148 188.085 54.5991C189.842 55.4727 191.179 56.7138 192.096 58.3224C193.022 59.9205 193.486 61.8008 193.486 63.9634C193.486 66.1367 193.017 68.0064 192.08 69.5724C191.142 71.1278 189.784 72.321 188.005 73.152C186.236 73.983 184.095 74.3984 181.581 74.3984H172.935V68.8374H180.462C181.783 68.8374 182.88 68.6562 183.754 68.294C184.627 67.9318 185.277 67.3885 185.703 66.6641C186.14 65.9396 186.359 65.0394 186.359 63.9634C186.359 62.8768 186.14 61.9606 185.703 61.2148C185.277 60.4691 184.622 59.9045 183.738 59.521C182.864 59.1268 181.762 58.9297 180.43 58.9297H175.764V86H168.844ZM186.518 71.1065L194.652 86H187.014L179.056 71.1065H186.518ZM209.038 86.4794C206.514 86.4794 204.34 85.968 202.519 84.9453C200.707 83.9119 199.312 82.4524 198.332 80.5668C197.352 78.6705 196.862 76.4279 196.862 73.8391C196.862 71.3143 197.352 69.0984 198.332 67.1914C199.312 65.2844 200.691 63.7983 202.471 62.733C204.26 61.6676 206.359 61.1349 208.767 61.1349C210.386 61.1349 211.894 61.396 213.289 61.918C214.695 62.4293 215.921 63.2017 216.965 64.2351C218.019 65.2685 218.84 66.5682 219.426 68.1342C220.011 69.6896 220.304 71.5114 220.304 73.5994V75.4691H199.578V71.2504H213.896C213.896 70.2702 213.683 69.402 213.257 68.6456C212.831 67.8892 212.24 67.2979 211.483 66.8718C210.738 66.435 209.869 66.2166 208.879 66.2166C207.845 66.2166 206.929 66.4563 206.13 66.9357C205.342 67.4045 204.724 68.0384 204.276 68.8374C203.829 69.6257 203.6 70.5046 203.589 71.4741V75.4851C203.589 76.6996 203.813 77.7489 204.26 78.6332C204.718 79.5174 205.363 80.1992 206.194 80.6786C207.025 81.158 208.01 81.3977 209.15 81.3977C209.907 81.3977 210.599 81.2912 211.228 81.0781C211.856 80.8651 212.394 80.5455 212.842 80.1193C213.289 79.6932 213.63 79.1712 213.864 78.5533L220.161 78.9688C219.841 80.4815 219.186 81.8026 218.195 82.9318C217.215 84.0504 215.947 84.924 214.392 85.5526C212.847 86.1705 211.063 86.4794 209.038 86.4794ZM231.746 86.4634C230.18 86.4634 228.785 86.1918 227.559 85.6484C226.334 85.0945 225.365 84.2795 224.651 83.2035C223.948 82.1168 223.596 80.7638 223.596 79.1445C223.596 77.7809 223.847 76.6357 224.347 75.7088C224.848 74.782 225.53 74.0362 226.393 73.4716C227.256 72.907 228.236 72.4808 229.333 72.1932C230.441 71.9055 231.602 71.7031 232.817 71.5859C234.244 71.4368 235.395 71.2983 236.269 71.1705C237.142 71.032 237.776 70.8295 238.17 70.5632C238.564 70.2969 238.761 69.9027 238.761 69.3807V69.2848C238.761 68.2727 238.442 67.4897 237.803 66.9357C237.174 66.3817 236.279 66.1048 235.118 66.1048C233.893 66.1048 232.918 66.3764 232.194 66.9197C231.469 67.4524 230.99 68.1236 230.755 68.9332L224.459 68.4219C224.779 66.9304 225.407 65.6413 226.345 64.5547C227.282 63.4574 228.492 62.6158 229.972 62.0298C231.464 61.4332 233.19 61.1349 235.15 61.1349C236.514 61.1349 237.819 61.2947 239.065 61.6143C240.322 61.9339 241.435 62.4293 242.405 63.1005C243.385 63.7717 244.157 64.6346 244.722 65.6893C245.287 66.7333 245.569 67.9851 245.569 69.4446V86H239.113V82.5962H238.921C238.527 83.3633 238 84.0398 237.339 84.6257C236.679 85.201 235.885 85.6538 234.958 85.984C234.031 86.3036 232.961 86.4634 231.746 86.4634ZM233.696 81.7653C234.697 81.7653 235.581 81.5682 236.348 81.174C237.116 80.7692 237.717 80.2259 238.154 79.544C238.591 78.8622 238.809 78.0898 238.809 77.2269V74.6222C238.596 74.7607 238.303 74.8885 237.93 75.0057C237.568 75.1122 237.158 75.2134 236.7 75.3093C236.242 75.3945 235.784 75.4744 235.326 75.549C234.868 75.6129 234.452 75.6715 234.079 75.7248C233.28 75.842 232.582 76.0284 231.986 76.2841C231.389 76.5398 230.926 76.886 230.596 77.3228C230.265 77.7489 230.1 78.2816 230.1 78.9208C230.1 79.8477 230.436 80.5561 231.107 81.0462C231.789 81.5256 232.652 81.7653 233.696 81.7653ZM261.941 86.4794C259.426 86.4794 257.264 85.9467 255.453 84.8814C253.652 83.8054 252.267 82.3139 251.298 80.407C250.339 78.5 249.86 76.3054 249.86 73.8232C249.86 71.3089 250.344 69.1037 251.314 67.2074C252.294 65.3004 253.684 63.8143 255.485 62.7489C257.285 61.6729 259.426 61.1349 261.909 61.1349C264.05 61.1349 265.925 61.5238 267.534 62.3015C269.142 63.0792 270.415 64.1712 271.353 65.5774C272.29 66.9837 272.807 68.6349 272.903 70.5312H266.479C266.298 69.3061 265.818 68.3207 265.041 67.5749C264.274 66.8185 263.267 66.4403 262.021 66.4403C260.966 66.4403 260.044 66.728 259.256 67.3033C258.478 67.8679 257.871 68.6935 257.434 69.7802C256.997 70.8668 256.779 72.1825 256.779 73.7273C256.779 75.2933 256.992 76.625 257.418 77.7223C257.855 78.8196 258.468 79.6559 259.256 80.2312C260.044 80.8065 260.966 81.0941 262.021 81.0941C262.798 81.0941 263.496 80.9343 264.114 80.6147C264.742 80.2951 265.259 79.8317 265.664 79.2244C266.079 78.6065 266.351 77.8661 266.479 77.0032H272.903C272.796 78.8782 272.285 80.5295 271.369 81.957C270.463 83.3739 269.212 84.4819 267.614 85.2809C266.016 86.0799 264.125 86.4794 261.941 86.4794ZM290.317 61.4545V66.5682H275.536V61.4545H290.317ZM278.892 55.5739H285.699V78.4574C285.699 79.0859 285.795 79.576 285.987 79.9276C286.178 80.2685 286.445 80.5082 286.786 80.6467C287.137 80.7852 287.542 80.8544 288 80.8544C288.32 80.8544 288.639 80.8278 288.959 80.7745C289.279 80.7106 289.524 80.6626 289.694 80.6307L290.765 85.6964C290.424 85.8029 289.944 85.9254 289.327 86.0639C288.709 86.2131 287.958 86.3036 287.073 86.3356C285.433 86.3995 283.994 86.1811 282.759 85.6804C281.534 85.1797 280.58 84.402 279.898 83.3473C279.216 82.2926 278.881 80.9609 278.892 79.3523V55.5739ZM305.295 86V53.2727H318.207C320.678 53.2727 322.788 53.7148 324.535 54.5991C326.293 55.4727 327.63 56.7138 328.546 58.3224C329.473 59.9205 329.936 61.8008 329.936 63.9634C329.936 66.1367 329.467 68.0064 328.53 69.5724C327.592 71.1278 326.234 72.321 324.455 73.152C322.686 73.983 320.545 74.3984 318.031 74.3984H309.386V68.8374H316.912C318.233 68.8374 319.331 68.6562 320.204 68.294C321.078 67.9318 321.728 67.3885 322.154 66.6641C322.59 65.9396 322.809 65.0394 322.809 63.9634C322.809 62.8768 322.59 61.9606 322.154 61.2148C321.728 60.4691 321.072 59.9045 320.188 59.521C319.315 59.1268 318.212 58.9297 316.88 58.9297H312.214V86H305.295ZM322.969 71.1065L331.103 86H323.464L315.506 71.1065H322.969ZM345.393 86.4794C342.911 86.4794 340.764 85.9521 338.953 84.8974C337.152 83.832 335.762 82.3512 334.782 80.4549C333.802 78.5479 333.312 76.3374 333.312 73.8232C333.312 71.2876 333.802 69.0717 334.782 67.1754C335.762 65.2685 337.152 63.7876 338.953 62.733C340.764 61.6676 342.911 61.1349 345.393 61.1349C347.875 61.1349 350.016 61.6676 351.817 62.733C353.628 63.7876 355.023 65.2685 356.004 67.1754C356.984 69.0717 357.474 71.2876 357.474 73.8232C357.474 76.3374 356.984 78.5479 356.004 80.4549C355.023 82.3512 353.628 83.832 351.817 84.8974C350.016 85.9521 347.875 86.4794 345.393 86.4794ZM345.425 81.206C346.554 81.206 347.497 80.8864 348.253 80.2472C349.01 79.5973 349.58 78.7131 349.963 77.5945C350.357 76.4759 350.554 75.2028 350.554 73.7752C350.554 72.3477 350.357 71.0746 349.963 69.956C349.58 68.8374 349.01 67.9531 348.253 67.3033C347.497 66.6534 346.554 66.3285 345.425 66.3285C344.285 66.3285 343.326 66.6534 342.548 67.3033C341.781 67.9531 341.201 68.8374 340.806 69.956C340.423 71.0746 340.231 72.3477 340.231 73.7752C340.231 75.2028 340.423 76.4759 340.806 77.5945C341.201 78.7131 341.781 79.5973 342.548 80.2472C343.326 80.8864 344.285 81.206 345.425 81.206ZM377.641 75.549V61.4545H384.448V86H377.912V81.5415H377.657C377.103 82.9798 376.181 84.1357 374.892 85.0092C373.614 85.8828 372.053 86.3196 370.21 86.3196C368.569 86.3196 367.126 85.9467 365.879 85.201C364.633 84.4553 363.658 83.3952 362.955 82.021C362.262 80.6467 361.911 79.0007 361.9 77.0831V61.4545H368.708V75.8686C368.718 77.3175 369.107 78.4627 369.874 79.3043C370.641 80.146 371.669 80.5668 372.958 80.5668C373.779 80.5668 374.546 80.3803 375.26 80.0075C375.973 79.6239 376.549 79.0593 376.985 78.3136C377.433 77.5678 377.651 76.6463 377.641 75.549ZM402.949 61.4545V66.5682H388.168V61.4545H402.949ZM391.523 55.5739H398.331V78.4574C398.331 79.0859 398.427 79.576 398.619 79.9276C398.81 80.2685 399.077 80.5082 399.418 80.6467C399.769 80.7852 400.174 80.8544 400.632 80.8544C400.952 80.8544 401.271 80.8278 401.591 80.7745C401.91 80.7106 402.155 80.6626 402.326 80.6307L403.397 85.6964C403.056 85.8029 402.576 85.9254 401.958 86.0639C401.34 86.2131 400.589 86.3036 399.705 86.3356C398.065 86.3995 396.626 86.1811 395.391 85.6804C394.165 85.1797 393.212 84.402 392.53 83.3473C391.848 82.2926 391.513 80.9609 391.523 79.3523V55.5739ZM418.306 86.4794C415.781 86.4794 413.608 85.968 411.786 84.9453C409.975 83.9119 408.579 82.4524 407.599 80.5668C406.619 78.6705 406.129 76.4279 406.129 73.8391C406.129 71.3143 406.619 69.0984 407.599 67.1914C408.579 65.2844 409.959 63.7983 411.738 62.733C413.528 61.6676 415.627 61.1349 418.034 61.1349C419.654 61.1349 421.161 61.396 422.557 61.918C423.963 62.4293 425.188 63.2017 426.232 64.2351C427.287 65.2685 428.107 66.5682 428.693 68.1342C429.279 69.6896 429.572 71.5114 429.572 73.5994V75.4691H408.846V71.2504H423.164C423.164 70.2702 422.951 69.402 422.525 68.6456C422.099 67.8892 421.507 67.2979 420.751 66.8718C420.005 66.435 419.137 66.2166 418.146 66.2166C417.113 66.2166 416.197 66.4563 415.398 66.9357C414.609 67.4045 413.991 68.0384 413.544 68.8374C413.097 69.6257 412.867 70.5046 412.857 71.4741V75.4851C412.857 76.6996 413.081 77.7489 413.528 78.6332C413.986 79.5174 414.631 80.1992 415.462 80.6786C416.293 81.158 417.278 81.3977 418.418 81.3977C419.174 81.3977 419.867 81.2912 420.495 81.0781C421.124 80.8651 421.662 80.5455 422.109 80.1193C422.557 79.6932 422.898 79.1712 423.132 78.5533L429.428 78.9688C429.109 80.4815 428.453 81.8026 427.463 82.9318C426.483 84.0504 425.215 84.924 423.659 85.5526C422.115 86.1705 420.33 86.4794 418.306 86.4794ZM434.014 86V61.4545H440.614V65.7372H440.87C441.317 64.2138 442.068 63.0632 443.123 62.2855C444.178 61.4972 445.392 61.103 446.767 61.103C447.108 61.103 447.475 61.1243 447.869 61.1669C448.263 61.2095 448.61 61.2681 448.908 61.3427V67.3832C448.588 67.2873 448.146 67.2021 447.582 67.1275C447.017 67.0529 446.5 67.0156 446.032 67.0156C445.03 67.0156 444.135 67.234 443.347 67.6708C442.569 68.0969 441.951 68.6935 441.493 69.4606C441.046 70.2276 440.822 71.1119 440.822 72.1133V86H434.014Z" fill="white"/>
</svg>
