<svg width="140" height="140" viewBox="0 0 140 140" fill="none" xmlns="http://www.w3.org/2000/svg">
<rect width="140" height="140" rx="20" fill="#002B3B"/>
<path fill-rule="evenodd" clip-rule="evenodd" d="M83.0747 82.1412L80.9332 85.86C80.288 86.9802 79.0937 87.6706 77.8011 87.6706H61.3955C60.1027 87.6706 58.9085 86.9802 58.2632 85.86L56.1215 82.1412H83.0747ZM89.0701 71.7311L85.294 78.2876H53.9022L50.1263 71.7311H89.0701ZM85.4328 61.5511L89.0761 67.8776H50.1203L53.7637 61.5511H85.4328ZM77.8011 51.9276C79.0937 51.9276 80.288 52.6181 80.9332 53.7382L83.2135 57.6975H55.983L58.2632 53.7382C58.9085 52.6181 60.1027 51.9276 61.3955 51.9276H77.8011Z" fill="#00435B"/>
<path d="M37.519 50.2022C35.7016 41.3899 35.3116 34.631 36.4862 29.7232C37.1849 26.8043 38.4623 24.423 40.4045 22.705C42.455 20.8912 45.0474 20.0012 47.9604 20.0012C52.7659 20.0012 57.8177 22.1925 63.2163 26.3556C65.4183 28.0536 67.7038 30.1003 70.0772 32.4968C70.2662 32.2535 70.4797 32.0242 70.7176 31.8122C77.4278 25.8324 83.0774 22.117 87.9094 20.6845C90.7825 19.8327 93.48 19.7516 95.9365 20.5783C98.5295 21.4509 100.596 23.2547 102.053 25.7812C104.459 29.951 105.093 35.4301 104.196 42.1953C103.831 44.9529 103.206 47.9567 102.323 51.2113C102.656 51.2516 102.99 51.3254 103.321 51.4351C111.834 54.2564 117.863 57.2905 121.513 60.7578C123.685 62.8208 125.103 65.1176 125.615 67.6599C126.157 70.3433 125.629 73.0349 124.173 75.5595C121.772 79.7233 117.357 83.0072 111.067 85.6083C108.541 86.6526 105.684 87.5985 102.491 88.4493C102.637 88.7782 102.75 89.1275 102.825 89.4939C104.643 98.3062 105.033 105.065 103.858 109.973C103.159 112.892 101.882 115.273 99.9397 116.991C97.8892 118.805 95.2966 119.695 92.3838 119.695C87.5783 119.695 82.5265 117.504 77.1278 113.341C74.9024 111.625 72.5917 109.552 70.1911 107.123C69.944 107.509 69.6408 107.868 69.2821 108.188C62.5719 114.168 56.9224 117.883 52.0903 119.316C49.2172 120.167 46.5197 120.248 44.0632 119.422C41.4703 118.549 39.4042 116.745 37.9466 114.219C35.5408 110.049 34.9064 104.57 35.8033 97.8047C36.1821 94.9474 36.8394 91.8258 37.7738 88.4347C37.4086 88.3977 37.0418 88.3205 36.6792 88.2003C28.1653 85.379 22.1366 82.3449 18.4867 78.8775C16.3151 76.8146 14.897 74.5178 14.3844 71.9755C13.8433 69.292 14.3709 66.6005 15.8269 64.0757C18.2281 59.9121 22.6431 56.6282 28.933 54.0271C31.5338 52.9516 34.4867 51.9805 37.7951 51.1103C37.6772 50.8217 37.5842 50.5183 37.519 50.2022Z" fill="#002B3B"/>
<path fill-rule="evenodd" clip-rule="evenodd" d="M59.3842 47.3948C63.7975 47.0436 68.3464 46.8885 73.0309 46.9295C73.918 46.9373 74.6435 46.2243 74.6513 45.3371C74.6545 44.9635 74.5275 44.6004 74.2919 44.3103C63.6298 31.1825 54.8502 24.6185 47.9535 24.6185C40.8333 24.6185 38.802 32.4671 41.8597 48.1644C42.0273 49.0247 42.8537 49.5919 43.7168 49.4389C49.1604 48.4742 54.3829 47.7928 59.3842 47.3948Z" fill="#FF4154"/>
<path fill-rule="evenodd" clip-rule="evenodd" d="M84.1588 49.5555C86.7075 53.2282 89.1536 57.1174 91.4972 61.2234C91.937 61.994 92.9181 62.2621 93.6887 61.8223C94.0118 61.6379 94.2609 61.347 94.3934 60.9995C100.425 45.1798 101.692 34.27 98.196 28.2698C94.5882 22.0782 86.7274 24.2191 74.6133 34.6927C73.9474 35.2685 73.8689 36.2732 74.4376 36.9453C78.0369 41.2 81.2772 45.4034 84.1588 49.5555Z" fill="#FF4154"/>
<path fill-rule="evenodd" clip-rule="evenodd" d="M94.8559 71.6563C92.9484 75.6653 90.8043 79.6945 88.4237 83.744C87.9741 84.5088 88.2296 85.4933 88.9944 85.943C89.3182 86.1334 89.6986 86.2042 90.0691 86.1433C106.69 83.4104 116.727 79.0486 120.179 73.0579C123.745 66.8707 118.011 61.1998 102.977 56.0452C102.149 55.7611 101.246 56.1928 100.947 57.0155C99.0495 62.2293 97.0192 67.1096 94.8559 71.6563Z" fill="#FF4154"/>
<path fill-rule="evenodd" clip-rule="evenodd" d="M81.218 92.4044C76.8046 92.7557 72.2558 92.9109 67.5713 92.8698C66.6841 92.862 65.9586 93.5749 65.9509 94.4621C65.9475 94.8358 66.0747 95.1988 66.3103 95.4889C76.9724 108.617 85.7519 115.181 92.6486 115.181C99.7689 115.181 101.8 107.332 98.7425 91.635C98.5748 90.7745 97.7485 90.2074 96.8854 90.3603C91.4417 91.3251 86.2192 92.0064 81.218 92.4044Z" fill="#FF4154"/>
<path fill-rule="evenodd" clip-rule="evenodd" d="M55.8411 90.4445C53.2924 86.7719 50.8462 82.8826 48.5027 78.7765C48.0629 78.0059 47.0817 77.7379 46.3111 78.1777C45.988 78.3621 45.739 78.6529 45.6064 79.0006C39.5752 94.8201 38.3076 105.73 41.8039 111.73C45.4116 117.922 53.2724 115.781 65.3864 105.307C66.0525 104.732 66.1309 103.727 65.5623 103.055C61.963 98.8 58.7226 94.5966 55.8411 90.4445Z" fill="#FF4154"/>
<path fill-rule="evenodd" clip-rule="evenodd" d="M45.1439 67.7414C47.0515 63.7324 49.1955 59.7032 51.5761 55.6536C52.0257 54.8889 51.7702 53.9044 51.0053 53.4548C50.6815 53.2644 50.3013 53.1935 49.9306 53.2545C33.3096 55.9872 23.2729 60.349 19.8204 66.3398C16.2548 72.527 21.9888 78.1979 37.0226 83.3525C37.8508 83.6365 38.7539 83.205 39.0532 82.3822C40.9503 77.1684 42.9805 72.2881 45.1439 67.7414Z" fill="#FF4154"/>
<path fill-rule="evenodd" clip-rule="evenodd" d="M62.7144 52.1285H76.4852C78.4991 52.1285 80.3592 53.2057 81.3617 54.9524L88.2762 67.0006C89.2709 68.7337 89.2709 70.8647 88.2762 72.5978L81.3617 84.646C80.3592 86.3927 78.4991 87.4699 76.4852 87.4699H62.7144C60.7004 87.4699 58.8402 86.3927 57.8379 84.646L50.9234 72.5978C49.9286 70.8647 49.9286 68.7337 50.9234 67.0006L57.8379 54.9524C58.8402 53.2057 60.7004 52.1285 62.7144 52.1285ZM74.3864 55.7649C76.4014 55.7649 78.2623 56.8432 79.2643 58.5914L84.086 67.0032C85.0788 68.735 85.0788 70.8634 84.086 72.5952L79.2643 81.007C78.2623 82.7552 76.4014 83.8335 74.3864 83.8335H64.8131C62.7981 83.8335 60.9372 82.7552 59.9352 81.007L55.1136 72.5952C54.1208 70.8634 54.1208 68.735 55.1136 67.0032L59.9352 58.5914C60.9372 56.8432 62.7981 55.7649 64.8131 55.7649H74.3864ZM72.1242 59.7422H67.0753C65.0624 59.7422 63.203 60.8183 62.2002 62.5637L59.6524 66.9982C58.6558 68.7326 58.6558 70.8658 59.6524 72.6002L62.2002 77.0347C63.203 78.7801 65.0624 79.8562 67.0753 79.8562H72.1242C74.1372 79.8562 75.9965 78.7801 76.9993 77.0347L79.5472 72.6002C80.5438 70.8658 80.5438 68.7326 79.5472 66.9982L76.9993 62.5637C75.9965 60.8183 74.1372 59.7422 72.1242 59.7422ZM69.9459 63.5492C71.9574 63.5492 73.8155 64.6237 74.819 66.3669L75.1802 66.9945C76.1795 68.7308 76.1795 70.8676 75.1802 72.6039L74.819 73.2315C73.8155 74.9747 71.9574 76.0492 69.9459 76.0492H69.2536C67.2422 76.0492 65.384 74.9747 64.3806 73.2315L64.0194 72.6039C63.0201 70.8676 63.0201 68.7308 64.0194 66.9945L64.3806 66.3669C65.384 64.6237 67.2422 63.5492 69.2536 63.5492H69.9459ZM69.6006 67.2992C68.7054 67.2992 67.8798 67.7757 67.4329 68.5491C66.986 69.3226 66.986 70.2758 67.4329 71.0492C67.8798 71.8227 68.7054 72.2992 69.5988 72.2992C70.4941 72.2992 71.3196 71.8227 71.7667 71.0492C72.2136 70.2758 72.2136 69.3226 71.7667 68.5491C71.3196 67.7757 70.4941 67.2992 69.6006 67.2992Z" fill="#FFD94C"/>
</svg>
