<svg width="140" height="140" viewBox="0 0 140 140" fill="none" xmlns="http://www.w3.org/2000/svg">
<rect width="140" height="140" rx="20" fill="#002B3B"/>
<path fill-rule="evenodd" clip-rule="evenodd" d="M83.0749 82.1412L80.9334 85.86C80.2882 86.9802 79.0939 87.6706 77.8012 87.6706H61.3957C60.1029 87.6706 58.9086 86.9802 58.2634 85.86L56.1217 82.1412H83.0749ZM89.0703 71.7311L85.2942 78.2876H53.9024L50.1265 71.7311H89.0703ZM85.433 61.5511L89.0763 67.8776H50.1205L53.7638 61.5511H85.433ZM77.8012 51.9276C79.0939 51.9276 80.2882 52.6181 80.9334 53.7382L83.2137 57.6975H55.9832L58.2634 53.7382C58.9086 52.6181 60.1029 51.9276 61.3957 51.9276H77.8012Z" fill="#00435B"/>
<path d="M37.5192 50.2022C35.7018 41.3899 35.3118 34.631 36.4864 29.7232C37.1851 26.8043 38.4625 24.423 40.4047 22.705C42.4552 20.8912 45.0476 20.0012 47.9606 20.0012C52.7661 20.0012 57.8178 22.1925 63.2165 26.3556C65.4185 28.0536 67.7039 30.1003 70.0774 32.4968C70.2663 32.2535 70.4799 32.0242 70.7178 31.8122C77.428 25.8324 83.0776 22.117 87.9096 20.6845C90.7827 19.8327 93.4802 19.7516 95.9367 20.5783C98.5297 21.4509 100.596 23.2547 102.053 25.7812C104.459 29.951 105.093 35.4301 104.197 42.1953C103.831 44.9529 103.206 47.9567 102.323 51.2113C102.656 51.2516 102.99 51.3254 103.321 51.4351C111.835 54.2564 117.863 57.2905 121.513 60.7578C123.685 62.8208 125.103 65.1176 125.616 67.6599C126.157 70.3433 125.629 73.0349 124.173 75.5595C121.772 79.7233 117.357 83.0072 111.067 85.6083C108.541 86.6526 105.684 87.5985 102.491 88.4493C102.637 88.7782 102.75 89.1275 102.825 89.4939C104.643 98.3062 105.033 105.065 103.858 109.973C103.159 112.892 101.882 115.273 99.9399 116.991C97.8894 118.805 95.2968 119.695 92.384 119.695C87.5785 119.695 82.5267 117.504 77.128 113.341C74.9026 111.625 72.5919 109.552 70.1913 107.123C69.9442 107.509 69.641 107.868 69.2823 108.188C62.5721 114.168 56.9226 117.883 52.0905 119.316C49.2174 120.167 46.5199 120.248 44.0634 119.422C41.4704 118.549 39.4044 116.745 37.9468 114.219C35.541 110.049 34.9066 104.57 35.8035 97.8047C36.1823 94.9474 36.8396 91.8258 37.7739 88.4347C37.4087 88.3977 37.042 88.3205 36.6793 88.2003C28.1655 85.379 22.1368 82.3449 18.4869 78.8775C16.3153 76.8146 14.8972 74.5178 14.3846 71.9755C13.8435 69.292 14.3711 66.6005 15.827 64.0757C18.2282 59.9121 22.6433 56.6282 28.9332 54.0271C31.534 52.9516 34.4868 51.9805 37.7953 51.1103C37.6774 50.8217 37.5844 50.5183 37.5192 50.2022Z" fill="#002B3B"/>
<path fill-rule="evenodd" clip-rule="evenodd" d="M59.3844 47.3948C63.7976 47.0436 68.3466 46.8885 73.031 46.9295C73.9182 46.9373 74.6437 46.2243 74.6515 45.3371C74.6547 44.9635 74.5277 44.6004 74.2921 44.3103C63.6299 31.1825 54.8504 24.6185 47.9536 24.6185C40.8335 24.6185 38.8022 32.4671 41.8599 48.1644C42.0274 49.0247 42.8539 49.5919 43.717 49.4389C49.1605 48.4742 54.383 47.7928 59.3844 47.3948Z" fill="#FF4154"/>
<path fill-rule="evenodd" clip-rule="evenodd" d="M84.159 49.5555C86.7076 53.2282 89.1538 57.1174 91.4974 61.2234C91.9372 61.994 92.9183 62.2621 93.6889 61.8223C94.012 61.6379 94.2611 61.347 94.3936 60.9995C100.425 45.1798 101.692 34.27 98.1962 28.2698C94.5884 22.0782 86.7276 24.2191 74.6135 34.6927C73.9475 35.2685 73.8691 36.2732 74.4378 36.9453C78.037 41.2 81.2774 45.4034 84.159 49.5555Z" fill="#FF4154"/>
<path fill-rule="evenodd" clip-rule="evenodd" d="M94.856 71.6563C92.9486 75.6653 90.8045 79.6945 88.4239 83.744C87.9743 84.5088 88.2298 85.4933 88.9946 85.943C89.3184 86.1334 89.6988 86.2042 90.0693 86.1433C106.69 83.4104 116.727 79.0486 120.18 73.0579C123.745 66.8707 118.011 61.1998 102.977 56.0452C102.149 55.7611 101.246 56.1928 100.947 57.0155C99.0497 62.2293 97.0194 67.1096 94.856 71.6563Z" fill="#FF4154"/>
<path fill-rule="evenodd" clip-rule="evenodd" d="M81.2182 92.4044C76.8048 92.7557 72.256 92.9109 67.5715 92.8698C66.6843 92.862 65.9588 93.5749 65.9511 94.4621C65.9477 94.8358 66.0749 95.1988 66.3105 95.4889C76.9726 108.617 85.7521 115.181 92.6488 115.181C99.7691 115.181 101.8 107.332 98.7427 91.635C98.575 90.7745 97.7487 90.2074 96.8856 90.3603C91.4419 91.3251 86.2194 92.0064 81.2182 92.4044Z" fill="#FF4154"/>
<path fill-rule="evenodd" clip-rule="evenodd" d="M55.8413 90.4445C53.2926 86.7719 50.8464 82.8826 48.5028 78.7765C48.0631 78.0059 47.0819 77.7379 46.3113 78.1777C45.9882 78.3621 45.7391 78.6529 45.6066 79.0006C39.5754 94.8201 38.3078 105.73 41.804 111.73C45.4118 117.922 53.2726 115.781 65.3866 105.307C66.0527 104.732 66.1311 103.727 65.5624 103.055C61.9632 98.8 58.7227 94.5966 55.8413 90.4445Z" fill="#FF4154"/>
<path fill-rule="evenodd" clip-rule="evenodd" d="M45.1441 67.7414C47.0517 63.7324 49.1957 59.7032 51.5762 55.6536C52.0258 54.8889 51.7704 53.9044 51.0055 53.4548C50.6817 53.2644 50.3015 53.1935 49.9308 53.2545C33.3097 55.9872 23.2731 60.349 19.8206 66.3398C16.2549 72.527 21.989 78.1979 37.0228 83.3525C37.851 83.6365 38.7541 83.205 39.0534 82.3822C40.9505 77.1684 42.9807 72.2881 45.1441 67.7414Z" fill="#FF4154"/>
<path fill-rule="evenodd" clip-rule="evenodd" d="M62.7146 52.1285H76.4854C78.4993 52.1285 80.3594 53.2057 81.3619 54.9524L88.2764 67.0006C89.271 68.7337 89.271 70.8647 88.2764 72.5978L81.3619 84.646C80.3594 86.3927 78.4993 87.4699 76.4854 87.4699H62.7146C60.7006 87.4699 58.8404 86.3927 57.8381 84.646L50.9236 72.5978C49.9288 70.8647 49.9288 68.7337 50.9236 67.0006L57.8381 54.9524C58.8404 53.2057 60.7006 52.1285 62.7146 52.1285ZM74.3865 55.7649C76.4015 55.7649 78.2625 56.8432 79.2645 58.5914L84.0862 67.0032C85.0789 68.735 85.0789 70.8634 84.0862 72.5952L79.2645 81.007C78.2625 82.7552 76.4015 83.8335 74.3865 83.8335H64.8133C62.7983 83.8335 60.9374 82.7552 59.9353 81.007L55.1138 72.5952C54.121 70.8634 54.121 68.735 55.1138 67.0032L59.9353 58.5914C60.9374 56.8432 62.7983 55.7649 64.8133 55.7649H74.3865ZM72.1244 59.7422H67.0755C65.0626 59.7422 63.2032 60.8183 62.2004 62.5637L59.6525 66.9982C58.656 68.7326 58.656 70.8658 59.6525 72.6002L62.2004 77.0347C63.2032 78.7801 65.0626 79.8562 67.0755 79.8562H72.1244C74.1373 79.8562 75.9967 78.7801 76.9995 77.0347L79.5474 72.6002C80.544 70.8658 80.544 68.7326 79.5474 66.9982L76.9995 62.5637C75.9967 60.8183 74.1373 59.7422 72.1244 59.7422ZM69.9461 63.5492C71.9576 63.5492 73.8157 64.6237 74.8192 66.3669L75.1803 66.9945C76.1797 68.7308 76.1797 70.8676 75.1803 72.6039L74.8192 73.2315C73.8157 74.9747 71.9576 76.0492 69.9461 76.0492H69.2538C67.2424 76.0492 65.3841 74.9747 64.3808 73.2315L64.0196 72.6039C63.0202 70.8676 63.0202 68.7308 64.0196 66.9945L64.3808 66.3669C65.3841 64.6237 67.2424 63.5492 69.2538 63.5492H69.9461ZM69.6008 67.2992C68.7056 67.2992 67.88 67.7757 67.4331 68.5491C66.9862 69.3226 66.9862 70.2758 67.4331 71.0492C67.88 71.8227 68.7056 72.2992 69.599 72.2992C70.4943 72.2992 71.3198 71.8227 71.7669 71.0492C72.2138 70.2758 72.2138 69.3226 71.7669 68.5491C71.3198 67.7757 70.4943 67.2992 69.6008 67.2992Z" fill="#FFD94C"/>
</svg>
