<svg width="140" height="140" viewBox="0 0 140 140" fill="none" xmlns="http://www.w3.org/2000/svg">
<rect width="140" height="140" rx="20" fill="#21005D"/>
<path d="M103.886 36.934L96.9651 62.4002C96.8986 62.2536 96.8256 62.1102 96.7533 61.9655C96.6275 61.7029 96.4952 61.4423 96.3486 61.1894C94.6237 58.2003 91.9168 56.0082 88.6755 54.9161C88.3901 54.8196 88.1073 54.718 87.8134 54.6398C87.7254 54.6163 87.6368 54.6039 87.5488 54.5824C84.0026 53.7027 80.3195 54.2116 77.146 56.0434L36.7408 79.3722L44.788 49.8274L88.0388 24.857C93.196 21.8784 99.8127 23.6528 102.79 28.8093C104.222 31.2888 104.609 34.1795 103.886 36.934ZM89.5559 77.5809L77.3095 84.8662L55.2931 97.8405L63.6133 67.6198L78.7751 58.8657C79.3994 58.5053 80.0497 58.2101 80.7176 57.9833C82.4236 57.4034 84.243 57.2678 86.0363 57.5845C86.3485 57.6399 86.66 57.7038 86.9702 57.7872C89.7559 58.5333 92.0849 60.3208 93.527 62.8185L93.5316 62.8277C94.6589 64.7865 95.1294 67.698 94.756 70.3027C94.1513 73.3667 92.2882 76.0032 89.5559 77.5809ZM68.7417 115.069L55.2944 101.622L73.7086 90.7701L75.5338 89.6949L68.7417 115.069ZM105.612 27.1802C101.737 20.4676 93.1217 18.1588 86.4097 22.0354L42.5776 47.3414C42.2055 47.5564 41.9338 47.9096 41.8204 48.324L32.5573 82.3327C32.3839 82.97 32.612 83.649 33.1346 84.0517C33.4266 84.2759 33.7771 84.3899 34.1297 84.3899C34.4092 84.3899 34.6907 84.3182 34.9436 84.1716L59.5953 69.9384L51.0841 100.854C51.0646 100.922 51.0529 100.992 51.0431 101.061C51.0424 101.067 51.0392 101.074 51.0385 101.08C51.0379 101.082 51.0385 101.084 51.0385 101.086C51.0242 101.196 51.0255 101.307 51.0346 101.416C51.0366 101.441 51.0392 101.466 51.0424 101.492C51.0561 101.6 51.077 101.707 51.1128 101.811C51.1141 101.815 51.1161 101.818 51.1174 101.822C51.1526 101.922 51.1995 102.018 51.2536 102.111C51.266 102.131 51.2777 102.15 51.2901 102.17C51.35 102.263 51.4178 102.351 51.4966 102.431C51.4992 102.433 51.5005 102.437 51.5025 102.438L68.4335 119.369C68.743 119.679 69.1588 119.846 69.5856 119.846C69.7264 119.846 69.8678 119.828 70.0072 119.79C70.5696 119.64 71.0088 119.201 71.1593 118.638L79.5388 87.3314L91.2039 80.3914C94.668 78.3909 97.0224 74.7013 98.155 70.4389C98.1628 70.4141 98.1706 70.3893 98.1771 70.3646L107.034 37.7778C107.98 34.1716 107.475 30.4077 105.612 27.1802Z" fill="white"/>
</svg>
