<svg width="140" height="140" viewBox="0 0 140 140" fill="none" xmlns="http://www.w3.org/2000/svg">
<rect width="140" height="140" rx="20" fill="#FF4438"/>
<path d="M118.364 75.1724C110.867 84.6177 102.771 95.4123 86.5796 95.4123C72.1165 95.4123 66.7283 82.6553 66.3495 72.292C69.5183 78.9928 75.7138 84.419 85.3802 84.1679C103.971 83.5682 116.714 66.7766 116.714 51.4843C116.714 33.1934 103.071 20 79.3832 20C62.4416 20 41.4521 26.4468 27.659 36.6417C27.5091 47.1364 33.3562 60.7796 35.4551 59.2804C47.4128 50.6828 56.8948 45.1483 66.0917 42.3732C52.4778 57.5546 19.8142 92.8049 15.8149 99.0105C16.2647 104.708 23.3112 120 26.7595 120C27.8089 120 28.7085 119.4 29.758 118.351C39.6053 107.286 47.6327 97.3666 54.7729 87.8052C55.7755 101.819 62.6665 118.951 81.9319 118.951C99.1733 118.951 116.265 106.507 124.061 78.4708C124.96 75.0225 120.762 72.3238 118.364 75.1724ZM98.7235 52.5337C98.7235 61.3793 90.0278 65.7271 82.0818 65.7271C77.8344 65.7271 74.5716 64.6118 71.9913 63.1626C76.7391 55.9734 81.4389 48.6014 86.4883 40.7097C95.3918 42.2167 98.7235 47.1656 98.7235 52.5337Z" fill="white"/>
</svg>
