<svg width="302" height="140" viewBox="0 0 302 140" fill="none" xmlns="http://www.w3.org/2000/svg">
<rect width="301.37" height="140" rx="20" fill="#FF4438"/>
<path d="M122.549 75.1724C115.052 84.6177 106.957 95.4123 90.7646 95.4123C76.3015 95.4123 70.9133 82.6553 70.5345 72.292C73.7033 78.9928 79.8989 84.419 89.5652 84.1679C108.156 83.5682 120.9 66.7766 120.9 51.4843C120.9 33.1934 107.256 20 83.5682 20C66.6267 20 45.6372 26.4468 31.8441 36.6417C31.6942 47.1364 37.5412 60.7796 39.6402 59.2804C51.5979 50.6828 61.0799 45.1483 70.2767 42.3732C56.6628 57.5546 23.9992 92.8049 20 99.0105C20.4498 104.708 27.4963 120 30.9445 120C31.994 120 32.8936 119.4 33.943 118.351C43.7903 107.286 51.8178 97.3666 58.958 87.8052C59.9606 101.819 66.8516 118.951 86.1169 118.951C103.358 118.951 120.45 106.507 128.246 78.4708C129.145 75.0225 124.948 72.3238 122.549 75.1724ZM102.909 52.5337C102.909 61.3793 94.2129 65.7271 86.2669 65.7271C82.0195 65.7271 78.7567 64.6118 76.1764 63.1626C80.9242 55.9734 85.624 48.6014 90.6734 40.7097C99.5768 42.2167 102.909 47.1656 102.909 52.5337Z" fill="white"/>
<path d="M161.215 86V53.2727H174.127C176.598 53.2727 178.707 53.7148 180.455 54.5991C182.212 55.4727 183.549 56.7138 184.466 58.3224C185.392 59.9205 185.856 61.8008 185.856 63.9634C185.856 66.1367 185.387 68.0064 184.45 69.5724C183.512 71.1278 182.154 72.321 180.375 73.152C178.606 73.983 176.465 74.3984 173.951 74.3984H165.305V68.8374H172.832C174.153 68.8374 175.25 68.6562 176.124 68.294C176.998 67.9318 177.647 67.3885 178.074 66.6641C178.51 65.9396 178.729 65.0394 178.729 63.9634C178.729 62.8768 178.51 61.9606 178.074 61.2148C177.647 60.4691 176.992 59.9045 176.108 59.521C175.234 59.1268 174.132 58.9297 172.8 58.9297H168.134V86H161.215ZM178.889 71.1065L187.022 86H179.384L171.426 71.1065H178.889ZM201.409 86.4794C198.884 86.4794 196.71 85.968 194.889 84.9453C193.078 83.9119 191.682 82.4524 190.702 80.5668C189.722 78.6705 189.232 76.4279 189.232 73.8391C189.232 71.3143 189.722 69.0984 190.702 67.1914C191.682 65.2844 193.062 63.7983 194.841 62.733C196.631 61.6676 198.729 61.1349 201.137 61.1349C202.756 61.1349 204.264 61.396 205.659 61.918C207.066 62.4293 208.291 63.2017 209.335 64.2351C210.389 65.2685 211.21 66.5682 211.796 68.1342C212.382 69.6896 212.675 71.5114 212.675 73.5994V75.4691H191.948V71.2504H206.267C206.267 70.2702 206.053 69.402 205.627 68.6456C205.201 67.8892 204.61 67.2979 203.854 66.8718C203.108 66.435 202.24 66.2166 201.249 66.2166C200.215 66.2166 199.299 66.4563 198.5 66.9357C197.712 67.4045 197.094 68.0384 196.646 68.8374C196.199 69.6257 195.97 70.5046 195.959 71.4741V75.4851C195.959 76.6996 196.183 77.7489 196.631 78.6332C197.089 79.5174 197.733 80.1992 198.564 80.6786C199.395 81.158 200.381 81.3977 201.52 81.3977C202.277 81.3977 202.969 81.2912 203.598 81.0781C204.226 80.8651 204.764 80.5455 205.212 80.1193C205.659 79.6932 206 79.1712 206.235 78.5533L212.531 78.9688C212.211 80.4815 211.556 81.8026 210.565 82.9318C209.585 84.0504 208.317 84.924 206.762 85.5526C205.217 86.1705 203.433 86.4794 201.409 86.4794ZM226.162 86.3995C224.297 86.3995 222.609 85.9201 221.096 84.9613C219.594 83.9918 218.401 82.5696 217.517 80.6946C216.643 78.8089 216.206 76.4972 216.206 73.7592C216.206 70.9467 216.659 68.6083 217.564 66.744C218.47 64.869 219.674 63.468 221.176 62.5412C222.689 61.6037 224.345 61.1349 226.146 61.1349C227.52 61.1349 228.665 61.3693 229.581 61.8381C230.508 62.2962 231.254 62.8714 231.819 63.5639C232.394 64.2457 232.831 64.9169 233.129 65.5774H233.337V53.2727H240.128V86H233.417V82.0689H233.129C232.809 82.7507 232.357 83.4272 231.771 84.0984C231.195 84.7589 230.444 85.3075 229.518 85.7443C228.601 86.1811 227.483 86.3995 226.162 86.3995ZM228.319 80.9822C229.416 80.9822 230.343 80.6839 231.1 80.0874C231.867 79.4801 232.453 78.6332 232.857 77.5465C233.273 76.4599 233.481 75.1868 233.481 73.7273C233.481 72.2678 233.278 71 232.873 69.924C232.469 68.848 231.883 68.017 231.116 67.4311C230.349 66.8452 229.416 66.5522 228.319 66.5522C227.2 66.5522 226.258 66.8558 225.491 67.4631C224.724 68.0703 224.143 68.9119 223.749 69.9879C223.355 71.0639 223.157 72.3104 223.157 73.7273C223.157 75.1548 223.355 76.4173 223.749 77.5146C224.154 78.6012 224.734 79.4535 225.491 80.0714C226.258 80.6786 227.2 80.9822 228.319 80.9822ZM245.725 86V61.4545H252.533V86H245.725ZM249.145 58.2905C248.133 58.2905 247.265 57.9549 246.54 57.2837C245.827 56.6019 245.47 55.7869 245.47 54.8388C245.47 53.9013 245.827 53.0969 246.54 52.4258C247.265 51.744 248.133 51.4031 249.145 51.4031C250.157 51.4031 251.02 51.744 251.734 52.4258C252.458 53.0969 252.821 53.9013 252.821 54.8388C252.821 55.7869 252.458 56.6019 251.734 57.2837C251.02 57.9549 250.157 58.2905 249.145 58.2905ZM278.409 68.4538L272.176 68.8374C272.07 68.3047 271.841 67.8253 271.489 67.3991C271.138 66.9624 270.674 66.6161 270.099 66.3604C269.534 66.0941 268.858 65.9609 268.07 65.9609C267.015 65.9609 266.125 66.1847 265.401 66.6321C264.676 67.0689 264.314 67.6548 264.314 68.3899C264.314 68.9759 264.549 69.4712 265.017 69.8761C265.486 70.2809 266.29 70.6058 267.43 70.8509L271.873 71.7457C274.259 72.2358 276.038 73.0241 277.21 74.1108C278.382 75.1974 278.968 76.625 278.968 78.3935C278.968 80.0021 278.494 81.4137 277.546 82.6282C276.608 83.8427 275.319 84.7908 273.679 85.4727C272.049 86.1438 270.168 86.4794 268.038 86.4794C264.788 86.4794 262.2 85.8029 260.271 84.4499C258.354 83.0863 257.23 81.2326 256.9 78.8888L263.595 78.5373C263.798 79.5281 264.288 80.2844 265.065 80.8065C265.843 81.3178 266.839 81.5735 268.054 81.5735C269.247 81.5735 270.206 81.3445 270.93 80.8864C271.665 80.4176 272.038 79.8157 272.049 79.0806C272.038 78.4627 271.777 77.9567 271.266 77.5625C270.754 77.1577 269.966 76.8487 268.901 76.6357L264.65 75.7887C262.253 75.3093 260.468 74.4783 259.297 73.2958C258.135 72.1133 257.555 70.6058 257.555 68.7734C257.555 67.1967 257.981 65.8384 258.833 64.6985C259.696 63.5586 260.905 62.6797 262.461 62.0618C264.027 61.4439 265.859 61.1349 267.958 61.1349C271.058 61.1349 273.498 61.7901 275.277 63.1005C277.066 64.4109 278.11 66.1953 278.409 68.4538Z" fill="white"/>
</svg>
