<svg width="271" height="140" viewBox="0 0 271 140" fill="none" xmlns="http://www.w3.org/2000/svg">
<rect width="271" height="140" rx="20" fill="#F74B00"/>
<path d="M119.317 68.7736L115.119 66.1747C115.083 65.7668 115.043 65.3592 114.999 64.9521L118.607 61.5869C118.787 61.4192 118.922 61.2082 118.997 60.9738C119.073 60.7394 119.087 60.4896 119.039 60.2482C118.991 60.0066 118.883 59.7812 118.723 59.5935C118.564 59.4059 118.359 59.2622 118.129 59.1763L113.516 57.4517C113.401 57.0534 113.28 56.6565 113.155 56.2611L116.032 52.2654C116.176 52.0656 116.267 51.8323 116.295 51.5877C116.324 51.3431 116.289 51.0952 116.195 50.8676C116.101 50.6401 115.95 50.4403 115.757 50.2875C115.564 50.1346 115.335 50.0337 115.092 49.9943L110.229 49.2033C110.039 48.8345 109.843 48.4712 109.644 48.1111L111.688 43.6255C111.79 43.4017 111.834 43.1552 111.814 42.9097C111.795 42.6641 111.712 42.4277 111.575 42.2232C111.439 42.018 111.252 41.8512 111.033 41.7389C110.814 41.6265 110.57 41.5724 110.323 41.5818L105.387 41.7536C105.133 41.4343 104.873 41.1191 104.608 40.8079L105.742 36.0001C105.799 35.7603 105.793 35.51 105.726 35.273C105.659 35.036 105.532 34.8202 105.357 34.6462C105.183 34.472 104.967 34.3452 104.73 34.2778C104.494 34.2104 104.244 34.2046 104.004 34.2611L99.1973 35.3943C98.8852 35.1297 98.5693 34.8698 98.2496 34.6146L98.4223 29.6791C98.4315 29.433 98.3775 29.1887 98.2653 28.9695C98.1531 28.7503 97.9866 28.5636 97.7816 28.4271C97.577 28.2901 97.3407 28.2078 97.0952 28.1879C96.8497 28.1681 96.6033 28.2114 96.3793 28.3138L91.8949 30.3583C91.5332 30.1587 91.1691 29.9634 90.8027 29.7724L90.0098 24.9084C89.9701 24.6655 89.869 24.4368 89.7162 24.2439C89.5633 24.051 89.3638 23.9003 89.1364 23.8061C88.909 23.712 88.6613 23.6774 88.4169 23.7058C88.1724 23.7341 87.9392 23.8244 87.7394 23.9681L83.741 26.8451C83.3476 26.7201 82.9519 26.5994 82.5527 26.4849L80.8281 21.872C80.7423 21.6409 80.5987 21.4357 80.411 21.2759C80.2233 21.1162 79.9977 21.0072 79.7559 20.9595C79.5146 20.9121 79.2652 20.9268 79.0312 21.0024C78.7972 21.078 78.5863 21.2119 78.4184 21.3916L75.0531 25.0021C74.6462 24.9565 74.2386 24.9167 73.8305 24.8826L71.2316 20.6834C71.1021 20.4741 70.9213 20.3014 70.7064 20.1817C70.4914 20.0619 70.2494 19.999 70.0033 19.999C69.7572 19.999 69.5152 20.0619 69.3003 20.1817C69.0853 20.3014 68.9045 20.4741 68.775 20.6834L66.1762 24.8826C65.7677 24.9166 65.3597 24.9565 64.9523 25.0021L61.5863 21.3916C61.4186 21.2112 61.2075 21.0768 60.9731 21.0012C60.7387 20.9255 60.4889 20.911 60.2473 20.9592C60.0058 21.0073 59.7806 21.1165 59.5932 21.2763C59.4058 21.4361 59.2623 21.6412 59.1766 21.872L57.4523 26.4849C57.0527 26.5994 56.6574 26.7209 56.2629 26.8451L52.2652 23.9681C52.0655 23.8238 51.8321 23.7331 51.5874 23.7047C51.3426 23.6763 51.0946 23.7112 50.8672 23.806C50.64 23.9004 50.4405 24.0511 50.2878 24.244C50.135 24.4369 50.034 24.6656 49.9941 24.9084L49.2012 29.7724C48.834 29.9627 48.4711 30.1583 48.109 30.3583L43.6242 28.3134C43.4004 28.211 43.154 28.1676 42.9086 28.1875C42.6632 28.2074 42.4271 28.2899 42.2227 28.4271C42.0175 28.5635 41.8509 28.7502 41.7386 28.9694C41.6262 29.1886 41.5721 29.4329 41.5812 29.6791L41.7531 34.6146C41.4338 34.8703 41.1179 35.1302 40.8055 35.3943L35.9988 34.2615C35.7591 34.2053 35.5089 34.2111 35.272 34.2784C35.0351 34.3458 34.8193 34.4723 34.6449 34.6462C34.4705 34.8202 34.3435 35.036 34.2761 35.273C34.2086 35.51 34.203 35.7603 34.2598 36.0001L35.3922 40.8079C35.1293 41.1193 34.8695 41.4345 34.6145 41.7536L29.6785 41.5818C29.4327 41.574 29.189 41.6287 28.9701 41.7409C28.7512 41.853 28.5643 42.0188 28.427 42.2228C28.29 42.4274 28.2076 42.6637 28.1877 42.9092C28.1678 43.1546 28.2111 43.4011 28.3133 43.6251L30.3578 48.1111C30.159 48.4712 29.9625 48.8345 29.7719 49.2033L24.909 49.9943C24.666 50.0339 24.4371 50.1349 24.2441 50.2878C24.0511 50.4407 23.9004 50.6404 23.8062 50.8679C23.712 51.0954 23.6775 51.3432 23.706 51.5877C23.7344 51.8323 23.8249 52.0656 23.9688 52.2654L26.8457 56.2615C26.7207 56.656 26.5992 57.0521 26.4844 57.4517L21.8719 59.1763C21.6415 59.2628 21.4371 59.4067 21.2779 59.5943C21.1186 59.782 21.0099 60.0071 20.962 60.2485C20.9141 60.4898 20.9286 60.7394 21.0041 60.9736C21.0795 61.2078 21.2135 61.4189 21.3934 61.5869L25.0016 64.9517C24.9566 65.3579 24.9168 65.7669 24.8824 66.1747L20.6836 68.7736C20.4744 68.9031 20.3018 69.084 20.1821 69.299C20.0625 69.514 19.9998 69.756 20 70.0021C20 70.5037 20.259 70.9681 20.684 71.2298L24.8824 73.8287C24.9168 74.2376 24.9566 74.6458 25.0016 75.0517L21.393 78.4177C21.2128 78.5855 21.0785 78.7965 21.0029 79.0307C20.9272 79.265 20.9127 79.5147 20.9607 79.7561C21.0086 79.9975 21.1176 80.2227 21.277 80.4102C21.4365 80.5977 21.6413 80.7414 21.8719 80.8275L26.4844 82.5521C26.5992 82.9513 26.7207 83.3478 26.8457 83.7423L23.9688 87.7388C23.8246 87.9386 23.7339 88.1719 23.7054 88.4166C23.6769 88.6613 23.7115 88.9092 23.8058 89.1367C23.9002 89.3643 24.0512 89.5639 24.2445 89.7166C24.4378 89.8693 24.6669 89.97 24.9102 90.0091L29.7723 90.8002C29.9625 91.1689 30.1574 91.5322 30.3582 91.8939L28.3133 96.3783C28.2109 96.6023 28.1676 96.8488 28.1875 97.0942C28.2074 97.3397 28.2898 97.576 28.427 97.7806C28.5633 97.9856 28.75 98.1522 28.9691 98.2644C29.1882 98.3766 29.4325 98.4308 29.6785 98.4216L34.6121 98.249C34.8695 98.5697 35.1285 98.8841 35.3922 99.1966L34.2598 104.005C34.2031 104.245 34.2087 104.495 34.2761 104.731C34.3436 104.968 34.4705 105.183 34.6449 105.356C34.8188 105.531 35.0346 105.658 35.2717 105.725C35.5088 105.793 35.7592 105.798 35.9988 105.74L40.8055 104.608C41.118 104.874 41.4344 105.132 41.7535 105.386L41.5816 110.323C41.5728 110.569 41.627 110.813 41.7391 111.032C41.8513 111.251 42.0176 111.438 42.2223 111.575C42.427 111.712 42.6633 111.794 42.9087 111.813C43.1541 111.833 43.4004 111.789 43.6242 111.687L48.109 109.644C48.4701 109.844 48.8342 110.039 49.2012 110.229L49.9941 115.09C50.0333 115.334 50.1341 115.563 50.2869 115.756C50.4398 115.949 50.6395 116.1 50.8672 116.194C51.0947 116.288 51.3425 116.323 51.5871 116.295C51.8318 116.266 52.0652 116.176 52.2652 116.033L56.2609 113.154C56.6555 113.279 57.0519 113.401 57.4512 113.516L59.1758 118.127C59.2616 118.358 59.4053 118.562 59.5929 118.722C59.7806 118.881 60.006 118.99 60.2477 119.037C60.489 119.086 60.7388 119.072 60.9731 118.996C61.2074 118.921 61.4183 118.786 61.5855 118.605L64.9516 114.997C65.3578 115.044 65.7664 115.083 66.1754 115.119L68.7742 119.317C68.9039 119.526 69.0846 119.699 69.2995 119.818C69.5143 119.938 69.7561 120.001 70.0019 120.001C70.248 120.001 70.4899 119.938 70.7048 119.818C70.9198 119.699 71.1007 119.526 71.2305 119.317L73.8293 115.119C74.2383 115.083 74.6465 115.044 75.0523 114.997L78.4176 118.605C78.5849 118.786 78.7957 118.92 79.0299 118.996C79.2641 119.072 79.5138 119.086 79.7551 119.037C79.9966 118.99 80.222 118.881 80.4096 118.722C80.5972 118.562 80.7409 118.357 80.8269 118.127L82.5516 113.516C82.9508 113.401 83.3476 113.279 83.7422 113.154L87.7387 116.033C87.9386 116.176 88.1719 116.267 88.4165 116.295C88.6611 116.323 88.9089 116.288 89.1363 116.194C89.3637 116.1 89.5632 115.949 89.716 115.756C89.8687 115.562 89.9696 115.333 90.009 115.09L90.8019 110.229C91.1687 110.039 91.5316 109.841 91.8937 109.643L96.3785 111.687C96.6023 111.79 96.8488 111.833 97.0943 111.814C97.3398 111.794 97.5763 111.712 97.7811 111.576C97.9859 111.439 98.1523 111.252 98.2644 111.033C98.3765 110.813 98.4306 110.569 98.4215 110.323L98.2496 105.386C98.5692 105.132 98.8847 104.873 99.1961 104.608L104.003 105.74C104.491 105.855 105.003 105.713 105.356 105.356C105.53 105.183 105.657 104.968 105.725 104.731C105.792 104.495 105.798 104.245 105.741 104.005L104.609 99.1966C104.873 98.8841 105.132 98.5697 105.386 98.249L110.322 98.4216C110.568 98.4309 110.812 98.3769 111.032 98.2647C111.251 98.1526 111.438 97.986 111.574 97.781C111.711 97.5764 111.794 97.3399 111.813 97.0942C111.833 96.8485 111.79 96.6019 111.687 96.3779L109.643 91.8943C109.843 91.5322 110.039 91.1689 110.228 90.8005L115.091 90.0091C115.334 89.9701 115.563 89.8693 115.756 89.7163C115.949 89.5634 116.1 89.3635 116.193 89.1357C116.288 88.9083 116.322 88.6607 116.294 88.4162C116.266 88.1717 116.175 87.9385 116.031 87.7388L113.154 83.7427C113.278 83.3478 113.4 82.9513 113.516 82.5521L118.127 80.8275C118.358 80.7416 118.563 80.5979 118.723 80.4102C118.882 80.2225 118.991 79.9969 119.038 79.7552C119.087 79.5139 119.072 79.2642 118.997 79.03C118.921 78.7958 118.786 78.585 118.606 78.4177L114.998 75.0517C115.042 74.6455 115.082 74.2369 115.118 73.829L119.316 71.2298C119.525 71.1006 119.698 70.9199 119.818 70.705C119.938 70.4901 120 70.2481 120 70.0021C120 69.5017 119.742 69.0365 119.317 68.7736ZM91.2183 103.6C89.6152 103.255 88.5957 101.674 88.9398 100.066C89.2828 98.4599 90.8617 97.4376 92.4644 97.7834C94.0676 98.1267 95.0887 99.7095 94.7449 101.315C94.4012 102.92 92.8207 103.944 91.2183 103.6ZM89.7918 93.9521C89.4439 93.8775 89.0848 93.8722 88.7348 93.9365C88.3849 94.0009 88.0511 94.1336 87.7526 94.327C87.454 94.5204 87.1964 94.7709 86.9947 95.0639C86.793 95.357 86.651 95.6869 86.5769 96.0349L85.0863 102.991C80.4867 105.078 75.3793 106.238 70 106.238C64.4977 106.238 59.2789 105.021 54.5977 102.844L53.1078 95.8888C52.7945 94.4251 51.3555 93.4927 49.8937 93.8068L43.7531 95.1255C42.6119 93.9509 41.5511 92.7007 40.5781 91.3833H70.457C70.7949 91.3833 71.0203 91.322 71.0203 91.0142V80.4451C71.0203 80.1376 70.7949 80.0763 70.4566 80.0763H61.7187V73.3771H71.1699C72.0324 73.3771 75.7828 73.6232 76.9816 78.4169C77.3574 79.8912 78.1816 84.6865 78.7457 86.2216C79.3074 87.9435 81.5945 91.383 84.032 91.383H98.9207C99.0898 91.383 99.2703 91.3638 99.4605 91.3294C98.4275 92.7324 97.2959 94.06 96.0742 95.3021L89.7918 93.9521ZM48.4676 103.455C46.8641 103.801 45.2855 102.779 44.9406 101.172C44.5977 99.5634 45.6172 97.9841 47.2203 97.6384C48.8238 97.2955 50.4031 98.3177 50.7469 99.9236C51.0898 101.529 50.0699 103.111 48.4676 103.455ZM37.1328 57.4939C37.798 58.9947 37.1211 60.7536 35.6223 61.4177C34.1234 62.0837 32.3691 61.406 31.7043 59.904C31.0391 58.4021 31.7156 56.6462 33.2148 55.9802C33.5714 55.8221 33.9557 55.7357 34.3457 55.7262C34.7356 55.7167 35.1236 55.7841 35.4875 55.9247C35.8514 56.0652 36.184 56.2761 36.4663 56.5453C36.7486 56.8145 36.9751 57.1371 37.1328 57.4939ZM33.6492 65.7517L40.0461 62.9091C40.7028 62.617 41.2166 62.0761 41.4747 61.4053C41.7329 60.7346 41.7141 59.9887 41.4227 59.3318L40.1055 56.3529H45.2867V79.7076H34.8332C33.9066 76.4455 33.4378 73.0705 33.4402 69.6794C33.4402 68.3521 33.5117 67.0408 33.6492 65.7517ZM61.7203 63.4833V56.5993H74.0586C74.6961 56.5993 78.5586 57.3361 78.5586 60.2244C78.5586 62.6224 75.5961 63.4822 73.1598 63.4822H61.7203V63.4833ZM106.561 69.6794C106.561 70.5927 106.527 71.4966 106.461 72.3935H102.709C102.334 72.3935 102.183 72.6404 102.183 73.008V74.7306C102.183 78.7853 99.8965 79.6673 97.893 79.8919C95.9851 80.1068 93.8695 79.0931 93.609 77.9255C92.4832 71.5951 90.6078 70.2431 87.6461 67.9068C91.3219 65.5728 95.1461 62.1294 95.1461 57.5201C95.1461 52.5435 91.7344 49.4087 89.4086 47.8716C86.1461 45.7208 82.5336 45.2896 81.559 45.2896H42.7652C48.0258 39.4185 55.1555 35.2595 63.2191 33.7462L67.7918 38.5431C68.0371 38.8006 68.3308 39.0072 68.6561 39.151C68.9813 39.2948 69.3318 39.373 69.6873 39.3812C70.0429 39.3894 70.3966 39.3274 70.7281 39.1988C71.0597 39.0701 71.3626 38.8773 71.6195 38.6314L76.7359 33.7376C87.4566 35.7337 96.5336 42.4072 101.764 51.563L98.2617 59.4744C97.657 60.8435 98.2742 62.4447 99.6394 63.0513L106.383 66.0466C106.5 67.2439 106.561 68.4533 106.561 69.6794ZM67.7937 29.6654C68.9785 28.5306 70.8578 28.5755 71.9922 29.7619C73.1242 30.9517 73.0812 32.8329 71.8937 33.9669C70.709 35.1021 68.8297 35.0579 67.6953 33.8693C67.1518 33.2983 66.8569 32.5351 66.8753 31.747C66.8938 30.9589 67.2241 30.2103 67.7937 29.6654ZM102.553 57.638C102.71 57.2813 102.937 56.9591 103.219 56.6899C103.501 56.4208 103.834 56.2099 104.198 56.0694C104.562 55.9289 104.95 55.8616 105.339 55.8712C105.729 55.8808 106.113 55.9673 106.47 56.1255C107.969 56.7904 108.646 58.5486 107.98 60.0494C107.823 60.4063 107.597 60.7286 107.314 60.9979C107.032 61.2673 106.699 61.4783 106.335 61.6189C105.972 61.7595 105.583 61.8269 105.193 61.8173C104.803 61.8077 104.419 61.7213 104.062 61.563C102.565 60.8978 101.889 59.1412 102.553 57.638Z" fill="white"/>
<path d="M152.844 86V53.2727H165.756C168.228 53.2727 170.337 53.7148 172.085 54.5991C173.842 55.4727 175.179 56.7138 176.096 58.3224C177.022 59.9205 177.486 61.8008 177.486 63.9634C177.486 66.1367 177.017 68.0064 176.08 69.5724C175.142 71.1278 173.784 72.321 172.005 73.152C170.236 73.983 168.095 74.3984 165.581 74.3984H156.935V68.8374H164.462C165.783 68.8374 166.88 68.6562 167.754 68.294C168.627 67.9318 169.277 67.3885 169.703 66.6641C170.14 65.9396 170.359 65.0394 170.359 63.9634C170.359 62.8768 170.14 61.9606 169.703 61.2148C169.277 60.4691 168.622 59.9045 167.738 59.521C166.864 59.1268 165.762 58.9297 164.43 58.9297H159.764V86H152.844ZM170.518 71.1065L178.652 86H171.014L163.056 71.1065H170.518ZM197.988 75.549V61.4545H204.796V86H198.26V81.5415H198.004C197.45 82.9798 196.529 84.1357 195.24 85.0092C193.961 85.8828 192.401 86.3196 190.558 86.3196C188.917 86.3196 187.473 85.9467 186.227 85.201C184.98 84.4553 184.006 83.3952 183.303 82.021C182.61 80.6467 182.259 79.0007 182.248 77.0831V61.4545H189.055V75.8686C189.066 77.3175 189.455 78.4627 190.222 79.3043C190.989 80.146 192.017 80.5668 193.306 80.5668C194.126 80.5668 194.893 80.3803 195.607 80.0075C196.321 79.6239 196.896 79.0593 197.333 78.3136C197.781 77.5678 197.999 76.6463 197.988 75.549ZM230.664 68.4538L224.431 68.8374C224.325 68.3047 224.096 67.8253 223.744 67.3991C223.393 66.9624 222.929 66.6161 222.354 66.3604C221.789 66.0941 221.113 65.9609 220.324 65.9609C219.27 65.9609 218.38 66.1847 217.656 66.6321C216.931 67.0689 216.569 67.6548 216.569 68.3899C216.569 68.9759 216.804 69.4712 217.272 69.8761C217.741 70.2809 218.545 70.6058 219.685 70.8509L224.128 71.7457C226.514 72.2358 228.293 73.0241 229.465 74.1108C230.637 75.1974 231.223 76.625 231.223 78.3935C231.223 80.0021 230.749 81.4137 229.801 82.6282C228.863 83.8427 227.574 84.7908 225.934 85.4727C224.304 86.1438 222.423 86.4794 220.293 86.4794C217.043 86.4794 214.454 85.8029 212.526 84.4499C210.609 83.0863 209.485 81.2326 209.154 78.8888L215.85 78.5373C216.052 79.5281 216.543 80.2844 217.32 80.8065C218.098 81.3178 219.094 81.5735 220.309 81.5735C221.502 81.5735 222.46 81.3445 223.185 80.8864C223.92 80.4176 224.293 79.8157 224.304 79.0806C224.293 78.4627 224.032 77.9567 223.521 77.5625C223.009 77.1577 222.221 76.8487 221.155 76.6357L216.905 75.7887C214.508 75.3093 212.723 74.4783 211.551 73.2958C210.39 72.1133 209.81 70.6058 209.81 68.7734C209.81 67.1967 210.236 65.8384 211.088 64.6985C211.951 63.5586 213.16 62.6797 214.715 62.0618C216.282 61.4439 218.114 61.1349 220.213 61.1349C223.313 61.1349 225.752 61.7901 227.532 63.1005C229.321 64.4109 230.365 66.1953 230.664 68.4538ZM248.565 61.4545V66.5682H233.784V61.4545H248.565ZM237.14 55.5739H243.947V78.4574C243.947 79.0859 244.043 79.576 244.235 79.9276C244.426 80.2685 244.693 80.5082 245.034 80.6467C245.385 80.7852 245.79 80.8544 246.248 80.8544C246.568 80.8544 246.887 80.8278 247.207 80.7745C247.527 80.7106 247.772 80.6626 247.942 80.6307L249.013 85.6964C248.672 85.8029 248.192 85.9254 247.575 86.0639C246.957 86.2131 246.206 86.3036 245.321 86.3356C243.681 86.3995 242.243 86.1811 241.007 85.6804C239.782 85.1797 238.828 84.402 238.146 83.3473C237.464 82.2926 237.129 80.9609 237.14 79.3523V55.5739Z" fill="white"/>
</svg>
