<svg width="262" height="140" viewBox="0 0 262 140" fill="none" xmlns="http://www.w3.org/2000/svg">
<rect width="262" height="140" rx="20" fill="#962074"/>
<path d="M90.4192 27.1429C88.4427 27.1429 86.8385 25.5429 86.8385 23.5714C86.8385 21.6 85.2343 20 83.2577 20H73.7114C71.7348 20 70.1306 21.6 70.1306 23.5714V35.4786C70.1306 37.45 68.5265 39.05 66.5499 39.05H23.5808C21.6042 39.05 20 40.65 20 42.6214V109.286C20 111.257 21.6042 112.857 23.5808 112.857C25.5573 112.857 27.1615 114.457 27.1615 116.429C27.1615 118.4 28.7657 120 30.7423 120H40.2886C42.2652 120 43.8694 118.4 43.8694 116.429V104.521C43.8694 102.55 45.4735 100.95 47.4501 100.95H90.4192C92.3958 100.95 94 99.35 94 97.3786V30.7143C94 28.7429 92.3958 27.1429 90.4192 27.1429Z" fill="white"/>
<path d="M89.2232 77.1429H24.7695V62.8571H89.2232V77.1429Z" fill="#B2218B"/>
<path d="M89.2232 58.0999H24.7695V43.8142H89.2232V58.0999Z" fill="#ED168F"/>
<path d="M89.2232 96.1858H24.7695V81.9001H89.2232V96.1858ZM39.0997 100.95V115.236H31.9382V108.093H24.7767V100.95H39.0997Z" fill="#752A8A"/>
<path d="M82.0688 24.7642V31.9071H89.2304V39.0499H74.9073V24.7642H82.0688Z" fill="#ED168F"/>
<path d="M126.844 86V53.2727H139.756C142.228 53.2727 144.337 53.7148 146.085 54.5991C147.842 55.4727 149.179 56.7138 150.096 58.3224C151.022 59.9205 151.486 61.8008 151.486 63.9634C151.486 66.1367 151.017 68.0064 150.08 69.5724C149.142 71.1278 147.784 72.321 146.005 73.152C144.236 73.983 142.095 74.3984 139.581 74.3984H130.935V68.8374H138.462C139.783 68.8374 140.88 68.6562 141.754 68.294C142.627 67.9318 143.277 67.3885 143.703 66.6641C144.14 65.9396 144.359 65.0394 144.359 63.9634C144.359 62.8768 144.14 61.9606 143.703 61.2148C143.277 60.4691 142.622 59.9045 141.738 59.521C140.864 59.1268 139.762 58.9297 138.43 58.9297H133.764V86H126.844ZM144.518 71.1065L152.652 86H145.014L137.056 71.1065H144.518ZM161.937 61.4545L166.443 70.0359L171.061 61.4545H178.045L170.934 73.7273L178.237 86H171.285L166.443 77.5146L161.681 86H154.65L161.937 73.7273L154.906 61.4545H161.937ZM193.817 86H182.216V53.2727H193.913C197.205 53.2727 200.039 53.9279 202.414 55.2383C204.79 56.538 206.617 58.4077 207.896 60.8473C209.185 63.2869 209.829 66.206 209.829 69.6044C209.829 73.0135 209.185 75.9432 207.896 78.3935C206.617 80.8437 204.779 82.7241 202.382 84.0344C199.996 85.3448 197.141 86 193.817 86ZM189.135 80.0714H193.529C195.575 80.0714 197.295 79.7092 198.691 78.9847C200.097 78.2496 201.152 77.1151 201.855 75.581C202.569 74.0362 202.926 72.044 202.926 69.6044C202.926 67.1861 202.569 65.2099 201.855 63.6758C201.152 62.1417 200.103 61.0124 198.707 60.288C197.311 59.5636 195.591 59.2013 193.545 59.2013H189.135V80.0714ZM214.955 86V53.2727H228.059C230.466 53.2727 232.474 53.6296 234.083 54.3434C235.692 55.0572 236.901 56.0479 237.71 57.3157C238.52 58.5728 238.925 60.0217 238.925 61.6623C238.925 62.9407 238.669 64.0646 238.158 65.0341C237.647 65.9929 236.943 66.7812 236.049 67.3991C235.164 68.0064 234.152 68.4379 233.012 68.6935V69.0131C234.259 69.0664 235.425 69.418 236.512 70.0678C237.609 70.7177 238.499 71.6286 239.181 72.8004C239.862 73.9616 240.203 75.3466 240.203 76.9553C240.203 78.6918 239.772 80.2418 238.909 81.6055C238.057 82.9585 236.794 84.0291 235.122 84.8175C233.449 85.6058 231.388 86 228.937 86H214.955ZM221.874 80.343H227.515C229.443 80.343 230.85 79.9755 231.734 79.2404C232.618 78.4947 233.06 77.5039 233.06 76.2681C233.06 75.3626 232.842 74.5636 232.405 73.8711C231.968 73.1786 231.345 72.6353 230.535 72.2411C229.736 71.8469 228.783 71.6499 227.675 71.6499H221.874V80.343ZM221.874 66.9677H227.004C227.952 66.9677 228.794 66.8026 229.529 66.4723C230.274 66.1314 230.86 65.652 231.286 65.0341C231.723 64.4162 231.942 63.6758 231.942 62.8129C231.942 61.6303 231.521 60.6768 230.679 59.9524C229.848 59.228 228.666 58.8658 227.132 58.8658H221.874V66.9677Z" fill="white"/>
</svg>
