<svg width="515" height="140" viewBox="0 0 515 140" fill="none" xmlns="http://www.w3.org/2000/svg">
<rect width="515" height="140" rx="20" fill="url(#paint0_linear_206_11)"/>
<path d="M161.9 104.975C184.494 82.3305 188.249 49.381 170.287 31.3787C152.327 13.3784 119.454 17.1415 96.8616 39.7847C74.2689 62.4287 80.8045 105.691 88.4762 113.381C94.6755 119.595 139.309 127.618 161.9 104.975Z" fill="#F89939"/>
<path d="M69.1929 72.2543C56.0858 59.1169 37.0107 56.9298 26.5872 67.3766C16.1664 77.822 18.3452 96.9435 31.455 110.079C44.5649 123.22 69.6099 119.419 74.0581 114.957C77.6578 111.355 82.3041 85.3929 69.1929 72.2543Z" fill="#3499CD"/>
<path d="M114.418 99.4248C112.102 101.561 110.071 103.138 108.325 104.151C106.579 105.167 104.914 105.675 103.33 105.675C101.507 105.675 100.037 104.966 98.9223 103.55C97.8056 102.131 97.2492 100.23 97.2492 97.8375C97.2492 94.253 98.0244 89.9496 99.5747 84.9322C101.122 79.9108 103.007 75.2838 105.22 71.0507L111.711 68.6423C111.914 68.5741 112.069 68.5393 112.172 68.5393C112.664 68.5393 113.071 68.9031 113.383 69.6272C113.699 70.3547 113.857 71.3322 113.857 72.5611C113.857 76.0441 113.057 79.416 111.454 82.6769C109.852 85.9392 107.349 89.4207 103.943 93.1256C103.806 94.9015 103.738 96.1211 103.738 96.7877C103.738 98.2741 104.01 99.4502 104.555 100.321C105.101 101.194 105.824 101.627 106.727 101.627C107.649 101.627 108.627 101.297 109.667 100.631C110.704 99.9638 112.288 98.5824 114.417 96.4808V99.4248H114.418ZM104.633 89.4134C106.795 87.003 108.552 84.2997 109.897 81.3089C111.242 78.3168 111.913 75.7432 111.913 73.5868C111.913 72.9583 111.821 72.4475 111.635 72.0637C111.447 71.6792 111.207 71.486 110.918 71.486C110.29 71.486 109.373 73.0586 108.172 76.2045C106.97 79.3498 105.791 83.7534 104.633 89.4134Z" fill="#010101"/>
<path d="M133.531 99.4248C131.369 101.561 129.427 103.138 127.706 104.151C125.985 105.167 124.088 105.675 122.009 105.675C119.692 105.675 117.823 104.932 116.398 103.448C114.977 101.96 114.267 100.007 114.267 97.5821C114.267 93.9634 115.518 90.6891 118.025 87.7612C120.526 84.8319 123.304 83.3683 126.353 83.3683C127.937 83.3683 129.205 83.7795 130.16 84.5985C131.114 85.419 131.591 86.4935 131.591 87.8254C131.591 91.3604 127.844 94.2269 120.349 96.43C121.029 99.7578 122.809 101.424 125.688 101.424C126.813 101.424 127.885 101.121 128.906 100.517C129.93 99.9096 131.471 98.563 133.532 96.4815L133.531 99.4248ZM120.143 94.6882C124.502 93.458 126.684 91.1886 126.684 87.8762C126.684 86.2374 126.087 85.4183 124.896 85.4183C123.771 85.4183 122.699 86.2748 121.678 87.9925C120.653 89.7076 120.143 91.9382 120.143 94.6882Z" fill="#010101"/>
<path d="M160.82 99.4248C158.094 102.02 156.144 103.712 154.969 104.498C153.794 105.283 152.67 105.675 151.596 105.675C148.904 105.675 147.636 103.294 147.789 98.5302C146.086 100.971 144.513 102.772 143.074 103.935C141.635 105.096 140.15 105.675 138.615 105.675C137.118 105.675 135.845 104.972 134.796 103.564C133.746 102.155 133.225 100.427 133.225 98.3764C133.225 95.8169 133.926 93.375 135.331 91.0515C136.738 88.7294 138.539 86.8532 140.735 85.419C142.932 83.9848 144.876 83.2666 146.561 83.2666C148.691 83.2666 150.182 84.2489 151.034 86.2113L156.256 83.3188H157.689L155.433 90.8215C154.275 94.596 153.694 97.1829 153.694 98.5823C153.694 100.05 154.212 100.784 155.252 100.784C155.914 100.784 156.647 100.43 157.448 99.721C158.249 99.0116 159.371 97.9318 160.819 96.4808V99.4248H160.82ZM142.116 100.835C143.82 100.835 145.425 99.38 146.935 96.4695C148.443 93.5576 149.196 90.871 149.196 88.4131C149.196 87.4583 148.981 86.7101 148.557 86.1732C148.13 85.6336 147.559 85.3661 146.845 85.3661C145.141 85.3661 143.525 86.8171 142.004 89.7203C140.479 92.6235 139.716 95.2954 139.716 97.7345C139.716 98.6579 139.942 99.4048 140.393 99.9771C140.844 100.549 141.417 100.835 142.116 100.835Z" fill="#010101"/>
<path d="M179.908 99.4248C175.632 103.625 172.335 105.726 170.019 105.726C168.979 105.726 168.101 105.286 167.387 104.41C166.673 103.53 166.313 102.44 166.313 101.142C166.313 98.7348 167.601 95.5093 170.173 91.4621C168.911 92.1113 167.533 92.562 166.033 92.8187C164.926 94.8674 163.187 97.0706 160.821 99.4242H160.234V97.1221C161.562 95.7393 162.763 94.253 163.837 92.665C162.37 92.0157 161.638 91.0509 161.638 89.7724C161.638 88.4559 162.084 87.0524 162.981 85.5567C163.875 84.0643 165.105 83.3181 166.673 83.3181C168.002 83.3181 168.665 83.9988 168.665 85.3655C168.665 86.4413 168.282 87.9772 167.514 89.9757C170.341 89.6675 172.812 87.5011 174.925 83.4706L177.249 83.3676L174.873 89.9236C173.886 92.6897 173.247 94.5739 172.958 95.5715C172.669 96.5691 172.523 97.4544 172.523 98.2213C172.523 98.9394 172.69 99.5131 173.021 99.937C173.353 100.367 173.801 100.578 174.363 100.578C174.975 100.578 175.564 100.368 176.126 99.9524C176.688 99.5305 177.948 98.3751 179.908 96.4802V99.4248H179.908Z" fill="#010101"/>
<path d="M205 99.4248C201.065 103.593 197.691 105.675 194.881 105.675C193.74 105.675 192.82 105.274 192.122 104.471C191.422 103.669 191.073 102.594 191.073 101.246C191.073 99.4188 191.823 96.6266 193.323 92.8722C194.123 90.857 194.525 89.5745 194.525 89.0303C194.525 88.4833 194.31 88.2098 193.886 88.2098C193.648 88.2098 193.331 88.3302 192.94 88.5676C192.581 88.8063 192.164 89.1419 191.687 89.5678C191.262 89.9597 190.783 90.4377 190.256 90.9994C189.795 91.4815 189.3 92.0271 188.775 92.6395L187.343 94.3058C186.713 95.0734 186.321 95.8831 186.168 96.7376C185.912 98.1885 185.742 99.5218 185.656 100.735C185.604 101.638 185.579 102.858 185.579 104.397L179.932 105.727C179.746 103.422 179.651 101.706 179.651 100.58C179.651 97.8315 179.97 95.2271 180.61 92.7692C181.249 90.3087 182.274 87.5446 183.689 84.4702L189.922 83.2673C188.611 86.8024 187.751 89.5839 187.343 91.6145C190.136 88.4907 192.351 86.3283 193.993 85.1228C195.632 83.9186 197.092 83.3195 198.367 83.3195C199.234 83.3195 199.958 83.6471 200.535 84.303C201.115 84.9596 201.403 85.784 201.403 86.7696C201.403 88.4071 200.671 91.105 199.208 94.8627C198.202 97.4397 197.699 99.1119 197.699 99.8842C197.699 100.912 198.117 101.425 198.953 101.425C200.199 101.425 202.216 99.7772 205 96.4822V99.4248Z" fill="#010101"/>
<path d="M126.15 63.7914L125.522 63.9696C125.483 63.8647 125.425 63.7627 125.348 63.6637C125.273 63.5628 125.17 63.4796 125.04 63.4143C124.909 63.349 124.742 63.3163 124.539 63.3163C124.261 63.3163 124.029 63.3806 123.843 63.5093C123.66 63.636 123.568 63.7974 123.568 63.9934C123.568 64.1676 123.631 64.3051 123.757 64.4061C123.884 64.5071 124.081 64.5912 124.35 64.6585L125.025 64.8248C125.431 64.9238 125.735 65.0752 125.934 65.2791C126.133 65.4811 126.233 65.7414 126.233 66.0601C126.233 66.3214 126.158 66.555 126.008 66.7609C125.86 66.9668 125.653 67.1292 125.386 67.2479C125.12 67.3667 124.81 67.4261 124.456 67.4261C123.992 67.4261 123.608 67.3251 123.304 67.1232C123 66.9213 122.808 66.6263 122.727 66.2383L123.39 66.072C123.453 66.3175 123.573 66.5016 123.748 66.6243C123.926 66.7471 124.158 66.8084 124.444 66.8084C124.77 66.8084 125.029 66.7392 125.22 66.6006C125.414 66.46 125.51 66.2918 125.51 66.0958C125.51 65.9374 125.455 65.8048 125.345 65.6978C125.234 65.589 125.064 65.5078 124.835 65.4543L124.077 65.2762C123.661 65.1772 123.355 65.0238 123.159 64.8159C122.966 64.6061 122.869 64.3438 122.869 64.029C122.869 63.7716 122.941 63.544 123.085 63.346C123.231 63.148 123.43 62.9926 123.68 62.8798C123.933 62.7669 124.219 62.7105 124.539 62.7105C124.989 62.7105 125.343 62.8095 125.599 63.0075C125.858 63.2054 126.042 63.4668 126.15 63.7914Z" fill="white"/>
<path d="M129.133 67.4261C128.707 67.4261 128.339 67.3251 128.031 67.1232C127.723 66.9213 127.486 66.6431 127.321 66.2888C127.155 65.9344 127.072 65.5296 127.072 65.0743C127.072 64.611 127.157 64.2022 127.326 63.8478C127.498 63.4915 127.737 63.2134 128.043 63.0134C128.351 62.8115 128.71 62.7105 129.121 62.7105C129.441 62.7105 129.729 62.7699 129.986 62.8887C130.242 63.0075 130.453 63.1738 130.617 63.3876C130.78 63.6014 130.882 63.8508 130.922 64.1359H130.223C130.169 63.928 130.051 63.7439 129.867 63.5836C129.686 63.4212 129.441 63.3401 129.133 63.3401C128.861 63.3401 128.622 63.4113 128.416 63.5539C128.213 63.6944 128.054 63.8934 127.94 64.1507C127.827 64.4061 127.771 64.706 127.771 65.0505C127.771 65.4029 127.826 65.7097 127.937 65.971C128.049 66.2324 128.207 66.4353 128.41 66.5798C128.616 66.7243 128.857 66.7966 129.133 66.7966C129.315 66.7966 129.479 66.7649 129.627 66.7015C129.776 66.6382 129.901 66.5471 130.004 66.4283C130.106 66.3096 130.179 66.167 130.223 66.0007H130.922C130.882 66.27 130.784 66.5125 130.628 66.7283C130.474 66.9421 130.27 67.1123 130.015 67.239C129.763 67.3637 129.469 67.4261 129.133 67.4261Z" fill="white"/>
<path d="M131.943 67.3311V62.7699H132.642V67.3311H131.943ZM132.299 62.0097C132.162 62.0097 132.045 61.9632 131.946 61.8702C131.85 61.7771 131.801 61.6653 131.801 61.5346C131.801 61.4039 131.85 61.2921 131.946 61.199C132.045 61.106 132.162 61.0595 132.299 61.0595C132.435 61.0595 132.551 61.106 132.648 61.199C132.747 61.2921 132.796 61.4039 132.796 61.5346C132.796 61.6653 132.747 61.7771 132.648 61.8702C132.551 61.9632 132.435 62.0097 132.299 62.0097Z" fill="white"/>
<path d="M134.574 65.6682L134.562 64.8011H134.704L136.694 62.7699H137.559L135.438 64.9198H135.379L134.574 65.6682ZM133.922 67.3311V61.2495H134.621V67.3311H133.922ZM136.813 67.3311L135.036 65.0743L135.533 64.5873L137.701 67.3311H136.813Z" fill="white"/>
<path d="M138.458 67.3311V62.7699H139.157V67.3311H138.458ZM138.814 62.0097C138.678 62.0097 138.56 61.9632 138.461 61.8702C138.365 61.7771 138.316 61.6653 138.316 61.5346C138.316 61.4039 138.365 61.2921 138.461 61.199C138.56 61.106 138.678 61.0595 138.814 61.0595C138.95 61.0595 139.066 61.106 139.163 61.199C139.262 61.2921 139.311 61.4039 139.311 61.5346C139.311 61.6653 139.262 61.7771 139.163 61.8702C139.066 61.9632 138.95 62.0097 138.814 62.0097Z" fill="white"/>
<path d="M142.416 62.7699V63.3638H140.058V62.7699H142.416ZM140.745 61.6771H141.444V66.0245C141.444 66.2225 141.473 66.3709 141.53 66.4699C141.589 66.5669 141.664 66.6323 141.755 66.6659C141.848 66.6976 141.946 66.7134 142.048 66.7134C142.125 66.7134 142.188 66.7095 142.238 66.7015C142.287 66.6916 142.327 66.6837 142.356 66.6778L142.498 67.3073C142.451 67.3251 142.385 67.343 142.3 67.3608C142.215 67.3806 142.108 67.3905 141.977 67.3905C141.78 67.3905 141.586 67.3479 141.397 67.2628C141.209 67.1777 141.053 67.048 140.929 66.8738C140.806 66.6996 140.745 66.4798 140.745 66.2145V61.6771Z" fill="white"/>
<path d="M255.598 62.685C255.471 61.396 254.922 60.3945 253.952 59.6808C252.983 58.967 251.667 58.6101 250.005 58.6101C248.876 58.6101 247.923 58.7699 247.145 59.0895C246.367 59.3984 245.771 59.8299 245.355 60.3839C244.95 60.9379 244.748 61.5664 244.748 62.2695C244.727 62.8555 244.849 63.3668 245.115 63.8036C245.392 64.2404 245.771 64.6186 246.25 64.9382C246.729 65.2472 247.283 65.5188 247.912 65.7532C248.54 65.9769 249.212 66.1687 249.925 66.3285L252.866 67.0316C254.293 67.3512 255.604 67.7773 256.797 68.31C257.99 68.8427 259.023 69.4979 259.897 70.2756C260.771 71.0533 261.447 71.9695 261.926 73.0241C262.417 74.0788 262.667 75.288 262.678 76.6516C262.667 78.6545 262.156 80.391 261.143 81.8612C260.142 83.3207 258.693 84.4553 256.797 85.2649C254.911 86.0639 252.637 86.4634 249.973 86.4634C247.331 86.4634 245.03 86.0586 243.07 85.2489C241.12 84.4393 239.597 83.2408 238.5 81.6534C237.413 80.0554 236.843 78.0792 236.79 75.7248H243.485C243.56 76.8221 243.874 77.7383 244.428 78.4734C244.993 79.1978 245.744 79.7464 246.681 80.1193C247.63 80.4815 248.7 80.6626 249.893 80.6626C251.065 80.6626 252.083 80.4922 252.946 80.1513C253.819 79.8104 254.496 79.3363 254.975 78.729C255.455 78.1218 255.694 77.424 255.694 76.6357C255.694 75.9006 255.476 75.2827 255.039 74.782C254.613 74.2812 253.984 73.8551 253.153 73.5036C252.333 73.152 251.326 72.8324 250.133 72.5447L246.57 71.6499C243.81 70.9787 241.632 69.9293 240.034 68.5018C238.436 67.0742 237.642 65.1513 237.653 62.733C237.642 60.7514 238.169 59.0202 239.235 57.5394C240.311 56.0586 241.786 54.9027 243.661 54.0717C245.536 53.2408 247.667 52.8253 250.053 52.8253C252.482 52.8253 254.602 53.2408 256.413 54.0717C258.235 54.9027 259.652 56.0586 260.664 57.5394C261.676 59.0202 262.198 60.7354 262.23 62.685H255.598ZM278.294 86.4794C275.78 86.4794 273.617 85.9467 271.806 84.8814C270.006 83.8054 268.621 82.3139 267.651 80.407C266.693 78.5 266.213 76.3054 266.213 73.8232C266.213 71.3089 266.698 69.1037 267.667 67.2074C268.647 65.3004 270.038 63.8143 271.838 62.7489C273.639 61.6729 275.78 61.1349 278.262 61.1349C280.403 61.1349 282.278 61.5238 283.887 62.3015C285.496 63.0792 286.769 64.1712 287.706 65.5774C288.644 66.9837 289.161 68.6349 289.256 70.5312H282.832C282.651 69.3061 282.172 68.3207 281.394 67.5749C280.627 66.8185 279.62 66.4403 278.374 66.4403C277.319 66.4403 276.398 66.728 275.609 67.3033C274.832 67.8679 274.225 68.6935 273.788 69.7802C273.351 70.8668 273.133 72.1825 273.133 73.7273C273.133 75.2933 273.346 76.625 273.772 77.7223C274.209 78.8196 274.821 79.6559 275.609 80.2312C276.398 80.8065 277.319 81.0941 278.374 81.0941C279.152 81.0941 279.85 80.9343 280.467 80.6147C281.096 80.2951 281.613 79.8317 282.017 79.2244C282.433 78.6065 282.705 77.8661 282.832 77.0032H289.256C289.15 78.8782 288.639 80.5295 287.722 81.957C286.817 83.3739 285.565 84.4819 283.967 85.2809C282.369 86.0799 280.478 86.4794 278.294 86.4794ZM293.615 86V61.4545H300.423V86H293.615ZM297.035 58.2905C296.023 58.2905 295.154 57.9549 294.43 57.2837C293.716 56.6019 293.359 55.7869 293.359 54.8388C293.359 53.9013 293.716 53.0969 294.43 52.4258C295.154 51.744 296.023 51.4031 297.035 51.4031C298.047 51.4031 298.91 51.744 299.624 52.4258C300.348 53.0969 300.71 53.9013 300.71 54.8388C300.71 55.7869 300.348 56.6019 299.624 57.2837C298.91 57.9549 298.047 58.2905 297.035 58.2905ZM312.044 78.9368L312.06 70.771H313.051L320.913 61.4545H328.727L318.165 73.7912H316.551L312.044 78.9368ZM305.876 86V53.2727H312.683V86H305.876ZM321.217 86L313.994 75.3093L318.532 70.4993L329.191 86H321.217ZM332.067 86V61.4545H338.875V86H332.067ZM335.487 58.2905C334.475 58.2905 333.607 57.9549 332.882 57.2837C332.168 56.6019 331.812 55.7869 331.812 54.8388C331.812 53.9013 332.168 53.0969 332.882 52.4258C333.607 51.744 334.475 51.4031 335.487 51.4031C336.499 51.4031 337.362 51.744 338.076 52.4258C338.8 53.0969 339.162 53.9013 339.162 54.8388C339.162 55.7869 338.8 56.6019 338.076 57.2837C337.362 57.9549 336.499 58.2905 335.487 58.2905ZM357.384 61.4545V66.5682H342.602V61.4545H357.384ZM345.958 55.5739H352.765V78.4574C352.765 79.0859 352.861 79.576 353.053 79.9276C353.245 80.2685 353.511 80.5082 353.852 80.6467C354.204 80.7852 354.608 80.8544 355.067 80.8544C355.386 80.8544 355.706 80.8278 356.025 80.7745C356.345 80.7106 356.59 80.6626 356.76 80.6307L357.831 85.6964C357.49 85.8029 357.011 85.9254 356.393 86.0639C355.775 86.2131 355.024 86.3036 354.14 86.3356C352.499 86.3995 351.061 86.1811 349.825 85.6804C348.6 85.1797 347.646 84.402 346.965 83.3473C346.283 82.2926 345.947 80.9609 345.958 79.3523V55.5739ZM372.361 86V53.2727H379.28V80.2951H393.311V86H372.361ZM408.952 86.4794C406.427 86.4794 404.253 85.968 402.432 84.9453C400.621 83.9119 399.225 82.4524 398.245 80.5668C397.265 78.6705 396.775 76.4279 396.775 73.8391C396.775 71.3143 397.265 69.0984 398.245 67.1914C399.225 65.2844 400.605 63.7983 402.384 62.733C404.173 61.6676 406.272 61.1349 408.68 61.1349C410.299 61.1349 411.807 61.396 413.202 61.918C414.608 62.4293 415.834 63.2017 416.878 64.2351C417.932 65.2685 418.753 66.5682 419.339 68.1342C419.925 69.6896 420.218 71.5114 420.218 73.5994V75.4691H399.491V71.2504H413.809C413.809 70.2702 413.596 69.402 413.17 68.6456C412.744 67.8892 412.153 67.2979 411.396 66.8718C410.651 66.435 409.782 66.2166 408.792 66.2166C407.758 66.2166 406.842 66.4563 406.043 66.9357C405.255 67.4045 404.637 68.0384 404.189 68.8374C403.742 69.6257 403.513 70.5046 403.502 71.4741V75.4851C403.502 76.6996 403.726 77.7489 404.173 78.6332C404.632 79.5174 405.276 80.1992 406.107 80.6786C406.938 81.158 407.923 81.3977 409.063 81.3977C409.82 81.3977 410.512 81.2912 411.141 81.0781C411.769 80.8651 412.307 80.5455 412.755 80.1193C413.202 79.6932 413.543 79.1712 413.778 78.5533L420.074 78.9688C419.754 80.4815 419.099 81.8026 418.108 82.9318C417.128 84.0504 415.86 84.924 414.305 85.5526C412.76 86.1705 410.976 86.4794 408.952 86.4794ZM431.659 86.4634C430.093 86.4634 428.698 86.1918 427.472 85.6484C426.247 85.0945 425.278 84.2795 424.564 83.2035C423.861 82.1168 423.509 80.7638 423.509 79.1445C423.509 77.7809 423.76 76.6357 424.26 75.7088C424.761 74.782 425.443 74.0362 426.306 73.4716C427.169 72.907 428.149 72.4808 429.246 72.1932C430.354 71.9055 431.515 71.7031 432.73 71.5859C434.157 71.4368 435.308 71.2983 436.182 71.1705C437.055 71.032 437.689 70.8295 438.083 70.5632C438.477 70.2969 438.675 69.9027 438.675 69.3807V69.2848C438.675 68.2727 438.355 67.4897 437.716 66.9357C437.087 66.3817 436.192 66.1048 435.031 66.1048C433.806 66.1048 432.831 66.3764 432.107 66.9197C431.382 67.4524 430.903 68.1236 430.669 68.9332L424.372 68.4219C424.692 66.9304 425.32 65.6413 426.258 64.5547C427.195 63.4574 428.405 62.6158 429.885 62.0298C431.377 61.4332 433.103 61.1349 435.063 61.1349C436.427 61.1349 437.732 61.2947 438.978 61.6143C440.235 61.9339 441.349 62.4293 442.318 63.1005C443.298 63.7717 444.07 64.6346 444.635 65.6893C445.2 66.7333 445.482 67.9851 445.482 69.4446V86H439.026V82.5962H438.834C438.44 83.3633 437.913 84.0398 437.252 84.6257C436.592 85.201 435.798 85.6538 434.871 85.984C433.944 86.3036 432.874 86.4634 431.659 86.4634ZM433.609 81.7653C434.61 81.7653 435.494 81.5682 436.262 81.174C437.029 80.7692 437.631 80.2259 438.067 79.544C438.504 78.8622 438.722 78.0898 438.722 77.2269V74.6222C438.509 74.7607 438.216 74.8885 437.844 75.0057C437.481 75.1122 437.071 75.2134 436.613 75.3093C436.155 75.3945 435.697 75.4744 435.239 75.549C434.781 75.6129 434.365 75.6715 433.992 75.7248C433.193 75.842 432.496 76.0284 431.899 76.2841C431.302 76.5398 430.839 76.886 430.509 77.3228C430.178 77.7489 430.013 78.2816 430.013 78.9208C430.013 79.8477 430.349 80.5561 431.02 81.0462C431.702 81.5256 432.565 81.7653 433.609 81.7653ZM450.763 86V61.4545H457.363V65.7372H457.619C458.066 64.2138 458.817 63.0632 459.872 62.2855C460.927 61.4972 462.141 61.103 463.516 61.103C463.857 61.103 464.224 61.1243 464.618 61.1669C465.012 61.2095 465.359 61.2681 465.657 61.3427V67.3832C465.337 67.2873 464.895 67.2021 464.331 67.1275C463.766 67.0529 463.249 67.0156 462.781 67.0156C461.779 67.0156 460.884 67.234 460.096 67.6708C459.318 68.0969 458.7 68.6935 458.242 69.4606C457.795 70.2276 457.571 71.1119 457.571 72.1133V86H450.763ZM475.984 71.8097V86H469.177V61.4545H475.665V65.7852H475.952C476.495 64.3576 477.406 63.2283 478.685 62.3974C479.963 61.5558 481.513 61.1349 483.335 61.1349C485.04 61.1349 486.526 61.5078 487.793 62.2536C489.061 62.9993 490.047 64.0646 490.75 65.4496C491.453 66.8239 491.804 68.4645 491.804 70.3714V86H484.997V71.5859C485.008 70.0838 484.624 68.9119 483.846 68.0703C483.069 67.218 481.998 66.7919 480.634 66.7919C479.718 66.7919 478.908 66.989 478.205 67.3832C477.513 67.7773 476.97 68.3526 476.575 69.109C476.192 69.8548 475.995 70.755 475.984 71.8097Z" fill="white"/>
<defs>
<linearGradient id="paint0_linear_206_11" x1="0" y1="0" x2="130.345" y2="304.602" gradientUnits="userSpaceOnUse">
<stop stop-color="#A3E0FF"/>
<stop offset="1" stop-color="#FF8C17"/>
</linearGradient>
</defs>
</svg>
