<svg width="140" height="140" viewBox="0 0 140 140" fill="none" xmlns="http://www.w3.org/2000/svg">
<rect width="140" height="140" rx="20" fill="#1B3965"/>
<path d="M60.787 92.7087L66.3967 79.0633H78.6671C83.1687 79.0633 87.138 75.8522 87.8063 71.4005C88.001 70.1124 87.9158 68.7974 87.5564 67.5452C87.1971 66.293 86.572 65.1329 85.7237 64.1441C84.8755 63.1553 83.8241 62.3609 82.6412 61.8152C81.4582 61.2694 80.1716 60.9851 78.8688 60.9815H38.1849L60.787 38.3793V47.2237H78.802C89.5629 47.2237 99.9297 55.8911 101.474 66.5409C101.958 69.6858 101.772 72.8975 100.929 75.9658C100.086 79.034 98.6042 81.8895 96.581 84.3454C94.5578 86.8014 92.0387 88.8024 89.1887 90.2174C86.3387 91.6325 83.222 92.4297 80.0425 92.557L98.5397 111.055C108.353 104.233 115.398 94.1214 118.399 82.5527C121.399 70.9839 120.156 58.7231 114.896 47.9917C109.635 37.2602 100.704 28.7681 89.722 24.0539C78.7395 19.3398 66.4317 18.7155 55.0286 22.2941C43.6254 25.8727 33.8813 33.4176 27.5618 43.5616C21.2422 53.7057 18.7652 65.7778 20.5797 77.5908C22.3941 89.4038 28.3799 100.176 37.4525 107.956C46.5251 115.736 58.0844 120.009 70.0359 120C75.3478 120.007 80.6243 119.136 85.6522 117.423L60.787 92.7087Z" fill="#2BB3EB"/>
</svg>
