<svg width="140" height="140" viewBox="0 0 140 140" fill="none" xmlns="http://www.w3.org/2000/svg">
<rect width="140" height="140" rx="20" fill="#6CB52D"/>
<path d="M111.099 25.7525C109.661 29.2487 107.801 32.3481 105.743 35.1252C96.6683 25.8765 83.973 20 69.9636 20C42.4406 20 19.9512 42.3655 19.9512 69.9876C19.9512 84.4185 26.1252 97.4114 35.9194 106.586L37.7791 108.247C46.4327 115.562 57.6898 120 69.9388 120C96.2219 120 117.868 99.4942 119.728 73.6077C121.216 61.0364 117.397 44.9442 111.099 25.7525ZM43.1597 107.007C41.7216 108.867 39.0437 109.065 37.184 107.627C35.3243 106.189 35.126 103.511 36.5641 101.651C38.0023 99.7917 40.6802 99.5934 42.5398 101.031C44.3003 102.47 44.5978 105.148 43.1597 107.007ZM110.802 92.0555C98.5279 108.445 72.1456 102.891 55.3343 103.709C55.3343 103.709 52.334 103.908 49.3586 104.329C49.3586 104.329 50.4991 103.809 51.9373 103.288C63.7895 99.1718 69.3685 98.3288 76.584 94.6343C90.0975 87.7163 103.586 72.5663 106.289 56.8956C101.131 71.9464 85.4607 84.9392 71.2281 90.1959C61.4339 93.816 43.8044 97.3122 43.8044 97.3122L43.0853 96.8906C31.1339 91.0141 30.7124 65.0285 52.582 56.6725C62.1778 52.9531 71.2529 55.0112 81.667 52.5564C92.701 49.9777 105.495 41.7208 110.628 30.91C116.356 48.3412 123.373 75.3434 110.802 92.0555Z" fill="white"/>
</svg>
