<svg width="140" height="140" viewBox="0 0 140 140" fill="none" xmlns="http://www.w3.org/2000/svg">
<rect width="140" height="140" rx="20" fill="#449FD1"/>
<path d="M95.687 24.437H32.9399C28.7345 24.437 25.2937 27.8784 25.2937 32.0836V101.282C25.2937 105.487 28.7345 108.928 32.9399 108.928H74.2668C73.7977 88.3649 80.8197 48.4586 95.687 24.437Z" fill="white"/>
<path d="M93.4075 26.6677H32.9399C29.9538 26.6677 27.5238 29.097 27.5238 32.0836V96.2333C41.2185 90.9773 61.7724 86.4422 75.9842 86.6482C78.8401 71.7153 87.2335 42.4501 93.4075 26.6677Z" fill="#97D9F6"/>
<path d="M110.323 22.1724C106.026 18.34 100.822 19.8794 95.687 24.437C94.9248 25.114 94.1642 25.8652 93.4075 26.6677C84.6226 35.9869 76.4683 53.2492 73.935 66.4324C74.9218 68.4338 75.6927 70.9877 76.2003 72.9385C76.3304 73.4391 76.4478 73.9088 76.5416 74.3085C76.7647 75.2543 76.8845 75.8676 76.8845 75.8676C76.8845 75.8676 76.8057 75.5696 76.4825 74.6324C76.421 74.4527 76.3525 74.2565 76.2713 74.0255C76.2366 73.9301 76.1885 73.8143 76.1357 73.6905C75.5627 72.3584 73.9775 69.5468 73.2799 68.3226C72.6832 70.0828 72.1559 71.7294 71.7145 73.2191C73.7284 76.904 74.9557 83.2188 74.9557 83.2188C74.9557 83.2188 74.8493 82.8096 74.3433 81.3812C73.894 80.1179 71.6562 76.1971 71.1261 75.2804C70.2193 78.6279 69.859 80.8879 70.1839 81.4382C70.8147 82.5045 71.4155 84.3442 71.9431 86.3788C73.1349 90.9623 73.9633 96.5421 73.9633 96.5421C73.9633 96.5421 73.9901 96.9119 74.0351 97.4809C73.8695 101.33 73.9688 105.321 74.2668 108.928C74.6617 113.703 75.405 117.805 76.3525 120L76.9957 119.649C75.6044 115.324 75.0393 109.656 75.2868 103.119C75.6612 93.1275 77.9605 81.0779 82.209 68.5189C89.3867 49.5603 99.3452 34.349 108.46 27.0846C100.152 34.587 88.909 58.8717 85.5433 67.8647C81.7747 77.9351 79.1042 87.3853 77.4946 96.4395C80.2716 87.9513 89.2503 84.3027 89.2503 84.3027C89.2503 84.3027 93.6542 78.8715 98.8006 71.1122C95.7178 71.8153 90.6558 73.0189 88.9603 73.7315C86.4592 74.7806 85.7853 75.1385 85.7853 75.1385C85.7853 75.1385 93.8867 70.2049 100.837 67.9711C110.396 52.9158 120.81 31.5279 110.323 22.1724Z" fill="white"/>
</svg>
