<svg width="140" height="140" viewBox="0 0 140 140" fill="none" xmlns="http://www.w3.org/2000/svg">
<rect width="140" height="140" rx="20" fill="#1A3529"/>
<path d="M78.2151 118.339C75.6605 121.555 70.4806 119.793 70.4191 115.685L69.519 55.6032H109.918C117.235 55.6032 121.316 64.0548 116.766 69.7856L78.2151 118.339Z" fill="url(#paint0_linear_46_29)"/>
<path d="M78.2151 118.339C75.6605 121.555 70.4806 119.793 70.4191 115.685L69.519 55.6032H109.918C117.235 55.6032 121.316 64.0548 116.766 69.7856L78.2151 118.339Z" fill="url(#paint1_linear_46_29)" fill-opacity="0.2"/>
<path d="M61.785 21.6616C64.3397 18.4441 69.5196 20.207 69.5811 24.3149L69.9756 84.3969H30.0821C22.7645 84.3969 18.6834 75.9453 23.2337 70.2145L61.785 21.6616Z" fill="#3ECF8E"/>
<defs>
<linearGradient id="paint0_linear_46_29" x1="21.321" y1="40.6869" x2="86.3365" y2="75.462" gradientUnits="userSpaceOnUse">
<stop stop-color="#103323"/>
<stop offset="1" stop-color="#3ECF8E"/>
</linearGradient>
<linearGradient id="paint1_linear_46_29" x1="-10.2045" y1="6.84158" x2="11.5804" y2="59.1418" gradientUnits="userSpaceOnUse">
<stop/>
<stop offset="1" stop-opacity="0"/>
</linearGradient>
</defs>
</svg>
