<svg width="303" height="140" viewBox="0 0 303 140" fill="none" xmlns="http://www.w3.org/2000/svg">
<rect width="302.176" height="140" rx="20" fill="#FF3E00"/>
<path d="M107.288 28.7999C96.8882 13.8999 76.2882 9.49993 61.4882 18.9999L35.3882 35.5999C28.2882 40.0999 23.3882 47.3999 21.8882 55.5999C20.6882 62.4999 21.6882 69.5999 24.9882 75.7999C22.7882 79.1999 21.1882 82.9999 20.4882 86.9999C18.9882 95.4999 20.9882 104.2 25.8882 111.2C36.2882 126.1 56.7882 130.5 71.6882 121L97.7882 104.4C104.888 99.8999 109.788 92.5999 111.288 84.3999C112.488 77.4999 111.488 70.3999 108.188 64.1999C110.388 60.7999 111.988 56.9999 112.688 52.9999C114.188 44.4999 112.188 35.7999 107.288 28.7999ZM99.7882 50.1999C99.5882 50.9999 99.3882 51.7999 99.1882 52.5999L98.6882 54.0999L97.3882 53.0999C94.2882 50.7999 90.8882 49.0999 87.1882 47.9999L86.1882 47.6999L86.2882 46.6999C86.3882 45.2999 85.9882 43.9999 85.1882 42.7999C83.6882 40.5999 80.9882 39.6999 78.4882 40.2999C77.8882 40.4999 77.3882 40.6999 76.8882 40.9999L50.7882 57.6999C49.4882 58.4999 48.5882 59.7999 48.3882 61.2999C48.0882 62.7999 48.4882 64.3999 49.3882 65.6999C50.8882 67.8999 53.5882 68.7999 56.0882 68.1999C56.6882 67.9999 57.1882 67.7999 57.6882 67.4999L67.6882 61.1999C69.2882 60.1999 71.0882 59.3999 72.9882 58.8999C81.3882 56.6999 90.2882 59.9999 95.1882 67.0999C98.1882 71.2999 99.3882 76.4999 98.4882 81.5999C97.5882 86.5999 94.6882 90.9999 90.3882 93.6999L64.1882 110.3C62.5882 111.3 60.7882 112.1 58.8882 112.6C50.4882 114.8 41.5882 111.5 36.6882 104.4C33.6882 100.2 32.4882 94.9999 33.3882 89.8999C33.5882 89.0999 33.7882 88.2999 33.9882 87.4999L34.4882 85.9999L35.7882 86.9999C38.8882 89.2999 42.2882 90.9999 45.9882 92.0999L46.9882 92.3999L46.8882 93.3999C46.7882 94.7999 47.1882 96.1999 47.9882 97.2999C49.4882 99.4999 52.1882 100.4 54.6882 99.7999C55.2882 99.5999 55.7882 99.3999 56.2882 99.0999L82.3882 82.4999C83.6882 81.6999 84.5882 80.3999 84.8882 78.8999C85.1882 77.3999 84.7882 75.7999 83.8882 74.4999C82.3882 72.2999 79.6882 71.3999 77.1882 71.9999C76.5882 72.1999 76.0882 72.3999 75.5882 72.6999L65.5882 78.9999C63.9882 79.9999 62.1882 80.7999 60.2882 81.2999C51.8882 83.3999 42.9882 80.0999 37.9882 72.8999C34.9882 68.6999 33.7882 63.4999 34.6882 58.3999C35.5882 53.3999 38.4882 48.9999 42.7882 46.2999L68.9882 29.6999C70.5882 28.6999 72.3882 27.8999 74.2882 27.3999C82.6882 25.1999 91.5882 28.4999 96.4882 35.5999C99.4882 39.8999 100.688 45.0999 99.7882 50.1999Z" fill="white"/>
<path d="M107.288 28.7999C96.8882 13.8999 76.2882 9.49993 61.4882 18.9999L35.3882 35.5999C28.2882 40.0999 23.3882 47.3999 21.8882 55.5999C20.6882 62.4999 21.6882 69.5999 24.9882 75.7999C22.7882 79.1999 21.1882 82.9999 20.4882 86.9999C18.9882 95.4999 20.9882 104.2 25.8882 111.2C36.2882 126.1 56.7882 130.5 71.6882 121L97.7882 104.4C104.888 99.8999 109.788 92.5999 111.288 84.3999C112.488 77.4999 111.488 70.3999 108.188 64.1999C110.388 60.7999 111.988 56.9999 112.688 52.9999C114.188 44.4999 112.188 35.7999 107.288 28.7999ZM99.7882 50.1999C99.5882 50.9999 99.3882 51.7999 99.1882 52.5999L98.6882 54.0999L97.3882 53.0999C94.2882 50.7999 90.8882 49.0999 87.1882 47.9999L86.1882 47.6999L86.2882 46.6999C86.3882 45.2999 85.9882 43.9999 85.1882 42.7999C83.6882 40.5999 80.9882 39.6999 78.4882 40.2999C77.8882 40.4999 77.3882 40.6999 76.8882 40.9999L50.7882 57.6999C49.4882 58.4999 48.5882 59.7999 48.3882 61.2999C48.0882 62.7999 48.4882 64.3999 49.3882 65.6999C50.8882 67.8999 53.5882 68.7999 56.0882 68.1999C56.6882 67.9999 57.1882 67.7999 57.6882 67.4999L67.6882 61.1999C69.2882 60.1999 71.0882 59.3999 72.9882 58.8999C81.3882 56.6999 90.2882 59.9999 95.1882 67.0999C98.1882 71.2999 99.3882 76.4999 98.4882 81.5999C97.5882 86.5999 94.6882 90.9999 90.3882 93.6999L64.1882 110.3C62.5882 111.3 60.7882 112.1 58.8882 112.6C50.4882 114.8 41.5882 111.5 36.6882 104.4C33.6882 100.2 32.4882 94.9999 33.3882 89.8999C33.5882 89.0999 33.7882 88.2999 33.9882 87.4999L34.4882 85.9999L35.7882 86.9999C38.8882 89.2999 42.2882 90.9999 45.9882 92.0999L46.9882 92.3999L46.8882 93.3999C46.7882 94.7999 47.1882 96.1999 47.9882 97.2999C49.4882 99.4999 52.1882 100.4 54.6882 99.7999C55.2882 99.5999 55.7882 99.3999 56.2882 99.0999L82.3882 82.4999C83.6882 81.6999 84.5882 80.3999 84.8882 78.8999C85.1882 77.3999 84.7882 75.7999 83.8882 74.4999C82.3882 72.2999 79.6882 71.3999 77.1882 71.9999C76.5882 72.1999 76.0882 72.3999 75.5882 72.6999L65.5882 78.9999C63.9882 79.9999 62.1882 80.7999 60.2882 81.2999C51.8882 83.3999 42.9882 80.0999 37.9882 72.8999C34.9882 68.6999 33.7882 63.4999 34.6882 58.3999C35.5882 53.3999 38.4882 48.9999 42.7882 46.2999L68.9882 29.6999C70.5882 28.6999 72.3882 27.8999 74.2882 27.3999C82.6882 25.1999 91.5882 28.4999 96.4882 35.5999C99.4882 39.8999 100.688 45.0999 99.7882 50.1999Z" fill="white"/>
<path d="M163.775 62.685C163.647 61.396 163.098 60.3945 162.129 59.6808C161.159 58.967 159.844 58.6101 158.182 58.6101C157.052 58.6101 156.099 58.7699 155.321 59.0895C154.544 59.3984 153.947 59.8299 153.532 60.3839C153.127 60.9379 152.924 61.5664 152.924 62.2695C152.903 62.8555 153.025 63.3668 153.292 63.8036C153.569 64.2404 153.947 64.6186 154.426 64.9382C154.906 65.2472 155.46 65.5188 156.088 65.7532C156.717 65.9769 157.388 66.1687 158.102 66.3285L161.042 67.0316C162.47 67.3512 163.78 67.7773 164.973 68.31C166.166 68.8427 167.2 69.4979 168.073 70.2756C168.947 71.0533 169.623 71.9695 170.103 73.0241C170.593 74.0788 170.843 75.288 170.854 76.6516C170.843 78.6545 170.332 80.391 169.32 81.8612C168.318 83.3207 166.87 84.4553 164.973 85.2649C163.088 86.0639 160.813 86.4634 158.15 86.4634C155.508 86.4634 153.207 86.0586 151.246 85.2489C149.297 84.4393 147.773 83.2408 146.676 81.6534C145.589 80.0554 145.019 78.0792 144.966 75.7248H151.662C151.736 76.8221 152.051 77.7383 152.605 78.4734C153.169 79.1978 153.92 79.7464 154.858 80.1193C155.806 80.4815 156.877 80.6626 158.07 80.6626C159.242 80.6626 160.259 80.4922 161.122 80.1513C161.996 79.8104 162.672 79.3363 163.152 78.729C163.631 78.1218 163.871 77.424 163.871 76.6357C163.871 75.9006 163.652 75.2827 163.215 74.782C162.789 74.2812 162.161 73.8551 161.33 73.5036C160.509 73.152 159.503 72.8324 158.31 72.5447L154.746 71.6499C151.987 70.9787 149.808 69.9293 148.21 68.5018C146.612 67.0742 145.818 65.1513 145.829 62.733C145.818 60.7514 146.346 59.0202 147.411 57.5394C148.487 56.0586 149.963 54.9027 151.838 54.0717C153.713 53.2408 155.843 52.8253 158.23 52.8253C160.659 52.8253 162.779 53.2408 164.59 54.0717C166.411 54.9027 167.828 56.0586 168.84 57.5394C169.853 59.0202 170.375 60.7354 170.407 62.685H163.775ZM198.264 61.4545L189.683 86H182.012L173.431 61.4545H180.622L185.719 79.0167H185.975L191.057 61.4545H198.264ZM212.143 86.4794C209.618 86.4794 207.444 85.968 205.623 84.9453C203.812 83.9119 202.416 82.4524 201.436 80.5668C200.456 78.6705 199.966 76.4279 199.966 73.8391C199.966 71.3143 200.456 69.0984 201.436 67.1914C202.416 65.2844 203.796 63.7983 205.575 62.733C207.365 61.6676 209.463 61.1349 211.871 61.1349C213.49 61.1349 214.998 61.396 216.393 61.918C217.8 62.4293 219.025 63.2017 220.069 64.2351C221.123 65.2685 221.944 66.5682 222.53 68.1342C223.116 69.6896 223.409 71.5114 223.409 73.5994V75.4691H202.682V71.2504H217.001C217.001 70.2702 216.787 69.402 216.361 68.6456C215.935 67.8892 215.344 67.2979 214.588 66.8718C213.842 66.435 212.974 66.2166 211.983 66.2166C210.949 66.2166 210.033 66.4563 209.234 66.9357C208.446 67.4045 207.828 68.0384 207.38 68.8374C206.933 69.6257 206.704 70.5046 206.693 71.4741V75.4851C206.693 76.6996 206.917 77.7489 207.365 78.6332C207.823 79.5174 208.467 80.1992 209.298 80.6786C210.129 81.158 211.115 81.3977 212.254 81.3977C213.011 81.3977 213.703 81.2912 214.332 81.0781C214.96 80.8651 215.498 80.5455 215.946 80.1193C216.393 79.6932 216.734 79.1712 216.969 78.5533L223.265 78.9688C222.945 80.4815 222.29 81.8026 221.299 82.9318C220.319 84.0504 219.051 84.924 217.496 85.5526C215.951 86.1705 214.167 86.4794 212.143 86.4794ZM234.659 53.2727V86H227.851V53.2727H234.659ZM253.168 61.4545V66.5682H238.386V61.4545H253.168ZM241.742 55.5739H248.549V78.4574C248.549 79.0859 248.645 79.576 248.837 79.9276C249.029 80.2685 249.295 80.5082 249.636 80.6467C249.987 80.7852 250.392 80.8544 250.85 80.8544C251.17 80.8544 251.49 80.8278 251.809 80.7745C252.129 80.7106 252.374 80.6626 252.544 80.6307L253.615 85.6964C253.274 85.8029 252.795 85.9254 252.177 86.0639C251.559 86.2131 250.808 86.3036 249.924 86.3356C248.283 86.3995 246.845 86.1811 245.609 85.6804C244.384 85.1797 243.43 84.402 242.748 83.3473C242.067 82.2926 241.731 80.9609 241.742 79.3523V55.5739ZM268.524 86.4794C266 86.4794 263.826 85.968 262.005 84.9453C260.193 83.9119 258.798 82.4524 257.818 80.5668C256.838 78.6705 256.348 76.4279 256.348 73.8391C256.348 71.3143 256.838 69.0984 257.818 67.1914C258.798 65.2844 260.177 63.7983 261.957 62.733C263.746 61.6676 265.845 61.1349 268.253 61.1349C269.872 61.1349 271.38 61.396 272.775 61.918C274.181 62.4293 275.407 63.2017 276.451 64.2351C277.505 65.2685 278.326 66.5682 278.911 68.1342C279.497 69.6896 279.79 71.5114 279.79 73.5994V75.4691H259.064V71.2504H273.382C273.382 70.2702 273.169 69.402 272.743 68.6456C272.317 67.8892 271.726 67.2979 270.969 66.8718C270.224 66.435 269.355 66.2166 268.365 66.2166C267.331 66.2166 266.415 66.4563 265.616 66.9357C264.828 67.4045 264.21 68.0384 263.762 68.8374C263.315 69.6257 263.086 70.5046 263.075 71.4741V75.4851C263.075 76.6996 263.299 77.7489 263.746 78.6332C264.204 79.5174 264.849 80.1992 265.68 80.6786C266.511 81.158 267.496 81.3977 268.636 81.3977C269.393 81.3977 270.085 81.2912 270.714 81.0781C271.342 80.8651 271.88 80.5455 272.328 80.1193C272.775 79.6932 273.116 79.1712 273.35 78.5533L279.647 78.9688C279.327 80.4815 278.672 81.8026 277.681 82.9318C276.701 84.0504 275.433 84.924 273.878 85.5526C272.333 86.1705 270.549 86.4794 268.524 86.4794Z" fill="white"/>
</svg>
