<svg width="140" height="140" viewBox="0 0 140 140" fill="none" xmlns="http://www.w3.org/2000/svg">
<rect width="140" height="140" rx="20" fill="#FF3E00"/>
<path d="M110.7 28.7999C100.3 13.8999 79.6998 9.49993 64.8998 18.9999L38.7998 35.5999C31.6998 40.0999 26.7998 47.3999 25.2998 55.5999C24.0998 62.4999 25.0998 69.5999 28.3998 75.7999C26.1998 79.1999 24.5998 82.9999 23.8998 86.9999C22.3998 95.4999 24.3998 104.2 29.2998 111.2C39.6998 126.1 60.1998 130.5 75.0998 121L101.2 104.4C108.3 99.8999 113.2 92.5999 114.7 84.3999C115.9 77.4999 114.9 70.3999 111.6 64.1999C113.8 60.7999 115.4 56.9999 116.1 52.9999C117.6 44.4999 115.6 35.7999 110.7 28.7999ZM103.2 50.1999C103 50.9999 102.8 51.7999 102.6 52.5999L102.1 54.0999L100.8 53.0999C97.6998 50.7999 94.2998 49.0999 90.5998 47.9999L89.5998 47.6999L89.6998 46.6999C89.7998 45.2999 89.3998 43.9999 88.5998 42.7999C87.0998 40.5999 84.3998 39.6999 81.8998 40.2999C81.2998 40.4999 80.7998 40.6999 80.2998 40.9999L54.1998 57.6999C52.8998 58.4999 51.9998 59.7999 51.7998 61.2999C51.4998 62.7999 51.8998 64.3999 52.7998 65.6999C54.2998 67.8999 56.9998 68.7999 59.4998 68.1999C60.0998 67.9999 60.5998 67.7999 61.0998 67.4999L71.0998 61.1999C72.6998 60.1999 74.4998 59.3999 76.3998 58.8999C84.7998 56.6999 93.6998 59.9999 98.5998 67.0999C101.6 71.2999 102.8 76.4999 101.9 81.5999C101 86.5999 98.0998 90.9999 93.7998 93.6999L67.5998 110.3C65.9998 111.3 64.1998 112.1 62.2998 112.6C53.8998 114.8 44.9998 111.5 40.0998 104.4C37.0998 100.2 35.8998 94.9999 36.7998 89.8999C36.9998 89.0999 37.1998 88.2999 37.3998 87.4999L37.8998 85.9999L39.1998 86.9999C42.2998 89.2999 45.6998 90.9999 49.3998 92.0999L50.3998 92.3999L50.2998 93.3999C50.1998 94.7999 50.5998 96.1999 51.3998 97.2999C52.8998 99.4999 55.5998 100.4 58.0998 99.7999C58.6998 99.5999 59.1998 99.3999 59.6998 99.0999L85.7998 82.4999C87.0998 81.6999 87.9998 80.3999 88.2998 78.8999C88.5998 77.3999 88.1998 75.7999 87.2998 74.4999C85.7998 72.2999 83.0998 71.3999 80.5998 71.9999C79.9998 72.1999 79.4998 72.3999 78.9998 72.6999L68.9998 78.9999C67.3998 79.9999 65.5998 80.7999 63.6998 81.2999C55.2998 83.3999 46.3998 80.0999 41.3998 72.8999C38.3998 68.6999 37.1998 63.4999 38.0998 58.3999C38.9998 53.3999 41.8998 48.9999 46.1998 46.2999L72.3998 29.6999C73.9998 28.6999 75.7998 27.8999 77.6998 27.3999C86.0998 25.1999 94.9998 28.4999 99.8998 35.5999C102.9 39.8999 104.1 45.0999 103.2 50.1999Z" fill="white"/>
<path d="M110.7 28.7999C100.3 13.8999 79.6998 9.49993 64.8998 18.9999L38.7998 35.5999C31.6998 40.0999 26.7998 47.3999 25.2998 55.5999C24.0998 62.4999 25.0998 69.5999 28.3998 75.7999C26.1998 79.1999 24.5998 82.9999 23.8998 86.9999C22.3998 95.4999 24.3998 104.2 29.2998 111.2C39.6998 126.1 60.1998 130.5 75.0998 121L101.2 104.4C108.3 99.8999 113.2 92.5999 114.7 84.3999C115.9 77.4999 114.9 70.3999 111.6 64.1999C113.8 60.7999 115.4 56.9999 116.1 52.9999C117.6 44.4999 115.6 35.7999 110.7 28.7999ZM103.2 50.1999C103 50.9999 102.8 51.7999 102.6 52.5999L102.1 54.0999L100.8 53.0999C97.6998 50.7999 94.2998 49.0999 90.5998 47.9999L89.5998 47.6999L89.6998 46.6999C89.7998 45.2999 89.3998 43.9999 88.5998 42.7999C87.0998 40.5999 84.3998 39.6999 81.8998 40.2999C81.2998 40.4999 80.7998 40.6999 80.2998 40.9999L54.1998 57.6999C52.8998 58.4999 51.9998 59.7999 51.7998 61.2999C51.4998 62.7999 51.8998 64.3999 52.7998 65.6999C54.2998 67.8999 56.9998 68.7999 59.4998 68.1999C60.0998 67.9999 60.5998 67.7999 61.0998 67.4999L71.0998 61.1999C72.6998 60.1999 74.4998 59.3999 76.3998 58.8999C84.7998 56.6999 93.6998 59.9999 98.5998 67.0999C101.6 71.2999 102.8 76.4999 101.9 81.5999C101 86.5999 98.0998 90.9999 93.7998 93.6999L67.5998 110.3C65.9998 111.3 64.1998 112.1 62.2998 112.6C53.8998 114.8 44.9998 111.5 40.0998 104.4C37.0998 100.2 35.8998 94.9999 36.7998 89.8999C36.9998 89.0999 37.1998 88.2999 37.3998 87.4999L37.8998 85.9999L39.1998 86.9999C42.2998 89.2999 45.6998 90.9999 49.3998 92.0999L50.3998 92.3999L50.2998 93.3999C50.1998 94.7999 50.5998 96.1999 51.3998 97.2999C52.8998 99.4999 55.5998 100.4 58.0998 99.7999C58.6998 99.5999 59.1998 99.3999 59.6998 99.0999L85.7998 82.4999C87.0998 81.6999 87.9998 80.3999 88.2998 78.8999C88.5998 77.3999 88.1998 75.7999 87.2998 74.4999C85.7998 72.2999 83.0998 71.3999 80.5998 71.9999C79.9998 72.1999 79.4998 72.3999 78.9998 72.6999L68.9998 78.9999C67.3998 79.9999 65.5998 80.7999 63.6998 81.2999C55.2998 83.3999 46.3998 80.0999 41.3998 72.8999C38.3998 68.6999 37.1998 63.4999 38.0998 58.3999C38.9998 53.3999 41.8998 48.9999 46.1998 46.2999L72.3998 29.6999C73.9998 28.6999 75.7998 27.8999 77.6998 27.3999C86.0998 25.1999 94.9998 28.4999 99.8998 35.5999C102.9 39.8999 104.1 45.0999 103.2 50.1999Z" fill="white"/>
</svg>
