<svg width="140" height="140" viewBox="0 0 140 140" fill="none" xmlns="http://www.w3.org/2000/svg">
<rect width="140" height="140" rx="20" fill="#06B6D4"/>
<path d="M70 40.0083C56.6663 40.0083 48.3332 46.6733 44.9994 60.002C50 53.337 55.8335 50.8386 62.4997 52.5042C66.3037 53.4546 69.0222 56.2143 72.0321 59.268C76.9339 64.2423 82.6073 69.9995 95.0007 69.9995C108.333 69.9995 116.667 63.3345 120 50.0045C115.001 56.6695 109.167 59.1692 102.5 57.5036C98.6971 56.5532 95.9785 53.7934 92.9687 50.7398C88.0668 45.7654 82.3922 40.0083 70 40.0083ZM44.9994 69.9995C31.6669 69.9995 23.3325 76.6645 20 89.9944C24.9994 83.3295 30.8329 80.8298 37.5004 82.4966C41.303 83.4483 44.0216 86.2068 47.0314 89.2592C51.9333 94.2335 57.6079 99.9919 70 99.9919C83.3338 99.9919 91.6669 93.3269 95.0007 79.997C90 86.662 84.1666 89.1616 77.5004 87.4948C73.6964 86.5457 70.9779 83.7846 67.968 80.7322C63.0662 75.7579 57.3928 69.9995 44.9994 69.9995Z" fill="white"/>
</svg>
