<svg width="355" height="140" viewBox="0 0 355 140" fill="none" xmlns="http://www.w3.org/2000/svg">
<rect width="355" height="140" rx="20" fill="#06B6D4"/>
<path d="M70 40.0083C56.6663 40.0083 48.3332 46.6733 44.9994 60.002C50 53.337 55.8335 50.8386 62.4997 52.5042C66.3037 53.4546 69.0222 56.2143 72.0321 59.268C76.9339 64.2423 82.6073 69.9995 95.0007 69.9995C108.333 69.9995 116.667 63.3345 120 50.0045C115.001 56.6695 109.167 59.1692 102.5 57.5036C98.6971 56.5532 95.9785 53.7934 92.9687 50.7398C88.0668 45.7654 82.3922 40.0083 70 40.0083ZM44.9994 69.9995C31.6669 69.9995 23.3325 76.6645 20 89.9944C24.9994 83.3295 30.8329 80.8298 37.5004 82.4966C41.303 83.4483 44.0216 86.2068 47.0314 89.2592C51.9333 94.2335 57.6079 99.9919 70 99.9919C83.3338 99.9919 91.6669 93.3269 95.0007 79.997C90 86.662 84.1666 89.1616 77.5004 87.4948C73.6964 86.5457 70.9779 83.7846 67.968 80.7322C63.0662 75.7579 57.3928 69.9995 44.9994 69.9995Z" fill="white"/>
<path d="M151.598 58.9776V53.2727H178.477V58.9776H168.457V86H161.618V58.9776H151.598ZM186.435 86.4634C184.869 86.4634 183.473 86.1918 182.248 85.6484C181.023 85.0945 180.053 84.2795 179.339 83.2035C178.636 82.1168 178.285 80.7638 178.285 79.1445C178.285 77.7809 178.535 76.6357 179.036 75.7088C179.537 74.782 180.218 74.0362 181.081 73.4716C181.944 72.907 182.924 72.4808 184.022 72.1932C185.13 71.9055 186.291 71.7031 187.505 71.5859C188.933 71.4368 190.083 71.2983 190.957 71.1705C191.831 71.032 192.464 70.8295 192.859 70.5632C193.253 70.2969 193.45 69.9027 193.45 69.3807V69.2848C193.45 68.2727 193.13 67.4897 192.491 66.9357C191.863 66.3817 190.968 66.1048 189.806 66.1048C188.581 66.1048 187.607 66.3764 186.882 66.9197C186.158 67.4524 185.678 68.1236 185.444 68.9332L179.148 68.4219C179.467 66.9304 180.096 65.6413 181.033 64.5547C181.971 63.4574 183.18 62.6158 184.661 62.0298C186.152 61.4332 187.878 61.1349 189.838 61.1349C191.202 61.1349 192.507 61.2947 193.754 61.6143C195.011 61.9339 196.124 62.4293 197.093 63.1005C198.074 63.7717 198.846 64.6346 199.411 65.6893C199.975 66.7333 200.257 67.9851 200.257 69.4446V86H193.801V82.5962H193.61C193.216 83.3633 192.688 84.0398 192.028 84.6257C191.367 85.201 190.574 85.6538 189.647 85.984C188.72 86.3036 187.649 86.4634 186.435 86.4634ZM188.384 81.7653C189.386 81.7653 190.27 81.5682 191.037 81.174C191.804 80.7692 192.406 80.2259 192.843 79.544C193.279 78.8622 193.498 78.0898 193.498 77.2269V74.6222C193.285 74.7607 192.992 74.8885 192.619 75.0057C192.257 75.1122 191.847 75.2134 191.388 75.3093C190.93 75.3945 190.472 75.4744 190.014 75.549C189.556 75.6129 189.141 75.6715 188.768 75.7248C187.969 75.842 187.271 76.0284 186.674 76.2841C186.078 76.5398 185.614 76.886 185.284 77.3228C184.954 77.7489 184.789 78.2816 184.789 78.9208C184.789 79.8477 185.124 80.5561 185.795 81.0462C186.477 81.5256 187.34 81.7653 188.384 81.7653ZM205.539 86V61.4545H212.346V86H205.539ZM208.959 58.2905C207.947 58.2905 207.078 57.9549 206.354 57.2837C205.64 56.6019 205.283 55.7869 205.283 54.8388C205.283 53.9013 205.64 53.0969 206.354 52.4258C207.078 51.744 207.947 51.4031 208.959 51.4031C209.971 51.4031 210.834 51.744 211.547 52.4258C212.272 53.0969 212.634 53.9013 212.634 54.8388C212.634 55.7869 212.272 56.6019 211.547 57.2837C210.834 57.9549 209.971 58.2905 208.959 58.2905ZM224.607 53.2727V86H217.8V53.2727H224.607ZM234.902 86L228.223 61.4545H235.11L238.913 77.946H239.137L243.1 61.4545H249.86L253.887 77.8501H254.094L257.834 61.4545H264.705L258.042 86H250.835L246.616 70.5632H246.312L242.093 86H234.902ZM268.337 86V61.4545H275.144V86H268.337ZM271.756 58.2905C270.744 58.2905 269.876 57.9549 269.152 57.2837C268.438 56.6019 268.081 55.7869 268.081 54.8388C268.081 53.9013 268.438 53.0969 269.152 52.4258C269.876 51.744 270.744 51.4031 271.756 51.4031C272.769 51.4031 273.631 51.744 274.345 52.4258C275.07 53.0969 275.432 53.9013 275.432 54.8388C275.432 55.7869 275.07 56.6019 274.345 57.2837C273.631 57.9549 272.769 58.2905 271.756 58.2905ZM287.405 71.8097V86H280.597V61.4545H287.085V65.7852H287.373C287.916 64.3576 288.827 63.2283 290.106 62.3974C291.384 61.5558 292.934 61.1349 294.756 61.1349C296.46 61.1349 297.947 61.5078 299.214 62.2536C300.482 62.9993 301.468 64.0646 302.171 65.4496C302.874 66.8239 303.225 68.4645 303.225 70.3714V86H296.418V71.5859C296.428 70.0838 296.045 68.9119 295.267 68.0703C294.49 67.218 293.419 66.7919 292.055 66.7919C291.139 66.7919 290.329 66.989 289.626 67.3832C288.934 67.7773 288.39 68.3526 287.996 69.109C287.613 69.8548 287.416 70.755 287.405 71.8097ZM317.635 86.3995C315.771 86.3995 314.082 85.9201 312.57 84.9613C311.068 83.9918 309.874 82.5696 308.99 80.6946C308.117 78.8089 307.68 76.4972 307.68 73.7592C307.68 70.9467 308.133 68.6083 309.038 66.744C309.944 64.869 311.147 63.468 312.65 62.5412C314.162 61.6037 315.819 61.1349 317.619 61.1349C318.994 61.1349 320.139 61.3693 321.055 61.8381C321.982 62.2962 322.728 62.8714 323.292 63.5639C323.868 64.2457 324.304 64.9169 324.603 65.5774H324.81V53.2727H331.602V86H324.89V82.0689H324.603C324.283 82.7507 323.83 83.4272 323.244 84.0984C322.669 84.7589 321.918 85.3075 320.991 85.7443C320.075 86.1811 318.956 86.3995 317.635 86.3995ZM319.793 80.9822C320.89 80.9822 321.817 80.6839 322.573 80.0874C323.34 79.4801 323.926 78.6332 324.331 77.5465C324.747 76.4599 324.954 75.1868 324.954 73.7273C324.954 72.2678 324.752 71 324.347 69.924C323.942 68.848 323.356 68.017 322.589 67.4311C321.822 66.8452 320.89 66.5522 319.793 66.5522C318.674 66.5522 317.731 66.8558 316.964 67.4631C316.197 68.0703 315.617 68.9119 315.222 69.9879C314.828 71.0639 314.631 72.3104 314.631 73.7273C314.631 75.1548 314.828 76.4173 315.222 77.5146C315.627 78.6012 316.208 79.4535 316.964 80.0714C317.731 80.6786 318.674 80.9822 319.793 80.9822Z" fill="white"/>
</svg>
