<svg width="140" height="140" viewBox="0 0 140 140" fill="none" xmlns="http://www.w3.org/2000/svg">
<rect width="140" height="140" rx="20" fill="#017ACB"/>
<path d="M80.2707 74.3088H85.0676V82.5901H72.0988V119.434L71.755 119.528C71.2863 119.653 65.1144 119.653 63.7863 119.512L62.7238 119.418V82.5901H49.755V74.3088L53.8644 74.262C56.1144 74.2307 61.8956 74.2307 66.7082 74.262C71.5207 74.2932 77.6144 74.3088 80.2707 74.3088ZM116.88 115.528C114.974 117.543 112.927 118.668 109.521 119.59C108.036 119.996 107.786 120.012 104.443 119.996C101.099 119.981 100.833 119.981 99.2082 119.559C95.0051 118.481 91.6144 116.371 89.3019 113.387C88.6457 112.543 87.5676 110.793 87.5676 110.574C87.5676 110.512 87.7238 110.371 87.9269 110.278C88.1301 110.184 88.5519 109.918 88.8957 109.715C89.2394 109.512 89.8644 109.137 90.2863 108.918C90.7082 108.699 91.9269 107.981 92.9895 107.34C94.052 106.699 95.0207 106.184 95.1301 106.184C95.2395 106.184 95.4426 106.403 95.5988 106.668C96.5363 108.246 98.7238 110.262 100.271 110.949C101.224 111.356 103.333 111.809 104.349 111.809C105.286 111.809 107.005 111.403 107.927 110.981C108.911 110.528 109.411 110.074 110.005 109.168C110.411 108.528 110.458 108.356 110.443 107.137C110.443 106.012 110.38 105.699 110.068 105.184C109.193 103.746 108.005 102.996 103.193 100.871C98.2238 98.6682 95.9895 97.3557 94.1769 95.5901C92.8332 94.2776 92.5676 93.9182 91.7238 92.2776C90.6301 90.1682 90.4894 89.4807 90.4738 86.3401C90.4582 84.137 90.5051 83.4182 90.7394 82.6682C91.0676 81.5432 92.1301 79.3713 92.6144 78.8245C93.6144 77.6526 93.9738 77.2932 94.677 76.7151C96.802 74.9651 100.115 73.8088 103.286 73.6995C103.646 73.6995 104.833 73.762 105.943 73.8401C109.13 74.1057 111.302 74.887 113.396 76.5588C114.974 77.8088 117.365 80.7463 117.13 81.137C116.974 81.3713 110.74 85.5276 110.333 85.6526C110.083 85.7307 109.911 85.637 109.568 85.2307C107.443 82.6838 106.583 82.137 104.521 82.012C103.052 81.9182 102.271 82.0901 101.286 82.7463C100.255 83.4338 99.7551 84.4807 99.7551 85.9338C99.7707 88.0588 100.583 89.0588 103.583 90.5432C105.521 91.4963 107.177 92.2776 107.302 92.2776C107.49 92.2776 111.505 94.2776 112.552 94.9026C117.427 97.762 119.411 100.699 119.927 105.762C120.302 109.574 119.224 113.059 116.88 115.528Z" fill="white"/>
</svg>
