<svg width="140" height="140" viewBox="0 0 140 140" fill="none" xmlns="http://www.w3.org/2000/svg">
<rect width="140" height="140" rx="20" fill="#017ACB"/>
<path d="M80.2706 74.3085H85.0675V82.5898H72.0987V119.434L71.7549 119.527C71.2862 119.652 65.1143 119.652 63.7862 119.512L62.7237 119.418V82.5898H49.7549V74.3085L53.8643 74.2617C56.1143 74.2304 61.8955 74.2304 66.7081 74.2617C71.5206 74.2929 77.6143 74.3085 80.2706 74.3085ZM116.88 115.527C114.974 117.543 112.927 118.668 109.521 119.59C108.036 119.996 107.786 120.012 104.442 119.996C101.099 119.98 100.833 119.98 99.2081 119.559C95.005 118.48 91.6143 116.371 89.3018 113.387C88.6456 112.543 87.5675 110.793 87.5675 110.574C87.5675 110.512 87.7237 110.371 87.9268 110.277C88.13 110.184 88.5518 109.918 88.8956 109.715C89.2393 109.512 89.8643 109.137 90.2862 108.918C90.7081 108.699 91.9268 107.98 92.9894 107.34C94.0519 106.699 95.0206 106.184 95.13 106.184C95.2394 106.184 95.4425 106.402 95.5987 106.668C96.5362 108.246 98.7237 110.262 100.271 110.949C101.224 111.355 103.333 111.809 104.349 111.809C105.286 111.809 107.005 111.402 107.927 110.98C108.911 110.527 109.411 110.074 110.005 109.168C110.411 108.527 110.458 108.355 110.442 107.137C110.442 106.012 110.38 105.699 110.067 105.184C109.192 103.746 108.005 102.996 103.192 100.871C98.2237 98.6679 95.9894 97.3554 94.1768 95.5898C92.8331 94.2773 92.5675 93.9179 91.7237 92.2773C90.63 90.1679 90.4893 89.4804 90.4737 86.3398C90.4581 84.1367 90.505 83.4179 90.7393 82.6679C91.0675 81.5429 92.13 79.371 92.6143 78.8242C93.6143 77.6523 93.9737 77.2929 94.6769 76.7148C96.8019 74.9648 100.114 73.8085 103.286 73.6992C103.646 73.6992 104.833 73.7617 105.942 73.8398C109.13 74.1054 111.302 74.8867 113.396 76.5585C114.974 77.8085 117.364 80.746 117.13 81.1367C116.974 81.371 110.739 85.5273 110.333 85.6523C110.083 85.7304 109.911 85.6367 109.567 85.2304C107.442 82.6835 106.583 82.1367 104.521 82.0117C103.052 81.9179 102.271 82.0898 101.286 82.746C100.255 83.4335 99.755 84.4804 99.755 85.9335C99.7706 88.0585 100.583 89.0585 103.583 90.5429C105.521 91.496 107.177 92.2773 107.302 92.2773C107.489 92.2773 111.505 94.2773 112.552 94.9023C117.427 97.7617 119.411 100.699 119.927 105.762C120.302 109.574 119.224 113.059 116.88 115.527Z" fill="white"/>
</svg>
