<svg width="389" height="140" viewBox="0 0 389 140" fill="none" xmlns="http://www.w3.org/2000/svg">
<rect width="388.245" height="140" rx="20" fill="#017ACB"/>
<path d="M60.5157 47.4589H65.3126V55.7402H52.3438V92.5839L52 92.6777C51.5313 92.8027 45.3594 92.8027 44.0313 92.6621L42.9688 92.5683V55.7402H30V47.4589L34.1094 47.4121C36.3594 47.3808 42.1406 47.3808 46.9532 47.4121C51.7657 47.4433 57.8594 47.4589 60.5157 47.4589ZM97.1251 88.6777C95.2189 90.6933 93.172 91.8183 89.7657 92.7402C88.2813 93.1464 88.0313 93.1621 84.6876 93.1464C81.3438 93.1308 81.0782 93.1308 79.4532 92.7089C75.2501 91.6308 71.8594 89.5214 69.5469 86.5371C68.8907 85.6933 67.8126 83.9433 67.8126 83.7246C67.8126 83.6621 67.9688 83.5214 68.1719 83.4277C68.3751 83.3339 68.7969 83.0683 69.1407 82.8652C69.4844 82.6621 70.1094 82.2871 70.5313 82.0683C70.9532 81.8496 72.1719 81.1308 73.2345 80.4902C74.297 79.8496 75.2657 79.3339 75.3751 79.3339C75.4845 79.3339 75.6876 79.5527 75.8438 79.8183C76.7813 81.3964 78.9688 83.4121 80.5157 84.0996C81.4688 84.5058 83.5782 84.9589 84.5938 84.9589C85.5313 84.9589 87.2501 84.5527 88.172 84.1308C89.1563 83.6777 89.6564 83.2246 90.2501 82.3183C90.6564 81.6777 90.7032 81.5058 90.6876 80.2871C90.6876 79.1621 90.6251 78.8496 90.3126 78.3339C89.4376 76.8964 88.2501 76.1464 83.4376 74.0214C78.4688 71.8183 76.2345 70.5058 74.4219 68.7402C73.0782 67.4277 72.8126 67.0683 71.9688 65.4277C70.8751 63.3183 70.7344 62.6308 70.7188 59.4902C70.7032 57.2871 70.7501 56.5683 70.9844 55.8183C71.3126 54.6933 72.3751 52.5214 72.8594 51.9746C73.8594 50.8027 74.2188 50.4433 74.922 49.8652C77.047 48.1152 80.3595 46.9589 83.5313 46.8496C83.8907 46.8496 85.0782 46.9121 86.1876 46.9902C89.3751 47.2558 91.547 48.0371 93.6407 49.7089C95.2189 50.9589 97.6095 53.8964 97.3751 54.2871C97.2189 54.5214 90.9845 58.6777 90.5782 58.8027C90.3282 58.8808 90.1564 58.7871 89.8126 58.3808C87.6876 55.8339 86.8282 55.2871 84.7657 55.1621C83.297 55.0683 82.5157 55.2402 81.5313 55.8964C80.5001 56.5839 80.0001 57.6308 80.0001 59.0839C80.0157 61.2089 80.8282 62.2089 83.8282 63.6933C85.7657 64.6464 87.422 65.4277 87.547 65.4277C87.7345 65.4277 91.7501 67.4277 92.797 68.0527C97.672 70.9121 99.6564 73.8496 100.172 78.9121C100.547 82.7246 99.4689 86.2089 97.1251 88.6777Z" fill="white"/>
<path d="M131.843 58.9776V53.2727H158.722V58.9776H148.702V86H141.863V58.9776H131.843ZM164.411 95.2045C163.548 95.2045 162.738 95.1353 161.982 94.9968C161.236 94.869 160.618 94.7038 160.128 94.5014L161.662 89.4197C162.461 89.6648 163.18 89.7979 163.819 89.8192C164.469 89.8406 165.028 89.6914 165.497 89.3718C165.977 89.0522 166.366 88.5089 166.664 87.7418L167.063 86.7031L158.258 61.4545H165.417L170.499 79.4801H170.755L175.884 61.4545H183.091L173.551 88.6527C173.093 89.9737 172.47 91.1243 171.682 92.1044C170.904 93.0952 169.918 93.8569 168.725 94.3896C167.532 94.9329 166.094 95.2045 164.411 95.2045ZM186.575 95.2045V61.4545H193.287V65.5774H193.59C193.889 64.9169 194.32 64.2457 194.885 63.5639C195.46 62.8714 196.206 62.2962 197.122 61.8381C198.049 61.3693 199.199 61.1349 200.574 61.1349C202.363 61.1349 204.015 61.6037 205.527 62.5412C207.04 63.468 208.249 64.869 209.155 66.744C210.06 68.6083 210.513 70.9467 210.513 73.7592C210.513 76.4972 210.071 78.8089 209.187 80.6946C208.313 82.5696 207.12 83.9918 205.607 84.9613C204.105 85.9201 202.422 86.3995 200.558 86.3995C199.237 86.3995 198.113 86.1811 197.186 85.7443C196.27 85.3075 195.519 84.7589 194.933 84.0984C194.347 83.4272 193.899 82.7507 193.59 82.0689H193.383V95.2045H186.575ZM193.239 73.7273C193.239 75.1868 193.441 76.4599 193.846 77.5465C194.251 78.6332 194.837 79.4801 195.604 80.0874C196.371 80.6839 197.303 80.9822 198.4 80.9822C199.508 80.9822 200.446 80.6786 201.213 80.0714C201.98 79.4535 202.56 78.6012 202.955 77.5146C203.359 76.4173 203.562 75.1548 203.562 73.7273C203.562 72.3104 203.365 71.0639 202.971 69.9879C202.576 68.9119 201.996 68.0703 201.229 67.4631C200.462 66.8558 199.519 66.5522 198.4 66.5522C197.292 66.5522 196.355 66.8452 195.588 67.4311C194.831 68.017 194.251 68.848 193.846 69.924C193.441 71 193.239 72.2678 193.239 73.7273ZM226.238 86.4794C223.713 86.4794 221.54 85.968 219.718 84.9453C217.907 83.9119 216.511 82.4524 215.531 80.5668C214.551 78.6705 214.061 76.4279 214.061 73.8391C214.061 71.3143 214.551 69.0984 215.531 67.1914C216.511 65.2844 217.891 63.7983 219.67 62.733C221.46 61.6676 223.558 61.1349 225.966 61.1349C227.585 61.1349 229.093 61.396 230.488 61.918C231.895 62.4293 233.12 63.2017 234.164 64.2351C235.218 65.2685 236.039 66.5682 236.625 68.1342C237.211 69.6896 237.504 71.5114 237.504 73.5994V75.4691H216.777V71.2504H231.096C231.096 70.2702 230.883 69.402 230.456 68.6456C230.03 67.8892 229.439 67.2979 228.683 66.8718C227.937 66.435 227.069 66.2166 226.078 66.2166C225.044 66.2166 224.128 66.4563 223.329 66.9357C222.541 67.4045 221.923 68.0384 221.476 68.8374C221.028 69.6257 220.799 70.5046 220.788 71.4741V75.4851C220.788 76.6996 221.012 77.7489 221.46 78.6332C221.918 79.5174 222.562 80.1992 223.393 80.6786C224.224 81.158 225.21 81.3977 226.35 81.3977C227.106 81.3977 227.798 81.2912 228.427 81.0781C229.055 80.8651 229.593 80.5455 230.041 80.1193C230.488 79.6932 230.829 79.1712 231.064 78.5533L237.36 78.9688C237.04 80.4815 236.385 81.8026 235.394 82.9318C234.414 84.0504 233.146 84.924 231.591 85.5526C230.046 86.1705 228.262 86.4794 226.238 86.4794ZM262.369 68.4538L256.136 68.8374C256.03 68.3047 255.801 67.8253 255.449 67.3991C255.098 66.9624 254.634 66.6161 254.059 66.3604C253.494 66.0941 252.818 65.9609 252.03 65.9609C250.975 65.9609 250.085 66.1847 249.361 66.6321C248.636 67.0689 248.274 67.6548 248.274 68.3899C248.274 68.9759 248.509 69.4712 248.977 69.8761C249.446 70.2809 250.25 70.6058 251.39 70.8509L255.833 71.7457C258.219 72.2358 259.998 73.0241 261.17 74.1108C262.342 75.1974 262.928 76.625 262.928 78.3935C262.928 80.0021 262.454 81.4137 261.506 82.6282C260.568 83.8427 259.279 84.7908 257.639 85.4727C256.009 86.1438 254.128 86.4794 251.998 86.4794C248.748 86.4794 246.16 85.8029 244.231 84.4499C242.314 83.0863 241.19 81.2326 240.859 78.8888L247.555 78.5373C247.758 79.5281 248.248 80.2844 249.025 80.8065C249.803 81.3178 250.799 81.5735 252.014 81.5735C253.207 81.5735 254.166 81.3445 254.89 80.8864C255.625 80.4176 255.998 79.8157 256.009 79.0806C255.998 78.4627 255.737 77.9567 255.226 77.5625C254.714 77.1577 253.926 76.8487 252.861 76.6357L248.61 75.7887C246.213 75.3093 244.428 74.4783 243.256 73.2958C242.095 72.1133 241.515 70.6058 241.515 68.7734C241.515 67.1967 241.941 65.8384 242.793 64.6985C243.656 63.5586 244.865 62.6797 246.421 62.0618C247.987 61.4439 249.819 61.1349 251.918 61.1349C255.018 61.1349 257.457 61.7901 259.237 63.1005C261.026 64.4109 262.07 66.1953 262.369 68.4538ZM278.305 86.4794C275.791 86.4794 273.628 85.9467 271.817 84.8814C270.017 83.8054 268.632 82.3139 267.662 80.407C266.703 78.5 266.224 76.3054 266.224 73.8232C266.224 71.3089 266.709 69.1037 267.678 67.2074C268.658 65.3004 270.048 63.8143 271.849 62.7489C273.649 61.6729 275.791 61.1349 278.273 61.1349C280.414 61.1349 282.289 61.5238 283.898 62.3015C285.507 63.0792 286.78 64.1712 287.717 65.5774C288.655 66.9837 289.171 68.6349 289.267 70.5312H282.843C282.662 69.3061 282.183 68.3207 281.405 67.5749C280.638 66.8185 279.631 66.4403 278.385 66.4403C277.33 66.4403 276.409 66.728 275.62 67.3033C274.843 67.8679 274.235 68.6935 273.798 69.7802C273.362 70.8668 273.143 72.1825 273.143 73.7273C273.143 75.2933 273.356 76.625 273.782 77.7223C274.219 78.8196 274.832 79.6559 275.62 80.2312C276.409 80.8065 277.33 81.0941 278.385 81.0941C279.162 81.0941 279.86 80.9343 280.478 80.6147C281.107 80.2951 281.623 79.8317 282.028 79.2244C282.444 78.6065 282.715 77.8661 282.843 77.0032H289.267C289.161 78.8782 288.649 80.5295 287.733 81.957C286.828 83.3739 285.576 84.4819 283.978 85.2809C282.38 86.0799 280.489 86.4794 278.305 86.4794ZM293.626 86V61.4545H300.226V65.7372H300.481C300.929 64.2138 301.68 63.0632 302.734 62.2855C303.789 61.4972 305.004 61.103 306.378 61.103C306.719 61.103 307.086 61.1243 307.481 61.1669C307.875 61.2095 308.221 61.2681 308.519 61.3427V67.3832C308.2 67.2873 307.758 67.2021 307.193 67.1275C306.628 67.0529 306.112 67.0156 305.643 67.0156C304.641 67.0156 303.747 67.234 302.958 67.6708C302.18 68.0969 301.563 68.6935 301.104 69.4606C300.657 70.2276 300.433 71.1119 300.433 72.1133V86H293.626ZM312.039 86V61.4545H318.846V86H312.039ZM315.459 58.2905C314.447 58.2905 313.578 57.9549 312.854 57.2837C312.14 56.6019 311.783 55.7869 311.783 54.8388C311.783 53.9013 312.14 53.0969 312.854 52.4258C313.578 51.744 314.447 51.4031 315.459 51.4031C316.471 51.4031 317.334 51.744 318.047 52.4258C318.772 53.0969 319.134 53.9013 319.134 54.8388C319.134 55.7869 318.772 56.6019 318.047 57.2837C317.334 57.9549 316.471 58.2905 315.459 58.2905ZM324.3 95.2045V61.4545H331.011V65.5774H331.315C331.613 64.9169 332.045 64.2457 332.609 63.5639C333.185 62.8714 333.93 62.2962 334.847 61.8381C335.773 61.3693 336.924 61.1349 338.298 61.1349C340.088 61.1349 341.739 61.6037 343.252 62.5412C344.765 63.468 345.974 64.869 346.88 66.744C347.785 68.6083 348.238 70.9467 348.238 73.7592C348.238 76.4972 347.796 78.8089 346.911 80.6946C346.038 82.5696 344.845 83.9918 343.332 84.9613C341.83 85.9201 340.147 86.3995 338.282 86.3995C336.961 86.3995 335.837 86.1811 334.91 85.7443C333.994 85.3075 333.243 84.7589 332.657 84.0984C332.071 83.4272 331.624 82.7507 331.315 82.0689H331.107V95.2045H324.3ZM330.963 73.7273C330.963 75.1868 331.166 76.4599 331.571 77.5465C331.975 78.6332 332.561 79.4801 333.328 80.0874C334.095 80.6839 335.028 80.9822 336.125 80.9822C337.233 80.9822 338.17 80.6786 338.937 80.0714C339.704 79.4535 340.285 78.6012 340.679 77.5146C341.084 76.4173 341.286 75.1548 341.286 73.7273C341.286 72.3104 341.089 71.0639 340.695 69.9879C340.301 68.9119 339.72 68.0703 338.953 67.4631C338.186 66.8558 337.244 66.5522 336.125 66.5522C335.017 66.5522 334.079 66.8452 333.312 67.4311C332.556 68.017 331.975 68.848 331.571 69.924C331.166 71 330.963 72.2678 330.963 73.7273ZM365.832 61.4545V66.5682H351.05V61.4545H365.832ZM354.406 55.5739H361.214V78.4574C361.214 79.0859 361.31 79.576 361.501 79.9276C361.693 80.2685 361.959 80.5082 362.3 80.6467C362.652 80.7852 363.057 80.8544 363.515 80.8544C363.834 80.8544 364.154 80.8278 364.474 80.7745C364.793 80.7106 365.038 80.6626 365.209 80.6307L366.279 85.6964C365.938 85.8029 365.459 85.9254 364.841 86.0639C364.223 86.2131 363.472 86.3036 362.588 86.3356C360.947 86.3995 359.509 86.1811 358.273 85.6804C357.048 85.1797 356.095 84.402 355.413 83.3473C354.731 82.2926 354.396 80.9609 354.406 79.3523V55.5739Z" fill="white"/>
</svg>
