<svg width="140" height="140" viewBox="0 0 140 140" fill="none" xmlns="http://www.w3.org/2000/svg">
<rect width="140" height="140" rx="20" fill="#3F67A3"/>
<path d="M118.762 34.8009L72.6449 118.695C71.6926 120.427 69.2464 120.437 68.28 118.713L21.2491 34.8087C20.196 32.9306 21.7748 30.6554 23.8671 31.0361L70.0333 39.4307C70.3278 39.4842 70.6294 39.4837 70.9238 39.4291L116.124 31.0479C118.21 30.6612 119.796 32.9189 118.762 34.8009Z" fill="#9765FF"/>
<path d="M92.0245 20.0246L57.8971 26.8278C57.6244 26.8821 57.3772 27.0271 57.1944 27.24C57.0115 27.4528 56.9034 27.7215 56.887 28.0037L54.7878 64.074C54.7762 64.2718 54.8102 64.4697 54.8869 64.6518C54.9636 64.834 55.0811 64.9954 55.2298 65.1233C55.3786 65.2513 55.5547 65.3421 55.744 65.3887C55.9333 65.4354 56.1307 65.4364 56.3206 65.3919L65.8222 63.1611C66.7112 62.9524 67.5146 63.749 67.3317 64.6584L64.5088 78.7216C64.319 79.6681 65.1922 80.4772 66.1007 80.1963L71.9696 78.3826C72.8792 78.1017 73.7536 78.9132 73.561 79.8604L69.075 101.95C68.7943 103.332 70.6009 104.086 71.3541 102.901L71.8576 102.11L99.6666 45.6495C100.133 44.7042 99.3292 43.6262 98.3091 43.8268L88.5282 45.747C87.6094 45.9272 86.8274 45.0565 87.0867 44.142L93.4702 21.6293C93.7298 20.7124 92.9444 19.8413 92.0245 20.0246Z" fill="#F1CD1E"/>
</svg>
