<svg width="140" height="140" viewBox="0 0 140 140" fill="none" xmlns="http://www.w3.org/2000/svg">
<rect width="140" height="140" rx="20" fill="#13222A"/>
<path d="M77.9965 45.0895H61.9587L45.7809 91.0634H56.3585L59.6768 81.6608H75.7173L72.871 73.5718H62.5113L69.9775 52.3485L83.5937 91.0559L83.5966 91.0634H94.1739L77.9965 45.0895Z" fill="#FFEADB"/>
<path d="M113.578 45.4846C113.312 45.0134 112.87 44.667 112.349 44.5217C111.827 44.3764 111.269 44.4441 110.798 44.7099C110.327 44.9757 109.98 45.4178 109.836 45.939C109.69 46.4602 109.758 47.0178 110.024 47.489C115.434 57.1082 117.198 68.354 114.994 79.1678C112.79 89.9816 106.765 99.6399 98.0228 106.375C89.28 113.109 78.404 116.471 67.3858 115.842C56.3676 115.213 45.9444 110.637 38.0242 102.952C30.1039 95.2668 25.2165 84.986 24.2567 73.9917C23.2969 62.9974 26.3288 52.0252 32.7975 43.0837C39.2661 34.1422 48.7388 27.8295 59.4814 25.3012C70.224 22.7729 81.5178 24.1982 91.2954 29.3161C90.9821 30.7585 91.19 32.2652 91.8823 33.5688C92.5745 34.8724 93.7062 35.8885 95.0765 36.4369C96.4469 36.9852 97.9672 37.0303 99.3676 36.5641C100.768 36.0979 101.958 35.1505 102.726 33.8902C103.494 32.6299 103.791 31.1382 103.564 29.6798C103.337 28.2215 102.6 26.8908 101.485 25.924C100.369 24.9572 98.9477 24.4169 97.4718 24.3989C95.9959 24.381 94.5614 24.8865 93.4229 25.8258C82.7956 20.1908 70.493 18.5759 58.7714 21.2772C47.0498 23.9785 36.695 30.815 29.6059 40.5328C22.5167 50.2507 19.1685 62.1985 20.1753 74.1851C21.1822 86.1717 26.4765 97.3937 35.0874 105.793C43.6982 114.192 55.0485 119.205 67.0564 119.913C79.0644 120.621 90.9251 116.977 100.464 109.648C110.002 102.319 116.578 91.7976 118.988 80.0123C121.396 68.2271 119.475 55.9684 113.578 45.4846Z" fill="#FFEADB"/>
</svg>
