<svg width="140" height="140" viewBox="0 0 140 140" fill="none" xmlns="http://www.w3.org/2000/svg">
<rect width="140" height="140" rx="20" fill="#00878F"/>
<path d="M127.879 70C127.879 54.8377 115.087 42.5 99.3619 42.5C97.9127 42.5 96.4398 42.598 94.975 42.8099C82.7597 44.5521 74.5828 53.3428 70.0044 60.0821C65.4152 53.3428 57.2399 44.5521 45.023 42.8099C43.5642 42.598 42.0885 42.5 40.6394 42.5C24.9099 42.5 12.1209 54.8377 12.1209 70C12.1209 85.1679 24.9099 97.5 40.6269 97.5C42.0857 97.5 43.5642 97.4037 45.023 97.1977C57.2399 95.4446 65.4152 86.6528 70.0044 79.9054C74.5828 86.6528 82.7597 95.4446 94.975 97.1977C96.4398 97.4037 97.9127 97.5 99.3743 97.5C115.09 97.5 127.879 85.1679 127.879 70ZM43.6429 87.5408C42.6409 87.6837 41.6257 87.7583 40.6269 87.7583C30.2859 87.7583 21.8714 79.7874 21.8714 70C21.8714 60.213 30.2859 52.2364 40.6394 52.2364C41.6285 52.2364 42.6409 52.3195 43.6457 52.456C55.1537 54.0987 62.2017 65.4521 64.5903 69.9956C62.2005 74.5495 55.1537 85.8985 43.6429 87.5408ZM75.4158 70C77.8043 65.4521 84.8443 54.0987 96.3555 52.456C97.3539 52.3195 98.3743 52.2364 99.3619 52.2364C109.709 52.2364 118.127 60.213 118.127 70C118.127 79.7874 109.712 87.7583 99.3743 87.7583C98.3816 87.7583 97.3635 87.6837 96.3555 87.5408C84.8443 85.8985 77.7979 74.5431 75.4158 70Z" fill="white"/>
<path d="M49.9021 67.314H32.78V72.8329H49.9021V67.314Z" fill="white"/>
<path d="M101.263 72.8329H107.051V67.314H101.263V61.5068H95.7301V67.314H89.9321V72.8329H95.7301V78.6397H101.263V72.8329Z" fill="white"/>
</svg>
