<svg width="362" height="140" viewBox="0 0 362 140" fill="none" xmlns="http://www.w3.org/2000/svg">
<rect width="361.758" height="140" rx="20" fill="#00878F"/>
<path d="M135.758 70C135.758 54.8377 122.966 42.5 107.241 42.5C105.792 42.5 104.319 42.598 102.854 42.8099C90.6388 44.5521 82.4619 53.3428 77.8835 60.0821C73.2943 53.3428 65.119 44.5521 52.9021 42.8099C51.4433 42.598 49.9676 42.5 48.5184 42.5C32.789 42.5 20 54.8377 20 70C20 85.1679 32.789 97.5 48.506 97.5C49.9648 97.5 51.4433 97.4037 52.9021 97.1977C65.119 95.4446 73.2943 86.6528 77.8835 79.9054C82.4619 86.6528 90.6388 95.4446 102.854 97.1977C104.319 97.4037 105.792 97.5 107.253 97.5C122.969 97.5 135.758 85.1679 135.758 70ZM51.522 87.5408C50.52 87.6837 49.5048 87.7583 48.506 87.7583C38.165 87.7583 29.7505 79.7874 29.7505 70C29.7505 60.213 38.165 52.2364 48.5184 52.2364C49.5076 52.2364 50.52 52.3195 51.5248 52.456C63.0328 54.0987 70.0808 65.4521 72.4693 69.9956C70.0796 74.5495 63.0328 85.8985 51.522 87.5408ZM83.2949 70C85.6834 65.4521 92.7234 54.0987 104.235 52.456C105.233 52.3195 106.253 52.2364 107.241 52.2364C117.588 52.2364 126.006 60.213 126.006 70C126.006 79.7874 117.592 87.7583 107.253 87.7583C106.261 87.7583 105.243 87.6837 104.235 87.5408C92.7234 85.8985 85.677 74.5431 83.2949 70Z" fill="white"/>
<path d="M57.7812 67.314H40.6591V72.8329H57.7812V67.314Z" fill="white"/>
<path d="M109.142 72.8329H114.93V67.314H109.142V61.5068H103.609V67.314H97.8112V72.8329H103.609V78.6397H109.142V72.8329Z" fill="white"/>
<path d="M174.244 86H166.829L178.127 53.2727H187.044L198.326 86H190.911L182.713 60.7514H182.457L174.244 86ZM173.78 73.136H191.294V78.5373H173.78V73.136ZM202.137 86V61.4545H208.737V65.7372H208.992C209.44 64.2138 210.191 63.0632 211.246 62.2855C212.3 61.4972 213.515 61.103 214.889 61.103C215.23 61.103 215.597 61.1243 215.992 61.1669C216.386 61.2095 216.732 61.2681 217.03 61.3427V67.3832C216.711 67.2873 216.269 67.2021 215.704 67.1275C215.139 67.0529 214.623 67.0156 214.154 67.0156C213.153 67.0156 212.258 67.234 211.469 67.6708C210.692 68.0969 210.074 68.6935 209.616 69.4606C209.168 70.2276 208.944 71.1119 208.944 72.1133V86H202.137ZM228.452 86.3995C226.588 86.3995 224.899 85.9201 223.386 84.9613C221.884 83.9918 220.691 82.5696 219.807 80.6946C218.933 78.8089 218.497 76.4972 218.497 73.7592C218.497 70.9467 218.949 68.6083 219.855 66.744C220.76 64.869 221.964 63.468 223.466 62.5412C224.979 61.6037 226.636 61.1349 228.436 61.1349C229.81 61.1349 230.956 61.3693 231.872 61.8381C232.799 62.2962 233.544 62.8714 234.109 63.5639C234.684 64.2457 235.121 64.9169 235.419 65.5774H235.627V53.2727H242.419V86H235.707V82.0689H235.419C235.1 82.7507 234.647 83.4272 234.061 84.0984C233.486 84.7589 232.735 85.3075 231.808 85.7443C230.892 86.1811 229.773 86.3995 228.452 86.3995ZM230.609 80.9822C231.707 80.9822 232.634 80.6839 233.39 80.0874C234.157 79.4801 234.743 78.6332 235.148 77.5465C235.563 76.4599 235.771 75.1868 235.771 73.7273C235.771 72.2678 235.569 71 235.164 69.924C234.759 68.848 234.173 68.017 233.406 67.4311C232.639 66.8452 231.707 66.5522 230.609 66.5522C229.491 66.5522 228.548 66.8558 227.781 67.4631C227.014 68.0703 226.433 68.9119 226.039 69.9879C225.645 71.0639 225.448 72.3104 225.448 73.7273C225.448 75.1548 225.645 76.4173 226.039 77.5146C226.444 78.6012 227.025 79.4535 227.781 80.0714C228.548 80.6786 229.491 80.9822 230.609 80.9822ZM263.756 75.549V61.4545H270.564V86H264.028V81.5415H263.772C263.218 82.9798 262.297 84.1357 261.008 85.0092C259.729 85.8828 258.169 86.3196 256.325 86.3196C254.685 86.3196 253.241 85.9467 251.995 85.201C250.748 84.4553 249.774 83.3952 249.071 82.021C248.378 80.6467 248.026 79.0007 248.016 77.0831V61.4545H254.823V75.8686C254.834 77.3175 255.223 78.4627 255.99 79.3043C256.757 80.146 257.785 80.5668 259.074 80.5668C259.894 80.5668 260.661 80.3803 261.375 80.0075C262.089 79.6239 262.664 79.0593 263.101 78.3136C263.548 77.5678 263.767 76.6463 263.756 75.549ZM276.009 86V61.4545H282.817V86H276.009ZM279.429 58.2905C278.417 58.2905 277.548 57.9549 276.824 57.2837C276.11 56.6019 275.753 55.7869 275.753 54.8388C275.753 53.9013 276.11 53.0969 276.824 52.4258C277.548 51.744 278.417 51.4031 279.429 51.4031C280.441 51.4031 281.304 51.744 282.018 52.4258C282.742 53.0969 283.104 53.9013 283.104 54.8388C283.104 55.7869 282.742 56.6019 282.018 57.2837C281.304 57.9549 280.441 58.2905 279.429 58.2905ZM295.077 71.8097V86H288.27V61.4545H294.758V65.7852H295.045C295.589 64.3576 296.499 63.2283 297.778 62.3974C299.056 61.5558 300.606 61.1349 302.428 61.1349C304.133 61.1349 305.619 61.5078 306.887 62.2536C308.154 62.9993 309.14 64.0646 309.843 65.4496C310.546 66.8239 310.898 68.4645 310.898 70.3714V86H304.09V71.5859C304.101 70.0838 303.717 68.9119 302.939 68.0703C302.162 67.218 301.091 66.7919 299.727 66.7919C298.811 66.7919 298.002 66.989 297.298 67.3832C296.606 67.7773 296.063 68.3526 295.669 69.109C295.285 69.8548 295.088 70.755 295.077 71.8097ZM327.353 86.4794C324.871 86.4794 322.724 85.9521 320.913 84.8974C319.113 83.832 317.722 82.3512 316.742 80.4549C315.762 78.5479 315.272 76.3374 315.272 73.8232C315.272 71.2876 315.762 69.0717 316.742 67.1754C317.722 65.2685 319.113 63.7876 320.913 62.733C322.724 61.6676 324.871 61.1349 327.353 61.1349C329.835 61.1349 331.977 61.6676 333.777 62.733C335.588 63.7876 336.984 65.2685 337.964 67.1754C338.944 69.0717 339.434 71.2876 339.434 73.8232C339.434 76.3374 338.944 78.5479 337.964 80.4549C336.984 82.3512 335.588 83.832 333.777 84.8974C331.977 85.9521 329.835 86.4794 327.353 86.4794ZM327.385 81.206C328.514 81.206 329.457 80.8864 330.214 80.2472C330.97 79.5973 331.54 78.7131 331.923 77.5945C332.318 76.4759 332.515 75.2028 332.515 73.7752C332.515 72.3477 332.318 71.0746 331.923 69.956C331.54 68.8374 330.97 67.9531 330.214 67.3033C329.457 66.6534 328.514 66.3285 327.385 66.3285C326.245 66.3285 325.286 66.6534 324.509 67.3033C323.742 67.9531 323.161 68.8374 322.767 69.956C322.383 71.0746 322.192 72.3477 322.192 73.7752C322.192 75.2028 322.383 76.4759 322.767 77.5945C323.161 78.7131 323.742 79.5973 324.509 80.2472C325.286 80.8864 326.245 81.206 327.385 81.206Z" fill="white"/>
</svg>
