<svg width="140" height="140" viewBox="0 0 140 140" fill="none" xmlns="http://www.w3.org/2000/svg">
<rect width="140" height="140" rx="20" fill="#680488"/>
<path d="M28.984 46.2945C30.6723 45.5865 32.1836 44.933 33.7086 44.293C37.8204 42.5639 41.9459 40.8211 46.0578 39.0919C50.5917 37.1858 55.1256 35.2796 59.6596 33.3599C62.8184 32.0255 65.9635 30.6776 69.1087 29.3433C72.7985 27.7775 76.5019 26.2254 80.1916 24.646C83.4866 23.2436 86.7679 21.814 90.0492 20.398C91.2065 19.6491 92.7587 19.9895 93.5075 21.1468C93.5347 21.2013 93.5756 21.2557 93.6028 21.3102C97.633 26.5113 101.227 32.0255 104.359 37.8121C107.041 42.6864 109.301 47.7922 111.126 53.0478C112.27 56.3971 113.209 59.801 114.121 63.2185C114.707 65.4514 115.102 67.7524 115.537 70.0262C116.381 74.6963 116.858 79.4072 116.994 84.159C117.13 88.8836 117.008 93.6081 116.613 98.319C116.586 99.49 115.918 100.538 114.884 101.069C112.651 102.268 110.404 103.479 108.185 104.691C100.438 108.898 92.677 113.105 84.9298 117.313C83.5138 118.089 82.1114 118.878 80.6818 119.641C79.4428 120.308 79.1432 120.076 78.9935 118.688C78.8029 117.04 78.4897 115.393 78.2038 113.759C77.9042 112.057 77.5911 110.355 77.2371 108.667C74.2825 95.1875 68.3054 82.5524 59.7685 71.7145C55.0303 65.819 49.6114 60.4818 43.6478 55.8253C39.2228 52.4351 34.5527 49.3852 29.6648 46.703C29.4742 46.594 29.3108 46.4851 28.9976 46.2945H28.984ZM49.5025 51.7134C50.2922 52.3942 50.9321 52.9661 51.5856 53.5243C59.1694 60.0052 65.7321 67.6026 71.0421 76.0578C73.8332 80.4692 76.2568 85.0985 78.2855 89.8911C79.2113 92.0968 80.0146 94.357 80.8179 96.6035C81.4715 98.4688 82.0297 100.389 82.6424 102.268C82.9964 103.343 83.4321 103.534 84.4669 103.016C85.3655 102.567 86.2369 102.063 87.1219 101.6C92.6361 98.6458 98.1504 95.6777 103.678 92.7231C105.448 91.77 107.232 90.8442 109.002 89.9047C109.887 89.5371 110.459 88.6657 110.445 87.699C110.363 84.9215 110.295 82.1439 110.05 79.38C109.846 76.9564 109.424 74.5465 109.07 72.1502C108.866 70.8159 108.675 69.468 108.362 68.1473C107.695 65.3697 107.028 62.5649 106.197 59.8282C105.285 56.8601 104.264 53.9191 103.147 51.0327C101.35 46.4715 99.2124 42.0601 96.748 37.8257C96.0536 36.6139 95.3456 35.4158 94.5559 34.2585C94.1338 33.5096 93.208 33.2237 92.4319 33.5913C92.1732 33.673 91.9145 33.7547 91.6558 33.8636C85.6242 36.4233 79.5789 38.9694 73.5473 41.5291C66.0452 44.7015 58.5295 47.8467 51.0138 51.0054C50.5509 51.2097 50.1015 51.4275 49.5025 51.6998V51.7134ZM100.125 97.0937C97.6738 96.9711 95.5907 98.8637 95.4681 101.314C95.4681 101.437 95.4681 101.546 95.4681 101.668C95.4954 104.242 97.5921 106.311 100.165 106.298C102.671 106.27 104.699 104.283 104.781 101.791C104.822 99.2449 102.807 97.1481 100.261 97.1073C100.206 97.1073 100.165 97.1073 100.111 97.1073L100.125 97.0937Z" fill="white"/>
<path d="M75.7802 115.611C75.6713 115.488 75.576 115.366 75.4807 115.229C71.3825 108.381 65.9363 102.445 59.469 97.7608C53.3148 93.1588 46.6705 89.2512 39.6585 86.106C34.3485 83.6552 28.8751 81.5993 23.3745 79.6251C23.2519 79.5842 23.1294 79.5161 22.9524 79.4344C23.0477 79.2983 23.1566 79.1758 23.2655 79.0396L35.4377 66.7176C37.412 64.7162 39.3862 62.7011 41.3604 60.6996C42.3135 59.7329 42.5178 59.7057 43.607 60.4954C44.4375 61.0809 45.2408 61.7208 46.0169 62.3879C46.5888 62.7419 46.7658 63.4908 46.4118 64.0626C46.3437 64.1716 46.262 64.2669 46.1531 64.3486C45.7038 64.9068 45.2272 65.4242 44.7235 65.9143C41.5647 68.937 38.3923 71.946 35.2335 74.955C34.8931 75.2817 34.58 75.6357 34.2668 75.9897C33.9128 76.3982 34.049 76.7386 34.471 76.9428C34.9884 77.1879 35.5058 77.4057 36.0504 77.5964C43.3211 80.1152 50.156 83.7369 56.3238 88.3253C61.0483 91.9062 65.2419 96.1678 68.7411 100.96C71.2463 104.323 73.3567 107.972 75.0314 111.812C75.3582 112.574 75.6441 113.35 75.9708 114.099C76.1887 114.589 76.1206 115.175 75.7939 115.597L75.7802 115.611Z" fill="white"/>
<path d="M73.4112 116.972C70.5791 114.889 67.5429 113.119 64.3433 111.689C59.9591 109.77 55.3707 108.34 50.6734 107.428C44.3831 106.27 38.0111 105.508 31.6254 105.14C30.9991 105.1 30.3728 105.031 29.6648 104.963C29.8826 104.555 30.0596 104.215 30.2366 103.888C32.701 99.5172 35.179 95.1467 37.6571 90.7897C37.7387 90.6536 37.8068 90.5174 37.9021 90.3812C38.3923 89.6188 38.8552 89.5235 39.6313 90C40.1623 90.3268 40.7205 90.6127 41.2788 90.8986C41.6464 91.0212 41.837 91.416 41.7144 91.77C41.7144 91.7973 41.6872 91.8381 41.6736 91.8653C41.4966 92.2602 41.2924 92.6414 41.0609 92.9954C39.5496 95.3917 38.0383 97.788 36.527 100.184C35.7509 101.41 35.9687 101.886 37.4392 102.05C41.4149 102.458 45.3634 103.084 49.271 103.942C55.3163 105.222 61.1164 107.441 66.4537 110.532C68.9317 112.003 71.1918 113.813 73.1661 115.897C73.4248 116.169 73.6971 116.441 73.4248 116.931L73.4112 116.972Z" fill="white"/>
</svg>
