<svg width="140" height="140" viewBox="0 0 140 140" fill="none" xmlns="http://www.w3.org/2000/svg">
<rect width="140" height="140" rx="20" fill="#006FB9"/>
<path d="M70.0526 20H69.9915H25.7722L27.3774 37.6592H70.0526V20Z" fill="#EBEBEB"/>
<path d="M70.0526 119.977V101.605L69.9751 101.625L50.3082 96.3146L49.051 82.2307H31.324L33.7981 109.958L69.9713 120L70.0526 119.977Z" fill="#EBEBEB"/>
<path d="M28.9523 55.7426L30.535 73.4016H70.0525V55.7426H28.9523Z" fill="#EBEBEB"/>
<path d="M91.7368 73.4012L89.687 96.3036L69.9916 101.62V119.992L106.194 109.958L110.609 60.4843L111.04 55.7424L114.228 20H69.9915L69.9916 37.6592H94.875L93.2682 55.7424H69.9916V73.4012H91.7368Z" fill="white"/>
</svg>
