<svg width="140" height="140" viewBox="0 0 140 140" fill="none" xmlns="http://www.w3.org/2000/svg">
<rect width="140" height="140" rx="20" fill="#394553"/>
<path d="M85.2439 89.5122H54.7561C46.3371 89.5122 39.5122 96.3371 39.5122 104.756C39.5122 113.175 46.3371 120 54.7561 120H85.2439C93.6628 120 100.488 113.175 100.488 104.756C100.488 96.3371 93.6628 89.5122 85.2439 89.5122Z" fill="#1AD1A5"/>
<path d="M70 83.4146C87.5114 83.4146 101.707 69.2188 101.707 51.7073C101.707 34.1958 87.5114 20 70 20C52.4885 20 38.2927 34.1958 38.2927 51.7073C38.2927 69.2188 52.4885 83.4146 70 83.4146Z" fill="black" fill-opacity="0.3"/>
<path d="M70 82.1951C86.8379 82.1951 100.488 68.5453 100.488 51.7073C100.488 34.8694 86.8379 21.2195 70 21.2195C53.162 21.2195 39.5122 34.8694 39.5122 51.7073C39.5122 68.5453 53.162 82.1951 70 82.1951Z" fill="white"/>
<path d="M70 65.3659C77.5434 65.3659 83.6585 59.2507 83.6585 51.7073C83.6585 44.1639 77.5434 38.0488 70 38.0488C62.4566 38.0488 56.3414 44.1639 56.3414 51.7073C56.3414 59.2507 62.4566 65.3659 70 65.3659Z" fill="#FF9903"/>
</svg>
