<svg width="271" height="140" viewBox="0 0 271 140" fill="none" xmlns="http://www.w3.org/2000/svg">
<rect width="271" height="140" rx="20" fill="#512BD4"/>
<path d="M27.7734 90.8711C26.7057 90.8711 25.7878 90.4935 25.0195 89.7383C24.2513 88.9701 23.8672 88.0456 23.8672 86.9648C23.8672 85.8971 24.2513 84.9857 25.0195 84.2305C25.7878 83.4622 26.7057 83.0781 27.7734 83.0781C28.8411 83.0781 29.7591 83.4622 30.5273 84.2305C31.2956 84.9857 31.6797 85.8971 31.6797 86.9648C31.6797 87.681 31.4974 88.3385 31.1328 88.9375C30.7813 89.5234 30.3125 89.9922 29.7266 90.3437C29.1406 90.6953 28.4896 90.8711 27.7734 90.8711ZM72.2559 50.5V90.5H66.709L46.377 61.1641H46.0059V90.5H39.9707V50.5H45.5566L65.9082 79.875H66.2793V50.5H72.2559ZM81.0596 90.5V50.5H106.138V55.6953H87.0947V67.8828H104.829V73.0586H87.0947V85.3047H106.372V90.5H81.0596ZM112.227 55.6953V50.5H143.184V55.6953H130.703V90.5H124.688V55.6953H112.227Z" fill="white"/>
<path d="M186.932 65H183.409C183.201 63.9867 182.836 63.0966 182.315 62.3295C181.804 61.5625 181.179 60.9186 180.44 60.3977C179.711 59.8674 178.902 59.4697 178.011 59.2045C177.121 58.9394 176.193 58.8068 175.227 58.8068C173.466 58.8068 171.87 59.2519 170.44 60.142C169.02 61.0322 167.888 62.3438 167.045 64.0767C166.212 65.8097 165.795 67.9356 165.795 70.4545C165.795 72.9735 166.212 75.0994 167.045 76.8324C167.888 78.5653 169.02 79.8769 170.44 80.767C171.87 81.6572 173.466 82.1023 175.227 82.1023C176.193 82.1023 177.121 81.9697 178.011 81.7045C178.902 81.4394 179.711 81.0464 180.44 80.5256C181.179 79.9953 181.804 79.3466 182.315 78.5795C182.836 77.803 183.201 76.9129 183.409 75.9091H186.932C186.667 77.3958 186.184 78.7263 185.483 79.9006C184.782 81.0748 183.911 82.0739 182.869 82.8977C181.828 83.7121 180.658 84.3324 179.361 84.7585C178.073 85.1847 176.695 85.3977 175.227 85.3977C172.746 85.3977 170.54 84.7917 168.608 83.5795C166.676 82.3674 165.156 80.6439 164.048 78.4091C162.94 76.1742 162.386 73.5227 162.386 70.4545C162.386 67.3864 162.94 64.7348 164.048 62.5C165.156 60.2652 166.676 58.5417 168.608 57.3295C170.54 56.1174 172.746 55.5114 175.227 55.5114C176.695 55.5114 178.073 55.7244 179.361 56.1506C180.658 56.5767 181.828 57.2017 182.869 58.0256C183.911 58.84 184.782 59.8343 185.483 61.0085C186.184 62.1733 186.667 63.5038 186.932 65ZM201.033 85.4545C199.064 85.4545 197.335 84.9858 195.849 84.0483C194.371 83.1108 193.216 81.7992 192.383 80.1136C191.559 78.428 191.147 76.4583 191.147 74.2045C191.147 71.9318 191.559 69.9479 192.383 68.2528C193.216 66.5578 194.371 65.2415 195.849 64.304C197.335 63.3665 199.064 62.8977 201.033 62.8977C203.003 62.8977 204.727 63.3665 206.204 64.304C207.691 65.2415 208.846 66.5578 209.67 68.2528C210.503 69.9479 210.92 71.9318 210.92 74.2045C210.92 76.4583 210.503 78.428 209.67 80.1136C208.846 81.7992 207.691 83.1108 206.204 84.0483C204.727 84.9858 203.003 85.4545 201.033 85.4545ZM201.033 82.4432C202.53 82.4432 203.761 82.0597 204.727 81.2926C205.692 80.5256 206.407 79.517 206.871 78.267C207.335 77.017 207.567 75.6629 207.567 74.2045C207.567 72.7462 207.335 71.3873 206.871 70.1278C206.407 68.8684 205.692 67.8504 204.727 67.0739C203.761 66.2973 202.53 65.9091 201.033 65.9091C199.537 65.9091 198.306 66.2973 197.34 67.0739C196.374 67.8504 195.659 68.8684 195.195 70.1278C194.731 71.3873 194.499 72.7462 194.499 74.2045C194.499 75.6629 194.731 77.017 195.195 78.267C195.659 79.517 196.374 80.5256 197.34 81.2926C198.306 82.0597 199.537 82.4432 201.033 82.4432ZM216.037 85V63.1818H219.276V66.4773H219.503C219.901 65.3977 220.62 64.5218 221.662 63.8494C222.704 63.1771 223.878 62.8409 225.185 62.8409C225.431 62.8409 225.739 62.8456 226.108 62.8551C226.477 62.8646 226.757 62.8788 226.946 62.8977V66.3068C226.832 66.2784 226.572 66.2358 226.165 66.179C225.767 66.1127 225.346 66.0795 224.901 66.0795C223.84 66.0795 222.893 66.3021 222.06 66.7472C221.236 67.1828 220.582 67.7888 220.099 68.5653C219.626 69.3324 219.389 70.2083 219.389 71.1932V85H216.037ZM239.403 85.4545C237.301 85.4545 235.488 84.9905 233.963 84.0625C232.448 83.125 231.278 81.8182 230.455 80.142C229.64 78.4564 229.233 76.4962 229.233 74.2614C229.233 72.0265 229.64 70.0568 230.455 68.3523C231.278 66.6383 232.424 65.303 233.892 64.3466C235.369 63.3807 237.093 62.8977 239.062 62.8977C240.199 62.8977 241.321 63.0871 242.429 63.4659C243.537 63.8447 244.545 64.4602 245.455 65.3125C246.364 66.1553 247.088 67.2727 247.628 68.6648C248.168 70.0568 248.438 71.7708 248.438 73.8068V75.2273H231.619V72.3295H245.028C245.028 71.0985 244.782 70 244.29 69.0341C243.807 68.0682 243.116 67.3059 242.216 66.7472C241.326 66.1884 240.275 65.9091 239.062 65.9091C237.727 65.9091 236.572 66.2405 235.597 66.9034C234.631 67.5568 233.887 68.4091 233.366 69.4602C232.846 70.5114 232.585 71.6383 232.585 72.8409V74.7727C232.585 76.4205 232.869 77.8172 233.438 78.9631C234.015 80.0994 234.815 80.9659 235.838 81.5625C236.861 82.1496 238.049 82.4432 239.403 82.4432C240.284 82.4432 241.08 82.3201 241.79 82.0739C242.509 81.8182 243.13 81.4394 243.651 80.9375C244.171 80.4261 244.574 79.7917 244.858 79.0341L248.097 79.9432C247.756 81.0417 247.183 82.0076 246.378 82.8409C245.573 83.6648 244.579 84.3087 243.395 84.7727C242.211 85.2273 240.881 85.4545 239.403 85.4545Z" fill="white"/>
</svg>
