<svg width="344" height="140" viewBox="0 0 344 140" fill="none" xmlns="http://www.w3.org/2000/svg">
<rect width="343.4" height="140" rx="20" fill="#F08705"/>
<path d="M120.536 83.5389H105.344L89.2583 56.193C92.8329 55.4781 95.5138 52.2609 95.5138 48.5076V27.8642C95.5138 23.4853 92.0286 20 87.6497 20H60.84C56.4611 20 52.9759 23.4853 52.9759 27.8642V48.5076C52.9759 52.3503 55.6568 55.4781 59.1421 56.193L43.0563 83.6282H27.8642C23.4853 83.6282 20 87.1135 20 91.4924V112.136C20 116.515 23.4853 120 27.8642 120H54.6738C59.0527 120 62.538 116.515 62.538 112.136V91.4924C62.538 87.1135 59.0527 83.6282 54.6738 83.6282H52.0822L67.9893 56.4611H80.4111L96.4075 83.6282H93.7265C89.3476 83.6282 85.8624 87.1135 85.8624 91.4924V112.136C85.8624 116.515 89.3476 120 93.7265 120H120.536C124.915 120 128.4 116.515 128.4 112.136V91.4924C128.4 87.1135 124.915 83.5389 120.536 83.5389Z" fill="white"/>
<path d="M172.846 86H161.245V53.2727H172.942C176.234 53.2727 179.068 53.9279 181.444 55.2383C183.819 56.538 185.646 58.4077 186.925 60.8473C188.214 63.2869 188.858 66.206 188.858 69.6044C188.858 73.0135 188.214 75.9432 186.925 78.3935C185.646 80.8437 183.809 82.7241 181.412 84.0344C179.025 85.3448 176.17 86 172.846 86ZM168.164 80.0714H172.559C174.604 80.0714 176.325 79.7092 177.72 78.9847C179.127 78.2496 180.181 77.1151 180.884 75.581C181.598 74.0362 181.955 72.044 181.955 69.6044C181.955 67.1861 181.598 65.2099 180.884 63.6758C180.181 62.1417 179.132 61.0124 177.736 60.288C176.341 59.5636 174.62 59.2013 172.575 59.2013H168.164V80.0714ZM193.856 86V61.4545H200.456V65.7372H200.712C201.159 64.2138 201.91 63.0632 202.965 62.2855C204.02 61.4972 205.234 61.103 206.608 61.103C206.949 61.103 207.317 61.1243 207.711 61.1669C208.105 61.2095 208.451 61.2681 208.75 61.3427V67.3832C208.43 67.2873 207.988 67.2021 207.423 67.1275C206.859 67.0529 206.342 67.0156 205.873 67.0156C204.872 67.0156 203.977 67.234 203.189 67.6708C202.411 68.0969 201.793 68.6935 201.335 69.4606C200.888 70.2276 200.664 71.1119 200.664 72.1133V86H193.856ZM218.566 86.4634C216.999 86.4634 215.604 86.1918 214.379 85.6484C213.154 85.0945 212.184 84.2795 211.47 83.2035C210.767 82.1168 210.416 80.7638 210.416 79.1445C210.416 77.7809 210.666 76.6357 211.167 75.7088C211.667 74.782 212.349 74.0362 213.212 73.4716C214.075 72.907 215.055 72.4808 216.153 72.1932C217.26 71.9055 218.422 71.7031 219.636 71.5859C221.064 71.4368 222.214 71.2983 223.088 71.1705C223.961 71.032 224.595 70.8295 224.99 70.5632C225.384 70.2969 225.581 69.9027 225.581 69.3807V69.2848C225.581 68.2727 225.261 67.4897 224.622 66.9357C223.993 66.3817 223.099 66.1048 221.937 66.1048C220.712 66.1048 219.737 66.3764 219.013 66.9197C218.289 67.4524 217.809 68.1236 217.575 68.9332L211.279 68.4219C211.598 66.9304 212.227 65.6413 213.164 64.5547C214.102 63.4574 215.311 62.6158 216.792 62.0298C218.283 61.4332 220.009 61.1349 221.969 61.1349C223.333 61.1349 224.638 61.2947 225.884 61.6143C227.142 61.9339 228.255 62.4293 229.224 63.1005C230.204 63.7717 230.977 64.6346 231.541 65.6893C232.106 66.7333 232.388 67.9851 232.388 69.4446V86H225.932V82.5962H225.741C225.346 83.3633 224.819 84.0398 224.159 84.6257C223.498 85.201 222.704 85.6538 221.778 85.984C220.851 86.3036 219.78 86.4634 218.566 86.4634ZM220.515 81.7653C221.517 81.7653 222.401 81.5682 223.168 81.174C223.935 80.7692 224.537 80.2259 224.974 79.544C225.41 78.8622 225.629 78.0898 225.629 77.2269V74.6222C225.416 74.7607 225.123 74.8885 224.75 75.0057C224.388 75.1122 223.977 75.2134 223.519 75.3093C223.061 75.3945 222.603 75.4744 222.145 75.549C221.687 75.6129 221.271 75.6715 220.899 75.7248C220.1 75.842 219.402 76.0284 218.805 76.2841C218.209 76.5398 217.745 76.886 217.415 77.3228C217.085 77.7489 216.92 78.2816 216.92 78.9208C216.92 79.8477 217.255 80.5561 217.926 81.0462C218.608 81.5256 219.471 81.7653 220.515 81.7653ZM242.512 86L235.832 61.4545H242.719L246.523 77.946H246.746L250.71 61.4545H257.469L261.496 77.8501H261.704L265.443 61.4545H272.315L265.651 86H258.444L254.225 70.5632H253.922L249.703 86H242.512ZM276.585 86.4155C275.531 86.4155 274.625 86.0426 273.869 85.2969C273.123 84.5405 272.75 83.6349 272.75 82.5803C272.75 81.5362 273.123 80.6413 273.869 79.8956C274.625 79.1499 275.531 78.777 276.585 78.777C277.608 78.777 278.503 79.1499 279.27 79.8956C280.037 80.6413 280.421 81.5362 280.421 82.5803C280.421 83.2834 280.239 83.9279 279.877 84.5138C279.526 85.0891 279.062 85.5526 278.487 85.9041C277.912 86.245 277.278 86.4155 276.585 86.4155ZM286.01 86V61.4545H292.817V86H286.01ZM289.429 58.2905C288.417 58.2905 287.549 57.9549 286.825 57.2837C286.111 56.6019 285.754 55.7869 285.754 54.8388C285.754 53.9013 286.111 53.0969 286.825 52.4258C287.549 51.744 288.417 51.4031 289.429 51.4031C290.441 51.4031 291.304 51.744 292.018 52.4258C292.743 53.0969 293.105 53.9013 293.105 54.8388C293.105 55.7869 292.743 56.6019 292.018 57.2837C291.304 57.9549 290.441 58.2905 289.429 58.2905ZM309.361 86.4794C306.878 86.4794 304.732 85.9521 302.921 84.8974C301.12 83.832 299.73 82.3512 298.75 80.4549C297.77 78.5479 297.28 76.3374 297.28 73.8232C297.28 71.2876 297.77 69.0717 298.75 67.1754C299.73 65.2685 301.12 63.7876 302.921 62.733C304.732 61.6676 306.878 61.1349 309.361 61.1349C311.843 61.1349 313.984 61.6676 315.785 62.733C317.596 63.7876 318.991 65.2685 319.971 67.1754C320.951 69.0717 321.441 71.2876 321.441 73.8232C321.441 76.3374 320.951 78.5479 319.971 80.4549C318.991 82.3512 317.596 83.832 315.785 84.8974C313.984 85.9521 311.843 86.4794 309.361 86.4794ZM309.392 81.206C310.522 81.206 311.465 80.8864 312.221 80.2472C312.977 79.5973 313.547 78.7131 313.931 77.5945C314.325 76.4759 314.522 75.2028 314.522 73.7752C314.522 72.3477 314.325 71.0746 313.931 69.956C313.547 68.8374 312.977 67.9531 312.221 67.3033C311.465 66.6534 310.522 66.3285 309.392 66.3285C308.253 66.3285 307.294 66.6534 306.516 67.3033C305.749 67.9531 305.168 68.8374 304.774 69.956C304.391 71.0746 304.199 72.3477 304.199 73.7752C304.199 75.2028 304.391 76.4759 304.774 77.5945C305.168 78.7131 305.749 79.5973 306.516 80.2472C307.294 80.8864 308.253 81.206 309.392 81.206Z" fill="white"/>
</svg>
