<svg width="140" height="140" viewBox="0 0 140 140" fill="none" xmlns="http://www.w3.org/2000/svg">
<rect width="140" height="140" rx="20" fill="#F08705"/>
<path d="M116.336 83.5389H101.144L85.0581 56.193C88.6327 55.4781 91.3137 52.2609 91.3137 48.5076V27.8642C91.3137 23.4853 87.8284 20 83.4495 20H56.6398C52.2609 20 48.7757 23.4853 48.7757 27.8642V48.5076C48.7757 52.3503 51.4566 55.4781 54.9419 56.193L38.8561 83.6282H23.664C19.2851 83.6282 15.7998 87.1135 15.7998 91.4924V112.136C15.7998 116.515 19.2851 120 23.664 120H50.4736C54.8525 120 58.3378 116.515 58.3378 112.136V91.4924C58.3378 87.1135 54.8525 83.6282 50.4736 83.6282H47.882L63.7891 56.4611H76.2109L92.2073 83.6282H89.5263C85.1474 83.6282 81.6622 87.1135 81.6622 91.4924V112.136C81.6622 116.515 85.1474 120 89.5263 120H116.336C120.715 120 124.2 116.515 124.2 112.136V91.4924C124.2 87.1135 120.715 83.5389 116.336 83.5389Z" fill="white"/>
</svg>
