<svg width="140" height="140" viewBox="0 0 140 140" fill="none" xmlns="http://www.w3.org/2000/svg">
<rect width="140" height="140" rx="20" fill="#2C4549"/>
<path d="M56.4215 41.4938C43.3533 39.1137 33.0206 41.6054 28.9026 48.7373C25.8296 54.0593 26.7069 61.1165 31.0316 68.6599C31.1191 68.8128 31.2359 68.9468 31.3752 69.0545C31.5145 69.1621 31.6737 69.2413 31.8437 69.2874C32.0136 69.3335 32.191 69.3456 32.3656 69.3232C32.5403 69.3007 32.7087 69.244 32.8615 69.1563C33.1699 68.9794 33.3954 68.6872 33.4885 68.344C33.5816 68.0009 33.5346 67.6348 33.3579 67.3262C29.4618 60.5319 28.7025 54.4414 31.2239 50.0773C34.6443 44.1526 43.8597 41.9301 55.9403 44.1308C56.1587 44.1739 56.3844 44.162 56.597 44.0962C56.8097 44.0303 57.0026 43.9125 57.1583 43.7535C57.314 43.5944 57.4277 43.3991 57.4891 43.1851C57.5505 42.9712 57.5576 42.7453 57.5099 42.5279C57.4522 42.2664 57.3176 42.0283 57.1234 41.8441C56.9292 41.6598 56.6843 41.5379 56.4202 41.4941L56.4215 41.4938ZM37.8273 77.8281C43.1109 83.6352 49.9759 89.0816 57.8051 93.6023C76.761 104.547 96.9415 107.472 106.887 100.69C107.173 100.487 107.369 100.18 107.431 99.8341C107.493 99.4885 107.417 99.1323 107.219 98.8421C107.021 98.5519 106.718 98.351 106.373 98.2824C106.029 98.2139 105.671 98.2833 105.377 98.4756C96.4759 104.545 77.306 101.766 59.1454 91.281C51.5494 86.8951 44.9024 81.6217 39.81 76.025C39.6329 75.8241 39.3998 75.6808 39.1405 75.6136C38.8813 75.5463 38.6079 75.5582 38.3555 75.6476C38.1457 75.7222 37.9577 75.8478 37.8086 76.0132C37.6596 76.1786 37.5541 76.3786 37.5016 76.595C37.4492 76.8114 37.4515 77.0374 37.5084 77.2528C37.5653 77.4679 37.6749 77.6658 37.8273 77.8281Z" fill="#2DD0ED"/>
<path d="M103.715 76.198C112.272 66.0899 115.26 55.9226 111.151 48.805C108.127 43.5678 101.734 40.8027 93.239 40.6924C92.8837 40.6879 92.541 40.8245 92.2864 41.0724C92.0317 41.3204 91.8859 41.6592 91.8809 42.0146C91.877 42.2797 91.952 42.54 92.0963 42.7624C92.2407 42.9848 92.4479 43.1593 92.6917 43.2637C92.8534 43.3333 93.0273 43.3703 93.2033 43.3727C100.844 43.4715 106.352 45.8542 108.83 50.1452C112.242 56.0574 109.579 65.1241 101.67 74.4669C101.552 74.6006 101.462 74.7564 101.405 74.9253C101.349 75.0942 101.326 75.2727 101.339 75.4504C101.352 75.628 101.401 75.8013 101.482 75.96C101.563 76.1188 101.674 76.2598 101.81 76.3748C101.946 76.4896 102.104 76.5762 102.274 76.6295C102.444 76.6828 102.623 76.7018 102.8 76.6854C102.977 76.6689 103.149 76.6174 103.307 76.5337C103.464 76.45 103.603 76.3359 103.715 76.198ZM81.7252 41.9402C73.9882 43.5983 65.7538 46.8391 57.8461 51.4046C38.2762 62.7031 25.5105 79.3618 27.2842 91.4424C27.3062 91.6195 27.3634 91.7904 27.4524 91.9451C27.5414 92.0998 27.6605 92.2351 27.8025 92.3432C27.9445 92.4512 28.1067 92.5298 28.2795 92.5744C28.4523 92.6189 28.6323 92.6285 28.8088 92.6025C28.9854 92.5766 29.155 92.5156 29.3077 92.4232C29.4604 92.3308 29.5931 92.2088 29.698 92.0645C29.8029 91.9201 29.8779 91.7562 29.9186 91.5825C29.9593 91.4087 29.9649 91.2286 29.9351 91.0526C28.3615 80.3276 40.4614 64.5355 59.185 53.7259C66.8566 49.2964 74.8308 46.1594 82.287 44.5601C82.6239 44.4754 82.9149 44.2633 83.0984 43.9683C83.282 43.6733 83.3439 43.3186 83.271 42.9789C83.1982 42.6392 82.9963 42.3411 82.7079 42.1473C82.4196 41.9536 82.0672 41.8793 81.7252 41.9402Z" fill="#2DD0ED"/>
<path d="M50.0219 99.817C54.4976 112.308 61.8154 120 70.0462 120C76.0479 120 81.601 115.909 85.9317 108.706C86.0288 108.555 86.0946 108.386 86.1253 108.209C86.156 108.032 86.1509 107.851 86.1103 107.676C86.0596 107.457 85.9545 107.255 85.8049 107.087C85.6552 106.919 85.4657 106.792 85.2539 106.717C85.0421 106.641 84.8148 106.621 84.5928 106.656C84.3709 106.692 84.1615 106.783 83.9839 106.921C83.8421 107.031 83.7239 107.168 83.6362 107.324C79.7438 113.798 74.9629 117.321 70.0462 117.321C63.2106 117.321 56.6818 110.46 52.5459 98.913C52.4891 98.7439 52.3993 98.5877 52.2815 98.4537C52.1638 98.3197 52.0205 98.2105 51.8601 98.1324C51.6996 98.0546 51.5253 98.0095 51.3472 97.9998C51.1691 97.9904 50.9909 98.0166 50.8231 98.0769C50.6552 98.1371 50.5011 98.2303 50.3696 98.3508C50.2382 98.4713 50.1321 98.6169 50.0576 98.7789C49.983 98.9409 49.9415 99.1161 49.9355 99.2944C49.9297 99.4727 49.9595 99.6504 50.0232 99.817H50.0219ZM90.8883 97.3726C93.2043 89.9731 94.4472 81.4345 94.4472 72.5369C94.4472 50.3376 86.6781 31.1997 75.6106 26.2853C75.2871 26.1492 74.9232 26.1454 74.597 26.2747C74.2708 26.404 74.0083 26.6561 73.8659 26.9768C73.7235 27.2975 73.7125 27.6613 73.8354 27.9899C73.9583 28.3186 74.2051 28.586 74.523 28.7347C84.3939 33.1183 91.7682 51.2802 91.7682 72.5369C91.7682 81.1676 90.5627 89.437 88.3312 96.5726C88.2735 96.7418 88.2502 96.9208 88.2629 97.0991C88.2755 97.2775 88.3237 97.4514 88.4048 97.6108C88.5267 97.8509 88.7181 98.0487 88.9541 98.1784C89.1901 98.3081 89.4597 98.3638 89.7277 98.3381C89.9958 98.3123 90.2499 98.2065 90.4569 98.0343C90.6639 97.8621 90.8143 97.6315 90.8883 97.3726ZM116.126 96.0607C116.131 95.215 115.969 94.3766 115.649 93.5938C115.329 92.8109 114.858 92.099 114.262 91.4992C113.666 90.8993 112.957 90.4232 112.176 90.0983C111.395 89.7734 110.558 89.6062 109.712 89.6062C108.866 89.6062 108.029 89.7735 107.248 90.0984C106.467 90.4233 105.759 90.8994 105.163 91.4993C104.566 92.0993 104.095 92.8111 103.775 93.594C103.455 94.3769 103.293 95.2153 103.299 96.0609C103.31 97.7548 103.99 99.3755 105.192 100.569C106.393 101.763 108.018 102.433 109.712 102.433C111.406 102.433 113.031 101.763 114.233 100.569C115.434 99.3753 116.115 97.7545 116.126 96.0607ZM113.445 96.0607C113.445 97.0507 113.052 98.0002 112.352 98.7002C111.652 99.4003 110.702 99.7937 109.712 99.7939C108.974 99.7939 108.252 99.5749 107.638 99.1647C107.024 98.7545 106.546 98.1715 106.263 97.4894C105.981 96.8072 105.907 96.0567 106.051 95.3326C106.195 94.6085 106.551 93.9434 107.073 93.4213C107.595 92.8993 108.26 92.5437 108.984 92.3997C109.708 92.2557 110.459 92.3296 111.141 92.6121C111.823 92.8946 112.406 93.373 112.816 93.9868C113.226 94.6007 113.445 95.3224 113.445 96.0607ZM30.2878 102.474C31.1301 102.474 31.9641 102.308 32.7423 101.986C33.5205 101.664 34.2275 101.191 34.8231 100.596C35.4187 100 35.8911 99.2933 36.2134 98.5151C36.5356 97.737 36.7014 96.9029 36.7013 96.0607C36.7014 95.2184 36.5356 94.3844 36.2133 93.6062C35.891 92.828 35.4185 92.1208 34.8229 91.5254C34.2273 90.9298 33.5203 90.4574 32.7421 90.1351C31.9639 89.8129 31.1298 89.647 30.2876 89.6471C29.4453 89.6471 28.6113 89.813 27.8332 90.1353C27.055 90.4576 26.348 90.93 25.7525 91.5256C25.157 92.1211 24.6846 92.8282 24.3623 93.6063C24.04 94.3844 23.8742 95.2184 23.8743 96.0607C23.8742 96.9029 24.04 97.7369 24.3623 98.5151C24.6846 99.2933 25.157 100 25.7526 100.596C26.3482 101.191 27.0552 101.664 27.8334 101.986C28.6115 102.308 29.4455 102.474 30.2878 102.474ZM30.2878 99.7939C29.2975 99.7939 28.3477 99.4005 27.6474 98.7002C26.9472 98 26.5538 97.0502 26.5538 96.0599C26.5538 95.0695 26.9472 94.1198 27.6474 93.4195C28.3477 92.7193 29.2975 92.3259 30.2878 92.3259C31.2781 92.3259 32.2279 92.7193 32.9282 93.4195C33.6284 94.1198 34.0218 95.0695 34.0218 96.0599C34.0218 97.0502 33.6284 98 32.9282 98.7002C32.2279 99.4005 31.2781 99.7939 30.2878 99.7939Z" fill="#2DD0ED"/>
<path d="M70.0462 32.8273C71.3148 32.8274 72.5548 32.4513 73.6095 31.7465C74.6642 31.0417 75.4862 30.04 75.9715 28.8679C76.3749 27.8935 76.5318 26.8346 76.4283 25.7851C76.3248 24.7356 75.9641 23.7278 75.3782 22.8509C74.7923 21.974 73.9992 21.2552 73.0692 20.7579C72.1391 20.2607 71.1008 20.0005 70.0462 20.0002C68.7777 20 67.5376 20.376 66.4828 21.0807C65.4279 21.7854 64.6058 22.787 64.1203 23.959C63.6349 25.131 63.5079 26.4206 63.7555 27.6648C64.003 28.9089 64.614 30.0518 65.5111 30.9486C66.1067 31.5442 66.8137 32.0166 67.5919 32.3389C68.37 32.6612 69.204 32.8274 70.0462 32.8273ZM70.0462 30.1468C69.3079 30.1467 68.5862 29.9277 67.9723 29.5175C67.3584 29.1073 66.8798 28.5243 66.5972 27.8423C66.4094 27.3894 66.3127 26.9039 66.3127 26.4136C66.3127 25.9233 66.4094 25.4379 66.5972 24.985C66.7847 24.532 67.0596 24.1205 67.4063 23.7738C67.7529 23.4272 68.1645 23.1522 68.6174 22.9647C69.1275 22.7534 69.6781 22.6579 70.2295 22.685C70.7809 22.7121 71.3195 22.8612 71.8063 23.1214C72.2932 23.3817 72.7163 23.7467 73.0452 24.1901C73.3741 24.6336 73.6005 25.1444 73.7082 25.6859C73.8159 26.2274 73.8022 26.786 73.6681 27.3215C73.5339 27.8571 73.2827 28.3562 72.9324 28.7829C72.5822 29.2097 72.1417 29.5535 71.6426 29.7895C71.1435 30.0256 70.5983 30.1481 70.0462 30.1481V30.1468ZM71.0259 77.0739C69.8227 77.3336 68.5657 77.1049 67.5311 76.4381C66.7595 75.9407 66.1527 75.2257 65.7874 74.3835C65.4222 73.5412 65.315 72.6096 65.4793 71.7064C65.6436 70.8032 66.0721 69.969 66.7106 69.3094C67.3491 68.6497 68.1689 68.1943 69.0663 68.0006C70.2612 67.7619 71.5021 68.0025 72.5211 68.6707C73.5401 69.3388 74.2556 70.3808 74.513 71.5718C74.7701 72.7629 74.5485 74.0073 73.8961 75.0364C73.2437 76.0656 72.2128 76.7969 71.0259 77.0726V77.0739Z" fill="#2DD0ED"/>
</svg>
