<svg width="467" height="140" viewBox="0 0 467 140" fill="none" xmlns="http://www.w3.org/2000/svg">
<rect width="466.287" height="140" rx="20" fill="#538DD7"/>
<path d="M106.258 90.2253C106.258 91.6322 105.056 92.2477 103.649 92.8338C98.0216 95.2079 92.0132 97.4354 85.6237 97.4354C73.7534 97.4354 65.4882 84.3048 37.7908 98.1682V113.35C37.7908 122.231 24.3964 122.202 24.3964 113.35V40.0769C21.7586 38.0253 20 34.8306 20 31.1962C20 25.0412 25.0119 20 31.1962 20C37.3512 20 42.3924 25.0119 42.3924 31.1962C42.3924 34.7719 40.6924 37.996 38.0253 40.0476V46.2026C48.8991 42.6855 57.2229 36.1202 80.8463 45.2061C88.6426 48.5474 100.982 40.6045 103.268 40.6045C104.88 40.6045 106.287 41.8062 106.287 43.213V90.2253H106.258Z" fill="white"/>
<path d="M139.131 86V53.2727H160.8V58.9776H146.051V66.7759H159.362V72.4808H146.051V86H139.131ZM174.615 86.4794C172.133 86.4794 169.986 85.9521 168.175 84.8974C166.375 83.832 164.984 82.3512 164.004 80.4549C163.024 78.5479 162.534 76.3374 162.534 73.8232C162.534 71.2876 163.024 69.0717 164.004 67.1754C164.984 65.2685 166.375 63.7876 168.175 62.733C169.986 61.6676 172.133 61.1349 174.615 61.1349C177.097 61.1349 179.239 61.6676 181.039 62.733C182.85 63.7876 184.246 65.2685 185.226 67.1754C186.206 69.0717 186.696 71.2876 186.696 73.8232C186.696 76.3374 186.206 78.5479 185.226 80.4549C184.246 82.3512 182.85 83.832 181.039 84.8974C179.239 85.9521 177.097 86.4794 174.615 86.4794ZM174.647 81.206C175.776 81.206 176.719 80.8864 177.476 80.2472C178.232 79.5973 178.802 78.7131 179.185 77.5945C179.58 76.4759 179.777 75.2028 179.777 73.7752C179.777 72.3477 179.58 71.0746 179.185 69.956C178.802 68.8374 178.232 67.9531 177.476 67.3033C176.719 66.6534 175.776 66.3285 174.647 66.3285C173.507 66.3285 172.548 66.6534 171.771 67.3033C171.004 67.9531 170.423 68.8374 170.029 69.956C169.645 71.0746 169.454 72.3477 169.454 73.7752C169.454 75.2028 169.645 76.4759 170.029 77.5945C170.423 78.7131 171.004 79.5973 171.771 80.2472C172.548 80.8864 173.507 81.206 174.647 81.206ZM197.93 71.8097V86H191.123V61.4545H197.611V65.7852H197.898C198.442 64.3576 199.352 63.2283 200.631 62.3974C201.909 61.5558 203.459 61.1349 205.281 61.1349C206.986 61.1349 208.472 61.5078 209.739 62.2536C211.007 62.9993 211.993 64.0646 212.696 65.4496C213.399 66.8239 213.75 68.4645 213.75 70.3714V86H206.943V71.5859C206.954 70.0838 206.57 68.9119 205.792 68.0703C205.015 67.218 203.944 66.7919 202.58 66.7919C201.664 66.7919 200.855 66.989 200.151 67.3832C199.459 67.7773 198.916 68.3526 198.521 69.109C198.138 69.8548 197.941 70.755 197.93 71.8097ZM232.172 61.4545V66.5682H217.39V61.4545H232.172ZM220.746 55.5739H227.553V78.4574C227.553 79.0859 227.649 79.576 227.841 79.9276C228.033 80.2685 228.299 80.5082 228.64 80.6467C228.992 80.7852 229.396 80.8544 229.854 80.8544C230.174 80.8544 230.494 80.8278 230.813 80.7745C231.133 80.7106 231.378 80.6626 231.548 80.6307L232.619 85.6964C232.278 85.8029 231.799 85.9254 231.181 86.0639C230.563 86.2131 229.812 86.3036 228.928 86.3356C227.287 86.3995 225.849 86.1811 224.613 85.6804C223.388 85.1797 222.434 84.402 221.753 83.3473C221.071 82.2926 220.735 80.9609 220.746 79.3523V55.5739ZM243.605 86.4634C242.039 86.4634 240.644 86.1918 239.419 85.6484C238.193 85.0945 237.224 84.2795 236.51 83.2035C235.807 82.1168 235.455 80.7638 235.455 79.1445C235.455 77.7809 235.706 76.6357 236.207 75.7088C236.707 74.782 237.389 74.0362 238.252 73.4716C239.115 72.907 240.095 72.4808 241.192 72.1932C242.3 71.9055 243.461 71.7031 244.676 71.5859C246.104 71.4368 247.254 71.2983 248.128 71.1705C249.001 71.032 249.635 70.8295 250.029 70.5632C250.423 70.2969 250.621 69.9027 250.621 69.3807V69.2848C250.621 68.2727 250.301 67.4897 249.662 66.9357C249.033 66.3817 248.138 66.1048 246.977 66.1048C245.752 66.1048 244.777 66.3764 244.053 66.9197C243.328 67.4524 242.849 68.1236 242.615 68.9332L236.318 68.4219C236.638 66.9304 237.267 65.6413 238.204 64.5547C239.142 63.4574 240.351 62.6158 241.832 62.0298C243.323 61.4332 245.049 61.1349 247.009 61.1349C248.373 61.1349 249.678 61.2947 250.924 61.6143C252.181 61.9339 253.295 62.4293 254.264 63.1005C255.244 63.7717 256.017 64.6346 256.581 65.6893C257.146 66.7333 257.428 67.9851 257.428 69.4446V86H250.972V82.5962H250.78C250.386 83.3633 249.859 84.0398 249.198 84.6257C248.538 85.201 247.744 85.6538 246.817 85.984C245.89 86.3036 244.82 86.4634 243.605 86.4634ZM245.555 81.7653C246.556 81.7653 247.441 81.5682 248.208 81.174C248.975 80.7692 249.577 80.2259 250.013 79.544C250.45 78.8622 250.669 78.0898 250.669 77.2269V74.6222C250.455 74.7607 250.162 74.8885 249.79 75.0057C249.427 75.1122 249.017 75.2134 248.559 75.3093C248.101 75.3945 247.643 75.4744 247.185 75.549C246.727 75.6129 246.311 75.6715 245.938 75.7248C245.139 75.842 244.442 76.0284 243.845 76.2841C243.248 76.5398 242.785 76.886 242.455 77.3228C242.124 77.7489 241.959 78.2816 241.959 78.9208C241.959 79.8477 242.295 80.5561 242.966 81.0462C243.648 81.5256 244.511 81.7653 245.555 81.7653ZM267.552 86L260.872 61.4545H267.759L271.563 77.946H271.786L275.749 61.4545H282.509L286.536 77.8501H286.744L290.483 61.4545H297.354L290.691 86H283.484L279.265 70.5632H278.961L274.743 86H267.552ZM311.557 86.4794C309.032 86.4794 306.859 85.968 305.037 84.9453C303.226 83.9119 301.83 82.4524 300.85 80.5668C299.87 78.6705 299.38 76.4279 299.38 73.8391C299.38 71.3143 299.87 69.0984 300.85 67.1914C301.83 65.2844 303.21 63.7983 304.989 62.733C306.779 61.6676 308.877 61.1349 311.285 61.1349C312.904 61.1349 314.412 61.396 315.807 61.918C317.214 62.4293 318.439 63.2017 319.483 64.2351C320.538 65.2685 321.358 66.5682 321.944 68.1342C322.53 69.6896 322.823 71.5114 322.823 73.5994V75.4691H302.097V71.2504H316.415C316.415 70.2702 316.202 69.402 315.776 68.6456C315.349 67.8892 314.758 67.2979 314.002 66.8718C313.256 66.435 312.388 66.2166 311.397 66.2166C310.364 66.2166 309.447 66.4563 308.648 66.9357C307.86 67.4045 307.242 68.0384 306.795 68.8374C306.347 69.6257 306.118 70.5046 306.108 71.4741V75.4851C306.108 76.6996 306.331 77.7489 306.779 78.6332C307.237 79.5174 307.881 80.1992 308.712 80.6786C309.543 81.158 310.529 81.3977 311.669 81.3977C312.425 81.3977 313.117 81.2912 313.746 81.0781C314.375 80.8651 314.913 80.5455 315.36 80.1193C315.807 79.6932 316.148 79.1712 316.383 78.5533L322.679 78.9688C322.359 80.4815 321.704 81.8026 320.713 82.9318C319.733 84.0504 318.465 84.924 316.91 85.5526C315.365 86.1705 313.581 86.4794 311.557 86.4794ZM347.688 68.4538L341.456 68.8374C341.349 68.3047 341.12 67.8253 340.768 67.3991C340.417 66.9624 339.953 66.6161 339.378 66.3604C338.813 66.0941 338.137 65.9609 337.349 65.9609C336.294 65.9609 335.404 66.1847 334.68 66.6321C333.956 67.0689 333.593 67.6548 333.593 68.3899C333.593 68.9759 333.828 69.4712 334.296 69.8761C334.765 70.2809 335.57 70.6058 336.709 70.8509L341.152 71.7457C343.538 72.2358 345.317 73.0241 346.489 74.1108C347.661 75.1974 348.247 76.625 348.247 78.3935C348.247 80.0021 347.773 81.4137 346.825 82.6282C345.887 83.8427 344.598 84.7908 342.958 85.4727C341.328 86.1438 339.447 86.4794 337.317 86.4794C334.067 86.4794 331.479 85.8029 329.55 84.4499C327.633 83.0863 326.509 81.2326 326.179 78.8888L332.874 78.5373C333.077 79.5281 333.567 80.2844 334.344 80.8065C335.122 81.3178 336.118 81.5735 337.333 81.5735C338.526 81.5735 339.485 81.3445 340.209 80.8864C340.944 80.4176 341.317 79.8157 341.328 79.0806C341.317 78.4627 341.056 77.9567 340.545 77.5625C340.033 77.1577 339.245 76.8487 338.18 76.6357L333.929 75.7887C331.532 75.3093 329.747 74.4783 328.576 73.2958C327.414 72.1133 326.834 70.6058 326.834 68.7734C326.834 67.1967 327.26 65.8384 328.112 64.6985C328.975 63.5586 330.184 62.6797 331.74 62.0618C333.306 61.4439 335.138 61.1349 337.237 61.1349C340.337 61.1349 342.777 61.7901 344.556 63.1005C346.345 64.4109 347.389 66.1953 347.688 68.4538ZM363.624 86.4794C361.142 86.4794 358.995 85.9521 357.184 84.8974C355.384 83.832 353.993 82.3512 353.013 80.4549C352.033 78.5479 351.543 76.3374 351.543 73.8232C351.543 71.2876 352.033 69.0717 353.013 67.1754C353.993 65.2685 355.384 63.7876 357.184 62.733C358.995 61.6676 361.142 61.1349 363.624 61.1349C366.106 61.1349 368.248 61.6676 370.048 62.733C371.859 63.7876 373.255 65.2685 374.235 67.1754C375.215 69.0717 375.705 71.2876 375.705 73.8232C375.705 76.3374 375.215 78.5479 374.235 80.4549C373.255 82.3512 371.859 83.832 370.048 84.8974C368.248 85.9521 366.106 86.4794 363.624 86.4794ZM363.656 81.206C364.785 81.206 365.728 80.8864 366.484 80.2472C367.241 79.5973 367.811 78.7131 368.194 77.5945C368.588 76.4759 368.786 75.2028 368.786 73.7752C368.786 72.3477 368.588 71.0746 368.194 69.956C367.811 68.8374 367.241 67.9531 366.484 67.3033C365.728 66.6534 364.785 66.3285 363.656 66.3285C362.516 66.3285 361.557 66.6534 360.779 67.3033C360.012 67.9531 359.432 68.8374 359.038 69.956C358.654 71.0746 358.462 72.3477 358.462 73.7752C358.462 75.2028 358.654 76.4759 359.038 77.5945C359.432 78.7131 360.012 79.5973 360.779 80.2472C361.557 80.8864 362.516 81.206 363.656 81.206ZM380.131 86V61.4545H386.619V65.7852H386.907C387.418 64.3469 388.271 63.2124 389.464 62.3814C390.657 61.5504 392.085 61.1349 393.746 61.1349C395.43 61.1349 396.863 61.5558 398.045 62.3974C399.228 63.2283 400.016 64.3576 400.41 65.7852H400.666C401.167 64.3789 402.072 63.255 403.382 62.4134C404.704 61.5611 406.264 61.1349 408.065 61.1349C410.355 61.1349 412.214 61.8647 413.642 63.3242C415.08 64.7731 415.799 66.8292 415.799 69.4925V86H409.007V70.8349C409.007 69.4712 408.645 68.4485 407.921 67.7667C407.196 67.0849 406.291 66.744 405.204 66.744C403.968 66.744 403.004 67.1381 402.312 67.9265C401.619 68.7042 401.273 69.7322 401.273 71.0107V86H394.673V70.6911C394.673 69.4872 394.327 68.5284 393.635 67.8146C392.953 67.1009 392.053 66.744 390.934 66.744C390.178 66.744 389.496 66.9357 388.889 67.3192C388.292 67.6921 387.818 68.2195 387.466 68.9013C387.115 69.5724 386.939 70.3608 386.939 71.2663V86H380.131ZM432.362 86.4794C429.838 86.4794 427.664 85.968 425.843 84.9453C424.031 83.9119 422.636 82.4524 421.656 80.5668C420.676 78.6705 420.186 76.4279 420.186 73.8391C420.186 71.3143 420.676 69.0984 421.656 67.1914C422.636 65.2844 424.015 63.7983 425.795 62.733C427.584 61.6676 429.683 61.1349 432.091 61.1349C433.71 61.1349 435.218 61.396 436.613 61.918C438.019 62.4293 439.245 63.2017 440.289 64.2351C441.343 65.2685 442.164 66.5682 442.749 68.1342C443.335 69.6896 443.628 71.5114 443.628 73.5994V75.4691H422.902V71.2504H437.22C437.22 70.2702 437.007 69.402 436.581 68.6456C436.155 67.8892 435.564 67.2979 434.807 66.8718C434.062 66.435 433.193 66.2166 432.203 66.2166C431.169 66.2166 430.253 66.4563 429.454 66.9357C428.666 67.4045 428.048 68.0384 427.6 68.8374C427.153 69.6257 426.924 70.5046 426.913 71.4741V75.4851C426.913 76.6996 427.137 77.7489 427.584 78.6332C428.042 79.5174 428.687 80.1992 429.518 80.6786C430.349 81.158 431.334 81.3977 432.474 81.3977C433.231 81.3977 433.923 81.2912 434.552 81.0781C435.18 80.8651 435.718 80.5455 436.166 80.1193C436.613 79.6932 436.954 79.1712 437.188 78.5533L443.485 78.9688C443.165 80.4815 442.51 81.8026 441.519 82.9318C440.539 84.0504 439.271 84.924 437.716 85.5526C436.171 86.1705 434.387 86.4794 432.362 86.4794Z" fill="white"/>
</svg>
