<svg width="140" height="140" viewBox="0 0 140 140" fill="none" xmlns="http://www.w3.org/2000/svg">
<rect width="140" height="140" rx="20" fill="#0858CF"/>
<path d="M80.5581 20L92.0986 26.6365L46.6507 52.7718L35.1103 46.1352L80.5581 20Z" fill="white"/>
<path d="M92.5639 28.0298L47.4023 53.9888L47.4007 67.1227L92.5625 41.1638L92.5639 28.0298Z" fill="white"/>
<path d="M74.403 53.6615L47.4971 69.1273L47.4957 82.2616L74.4014 66.7957L74.403 53.6615Z" fill="white"/>
<path d="M64.0888 74.4251L47.4334 83.9991L47.4319 97.1336L64.0874 87.5596L64.0888 74.4251Z" fill="white"/>
<path d="M34.2902 47.4015L45.8985 54.0738L45.894 67.2108L34.2857 60.5387L34.2902 47.4015Z" fill="white"/>
<path d="M34.4006 62.4493L45.8681 69.0406L45.8637 82.1776L34.3962 75.5864L34.4006 62.4493Z" fill="white"/>
<path d="M34.3956 77.4064L45.8669 84L45.8622 98.0036L34.3908 91.41L34.3956 77.4064Z" fill="white"/>
<path d="M59.9577 120L48.4173 113.364L93.3493 87.5249L104.89 94.1613L59.9577 120Z" fill="white"/>
<path d="M47.5024 112.228L92.5963 86.3077L92.5977 73.1738L47.5038 99.0938L47.5024 112.228Z" fill="white"/>
<path d="M65.5955 86.6351L92.5012 71.1693L92.5027 58.0351L65.5969 73.5008L65.5955 86.6351Z" fill="white"/>
<path d="M75.9096 65.8714L92.565 56.2975L92.5664 43.1631L75.9111 52.737L75.9096 65.8714Z" fill="white"/>
<path d="M105.71 92.9831L94.1015 86.311L94.1059 73.1738L105.714 79.8459L105.71 92.9831Z" fill="white"/>
<path d="M105.6 77.8508L94.1326 71.2595L94.137 58.1225L105.604 64.7137L105.6 77.8508Z" fill="white"/>
<path d="M105.604 62.8937L94.133 56.3001L94.1376 42.5482L105.609 49.1417L105.604 62.8937Z" fill="white"/>
</svg>
