<svg width="291" height="140" viewBox="0 0 291 140" fill="none" xmlns="http://www.w3.org/2000/svg">
<rect width="290.752" height="140" rx="20" fill="#D73526"/>
<path d="M47.3523 105.449C47.3523 109.135 44.3643 112.123 40.6783 112.123C36.9924 112.123 34.0044 109.135 34.0044 105.449C34.0044 101.763 36.9924 98.7746 40.6783 98.7746C44.3643 98.7746 47.3523 101.763 47.3523 105.449Z" fill="#4B1100"/>
<path fill-rule="evenodd" clip-rule="evenodd" d="M33.3479 64.9123C28.5339 64.9123 20 65.7877 20 57.5819C20 48.5011 27.3304 49.8139 33.3479 49.9233C32.6185 43.1035 32.8009 33.2929 39.0372 26.5095C45.5291 19.448 51.6193 20.0543 51.6193 20.0543H63.9825C66.6083 19.726 71.8381 20.7326 71.7505 27.3847C71.663 34.0368 66.0248 35.0433 63.2166 34.7151H52.9322C51.3275 34.8975 48.1182 36.7501 48.1182 42.702V49.923L57.4179 49.9233C60.0073 49.8502 65.186 51.2797 65.186 57.5816C65.186 63.8836 60.0073 65.0946 57.4179 64.9123H48.1182V93.112C52.3745 95.6243 55.2298 100.258 55.2298 105.558C55.2298 113.534 48.7639 120 40.7877 120C32.8116 120 26.3457 113.534 26.3457 105.558C26.3457 100.303 29.1522 95.704 33.3479 93.1772V64.9123ZM40.6783 112.123C44.3643 112.123 47.3523 109.135 47.3523 105.449C47.3523 101.763 44.3643 98.7746 40.6783 98.7746C36.9924 98.7746 34.0044 101.763 34.0044 105.449C34.0044 109.135 36.9924 112.123 40.6783 112.123Z" fill="white"/>
<path d="M104.596 86V53.2727H126.265V58.9776H111.515V66.7759H124.827V72.4808H111.515V86H104.596ZM130.396 86V61.4545H136.996V65.7372H137.251C137.699 64.2138 138.45 63.0632 139.505 62.2855C140.559 61.4972 141.774 61.103 143.148 61.103C143.489 61.103 143.857 61.1243 144.251 61.1669C144.645 61.2095 144.991 61.2681 145.289 61.3427V67.3832C144.97 67.2873 144.528 67.2021 143.963 67.1275C143.398 67.0529 142.882 67.0156 142.413 67.0156C141.412 67.0156 140.517 67.234 139.728 67.6708C138.951 68.0969 138.333 68.6935 137.875 69.4606C137.427 70.2276 137.204 71.1119 137.204 72.1133V86H130.396ZM148.809 86V61.4545H155.617V86H148.809ZM152.229 58.2905C151.217 58.2905 150.349 57.9549 149.624 57.2837C148.91 56.6019 148.553 55.7869 148.553 54.8388C148.553 53.9013 148.91 53.0969 149.624 52.4258C150.349 51.744 151.217 51.4031 152.229 51.4031C153.241 51.4031 154.104 51.744 154.818 52.4258C155.542 53.0969 155.904 53.9013 155.904 54.8388C155.904 55.7869 155.542 56.6019 154.818 57.2837C154.104 57.9549 153.241 58.2905 152.229 58.2905ZM174.126 61.4545V66.5682H159.344V61.4545H174.126ZM162.7 55.5739H169.507V78.4574C169.507 79.0859 169.603 79.576 169.795 79.9276C169.987 80.2685 170.253 80.5082 170.594 80.6467C170.946 80.7852 171.35 80.8544 171.808 80.8544C172.128 80.8544 172.448 80.8278 172.767 80.7745C173.087 80.7106 173.332 80.6626 173.502 80.6307L174.573 85.6964C174.232 85.8029 173.753 85.9254 173.135 86.0639C172.517 86.2131 171.766 86.3036 170.882 86.3356C169.241 86.3995 167.803 86.1811 166.567 85.6804C165.342 85.1797 164.388 84.402 163.707 83.3473C163.025 82.2926 162.689 80.9609 162.7 79.3523V55.5739ZM178.432 86V81.9411L190.449 67.0636V66.8878H178.848V61.4545H198.647V65.881L187.365 80.391V80.5668H199.063V86H178.432ZM204.268 86V61.4545H211.076V86H204.268ZM207.688 58.2905C206.676 58.2905 205.807 57.9549 205.083 57.2837C204.369 56.6019 204.012 55.7869 204.012 54.8388C204.012 53.9013 204.369 53.0969 205.083 52.4258C205.807 51.744 206.676 51.4031 207.688 51.4031C208.7 51.4031 209.563 51.744 210.277 52.4258C211.001 53.0969 211.363 53.9013 211.363 54.8388C211.363 55.7869 211.001 56.6019 210.277 57.2837C209.563 57.9549 208.7 58.2905 207.688 58.2905ZM223.336 71.8097V86H216.529V61.4545H223.017V65.7852H223.304C223.848 64.3576 224.759 63.2283 226.037 62.3974C227.315 61.5558 228.865 61.1349 230.687 61.1349C232.392 61.1349 233.878 61.5078 235.146 62.2536C236.413 62.9993 237.399 64.0646 238.102 65.4496C238.805 66.8239 239.157 68.4645 239.157 70.3714V86H232.349V71.5859C232.36 70.0838 231.976 68.9119 231.199 68.0703C230.421 67.218 229.35 66.7919 227.987 66.7919C227.07 66.7919 226.261 66.989 225.558 67.3832C224.865 67.7773 224.322 68.3526 223.928 69.109C223.544 69.8548 223.347 70.755 223.336 71.8097ZM255.58 95.7159C253.375 95.7159 251.484 95.4123 249.907 94.805C248.341 94.2085 247.095 93.3935 246.168 92.3601C245.241 91.3267 244.639 90.1655 244.362 88.8764L250.658 88.0295C250.85 88.5195 251.154 88.9776 251.569 89.4038C251.985 89.8299 252.533 90.1708 253.215 90.4265C253.908 90.6928 254.749 90.826 255.74 90.826C257.221 90.826 258.441 90.4638 259.399 89.7393C260.369 89.0256 260.854 87.8271 260.854 86.1438V81.6534H260.566C260.268 82.3352 259.82 82.9798 259.224 83.587C258.627 84.1942 257.86 84.6896 256.923 85.0732C255.985 85.4567 254.866 85.6484 253.567 85.6484C251.724 85.6484 250.046 85.2223 248.533 84.37C247.031 83.5071 245.832 82.1914 244.937 80.4229C244.053 78.6438 243.611 76.396 243.611 73.6793C243.611 70.8988 244.064 68.5763 244.969 66.712C245.875 64.8477 247.079 63.4521 248.581 62.5252C250.094 61.5984 251.75 61.1349 253.551 61.1349C254.925 61.1349 256.076 61.3693 257.002 61.8381C257.929 62.2962 258.675 62.8714 259.24 63.5639C259.815 64.2457 260.257 64.9169 260.566 65.5774H260.822V61.4545H267.581V86.2397C267.581 88.3278 267.07 90.0749 266.047 91.4812C265.024 92.8874 263.608 93.9421 261.796 94.6452C259.996 95.359 257.924 95.7159 255.58 95.7159ZM255.724 80.5348C256.821 80.5348 257.748 80.2631 258.505 79.7198C259.272 79.1658 259.858 78.3775 260.262 77.3548C260.678 76.3214 260.886 75.0856 260.886 73.6474C260.886 72.2092 260.683 70.9627 260.278 69.908C259.874 68.8427 259.288 68.017 258.521 67.4311C257.754 66.8452 256.821 66.5522 255.724 66.5522C254.605 66.5522 253.663 66.8558 252.896 67.4631C252.129 68.0597 251.548 68.8906 251.154 69.956C250.76 71.0213 250.562 72.2518 250.562 73.6474C250.562 75.0643 250.76 76.2894 251.154 77.3228C251.559 78.3455 252.139 79.1392 252.896 79.7038C253.663 80.2578 254.605 80.5348 255.724 80.5348Z" fill="white"/>
</svg>
