<svg width="479" height="140" viewBox="0 0 479 140" fill="none" xmlns="http://www.w3.org/2000/svg">
<rect width="479" height="140" rx="20" fill="#2D3440"/>
<path d="M174.545 63.8516C174.322 63.0739 174.007 62.3867 173.603 61.7901C173.198 61.1829 172.702 60.6715 172.116 60.256C171.541 59.8299 170.881 59.505 170.135 59.2812C169.4 59.0575 168.585 58.9457 167.69 58.9457C166.017 58.9457 164.547 59.3612 163.279 60.1921C162.022 61.0231 161.042 62.2322 160.339 63.8196C159.636 65.3963 159.284 67.3246 159.284 69.6044C159.284 71.8842 159.631 73.8232 160.323 75.4212C161.016 77.0192 161.996 78.239 163.263 79.0806C164.531 79.9116 166.028 80.3271 167.754 80.3271C169.32 80.3271 170.657 80.0501 171.765 79.4961C172.884 78.9315 173.736 78.1378 174.322 77.1151C174.918 76.0923 175.217 74.8832 175.217 73.4876L176.623 73.6953H168.185V68.4858H181.88V72.6087C181.88 75.4851 181.273 77.9567 180.059 80.0234C178.844 82.0795 177.172 83.6669 175.041 84.7855C172.91 85.8935 170.471 86.4474 167.722 86.4474C164.654 86.4474 161.958 85.771 159.636 84.418C157.314 83.0543 155.502 81.1207 154.203 78.6172C152.914 76.103 152.269 73.12 152.269 69.6683C152.269 67.0156 152.653 64.6506 153.42 62.5732C154.197 60.4851 155.284 58.7166 156.68 57.2678C158.075 55.8189 159.7 54.7163 161.554 53.9599C163.407 53.2035 165.415 52.8253 167.578 52.8253C169.432 52.8253 171.158 53.0969 172.756 53.6403C174.354 54.1729 175.771 54.9293 177.006 55.9094C178.253 56.8896 179.27 58.0561 180.059 59.4091C180.847 60.7514 181.353 62.2322 181.577 63.8516H174.545ZM198.04 86.4794C195.558 86.4794 193.411 85.9521 191.6 84.8974C189.8 83.832 188.41 82.3512 187.429 80.4549C186.449 78.5479 185.959 76.3374 185.959 73.8232C185.959 71.2876 186.449 69.0717 187.429 67.1754C188.41 65.2685 189.8 63.7876 191.6 62.733C193.411 61.6676 195.558 61.1349 198.04 61.1349C200.522 61.1349 202.664 61.6676 204.464 62.733C206.275 63.7876 207.671 65.2685 208.651 67.1754C209.631 69.0717 210.121 71.2876 210.121 73.8232C210.121 76.3374 209.631 78.5479 208.651 80.4549C207.671 82.3512 206.275 83.832 204.464 84.8974C202.664 85.9521 200.522 86.4794 198.04 86.4794ZM198.072 81.206C199.201 81.206 200.144 80.8864 200.901 80.2472C201.657 79.5973 202.227 78.7131 202.611 77.5945C203.005 76.4759 203.202 75.2028 203.202 73.7752C203.202 72.3477 203.005 71.0746 202.611 69.956C202.227 68.8374 201.657 67.9531 200.901 67.3033C200.144 66.6534 199.201 66.3285 198.072 66.3285C196.932 66.3285 195.973 66.6534 195.196 67.3033C194.429 67.9531 193.848 68.8374 193.454 69.956C193.07 71.0746 192.879 72.3477 192.879 73.7752C192.879 75.2028 193.07 76.4759 193.454 77.5945C193.848 78.7131 194.429 79.5973 195.196 80.2472C195.973 80.8864 196.932 81.206 198.072 81.206ZM225.638 86.4794C223.156 86.4794 221.009 85.9521 219.198 84.8974C217.397 83.832 216.007 82.3512 215.027 80.4549C214.047 78.5479 213.557 76.3374 213.557 73.8232C213.557 71.2876 214.047 69.0717 215.027 67.1754C216.007 65.2685 217.397 63.7876 219.198 62.733C221.009 61.6676 223.156 61.1349 225.638 61.1349C228.12 61.1349 230.261 61.6676 232.062 62.733C233.873 63.7876 235.269 65.2685 236.249 67.1754C237.229 69.0717 237.719 71.2876 237.719 73.8232C237.719 76.3374 237.229 78.5479 236.249 80.4549C235.269 82.3512 233.873 83.832 232.062 84.8974C230.261 85.9521 228.12 86.4794 225.638 86.4794ZM225.67 81.206C226.799 81.206 227.742 80.8864 228.498 80.2472C229.255 79.5973 229.825 78.7131 230.208 77.5945C230.602 76.4759 230.799 75.2028 230.799 73.7752C230.799 72.3477 230.602 71.0746 230.208 69.956C229.825 68.8374 229.255 67.9531 228.498 67.3033C227.742 66.6534 226.799 66.3285 225.67 66.3285C224.53 66.3285 223.571 66.6534 222.793 67.3033C222.026 67.9531 221.446 68.8374 221.052 69.956C220.668 71.0746 220.476 72.3477 220.476 73.7752C220.476 75.2028 220.668 76.4759 221.052 77.5945C221.446 78.7131 222.026 79.5973 222.793 80.2472C223.571 80.8864 224.53 81.206 225.67 81.206ZM253.204 95.7159C250.998 95.7159 249.107 95.4123 247.531 94.805C245.965 94.2085 244.718 93.3935 243.791 92.3601C242.864 91.3267 242.263 90.1655 241.986 88.8764L248.282 88.0295C248.473 88.5195 248.777 88.9776 249.193 89.4038C249.608 89.8299 250.157 90.1708 250.839 90.4265C251.531 90.6928 252.373 90.826 253.363 90.826C254.844 90.826 256.064 90.4638 257.023 89.7393C257.992 89.0256 258.477 87.8271 258.477 86.1438V81.6534H258.189C257.891 82.3352 257.444 82.9798 256.847 83.587C256.25 84.1942 255.483 84.6896 254.546 85.0732C253.608 85.4567 252.49 85.6484 251.19 85.6484C249.347 85.6484 247.669 85.2223 246.156 84.37C244.654 83.5071 243.456 82.1914 242.561 80.4229C241.677 78.6438 241.234 76.396 241.234 73.6793C241.234 70.8988 241.687 68.5763 242.593 66.712C243.498 64.8477 244.702 63.4521 246.204 62.5252C247.717 61.5984 249.374 61.1349 251.174 61.1349C252.548 61.1349 253.699 61.3693 254.626 61.8381C255.553 62.2962 256.298 62.8714 256.863 63.5639C257.438 64.2457 257.88 64.9169 258.189 65.5774H258.445V61.4545H265.205V86.2397C265.205 88.3278 264.693 90.0749 263.671 91.4812C262.648 92.8874 261.231 93.9421 259.42 94.6452C257.619 95.359 255.547 95.7159 253.204 95.7159ZM253.347 80.5348C254.445 80.5348 255.372 80.2631 256.128 79.7198C256.895 79.1658 257.481 78.3775 257.886 77.3548C258.301 76.3214 258.509 75.0856 258.509 73.6474C258.509 72.2092 258.307 70.9627 257.902 69.908C257.497 68.8427 256.911 68.017 256.144 67.4311C255.377 66.8452 254.445 66.5522 253.347 66.5522C252.229 66.5522 251.286 66.8558 250.519 67.4631C249.752 68.0597 249.171 68.8906 248.777 69.956C248.383 71.0213 248.186 72.2518 248.186 73.6474C248.186 75.0643 248.383 76.2894 248.777 77.3228C249.182 78.3455 249.763 79.1392 250.519 79.7038C251.286 80.2578 252.229 80.5348 253.347 80.5348ZM277.429 53.2727V86H270.622V53.2727H277.429ZM294.069 86.4794C291.544 86.4794 289.371 85.968 287.549 84.9453C285.738 83.9119 284.342 82.4524 283.362 80.5668C282.382 78.6705 281.892 76.4279 281.892 73.8391C281.892 71.3143 282.382 69.0984 283.362 67.1914C284.342 65.2844 285.722 63.7983 287.501 62.733C289.291 61.6676 291.389 61.1349 293.797 61.1349C295.416 61.1349 296.924 61.396 298.319 61.918C299.726 62.4293 300.951 63.2017 301.995 64.2351C303.05 65.2685 303.87 66.5682 304.456 68.1342C305.042 69.6896 305.335 71.5114 305.335 73.5994V75.4691H284.608V71.2504H298.927C298.927 70.2702 298.714 69.402 298.287 68.6456C297.861 67.8892 297.27 67.2979 296.514 66.8718C295.768 66.435 294.9 66.2166 293.909 66.2166C292.876 66.2166 291.959 66.4563 291.16 66.9357C290.372 67.4045 289.754 68.0384 289.307 68.8374C288.859 69.6257 288.63 70.5046 288.619 71.4741V75.4851C288.619 76.6996 288.843 77.7489 289.291 78.6332C289.749 79.5174 290.393 80.1992 291.224 80.6786C292.055 81.158 293.041 81.3977 294.181 81.3977C294.937 81.3977 295.629 81.2912 296.258 81.0781C296.887 80.8651 297.425 80.5455 297.872 80.1193C298.319 79.6932 298.66 79.1712 298.895 78.5533L305.191 78.9688C304.871 80.4815 304.216 81.8026 303.225 82.9318C302.245 84.0504 300.977 84.924 299.422 85.5526C297.877 86.1705 296.093 86.4794 294.069 86.4794ZM350.395 69.6364C350.395 73.2053 349.718 76.2415 348.365 78.745C347.023 81.2486 345.19 83.1609 342.868 84.4819C340.556 85.7923 337.957 86.4474 335.07 86.4474C332.161 86.4474 329.551 85.7869 327.239 84.4659C324.928 83.1449 323.101 81.2326 321.758 78.729C320.416 76.2255 319.745 73.1946 319.745 69.6364C319.745 66.0675 320.416 63.0312 321.758 60.5277C323.101 58.0241 324.928 56.1172 327.239 54.8068C329.551 53.4858 332.161 52.8253 335.07 52.8253C337.957 52.8253 340.556 53.4858 342.868 54.8068C345.19 56.1172 347.023 58.0241 348.365 60.5277C349.718 63.0312 350.395 66.0675 350.395 69.6364ZM343.379 69.6364C343.379 67.3246 343.033 65.375 342.341 63.7876C341.659 62.2003 340.695 60.9964 339.448 60.1761C338.202 59.3558 336.742 58.9457 335.07 58.9457C333.397 58.9457 331.938 59.3558 330.691 60.1761C329.445 60.9964 328.475 62.2003 327.783 63.7876C327.101 65.375 326.76 67.3246 326.76 69.6364C326.76 71.9482 327.101 73.8977 327.783 75.4851C328.475 77.0724 329.445 78.2763 330.691 79.0966C331.938 79.9169 333.397 80.3271 335.07 80.3271C336.742 80.3271 338.202 79.9169 339.448 79.0966C340.695 78.2763 341.659 77.0724 342.341 75.4851C343.033 73.8977 343.379 71.9482 343.379 69.6364ZM359.316 86H351.901L363.199 53.2727H372.116L383.398 86H375.983L367.785 60.7514H367.529L359.316 86ZM358.852 73.136H376.366V78.5373H358.852V73.136ZM402.949 75.549V61.4545H409.757V86H403.221V81.5415H402.965C402.411 82.9798 401.49 84.1357 400.201 85.0092C398.922 85.8828 397.362 86.3196 395.518 86.3196C393.878 86.3196 392.434 85.9467 391.188 85.201C389.941 84.4553 388.967 83.3952 388.263 82.021C387.571 80.6467 387.219 79.0007 387.209 77.0831V61.4545H394.016V75.8686C394.027 77.3175 394.416 78.4627 395.183 79.3043C395.95 80.146 396.978 80.5668 398.267 80.5668C399.087 80.5668 399.854 80.3803 400.568 80.0075C401.282 79.6239 401.857 79.0593 402.294 78.3136C402.741 77.5678 402.96 76.6463 402.949 75.549ZM428.258 61.4545V66.5682H413.476V61.4545H428.258ZM416.832 55.5739H423.639V78.4574C423.639 79.0859 423.735 79.576 423.927 79.9276C424.119 80.2685 424.385 80.5082 424.726 80.6467C425.078 80.7852 425.483 80.8544 425.941 80.8544C426.26 80.8544 426.58 80.8278 426.899 80.7745C427.219 80.7106 427.464 80.6626 427.635 80.6307L428.705 85.6964C428.364 85.8029 427.885 85.9254 427.267 86.0639C426.649 86.2131 425.898 86.3036 425.014 86.3356C423.373 86.3995 421.935 86.1811 420.699 85.6804C419.474 85.1797 418.521 84.402 417.839 83.3473C417.157 82.2926 416.821 80.9609 416.832 79.3523V55.5739ZM440.027 71.8097V86H433.22V53.2727H439.835V65.7852H440.123C440.677 64.3363 441.572 63.2017 442.808 62.3814C444.043 61.5504 445.593 61.1349 447.458 61.1349C449.162 61.1349 450.649 61.5078 451.916 62.2536C453.195 62.9886 454.185 64.0486 454.889 65.4336C455.602 66.8079 455.954 68.4538 455.943 70.3714V86H449.136V71.5859C449.146 70.0732 448.763 68.896 447.985 68.0543C447.218 67.2127 446.142 66.7919 444.757 66.7919C443.83 66.7919 443.01 66.989 442.296 67.3832C441.593 67.7773 441.039 68.3526 440.634 69.109C440.24 69.8548 440.038 70.755 440.027 71.8097Z" fill="white"/>
</svg>
