<svg width="140" height="140" viewBox="0 0 140 140" fill="none" xmlns="http://www.w3.org/2000/svg">
<rect width="140" height="140" rx="20" fill="#2D3440"/>
<path d="M54.3516 94.0974C57.2446 97.784 59.8775 101.667 62.2314 105.719C64.2411 109.53 65.0789 112.114 66.5478 116.706C67.4485 119.243 68.2626 120 70.0128 120C71.9203 120 72.7855 118.712 73.4541 116.72C74.8425 112.384 75.9319 109.074 77.6506 105.947C81.0232 99.9103 85.2138 94.5457 89.3316 89.3896C90.4466 87.9305 97.6538 79.4293 100.898 72.7216C100.898 72.7216 104.887 65.3532 104.887 55.0625C104.887 45.4366 100.954 38.7603 100.954 38.7603L89.6305 41.7927L82.7537 59.904L81.0527 62.4015L80.7125 62.8538L80.2602 63.4201L79.4657 64.3247L78.331 65.4594L72.2074 70.4484L56.8983 79.2877L54.3516 94.0974Z" fill="#34A853"/>
<path d="M38.5509 71.4827C42.2872 80.0173 49.4924 87.5195 54.3674 94.1033L80.2602 63.4319C80.2602 63.4319 76.6123 68.2026 69.9951 68.2026C62.6247 68.2026 56.6701 62.3169 56.6701 54.8954C56.6701 49.8061 59.732 46.3097 59.732 46.3097L42.1555 51.0194L38.5509 71.4827Z" fill="#FBBC04"/>
<path d="M80.5492 21.5771C89.1487 24.3499 96.5093 30.1707 100.961 38.7544L80.268 63.4142C80.268 63.4142 83.3299 59.8549 83.3299 54.7971C83.3299 47.2025 76.9348 41.5291 70.0265 41.5291C63.4939 41.5291 59.7418 46.292 59.7418 46.292V30.7567L80.5492 21.5771Z" fill="#4285F4"/>
<path d="M43.2941 32.4735C48.4305 26.3282 57.4685 20 69.9282 20C75.9732 20 80.5276 21.587 80.5276 21.587L59.7221 46.3058H44.9813L43.2941 32.4735Z" fill="#1A73E8"/>
<path d="M38.5509 71.4827C38.5509 71.4827 35.1135 64.7514 35.1135 54.9996C35.1135 45.7827 38.6964 37.726 43.2941 32.4735L59.7339 46.3077L38.5509 71.4827Z" fill="#EA4335"/>
</svg>
