<svg width="140" height="140" viewBox="0 0 140 140" fill="none" xmlns="http://www.w3.org/2000/svg">
<rect width="140" height="140" rx="20" fill="#2D3440"/>
<path d="M99.2451 69.9998C99.2497 76.8819 96.8253 83.545 92.3991 88.815C87.9729 94.085 81.8288 97.6238 75.0493 98.8081C68.2698 99.9924 61.2898 98.7461 55.3391 95.2888C49.3883 91.8314 44.8486 86.3849 42.5197 79.9088L25.7923 93.2906C30.9936 103.178 39.3578 111.037 49.5493 115.614C59.7408 120.191 71.1719 121.221 82.0173 118.539C92.8627 115.858 102.497 109.62 109.382 100.822C116.267 92.0233 120.005 81.1717 120 69.9998" fill="#00AC47"/>
<path d="M99.2451 69.9998C99.2413 74.6526 98.1258 79.2371 95.9915 83.3715C93.8572 87.5059 90.7658 91.0705 86.975 93.7683L103.512 106.998C108.698 102.329 112.845 96.6234 115.685 90.2499C118.525 83.8764 119.995 76.9775 120 69.9998" fill="#4285F4"/>
<path d="M40.7548 69.9998C40.7621 66.6192 41.3594 63.2659 42.5197 60.0908L25.7923 46.709C21.9888 53.8832 20.0002 61.8797 20.0002 69.9998C20.0002 78.1199 21.9888 86.1164 25.7923 93.2906L42.5197 79.9088C41.3594 76.7336 40.7621 73.3803 40.7548 69.9998Z" fill="#FFBA00"/>
<path d="M70 40.7546C76.1881 40.7564 82.214 42.7339 87.1999 46.3991L102.521 32.1C96.8333 27.1964 90.1121 23.6406 82.8585 21.6979C75.6049 19.7551 68.0062 19.4755 60.6294 20.8801C53.2526 22.2846 46.2883 25.3369 40.2561 29.8093C34.224 34.2817 29.2797 40.0586 25.7923 46.709L42.5197 60.0908C44.5598 54.4356 48.2919 49.5458 53.2086 46.0863C58.1253 42.6267 63.9881 40.7651 70 40.7546Z" fill="#EA4435"/>
<path d="M120 66.2262L120 69.9998L111.509 83.2073H71.8868V62.4526H116.226C117.227 62.4526 118.187 62.8502 118.894 63.5579C119.602 64.2656 120 65.2254 120 66.2262Z" fill="#4285F4"/>
</svg>
