<svg width="290" height="140" viewBox="0 0 290 140" fill="none" xmlns="http://www.w3.org/2000/svg">
<rect width="289.456" height="140" rx="20" fill="#E44D26"/>
<path d="M20 20H64.3062V37.6448H39.3548L40.9872 55.717H64.3062V73.3229H24.8193L20 20ZM25.5965 82.1843H43.319L44.5627 96.2923L64.3062 101.578V120L28.0839 109.895" fill="#EBEBEB"/>
<path d="M108.456 20H64.2277V37.6448H106.824L108.456 20ZM105.23 55.717H64.2277V73.3618H85.9921L83.9324 96.2923L64.2277 101.578V119.922L100.372 109.895" fill="white"/>
<path d="M141.301 86V53.2727H148.22V66.7759H162.267V53.2727H169.17V86H162.267V72.4808H148.22V86H141.301ZM173.628 58.9776V53.2727H200.507V58.9776H190.487V86H183.648V58.9776H173.628ZM204.933 53.2727H213.467L222.48 75.2614H222.863L231.876 53.2727H240.409V86H233.698V64.6985H233.426L224.957 85.8402H220.386L211.917 64.6186H211.645V86H204.933V53.2727ZM246.11 86V53.2727H253.03V80.2951H267.06V86H246.11Z" fill="white"/>
</svg>
