<svg width="314" height="125" viewBox="0 0 314 125" fill="none" xmlns="http://www.w3.org/2000/svg">
<rect width="313.758" height="124.954" rx="20" fill="#E44D26"/>
<path d="M57.7099 104.954V20H93.7576L86.8786 96.8109" fill="#F16529"/>
<path d="M30 31.0108H57.7102V42.0463H42.105L43.1259 53.3491H57.7102V64.3603H33.0141L30 31.0108ZM33.5002 69.9024H44.5843L45.3621 78.7259L57.7102 82.0317V93.5533L35.0559 87.2334" fill="#EBEBEB"/>
<path d="M85.3227 31.0108H57.6611V42.0463H84.3018L85.3227 31.0108ZM83.3052 53.3491H57.6611V64.3846H71.2731L69.9849 78.7259L57.6611 82.0317V93.5047L80.2668 87.2334" fill="white"/>
<path d="M127.234 82.9769V42.9769H135.691V59.4808H152.859V42.9769H161.297V82.9769H152.859V66.4535H135.691V82.9769H127.234ZM166.746 49.9496V42.9769H199.597V49.9496H187.351V82.9769H178.992V49.9496H166.746ZM205.008 42.9769H215.437L226.453 69.8519H226.922L237.937 42.9769H248.367V82.9769H240.164V56.9418H239.832L229.48 82.7816H223.894L213.543 56.8441H213.211V82.9769H205.008V42.9769ZM255.335 82.9769V42.9769H263.792V76.0043H280.94V82.9769H255.335Z" fill="white"/>
</svg>
