<svg width="383" height="140" viewBox="0 0 383 140" fill="none" xmlns="http://www.w3.org/2000/svg">
<rect width="382.421" height="140" rx="20" fill="#F7DF1E"/>
<path d="M73.6446 79.991C75.797 83.5054 78.5973 86.0886 83.5501 86.0886C87.7106 86.0886 90.3684 84.0091 90.3684 81.1359C90.3684 77.6928 87.6377 76.4733 83.0582 74.4701L80.5479 73.3931C73.3021 70.3061 68.4884 66.439 68.4884 58.2637C68.4884 50.7329 74.2265 45 83.1938 45C89.578 45 94.1678 47.2219 97.4752 53.0396L89.656 58.0601C87.9345 54.9732 86.0772 53.7571 83.1938 53.7571C80.2528 53.7571 78.3887 55.6229 78.3887 58.0601C78.3887 61.0725 80.2544 62.292 84.5626 64.1578L87.0729 65.233C95.6044 68.8916 100.421 72.6214 100.421 81.007C100.421 90.0473 93.3197 95 83.7824 95C74.4571 95 68.4324 90.5562 65.4846 84.7317L73.6446 79.991ZM38.1736 80.8612C39.751 83.6597 41.1859 86.0258 44.6358 86.0258C47.9348 86.0258 50.0159 84.7351 50.0159 79.7163V45.5733H60.057V79.852C60.057 90.2492 53.9611 94.9814 45.0633 94.9814C37.0236 94.9814 32.3678 90.8208 30 85.8096L38.1736 80.8612Z" fill="black"/>
<path d="M146.37 53.2727H153.209V76.0923C153.209 78.2017 152.735 80.0341 151.787 81.5895C150.849 83.1449 149.544 84.3434 147.872 85.185C146.199 86.0266 144.255 86.4474 142.039 86.4474C140.068 86.4474 138.278 86.1012 136.67 85.4087C135.072 84.7056 133.804 83.6403 132.866 82.2127C131.929 80.7745 131.465 78.9687 131.476 76.7955H138.364C138.385 77.6584 138.561 78.3988 138.891 79.0167C139.232 79.6239 139.695 80.0927 140.281 80.4229C140.878 80.7425 141.581 80.9023 142.391 80.9023C143.243 80.9023 143.962 80.7212 144.548 80.359C145.144 79.9862 145.597 79.4428 145.906 78.729C146.215 78.0153 146.37 77.1364 146.37 76.0923V53.2727ZM165.801 86.4634C164.235 86.4634 162.84 86.1918 161.615 85.6484C160.389 85.0945 159.42 84.2795 158.706 83.2035C158.003 82.1168 157.652 80.7638 157.652 79.1445C157.652 77.7809 157.902 76.6357 158.403 75.7088C158.903 74.782 159.585 74.0362 160.448 73.4716C161.311 72.907 162.291 72.4808 163.388 72.1932C164.496 71.9055 165.658 71.7031 166.872 71.5859C168.3 71.4368 169.45 71.2983 170.324 71.1705C171.197 71.032 171.831 70.8295 172.225 70.5632C172.62 70.2969 172.817 69.9027 172.817 69.3807V69.2848C172.817 68.2727 172.497 67.4897 171.858 66.9357C171.229 66.3817 170.334 66.1048 169.173 66.1048C167.948 66.1048 166.973 66.3764 166.249 66.9197C165.524 67.4524 165.045 68.1236 164.811 68.9332L158.514 68.4219C158.834 66.9304 159.463 65.6413 160.4 64.5547C161.338 63.4574 162.547 62.6158 164.028 62.0298C165.519 61.4332 167.245 61.1349 169.205 61.1349C170.569 61.1349 171.874 61.2947 173.12 61.6143C174.377 61.9339 175.491 62.4293 176.46 63.1005C177.44 63.7717 178.213 64.6346 178.777 65.6893C179.342 66.7333 179.624 67.9851 179.624 69.4446V86H173.168V82.5962H172.976C172.582 83.3633 172.055 84.0398 171.394 84.6257C170.734 85.201 169.94 85.6538 169.013 85.984C168.087 86.3036 167.016 86.4634 165.801 86.4634ZM167.751 81.7653C168.752 81.7653 169.637 81.5682 170.404 81.174C171.171 80.7692 171.773 80.2259 172.209 79.544C172.646 78.8622 172.865 78.0898 172.865 77.2269V74.6222C172.652 74.7607 172.359 74.8885 171.986 75.0057C171.624 75.1122 171.213 75.2134 170.755 75.3093C170.297 75.3945 169.839 75.4744 169.381 75.549C168.923 75.6129 168.507 75.6715 168.135 75.7248C167.336 75.842 166.638 76.0284 166.041 76.2841C165.445 76.5398 164.981 76.886 164.651 77.3228C164.321 77.7489 164.155 78.2816 164.155 78.9208C164.155 79.8477 164.491 80.5561 165.162 81.0462C165.844 81.5256 166.707 81.7653 167.751 81.7653ZM206.91 61.4545L198.329 86H190.658L182.077 61.4545H189.268L194.366 79.0167H194.622L199.703 61.4545H206.91ZM216.734 86.4634C215.168 86.4634 213.772 86.1918 212.547 85.6484C211.322 85.0945 210.353 84.2795 209.639 83.2035C208.936 82.1168 208.584 80.7638 208.584 79.1445C208.584 77.7809 208.835 76.6357 209.335 75.7088C209.836 74.782 210.518 74.0362 211.381 73.4716C212.244 72.907 213.224 72.4808 214.321 72.1932C215.429 71.9055 216.59 71.7031 217.805 71.5859C219.232 71.4368 220.383 71.2983 221.256 71.1705C222.13 71.032 222.764 70.8295 223.158 70.5632C223.552 70.2969 223.749 69.9027 223.749 69.3807V69.2848C223.749 68.2727 223.43 67.4897 222.79 66.9357C222.162 66.3817 221.267 66.1048 220.106 66.1048C218.881 66.1048 217.906 66.3764 217.181 66.9197C216.457 67.4524 215.978 68.1236 215.743 68.9332L209.447 68.4219C209.767 66.9304 210.395 65.6413 211.333 64.5547C212.27 63.4574 213.479 62.6158 214.96 62.0298C216.452 61.4332 218.178 61.1349 220.138 61.1349C221.501 61.1349 222.806 61.2947 224.053 61.6143C225.31 61.9339 226.423 62.4293 227.393 63.1005C228.373 63.7717 229.145 64.6346 229.71 65.6893C230.275 66.7333 230.557 67.9851 230.557 69.4446V86H224.101V82.5962H223.909C223.515 83.3633 222.988 84.0398 222.327 84.6257C221.667 85.201 220.873 85.6538 219.946 85.984C219.019 86.3036 217.949 86.4634 216.734 86.4634ZM218.684 81.7653C219.685 81.7653 220.569 81.5682 221.336 81.174C222.103 80.7692 222.705 80.2259 223.142 79.544C223.579 78.8622 223.797 78.0898 223.797 77.2269V74.6222C223.584 74.7607 223.291 74.8885 222.918 75.0057C222.556 75.1122 222.146 75.2134 221.688 75.3093C221.23 75.3945 220.772 75.4744 220.314 75.549C219.855 75.6129 219.44 75.6715 219.067 75.7248C218.268 75.842 217.57 76.0284 216.974 76.2841C216.377 76.5398 215.914 76.886 215.583 77.3228C215.253 77.7489 215.088 78.2816 215.088 78.9208C215.088 79.8477 215.424 80.5561 216.095 81.0462C216.777 81.5256 217.64 81.7653 218.684 81.7653ZM256.261 68.4538L250.029 68.8374C249.922 68.3047 249.693 67.8253 249.341 67.3991C248.99 66.9624 248.526 66.6161 247.951 66.3604C247.387 66.0941 246.71 65.9609 245.922 65.9609C244.867 65.9609 243.977 66.1847 243.253 66.6321C242.529 67.0689 242.166 67.6548 242.166 68.3899C242.166 68.9759 242.401 69.4712 242.87 69.8761C243.338 70.2809 244.143 70.6058 245.283 70.8509L249.725 71.7457C252.111 72.2358 253.89 73.0241 255.062 74.1108C256.234 75.1974 256.82 76.625 256.82 78.3935C256.82 80.0021 256.346 81.4137 255.398 82.6282C254.46 83.8427 253.171 84.7908 251.531 85.4727C249.901 86.1438 248.02 86.4794 245.89 86.4794C242.64 86.4794 240.052 85.8029 238.123 84.4499C236.206 83.0863 235.082 81.2326 234.752 78.8888L241.447 78.5373C241.65 79.5281 242.14 80.2844 242.917 80.8065C243.695 81.3178 244.691 81.5735 245.906 81.5735C247.099 81.5735 248.058 81.3445 248.782 80.8864C249.517 80.4176 249.89 79.8157 249.901 79.0806C249.89 78.4627 249.629 77.9567 249.118 77.5625C248.606 77.1577 247.818 76.8487 246.753 76.6357L242.502 75.7887C240.105 75.3093 238.321 74.4783 237.149 73.2958C235.987 72.1133 235.407 70.6058 235.407 68.7734C235.407 67.1967 235.833 65.8384 236.685 64.6985C237.548 63.5586 238.757 62.6797 240.313 62.0618C241.879 61.4439 243.711 61.1349 245.81 61.1349C248.91 61.1349 251.35 61.7901 253.129 63.1005C254.919 64.4109 255.963 66.1953 256.261 68.4538ZM272.197 86.4794C269.683 86.4794 267.52 85.9467 265.709 84.8814C263.909 83.8054 262.524 82.3139 261.554 80.407C260.595 78.5 260.116 76.3054 260.116 73.8232C260.116 71.3089 260.601 69.1037 261.57 67.2074C262.55 65.3004 263.941 63.8143 265.741 62.7489C267.541 61.6729 269.683 61.1349 272.165 61.1349C274.306 61.1349 276.181 61.5238 277.79 62.3015C279.399 63.0792 280.672 64.1712 281.609 65.5774C282.547 66.9837 283.063 68.6349 283.159 70.5312H276.735C276.554 69.3061 276.075 68.3207 275.297 67.5749C274.53 66.8185 273.523 66.4403 272.277 66.4403C271.222 66.4403 270.301 66.728 269.512 67.3033C268.735 67.8679 268.127 68.6935 267.691 69.7802C267.254 70.8668 267.035 72.1825 267.035 73.7273C267.035 75.2933 267.249 76.625 267.675 77.7223C268.111 78.8196 268.724 79.6559 269.512 80.2312C270.301 80.8065 271.222 81.0941 272.277 81.0941C273.055 81.0941 273.752 80.9343 274.37 80.6147C274.999 80.2951 275.516 79.8317 275.92 79.2244C276.336 78.6065 276.608 77.8661 276.735 77.0032H283.159C283.053 78.8782 282.541 80.5295 281.625 81.957C280.72 83.3739 279.468 84.4819 277.87 85.2809C276.272 86.0799 274.381 86.4794 272.197 86.4794ZM287.518 86V61.4545H294.118V65.7372H294.373C294.821 64.2138 295.572 63.0632 296.627 62.2855C297.681 61.4972 298.896 61.103 300.27 61.103C300.611 61.103 300.979 61.1243 301.373 61.1669C301.767 61.2095 302.113 61.2681 302.411 61.3427V67.3832C302.092 67.2873 301.65 67.2021 301.085 67.1275C300.52 67.0529 300.004 67.0156 299.535 67.0156C298.534 67.0156 297.639 67.234 296.85 67.6708C296.073 68.0969 295.455 68.6935 294.997 69.4606C294.549 70.2276 294.325 71.1119 294.325 72.1133V86H287.518ZM305.931 86V61.4545H312.739V86H305.931ZM309.351 58.2905C308.339 58.2905 307.47 57.9549 306.746 57.2837C306.032 56.6019 305.675 55.7869 305.675 54.8388C305.675 53.9013 306.032 53.0969 306.746 52.4258C307.47 51.744 308.339 51.4031 309.351 51.4031C310.363 51.4031 311.226 51.744 311.94 52.4258C312.664 53.0969 313.026 53.9013 313.026 54.8388C313.026 55.7869 312.664 56.6019 311.94 57.2837C311.226 57.9549 310.363 58.2905 309.351 58.2905ZM318.192 95.2045V61.4545H324.903V65.5774H325.207C325.505 64.9169 325.937 64.2457 326.501 63.5639C327.077 62.8714 327.822 62.2962 328.739 61.8381C329.665 61.3693 330.816 61.1349 332.19 61.1349C333.98 61.1349 335.631 61.6037 337.144 62.5412C338.657 63.468 339.866 64.869 340.772 66.744C341.677 68.6083 342.13 70.9467 342.13 73.7592C342.13 76.4972 341.688 78.8089 340.804 80.6946C339.93 82.5696 338.737 83.9918 337.224 84.9613C335.722 85.9201 334.039 86.3995 332.174 86.3995C330.853 86.3995 329.729 86.1811 328.803 85.7443C327.886 85.3075 327.135 84.7589 326.549 84.0984C325.963 83.4272 325.516 82.7507 325.207 82.0689H324.999V95.2045H318.192ZM324.855 73.7273C324.855 75.1868 325.058 76.4599 325.463 77.5465C325.868 78.6332 326.453 79.4801 327.221 80.0874C327.988 80.6839 328.92 80.9822 330.017 80.9822C331.125 80.9822 332.063 80.6786 332.83 80.0714C333.597 79.4535 334.177 78.6012 334.571 77.5146C334.976 76.4173 335.179 75.1548 335.179 73.7273C335.179 72.3104 334.982 71.0639 334.587 69.9879C334.193 68.9119 333.613 68.0703 332.846 67.4631C332.078 66.8558 331.136 66.5522 330.017 66.5522C328.909 66.5522 327.972 66.8452 327.205 67.4311C326.448 68.017 325.868 68.848 325.463 69.924C325.058 71 324.855 72.2678 324.855 73.7273ZM359.724 61.4545V66.5682H344.942V61.4545H359.724ZM348.298 55.5739H355.106V78.4574C355.106 79.0859 355.202 79.576 355.393 79.9276C355.585 80.2685 355.852 80.5082 356.192 80.6467C356.544 80.7852 356.949 80.8544 357.407 80.8544C357.727 80.8544 358.046 80.8278 358.366 80.7745C358.685 80.7106 358.93 80.6626 359.101 80.6307L360.172 85.6964C359.831 85.8029 359.351 85.9254 358.733 86.0639C358.115 86.2131 357.364 86.3036 356.48 86.3356C354.84 86.3995 353.401 86.1811 352.166 85.6804C350.94 85.1797 349.987 84.402 349.305 83.3473C348.623 82.2926 348.288 80.9609 348.298 79.3523V55.5739Z" fill="black"/>
</svg>
