<svg width="330" height="140" viewBox="0 0 330 140" fill="none" xmlns="http://www.w3.org/2000/svg">
<rect width="329.927" height="140" rx="20" fill="#00618A"/>
<path d="M113.865 97.3918C108.305 97.2411 104.058 97.758 100.427 99.2892C99.3949 99.7245 97.7496 99.7358 97.5812 101.029C98.1482 101.623 98.2362 102.511 98.687 103.242C99.554 104.645 101.018 106.525 102.323 107.511C103.75 108.588 105.221 109.74 106.751 110.673C109.472 112.332 112.509 113.279 115.13 114.942C116.673 115.921 118.207 117.155 119.714 118.261C120.458 118.808 120.959 119.658 121.927 120C121.927 119.948 121.927 119.895 121.927 119.842C121.418 119.195 121.287 118.305 120.821 117.629C120.136 116.944 119.451 116.259 118.765 115.573C116.756 112.906 114.205 110.563 111.493 108.617C109.331 107.065 104.491 104.968 103.588 102.452C103.536 102.399 103.483 102.346 103.43 102.293C104.963 102.121 106.759 101.566 108.174 101.187C110.551 100.549 112.675 100.714 115.13 100.08C116.236 99.764 117.343 99.447 118.45 99.1315C118.45 98.9202 118.45 98.7103 118.45 98.499C117.209 97.2256 116.324 95.5408 114.971 94.3885C111.431 91.374 107.567 88.3623 103.588 85.8509C101.382 84.4581 98.6546 83.5529 96.3162 82.3726C95.5295 81.9757 94.1476 81.7694 93.6278 81.1077C92.3995 79.5415 91.7304 77.5565 90.783 75.7324C88.7982 71.9109 86.8494 67.7372 85.0914 63.7169C83.8919 60.9752 83.1087 58.2714 81.6134 55.8117C74.4349 44.0094 66.7077 36.8856 54.7377 29.8836C52.1908 28.3945 49.1242 27.8064 45.8835 27.0381C44.1453 26.9329 42.4056 26.827 40.6666 26.7218C39.6052 26.2781 38.5008 24.9795 37.5049 24.3502C33.5395 21.8451 23.3683 16.3962 20.4312 23.5598C18.5768 28.0815 23.2028 32.4939 24.8572 34.7851C26.0187 36.3925 27.5055 38.1946 28.3352 40.0021C28.8811 41.1901 28.9755 42.3814 29.4424 43.6387C30.5919 46.7352 31.5913 50.1042 33.0782 52.9662C33.8297 54.4141 34.658 55.9397 35.6081 57.2348C36.1906 58.0293 37.1886 58.3793 37.3464 59.6064C36.3702 60.9725 36.3145 63.093 35.7659 64.8236C33.2951 72.6145 34.2269 82.2983 37.8211 88.0644C38.9241 89.8343 41.5216 93.6307 45.0933 92.1748C48.2177 90.9021 47.5197 86.9586 48.4135 83.4793C48.6156 82.6903 48.4917 82.1105 48.8875 81.5823C48.8875 81.6346 48.8875 81.6875 48.8875 81.7405C49.8362 83.6375 50.785 85.5345 51.7337 87.4312C53.8396 90.8232 57.5775 94.3681 60.7449 96.76C62.3874 98.0003 63.6805 100.145 65.8041 100.87C65.8041 100.818 65.8041 100.766 65.8041 100.712C65.7505 100.712 65.6984 100.712 65.6456 100.712C65.2343 100.07 64.5905 99.8048 64.0651 99.2892C62.8276 98.0764 61.452 96.5684 60.4286 95.1788C57.5479 91.2677 55.0018 86.9867 52.6824 82.5308C51.5745 80.4034 50.6117 78.0559 49.6778 75.8906C49.3179 75.0556 49.3221 73.7934 48.572 73.3608C47.5493 74.9476 46.0427 76.2304 45.2518 78.104C43.9868 81.0988 43.8234 84.7511 43.355 88.5384C43.0775 88.6377 43.2008 88.5694 43.0381 88.6962C40.8363 88.1651 40.0623 85.8983 39.2446 83.9539C37.1745 79.036 36.79 71.1171 38.6114 65.4564C39.0826 63.992 41.2124 59.3788 40.3503 58.0258C39.939 56.6756 38.5811 55.895 37.8211 54.8633C36.8808 53.588 35.942 51.909 35.2912 50.4364C33.5973 46.6018 32.8063 42.2974 31.0229 38.4216C30.1707 36.5686 28.7289 34.6936 27.545 33.0463C26.2342 31.2215 24.7664 29.8774 23.7507 27.6703C23.3894 26.8862 22.8985 25.6308 23.4345 24.8247C23.6049 24.2806 23.8451 24.0537 24.3832 23.8762C25.3003 23.1691 27.8542 24.1115 28.8092 24.5083C31.3448 25.5614 33.4606 26.5642 35.6081 27.9867C36.6392 28.6704 37.6816 29.9923 38.9276 30.3583C39.4016 30.3583 39.8763 30.3583 40.3503 30.3583C42.576 30.87 45.0693 30.5172 47.1485 31.1485C50.8237 32.2656 54.1171 34.003 57.1084 35.8918C66.221 41.6454 73.6714 49.836 78.7679 59.6064C79.5878 61.1795 79.9427 62.681 80.6647 64.3496C82.1219 67.7145 83.9574 71.177 85.4069 74.4675C86.8536 77.7505 88.2637 81.0637 90.3083 83.7957C91.3838 85.2318 95.5359 86.0022 97.4227 86.7994C98.7455 87.3586 100.913 87.9411 102.166 88.6962C104.559 90.14 106.878 91.8586 109.122 93.4398C110.244 94.2301 113.693 95.9634 113.865 97.3918Z" fill="white"/>
<path fill-rule="evenodd" clip-rule="evenodd" d="M43.1965 37.1566C42.0372 37.1353 41.2173 37.2832 40.3503 37.4724C40.3503 37.5253 40.3503 37.5782 40.3503 37.6306C40.4031 37.6306 40.456 37.6306 40.5088 37.6306C41.0617 38.7668 42.0379 39.498 42.7218 40.4768C43.2486 41.5835 43.7754 42.6902 44.303 43.7962C44.3551 43.7439 44.4086 43.691 44.4608 43.6386C45.4398 42.9487 45.8884 41.8449 45.8835 40.1604C45.4912 39.7476 45.4334 39.2298 45.0932 38.7372C44.6411 38.0811 43.7663 37.7083 43.1965 37.1566Z" fill="white"/>
<path d="M154.771 53.2727H163.305L172.318 75.2614H172.701L181.714 53.2727H190.247V86H183.536V64.6985H183.264L174.795 85.8402H170.224L161.755 64.6186H161.483V86H154.771V53.2727ZM200.023 95.2045C199.16 95.2045 198.351 95.1353 197.594 94.9968C196.848 94.869 196.231 94.7038 195.74 94.5014L197.275 89.4197C198.074 89.6648 198.793 89.7979 199.432 89.8192C200.082 89.8406 200.641 89.6914 201.11 89.3718C201.589 89.0522 201.978 88.5089 202.276 87.7418L202.676 86.7031L193.871 61.4545H201.03L206.112 79.4801H206.367L211.497 61.4545H218.704L209.164 88.6527C208.706 89.9737 208.082 91.1243 207.294 92.1044C206.516 93.0952 205.531 93.8569 204.338 94.3896C203.145 94.9329 201.706 95.2045 200.023 95.2045ZM240.069 62.685C239.941 61.396 239.393 60.3945 238.423 59.6808C237.454 58.967 236.138 58.6101 234.476 58.6101C233.347 58.6101 232.394 58.7699 231.616 59.0895C230.838 59.3984 230.242 59.8299 229.826 60.3839C229.421 60.9379 229.219 61.5664 229.219 62.2695C229.198 62.8555 229.32 63.3668 229.586 63.8036C229.863 64.2404 230.242 64.6186 230.721 64.9382C231.2 65.2472 231.754 65.5188 232.383 65.7532C233.011 65.9769 233.683 66.1687 234.396 66.3285L237.337 67.0316C238.764 67.3512 240.075 67.7773 241.268 68.31C242.461 68.8427 243.494 69.4979 244.368 70.2756C245.242 71.0533 245.918 71.9695 246.397 73.0241C246.887 74.0788 247.138 75.288 247.149 76.6516C247.138 78.6545 246.626 80.391 245.614 81.8612C244.613 83.3207 243.164 84.4553 241.268 85.2649C239.382 86.0639 237.108 86.4634 234.444 86.4634C231.802 86.4634 229.501 86.0586 227.541 85.2489C225.591 84.4393 224.068 83.2408 222.971 81.6534C221.884 80.0554 221.314 78.0792 221.261 75.7248H227.956C228.031 76.8221 228.345 77.7383 228.899 78.4734C229.464 79.1978 230.215 79.7464 231.152 80.1193C232.101 80.4815 233.171 80.6626 234.364 80.6626C235.536 80.6626 236.554 80.4922 237.417 80.1513C238.29 79.8104 238.967 79.3363 239.446 78.729C239.925 78.1218 240.165 77.424 240.165 76.6357C240.165 75.9006 239.947 75.2827 239.51 74.782C239.084 74.2812 238.455 73.8551 237.624 73.5036C236.804 73.152 235.797 72.8324 234.604 72.5447L231.041 71.6499C228.281 70.9787 226.103 69.9293 224.505 68.5018C222.907 67.0742 222.113 65.1513 222.124 62.733C222.113 60.7514 222.64 59.0202 223.706 57.5394C224.782 56.0586 226.257 54.9027 228.132 54.0717C230.007 53.2408 232.138 52.8253 234.524 52.8253C236.953 52.8253 239.073 53.2408 240.884 54.0717C242.706 54.9027 244.123 56.0586 245.135 57.5394C246.147 59.0202 246.669 60.7354 246.701 62.685H240.069ZM264.155 74.6222H270.036L272.992 78.4254L275.901 81.8132L281.382 88.6847H274.926L271.155 84.0504L269.221 81.3018L264.155 74.6222ZM281.877 69.6364C281.877 73.2053 281.201 76.2415 279.848 78.745C278.505 81.2486 276.673 83.1609 274.351 84.4819C272.039 85.7923 269.439 86.4474 266.552 86.4474C263.644 86.4474 261.034 85.7869 258.722 84.4659C256.41 83.1449 254.583 81.2326 253.241 78.729C251.899 76.2255 251.227 73.1946 251.227 69.6364C251.227 66.0675 251.899 63.0312 253.241 60.5277C254.583 58.0241 256.41 56.1172 258.722 54.8068C261.034 53.4858 263.644 52.8253 266.552 52.8253C269.439 52.8253 272.039 53.4858 274.351 54.8068C276.673 56.1172 278.505 58.0241 279.848 60.5277C281.201 63.0312 281.877 66.0675 281.877 69.6364ZM274.862 69.6364C274.862 67.3246 274.516 65.375 273.823 63.7876C273.141 62.2003 272.177 60.9964 270.931 60.1761C269.684 59.3558 268.225 58.9457 266.552 58.9457C264.88 58.9457 263.42 59.3558 262.174 60.1761C260.927 60.9964 259.958 62.2003 259.265 63.7876C258.584 65.375 258.243 67.3246 258.243 69.6364C258.243 71.9482 258.584 73.8977 259.265 75.4851C259.958 77.0724 260.927 78.2763 262.174 79.0966C263.42 79.9169 264.88 80.3271 266.552 80.3271C268.225 80.3271 269.684 79.9169 270.931 79.0966C272.177 78.2763 273.141 77.0724 273.823 75.4851C274.516 73.8977 274.862 71.9482 274.862 69.6364ZM287.003 86V53.2727H293.922V80.2951H307.953V86H287.003Z" fill="white"/>
</svg>
