<svg width="140" height="140" viewBox="0 0 140 140" fill="none" xmlns="http://www.w3.org/2000/svg">
<rect width="140" height="140" rx="20" fill="black"/>
<path d="M70.7204 35H85.3136V79.8243C85.3136 84.8572 84.1115 89.261 81.7074 93.0356C79.3258 96.8103 75.9892 99.7537 71.6978 101.866C67.4063 103.955 62.4071 105 56.7002 105C50.9708 105 45.9603 103.955 41.6689 101.866C37.3774 99.7537 34.0409 96.8103 31.6593 93.0356C29.2776 89.261 28.0868 84.8572 28.0868 79.8243V35H42.68V78.5773C42.68 81.2061 43.2529 83.5428 44.3988 85.5874C45.5671 87.632 47.2073 89.2385 49.3193 90.4068C51.4314 91.5752 53.8916 92.1594 56.7002 92.1594C59.5312 92.1594 61.9915 91.5752 64.081 90.4068C66.193 89.2385 67.822 87.632 68.9679 85.5874C70.1362 83.5428 70.7204 81.2061 70.7204 78.5773V35Z" fill="white"/>
<path d="M111.913 35V104.023H97.3201V35H111.913Z" fill="white"/>
</svg>
