<svg width="413" height="140" viewBox="0 0 413 140" fill="none" xmlns="http://www.w3.org/2000/svg">
<rect width="413" height="140" rx="20" fill="#8CC84B"/>
<g clip-path="url(#clip0_1_49)">
<path d="M76.2785 21.0673C78.758 19.6481 81.9876 19.6417 84.465 21.0673C96.9286 28.1099 109.396 35.1415 121.858 42.1883C124.201 43.5086 125.769 46.1171 125.745 48.8178V91.1886C125.763 94.0012 124.04 96.672 121.567 97.9623C109.145 104.966 96.7285 111.978 84.308 118.982C81.7772 120.429 78.4827 120.318 76.031 118.752C72.3067 116.593 68.576 114.445 64.8513 112.288C64.0902 111.834 63.2322 111.473 62.6948 110.735C63.1699 110.095 64.0193 110.015 64.7096 109.735C66.2642 109.241 67.692 108.447 69.1202 107.677C69.4813 107.43 69.9222 107.525 70.2684 107.746C73.4531 109.572 76.6097 111.451 79.8051 113.26C80.4868 113.653 81.177 113.131 81.7597 112.806C93.9501 105.916 106.156 99.0525 118.344 92.1606C118.795 91.9433 119.045 91.4639 119.008 90.9692C119.017 76.992 119.011 63.0123 119.013 49.035C119.064 48.4737 118.74 47.9576 118.232 47.7279C105.852 40.7562 93.4793 33.7738 81.1019 26.8003C80.8874 26.6529 80.6334 26.5738 80.3732 26.5734C80.1129 26.5731 79.8587 26.6514 79.6438 26.7982C67.2664 33.7738 54.8954 40.7626 42.518 47.734C42.0123 47.9641 41.6728 48.4716 41.733 49.035C41.7352 63.0123 41.733 76.992 41.733 90.9714C41.7116 91.2127 41.7646 91.4549 41.8849 91.6652C42.0053 91.8756 42.1872 92.044 42.4062 92.1478C45.7091 94.0208 49.0164 95.8806 52.3215 97.7472C54.1834 98.7494 56.4696 99.3449 58.521 98.577C60.3314 97.9278 61.6003 96.0804 61.5658 94.1582C61.5829 80.2626 61.5573 66.3647 61.5786 52.4712C61.5334 51.8543 62.1185 51.3447 62.7183 51.4027C64.3053 51.392 65.8945 51.3814 67.4815 51.407C68.144 51.392 68.5998 52.0563 68.5179 52.6778C68.5115 66.6614 68.535 80.6454 68.5072 94.6291C68.5115 98.3559 66.9804 102.411 63.5332 104.234C59.2864 106.434 54.0374 105.968 49.8419 103.858C46.2099 102.046 42.7438 99.9062 39.1762 97.9641C36.697 96.6809 34.9829 93.9994 35.0003 91.189V48.8178C34.9743 46.0611 36.6044 43.4053 39.0213 42.1043C51.4418 35.0948 63.8601 28.08 76.2785 21.0673Z" fill="white"/>
<path d="M87.1141 50.4179C92.5312 50.0692 98.3304 50.2113 103.205 52.88C106.979 54.925 109.072 59.217 109.138 63.41C109.033 63.9756 108.442 64.2876 107.902 64.2488C106.33 64.2466 104.758 64.2701 103.186 64.2381C102.519 64.2637 102.132 63.649 102.048 63.0596C101.597 61.0534 100.503 59.0664 98.6143 58.0987C95.7156 56.6474 92.3545 56.7204 89.1937 56.7507C86.8862 56.8732 84.4048 57.073 82.4499 58.4299C80.9491 59.4578 80.4932 61.5327 81.0289 63.2038C81.5339 64.4037 82.919 64.7908 84.0522 65.1477C90.5805 66.8551 97.4985 66.6852 103.902 68.9322C106.553 69.8482 109.147 71.629 110.054 74.4048C111.241 78.1252 110.721 82.5721 108.074 85.5589C105.928 88.0167 102.801 89.3544 99.6831 90.0809C95.535 91.0059 91.2302 91.0294 87.0176 90.6187C83.0564 90.1671 78.9343 89.1264 75.8764 86.4275C73.2615 84.157 71.9843 80.6194 72.1111 77.2049C72.1414 76.6283 72.7155 76.2262 73.2679 76.2736C74.8507 76.2608 76.4334 76.2565 78.0162 76.2757C78.6483 76.2305 79.117 76.7768 79.1494 77.3727C79.4415 79.2841 80.1598 81.2903 81.8266 82.4236C85.0434 84.4989 89.0797 84.3568 92.7631 84.4149C95.8146 84.2795 99.2401 84.2386 101.73 82.2217C103.044 81.0713 103.433 79.1467 103.078 77.4909C102.694 76.093 101.231 75.4416 99.9755 75.0156C93.5309 72.977 86.5357 73.7167 80.1534 71.4114C77.5624 70.4957 75.0569 68.7644 74.0614 66.1025C72.6724 62.3351 73.3089 57.6752 76.2333 54.7893C79.0846 51.9187 83.2007 50.8136 87.1141 50.4179Z" fill="white"/>
</g>
<path d="M196.934 50.5V90.5H189.629L172.227 65.3242H171.934V90.5H163.477V50.5H170.898L188.164 75.6562H188.516V50.5H196.934ZM217.319 91.0859C214.285 91.0859 211.662 90.4414 209.448 89.1523C207.248 87.8503 205.549 86.0404 204.351 83.7227C203.153 81.3919 202.554 78.6901 202.554 75.6172C202.554 72.5182 203.153 69.8099 204.351 67.4922C205.549 65.1615 207.248 63.3516 209.448 62.0625C211.662 60.7604 214.285 60.1094 217.319 60.1094C220.353 60.1094 222.97 60.7604 225.171 62.0625C227.384 63.3516 229.09 65.1615 230.288 67.4922C231.486 69.8099 232.085 72.5182 232.085 75.6172C232.085 78.6901 231.486 81.3919 230.288 83.7227C229.09 86.0404 227.384 87.8503 225.171 89.1523C222.97 90.4414 220.353 91.0859 217.319 91.0859ZM217.358 84.6406C218.739 84.6406 219.891 84.25 220.815 83.4688C221.74 82.6745 222.437 81.5937 222.905 80.2266C223.387 78.8594 223.628 77.3034 223.628 75.5586C223.628 73.8138 223.387 72.2578 222.905 70.8906C222.437 69.5234 221.74 68.4427 220.815 67.6484C219.891 66.8542 218.739 66.457 217.358 66.457C215.965 66.457 214.793 66.8542 213.843 67.6484C212.905 68.4427 212.196 69.5234 211.714 70.8906C211.245 72.2578 211.011 73.8138 211.011 75.5586C211.011 77.3034 211.245 78.8594 211.714 80.2266C212.196 81.5937 212.905 82.6745 213.843 83.4688C214.793 84.25 215.965 84.6406 217.358 84.6406ZM248.55 90.9883C246.271 90.9883 244.207 90.4023 242.358 89.2305C240.522 88.0456 239.064 86.3073 237.983 84.0156C236.916 81.7109 236.382 78.8854 236.382 75.5391C236.382 72.1016 236.935 69.2435 238.042 66.9648C239.149 64.6732 240.62 62.9609 242.456 61.8281C244.305 60.6823 246.33 60.1094 248.53 60.1094C250.21 60.1094 251.61 60.3958 252.729 60.9688C253.862 61.5286 254.774 62.2318 255.464 63.0781C256.167 63.9115 256.701 64.7318 257.065 65.5391H257.319V50.5H265.62V90.5H257.417V85.6953H257.065C256.675 86.5286 256.121 87.3555 255.405 88.1758C254.702 88.9831 253.784 89.6536 252.651 90.1875C251.532 90.7214 250.164 90.9883 248.55 90.9883ZM251.187 84.3672C252.528 84.3672 253.66 84.0026 254.585 83.2734C255.522 82.5312 256.239 81.4961 256.733 80.168C257.241 78.8398 257.495 77.2839 257.495 75.5C257.495 73.7161 257.248 72.1667 256.753 70.8516C256.258 69.5365 255.542 68.5208 254.604 67.8047C253.667 67.0885 252.528 66.7305 251.187 66.7305C249.819 66.7305 248.667 67.1016 247.729 67.8437C246.792 68.5859 246.082 69.6146 245.601 70.9297C245.119 72.2448 244.878 73.7682 244.878 75.5C244.878 77.2448 245.119 78.7878 245.601 80.1289C246.095 81.457 246.805 82.4987 247.729 83.2539C248.667 83.9961 249.819 84.3672 251.187 84.3672ZM286.133 91.0859C283.047 91.0859 280.391 90.4609 278.164 89.2109C275.951 87.9479 274.245 86.1641 273.047 83.8594C271.849 81.5417 271.25 78.8008 271.25 75.6367C271.25 72.5508 271.849 69.8424 273.047 67.5117C274.245 65.181 275.931 63.3646 278.105 62.0625C280.293 60.7604 282.858 60.1094 285.801 60.1094C287.78 60.1094 289.622 60.4284 291.328 61.0664C293.047 61.6914 294.544 62.6354 295.82 63.8984C297.109 65.1615 298.112 66.75 298.828 68.6641C299.544 70.5651 299.902 72.7917 299.902 75.3437V77.6289H274.57V72.4727H292.07C292.07 71.2747 291.81 70.2135 291.289 69.2891C290.768 68.3646 290.046 67.6419 289.121 67.1211C288.21 66.5872 287.148 66.3203 285.938 66.3203C284.674 66.3203 283.555 66.6133 282.578 67.1992C281.615 67.7721 280.859 68.5469 280.312 69.5234C279.766 70.487 279.486 71.5612 279.473 72.7461V77.6484C279.473 79.1328 279.746 80.4154 280.293 81.4961C280.853 82.5768 281.641 83.4102 282.656 83.9961C283.672 84.582 284.876 84.875 286.27 84.875C287.194 84.875 288.04 84.7448 288.809 84.4844C289.577 84.224 290.234 83.8333 290.781 83.3125C291.328 82.7917 291.745 82.1536 292.031 81.3984L299.727 81.9062C299.336 83.7552 298.535 85.3698 297.324 86.75C296.126 88.1172 294.577 89.1849 292.676 89.9531C290.788 90.7083 288.607 91.0859 286.133 91.0859ZM334.233 50.5H342.593V78.3906C342.593 80.9687 342.013 83.2083 340.854 85.1094C339.709 87.0104 338.114 88.4753 336.069 89.5039C334.025 90.5326 331.649 91.0469 328.94 91.0469C326.532 91.0469 324.344 90.6237 322.378 89.7773C320.425 88.918 318.875 87.6159 317.729 85.8711C316.584 84.1133 316.017 81.9062 316.03 79.25H324.448C324.474 80.3047 324.689 81.2096 325.093 81.9648C325.509 82.707 326.076 83.2799 326.792 83.6836C327.521 84.0742 328.381 84.2695 329.37 84.2695C330.412 84.2695 331.291 84.0482 332.007 83.6055C332.736 83.1497 333.289 82.4857 333.667 81.6133C334.045 80.7409 334.233 79.6667 334.233 78.3906V50.5ZM371.284 62.0039C371.128 60.4284 370.457 59.2044 369.272 58.332C368.088 57.4596 366.479 57.0234 364.448 57.0234C363.068 57.0234 361.903 57.2187 360.952 57.6094C360.002 57.987 359.272 58.5143 358.765 59.1914C358.27 59.8685 358.022 60.6367 358.022 61.4961C357.996 62.2122 358.146 62.8372 358.472 63.3711C358.81 63.9049 359.272 64.3672 359.858 64.7578C360.444 65.1354 361.121 65.4674 361.89 65.7539C362.658 66.0273 363.478 66.2617 364.351 66.457L367.944 67.3164C369.689 67.707 371.291 68.2279 372.749 68.8789C374.207 69.5299 375.47 70.3307 376.538 71.2812C377.606 72.2318 378.433 73.3516 379.019 74.6406C379.618 75.9297 379.924 77.4076 379.937 79.0742C379.924 81.5221 379.299 83.6445 378.062 85.4414C376.838 87.2253 375.067 88.612 372.749 89.6016C370.444 90.5781 367.664 91.0664 364.409 91.0664C361.18 91.0664 358.368 90.5716 355.972 89.582C353.589 88.5924 351.727 87.1276 350.386 85.1875C349.058 83.2344 348.361 80.819 348.296 77.9414H356.479C356.571 79.2826 356.955 80.4023 357.632 81.3008C358.322 82.1862 359.24 82.8568 360.386 83.3125C361.545 83.7552 362.853 83.9766 364.312 83.9766C365.744 83.9766 366.987 83.7682 368.042 83.3516C369.11 82.9349 369.937 82.3555 370.522 81.6133C371.108 80.8711 371.401 80.0182 371.401 79.0547C371.401 78.1562 371.134 77.401 370.601 76.7891C370.08 76.1771 369.312 75.6562 368.296 75.2266C367.293 74.7969 366.063 74.4062 364.604 74.0547L360.249 72.9609C356.877 72.1406 354.214 70.8581 352.261 69.1133C350.308 67.3685 349.338 65.0182 349.351 62.0625C349.338 59.6406 349.982 57.5247 351.284 55.7148C352.599 53.9049 354.403 52.4922 356.694 51.4766C358.986 50.4609 361.59 49.9531 364.507 49.9531C367.476 49.9531 370.067 50.4609 372.28 51.4766C374.507 52.4922 376.239 53.9049 377.476 55.7148C378.713 57.5247 379.351 59.6211 379.39 62.0039H371.284Z" fill="white"/>
<defs>
<clipPath id="clip0_1_49">
<rect width="100" height="100" fill="white" transform="translate(30 20)"/>
</clipPath>
</defs>
</svg>
