<svg width="140" height="140" viewBox="0 0 140 140" fill="none" xmlns="http://www.w3.org/2000/svg">
<rect width="140" height="140" rx="20" fill="#336791"/>
<path d="M118.108 79.9025C117.526 78.1368 116.003 76.907 114.034 76.6119C113.105 76.4729 112.042 76.5321 110.783 76.7923C108.589 77.2462 106.962 77.419 105.774 77.4524C110.257 69.8621 113.903 61.2066 116.002 53.0588C119.395 39.884 117.582 33.8821 115.463 31.1673C109.854 23.9815 101.672 20.1212 91.8014 20.0031C86.5356 19.9385 81.913 20.9811 79.5015 21.7308C77.2562 21.3335 74.8421 21.1117 72.309 21.0707C67.5606 20.9948 63.3652 22.0327 59.7804 24.1661C57.7957 23.4931 54.6104 22.5443 50.932 21.9389C42.2806 20.5147 35.3078 21.6245 30.2076 25.2375C24.0317 29.612 21.1687 37.2125 21.6982 47.8278C21.8663 51.1982 23.7465 61.4527 26.7068 71.1778C28.4081 76.7676 30.2224 81.4095 32.0991 84.9758C34.7605 90.0328 37.6084 93.0108 40.8054 94.0803C42.5972 94.6788 45.853 95.0981 49.2773 92.2383C49.7113 92.7654 50.2904 93.2892 51.0589 93.7757C52.0349 94.3929 53.2284 94.8972 54.4203 95.1961C58.7157 96.2728 62.7391 96.0036 66.1718 94.4943C66.193 95.1065 66.2092 95.6914 66.2229 96.1965C66.2456 97.0157 66.2683 97.819 66.2983 98.5702C66.5016 103.65 66.8463 107.599 67.8674 110.363C67.9235 110.514 67.9988 110.746 68.0784 110.992C68.5878 112.556 69.4396 115.174 71.6068 117.225C73.8509 119.349 76.5654 120 79.0515 120C80.2984 120 81.488 119.836 82.5315 119.612C86.2508 118.813 90.475 117.595 93.5307 113.232C96.4198 109.107 97.8242 102.895 98.0784 93.1065C98.1113 92.8296 98.1416 92.5653 98.1708 92.3135L98.2314 91.7962L98.912 91.8562L99.0874 91.868C102.876 92.0412 107.508 91.2355 110.352 89.9105C112.6 88.8645 119.804 85.051 118.108 79.9025Z" fill="black"/>
<path d="M111.63 80.9037C100.366 83.2338 99.592 79.4096 99.592 79.4096C111.485 61.7137 116.457 39.2513 112.166 33.7537C100.462 18.7574 80.2003 25.8497 79.8621 26.0336L79.7534 26.0533C77.5279 25.5899 75.0376 25.3142 72.2383 25.2683C67.1418 25.1847 63.2755 26.6082 60.3417 28.8391C60.3417 28.8391 24.1976 13.9078 25.8788 47.6179C26.2364 54.7892 36.1294 101.881 47.9289 87.6569C52.2418 82.4556 56.4092 78.0579 56.4092 78.0579C58.4786 79.4365 60.9564 80.1399 63.5539 79.8874L63.7558 79.7157C63.6929 80.3613 63.7217 80.9929 63.8364 81.7408C60.7966 85.1464 61.6901 85.7442 55.6134 86.9987C49.4644 88.2695 53.0765 90.5316 55.435 91.1233C58.2942 91.84 64.9087 92.8555 69.3779 86.5817L69.1999 87.2976C70.3907 88.2543 71.227 93.5198 71.0869 98.2935C70.9467 103.067 70.8532 106.344 71.7913 108.904C72.7303 111.464 73.6654 117.223 81.654 115.507C88.3287 114.073 91.7878 110.355 92.2692 104.155C92.6105 99.747 93.3835 100.399 93.432 96.4575L94.052 94.592C94.7667 88.6166 94.1656 86.6888 98.2777 87.5855L99.2776 87.6736C102.304 87.8115 106.265 87.1852 108.591 86.1016C113.597 83.7719 116.567 79.8817 111.63 80.9037Z" fill="#336791"/>
<path d="M62.4574 50.8249C61.4424 50.6832 60.5231 50.8142 60.058 51.1674C59.7967 51.3661 59.7156 51.5962 59.6937 51.7546C59.6353 52.1743 59.9285 52.6384 60.1088 52.8777C60.6186 53.5552 61.3632 54.0208 62.1003 54.1234C62.2071 54.1386 62.3135 54.1454 62.4192 54.1454C63.6482 54.1454 64.7659 53.1857 64.8644 52.4773C64.9875 51.5901 63.7031 50.9985 62.4574 50.8249ZM96.0844 50.853C95.9874 50.1576 94.7534 49.9593 93.5823 50.1226C92.4128 50.2859 91.2788 50.8154 91.3735 51.5123C91.4492 52.0543 92.4252 52.9794 93.5804 52.9794C93.6782 52.9794 93.7766 52.973 93.8759 52.9589C94.647 52.8518 95.2128 52.3608 95.4818 52.0778C95.8908 51.6464 96.1279 51.1655 96.0844 50.853Z" fill="white"/>
<path d="M115.379 80.639C114.949 79.3366 113.567 78.9177 111.27 79.3932C104.451 80.8046 102.008 79.827 101.207 79.2349C106.507 71.1376 110.868 61.3494 113.22 52.2172C114.334 47.8913 114.95 43.8738 115 40.5992C115.056 37.0051 114.445 34.364 113.186 32.7506C108.11 26.2466 100.66 22.7577 91.6425 22.662C85.4427 22.5921 80.2046 24.1831 79.1891 24.6305C77.0507 24.0973 74.7195 23.7699 72.1815 23.7281C67.5274 23.6525 63.5043 24.7699 60.1736 27.0475C58.7268 26.5075 54.9877 25.2203 50.4151 24.4816C42.5098 23.2055 36.2279 24.1725 31.745 27.3571C26.3958 31.1574 23.9264 37.9504 24.4047 47.5472C24.5657 50.7758 26.4004 60.7083 29.2956 70.2204C33.1066 82.74 37.2493 89.8274 41.608 91.2855C42.1182 91.456 42.7064 91.5753 43.3552 91.5753C44.9452 91.5753 46.8946 90.8567 48.9228 88.4115C51.3966 85.4357 53.9557 82.532 56.5967 79.7043C58.3101 80.6264 60.1925 81.1414 62.1177 81.1931C62.1215 81.2436 62.1264 81.2941 62.131 81.3443C61.7996 81.7405 61.4751 82.1425 61.1576 82.5501C59.8236 84.2482 59.546 84.6018 55.2521 85.4882C54.0306 85.7412 50.7866 86.4115 50.7389 88.6918C50.6874 91.1833 54.5738 92.2297 55.0165 92.3406C56.5596 92.7279 58.0462 92.919 59.4638 92.919C62.9116 92.919 65.9458 91.7826 68.3705 89.584C68.2959 98.4659 68.6652 107.218 69.7287 109.885C70.5998 112.068 72.7277 117.403 79.449 117.402C80.4352 117.402 81.5207 117.287 82.7149 117.03C89.7298 115.523 92.7761 112.414 93.9543 105.559C94.585 101.896 95.6671 93.1491 96.1761 88.4571C97.2502 88.7932 98.633 88.9471 100.128 88.9467C103.246 88.9467 106.844 88.2824 109.1 87.2323C111.634 86.0519 116.208 83.1555 115.379 80.639ZM98.6736 48.9334C98.6505 50.3186 98.4603 51.5761 98.2589 52.8887C98.0418 54.3004 97.8176 55.7599 97.7612 57.5317C97.7055 59.256 97.9202 61.0486 98.1278 62.7824C98.5475 66.2841 98.9781 69.8892 97.3112 73.4464C97.0343 72.9544 96.7877 72.4459 96.5727 71.9238C96.3655 71.4201 95.9155 70.6112 95.2925 69.4915C92.8689 65.133 87.1933 54.9263 90.0987 50.7614C90.9641 49.5218 93.1605 48.2472 98.6736 48.9334ZM91.9909 25.4668C100.071 25.6457 106.463 28.6769 110.988 34.4757C114.459 38.9235 110.637 59.1618 99.5727 76.6215C99.4615 76.4796 99.3496 76.3382 99.2372 76.1972L99.097 76.0218C101.956 71.2868 101.397 66.602 100.899 62.4486C100.695 60.744 100.502 59.1341 100.551 57.6217C100.602 56.019 100.813 54.6441 101.018 53.3148C101.269 51.6767 101.524 49.9817 101.454 47.9836C101.507 47.7739 101.528 47.5263 101.5 47.2323C101.32 45.3163 99.1387 39.5817 94.6922 34.3914C92.2598 31.5524 88.7128 28.3753 83.8697 26.2325C85.9529 25.7995 88.8015 25.3958 91.9909 25.4668ZM46.7764 86.6219C44.5418 89.3162 42.9988 88.7997 42.4913 88.6303C39.1848 87.5243 35.348 80.5163 31.9654 69.4034C29.0384 59.7877 27.3279 50.1184 27.1924 47.407C26.7651 38.832 28.838 32.8558 33.3539 29.6442C40.7032 24.4182 52.7861 27.5462 57.6413 29.1326C57.5716 29.2018 57.4989 29.2663 57.4299 29.3366C49.4625 37.4051 49.6515 51.1902 49.6712 52.033C49.6705 52.3581 49.6977 52.8184 49.7349 53.4515C49.872 55.7702 50.1272 60.0855 49.4455 64.9723C48.8122 69.5136 50.2083 73.9583 53.275 77.1672C53.5898 77.4959 53.9206 77.8088 54.2662 78.1046C52.9012 79.5706 49.9345 82.8126 46.7764 86.6219ZM55.2904 75.2307C52.8186 72.6442 51.696 69.0468 52.21 65.3597C52.9296 60.1975 52.6641 55.7014 52.5213 53.2859C52.5013 52.9479 52.4834 52.6517 52.4732 52.4181C53.6371 51.3831 59.0309 48.4853 62.8775 49.3691C64.6326 49.772 65.7022 50.9707 66.1469 53.0322C68.4482 63.7057 66.4514 68.1543 64.847 71.7293C64.5163 72.4657 64.2039 73.1619 63.9372 73.882L63.7304 74.4388C63.207 75.8463 62.7199 77.1551 62.4181 78.3978C59.7903 78.3902 57.2341 77.2649 55.2904 75.2307ZM55.6937 89.625C54.9264 89.4328 54.2363 89.099 53.8314 88.8221C54.1696 88.6626 54.7715 88.4453 55.8153 88.2296C60.8667 87.187 61.6469 86.451 63.3506 84.282C63.741 83.7845 64.1838 83.2208 64.797 82.5342L64.7978 82.5334C65.7109 81.508 66.1287 81.6819 66.8862 81.9971C67.5001 82.2516 68.0982 83.0233 68.3406 83.8726C68.4554 84.2736 68.5841 85.0348 68.1626 85.6272C64.6038 90.6239 59.418 90.5597 55.6937 89.625ZM82.1301 114.294C75.9504 115.621 73.7624 112.46 72.3205 108.845C71.3899 106.512 70.9324 95.9889 71.257 84.3682C71.2611 84.2136 71.2392 84.0644 71.1967 83.9238C71.1588 83.6464 71.1011 83.3719 71.024 83.1027C70.5415 81.4119 69.3655 79.9975 67.9546 79.4111C67.3941 79.1783 66.3654 78.751 65.1292 79.0681C65.3928 77.9789 65.8499 76.7487 66.3457 75.4168L66.5536 74.8566C66.7877 74.2249 67.0816 73.5706 67.3922 72.8778C69.0712 69.1376 71.3706 64.0145 68.875 52.4409C67.9403 48.1059 64.8186 45.9889 60.0865 46.4807C57.2496 46.7751 54.6541 47.9228 53.3595 48.581C53.0811 48.7223 52.8266 48.859 52.5887 48.9919C52.9501 44.6243 54.3151 36.4616 59.4214 31.2972C62.6366 28.046 66.9184 26.4403 72.1353 26.5268C82.4146 26.6955 89.0064 31.9853 92.7264 36.3937C95.9322 40.192 97.668 44.0185 98.3607 46.0823C93.151 45.551 89.6078 46.5821 87.8118 49.1571C83.9042 54.7584 89.9494 65.6297 92.8548 70.8546C93.3877 71.8121 93.8475 72.6397 93.9922 72.9914C94.9383 75.2907 96.1632 76.8258 97.0574 77.9462C97.3317 78.2895 97.5975 78.6226 97.7998 78.9135C96.2219 79.3697 93.3877 80.4236 93.646 85.6918C93.4377 88.3352 91.9564 100.711 91.2039 105.084C90.2104 110.861 88.0905 113.012 82.1301 114.294ZM107.925 84.6937C106.311 85.4446 103.611 86.0078 101.046 86.129C98.213 86.2619 96.7707 85.8107 96.4314 85.533C96.2723 82.2501 97.4907 81.9071 98.7804 81.544C98.983 81.4871 99.1807 81.4312 99.3716 81.3644C99.4902 81.4612 99.6201 81.5573 99.7625 81.6515C102.039 83.1586 106.101 83.3211 111.835 82.1342L111.898 82.1217C111.124 82.8467 109.801 83.8198 107.925 84.6937Z" fill="white"/>
</svg>
