<svg width="351" height="140" viewBox="0 0 351 140" fill="none" xmlns="http://www.w3.org/2000/svg">
<rect width="350.188" height="140" rx="20" fill="#FF6C37"/>
<path d="M85.5559 47.5386L57.0941 76.2261L49.0511 67.9574C77.0635 39.9448 79.8753 42.4761 85.5579 47.5386H85.5559Z" fill="white"/>
<path d="M57.0944 77.0106C56.8422 77.0044 56.6015 76.9043 56.4194 76.73L48.3193 68.63C48.1369 68.4412 48.035 68.1891 48.035 67.9266C48.035 67.664 48.1369 67.4119 48.3193 67.2231C75.9374 39.605 79.7068 40.898 86.2311 46.8043C86.3403 46.8918 86.4277 47.0035 86.4863 47.1305C86.5449 47.2575 86.5731 47.3965 86.5686 47.5363C86.6107 47.8105 86.5053 48.091 86.2881 48.2683L57.8263 76.7322C57.6267 76.9151 57.365 77.0154 57.0944 77.0127V77.0106ZM50.4561 67.955L57.0944 74.5932L84.0943 47.5933C83.1621 46.425 81.8318 45.6413 80.3582 45.3922C78.8844 45.1432 77.3705 45.4462 76.1062 46.2433C71.2124 48.437 63.338 55.13 50.4561 67.955Z" fill="#FF6C37"/>
<path d="M65.2511 84.1571L57.4886 76.2259L85.9505 48.0997C93.6012 55.5816 82.2379 68.069 65.2511 84.155V84.1571Z" fill="white"/>
<path d="M65.2513 85.1696C65.0023 85.1498 64.7659 85.0516 64.5763 84.8891L56.6451 77.1267C56.5261 76.8382 56.5261 76.5143 56.6451 76.2259C56.5607 75.9892 56.5607 75.7306 56.6451 75.494L85.1068 47.0322C85.3047 46.8463 85.5661 46.7428 85.8377 46.7428C86.1093 46.7428 86.3707 46.8463 86.5686 47.0322C87.4904 47.8806 88.2186 48.9175 88.7038 50.0724C89.189 51.2274 89.4197 52.4732 89.3804 53.7253C89.3804 61.319 80.7173 70.8807 65.9811 84.8321C65.7843 85.0269 65.5252 85.1464 65.2492 85.1696H65.2513ZM58.9506 76.2259L65.3061 82.5794C76.5555 71.9482 87.3006 60.9795 87.3554 53.5544C87.4166 51.9804 86.8963 50.4388 85.8936 49.2238L58.9506 76.2259Z" fill="#FF6C37"/>
<path d="M49.2748 68.1259L54.9005 73.7516C54.9364 73.7832 54.9651 73.8223 54.9848 73.8659C55.0045 73.9096 55.0148 73.9569 55.0148 74.0048C55.0148 74.0527 55.0045 74.0999 54.9848 74.1436C54.9651 74.1873 54.9364 74.2262 54.9005 74.2579L43.031 76.7892C42.7915 76.8409 42.5415 76.8128 42.3193 76.7094C42.0971 76.6058 41.9148 76.4326 41.8002 76.2161C41.6855 75.9994 41.6448 75.7511 41.6842 75.5092C41.7237 75.2673 41.8411 75.045 42.0186 74.8759L48.9373 68.0141C48.9373 68.0141 49.163 68.0141 49.2748 68.1259Z" fill="white"/>
<path d="M42.7505 77.9135C42.3755 77.9087 42.0078 77.808 41.6829 77.6208C41.358 77.4335 41.0865 77.1661 40.8942 76.844C40.6779 76.436 40.5995 75.969 40.6705 75.5129C40.7417 75.0566 40.9585 74.6356 41.2887 74.3129L48.1504 67.394C48.3979 67.1729 48.7182 67.0506 49.05 67.0506C49.382 67.0506 49.7022 67.1729 49.9497 67.394L55.5755 73.0197C55.9086 73.3361 56.0395 73.815 55.913 74.2579C55.7863 74.7008 55.4151 75.0532 54.9574 75.1586L43.088 77.6899L42.7505 77.9135ZM49.0511 69.3643L42.6957 75.7197L53.215 73.4691L49.0511 69.3643Z" fill="#FF6C37"/>
<path d="M100.689 31.7309C96.6177 27.8032 90.222 27.6388 85.9526 31.345C81.6832 35.051 80.9533 41.4129 84.2777 45.9903C87.6022 50.5676 93.8692 51.8501 98.7209 48.9434L91.07 41.2926L100.689 31.7309Z" fill="white"/>
<path d="M93.0951 51.5294C90.7561 51.4994 88.4777 50.7819 86.5436 49.466C84.6098 48.1502 83.1057 46.2943 82.219 44.1297C81.333 41.9667 81.1007 39.5915 81.5505 37.2978C82.0005 35.004 83.1129 32.8926 84.7503 31.2245C87.0024 29.0139 90.0321 27.7754 93.1879 27.7754C96.3437 27.7754 99.3735 29.0139 101.625 31.2245C101.841 31.406 101.963 31.6738 101.963 31.9565C101.962 32.0956 101.932 32.2329 101.874 32.3592C101.816 32.4854 101.731 32.5978 101.625 32.6885L92.5129 41.2947L99.4317 48.1017C99.5439 48.2088 99.628 48.3416 99.6768 48.4888C99.7258 48.6358 99.738 48.7926 99.7122 48.9455C99.6956 49.0929 99.6467 49.2349 99.5691 49.3614C99.4915 49.4879 99.387 49.5958 99.2629 49.6774C97.4042 50.8393 95.2674 51.4804 93.0761 51.5337L93.0951 51.5294ZM93.0951 29.7037C89.0872 29.7248 85.5013 32.1358 83.9973 35.8209C82.4933 39.506 83.3117 43.7479 86.1215 46.5788C87.519 47.9844 89.3085 48.9352 91.2555 49.3067C93.2026 49.6782 95.2164 49.4531 97.0334 48.6607L90.3951 42.0225C90.2895 41.9381 90.2043 41.831 90.1458 41.7093C90.0873 41.5875 90.0569 41.4541 90.0569 41.319C90.0569 41.1838 90.0873 41.0505 90.1458 40.9287C90.2043 40.8069 90.2895 40.6999 90.3951 40.6155L99.1702 31.7836C97.4258 30.4467 95.2928 29.7156 93.0951 29.7016V29.7037Z" fill="#FF6C37"/>
<path d="M100.857 31.8995L91.2387 41.4613L98.8892 49.1119C99.6593 48.6699 100.376 48.1413 101.026 47.5363C103.031 45.4168 104.134 42.6012 104.103 39.6838C104.072 36.7663 102.908 33.9752 100.857 31.8995Z" fill="white"/>
<path d="M98.7186 49.9559C98.5922 49.9628 98.4659 49.9411 98.3491 49.8925C98.2322 49.844 98.1278 49.7698 98.0436 49.6754L90.3928 42.0246C90.2874 41.9403 90.2022 41.8332 90.1436 41.7114C90.085 41.5896 90.0546 41.4563 90.0546 41.3211C90.0546 41.1861 90.085 41.0528 90.1436 40.9308C90.2022 40.8091 90.2874 40.7022 90.3928 40.6178L99.9547 31.2247C100.047 31.0853 100.172 30.9711 100.32 30.8922C100.467 30.8132 100.631 30.7719 100.798 30.7719C100.965 30.7719 101.13 30.8132 101.277 30.8922C101.424 30.9711 101.55 31.0853 101.642 31.2247C102.765 32.3245 103.656 33.6373 104.265 35.0861C104.874 36.5349 105.188 38.0907 105.188 39.6621C105.188 41.2337 104.874 42.7894 104.265 44.2382C103.656 45.6871 102.765 46.9998 101.642 48.0997C100.98 48.802 100.222 49.4077 99.3914 49.899C99.1822 50.0044 98.9404 50.0248 98.7164 49.9559H98.7186ZM92.5318 41.2948L98.8874 47.6504C99.3245 47.3439 99.7384 47.0055 100.125 46.6379C101.994 44.7746 103.046 42.2459 103.051 39.6073C103.056 37.246 102.195 34.9647 100.632 33.1949L92.5318 41.2948Z" fill="#FF6C37"/>
<path d="M86.7374 48.7197C85.9754 48.0044 84.9697 47.6061 83.9245 47.6061C82.8793 47.6061 81.8736 48.0044 81.1116 48.7197L55.6324 74.1421L59.8512 78.4178L86.7943 54.7928C87.2052 54.399 87.531 53.9251 87.752 53.4006C87.9729 52.8762 88.0842 52.312 88.0788 51.7428C88.0735 51.1738 87.9517 50.6118 87.721 50.0915C87.4903 49.5712 87.1555 49.1037 86.7374 48.7177V48.7197Z" fill="white"/>
<path d="M59.6255 79.4322C59.3734 79.426 59.1327 79.326 58.9505 79.1517L54.6749 74.8761C54.4925 74.6872 54.3906 74.435 54.3906 74.1726C54.3906 73.91 54.4925 73.6578 54.6749 73.4691L80.1561 48.0997C80.8901 47.3666 81.8273 46.8709 82.8464 46.677C83.8654 46.483 84.9192 46.5997 85.8711 47.0118C86.823 47.4241 87.6291 48.1128 88.1849 48.9887C88.7407 49.8644 89.0205 50.887 88.988 51.9239C88.9588 52.6276 88.7895 53.3186 88.49 53.956C88.1904 54.5935 87.7666 55.1647 87.2436 55.6364L60.3005 79.2614C60.1046 79.4001 59.8638 79.4603 59.6255 79.4302V79.4322ZM56.6451 74.1419L59.4567 77.0107L85.8936 54.0038C86.5476 53.4342 86.9377 52.6201 86.9631 51.7531C86.9883 50.8861 86.6467 50.0382 86.0076 49.4475C85.4173 48.8597 84.6183 48.5298 83.7853 48.5298C82.9524 48.5298 82.1533 48.8597 81.563 49.4475L56.6451 74.1419Z" fill="#FF6C37"/>
<path d="M35.8888 103.112C35.8168 103.21 35.7781 103.328 35.7781 103.45C35.7781 103.571 35.8168 103.689 35.8888 103.787L37.0131 108.681C37.0582 108.969 37.0155 109.264 36.8905 109.527C36.7656 109.79 36.5643 110.01 36.3128 110.158C36.0621 110.304 35.7715 110.367 35.4827 110.338C35.1938 110.309 34.9216 110.189 34.7055 109.995L26.9999 102.57L51.0193 78.3607H59.345L64.9706 83.9865C56.1951 91.6591 46.4102 98.0941 35.8888 103.112Z" fill="white"/>
<path d="M35.3825 111.381C34.7455 111.368 34.1169 111.107 33.695 110.649L26.3269 103.281C26.2215 103.196 26.1362 103.089 26.0777 102.968C26.0191 102.846 25.9887 102.712 25.9887 102.577C25.9887 102.442 26.0191 102.309 26.0777 102.187C26.1362 102.065 26.2215 101.958 26.3269 101.874L50.5131 77.6308C50.6485 77.4869 50.8254 77.3888 51.0193 77.3502H59.3998C59.6182 77.273 59.8565 77.273 60.0748 77.3502L65.7006 82.976C65.8075 83.0746 65.8889 83.1977 65.9378 83.3347C65.9866 83.4719 66.0015 83.6187 65.9811 83.7628C65.985 83.9025 65.9566 84.0413 65.8981 84.1683C65.8396 84.2952 65.7524 84.407 65.6436 84.4948L65.1943 84.8891C56.3833 92.2347 46.6896 98.4513 36.3381 103.395L37.4075 107.951C37.4902 108.302 37.4933 108.668 37.4167 109.021C37.3402 109.374 37.1857 109.705 36.9649 109.991C36.744 110.276 36.4621 110.509 36.1398 110.672C35.8175 110.834 35.463 110.923 35.102 110.932L35.3825 111.381ZM28.5207 102.549L35.1568 109.242C35.2186 109.297 35.2986 109.328 35.3815 109.328C35.4643 109.328 35.5443 109.297 35.6061 109.242C35.6474 109.184 35.6697 109.115 35.6697 109.045C35.6697 108.974 35.6474 108.905 35.6061 108.847L34.4818 103.954C34.3932 103.602 34.4287 103.231 34.5826 102.904C34.7364 102.575 34.9989 102.311 35.3256 102.154C45.3987 97.2769 54.8425 91.1947 63.4498 84.0412L58.8367 79.428H51.2998L28.5207 102.549Z" fill="#FF6C37"/>
<path d="M21.2075 108.343L26.8332 102.718L35.4965 111.381L21.7158 110.425C21.4793 110.407 21.2545 110.314 21.0739 110.16C20.8931 110.006 20.7656 109.799 20.7095 109.569C20.6534 109.338 20.6715 109.096 20.7612 108.876C20.8511 108.656 21.008 108.471 21.2097 108.345L21.2075 108.343Z" fill="white"/>
<path d="M35.6629 112.225L21.9374 111.269C21.1232 111.193 20.4228 110.636 20.1359 109.892C19.849 109.147 20.0241 108.263 20.5873 107.668L26.213 102.043C26.4018 101.86 26.654 101.758 26.9165 101.758C27.1789 101.758 27.4312 101.86 27.62 102.043L36.2262 110.649C36.3454 110.812 36.4095 111.009 36.4095 111.211C36.4095 111.413 36.3454 111.61 36.2262 111.773C36.096 111.984 35.897 112.142 35.6629 112.223V112.225ZM21.9374 109.075L33.1866 109.807L26.9998 104.013L21.9374 109.075Z" fill="#FF6C37"/>
<path d="M60.1316 79.0399L48.7686 80.7844L55.3497 74.2601L60.1316 79.0399Z" fill="white"/>
<path d="M48.7686 81.8495C48.5797 81.8545 48.3935 81.8038 48.2334 81.7036C48.0732 81.6035 47.9461 81.4583 47.8678 81.2865C47.7481 81.1235 47.6836 80.9265 47.6836 80.7243C47.6836 80.5219 47.7481 80.3251 47.8678 80.162L54.392 73.5807C54.59 73.3948 54.8515 73.2913 55.1229 73.2913C55.3946 73.2913 55.6559 73.3948 55.8538 73.5807L60.6379 78.3607C60.7335 78.5122 60.7841 78.6878 60.7841 78.867C60.7841 79.0461 60.7335 79.2216 60.6379 79.3732C60.5909 79.5579 60.4918 79.7252 60.3522 79.855C60.2128 79.9848 60.0387 80.0717 59.8511 80.1052L48.602 81.8495H48.7686ZM55.3497 75.7177L51.6942 79.3732L57.9948 78.4177L55.3497 75.7177Z" fill="#FF6C37"/>
<path d="M60.1318 79.0359L52.2006 80.0484C51.9883 80.0966 51.7661 80.0751 51.5671 79.9871C51.368 79.8991 51.2026 79.7492 51.0954 79.5599C50.9881 79.3705 50.9448 79.1516 50.9718 78.9356C50.9987 78.7196 51.0945 78.5181 51.245 78.3609L55.3519 74.2539L60.1318 79.0359Z" fill="white"/>
<path d="M51.9748 81.1199C51.6072 81.1162 51.2471 81.0155 50.931 80.8276C50.615 80.6398 50.3543 80.3716 50.1756 80.0504C49.9608 79.6654 49.8775 79.2207 49.9384 78.7839C49.9992 78.3474 50.2011 77.9423 50.5131 77.6308L54.6201 73.5239C54.818 73.338 55.0793 73.2345 55.351 73.2345C55.6224 73.2345 55.8839 73.338 56.0819 73.5239L60.8637 78.3059C61.006 78.4406 61.1061 78.6137 61.1518 78.8042C61.1976 78.9947 61.1872 79.1943 61.1217 79.379C61.0564 79.5637 60.9388 79.7254 60.7833 79.8445C60.6278 79.9637 60.441 80.0351 60.2457 80.0504L52.3715 81.0629L51.9748 81.1199ZM51.9748 79.0379L57.9381 78.3059L55.2951 75.6629L51.92 79.0379H51.9748ZM100.912 38.3691C100.806 38.1915 100.639 38.0591 100.442 37.9969C100.245 37.9346 100.032 37.9471 99.8429 38.0316C99.7497 38.0787 99.6671 38.1442 99.5997 38.2238C99.5322 38.3035 99.4816 38.3959 99.4506 38.4956C99.3879 38.6967 99.4076 38.9145 99.5054 39.101C99.8998 39.9299 99.7901 40.9109 99.2249 41.6322C99.1547 41.7017 99.0996 41.785 99.0632 41.8769C99.0269 41.9687 99.0102 42.0671 99.0138 42.166C99.016 42.3637 99.0911 42.5538 99.2249 42.6996C99.3692 42.7566 99.5298 42.7566 99.6741 42.6996C99.8051 42.7324 99.9426 42.7289 100.072 42.6891C100.201 42.6493 100.316 42.5749 100.406 42.4739C100.869 41.9068 101.163 41.2202 101.252 40.4934C101.342 39.7667 101.224 39.0295 100.912 38.3669V38.3691Z" fill="#FF6C37"/>
<path d="M138.032 86V53.2727H150.944C153.426 53.2727 155.541 53.7468 157.288 54.695C159.035 55.6325 160.367 56.9375 161.283 58.6101C162.21 60.272 162.673 62.1896 162.673 64.3629C162.673 66.5362 162.205 68.4538 161.267 70.1158C160.33 71.7777 158.971 73.0721 157.192 73.9989C155.424 74.9258 153.282 75.3892 150.768 75.3892H142.538V69.8441H149.65C150.981 69.8441 152.079 69.6151 152.941 69.157C153.815 68.6882 154.465 68.0437 154.891 67.2234C155.328 66.3924 155.546 65.4389 155.546 64.3629C155.546 63.2763 155.328 62.3281 154.891 61.5185C154.465 60.6982 153.815 60.0643 152.941 59.6168C152.068 59.1587 150.96 58.9297 149.618 58.9297H144.951V86H138.032ZM177.735 86.4794C175.252 86.4794 173.106 85.9521 171.295 84.8974C169.494 83.832 168.104 82.3512 167.124 80.4549C166.144 78.5479 165.654 76.3374 165.654 73.8232C165.654 71.2876 166.144 69.0717 167.124 67.1754C168.104 65.2685 169.494 63.7876 171.295 62.733C173.106 61.6676 175.252 61.1349 177.735 61.1349C180.217 61.1349 182.358 61.6676 184.159 62.733C185.97 63.7876 187.365 65.2685 188.345 67.1754C189.326 69.0717 189.816 71.2876 189.816 73.8232C189.816 76.3374 189.326 78.5479 188.345 80.4549C187.365 82.3512 185.97 83.832 184.159 84.8974C182.358 85.9521 180.217 86.4794 177.735 86.4794ZM177.767 81.206C178.896 81.206 179.839 80.8864 180.595 80.2472C181.351 79.5973 181.921 78.7131 182.305 77.5945C182.699 76.4759 182.896 75.2028 182.896 73.7752C182.896 72.3477 182.699 71.0746 182.305 69.956C181.921 68.8374 181.351 67.9531 180.595 67.3033C179.839 66.6534 178.896 66.3285 177.767 66.3285C176.627 66.3285 175.668 66.6534 174.89 67.3033C174.123 67.9531 173.542 68.8374 173.148 69.956C172.765 71.0746 172.573 72.3477 172.573 73.7752C172.573 75.2028 172.765 76.4759 173.148 77.5945C173.542 78.7131 174.123 79.5973 174.89 80.2472C175.668 80.8864 176.627 81.206 177.767 81.206ZM214.665 68.4538L208.432 68.8374C208.326 68.3047 208.097 67.8253 207.745 67.3991C207.394 66.9624 206.93 66.6161 206.355 66.3604C205.79 66.0941 205.114 65.9609 204.326 65.9609C203.271 65.9609 202.381 66.1847 201.657 66.6321C200.932 67.0689 200.57 67.6548 200.57 68.3899C200.57 68.9759 200.805 69.4712 201.273 69.8761C201.742 70.2809 202.546 70.6058 203.686 70.8509L208.129 71.7457C210.515 72.2358 212.294 73.0241 213.466 74.1108C214.638 75.1974 215.224 76.625 215.224 78.3935C215.224 80.0021 214.75 81.4137 213.802 82.6282C212.864 83.8427 211.575 84.7908 209.935 85.4727C208.305 86.1438 206.424 86.4794 204.294 86.4794C201.044 86.4794 198.455 85.8029 196.527 84.4499C194.61 83.0863 193.486 81.2326 193.155 78.8888L199.851 78.5373C200.054 79.5281 200.544 80.2844 201.321 80.8065C202.099 81.3178 203.095 81.5735 204.31 81.5735C205.503 81.5735 206.462 81.3445 207.186 80.8864C207.921 80.4176 208.294 79.8157 208.305 79.0806C208.294 78.4627 208.033 77.9567 207.522 77.5625C207.01 77.1577 206.222 76.8487 205.156 76.6357L200.906 75.7887C198.509 75.3093 196.724 74.4783 195.552 73.2958C194.391 72.1133 193.811 70.6058 193.811 68.7734C193.811 67.1967 194.237 65.8384 195.089 64.6985C195.952 63.5586 197.161 62.6797 198.717 62.0618C200.283 61.4439 202.115 61.1349 204.214 61.1349C207.314 61.1349 209.753 61.7901 211.533 63.1005C213.322 64.4109 214.366 66.1953 214.665 68.4538ZM232.566 61.4545V66.5682H217.785V61.4545H232.566ZM221.141 55.5739H227.948V78.4574C227.948 79.0859 228.044 79.576 228.236 79.9276C228.428 80.2685 228.694 80.5082 229.035 80.6467C229.386 80.7852 229.791 80.8544 230.249 80.8544C230.569 80.8544 230.888 80.8278 231.208 80.7745C231.528 80.7106 231.773 80.6626 231.943 80.6307L233.014 85.6964C232.673 85.8029 232.194 85.9254 231.576 86.0639C230.958 86.2131 230.207 86.3036 229.322 86.3356C227.682 86.3995 226.244 86.1811 225.008 85.6804C223.783 85.1797 222.829 84.402 222.147 83.3473C221.466 82.2926 221.13 80.9609 221.141 79.3523V55.5739ZM237.001 86V61.4545H243.489V65.7852H243.776C244.288 64.3469 245.14 63.2124 246.333 62.3814C247.526 61.5504 248.954 61.1349 250.616 61.1349C252.299 61.1349 253.732 61.5558 254.915 62.3974C256.097 63.2283 256.885 64.3576 257.28 65.7852H257.535C258.036 64.3789 258.942 63.255 260.252 62.4134C261.573 61.5611 263.134 61.1349 264.934 61.1349C267.225 61.1349 269.084 61.8647 270.511 63.3242C271.949 64.7731 272.668 66.8292 272.668 69.4925V86H265.877V70.8349C265.877 69.4712 265.515 68.4485 264.79 67.7667C264.066 67.0849 263.16 66.744 262.074 66.744C260.838 66.744 259.874 67.1381 259.181 67.9265C258.489 68.7042 258.143 69.7322 258.143 71.0107V86H251.543V70.6911C251.543 69.4872 251.197 68.5284 250.504 67.8146C249.822 67.1009 248.922 66.744 247.803 66.744C247.047 66.744 246.365 66.9357 245.758 67.3192C245.161 67.6921 244.687 68.2195 244.336 68.9013C243.984 69.5724 243.808 70.3608 243.808 71.2663V86H237.001ZM285.045 86.4634C283.479 86.4634 282.083 86.1918 280.858 85.6484C279.633 85.0945 278.664 84.2795 277.95 83.2035C277.247 82.1168 276.895 80.7638 276.895 79.1445C276.895 77.7809 277.146 76.6357 277.646 75.7088C278.147 74.782 278.829 74.0362 279.692 73.4716C280.555 72.907 281.535 72.4808 282.632 72.1932C283.74 71.9055 284.901 71.7031 286.116 71.5859C287.543 71.4368 288.694 71.2983 289.567 71.1705C290.441 71.032 291.075 70.8295 291.469 70.5632C291.863 70.2969 292.06 69.9027 292.06 69.3807V69.2848C292.06 68.2727 291.741 67.4897 291.102 66.9357C290.473 66.3817 289.578 66.1048 288.417 66.1048C287.192 66.1048 286.217 66.3764 285.493 66.9197C284.768 67.4524 284.289 68.1236 284.054 68.9332L277.758 68.4219C278.078 66.9304 278.706 65.6413 279.644 64.5547C280.581 63.4574 281.79 62.6158 283.271 62.0298C284.763 61.4332 286.489 61.1349 288.449 61.1349C289.812 61.1349 291.118 61.2947 292.364 61.6143C293.621 61.9339 294.734 62.4293 295.704 63.1005C296.684 63.7717 297.456 64.6346 298.021 65.6893C298.586 66.7333 298.868 67.9851 298.868 69.4446V86H292.412V82.5962H292.22C291.826 83.3633 291.299 84.0398 290.638 84.6257C289.978 85.201 289.184 85.6538 288.257 85.984C287.33 86.3036 286.26 86.4634 285.045 86.4634ZM286.995 81.7653C287.996 81.7653 288.88 81.5682 289.647 81.174C290.414 80.7692 291.016 80.2259 291.453 79.544C291.89 78.8622 292.108 78.0898 292.108 77.2269V74.6222C291.895 74.7607 291.602 74.8885 291.229 75.0057C290.867 75.1122 290.457 75.2134 289.999 75.3093C289.541 75.3945 289.083 75.4744 288.625 75.549C288.167 75.6129 287.751 75.6715 287.378 75.7248C286.579 75.842 285.881 76.0284 285.285 76.2841C284.688 76.5398 284.225 76.886 283.895 77.3228C283.564 77.7489 283.399 78.2816 283.399 78.9208C283.399 79.8477 283.735 80.5561 284.406 81.0462C285.088 81.5256 285.951 81.7653 286.995 81.7653ZM310.957 71.8097V86H304.149V61.4545H310.637V65.7852H310.925C311.468 64.3576 312.379 63.2283 313.657 62.3974C314.936 61.5558 316.486 61.1349 318.308 61.1349C320.012 61.1349 321.498 61.5078 322.766 62.2536C324.034 62.9993 325.019 64.0646 325.722 65.4496C326.426 66.8239 326.777 68.4645 326.777 70.3714V86H319.97V71.5859C319.98 70.0838 319.597 68.9119 318.819 68.0703C318.041 67.218 316.971 66.7919 315.607 66.7919C314.691 66.7919 313.881 66.989 313.178 67.3832C312.486 67.7773 311.942 68.3526 311.548 69.109C311.165 69.8548 310.967 70.755 310.957 71.8097Z" fill="white"/>
</svg>
