<svg width="140" height="140" viewBox="0 0 140 140" fill="none" xmlns="http://www.w3.org/2000/svg">
<rect width="140" height="140" rx="20" fill="#FF6C37"/>
<path d="M92.962 47.5386L64.5003 76.2261L56.4573 67.9574C84.4697 39.9448 87.2815 42.4761 92.9641 47.5386H92.962Z" fill="white"/>
<path d="M64.5005 77.0106C64.2484 77.0044 64.0077 76.9043 63.8255 76.73L55.7255 68.63C55.5431 68.4412 55.4412 68.1891 55.4412 67.9266C55.4412 67.664 55.5431 67.4119 55.7255 67.2231C83.3436 39.605 87.113 40.898 93.6373 46.8043C93.7465 46.8918 93.8339 47.0035 93.8925 47.1305C93.951 47.2575 93.9793 47.3965 93.9748 47.5363C94.0169 47.8105 93.9115 48.091 93.6943 48.2683L65.2325 76.7322C65.0329 76.9151 64.7712 77.0154 64.5005 77.0127V77.0106ZM57.8623 67.955L64.5005 74.5932L91.5005 47.5933C90.5683 46.425 89.238 45.6413 87.7644 45.3922C86.2906 45.1432 84.7766 45.4462 83.5124 46.2433C78.6186 48.437 70.7442 55.13 57.8623 67.955Z" fill="#FF6C37"/>
<path d="M72.6573 84.1571L64.8948 76.2259L93.3566 48.0997C101.007 55.5816 89.6441 68.069 72.6573 84.155V84.1571Z" fill="white"/>
<path d="M72.6575 85.1696C72.4085 85.1498 72.1721 85.0516 71.9825 84.8891L64.0513 77.1267C63.9323 76.8382 63.9323 76.5143 64.0513 76.2259C63.9669 75.9892 63.9669 75.7306 64.0513 75.494L92.513 47.0322C92.7109 46.8463 92.9723 46.7428 93.2439 46.7428C93.5155 46.7428 93.7769 46.8463 93.9748 47.0322C94.8966 47.8806 95.6248 48.9175 96.11 50.0724C96.5952 51.2274 96.8259 52.4732 96.7866 53.7253C96.7866 61.319 88.1235 70.8807 73.3873 84.8321C73.1904 85.0269 72.9314 85.1464 72.6554 85.1696H72.6575ZM66.3568 76.2259L72.7123 82.5794C83.9616 71.9482 94.7068 60.9795 94.7616 53.5544C94.8228 51.9804 94.3025 50.4388 93.2998 49.2238L66.3568 76.2259Z" fill="#FF6C37"/>
<path d="M56.681 68.1259L62.3066 73.7516C62.3426 73.7832 62.3713 73.8223 62.391 73.8659C62.4107 73.9096 62.421 73.9569 62.421 74.0048C62.421 74.0527 62.4107 74.0999 62.391 74.1436C62.3713 74.1873 62.3426 74.2262 62.3066 74.2579L50.4372 76.7892C50.1977 76.8409 49.9477 76.8128 49.7255 76.7094C49.5033 76.6058 49.321 76.4326 49.2064 76.2161C49.0917 75.9994 49.051 75.7511 49.0904 75.5092C49.1299 75.2673 49.2473 75.045 49.4248 74.8759L56.3435 68.0141C56.3435 68.0141 56.5692 68.0141 56.681 68.1259Z" fill="white"/>
<path d="M50.1567 77.9135C49.7816 77.9087 49.414 77.808 49.0891 77.6208C48.7641 77.4335 48.4927 77.1661 48.3004 76.844C48.0841 76.436 48.0057 75.969 48.0767 75.5129C48.1479 75.0566 48.3647 74.6356 48.6949 74.3129L55.5566 67.394C55.804 67.1729 56.1244 67.0506 56.4562 67.0506C56.7882 67.0506 57.1084 67.1729 57.3559 67.394L62.9816 73.0197C63.3148 73.3361 63.4456 73.815 63.3191 74.2579C63.1925 74.7008 62.8213 75.0532 62.3636 75.1586L50.4942 77.6899L50.1567 77.9135ZM56.4573 69.3643L50.1019 75.7197L60.6212 73.4691L56.4573 69.3643Z" fill="#FF6C37"/>
<path d="M108.095 31.7309C104.024 27.8032 97.6282 27.6388 93.3588 31.345C89.0894 35.051 88.3594 41.4129 91.6838 45.9903C95.0084 50.5676 101.275 51.8501 106.127 48.9434L98.4762 41.2926L108.095 31.7309Z" fill="white"/>
<path d="M100.501 51.5294C98.1623 51.4994 95.8839 50.7819 93.9498 49.466C92.0159 48.1502 90.5119 46.2943 89.6252 44.1297C88.7392 41.9667 88.5069 39.5915 88.9567 37.2978C89.4066 35.004 90.5191 32.8926 92.1565 31.2245C94.4086 29.0139 97.4383 27.7754 100.594 27.7754C103.75 27.7754 106.78 29.0139 109.032 31.2245C109.247 31.406 109.369 31.6738 109.369 31.9565C109.369 32.0956 109.338 32.2329 109.28 32.3592C109.222 32.4854 109.137 32.5978 109.032 32.6885L99.9191 41.2947L106.838 48.1017C106.95 48.2088 107.034 48.3416 107.083 48.4888C107.132 48.6358 107.144 48.7926 107.118 48.9455C107.102 49.0929 107.053 49.2349 106.975 49.3614C106.898 49.4879 106.793 49.5958 106.669 49.6774C104.81 50.8393 102.674 51.4804 100.482 51.5337L100.501 51.5294ZM100.501 29.7037C96.4934 29.7248 92.9075 32.1358 91.4035 35.8209C89.8995 39.506 90.7179 43.7479 93.5277 46.5788C94.9252 47.9844 96.7147 48.9352 98.6616 49.3067C100.609 49.6782 102.623 49.4531 104.44 48.6607L97.8013 42.0225C97.6957 41.9381 97.6105 41.831 97.5519 41.7093C97.4935 41.5875 97.4631 41.4541 97.4631 41.319C97.4631 41.1838 97.4935 41.0505 97.5519 40.9287C97.6105 40.8069 97.6957 40.6999 97.8013 40.6155L106.576 31.7836C104.832 30.4467 102.699 29.7156 100.501 29.7016V29.7037Z" fill="#FF6C37"/>
<path d="M108.263 31.8995L98.6449 41.4613L106.295 49.1119C107.065 48.6699 107.782 48.1413 108.432 47.5363C110.437 45.4168 111.541 42.6012 111.509 39.6838C111.478 36.7663 110.314 33.9752 108.263 31.8995Z" fill="white"/>
<path d="M106.125 49.9559C105.998 49.9628 105.872 49.9411 105.755 49.8925C105.638 49.844 105.534 49.7698 105.45 49.6754L97.799 42.0246C97.6936 41.9403 97.6084 41.8332 97.5498 41.7114C97.4912 41.5896 97.4608 41.4563 97.4608 41.3211C97.4608 41.1861 97.4912 41.0528 97.5498 40.9308C97.6084 40.8091 97.6936 40.7022 97.799 40.6178L107.361 31.2247C107.453 31.0853 107.579 30.9711 107.726 30.8922C107.873 30.8132 108.037 30.7719 108.205 30.7719C108.372 30.7719 108.536 30.8132 108.683 30.8922C108.831 30.9711 108.956 31.0853 109.048 31.2247C110.171 32.3245 111.063 33.6373 111.671 35.0861C112.28 36.5349 112.594 38.0907 112.594 39.6621C112.594 41.2337 112.28 42.7894 111.671 44.2382C111.063 45.6871 110.171 46.9998 109.048 48.0997C108.386 48.802 107.629 49.4077 106.798 49.899C106.588 50.0044 106.347 50.0248 106.123 49.9559H106.125ZM99.938 41.2948L106.294 47.6504C106.731 47.3439 107.145 47.0055 107.532 46.6379C109.4 44.7746 110.452 42.2459 110.457 39.6073C110.462 37.246 109.601 34.9647 108.038 33.1949L99.938 41.2948Z" fill="#FF6C37"/>
<path d="M94.1436 48.7197C93.3816 48.0044 92.3759 47.6061 91.3307 47.6061C90.2855 47.6061 89.2797 48.0044 88.5178 48.7197L63.0386 74.1421L67.2574 78.4178L94.2005 54.7928C94.6113 54.399 94.9372 53.9251 95.1582 53.4006C95.3791 52.8762 95.4903 52.312 95.4849 51.7428C95.4797 51.1738 95.3579 50.6118 95.1272 50.0915C94.8965 49.5712 94.5617 49.1037 94.1436 48.7177V48.7197Z" fill="white"/>
<path d="M67.0317 79.4322C66.7796 79.426 66.5389 79.326 66.3567 79.1517L62.0811 74.8761C61.8987 74.6872 61.7967 74.435 61.7967 74.1726C61.7967 73.91 61.8987 73.6578 62.0811 73.4691L87.5623 48.0997C88.2963 47.3666 89.2334 46.8709 90.2526 46.677C91.2716 46.483 92.3254 46.5997 93.2773 47.0118C94.2292 47.4241 95.0352 48.1128 95.591 48.9887C96.1469 49.8644 96.4267 50.887 96.3942 51.9239C96.365 52.6276 96.1957 53.3186 95.8961 53.956C95.5966 54.5935 95.1728 55.1647 94.6498 55.6364L67.7067 79.2614C67.5108 79.4001 67.27 79.4603 67.0317 79.4302V79.4322ZM64.0513 74.1419L66.8629 77.0107L93.2998 54.0038C93.9538 53.4342 94.3439 52.6201 94.3693 51.7531C94.3945 50.8861 94.0528 50.0382 93.4137 49.4475C92.8235 48.8597 92.0245 48.5298 91.1915 48.5298C90.3585 48.5298 89.5595 48.8597 88.9692 49.4475L64.0513 74.1419Z" fill="#FF6C37"/>
<path d="M43.295 103.112C43.223 103.21 43.1843 103.328 43.1843 103.45C43.1843 103.571 43.223 103.689 43.295 103.787L44.4193 108.681C44.4644 108.969 44.4217 109.264 44.2967 109.527C44.1718 109.79 43.9705 110.01 43.719 110.158C43.4683 110.304 43.1777 110.367 42.8889 110.338C42.6 110.309 42.3278 110.189 42.1117 109.995L34.4061 102.57L58.4255 78.3607H66.7512L72.3768 83.9865C63.6013 91.6591 53.8164 98.0941 43.295 103.112Z" fill="white"/>
<path d="M42.7887 111.381C42.1516 111.368 41.5231 111.107 41.1012 110.649L33.7331 103.281C33.6277 103.196 33.5424 103.089 33.4839 102.968C33.4253 102.846 33.3949 102.712 33.3949 102.577C33.3949 102.442 33.4253 102.309 33.4839 102.187C33.5424 102.065 33.6277 101.958 33.7331 101.874L57.9192 77.6308C58.0546 77.4869 58.2316 77.3888 58.4255 77.3502H66.806C67.0244 77.273 67.2627 77.273 67.481 77.3502L73.1067 82.976C73.2137 83.0746 73.2951 83.1977 73.3439 83.3347C73.3928 83.4719 73.4077 83.6187 73.3873 83.7628C73.3912 83.9025 73.3628 84.0413 73.3042 84.1683C73.2458 84.2952 73.1586 84.407 73.0498 84.4948L72.6005 84.8891C63.7895 92.2347 54.0957 98.4513 43.7443 103.395L44.8137 107.951C44.8964 108.302 44.8995 108.668 44.8229 109.021C44.7464 109.374 44.5919 109.705 44.3711 109.991C44.1502 110.276 43.8683 110.509 43.5459 110.672C43.2237 110.834 42.8692 110.923 42.5082 110.932L42.7887 111.381ZM35.9269 102.549L42.563 109.242C42.6248 109.297 42.7047 109.328 42.7876 109.328C42.8705 109.328 42.9504 109.297 43.0123 109.242C43.0536 109.184 43.0759 109.115 43.0759 109.045C43.0759 108.974 43.0536 108.905 43.0123 108.847L41.888 103.954C41.7994 103.602 41.8349 103.231 41.9888 102.904C42.1426 102.575 42.405 102.311 42.7318 102.154C52.8049 97.2769 62.2487 91.1947 70.856 84.0412L66.2429 79.428H58.706L35.9269 102.549Z" fill="#FF6C37"/>
<path d="M28.6137 108.343L34.2394 102.718L42.9027 111.381L29.122 110.425C28.8855 110.407 28.6607 110.314 28.4801 110.16C28.2993 110.006 28.1717 109.799 28.1157 109.569C28.0596 109.338 28.0776 109.096 28.1674 108.876C28.2573 108.656 28.4142 108.471 28.6159 108.345L28.6137 108.343Z" fill="white"/>
<path d="M43.0691 112.225L29.3435 111.269C28.5294 111.193 27.829 110.636 27.5421 109.892C27.2552 109.147 27.4303 108.263 27.9935 107.668L33.6192 102.043C33.808 101.86 34.0602 101.758 34.3227 101.758C34.5851 101.758 34.8374 101.86 35.0262 102.043L43.6323 110.649C43.7515 110.812 43.8157 111.009 43.8157 111.211C43.8157 111.413 43.7515 111.61 43.6323 111.773C43.5022 111.984 43.3032 112.142 43.0691 112.223V112.225ZM29.3435 109.075L40.5928 109.807L34.406 104.013L29.3435 109.075Z" fill="#FF6C37"/>
<path d="M67.5378 79.0399L56.1748 80.7844L62.7559 74.2601L67.5378 79.0399Z" fill="white"/>
<path d="M56.1748 81.8495C55.9859 81.8545 55.7997 81.8038 55.6396 81.7036C55.4794 81.6035 55.3523 81.4583 55.274 81.2865C55.1543 81.1235 55.0898 80.9265 55.0898 80.7243C55.0898 80.5219 55.1543 80.3251 55.274 80.162L61.7982 73.5807C61.9961 73.3948 62.2576 73.2913 62.5291 73.2913C62.8008 73.2913 63.0621 73.3948 63.26 73.5807L68.0441 78.3607C68.1396 78.5122 68.1903 78.6878 68.1903 78.867C68.1903 79.0461 68.1396 79.2216 68.0441 79.3732C67.9971 79.5579 67.898 79.7252 67.7584 79.855C67.6189 79.9848 67.4449 80.0717 67.2573 80.1052L56.0082 81.8495H56.1748ZM62.7559 75.7177L59.1004 79.3732L65.401 78.4177L62.7559 75.7177Z" fill="#FF6C37"/>
<path d="M67.5379 79.0359L59.6068 80.0484C59.3945 80.0966 59.1723 80.0751 58.9733 79.9871C58.7742 79.8991 58.6088 79.7492 58.5016 79.5599C58.3943 79.3705 58.351 79.1516 58.378 78.9356C58.4048 78.7196 58.5007 78.5181 58.6512 78.3609L62.7581 74.2539L67.5379 79.0359Z" fill="white"/>
<path d="M59.381 81.1199C59.0134 81.1162 58.6532 81.0155 58.3372 80.8276C58.0212 80.6398 57.7605 80.3716 57.5817 80.0504C57.367 79.6654 57.2837 79.2207 57.3445 78.7839C57.4054 78.3474 57.6073 77.9423 57.9192 77.6308L62.0262 73.5239C62.2242 73.338 62.4855 73.2345 62.7571 73.2345C63.0286 73.2345 63.2901 73.338 63.488 73.5239L68.2699 78.3059C68.4122 78.4406 68.5122 78.6137 68.558 78.8042C68.6038 78.9947 68.5934 79.1943 68.5279 79.379C68.4626 79.5637 68.345 79.7254 68.1895 79.8445C68.0339 79.9637 67.8472 80.0351 67.6519 80.0504L59.7777 81.0629L59.381 81.1199ZM59.381 79.0379L65.3443 78.3059L62.7013 75.6629L59.3262 79.0379H59.381ZM108.319 38.3691C108.213 38.1915 108.045 38.0591 107.848 37.9969C107.651 37.9346 107.438 37.9471 107.249 38.0316C107.156 38.0787 107.073 38.1442 107.006 38.2238C106.938 38.3035 106.888 38.3959 106.857 38.4956C106.794 38.6967 106.814 38.9145 106.912 39.101C107.306 39.9299 107.196 40.9109 106.631 41.6322C106.561 41.7017 106.506 41.785 106.469 41.8769C106.433 41.9687 106.416 42.0671 106.42 42.166C106.422 42.3637 106.497 42.5538 106.631 42.6996C106.775 42.7566 106.936 42.7566 107.08 42.6996C107.211 42.7324 107.349 42.7289 107.478 42.6891C107.607 42.6493 107.723 42.5749 107.812 42.4739C108.275 41.9068 108.569 41.2202 108.658 40.4934C108.748 39.7667 108.63 39.0295 108.319 38.3669V38.3691Z" fill="#FF6C37"/>
</svg>
