<svg width="400" height="140" viewBox="0 0 400 140" fill="none" xmlns="http://www.w3.org/2000/svg">
<rect width="400.001" height="140" rx="20" fill="#FF6C37"/>
<path d="M140.924 28.7434C132.764 18.1765 121.653 10.2668 108.997 6.01474C96.3415 1.7627 82.709 1.3593 69.8238 4.85556C56.9386 8.3518 45.3797 15.5907 36.6088 25.6566C27.838 35.7226 22.2492 48.1635 20.5494 61.4059C18.8495 74.6484 21.1149 88.0975 27.0591 100.052C33.0032 112.007 42.3592 121.931 53.9435 128.568C65.5279 135.205 78.8204 138.258 92.1399 137.34C105.459 136.423 118.208 131.576 128.772 123.412C158.261 100.623 163.703 58.2431 140.922 28.7434H140.924Z" fill="#FF6C37"/>
<path d="M110.266 45.509L81.8046 74.1964L73.7616 65.9277C101.774 37.9151 104.586 40.4464 110.268 45.509H110.266Z" fill="white"/>
<path d="M81.8049 74.9809C81.5527 74.9747 81.312 74.8747 81.1299 74.7004L73.0298 66.6003C72.8474 66.4116 72.7455 66.1594 72.7455 65.897C72.7455 65.6344 72.8474 65.3822 73.0298 65.1935C100.648 37.5753 104.417 38.8684 110.942 44.7747C111.051 44.8622 111.138 44.9738 111.197 45.1008C111.255 45.2279 111.284 45.3668 111.279 45.5067C111.321 45.7808 111.216 46.0614 110.999 46.2386L82.5369 74.7025C82.3372 74.8855 82.0756 74.9858 81.8049 74.9831V74.9809ZM75.1666 65.9253L81.8049 72.5636L108.805 45.5636C107.873 44.3953 106.542 43.6116 105.069 43.3626C103.595 43.1135 102.081 43.4166 100.817 44.2136C95.9229 46.4074 88.0485 53.1003 75.1666 65.9253Z" fill="#FF6C37"/>
<path d="M89.9617 82.1275L82.1991 74.1963L110.661 46.07C118.312 53.5519 106.948 66.0394 89.9617 82.1253V82.1275Z" fill="white"/>
<path d="M89.9618 83.14C89.7128 83.1201 89.4765 83.022 89.2868 82.8595L81.3556 75.097C81.2367 74.8085 81.2367 74.4847 81.3556 74.1963C81.2712 73.9595 81.2712 73.701 81.3556 73.4643L109.817 45.0026C110.015 44.8167 110.277 44.7131 110.548 44.7131C110.82 44.7131 111.081 44.8167 111.279 45.0026C112.201 45.8509 112.929 46.8879 113.414 48.0428C113.9 49.1977 114.13 50.4435 114.091 51.6957C114.091 59.2893 105.428 68.8511 90.6916 82.8025C90.4948 82.9973 90.2357 83.1168 89.9598 83.14H89.9618ZM83.6611 74.1963L90.0166 80.5497C101.266 69.9185 112.011 58.9498 112.066 51.5247C112.127 49.9508 111.607 48.4092 110.604 47.1942L83.6611 74.1963Z" fill="#FF6C37"/>
<path d="M73.9853 66.0962L79.611 71.722C79.6469 71.7536 79.6756 71.7926 79.6954 71.8362C79.7151 71.8799 79.7253 71.9272 79.7253 71.9751C79.7253 72.023 79.7151 72.0703 79.6954 72.1139C79.6756 72.1576 79.6469 72.1965 79.611 72.2282L67.7415 74.7595C67.502 74.8112 67.252 74.7831 67.0298 74.6797C66.8076 74.5762 66.6253 74.403 66.5107 74.1864C66.396 73.9698 66.3553 73.7215 66.3948 73.4796C66.4342 73.2377 66.5516 73.0153 66.7292 72.8463L73.6478 65.9844C73.6478 65.9844 73.8736 65.9844 73.9853 66.0962Z" fill="white"/>
<path d="M67.461 75.8838C67.086 75.8791 66.7184 75.7784 66.3934 75.5911C66.0685 75.4039 65.797 75.1364 65.6047 74.8143C65.3885 74.4064 65.31 73.9394 65.381 73.4832C65.4522 73.0269 65.669 72.606 65.9992 72.2832L72.8609 65.3644C73.1084 65.1433 73.4287 65.0209 73.7606 65.0209C74.0925 65.0209 74.4128 65.1433 74.6602 65.3644L80.286 70.99C80.6192 71.3065 80.75 71.7853 80.6235 72.2282C80.4968 72.6712 80.1256 73.0235 79.6679 73.129L67.7985 75.6602L67.461 75.8838ZM73.7616 67.3346L67.4062 73.69L77.9255 71.4394L73.7616 67.3346Z" fill="#FF6C37"/>
<path d="M125.399 29.7013C121.328 25.7735 114.933 25.6091 110.663 29.3153C106.394 33.0213 105.664 39.3833 108.988 43.9606C112.313 48.538 118.58 49.8205 123.431 46.9138L115.78 39.263L125.399 29.7013Z" fill="white"/>
<path d="M117.806 49.4997C115.467 49.4698 113.188 48.7522 111.254 47.4364C109.32 46.1205 107.816 44.2646 106.93 42.1C106.044 39.9371 105.811 37.5618 106.261 35.2682C106.711 32.9744 107.823 30.8629 109.461 29.1949C111.713 26.9842 114.743 25.7457 117.898 25.7457C121.054 25.7457 124.084 26.9842 126.336 29.1949C126.551 29.3763 126.673 29.6442 126.673 29.9269C126.673 30.0659 126.643 30.2032 126.584 30.3296C126.526 30.4558 126.441 30.5681 126.336 30.6588L117.223 39.265L124.142 46.072C124.254 46.1791 124.338 46.3119 124.387 46.4591C124.436 46.6061 124.449 46.763 124.423 46.9158C124.406 47.0632 124.357 47.2052 124.28 47.3317C124.202 47.4582 124.098 47.5661 123.973 47.6478C122.115 48.8096 119.978 49.4507 117.787 49.504L117.806 49.4997ZM117.806 27.6741C113.798 27.6951 110.212 30.1061 108.708 33.7913C107.204 37.4764 108.022 41.7183 110.832 44.5491C112.23 45.9547 114.019 46.9055 115.966 47.2771C117.913 47.6486 119.927 47.4234 121.744 46.6311L115.106 39.9928C115 39.9084 114.915 39.8014 114.856 39.6796C114.798 39.5578 114.767 39.4245 114.767 39.2893C114.767 39.1542 114.798 39.0208 114.856 38.899C114.915 38.7773 115 38.6702 115.106 38.5858L123.881 29.7539C122.136 28.417 120.003 27.686 117.806 27.6719V27.6741Z" fill="#FF6C37"/>
<path d="M125.568 29.8699L115.949 39.4316L123.6 47.0823C124.37 46.6403 125.087 46.1116 125.737 45.5067C127.742 43.3871 128.845 40.5716 128.813 37.6542C128.782 34.7367 127.618 31.9455 125.568 29.8699Z" fill="white"/>
<path d="M123.429 47.9263C123.303 47.9332 123.176 47.9114 123.06 47.8628C122.943 47.8144 122.838 47.7401 122.754 47.6458L115.103 39.995C114.998 39.9106 114.913 39.8035 114.854 39.6818C114.796 39.56 114.765 39.4266 114.765 39.2915C114.765 39.1565 114.796 39.0231 114.854 38.9012C114.913 38.7794 114.998 38.6725 115.103 38.5881L124.665 29.195C124.758 29.0557 124.883 28.9415 125.03 28.8625C125.177 28.7835 125.342 28.7422 125.509 28.7422C125.676 28.7422 125.841 28.7835 125.988 28.8625C126.135 28.9415 126.26 29.0557 126.353 29.195C127.475 30.2949 128.367 31.6076 128.976 33.0564C129.584 34.5053 129.898 36.061 129.898 37.6324C129.898 39.204 129.584 40.7597 128.976 42.2086C128.367 43.6574 127.475 44.9702 126.353 46.07C125.691 46.7723 124.933 47.378 124.102 47.8693C123.893 47.9748 123.651 47.9951 123.427 47.9263H123.429ZM117.242 39.2652L123.598 45.6207C124.035 45.3143 124.449 44.9758 124.836 44.6082C126.704 42.7449 127.757 40.2162 127.762 37.5776C127.766 35.2163 126.905 32.9351 125.342 31.1652L117.242 39.2652Z" fill="#FF6C37"/>
<path d="M111.448 46.6901C110.686 45.9747 109.68 45.5765 108.635 45.5765C107.59 45.5765 106.584 45.9747 105.822 46.6901L80.343 72.1124L84.5617 76.3882L111.505 52.7631C111.916 52.3693 112.242 51.8955 112.463 51.371C112.683 50.8465 112.795 50.2823 112.789 49.7132C112.784 49.1441 112.662 48.5821 112.432 48.0618C112.201 47.5415 111.866 47.074 111.448 46.6881V46.6901Z" fill="white"/>
<path d="M84.336 77.4026C84.084 77.3964 83.8433 77.2963 83.661 77.122L79.3854 72.8464C79.203 72.6576 79.1011 72.4054 79.1011 72.1429C79.1011 71.8803 79.203 71.6282 79.3854 71.4394L104.867 46.07C105.601 45.337 106.538 44.8412 107.557 44.6474C108.576 44.4534 109.63 44.57 110.582 44.9822C111.533 45.3945 112.34 46.0831 112.895 46.959C113.451 47.8348 113.731 48.8574 113.699 49.8942C113.669 50.598 113.5 51.2889 113.2 51.9264C112.901 52.5638 112.477 53.135 111.954 53.6067L85.011 77.2318C84.8151 77.3704 84.5743 77.4307 84.336 77.4005V77.4026ZM81.3556 72.1123L84.1673 74.9811L110.604 51.9742C111.258 51.4046 111.648 50.5904 111.674 49.7234C111.699 48.8564 111.357 48.0085 110.718 47.4179C110.128 46.8301 109.329 46.5001 108.496 46.5001C107.663 46.5001 106.864 46.8301 106.274 47.4179L81.3556 72.1123Z" fill="#FF6C37"/>
<path d="M60.5993 101.082C60.5273 101.18 60.4886 101.299 60.4886 101.42C60.4886 101.541 60.5273 101.66 60.5993 101.757L61.7236 106.651C61.7687 106.939 61.726 107.234 61.601 107.497C61.4761 107.761 61.2748 107.98 61.0233 108.128C60.7726 108.274 60.482 108.338 60.1932 108.309C59.9043 108.279 59.6322 108.159 59.416 107.965L51.7104 100.54L75.7298 76.3311H84.0555L89.6811 81.9568C80.9056 89.6295 71.1208 96.0645 60.5993 101.082Z" fill="white"/>
<path d="M60.093 109.351C59.456 109.338 58.8274 109.077 58.4055 108.619L51.0374 101.251C50.932 101.167 50.8467 101.06 50.7882 100.938C50.7296 100.816 50.6993 100.683 50.6993 100.548C50.6993 100.413 50.7296 100.279 50.7882 100.157C50.8467 100.036 50.932 99.9286 51.0374 99.8442L75.2236 75.6011C75.359 75.4572 75.536 75.3592 75.7298 75.3206H84.1103C84.3287 75.2434 84.567 75.2434 84.7853 75.3206L90.4111 80.9464C90.518 81.0449 90.5994 81.168 90.6483 81.3051C90.6971 81.4422 90.712 81.5891 90.6916 81.7331C90.6955 81.8729 90.6672 82.0116 90.6086 82.1387C90.5501 82.2656 90.4629 82.3774 90.3541 82.4651L89.9048 82.8595C81.0938 90.205 71.4001 96.4217 61.0486 101.365L62.1181 105.921C62.2007 106.273 62.2038 106.638 62.1272 106.991C62.0507 107.344 61.8963 107.675 61.6754 107.961C61.4545 108.247 61.1727 108.479 60.8503 108.642C60.528 108.805 60.1735 108.893 59.8125 108.902L60.093 109.351ZM53.2312 100.519L59.8673 107.212C59.9292 107.267 60.0091 107.298 60.092 107.298C60.1749 107.298 60.2548 107.267 60.3166 107.212C60.3579 107.155 60.3802 107.086 60.3802 107.015C60.3802 106.944 60.3579 106.875 60.3166 106.818L59.1923 101.924C59.1038 101.573 59.1393 101.202 59.2932 100.874C59.4469 100.546 59.7094 100.281 60.0361 100.125C70.1092 95.2473 79.5531 89.1651 88.1603 82.0115L83.5472 77.3984H76.0104L53.2312 100.519Z" fill="#FF6C37"/>
<path d="M45.9181 106.314L51.5437 100.688L60.207 109.351L46.4263 108.396C46.1898 108.377 45.965 108.284 45.7844 108.13C45.6036 107.977 45.4761 107.77 45.42 107.539C45.3639 107.308 45.382 107.066 45.4717 106.846C45.5617 106.627 45.7185 106.441 45.9202 106.316L45.9181 106.314Z" fill="white"/>
<path d="M60.3734 110.195L46.6479 109.239C45.8337 109.163 45.1333 108.607 44.8464 107.862C44.5595 107.117 44.7346 106.234 45.2979 105.639L50.9235 100.013C51.1124 99.8306 51.3645 99.7287 51.627 99.7287C51.8894 99.7287 52.1418 99.8306 52.3305 100.013L60.9367 108.619C61.0559 108.783 61.12 108.979 61.12 109.181C61.12 109.384 61.0559 109.58 60.9367 109.744C60.8065 109.954 60.6075 110.113 60.3734 110.193V110.195ZM46.6479 107.046L57.8971 107.778L51.7103 101.983L46.6479 107.046Z" fill="#FF6C37"/>
<path d="M84.8421 77.0103L73.4791 78.7547L80.0603 72.2304L84.8421 77.0103Z" fill="white"/>
<path d="M73.4791 79.8199C73.2902 79.8249 73.1041 79.7741 72.9439 79.674C72.7837 79.5738 72.6567 79.4287 72.5784 79.2568C72.4586 79.0939 72.3941 78.8969 72.3941 78.6947C72.3941 78.4923 72.4586 78.2955 72.5784 78.1324L79.1026 71.5511C79.3005 71.3652 79.562 71.2616 79.8335 71.2616C80.1051 71.2616 80.3664 71.3652 80.5644 71.5511L85.3484 76.3311C85.444 76.4825 85.4946 76.6582 85.4946 76.8373C85.4946 77.0165 85.444 77.192 85.3484 77.3436C85.3014 77.5283 85.2023 77.6955 85.0627 77.8254C84.9233 77.9551 84.7493 78.0421 84.5616 78.0756L73.3125 79.8199H73.4791ZM80.0603 73.688L76.4047 77.3436L82.7053 76.388L80.0603 73.688Z" fill="#FF6C37"/>
<path d="M84.8423 77.0062L76.9111 78.0187C76.6989 78.0669 76.4767 78.0455 76.2777 77.9574C76.0785 77.8694 75.9132 77.7196 75.806 77.5303C75.6986 77.3409 75.6553 77.1219 75.6823 76.9059C75.7092 76.6899 75.805 76.4885 75.9556 76.3312L80.0624 72.2242L84.8423 77.0062Z" fill="white"/>
<path d="M76.6854 79.0902C76.3178 79.0866 75.9576 78.9859 75.6415 78.7979C75.3255 78.6102 75.0648 78.3419 74.8861 78.0207C74.6713 77.6357 74.588 77.191 74.6489 76.7543C74.7098 76.3177 74.9116 75.9127 75.2236 75.6011L79.3306 71.4942C79.5285 71.3084 79.7899 71.2048 80.0615 71.2048C80.333 71.2048 80.5945 71.3084 80.7924 71.4942L85.5742 76.2763C85.7165 76.411 85.8166 76.5841 85.8623 76.7745C85.9081 76.965 85.8977 77.1647 85.8322 77.3494C85.7669 77.5341 85.6493 77.6958 85.4938 77.8149C85.3383 77.9341 85.1516 78.0055 84.9562 78.0207L77.082 79.0333L76.6854 79.0902ZM76.6854 77.0082L82.6486 76.2763L80.0056 73.6332L76.6306 77.0082H76.6854ZM125.623 36.3394C125.517 36.1619 125.35 36.0294 125.152 35.9672C124.955 35.905 124.742 35.9174 124.553 36.0019C124.46 36.049 124.378 36.1145 124.31 36.1941C124.243 36.2738 124.192 36.3663 124.161 36.4659C124.098 36.6671 124.118 36.8848 124.216 37.0714C124.61 37.9003 124.501 38.8812 123.935 39.6025C123.865 39.672 123.81 39.7553 123.774 39.8473C123.737 39.9391 123.721 40.0375 123.724 40.1363C123.727 40.3341 123.802 40.5242 123.935 40.67C124.08 40.7269 124.24 40.7269 124.385 40.67C124.516 40.7028 124.653 40.6993 124.782 40.6594C124.911 40.6196 125.027 40.5452 125.117 40.4442C125.58 39.8771 125.873 39.1905 125.963 38.4638C126.052 37.7371 125.934 36.9998 125.623 36.3372V36.3394Z" fill="#FF6C37"/>
<path d="M187.846 86V53.2727H200.758C203.24 53.2727 205.354 53.7468 207.102 54.695C208.849 55.6325 210.18 56.9375 211.097 58.6101C212.024 60.272 212.487 62.1896 212.487 64.3629C212.487 66.5362 212.018 68.4538 211.081 70.1158C210.143 71.7777 208.785 73.0721 207.006 73.9989C205.237 74.9258 203.096 75.3892 200.582 75.3892H192.352V69.8441H199.463C200.795 69.8441 201.892 69.6151 202.755 69.157C203.629 68.6882 204.279 68.0437 204.705 67.2234C205.141 66.3924 205.36 65.4389 205.36 64.3629C205.36 63.2763 205.141 62.3281 204.705 61.5185C204.279 60.6982 203.629 60.0643 202.755 59.6168C201.881 59.1587 200.774 58.9297 199.431 58.9297H194.765V86H187.846ZM227.548 86.4794C225.066 86.4794 222.919 85.9521 221.108 84.8974C219.308 83.832 217.918 82.3512 216.937 80.4549C215.957 78.5479 215.467 76.3374 215.467 73.8232C215.467 71.2876 215.957 69.0717 216.937 67.1754C217.918 65.2685 219.308 63.7876 221.108 62.733C222.919 61.6676 225.066 61.1349 227.548 61.1349C230.03 61.1349 232.172 61.6676 233.972 62.733C235.783 63.7876 237.179 65.2685 238.159 67.1754C239.139 69.0717 239.629 71.2876 239.629 73.8232C239.629 76.3374 239.139 78.5479 238.159 80.4549C237.179 82.3512 235.783 83.832 233.972 84.8974C232.172 85.9521 230.03 86.4794 227.548 86.4794ZM227.58 81.206C228.709 81.206 229.652 80.8864 230.409 80.2472C231.165 79.5973 231.735 78.7131 232.119 77.5945C232.513 76.4759 232.71 75.2028 232.71 73.7752C232.71 72.3477 232.513 71.0746 232.119 69.956C231.735 68.8374 231.165 67.9531 230.409 67.3033C229.652 66.6534 228.709 66.3285 227.58 66.3285C226.44 66.3285 225.481 66.6534 224.704 67.3033C223.937 67.9531 223.356 68.8374 222.962 69.956C222.578 71.0746 222.387 72.3477 222.387 73.7752C222.387 75.2028 222.578 76.4759 222.962 77.5945C223.356 78.7131 223.937 79.5973 224.704 80.2472C225.481 80.8864 226.44 81.206 227.58 81.206ZM264.478 68.4538L258.246 68.8374C258.139 68.3047 257.91 67.8253 257.559 67.3991C257.207 66.9624 256.744 66.6161 256.169 66.3604C255.604 66.0941 254.927 65.9609 254.139 65.9609C253.084 65.9609 252.195 66.1847 251.47 66.6321C250.746 67.0689 250.384 67.6548 250.384 68.3899C250.384 68.9759 250.618 69.4712 251.087 69.8761C251.556 70.2809 252.36 70.6058 253.5 70.8509L257.942 71.7457C260.329 72.2358 262.108 73.0241 263.28 74.1108C264.452 75.1974 265.038 76.625 265.038 78.3935C265.038 80.0021 264.563 81.4137 263.615 82.6282C262.678 83.8427 261.389 84.7908 259.748 85.4727C258.118 86.1438 256.238 86.4794 254.107 86.4794C250.858 86.4794 248.269 85.8029 246.341 84.4499C244.423 83.0863 243.299 81.2326 242.969 78.8888L249.665 78.5373C249.867 79.5281 250.357 80.2844 251.135 80.8065C251.913 81.3178 252.909 81.5735 254.123 81.5735C255.316 81.5735 256.275 81.3445 257 80.8864C257.735 80.4176 258.108 79.8157 258.118 79.0806C258.108 78.4627 257.847 77.9567 257.335 77.5625C256.824 77.1577 256.035 76.8487 254.97 76.6357L250.719 75.7887C248.322 75.3093 246.538 74.4783 245.366 73.2958C244.205 72.1133 243.624 70.6058 243.624 68.7734C243.624 67.1967 244.05 65.8384 244.903 64.6985C245.766 63.5586 246.975 62.6797 248.53 62.0618C250.096 61.4439 251.929 61.1349 254.027 61.1349C257.127 61.1349 259.567 61.7901 261.346 63.1005C263.136 64.4109 264.18 66.1953 264.478 68.4538ZM282.38 61.4545V66.5682H267.598V61.4545H282.38ZM270.954 55.5739H277.762V78.4574C277.762 79.0859 277.858 79.576 278.049 79.9276C278.241 80.2685 278.507 80.5082 278.848 80.6467C279.2 80.7852 279.605 80.8544 280.063 80.8544C280.382 80.8544 280.702 80.8278 281.022 80.7745C281.341 80.7106 281.586 80.6626 281.757 80.6307L282.827 85.6964C282.487 85.8029 282.007 85.9254 281.389 86.0639C280.771 86.2131 280.02 86.3036 279.136 86.3356C277.495 86.3995 276.057 86.1811 274.821 85.6804C273.596 85.1797 272.643 84.402 271.961 83.3473C271.279 82.2926 270.944 80.9609 270.954 79.3523V55.5739ZM286.814 86V61.4545H293.302V65.7852H293.59C294.101 64.3469 294.954 63.2124 296.147 62.3814C297.34 61.5504 298.768 61.1349 300.43 61.1349C302.113 61.1349 303.546 61.5558 304.728 62.3974C305.911 63.2283 306.699 64.3576 307.093 65.7852H307.349C307.85 64.3789 308.755 63.255 310.066 62.4134C311.387 61.5611 312.947 61.1349 314.748 61.1349C317.038 61.1349 318.897 61.8647 320.325 63.3242C321.763 64.7731 322.482 66.8292 322.482 69.4925V86H315.691V70.8349C315.691 69.4712 315.328 68.4485 314.604 67.7667C313.879 67.0849 312.974 66.744 311.887 66.744C310.651 66.744 309.687 67.1381 308.995 67.9265C308.302 68.7042 307.956 69.7322 307.956 71.0107V86H301.356V70.6911C301.356 69.4872 301.01 68.5284 300.318 67.8146C299.636 67.1009 298.736 66.744 297.617 66.744C296.861 66.744 296.179 66.9357 295.572 67.3192C294.975 67.6921 294.501 68.2195 294.149 68.9013C293.798 69.5724 293.622 70.3608 293.622 71.2663V86H286.814ZM334.859 86.4634C333.293 86.4634 331.897 86.1918 330.672 85.6484C329.447 85.0945 328.477 84.2795 327.763 83.2035C327.06 82.1168 326.709 80.7638 326.709 79.1445C326.709 77.7809 326.959 76.6357 327.46 75.7088C327.961 74.782 328.642 74.0362 329.505 73.4716C330.368 72.907 331.348 72.4808 332.446 72.1932C333.554 71.9055 334.715 71.7031 335.929 71.5859C337.357 71.4368 338.507 71.2983 339.381 71.1705C340.255 71.032 340.889 70.8295 341.283 70.5632C341.677 70.2969 341.874 69.9027 341.874 69.3807V69.2848C341.874 68.2727 341.554 67.4897 340.915 66.9357C340.287 66.3817 339.392 66.1048 338.23 66.1048C337.005 66.1048 336.031 66.3764 335.306 66.9197C334.582 67.4524 334.102 68.1236 333.868 68.9332L327.572 68.4219C327.891 66.9304 328.52 65.6413 329.457 64.5547C330.395 63.4574 331.604 62.6158 333.085 62.0298C334.576 61.4332 336.302 61.1349 338.262 61.1349C339.626 61.1349 340.931 61.2947 342.178 61.6143C343.435 61.9339 344.548 62.4293 345.517 63.1005C346.498 63.7717 347.27 64.6346 347.835 65.6893C348.399 66.7333 348.681 67.9851 348.681 69.4446V86H342.226V82.5962H342.034C341.64 83.3633 341.112 84.0398 340.452 84.6257C339.791 85.201 338.998 85.6538 338.071 85.984C337.144 86.3036 336.073 86.4634 334.859 86.4634ZM336.808 81.7653C337.81 81.7653 338.694 81.5682 339.461 81.174C340.228 80.7692 340.83 80.2259 341.267 79.544C341.703 78.8622 341.922 78.0898 341.922 77.2269V74.6222C341.709 74.7607 341.416 74.8885 341.043 75.0057C340.681 75.1122 340.271 75.2134 339.813 75.3093C339.354 75.3945 338.896 75.4744 338.438 75.549C337.98 75.6129 337.565 75.6715 337.192 75.7248C336.393 75.842 335.695 76.0284 335.098 76.2841C334.502 76.5398 334.038 76.886 333.708 77.3228C333.378 77.7489 333.213 78.2816 333.213 78.9208C333.213 79.8477 333.548 80.5561 334.219 81.0462C334.901 81.5256 335.764 81.7653 336.808 81.7653ZM360.77 71.8097V86H353.963V61.4545H360.451V65.7852H360.738C361.282 64.3576 362.193 63.2283 363.471 62.3974C364.749 61.5558 366.3 61.1349 368.121 61.1349C369.826 61.1349 371.312 61.5078 372.58 62.2536C373.847 62.9993 374.833 64.0646 375.536 65.4496C376.239 66.8239 376.591 68.4645 376.591 70.3714V86H369.783V71.5859C369.794 70.0838 369.41 68.9119 368.633 68.0703C367.855 67.218 366.784 66.7919 365.421 66.7919C364.504 66.7919 363.695 66.989 362.992 67.3832C362.299 67.7773 361.756 68.3526 361.362 69.109C360.978 69.8548 360.781 70.755 360.77 71.8097Z" fill="white"/>
</svg>
