<svg width="140" height="140" viewBox="0 0 140 140" fill="none" xmlns="http://www.w3.org/2000/svg">
<rect width="140" height="140" rx="20" fill="#FF6C37"/>
<path d="M123.424 28.7434C115.263 18.1765 104.153 10.2668 91.4969 6.01474C78.8409 1.7627 65.2084 1.3593 52.3232 4.85556C39.438 8.3518 27.8791 15.5907 19.1082 25.6566C10.3374 35.7226 4.74863 48.1635 3.04878 61.4059C1.34892 74.6484 3.61432 88.0975 9.55847 100.052C15.5026 112.007 24.8586 121.931 36.4429 128.568C48.0273 135.205 61.3198 138.258 74.6393 137.34C87.9588 136.423 100.707 131.576 111.272 123.412C140.761 100.623 146.203 58.2431 123.422 28.7434H123.424Z" fill="#FF6C37"/>
<path d="M92.7658 45.509L64.304 74.1964L56.261 65.9277C84.2734 37.9151 87.0852 40.4464 92.7678 45.509H92.7658Z" fill="white"/>
<path d="M64.3043 74.9809C64.0521 74.9747 63.8114 74.8747 63.6293 74.7004L55.5292 66.6003C55.3468 66.4116 55.2449 66.1594 55.2449 65.897C55.2449 65.6344 55.3468 65.3822 55.5292 65.1935C83.1473 37.5753 86.9167 38.8684 93.441 44.7747C93.5502 44.8622 93.6376 44.9738 93.6962 45.1008C93.7548 45.2279 93.783 45.3668 93.7785 45.5067C93.8207 45.7808 93.7152 46.0614 93.498 46.2386L65.0362 74.7025C64.8366 74.8855 64.5749 74.9858 64.3043 74.9831V74.9809ZM57.666 65.9253L64.3043 72.5636L91.3042 45.5636C90.372 44.3953 89.0417 43.6116 87.5681 43.3626C86.0943 43.1135 84.5804 43.4166 83.3161 44.2136C78.4223 46.4074 70.5479 53.1003 57.666 65.9253Z" fill="#FF6C37"/>
<path d="M72.461 82.1275L64.6985 74.1963L93.1604 46.07C100.811 53.5519 89.4478 66.0394 72.461 82.1253V82.1275Z" fill="white"/>
<path d="M72.4612 83.14C72.2122 83.1201 71.9758 83.022 71.7862 82.8595L63.855 75.097C63.7361 74.8085 63.7361 74.4847 63.855 74.1963C63.7706 73.9595 63.7706 73.701 63.855 73.4643L92.3167 45.0026C92.5147 44.8167 92.776 44.7131 93.0476 44.7131C93.3193 44.7131 93.5806 44.8167 93.7785 45.0026C94.7003 45.8509 95.4285 46.8879 95.9137 48.0428C96.3989 49.1977 96.6296 50.4435 96.5903 51.6957C96.5903 59.2893 87.9272 68.8511 73.191 82.8025C72.9942 82.9973 72.7351 83.1168 72.4592 83.14H72.4612ZM66.1605 74.1963L72.516 80.5497C83.7654 69.9185 94.5105 58.9498 94.5653 51.5247C94.6265 49.9508 94.1062 48.4092 93.1035 47.1942L66.1605 74.1963Z" fill="#FF6C37"/>
<path d="M56.4847 66.0962L62.1104 71.722C62.1463 71.7536 62.175 71.7926 62.1947 71.8362C62.2145 71.8799 62.2247 71.9272 62.2247 71.9751C62.2247 72.023 62.2145 72.0703 62.1947 72.1139C62.175 72.1576 62.1463 72.1965 62.1104 72.2282L50.2409 74.7595C50.0014 74.8112 49.7514 74.7831 49.5292 74.6797C49.307 74.5762 49.1247 74.403 49.0101 74.1864C48.8954 73.9698 48.8547 73.7215 48.8942 73.4796C48.9336 73.2377 49.051 73.0153 49.2286 72.8463L56.1472 65.9844C56.1472 65.9844 56.373 65.9844 56.4847 66.0962Z" fill="white"/>
<path d="M49.9604 75.8838C49.5854 75.8791 49.2178 75.7784 48.8928 75.5911C48.5679 75.4039 48.2964 75.1364 48.1041 74.8143C47.8879 74.4064 47.8094 73.9394 47.8804 73.4832C47.9516 73.0269 48.1684 72.606 48.4986 72.2832L55.3603 65.3644C55.6078 65.1433 55.9281 65.0209 56.26 65.0209C56.5919 65.0209 56.9121 65.1433 57.1596 65.3644L62.7854 70.99C63.1185 71.3065 63.2494 71.7853 63.1229 72.2282C62.9962 72.6712 62.625 73.0235 62.1673 73.129L50.2979 75.6602L49.9604 75.8838ZM56.261 67.3346L49.9056 73.69L60.4249 71.4394L56.261 67.3346Z" fill="#FF6C37"/>
<path d="M107.899 29.7013C103.828 25.7735 97.4319 25.6091 93.1625 29.3153C88.8931 33.0213 88.1632 39.3833 91.4876 43.9606C94.8121 48.538 101.079 49.8205 105.931 46.9138L98.2799 39.263L107.899 29.7013Z" fill="white"/>
<path d="M100.305 49.4997C97.966 49.4698 95.6876 48.7522 93.7536 47.4364C91.8197 46.1205 90.3156 44.2646 89.4289 42.1C88.5429 39.9371 88.3106 37.5618 88.7604 35.2682C89.2104 32.9744 90.3228 30.8629 91.9602 29.1949C94.2123 26.9842 97.242 25.7457 100.398 25.7457C103.554 25.7457 106.583 26.9842 108.835 29.1949C109.051 29.3763 109.173 29.6442 109.173 29.9269C109.172 30.0659 109.142 30.2032 109.084 30.3296C109.026 30.4558 108.941 30.5681 108.835 30.6588L99.7228 39.265L106.642 46.072C106.754 46.1791 106.838 46.3119 106.887 46.4591C106.936 46.6061 106.948 46.763 106.922 46.9158C106.906 47.0632 106.857 47.2052 106.779 47.3317C106.701 47.4582 106.597 47.5661 106.473 47.6478C104.614 48.8096 102.477 49.4507 100.286 49.504L100.305 49.4997ZM100.305 27.6741C96.2971 27.6951 92.7112 30.1061 91.2072 33.7913C89.7033 37.4764 90.5216 41.7183 93.3314 44.5491C94.7289 45.9547 96.5184 46.9055 98.4654 47.2771C100.412 47.6486 102.426 47.4234 104.243 46.6311L97.605 39.9928C97.4994 39.9084 97.4142 39.8014 97.3557 39.6796C97.2972 39.5578 97.2668 39.4245 97.2668 39.2893C97.2668 39.1542 97.2972 39.0208 97.3557 38.899C97.4142 38.7773 97.4994 38.6702 97.605 38.5858L106.38 29.7539C104.636 28.417 102.503 27.686 100.305 27.6719V27.6741Z" fill="#FF6C37"/>
<path d="M108.067 29.8699L98.4486 39.4316L106.099 47.0823C106.869 46.6403 107.586 46.1116 108.236 45.5067C110.241 43.3871 111.344 40.5716 111.313 37.6542C111.281 34.7367 110.118 31.9455 108.067 29.8699Z" fill="white"/>
<path d="M105.929 47.9263C105.802 47.9332 105.676 47.9114 105.559 47.8628C105.442 47.8144 105.338 47.7401 105.253 47.6458L97.6027 39.995C97.4973 39.9106 97.4121 39.8035 97.3535 39.6818C97.2949 39.56 97.2645 39.4266 97.2645 39.2915C97.2645 39.1565 97.2949 39.0231 97.3535 38.9012C97.4121 38.7794 97.4973 38.6725 97.6027 38.5881L107.165 29.195C107.257 29.0557 107.382 28.9415 107.529 28.8625C107.677 28.7835 107.841 28.7422 108.008 28.7422C108.175 28.7422 108.34 28.7835 108.487 28.8625C108.634 28.9415 108.76 29.0557 108.852 29.195C109.975 30.2949 110.866 31.6076 111.475 33.0564C112.084 34.5053 112.397 36.061 112.397 37.6324C112.397 39.204 112.084 40.7597 111.475 42.2086C110.866 43.6574 109.975 44.9702 108.852 46.07C108.19 46.7723 107.432 47.378 106.601 47.8693C106.392 47.9748 106.15 47.9951 105.926 47.9263H105.929ZM99.7417 39.2652L106.097 45.6207C106.534 45.3143 106.948 44.9758 107.335 44.6082C109.204 42.7449 110.256 40.2162 110.261 37.5776C110.265 35.2163 109.405 32.9351 107.842 31.1652L99.7417 39.2652Z" fill="#FF6C37"/>
<path d="M93.9473 46.6901C93.1853 45.9747 92.1796 45.5765 91.1344 45.5765C90.0892 45.5765 89.0835 45.9747 88.3215 46.6901L62.8423 72.1124L67.0611 76.3882L94.0043 52.7631C94.4151 52.3693 94.741 51.8955 94.9619 51.371C95.1828 50.8465 95.2941 50.2823 95.2887 49.7132C95.2834 49.1441 95.1616 48.5821 94.9309 48.0618C94.7002 47.5415 94.3654 47.074 93.9473 46.6881V46.6901Z" fill="white"/>
<path d="M66.8354 77.4026C66.5834 77.3964 66.3427 77.2963 66.1604 77.122L61.8848 72.8464C61.7024 72.6576 61.6005 72.4054 61.6005 72.1429C61.6005 71.8803 61.7024 71.6282 61.8848 71.4394L87.366 46.07C88.1 45.337 89.0372 44.8412 90.0563 44.6474C91.0753 44.4534 92.1291 44.57 93.081 44.9822C94.0329 45.3945 94.839 46.0831 95.3948 46.959C95.9506 47.8348 96.2304 48.8574 96.1979 49.8942C96.1687 50.598 95.9994 51.2889 95.6999 51.9264C95.4003 52.5638 94.9765 53.135 94.4535 53.6067L67.5104 77.2318C67.3145 77.3704 67.0737 77.4307 66.8354 77.4005V77.4026ZM63.855 72.1123L66.6667 74.9811L93.1035 51.9742C93.7575 51.4046 94.1476 50.5904 94.173 49.7234C94.1983 48.8564 93.8566 48.0085 93.2175 47.4179C92.6272 46.8301 91.8282 46.5001 90.9952 46.5001C90.1623 46.5001 89.3632 46.8301 88.773 47.4179L63.855 72.1123Z" fill="#FF6C37"/>
<path d="M43.0987 101.082C43.0267 101.18 42.988 101.299 42.988 101.42C42.988 101.541 43.0267 101.66 43.0987 101.757L44.223 106.651C44.2681 106.939 44.2254 107.234 44.1004 107.497C43.9755 107.761 43.7742 107.98 43.5227 108.128C43.272 108.274 42.9814 108.338 42.6926 108.309C42.4037 108.279 42.1315 108.159 41.9154 107.965L34.2098 100.54L58.2292 76.3311H66.5549L72.1805 81.9568C63.405 89.6295 53.6201 96.0645 43.0987 101.082Z" fill="white"/>
<path d="M42.5924 109.351C41.9554 109.338 41.3268 109.077 40.9049 108.619L33.5368 101.251C33.4314 101.167 33.3461 101.06 33.2876 100.938C33.229 100.816 33.1987 100.683 33.1987 100.548C33.1987 100.413 33.229 100.279 33.2876 100.157C33.3461 100.036 33.4314 99.9286 33.5368 99.8442L57.723 75.6011C57.8584 75.4572 58.0354 75.3592 58.2292 75.3206H66.6097C66.8281 75.2434 67.0664 75.2434 67.2847 75.3206L72.9105 80.9464C73.0174 81.0449 73.0988 81.168 73.1477 81.3051C73.1965 81.4422 73.2114 81.5891 73.191 81.7331C73.1949 81.8729 73.1666 82.0116 73.108 82.1387C73.0495 82.2656 72.9623 82.3774 72.8535 82.4651L72.4042 82.8595C63.5932 90.205 53.8995 96.4217 43.548 101.365L44.6175 105.921C44.7001 106.273 44.7032 106.638 44.6266 106.991C44.5501 107.344 44.3956 107.675 44.1748 107.961C43.9539 108.247 43.672 108.479 43.3497 108.642C43.0274 108.805 42.6729 108.893 42.3119 108.902L42.5924 109.351ZM35.7306 100.519L42.3667 107.212C42.4285 107.267 42.5085 107.298 42.5914 107.298C42.6742 107.298 42.7542 107.267 42.816 107.212C42.8573 107.155 42.8796 107.086 42.8796 107.015C42.8796 106.944 42.8573 106.875 42.816 106.818L41.6917 101.924C41.6031 101.573 41.6387 101.202 41.7926 100.874C41.9463 100.546 42.2088 100.281 42.5355 100.125C52.6086 95.2473 62.0525 89.1651 70.6597 82.0115L66.0466 77.3984H58.5098L35.7306 100.519Z" fill="#FF6C37"/>
<path d="M28.4175 106.314L34.0431 100.688L42.7064 109.351L28.9257 108.396C28.6892 108.377 28.4644 108.284 28.2838 108.13C28.103 107.977 27.9755 107.77 27.9194 107.539C27.8633 107.308 27.8814 107.066 27.9711 106.846C28.061 106.627 28.2179 106.441 28.4196 106.316L28.4175 106.314Z" fill="white"/>
<path d="M42.8728 110.195L29.1473 109.239C28.3331 109.163 27.6327 108.607 27.3458 107.862C27.0589 107.117 27.234 106.234 27.7973 105.639L33.4229 100.013C33.6118 99.8306 33.8639 99.7287 34.1264 99.7287C34.3888 99.7287 34.6411 99.8306 34.8299 100.013L43.4361 108.619C43.5553 108.783 43.6194 108.979 43.6194 109.181C43.6194 109.384 43.5553 109.58 43.4361 109.744C43.3059 109.954 43.1069 110.113 42.8728 110.193V110.195ZM29.1473 107.046L40.3965 107.778L34.2097 101.983L29.1473 107.046Z" fill="#FF6C37"/>
<path d="M67.3415 77.0103L55.9785 78.7547L62.5597 72.2304L67.3415 77.0103Z" fill="white"/>
<path d="M55.9785 79.8199C55.7896 79.8249 55.6034 79.7741 55.4433 79.674C55.2831 79.5738 55.1561 79.4287 55.0778 79.2568C54.958 79.0939 54.8935 78.8969 54.8935 78.6947C54.8935 78.4923 54.958 78.2955 55.0778 78.1324L61.602 71.5511C61.7999 71.3652 62.0614 71.2616 62.3329 71.2616C62.6045 71.2616 62.8658 71.3652 63.0637 71.5511L67.8478 76.3311C67.9434 76.4825 67.994 76.6582 67.994 76.8373C67.994 77.0165 67.9434 77.192 67.8478 77.3436C67.8008 77.5283 67.7017 77.6955 67.5621 77.8254C67.4227 77.9551 67.2486 78.0421 67.061 78.0756L55.8119 79.8199H55.9785ZM62.5597 73.688L58.9041 77.3436L65.2047 76.388L62.5597 73.688Z" fill="#FF6C37"/>
<path d="M67.3417 77.0062L59.4105 78.0187C59.1983 78.0669 58.976 78.0455 58.7771 77.9574C58.5779 77.8694 58.4125 77.7196 58.3054 77.5303C58.198 77.3409 58.1547 77.1219 58.1817 76.9059C58.2086 76.6899 58.3044 76.4885 58.4549 76.3312L62.5618 72.2242L67.3417 77.0062Z" fill="white"/>
<path d="M59.1848 79.0902C58.8171 79.0866 58.457 78.9859 58.1409 78.7979C57.8249 78.6102 57.5642 78.3419 57.3855 78.0207C57.1707 77.6357 57.0874 77.191 57.1483 76.7543C57.2092 76.3177 57.411 75.9127 57.723 75.6011L61.83 71.4942C62.0279 71.3084 62.2892 71.2048 62.5609 71.2048C62.8324 71.2048 63.0938 71.3084 63.2918 71.4942L68.0736 76.2763C68.2159 76.411 68.316 76.5841 68.3617 76.7745C68.4075 76.965 68.3971 77.1647 68.3316 77.3494C68.2663 77.5341 68.1487 77.6958 67.9932 77.8149C67.8377 77.9341 67.6509 78.0055 67.4556 78.0207L59.5814 79.0333L59.1848 79.0902ZM59.1848 77.0082L65.148 76.2763L62.505 73.6332L59.1299 77.0082H59.1848ZM108.122 36.3394C108.016 36.1619 107.849 36.0294 107.652 35.9672C107.455 35.905 107.242 35.9174 107.053 36.0019C106.96 36.049 106.877 36.1145 106.81 36.1941C106.742 36.2738 106.692 36.3663 106.66 36.4659C106.598 36.6671 106.618 36.8848 106.715 37.0714C107.11 37.9003 107 38.8812 106.435 39.6025C106.365 39.672 106.309 39.7553 106.273 39.8473C106.237 39.9391 106.22 40.0375 106.224 40.1363C106.226 40.3341 106.301 40.5242 106.435 40.67C106.579 40.7269 106.74 40.7269 106.884 40.67C107.015 40.7028 107.153 40.6993 107.282 40.6594C107.411 40.6196 107.526 40.5452 107.616 40.4442C108.079 39.8771 108.373 39.1905 108.462 38.4638C108.552 37.7371 108.434 36.9998 108.122 36.3372V36.3394Z" fill="#FF6C37"/>
</svg>
