<svg width="140" height="140" viewBox="0 0 140 140" fill="none" xmlns="http://www.w3.org/2000/svg">
<rect width="140" height="140" rx="20" fill="#5A67D8"/>
<path fill-rule="evenodd" clip-rule="evenodd" d="M30.0179 88.6394C29.0005 87.0348 28.9852 84.9908 29.9783 83.3707L67.3699 22.3772C69.4497 18.9848 74.4715 19.2814 76.1375 22.8951L110.297 96.9943C111.564 99.7437 110.105 102.978 107.205 103.848L54.068 119.79C51.93 120.43 49.6265 119.571 48.4314 117.686L30.0179 88.6394ZM71.6841 40.2112C72.0444 38.4169 74.5029 38.1582 75.229 39.8381L98.7915 94.3604C99.2348 95.387 98.6829 96.5709 97.6113 96.8906L60.8978 107.85C59.5483 108.253 58.2556 107.074 58.5329 105.693L71.6841 40.2112Z" fill="white"/>
</svg>
