<svg width="140" height="140" viewBox="0 0 140 140" fill="none" xmlns="http://www.w3.org/2000/svg">
<rect width="140" height="140" rx="20" fill="#7B61C1"/>
<path fill-rule="evenodd" clip-rule="evenodd" d="M69.2246 20H71.1789L71.8182 20.0355L71.8226 20.0358L73.1328 20.1047L73.7348 20.1716L74.3659 20.2048L75.0856 20.2806L75.6876 20.3809L76.3231 20.4478L77.6033 20.6612L78.2387 20.7949L78.849 20.8967L79.5288 21.0477L80.1308 21.2149L80.7328 21.3487L82.6136 21.8712L83.8664 22.2888L85.0384 22.7024L85.6404 22.9365L86.2229 23.1421L86.8615 23.4051L87.43 23.6726L88.0152 23.9136L88.5834 24.1977L89.152 24.4653L89.7188 24.7487L90.3198 25.0668L91.9603 25.9896L92.4917 26.3085L93.0572 26.6619L94.5027 27.6255L95.54 28.1442L96.1418 28.4274L97.278 29.0665L97.7796 29.3675L98.3267 29.6752L98.9101 30.0398L99.4117 30.3743L99.9469 30.7087L100.495 31.0741L102.047 32.2125L102.516 32.5804L103.043 32.9673L104.514 34.2279L104.982 34.6627L105.472 35.0822L106.836 36.4471L107.728 37.4073L108.129 37.8421L108.599 38.3476L109.019 38.8727L109.441 39.3649L109.809 39.8666L110.21 40.3348L110.993 41.4027L111.38 41.9656L111.708 42.4584L111.72 42.4762L112.082 43.0024L112.435 43.5314L112.8 44.1148L113.127 44.6969L113.412 45.2347L113.736 45.7536L114.081 46.3666L114.357 46.9525L114.649 47.5053L114.933 48.0721L115.224 48.6904L115.464 49.2741L115.732 49.876L116.227 51.0802L116.44 51.7192L116.641 52.2875L117.042 53.4916L117.256 54.0961L117.782 55.9896L118.193 57.8423L118.335 58.5171L118.642 60.3546L118.643 60.3609L118.644 60.3673L118.75 61.0369L118.892 62.3187L118.925 62.9541L118.992 63.554L119.028 64.2018L119.061 64.8329L119.061 64.8373L119.097 65.4766V67.3996L119.061 68.039L119.061 68.0433L119.028 68.6788L118.959 69.9243L118.953 69.9745L118.992 70.3476L119.064 71.6305V72.2325L119.097 72.8345V74.1555L119.064 74.7575V75.3929L119.025 76.0781L118.959 76.678L118.925 77.3134L118.788 78.5522L118.787 78.5608L118.716 79.2328L118.51 80.4689L118.508 80.4815L118.402 81.1504L118.267 81.7587L118.167 82.3607L118.016 83.0405L117.849 83.6426L117.715 84.2445L117.192 86.1253L116.975 86.7761L116.775 87.3444L116.562 87.9833L116.328 88.5518L116.127 89.1539L115.631 90.3581L115.349 90.994L115.067 91.5935L114.799 92.1286L114.248 93.2989L113.93 93.8649L113.629 94.4335L113.301 95.0157L112.967 95.5509L112.666 96.0859L112.296 96.6784L111.921 97.2228L111.581 97.7334L111.194 98.2963L110.062 99.8399L109.674 100.333L109.253 100.86L108.414 101.838L107.979 102.307L107.578 102.775L107.104 103.285L105.76 104.629L105.25 105.103L104.781 105.504L104.313 105.939L103.33 106.782L102.847 107.162L102.836 107.17L102.34 107.567L101.847 107.955L100.796 108.725L100.248 109.091L99.7127 109.425L99.2111 109.76L98.6761 110.094L98.1453 110.448L96.4584 111.397L95.9233 111.664L95.3725 111.974L94.7359 112.274L94.4978 112.378L93.3582 113.137L92.8232 113.472L92.2925 113.826L90.0704 115.076L89.4865 115.368L88.918 115.635L88.3828 115.903L87.7645 116.194L87.1958 116.428L86.5924 116.712L85.9889 116.925L85.4423 117.15L84.8043 117.398L84.2008 117.611L83.5987 117.812L82.9942 118.025L80.4987 118.718L78.646 119.13L77.9712 119.272L76.7357 119.478L76.7294 119.479L76.723 119.48L76.0534 119.586L75.4127 119.657L74.1462 119.79L74.1375 119.791L73.5007 119.862L72.8259 119.897L72.8216 119.898L72.2239 119.931L72.2196 119.931L70.9092 120H68.9571L68.2777 119.964L67.6801 119.931L66.3655 119.862L65.7288 119.791L65.7201 119.79L65.089 119.724L64.4483 119.653L63.7723 119.546L63.1767 119.446L63.1639 119.444L62.5348 119.345L61.8868 119.237L61.2619 119.098L61.2454 119.095L60.6182 118.963L59.3676 118.685L57.474 118.159L56.9055 117.958L56.3035 117.791L55.664 117.565L55.062 117.331L54.4794 117.125L53.8886 116.882L53.2716 116.642L52.6889 116.387L52.1353 116.127L51.5666 115.893L50.9151 115.586L50.3644 115.276L49.8464 115.017L49.2454 114.699L48.6752 114.378L48.1734 114.077L47.6265 113.77L47.0431 113.405L45.5223 112.391L45.0955 112.19L43.9764 111.631L41.7736 110.392L41.1903 110.027L40.6885 109.693L40.1535 109.358L39.6054 108.993L39.1037 108.625L38.602 108.29L38.0271 107.869L37.5589 107.467L37.0572 107.1L35.1182 105.438L34.6077 104.964L34.1729 104.529L33.7047 104.094L32.7745 103.164L32.355 102.674L31.9203 102.206L30.6802 100.759L30.2588 100.233L29.895 99.7696L29.8868 99.7593L29.4739 99.2433L29.0738 98.6976L28.6868 98.1348L28.3341 97.6057L28.0175 97.0992L27.6497 96.5975L27.2672 95.9856L26.9662 95.4504L26.6216 94.899L26.3043 94.2997L25.9859 93.7337L25.7184 93.1652L25.4173 92.63L24.5756 90.8414L24.0876 89.6563L23.8535 89.0543L23.6053 88.4515L23.3925 87.8129L23.1918 87.2443L22.7742 85.9915L22.2517 84.1107L22.118 83.5087L21.9399 82.8678L21.8331 82.227L21.5656 81.0229L21.4576 80.3749L21.3508 79.6989L21.2127 78.4562L21.1463 77.8251L21.1454 77.8164L21.0077 76.5776L20.9722 75.9029L20.972 75.8985L20.9365 75.2592V74.655L20.903 74.0195V72.7363L20.9365 72.1009V71.4967L20.9745 70.8115L21.0414 70.2095L21.0545 69.9748L21.008 69.5564L20.9722 68.9129L20.972 68.9085L20.9365 68.2336V67.6337L20.903 67.0317V65.7107L20.972 64.4694L20.9722 64.465L21.0054 63.8339L21.0057 63.8296L21.0414 63.1861L21.1081 62.5863L21.1437 61.9098L21.2512 61.2646L21.3174 60.669L21.4241 59.993L21.7314 58.1492L21.8735 57.4744L22.0176 56.8257L22.1848 56.2237L22.3186 55.6217L22.6774 54.3302L22.878 53.7617L23.0417 53.1724L23.2587 52.5216L23.4716 51.9181L23.7198 51.2801L23.9539 50.7116L24.188 50.1096L24.676 48.9245L25.2419 47.7218L25.5513 47.1374L25.8189 46.6023L26.1371 46.0013L26.7655 44.884L27.1 44.3489L27.401 43.8138L27.7713 43.2213L28.1517 42.6679L28.4862 42.1663L28.8731 41.6034L30.0241 40.0338L30.4461 39.5416L30.8474 39.0399L32.0875 37.5932L32.5616 37.0826L32.9964 36.6478L33.4311 36.1796L34.3613 35.2494L34.8295 34.8481L35.2643 34.4133L36.264 33.5564L36.7657 33.1551L37.2579 32.7332L37.7855 32.3463L38.2537 31.9784L39.3044 31.2079L39.8525 30.8425L40.3876 30.508L40.8893 30.1736L41.4244 29.8392L41.955 29.4854L43.642 28.5365L44.2259 28.2445L44.7945 27.977L45.4973 27.6255L46.7421 26.7957L47.2772 26.4612L47.8079 26.1075L49.4948 25.1586L50.0471 24.8824L50.6156 24.5814L51.1824 24.298L51.8007 24.0071L52.3527 23.7798L52.8878 23.5122L53.521 23.2515L54.123 23.0174L54.7135 22.7742L55.331 22.5563L55.9329 22.3557L56.5015 22.155L57.1523 21.938L59.6351 21.2484L61.5189 20.8298L62.1292 20.7281L62.7646 20.5943L63.4428 20.4812L64.0783 20.4144L64.6803 20.314L65.3522 20.2433L65.3608 20.2424L65.9977 20.1716L66.6374 20.1379L67.2707 20.0713L67.9515 20.0334H68.5892L69.2246 20ZM33.2144 40.9036L33.166 40.9601L32.7646 41.4618L32.3839 41.906L31.3276 43.3464L30.9787 43.8538L30.6443 44.3555L30.2889 44.8724L29.9903 45.3501L29.6893 45.8852L29.3549 46.4203L28.7793 47.4435L28.4955 47.9797L28.2279 48.5148L27.9353 49.0675L27.4311 50.1391L26.9826 51.2282L26.7485 51.8302L26.5144 52.3988L26.3845 52.7327L26.3935 52.7177L26.6611 52.2494L26.9823 51.7141L27.2833 51.2459L27.5843 50.7442L27.9178 50.2254L28.2892 49.7055L28.6236 49.2707L28.9581 48.8025L29.999 47.4492L30.2825 47.1142L30.4695 46.6469L30.6701 46.1118L30.8926 45.5557L31.1368 45.0322L31.371 44.4971L32.098 42.9392L32.9374 41.3653L33.2144 40.9036ZM28.1972 55.7L28.1935 55.7075L27.9259 56.2091L27.6763 56.7084L27.4585 57.1751L26.7855 58.7133L26.5848 59.2819L26.3448 59.8305L26.1776 60.2765L26.0145 60.831L25.8138 61.3996L25.1679 63.5957L25.0457 64.1149L24.912 64.7169L24.7782 65.2855L24.6536 65.846L24.5615 66.3678L24.559 66.3819L24.2672 68.1334L24.0757 69.8574L24.0738 69.8915L24.0757 69.9085L24.1091 70.5105L24.2338 71.6325L24.4253 72.7819L24.4277 72.7961L24.5268 73.3575L24.7205 74.5197L24.8451 75.049L24.9789 75.651L25.101 76.1702L25.9142 78.9349L26.0966 79.4519L26.2973 79.9869L26.4845 80.5174L26.7127 81.0391L26.9134 81.5742L27.5841 83.1072L27.8256 83.5902L28.193 84.2791L28.1668 83.8589L28.0999 83.3573L28.0664 82.8222L27.9933 82.2738V81.6889L27.9264 80.6856V79.0469L27.9599 78.5452V78.0435L28.0303 76.9866L28.0673 76.4689L28.1342 75.9672L28.1676 75.499L28.2416 74.9446L28.3075 74.4834L28.3094 74.4694L28.3822 73.9231L28.484 73.448L28.5509 72.9797L28.765 71.9808L28.8767 71.4967L29.0105 71.0285L29.1108 70.5937L29.2594 70.0736L29.2763 70.0188L29.1777 69.6738L29.0774 69.2391L28.9436 68.7708L28.8319 68.2868L28.5175 66.8196L28.4506 66.3514L28.3488 65.8762L28.276 65.3299L28.2741 65.316L28.2016 64.8091L28.1676 64.3338L28.1003 63.8286L28.064 63.2845L28.0635 63.2774L28.0303 62.8127L27.9264 61.2541V59.1138L27.9962 58.0667L27.9966 58.0604L28.0299 57.5284L28.0664 56.9802L28.1333 56.4451L28.1668 55.9434L28.1972 55.7ZM31.2424 75.2226L31.2243 75.3494L31.2223 75.3633L31.1635 75.8054L31.13 76.2736L31.0631 76.7753L31.0335 77.1904L31.033 77.1975L30.9699 78.1437V78.6454L30.9365 79.1471V80.5853L31.0033 81.5887V82.074L31.064 82.529L31.0975 83.0641L31.1643 83.5658L31.1947 84.0521L31.2859 84.5079L31.358 85.0854L31.3596 85.0976L31.4197 85.5476L31.6026 86.5231L31.7364 87.0248L31.8389 87.5715L31.9589 88.0516L32.0927 88.5533L32.3491 89.5789L32.5025 90.0392L32.8238 91.0672L32.9632 91.4157L34.298 92.872L35.7903 94.3642L36.1412 94.6859L36.5426 95.0204L36.9439 95.3883L37.2955 95.6812L37.7302 96.0156L38.1025 96.3259L38.5373 96.6269L38.9387 96.9614L39.3417 97.2404L39.7105 97.517L40.121 97.7696L40.5558 98.0706L41.7886 98.8292L42.2234 99.0634L42.6387 99.319L43.068 99.5336L43.4821 99.7566L43.8962 99.9477L44.3645 100.182L45.1937 100.565L45.6621 100.765L46.0545 100.946L46.1058 100.965L46.039 100.869L45.3367 99.7657L45.0734 99.3897L44.6562 98.6247L44.4077 98.2341L44.2177 97.8542L43.803 97.094L43.4575 96.3338L43.2902 95.9993L43.0872 95.5527L42.9535 95.1848L42.7961 94.8387L42.6406 94.4498L42.373 93.714L42.2161 93.3218L42.1158 92.9539L41.982 92.6195L41.864 92.1869L41.7637 91.8524L41.6634 91.4845L41.5443 91.0877L41.4774 90.7198L41.3809 90.3981L41.1638 89.3123L41.0969 88.9444L41.0198 88.5589L40.9863 88.2579L40.9178 87.9153L40.8444 87.1813L40.811 86.8804L40.8099 86.87L39.7267 86.0575L39.4495 85.82L39.2189 85.6182L38.9513 85.4175L38.6033 85.113L38.3692 84.8789L37.7963 84.3776L37.5622 84.11L37.3324 83.909L36.994 83.5706L36.7599 83.303L36.4923 83.0355L36.233 82.739L36.2252 82.7302L35.9615 82.4336L35.6949 82.1289L35.4644 81.8326L35.1969 81.5315L34.4409 80.5596L34.2068 80.2252L33.9727 79.9242L33.6865 79.5154L33.4859 79.1809L33.2517 78.8465L33.0341 78.4837L32.7833 78.0896L32.5732 77.7044L32.3725 77.3699L32.1813 77.0194L31.9177 76.6052L31.7183 76.1665L31.5421 75.8142L31.3166 75.4007L31.2424 75.2226ZM44.1603 88.9468L44.3047 89.6688L44.4089 90.016L44.4757 90.3838L44.5574 90.6559L44.6577 91.0238L44.758 91.3583L44.8407 91.6614L44.9745 91.9959L45.0748 92.3638L45.1855 92.6405L45.4531 93.3762L45.5651 93.6563L45.7422 94.046L45.876 94.4139L46.0074 94.703L46.1746 95.0375L46.498 95.7488L46.886 96.4601L47.0305 96.7492L47.2501 97.0943L47.6356 97.801L47.8406 98.0938L48.5429 99.1975L48.7503 99.4937L49.0178 99.8616L49.2519 100.196L49.4912 100.525L49.7318 100.826L50.0329 101.194L50.2783 101.501L51.2227 102.55L51.6647 102.645L52.0566 102.735L52.8632 102.859L53.3312 102.926L54.1524 103.052L54.5871 103.086L55.0219 103.153L55.4045 103.182L55.7482 103.211H56.1782L56.613 103.244H57.0526L57.4539 103.278H58.1648L58.5662 103.244H58.9723L59.3399 103.216L59.3495 103.215L59.8036 103.177H60.1095L60.4489 103.121L61.2406 103.055L61.6085 102.988L62.0098 102.954L63.3457 102.711L63.7136 102.611L64.0815 102.544L64.4366 102.447L64.7525 102.384L65.0372 102.299L65.4051 102.198L66.3261 101.922L66.4996 101.853L66.4782 101.838L66.2441 101.704L66.0099 101.537L65.7758 101.403L65.4341 101.159L65.2921 101.04L65.058 100.907L64.6567 100.572L64.4226 100.438L63.9311 100.029L63.7638 99.8949L63.3625 99.5605L63.1419 99.384L62.964 99.2061L62.8274 99.0923L62.6068 98.9158L62.4396 98.7486L62.2723 98.6148L61.9872 98.3297L61.9059 98.228L61.8041 98.1466L61.2514 97.5939L61.1701 97.4922L61.0683 97.4108L60.6829 97.0253L60.4823 96.7747L60.4321 96.7076L60.0307 96.3063L59.9304 96.1725L59.6963 95.9384L59.5959 95.8046L59.4622 95.6709L59.3618 95.5371L59.2615 95.4367L59.1612 95.303L59.0608 95.2026L58.9605 95.0688L58.7598 94.8682L58.6595 94.7344L58.2284 94.3033L58.2057 94.2692L58.1716 94.2465L57.6365 93.7114L57.5362 93.6445L57.3689 93.4773L57.1683 93.3435L57.1014 93.2766L57.0586 93.2481L57.0252 93.237L56.8245 93.1032L56.7242 93.0697L56.5235 92.9359L56.4232 92.9025L56.3228 92.8356L56.1222 92.7687L56.0218 92.7018L55.8106 92.6314L55.6955 92.5739L55.599 92.5497L55.4986 92.5163L55.3649 92.4829L55.2646 92.4494L54.997 92.3825L54.8966 92.3491L54.3298 92.2074H54.1626L53.8837 92.1377L53.7166 92.1042L53.5828 92.0708L53.4155 92.0373L53.2817 92.0039L52.0108 91.7497L51.8664 91.6919L51.8022 91.6812L51.635 91.6478L51.2978 91.5916L51.1306 91.5247L50.7292 91.4578L50.562 91.3909L50.4053 91.3648L50.0207 91.2366L49.7866 91.2031L49.0868 90.9699L48.8528 90.903L48.6521 90.8361L48.0808 90.6729L47.8801 90.5726L47.6888 90.5179L47.4547 90.4176L47.2206 90.3507L45.7601 89.7248L45.4118 89.5941L45.1474 89.4431L44.9518 89.3592L44.6073 89.187L44.3732 89.0532L44.1603 88.9468ZM68.946 104.156L68.679 104.263L68.3166 104.424L67.9126 104.545L67.675 104.625L67.3194 104.767L66.2337 105.092L65.8658 105.193L65.4817 105.308L65.1286 105.379L64.748 105.482L64.3801 105.549L64.0122 105.65L62.4049 105.942L62.0036 105.975L61.6357 106.042L60.822 106.11L60.3587 106.187H59.9288L59.5851 106.216L59.0879 106.254H58.6914L58.29 106.288H57.3287L56.9274 106.254H56.4974L56.0626 106.221H55.623L55.1689 106.183L55.1614 106.182L55.4769 106.44L55.8194 106.697L56.2208 106.965L56.6221 107.266L56.966 107.495L57.4007 107.763L57.802 108.03L59.0461 108.796L59.4225 108.999L59.8908 109.233L60.3254 109.467L61.6704 110.139L62.1198 110.332L62.6216 110.566L63.0102 110.732L63.5119 110.9L64.0208 111.118L64.4643 111.295L65.4122 111.611L65.9474 111.778L66.4078 111.932L66.8982 112.054L67.3998 112.188L68.9503 112.576L70.039 112.78L70.4145 112.71L70.9494 112.576L71.4846 112.476L71.9645 112.356L72.4664 112.222L72.9705 112.096L73.4945 111.932L73.9825 111.802L74.4539 111.645L74.9892 111.477L75.4353 111.329L75.9221 111.134L76.3903 110.967L77.3505 110.583L77.7612 110.407L78.2294 110.173L78.6976 109.972L79.5743 109.534L80.0089 109.3L80.4382 109.085L80.8536 108.829L81.2883 108.595L82.5324 107.83L82.8763 107.6L83.2995 107.283L83.7071 107.032L84.0538 106.748L84.4816 106.463L84.824 106.206L84.8818 106.159L84.6018 106.182L83.6698 106.254H83.2399L82.8385 106.288H81.8772L81.4759 106.254H81.0411L80.6398 106.221H80.2384L79.3677 106.148L78.9383 106.109L78.5425 106.043L78.1302 106.009L77.7623 105.942L77.361 105.908L76.1216 105.683L75.7537 105.583L75.3671 105.513L75.0327 105.412L74.6648 105.345L74.268 105.226L73.9001 105.126L72.4799 104.7L72.1243 104.558L71.8232 104.457L71.4888 104.323L71.1608 104.214L70.5588 103.947L70.2578 103.846L69.9906 103.728L69.9736 103.736L69.2739 104.047L68.946 104.156ZM73.48 101.857L74.7288 102.232L75.0966 102.332L75.3687 102.414L75.7366 102.481L76.071 102.581L76.4202 102.645L76.7881 102.745L77.7561 102.921L78.1574 102.954L78.5253 103.021L78.9156 103.054L79.3226 103.122L79.6233 103.149L79.6346 103.15L80.3636 103.211H80.7649L81.1662 103.244H81.6011L82.0024 103.278H82.7133L83.1147 103.244H83.5543L84.3566 103.182L84.3662 103.182L84.7627 103.149L85.5801 103.086L86.0149 103.019L86.4497 102.985L86.7845 102.934L87.2528 102.834L88.1106 102.702L88.5025 102.611L88.7664 102.555L89.6548 101.567L89.9002 101.261L90.2012 100.893L90.442 100.592L90.7095 100.224L90.9478 99.9261L91.182 99.5581L91.4495 99.2237L91.8919 98.5286L92.0969 98.2358L92.2816 97.897L92.5157 97.5291L92.7069 97.1786L92.9076 96.8441L93.2679 96.1836L93.4352 95.8157L93.6491 95.4234L93.7919 95.1378L94.0906 94.4807L94.2339 94.0866L94.4011 93.7522L94.6473 93.0753L94.7811 92.7408L94.8854 92.4538L94.9921 92.0628L95.1258 91.7283L95.2085 91.4252L95.3089 91.0907L95.4092 90.7228L95.5095 90.3884L95.5912 90.0888L95.6619 89.7357L95.7622 89.4013L95.8509 88.9579L95.7272 89.0197L95.4243 89.1928L95.1568 89.2931L94.9529 89.4096L94.6803 89.5264L94.4128 89.6602L92.8798 90.3172L92.6456 90.3841L92.4115 90.4844L92.1774 90.5513L91.9734 90.6388L91.6824 90.7358L91.2142 90.8696L90.8128 91.0033L90.5786 91.0702L90.0963 91.231L89.8957 91.2645L89.4943 91.3982L89.2937 91.4317L89.093 91.4986L88.7997 91.5474L88.7483 91.5577L88.5476 91.6246L88.2647 91.6812L88.064 91.7147L87.5544 91.8166L87.3872 91.8835L86.7711 92.0067H86.6067L86.4842 92.0373L86.317 92.0708L86.1831 92.1042L86.016 92.1376L84.9027 92.416L84.8024 92.4494L84.5349 92.5163L84.4345 92.5497L84.3007 92.5832L84.1789 92.6238L84.1119 92.6684L83.9113 92.7353L83.811 92.8022L83.6103 92.8691L83.51 92.9359L83.4096 92.9694L83.2089 93.1032L83.1755 93.1143L82.8411 93.3373L82.8076 93.3484L82.7648 93.377L82.6645 93.4773L82.5642 93.5442L82.4973 93.611L82.3969 93.678L81.4037 94.6712L81.3963 94.6823L81.2067 94.9351L80.772 95.3698L80.5713 95.6374L80.3372 95.8715L80.2368 96.0053L80.1031 96.1391L80.0027 96.2729L79.8689 96.4066L79.7686 96.5404L79.083 97.226L78.9492 97.3932L78.0956 98.2469L77.9938 98.3283L77.8601 98.4955L77.6273 98.6817L77.2465 99.0626L77.0458 99.1963L76.925 99.3171L76.7045 99.4936L76.5678 99.6075L76.3435 99.8318L76.0857 100.004L75.6843 100.338L75.4837 100.472L75.3017 100.624L75.0022 100.837L74.8014 100.971L74.3333 101.306L74.1326 101.439L73.8563 101.637L73.5819 101.794L73.48 101.857ZM99.1556 87.2485L99.0822 87.9822L98.9977 88.4045L98.9468 88.6336L98.9163 88.9389L98.8362 89.3792L98.686 90.1305L98.5856 90.4649L98.5225 90.7808L98.4035 91.217L98.3032 91.5514L98.2029 91.9193L98.1025 92.2537L97.9845 92.6864L97.8508 93.0208L97.7567 93.3656L97.5935 93.8144L97.4598 94.1488L97.1708 94.9435L97.0036 95.2779L96.8793 95.6196L96.5091 96.4341L96.3174 96.8175L96.1301 97.1609L95.9629 97.5288L95.5205 98.3398L95.3199 98.6742L95.1097 99.0595L94.8756 99.4274L94.659 99.8244L94.3958 100.2L93.9318 100.93L94.0962 100.854L94.5504 100.679L94.9733 100.498L95.3681 100.316L95.8363 100.081L96.2503 99.8904L97.0992 99.4333L97.5285 99.2186L97.9439 98.963L98.3787 98.7289L99.1767 98.2378L99.6115 97.9368L100.022 97.6843L100.391 97.4076L101.229 96.8276L101.63 96.4931L102.065 96.1921L103.19 95.2546L103.992 94.5187L104.369 94.2053L105.113 93.4612L105.49 93.1154L106.529 91.9816L106.897 91.5469L107.064 91.365L107.143 91.1676L107.297 90.6747L107.464 90.1729L107.614 89.6931L107.74 89.1888L107.874 88.687L108.141 87.6169L108.264 87.1586L108.456 86.1351L108.554 85.6424L108.558 85.6246L108.646 85.1523L108.708 84.6567L108.709 84.6506L108.774 84.1611L108.776 84.1489L108.842 83.6199L108.843 83.6138L108.903 83.1645L108.933 82.6789L108.933 82.6758L108.966 82.1804L108.967 82.1741L109 81.6421L109 81.639L109.064 80.6858V78.7457L108.967 77.2979L108.967 77.2907L108.933 76.8261L108.903 76.3705L108.845 75.9319L108.843 75.918L108.746 75.2388L108.549 75.6314L108.371 76.0238L108.157 76.4161L107.956 76.8175L107.728 77.2361L107.501 77.614L107.267 77.982L107.066 78.3164L106.832 78.6844L106.614 79.0471L106.146 79.7161L105.926 80.083L105.659 80.4259L105.397 80.8008L105.104 81.1302L104.405 82.0286L104.139 82.3333L103.875 82.6299L103.867 82.6387L103.608 82.9351L103.34 83.2027L103.106 83.4702L102.768 83.8087L102.538 84.0097L102.304 84.2773L101.731 84.7786L101.497 85.0127L100.881 85.5513L100.654 85.7218L100.42 85.9559L99.4806 86.6604L99.2548 86.8016L99.1988 86.8496L99.189 86.9473L99.1556 87.2485ZM99.3311 82.9082L99.4395 82.8134L99.6736 82.5793L100.171 82.1441L100.405 81.8766L100.71 81.6094L100.907 81.4127L101.141 81.1451L101.409 80.8776L101.614 80.6433L101.877 80.3467L101.885 80.3379L102.083 80.1119L102.789 79.2042L103.031 78.9316L103.237 78.6377L103.439 78.3785L103.62 78.0766L104.088 77.4077L104.271 77.1017L104.506 76.7337L104.706 76.3993L104.94 76.0314L105.115 75.7405L105.288 75.4233L105.489 75.022L105.676 74.6786L105.832 74.3351L106.022 73.9552L106.2 73.5291L106.4 73.1612L106.529 72.8518L106.696 72.4169L107.031 71.6143L107.172 71.2471L107.296 70.845L107.446 70.3946L107.583 70.0382L107.373 69.3549L107.206 68.9201L107.078 68.5052L106.763 67.7503L106.596 67.3156L106.3 66.6047L106.099 66.2368L105.922 65.8107L105.756 65.4797L104.781 63.691L104.606 63.3999L104.372 63.0321L104.188 62.7261L103.538 61.7971L103.304 61.4961L103.07 61.1616L101.98 59.7605L101.743 59.5238L101.484 59.2273L101.476 59.2185L101.212 58.9219L101.04 58.7254L100.773 58.4913L100.506 58.1859L100.309 57.9893L100.041 57.7552L99.8073 57.521L99.3311 57.1043V57.3847L99.2977 57.6522V57.9094L99.2642 58.2104V58.4884L99.2175 58.862L99.1841 59.0961L99.0837 59.8988L99.0168 60.3671L98.9706 60.7366L98.9001 60.9835L98.8332 61.4517L98.7663 61.6858L98.7449 61.8355L98.6946 62.1375L98.6277 62.3716L98.5943 62.5723L98.5274 62.8064L98.4885 63.0395L98.3548 63.4408L98.3213 63.6415L98.1798 64.0659L98.1464 64.2332L98.0126 64.6345L97.9704 64.8454L97.8687 65.0998L97.8454 65.1697L97.8032 65.3805L97.7363 65.5477L97.7029 65.7149L97.5614 66.0686L97.5567 66.0781L97.5356 66.1832L97.4554 66.3838L97.4219 66.5176L97.355 66.6848L97.3216 66.8186L97.2547 66.9858L97.1725 67.3146L97.1056 67.4484L97.0387 67.716L96.9719 67.8497L96.8307 68.4144L96.7972 68.5148L96.7638 68.6485L96.7559 68.6723V68.8396L96.689 69.0402V69.174L96.6555 69.2743V69.4081L96.6221 69.5084V69.7426L96.5886 69.8429V69.9331H96.5586L96.5363 70H96.5886V70.2495L96.6221 70.3833V70.584L96.6555 70.7177V70.7846L96.7224 71.0522V71.127L96.7304 71.1508L96.8227 71.5204V71.6207L96.8548 71.7489L96.9384 71.9162L97.0722 72.4513L97.1553 72.6176L97.2111 72.8963L97.2729 73.0199L97.3216 73.2148L97.3885 73.382L97.4219 73.5159L97.5022 73.7165L97.5344 73.8773L97.657 74.1226L97.7029 74.352L97.8458 74.7092L97.8792 74.9098L97.937 75.0543L97.9792 75.2651L98.0025 75.335L98.1133 75.6122L98.1541 75.8568L98.1697 75.9035L98.2805 76.1807L98.3213 76.4254L98.4607 76.8434L98.4941 77.0776L98.5554 77.2615L98.5943 77.4946L98.6612 77.7287L98.6946 77.9293L98.7663 78.1804L98.8332 78.6486L98.9001 78.8827L98.9834 79.4658L99.0041 79.6312L99.071 79.8654L99.1172 80.235L99.1506 80.4691L99.1973 80.8427V81.1103L99.2977 81.913V82.1806L99.3311 82.4481V82.9082ZM96.2876 70L96.0869 69.9331H93.5786V69.3544L93.612 69.2541V69.02L93.6455 68.9197V68.7859L93.6789 68.6855V68.6442L93.7458 68.3766V68.2762L93.8382 67.9067L93.8717 67.8063L93.9051 67.6726L93.9385 67.5723L94.1318 66.7991L94.1987 66.6653L94.2656 66.3978L94.3325 66.264L94.3841 66.0576L94.451 65.8904L94.4844 65.7566L94.5513 65.5894L94.5848 65.4556L94.6383 65.3219L94.6841 65.0925L94.8068 64.8472L94.8389 64.6864L94.9058 64.5192L94.9306 64.3956L95.0411 64.064L95.073 63.9841L95.0978 63.8605L95.2316 63.4591L95.265 63.2919L95.3911 62.9137L95.4245 62.713L95.5583 62.3117L95.5863 62.1434L95.6532 61.9093L95.6867 61.7086L95.7536 61.4745L95.7701 61.3752L95.8156 61.0566L95.8825 60.8225L95.9494 60.3543L96.0126 60.1329L96.0333 59.9674L96.1002 59.4994L96.2006 58.6966L96.234 58.4622L96.2542 58.301V58.0437L96.2876 57.7427V57.4648L96.3211 57.1973V56.639L96.3545 56.338V55.6018L96.3211 55.3008V54.8099L95.6155 54.3689L95.3814 54.2351L95.1138 54.0679L94.9418 53.9696L94.4066 53.702L94.1726 53.5683L93.9818 53.4729L93.7093 53.3561L93.5055 53.2396L93.2379 53.1393L92.9735 52.9882L92.6163 52.8351L92.3488 52.7348L91.9363 52.558L91.6594 52.4789L91.4587 52.3786L91.2674 52.3239L91.0333 52.2236L90.8594 52.1739L90.5684 52.0769L90.3343 51.9766L90.224 51.9398L89.9899 51.8729L89.8702 51.833L89.7019 51.805L89.3544 51.7057L89.2348 51.6658L89.0341 51.6323L88.6328 51.4986L88.5246 51.4805L88.2417 51.424L88.0411 51.3571L87.9896 51.3468L87.6523 51.2906L87.4851 51.2237L87.421 51.213L86.0242 50.9336L85.8905 50.9002L85.7232 50.8668L85.5895 50.8333L85.4222 50.7999L85.1659 50.7358H84.9987L84.3615 50.5765L84.2612 50.5431L83.8598 50.4427L83.7595 50.4093L83.6257 50.3758L83.3691 50.2903L83.2353 50.2234L83.1909 50.2086L83.0572 50.1752L82.7108 50.0597L82.6105 49.9928L82.4098 49.9259L82.3095 49.859L82.2091 49.8256L82.1088 49.7587L82.0085 49.7253L81.8078 49.5915L81.5616 49.5094L81.3489 49.2967L81.0479 49.096L80.981 49.0291L80.7803 48.8953L80.7134 48.8285L80.3863 48.6104L80.302 48.4839L80.078 48.2599L79.9776 48.193L79.6665 47.8819L79.5996 47.7816L79.1983 47.3802L79.1314 47.2799L78.9605 47.109L78.8602 46.9752L78.6595 46.7745L78.5592 46.6408L78.3251 46.4066L78.1892 46.2255L78.0554 46.1252L77.8903 45.905L77.7565 45.7712L77.6562 45.6374L77.5224 45.5036L77.422 45.3699L77.0374 44.9852L76.9036 44.818L76.1519 44.0663L75.9192 43.8801L75.7854 43.7129L75.6837 43.6315L75.3493 43.2971L75.2354 43.206L74.9707 42.9854L74.8606 42.8753L74.6599 42.7415L74.4356 42.5172L74.3491 42.4451L74.1484 42.3113L73.7471 41.9769L73.5464 41.8431L73.3271 41.6603L73.1583 41.5398L72.9577 41.406L72.7658 41.2689L72.4828 41.1072L72.2234 40.8911L72.131 40.8251L71.8635 40.6913L71.5952 40.4997L71.4014 40.389L71.1693 40.2439L70.9284 40.1234L70.6322 39.9542L70.4001 39.8091L70.2271 39.7226L69.9867 39.6158L69.6668 39.7757L69.3992 39.9429L69.1317 40.0767L68.8996 40.2218L68.6034 40.391L68.4041 40.4906L68.2041 40.6335L67.97 40.7673L67.5018 41.1017L67.2677 41.2355L67.1411 41.3259L66.8818 41.542L66.6477 41.6758L66.2864 41.9769L66.0857 42.1107L65.6843 42.4451L65.5408 42.5408L65.4307 42.6509L65.166 42.8715L64.9987 43.0053L64.7981 43.1725L64.6842 43.2636L64.3498 43.5981L64.248 43.6795L64.1142 43.8467L63.8815 44.0328L63.1298 44.7845L62.9961 44.9518L62.6114 45.3364L62.5111 45.4702L62.2435 45.7377L62.1432 45.8715L62.0094 46.0053L61.9091 46.1391L61.675 46.3732L61.5746 46.507L61.4743 46.6073L61.374 46.7411L61.2736 46.8414L61.1733 46.9752L60.8723 47.2762L60.7719 47.41L60.601 47.5809L60.4498 47.8077L60.2291 47.9548L60.0819 48.1756L59.8552 48.3268L59.5876 48.5943L59.4873 48.6612L59.32 48.8284L59.2197 48.8953L59.1528 48.9622L58.8518 49.1629L58.7849 49.2298L58.3929 49.4911L58.2926 49.5246L58.1816 49.5985L58.1147 49.632L57.8243 49.8256L57.6237 49.8925L57.5233 49.9594L57.2558 50.0486L57.1889 50.0931L56.7422 50.242L56.6084 50.2755L56.5869 50.2827L56.4708 50.3601L56.1402 50.4427L56.0398 50.4762L55.4027 50.6355H55.2995L55.1463 50.6661L54.6112 50.7999L54.444 50.8333L54.3102 50.8668L54.143 50.9002L54.0092 50.9337L52.4453 51.2464L52.3811 51.2571L52.2139 51.324L51.8126 51.3909L51.6454 51.4578L51.4007 51.4986L51.2 51.5655L50.9994 51.5989L50.598 51.7327L50.365 51.7715L50.2443 51.806L49.8429 51.9398L49.6088 52.0067L49.4081 52.0736L49.2343 52.1232L49.0303 52.2107L48.8296 52.2776L48.5654 52.3908L48.3313 52.4577L47.863 52.6584L47.6289 52.7253L47.3275 52.8544L47.0631 53.0055L46.7148 53.1361L46.5917 53.1889L46.3273 53.34L46.0598 53.4403L45.8944 53.5348L45.6268 53.6686L45.3927 53.8024L45.1517 53.9229L44.9196 54.0679L44.6235 54.2371L44.3825 54.3576L44.2149 54.4624L43.9808 54.6296L43.6796 54.8179L43.6789 54.8242V55.4345L43.6455 55.7355V56.4384L43.6789 56.7394V57.2976L43.7124 57.5652V57.8662L43.7793 58.4013V58.6688L43.7995 58.8304L43.8329 59.0644L43.8663 59.332L43.8998 59.5661L43.9205 59.7316L43.9837 59.9529L44.0336 60.3019L44.067 60.5694L44.0841 60.6887L44.1461 60.906L44.1965 61.208L44.2178 61.3576L44.2799 61.5749L44.3133 61.7755L44.3478 61.8962L44.4417 62.1779L44.4752 62.3786L44.5421 62.5792L44.5755 62.7799L44.7093 63.1813L44.7427 63.3819L44.7583 63.4286L44.8692 63.7058L44.9026 63.9065L44.9604 64.051L45.0026 64.2618L45.0258 64.3316L45.1276 64.5861L45.1598 64.7469L45.2824 64.9921L45.3283 65.2215L45.3952 65.3887L45.4162 65.4938L45.4831 65.6276L45.5165 65.7948L45.5672 65.8961L45.6159 66.0911L45.6828 66.2583L45.7344 66.4647L45.8013 66.5984L45.9946 67.3715L46.028 67.4719L46.0949 67.7394L46.1283 67.8398L46.1618 67.9735L46.1952 68.0739L46.2876 68.4435V68.5183L46.3545 68.719V68.9531L46.388 69.0534V69.2875L46.4214 69.3879V70.679L46.388 70.7793V71.0135L46.3545 71.1138V71.1552L46.3211 71.289V71.3893L46.2287 71.7589L46.2207 71.7827V71.8575L46.1283 72.2271L46.0949 72.3275L45.9611 72.8626L45.8756 73.1192L45.8347 73.2009L45.7497 73.541L45.6828 73.7082L45.6341 73.9032L45.5834 74.0045L45.55 74.1717L45.4831 74.3055L45.4497 74.4727L45.3828 74.6065L45.3617 74.7116L45.2815 74.9123L45.248 75.0461L45.1276 75.347L45.1029 75.4707L45.036 75.6713L44.9938 75.8822L44.8921 76.1366L44.8688 76.2064L44.8353 76.3737L44.7248 76.7052L44.7019 76.7624L44.6758 76.9191L44.5421 77.3204L44.5086 77.5211L44.4473 77.7051L44.4138 77.9392L44.347 78.1398L44.3135 78.3739L44.2466 78.5746L44.2178 78.7762L44.1509 79.0103L44.0841 79.4785L44.0172 79.7126L43.9332 80.3L43.8663 80.8352L43.8329 81.0694L43.7458 81.7659V82.0335L43.702 82.3838L43.6789 82.5917V83.1706L43.6455 83.4382V84.4317L43.6789 84.7327V85.0671L43.6921 85.1858L43.8805 85.3035L44.1146 85.4707L44.2822 85.5755L44.5914 85.7301L44.8255 85.8973L45.2924 86.1307L45.5266 86.2646L45.794 86.3983L46.0282 86.5321L46.2188 86.6274L46.4914 86.7442L46.6952 86.8607L46.882 86.9308L48.2309 87.5089L48.465 87.5758L48.6992 87.6761L48.9761 87.7552L49.1767 87.8555L49.5419 87.9599L49.7426 88.0268L49.9767 88.0936L50.481 88.2617L50.7151 88.2952L51.1331 88.4345L51.3778 88.4753L51.545 88.5422L51.9464 88.6091L52.1136 88.676L52.1777 88.6867L52.3449 88.7201L52.6822 88.7763L52.8721 88.8523L53.9423 89.0664L54.0762 89.0998L54.2433 89.1332L54.3771 89.1667L54.5303 89.1973H54.6306L54.9791 89.267L55.7388 89.457L55.8392 89.4904L56.1067 89.5573L56.207 89.5907L56.3409 89.6242L56.4412 89.6576L56.5749 89.6911L56.8316 89.7766L56.9653 89.8435L57.3561 89.9737L57.4564 90.0406L57.6571 90.1075L57.7574 90.1744L57.8578 90.2079L58.0585 90.3416L58.1588 90.3751L58.3595 90.5089L58.6056 90.5909L58.8184 90.8037L59.019 90.9374L59.0859 91.0043L59.2866 91.1381L59.4538 91.3053L59.5542 91.3722L59.8217 91.6398L60.0485 91.791L60.1555 91.9515L60.1896 91.9742L60.5007 92.2853L60.5676 92.3856L60.9392 92.7572L61.0395 92.891L61.2402 93.0917L61.3405 93.2255L61.4409 93.3258L61.5412 93.4596L61.6415 93.5599L61.7419 93.6937L61.8756 93.8275L61.976 93.9613L62.2101 94.1954L62.3104 94.3291L62.7118 94.7305L62.8622 94.9311L62.9292 95.0148L63.0788 95.1645L63.3116 95.3506L63.4977 95.5834L63.8146 95.9003L64.0473 96.0864L64.2335 96.3191L64.2829 96.3685L64.4501 96.5023L64.6173 96.6695L64.7312 96.7606L64.9959 96.9812L65.1524 97.1377L65.2663 97.2288L65.6674 97.5631L65.8349 97.6971L66.146 97.9563L66.3801 98.0901L66.7814 98.4246L67.0156 98.5583L67.275 98.7745L67.4014 98.8648L67.6356 98.9986L67.8697 99.1658L68.1038 99.2996L68.3038 99.4425L68.5713 99.5763L68.8054 99.7435L69.2989 99.9902L69.5665 100.157L70.0147 100.382L70.2663 100.224L70.8014 99.9568L71.069 99.7895L71.2949 99.6766L71.4949 99.5337L71.7693 99.3769L72.0369 99.2097L72.2307 99.0989L72.4226 98.9619L72.6233 98.828L73.0915 98.4936L73.2922 98.3598L73.4609 98.2394L73.6802 98.0566L73.8809 97.9227L74.2822 97.5883L74.4258 97.4926L74.5359 97.3825L74.8006 97.1619L74.9145 97.0708L75.1281 96.8572L75.3288 96.7234L75.6168 96.4354L75.7185 96.354L75.8523 96.1868L76.085 96.0006L76.7029 95.3827L76.8367 95.2155L77.4889 94.5633L77.5893 94.4295L77.723 94.2957L77.8234 94.1619L77.9571 94.0282L78.0575 93.8944L78.2916 93.6603L78.4923 93.3927L78.927 92.9579L78.9381 92.9432L79.0645 92.7535L79.5662 92.2519L79.7174 92.0251L79.8779 91.9181L79.985 91.7575L80.2118 91.6063L80.4793 91.3388L80.5796 91.2719L80.6465 91.205L80.7469 91.1381L80.8472 91.0378L80.9476 90.9709L81.0144 90.904L81.4064 90.6427L81.4399 90.6315L81.7743 90.4085L81.8747 90.3751L82.0753 90.2413L82.1757 90.2079L82.276 90.141L82.4767 90.0741L82.577 90.0072L82.7777 89.9403L82.9272 89.8406L83.2578 89.758L83.4585 89.6911L83.5923 89.6576L83.6926 89.6242L83.9601 89.5573L84.0605 89.5238L85.3553 89.2001L85.5225 89.1667L85.6564 89.1332L85.8235 89.0998L85.9574 89.0663L86.3058 88.9967H86.4731L86.5258 88.9861L86.6931 88.9192L87.5213 88.7536L87.722 88.7201L87.7735 88.7098L87.9742 88.6429L88.2571 88.5863L88.3652 88.5683L88.5659 88.5014L88.7666 88.468L89.1679 88.3342L89.3686 88.3008L89.6889 88.194L89.923 88.1271L90.3243 87.9933L90.7925 87.8595L90.9028 87.8228L91.1671 87.7095L91.4012 87.6426L91.6353 87.5423L91.8694 87.4754L93.1458 86.9284L93.4133 86.7946L93.609 86.7108L93.8734 86.5597L94.1409 86.4594L94.3063 86.3649L94.5739 86.2311L94.7459 86.1328L95.0489 85.9434L95.2748 85.8304L95.509 85.6632L95.8182 85.5086L95.9857 85.4039L96.2199 85.2366L96.3142 85.1777L96.3211 85.1089V84.4986L96.3545 84.1976V83.4947L96.3211 83.1937V82.6355L96.2876 82.3679V82.1004L96.1873 81.2977V81.0301L96.1671 80.8686L96.1337 80.6345L96.113 80.4691L96.0461 80.235L95.9999 79.8654L95.9494 79.5119L95.8825 79.2778L95.8156 78.8096L95.7536 78.5924L95.7201 78.3917L95.6532 78.1576L95.6252 77.9893L95.5527 77.7719L95.5193 77.5378L95.3911 77.1532L95.365 76.9965L95.3421 76.9393L95.2238 76.5846L95.1977 76.428L95.1748 76.3707L95.0643 76.0392L95.0396 75.9156L94.9636 75.7256L94.9302 75.5249L94.8055 75.2133L94.7845 75.1082L94.7797 75.0987L94.6383 74.745L94.6048 74.5778L94.5513 74.444L94.5179 74.3103L94.451 74.143L94.4328 74.0704L94.366 73.9367L94.2838 73.6079L94.2828 73.6032L94.2322 73.5019L94.0984 72.9667L94.0576 72.8851L93.972 72.6285L93.9051 72.3609L93.8127 72.0837V71.9165L93.8048 71.8927L93.7124 71.5231V71.4482L93.6455 71.2476V71.0883L93.612 70.9545V70.7538L93.5786 70.6201V70H96.2876ZM40.6689 82.9207V82.425L40.7127 82.0309L40.7358 81.8461V81.5785L40.8494 80.6698L40.8828 80.4357L40.9497 79.9006L41.0665 79.0834L41.1333 78.8493L41.2002 78.381L41.2671 78.1469L41.3052 77.8802L41.3721 77.6796L41.4056 77.4455L41.4724 77.2448L41.5059 77.0107L41.5784 76.7933L41.6118 76.5926L41.7456 76.1913L41.7864 75.9466L41.8972 75.6694L41.9205 75.5996L41.954 75.4324L42.0645 75.1008L42.0965 75.0209L42.1212 74.8973L42.1881 74.6966L42.2302 74.4857L42.3774 74.1178L42.4109 73.984L42.4644 73.8503L42.5102 73.6209L42.5771 73.4871L42.6106 73.3199L42.6775 73.1861L42.7109 73.0189L42.794 72.8526L42.8122 72.78L42.8791 72.6128L42.9947 72.1503L43.0783 71.9831L43.2028 71.4853L43.2107 71.4614V71.3866L43.3031 71.017L43.311 70.9932V70.9184L43.3445 70.7846V70.6253L43.3779 70.525V70.2909L43.4114 70.1906V69.8763L43.3779 69.776V69.5419L43.3445 69.4416V69.1819L43.2776 68.9144V68.8395L43.2697 68.8157L43.2362 68.682L43.2028 68.5816L43.1359 68.3141L43.1024 68.2137L42.9613 67.649L42.8944 67.5153L42.8122 67.1865L42.7453 67.0193L42.7272 66.9467L42.644 66.7804L42.6106 66.6132L42.5437 66.4794L42.4978 66.25L42.4309 66.0828L42.4099 65.9778L42.4051 65.9683L42.2637 65.6146L42.2302 65.4474L42.1982 65.3674L42.0877 65.0359L42.063 64.9123L41.987 64.7223L41.9536 64.5216L41.9307 64.4644L41.8125 64.1097L41.779 63.9091L41.6452 63.5077L41.6118 63.3071L41.5449 63.1064L41.5115 62.9057L41.4716 62.786L41.3723 62.4385L41.3388 62.2379L41.2671 61.9868L41.2216 61.6683L41.2051 61.569L41.1333 61.318L41.0835 60.969L41.0501 60.7014L41.033 60.5822L40.9625 60.3353L40.9163 59.9656L40.8828 59.7315L40.8494 59.464L40.8159 59.2299L40.7692 58.8562V58.5887L40.7023 58.0536V57.7526L40.6689 57.485V57.0782L40.5271 57.22L40.0298 57.6552L39.7957 57.9228L39.4903 58.1899L39.2936 58.3866L39.0595 58.6542L38.7919 58.9218L38.5578 59.1893L38.3211 59.426L38.1178 59.6874L37.8512 59.9921L37.6125 60.2606L36.9638 61.0947L36.7296 61.4292L36.4955 61.7302L36.3135 61.9903L36.1128 62.3247L35.6623 62.9682L35.4617 63.3361L35.2276 63.6706L34.2773 65.4128L34.1011 65.7652L33.9338 66.1331L33.7439 66.513L33.1029 68.0513L32.9554 68.4348L32.8217 68.8361L32.6607 69.2545L32.4236 70.0251L32.5877 70.5583L32.7549 70.9597L32.8948 71.4143L33.036 71.7814L33.677 73.3198L33.8777 73.7211L34.0345 74.0976L34.2104 74.42L34.4355 74.8703L34.5706 75.1674L34.7752 75.489L34.9854 75.8742L35.186 76.2087L35.3772 76.5592L35.5947 76.901L35.7784 77.207L36.0125 77.5415L36.2131 77.8759L36.3952 78.136L36.6293 78.437L36.8634 78.7715L37.5122 79.6056L37.7797 79.9066L38.0175 80.2122L38.2152 80.4383L38.223 80.4471L38.4866 80.7436L38.6916 80.9779L38.9592 81.2455L39.1933 81.513L39.39 81.7097L39.6953 81.9769L39.9295 82.2445L40.4268 82.6796L40.6609 82.9137L40.6689 82.9207ZM31.2391 64.7874L31.3839 64.4689L31.609 64.0186L32.6654 62.0819L32.8995 61.7475L33.1002 61.3796L33.5862 60.6853L33.7869 60.3509L34.073 59.942L34.3072 59.641L34.5413 59.3066L35.2972 58.3347L35.5937 58.0011L35.7952 57.7708L36.0602 57.4301L36.3586 57.1317L36.5927 56.8642L36.8602 56.5966L37.0943 56.3291L37.4328 55.9907L37.6625 55.7896L37.8966 55.5221L38.4695 55.0208L38.7439 54.7465L39.0516 54.5156L39.3192 54.2815L39.8141 53.9103L40.0482 53.6762L40.4525 53.373L40.7201 53.2058L40.7966 53.1484L40.811 53.0193L40.8844 52.2854L40.9513 51.9509L40.9847 51.6165L41.4106 49.4868L41.5296 49.0506L41.615 48.7658L41.6782 48.45L41.7972 48.0138L41.9153 47.6199L42.0491 47.252L42.1495 46.9175L42.4399 46.1187L42.5737 45.7843L42.8531 45.0159L43.0302 44.6262L43.164 44.2918L43.7155 43.0784L43.9162 42.744L44.0706 42.4043L44.7136 41.2254L44.9404 40.8475L45.392 40.1378L45.6086 39.7408L45.8986 39.3265L46.0976 39.0528L45.7842 39.1872L45.3494 39.3544L44.9689 39.5174L44.5523 39.7417L44.0969 39.952L43.6286 40.1861L43.2146 40.3772L42.8588 40.5687L42.424 40.8363L41.9677 41.082L41.5371 41.328L40.7117 41.836L40.3442 42.081L39.0741 42.9603L38.6728 43.2613L38.2698 43.5403L37.8974 43.8506L37.4626 44.185L36.7099 44.8124L35.5561 45.8699L35.1882 46.2378L34.811 46.5836L34.0974 47.3622L33.696 47.7635L33.3742 48.1145L33.0589 48.4929L32.9637 48.6055L32.929 48.7165L32.7233 49.2649L32.5694 49.7267L32.4194 50.2066L32.2822 50.7555L32.115 51.2572L32.0061 51.6927L31.9036 52.2394L31.7698 52.7411L31.6716 53.2646L31.5475 53.7611L31.4866 54.2182L31.3772 54.8013L31.2859 55.258L31.1643 56.2305L31.1309 56.7321L31.064 57.2673L31.0339 57.7193L31.0335 57.7255L31.0002 58.2575L30.9365 59.214V61.1539L31.033 62.6018L31.0335 62.6089L31.0667 63.0736L31.097 63.5293L31.1635 64.0274L31.1964 64.4886L31.2391 64.7874ZM50.1343 38.6743L49.8925 39.0068L49.3574 39.6757L48.8506 40.3725L48.6165 40.707L48.3489 41.0749L48.1707 41.3295L47.9859 41.6682L47.5011 42.4301L47.3265 42.721L46.7655 43.7496L46.5855 44.1456L46.3848 44.4801L45.933 45.4741L45.7992 45.8086L45.6419 46.1547L45.3862 46.8578L45.2524 47.1923L45.0078 47.8651L44.9074 48.1995L44.7736 48.5674L44.6911 48.8424L44.6094 49.142L44.5388 49.4951L44.4236 49.8792L44.3419 50.1787L44.1709 51.0337L44.206 51.0137L44.4735 50.8799L44.7764 50.7069L45.0439 50.6065L45.2478 50.49L45.5929 50.3421L45.7797 50.2721L45.9836 50.1556L46.6186 49.8834L46.8527 49.8166L47.3209 49.6159L47.555 49.549L47.759 49.4616L47.9597 49.3947L48.2239 49.2814L48.5183 49.1973L48.719 49.1304L48.9531 49.0636L49.3544 48.9298L49.7019 48.8305L49.8702 48.8024L50.2716 48.6687L50.4722 48.6352L50.6729 48.5683L50.8296 48.5422L50.9968 48.4753L51.3981 48.4084L51.5653 48.3415L51.9026 48.2853L53.3487 47.9961L53.4824 47.9627L53.6496 47.9292L53.7834 47.8958L53.9507 47.8623L54.4858 47.7286L54.5962 47.7065L54.8394 47.6254H55.0321L55.1977 47.584L55.2192 47.5769L55.3353 47.4995L55.6659 47.4168L55.7662 47.3834L55.8637 47.359L56.0042 47.2654L56.2182 47.2118L56.2894 47.1644L56.4901 47.0975L56.601 47.0235L56.6679 46.9901L56.9583 46.7965L56.9917 46.7853L57.2352 46.6231L57.302 46.5562L57.4024 46.4893L57.5696 46.322L57.6699 46.2552L58.4923 45.4328L58.5926 45.299L58.8936 44.998L58.994 44.8643L59.0943 44.7639L59.1946 44.6302L59.295 44.5298L59.3953 44.396L59.6294 44.1619L59.7297 44.0281L59.8635 43.8944L59.9638 43.7606L60.2314 43.493L60.3317 43.3592L60.7498 42.9412L60.8835 42.774L61.871 41.7865L61.9727 41.7052L62.1065 41.5379L62.3392 41.3518L62.6737 41.0173L62.8942 40.8409L63.0949 40.6736L63.2621 40.5399L63.3988 40.426L63.6231 40.2017L63.8809 40.0298L64.2822 39.6954L64.4829 39.5616L64.9242 39.1938L65.1584 39.06L65.3003 38.9417L65.642 38.6976L65.8762 38.5638L66.3444 38.2294L66.4813 38.1511L66.4598 38.1447L66.1254 38.0109L65.2044 37.7346L64.9049 37.6529L64.5704 37.586L64.2025 37.4857L63.8681 37.4188L63.5129 37.3219L62.4842 37.1349L62.0828 37.068L61.7757 37.0122L61.3743 36.9787L61.0065 36.9118L59.1347 36.7559H58.3321L57.9307 36.7224H57.215L56.7802 36.7559H56.3502L56.0065 36.7845L54.3196 36.9143L52.6289 37.1744L52.2159 37.2334L51.3971 37.4223L51.2044 37.4636L51.0086 37.7029L50.1343 38.6743ZM55.1351 33.8326L55.7613 33.7845L55.7709 33.7837L56.225 33.7458H56.6646L57.0994 33.7124H58.0559L58.4572 33.7458H59.2599L61.4016 33.9243L61.7695 33.9912L62.1708 34.0246L62.5995 34.1026L63.0008 34.1695L64.1794 34.3837L64.56 34.4876L64.8945 34.5544L65.2624 34.6548L65.5968 34.7217L66.033 34.8406L67.1188 35.1664L67.4532 35.3001L67.7453 35.3877L68.1099 35.5093L68.4443 35.6431L68.7723 35.7524L69.9957 36.2961L70.2605 36.1637L70.6187 36.0045L71.0206 35.8437L71.2946 35.7524L71.6165 35.6093L71.951 35.509L72.252 35.3752L74.0339 34.8406L74.4018 34.7403L74.7986 34.6213L75.1852 34.551L75.5531 34.4506L75.9719 34.3745L76.2583 34.3172L76.6725 34.2136L77.1547 34.126L77.5226 34.0925L77.8353 34.0357L78.3085 33.9568L78.7601 33.9192L78.7713 33.9182L79.1336 33.8853L80.807 33.7458H81.2131L81.6479 33.7124H82.5662L83.0009 33.7458H83.8371L84.8292 33.8221L84.59 33.6264L83.8461 33.0685L83.0435 32.5334L82.664 32.2489L82.2649 32.0032L81.8997 31.7598L81.489 31.5386L81.0381 31.2611L80.6075 31.0151L80.2096 30.8008L79.7413 30.5667L79.3065 30.3326L78.8983 30.1285L78.43 29.9278L77.9783 29.7019L77.5177 29.5176L77.0494 29.317L76.5478 29.1163L76.0796 28.9157L75.6359 28.7382L74.6881 28.4222L74.1529 28.255L73.6815 28.0979L73.2356 27.979L72.6696 27.8375L72.1774 27.6837L71.6852 27.5914L71.1501 27.4576L70.615 27.3573L70.0799 27.2235L70.078 27.2231L69.6675 27.3001L69.0989 27.4005L68.6274 27.4889L68.1691 27.6111L67.1297 27.8709L66.6058 28.0346L66.1179 28.1648L65.6464 28.3219L65.1113 28.4891L64.665 28.6379L64.1782 28.8326L63.71 28.9998L62.7499 29.3839L62.3392 29.5599L61.871 29.794L61.4027 29.9947L60.058 30.667L59.6232 30.9011L59.1939 31.1158L58.3656 31.6255L57.9643 31.8596L57.5792 32.0966L57.1669 32.3821L56.388 32.9013L55.6099 33.4849L55.242 33.7525L55.1351 33.8326ZM78.4162 26.6279L78.6696 26.7365L79.2124 26.9536L79.6971 27.196L80.1653 27.3966L80.6935 27.6607L81.1283 27.8948L81.5965 28.129L82.068 28.3829L82.574 28.672L82.9926 28.9296L83.4515 29.1767L83.889 29.4684L84.3594 29.7578L84.7826 30.0753L85.5853 30.6104L86.4468 31.2565L86.8147 31.5575L87.2161 31.8585L88.4024 32.8292L88.7369 33.1636L89.1048 33.4647L90.1892 34.5491L90.3627 34.7419L90.7589 34.8333L91.1824 34.9636L91.6506 35.0639L92.1803 35.2269L92.6485 35.3941L93.0833 35.5279L93.6002 35.7125L94.0351 35.8798L94.5032 36.047L94.9815 36.2309L95.4948 36.4509L96.3644 36.8522L96.8326 37.0529L97.3283 37.2817L97.7838 37.5269L98.252 37.7611L99.1799 38.2607L99.6146 38.5282L100.049 38.7624L100.556 39.0739L100.991 39.375L101.425 39.6425L102.352 40.2839L102.753 40.5849L103.188 40.8859L103.328 40.9906L103.189 40.759L102.875 40.3199L102.54 39.8182L101.571 38.4613L101.242 38.0417L100.874 37.6068L100.526 37.1642L100.124 36.7294L99.7566 36.2612L98.6339 35.045L98.1992 34.6437L97.7978 34.2089L96.9928 33.4658L96.5246 33.0645L96.0898 32.6631L95.667 32.3007L95.1988 31.9328L94.7305 31.5315L93.8655 30.8518L93.3846 30.5312L92.9807 30.235L92.622 30.0662L92.1209 29.847L90.9837 29.3787L90.484 29.1601L88.2994 28.3891L87.2117 28.0691L86.6495 27.913L86.0699 27.7766L85.5013 27.6094L85.0213 27.4964L84.4193 27.3961L83.8438 27.2607L83.3312 27.1702L83.3171 27.1677L82.7648 27.0758L82.1892 27.008L81.6254 26.9086L81.0664 26.8464L80.5367 26.7841L79.973 26.751L79.371 26.6841L78.4162 26.6279ZM76.7985 23.5786L75.9177 23.4318L75.2823 23.3649L74.6803 23.2646L74.1291 23.2066L73.4893 23.1729L72.8873 23.106L71.66 23.0414L71.6557 23.0412L71.0954 23.01H69.3038L68.6683 23.0435H68.0351L67.5119 23.0725L66.8743 23.1397L66.2432 23.1729L65.6803 23.2354L65.0856 23.298L64.4836 23.3984L63.8482 23.4652L63.3223 23.5529L63.2002 23.5786H63.7566L64.3252 23.612H64.8937L66.6929 23.7179L67.2662 23.7896L67.277 23.7909L68.4087 23.924L68.9868 23.9963L69.5554 24.0966L70.074 24.1614L70.7765 24.0297L71.9538 23.8912L71.9646 23.8899L72.4943 23.8237L73.1119 23.751L73.6805 23.7176L74.2931 23.6455H74.8722L76.0093 23.5786H76.7985ZM49.8684 29.0318L49.2999 29.2659L48.7313 29.4666L48.2136 29.6797L47.7124 29.899L47.1788 30.1501L47.0111 30.234L46.9164 30.2971L46.462 30.6303L45.9673 31.019L45.4924 31.3356L45.0688 31.6987L44.6006 32.0666L44.1531 32.4502L43.7219 32.8149L43.2747 33.1983L42.8824 33.5604L42.4476 33.9952L42.035 34.3761L41.6336 34.8109L41.1989 35.2122L40.459 36.0137L40.109 36.4273L39.7077 36.8955L39.3605 37.3058L38.295 38.662L37.0121 40.458L36.7301 40.9281L36.7101 40.9591L36.9125 40.819L37.3138 40.518L38.6525 39.5912L39.0876 39.3011L40.0013 38.7389L40.5072 38.4498L40.9205 38.2272L41.3553 37.9597L41.8691 37.683L42.3246 37.4728L42.7928 37.2387L43.2069 37.0476L43.6599 36.8036L44.2159 36.5654L44.6506 36.3981L45.1189 36.1975L45.5971 36.0135L46.0653 35.8463L46.5001 35.6791L47.017 35.4945L47.9331 35.2126L48.4014 35.0788L48.8361 34.945L49.3563 34.7964L49.6256 34.7343L50.3992 33.9606L50.7964 33.5996L51.1042 33.3225L51.4638 32.963L51.8595 32.6392L52.2273 32.3048L53.0181 31.6579L53.4537 31.3312L53.8215 31.0636L54.6488 30.4432L55.4752 29.8922L55.9325 29.5756L56.417 29.2775L56.8184 29.0434L57.7292 28.4828L58.2363 28.2293L58.6711 27.9952L60.1357 27.2629L60.604 27.0622L61.0722 26.8281L61.479 26.6537L61.4465 26.6555H60.9244L60.3974 26.7175L59.7953 26.751L58.1716 26.942L57.5696 27.0423L57.0082 27.1084L56.5149 27.1954L55.9129 27.3292L55.3535 27.4279L54.8172 27.5541L54.2152 27.6879L53.696 27.81L51.4999 28.456L49.8684 29.0318ZM106.78 40.8865L106.929 41.1646L107.23 41.6663L107.802 42.7385L108.036 43.2402L108.303 43.7419L108.562 44.2965L108.813 44.8703L109.007 45.3551L109.248 45.8715L109.464 46.4461L109.68 46.9869L109.715 47.0991L110.068 47.5161L110.774 48.4346L111.109 48.9029L111.443 49.3376L111.815 49.8575L112.116 50.3258L112.464 50.8129L112.784 51.3463L113.085 51.8144L113.406 52.3498L113.579 52.652L113.405 52.1304L112.964 51.0605L112.697 50.4585L112.469 49.9049L112.225 49.3863L111.973 48.8827L111.663 48.2983L111.404 47.7471L111.147 47.29L110.802 46.7385L110.485 46.1391L110.21 45.6511L109.906 45.1644L109.596 44.6988L109.584 44.681L109.222 44.1548L108.894 43.662L108.882 43.6442L108.539 43.1458L107.85 42.207L107.449 41.7388L107.081 41.2371L106.78 40.8865ZM114.707 63.1564L114.212 61.4739L114.057 60.9766L113.669 59.8795L113.488 59.3956L113.263 58.8825L113.014 58.2766L112.84 57.8117L112.591 57.3457L112.349 56.7925L112.09 56.2736L111.864 55.7899L111.788 55.6474L111.793 55.6874L111.794 55.6996L111.867 56.2414L111.9 56.7766L111.967 57.2782L112.003 57.8597L112.004 57.866L112.04 58.4114V58.9162L112.074 59.4514V61.0534L112.04 61.5552V62.0568L111.966 63.1667L111.899 63.6349L111.866 64.1366L111.793 64.6471L111.791 64.661L111.725 65.1557L111.592 66.0852L111.59 66.0991L111.517 66.6455L111.402 67.1831L111.302 67.6178L110.99 69.0754L110.722 69.9449L110.714 69.9803L110.923 70.6571L111.135 71.6466L111.235 72.0811L111.549 73.5483L111.625 74.075L111.691 74.5698L111.692 74.5837L111.825 75.5132L111.9 76.0711L111.936 76.6152L111.936 76.6223L111.97 77.087L112.074 78.6455V80.7859L112.003 81.8392L111.97 82.3712L111.97 82.3744L111.937 82.8698L111.936 82.876L111.9 83.4576L111.828 83.9994L111.826 84.0116L111.781 84.373L111.998 83.9091L112.257 83.4236L112.483 82.9066L112.75 82.3714L112.953 81.9087L113.153 81.3736L113.382 80.852L113.569 80.3214L113.77 79.7862L113.97 79.2177L114.157 78.7201L114.64 77.0778L114.796 76.5159L114.932 75.9361L115.086 75.4153L115.179 74.8541L115.32 74.2555L115.324 74.2372L115.445 73.6926L115.54 73.1234L115.633 72.5953L115.699 72.0004L115.8 71.3984L115.857 70.8784L115.891 70.2764L115.925 69.9666L115.729 68.2026L115.728 68.193L115.667 67.67L115.38 65.9485L115.255 65.4192L115.124 64.8263L115.119 64.8081L114.863 63.7183L114.707 63.1564ZM113.517 87.4713L113.252 87.8844L112.951 88.3862L112.65 88.8544L112.349 89.3562L112.001 89.8974L111.644 90.3613L110.975 91.2978L109.934 92.6511L109.675 92.9577L109.564 93.2528L109.363 93.7543L109.163 94.2896L108.947 94.8287L108.696 95.4025L108.203 96.4588L107.668 97.4621L107.418 97.9983L107.096 98.5344L106.828 99.0361L106.774 99.1261L106.934 98.9396L107.312 98.4682L107.32 98.4578L107.664 98.0196L108.739 96.5533L109.082 96.0548L109.094 96.037L109.423 95.5442L109.778 95.0275L110.077 94.5495L110.378 94.0144L110.712 93.4792L110.987 92.9913L111.288 92.4227L111.571 91.9185L112.091 90.8145L112.358 90.2792L112.611 89.7419L112.864 89.1737L113.304 88.1037L113.505 87.5017L113.517 87.4713ZM98.4463 105.144L99.9906 103.471L100.359 103.003L100.76 102.568L101.07 102.174L101.42 101.684L101.788 101.249L102.072 100.851L102.407 100.349L103.055 99.4417L103.316 99.0062L103.052 99.2259L102.151 99.8499L101.717 100.175L101.258 100.458L100.823 100.759L99.8822 101.338L99.4474 101.572L98.9932 101.852L98.4861 102.105L97.5958 102.585L97.1403 102.795L96.6721 103.029L96.1972 103.248L95.6838 103.468L95.2684 103.628L94.8171 103.836L94.3026 104.02L93.8678 104.187L93.3995 104.354L92.9193 104.539L92.4014 104.687L91.9665 104.821L91.4983 104.955L91.0265 105.1L90.5769 105.204L90.339 105.272L90.3299 105.28L90.0554 105.585L89.3055 106.335L88.9375 106.636L88.6031 106.97L88.2075 107.294L87.8396 107.628L86.681 108.576L86.2208 108.921L85.846 109.171L85.4568 109.49L84.9949 109.774L84.6154 110.059L84.1565 110.364L82.7919 111.204L82.3572 111.438L81.9029 111.718L81.3957 111.971L80.961 112.206L79.9646 112.704L79.4964 112.904L79.0282 113.138L78.531 113.352L79.1783 113.313L79.1807 113.313L79.7827 113.28L80.3027 113.249L80.8275 113.188L80.8323 113.187L81.3913 113.125L81.955 113.025L82.5307 112.958L83.0829 112.866L83.0971 112.863L84.1874 112.671L84.7389 112.548L84.7571 112.544L86.4153 112.154L86.978 111.998L88.0652 111.678L88.6339 111.477L89.2024 111.31L90.2654 110.935L90.7829 110.722L91.3182 110.488L92.4196 110.034L92.94 109.774L93.0486 109.726L93.184 109.636L93.6384 109.303L94.1066 108.935L94.6082 108.567L95.478 107.884L95.8892 107.504L96.3575 107.103L96.7922 106.701L97.2376 106.32L97.6193 105.938L98.0541 105.537L98.4463 105.144ZM76.7651 116.421H76.3796L75.7777 116.388H75.2038L74.6273 116.352L74.6218 116.352L73.4464 116.282L72.8779 116.216L72.3038 116.182L71.6821 116.104L71.1136 116.004L70.5784 115.937L70.0279 115.84L69.8564 115.87L69.3212 115.937L68.7527 116.037L68.1746 116.109L67.6114 116.176L67.6006 116.177L67.0273 116.249L64.6596 116.388H64.0911L63.5225 116.421H63.3176L63.6525 116.474L64.2481 116.574L64.2608 116.576L64.8495 116.669L65.4084 116.731L65.4171 116.732L66.0482 116.798L66.6111 116.861L67.8383 116.925L67.8427 116.925L68.4403 116.959L69.0362 116.99H70.83L72.057 116.925L72.0614 116.925L72.659 116.892L72.6634 116.892L73.2551 116.861L73.8181 116.798L75.0846 116.665L75.0933 116.664L75.6522 116.602L76.2409 116.509L76.2536 116.507L76.7651 116.421ZM53.9902 112.247L54.5831 112.379L55.6879 112.639L56.2006 112.73L56.2147 112.732L56.8097 112.831L57.9064 113.025L58.4605 113.086L58.4653 113.087L59.5976 113.22L59.6073 113.221L60.1607 113.282L61.2541 113.347L61.5011 113.361L61.3919 113.314L60.8901 113.08L60.4033 112.871L58.9387 112.139L58.5039 111.905L58.0357 111.67L57.5425 111.405L56.1779 110.565L55.7765 110.298L55.3418 110.03L54.8829 109.724L54.4816 109.423L54.0802 109.155L53.6201 108.81L52.8842 108.208L52.4829 107.907L52.0324 107.539L51.6979 107.204L51.3607 106.928L50.9971 106.601L50.5999 106.24L49.8777 105.518L49.6633 105.28L49.6616 105.279L49.6238 105.27L49.1557 105.137L48.7208 105.036L48.2007 104.888L47.7194 104.74L47.2511 104.572L46.799 104.433L46.3328 104.254L45.8647 104.087L45.4299 103.92L44.9154 103.736L44.4383 103.516L43.9701 103.315L43.0603 102.895L42.5921 102.661L42.1366 102.451L41.6811 102.206L41.174 101.952L40.7198 101.672L40.285 101.438L38.9091 100.592L38.4743 100.291L38.0152 100.008L37.5814 99.6827L37.1149 99.3597L36.7135 99.0253L36.6711 98.9959L36.8783 99.3414L37.5264 100.249L37.8608 100.75L38.1612 101.171L38.5126 101.618L38.8423 102.047L39.5411 102.936L39.9239 103.351L40.3066 103.803L40.3128 103.81L40.6703 104.228L41.4868 105.044L41.8677 105.457L42.2804 105.838L42.7152 106.272L43.5423 107.036L43.9652 107.398L44.4551 107.783L44.8715 108.168L45.3249 108.5L46.2614 109.236L46.7157 109.569L47.0111 109.766L47.48 110.001L48.013 110.22L48.5478 110.454L49.0658 110.667L49.6343 110.868L50.203 111.102L50.6972 111.276L51.2658 111.444L51.8343 111.644L53.4618 112.123L53.972 112.243L53.9902 112.247ZM33.1587 99.0258L33.1046 98.9357L31.9976 96.8601L31.5047 95.8039L31.2706 95.2688L31.0263 94.7453L30.8189 94.2267L30.5671 93.6511L30.3871 93.1111L30.3192 92.9302L30.2331 92.8183L29.8653 92.3835L29.1587 91.465L28.8243 90.9968L28.4898 90.562L28.1185 90.0421L27.8175 89.5739L27.483 89.1057L27.1495 88.5869L26.817 88.0327L26.5604 87.5516L26.3897 87.286L26.4281 87.4013L26.6481 87.9357L26.8823 88.5377L27.3307 89.6268L28.0944 91.2496L28.3954 91.7847L28.6629 92.3532L28.9466 92.8575L29.2313 93.3953L29.5556 93.9141L29.8566 94.4492L30.143 94.9075L30.5109 95.4092L30.8632 95.9729L31.1794 96.4472L31.5282 96.9546L31.8639 97.4123L32.2496 97.8944L32.6134 98.3575L32.6216 98.3678L32.9988 98.8393L33.1587 99.0258ZM108.742 64.7531L108.742 64.7509L108.744 64.737L108.81 64.2423L108.87 63.8233L108.903 63.3216L108.97 62.8533L109.03 61.9566V61.4549L109.064 60.9532V59.5453L109.03 59.0102V58.5116L109 58.06L109 58.0569L108.969 57.5713L108.903 57.0696L108.869 56.5345L108.808 56.0791L108.681 55.0573L108.589 54.6007L108.39 53.5393L108.387 53.5215L108.288 53.0287L108.195 52.5287L108.075 52.0492L107.941 51.547L107.815 51.0428L107.651 50.5189L107.517 50.0172L107.364 49.5259L107.21 49.0642L107.027 48.5757L106.697 48.1856L106.003 47.429L105.234 46.6598L104.888 46.2826L103.758 45.2472L103.357 44.9127L102.956 44.5448L102.203 43.9175L101.799 43.6065L101.428 43.3281L100.993 43.0272L100.591 42.7262L99.7787 42.1635L99.3439 41.896L98.9091 41.595L98.5459 41.3714L98.1111 41.1373L97.6763 40.8698L96.8651 40.4329L96.3969 40.1988L95.9827 39.9758L95.6089 39.8033L95.1406 39.6026L94.2711 39.2013L93.8879 39.037L94.0011 39.1927L94.262 39.5654L94.7586 40.3458L94.9593 40.6802L95.21 41.0743L95.8492 42.246L96.0164 42.5804L96.2304 42.9729L96.576 43.7331L96.7432 44.0676L96.9462 44.5142L97.08 44.8821L97.2373 45.2282L97.3929 45.6171L97.6833 46.4158L97.7837 46.7503L97.9239 47.136L98.0356 47.5456L98.1181 47.8205L98.2762 48.2551L98.3515 48.632L98.437 48.9168L98.5559 49.353L98.686 50.0033L98.7901 50.3504L98.8828 50.8604L98.915 51.1817L98.9643 51.4281L99.0472 51.8012L99.1156 52.486L99.1809 52.8124L99.2176 53.1423L99.4372 53.307L99.6713 53.5076L100.788 54.3451L101.062 54.6194L101.865 55.3218L102.099 55.5559L102.367 55.79L102.705 56.1284L102.906 56.3582L103.174 56.5923L103.466 56.9265L103.474 56.9354L103.737 57.2319L103.942 57.4662L104.241 57.7646L105.492 59.3735L105.726 59.7079L105.96 60.0089L106.715 61.0866L106.933 61.4495L107.167 61.8174L107.393 62.1953L108.424 64.0855L108.66 64.5572L108.742 64.7531ZM95.8587 51.0543L95.7622 50.7325L95.6247 50.045L95.543 49.7454L95.4277 49.3613L95.3693 49.0693L95.2598 48.7681L95.1416 48.3742L95.0527 48.0479L94.9254 47.6979L94.825 47.3634L94.5804 46.6906L94.4684 46.4106L94.2913 46.0209L94.1575 45.653L94.026 45.3638L93.8588 45.0294L93.5355 44.3181L93.3482 43.9747L93.181 43.6403L92.6161 42.6047L92.3986 42.2629L92.1979 41.9284L91.7581 41.2373L91.5508 40.9411L91.2637 40.5464L91.0482 40.2078L90.8099 39.9098L90.5423 39.5419L90.034 38.9066L89.733 38.5386L89.4875 38.2318L88.7736 37.4386L88.3192 37.3337L87.851 37.2668L87.4083 37.1646L86.2156 36.9812L85.7808 36.9477L85.346 36.8808L83.7215 36.7559H82.8853L82.4506 36.7224H81.7635L81.3287 36.7559H80.9322L79.4005 36.8835L79.3892 36.8844L79.027 36.9174L78.6815 36.9462L78.352 37.0011L77.9289 37.078L77.561 37.1115L77.3075 37.1576L76.9189 37.2547L76.5364 37.3312L76.2195 37.3888L75.8516 37.4892L75.5024 37.5527L75.2304 37.6343L74.8625 37.7346L73.4989 38.1437L73.6884 38.2385L74.0642 38.5069L74.2062 38.6252L74.3914 38.7311L74.6678 38.9285L74.8684 39.0622L75.1679 39.2761L75.3499 39.4278L75.5506 39.5616L75.9519 39.896L76.1526 40.0298L76.4674 40.2922L76.5776 40.4023L76.7782 40.5361L77.0025 40.7604L77.1393 40.8744L77.3598 41.0508L77.6942 41.3852L77.927 41.5714L78.0607 41.7386L78.1625 41.82L79.1499 42.8074L79.2837 42.9747L79.7017 43.3927L79.802 43.5265L79.9358 43.6602L80.0362 43.794L80.1699 43.9278L80.2055 43.9752L80.3392 44.0755L80.6047 44.4295L80.8388 44.6636L80.9392 44.7974L81.1398 44.998L81.2402 45.1318L81.4706 45.3622L81.5375 45.4626L81.9388 45.8639L81.9615 45.898L81.9956 45.9207L82.2632 46.1883L82.49 46.3395L82.5569 46.4398L82.6311 46.4893L82.698 46.5562L82.8986 46.69L82.9655 46.7568L83.1086 46.8522L83.1421 46.8634L83.3427 46.9972L83.443 47.0306L83.5434 47.0975L83.6437 47.1309L83.7441 47.1978L83.9447 47.2647L84.0159 47.3122L84.0331 47.3165L84.3901 47.4355L84.5053 47.493L84.6017 47.5171L84.702 47.5506L85.1034 47.6509L85.2037 47.6844L85.3692 47.7258H85.4668L85.8152 47.7954L86.0828 47.8623L86.25 47.8958L86.3838 47.9292L86.551 47.9627L86.6848 47.9961L87.9637 48.2519L88.3009 48.3081L88.4681 48.375L88.5322 48.3857L88.8151 48.4422L89.0158 48.5091L89.0673 48.5194L89.3606 48.5683L89.7619 48.7021L89.9626 48.7355L90.2442 48.8294L90.3649 48.8639L90.598 48.9028L90.8797 48.9967L91.1138 49.0635L91.4049 49.1606L91.639 49.2609L91.7493 49.2977L92.0436 49.3818L92.2778 49.4821L92.5547 49.5612L92.7553 49.6616L92.9467 49.7162L93.4707 49.9408L93.7382 50.0411L94.3175 50.2894L94.5213 50.4059L94.7888 50.5062L95.0532 50.6573L95.2489 50.7411L95.5934 50.9134L95.8275 51.0471L95.8604 51.0636L95.8587 51.0543Z" fill="white"/>
</svg>
