<svg width="140" height="140" viewBox="0 0 140 140" fill="none" xmlns="http://www.w3.org/2000/svg">
<rect width="140" height="140" rx="20" fill="#121212"/>
<path d="M104.8 70C104.8 73.2223 103.503 76.139 101.404 78.2483C99.3039 80.36 96.4039 81.6667 93.2 81.6667C89.9961 81.6667 87.0961 82.971 84.9988 85.0827C82.8991 87.1943 81.6 90.111 81.6 93.3333C81.6 96.5557 80.3032 99.4723 78.2035 101.582C76.1039 103.693 73.2039 105 70 105C66.7961 105 63.8961 103.693 61.7988 101.582C59.6991 99.4723 58.4 96.5557 58.4 93.3333C58.4 90.111 59.6991 87.1943 61.7988 85.0827C63.8961 82.971 66.7961 81.6667 70 81.6667C73.2039 81.6667 76.1039 80.36 78.2035 78.2483C80.3032 76.139 81.6 73.2223 81.6 70C81.6 63.5553 76.4078 58.3333 70 58.3333C66.7961 58.3333 63.8961 57.0267 61.7988 54.915C59.6991 52.8057 58.4 49.889 58.4 46.6667C58.4 43.4443 59.6991 40.5277 61.7988 38.416C63.8961 36.3043 66.7961 35 70 35C76.4078 35 81.6 40.222 81.6 46.6667C81.6 49.889 82.8991 52.8057 84.9988 54.915C87.0961 57.0267 89.9961 58.3333 93.2 58.3333C99.6078 58.3333 104.8 63.5553 104.8 70Z" fill="#F44250"/>
<path d="M58.4 70C58.4 63.5565 53.2066 58.3333 46.8 58.3333C40.3936 58.3333 35.2 63.5565 35.2 70C35.2 76.4433 40.3936 81.6667 46.8 81.6667C53.2066 81.6667 58.4 76.4433 58.4 70Z" fill="white"/>
<path d="M35.2 93.3333C35.2 86.89 30.0065 81.6667 23.6 81.6667C17.1935 81.6667 12 86.89 12 93.3333C12 99.7768 17.1935 105 23.6 105C30.0065 105 35.2 99.7768 35.2 93.3333Z" fill="white"/>
<path d="M128 93.3333C128 86.89 122.806 81.6667 116.4 81.6667C109.994 81.6667 104.8 86.89 104.8 93.3333C104.8 99.7768 109.994 105 116.4 105C122.806 105 128 99.7768 128 93.3333Z" fill="white"/>
</svg>
