<svg width="271" height="140" viewBox="0 0 271 140" fill="none" xmlns="http://www.w3.org/2000/svg">
<rect width="271" height="140" rx="20" fill="#F74B00"/>
<path d="M119.317 68.7739L115.119 66.175C115.083 65.7671 115.043 65.3595 114.999 64.9524L118.607 61.5872C118.787 61.4195 118.922 61.2085 118.997 60.9741C119.073 60.7397 119.087 60.4899 119.039 60.2485C118.991 60.0069 118.883 59.7815 118.723 59.5938C118.564 59.4062 118.359 59.2625 118.129 59.1766L113.516 57.452C113.401 57.0537 113.28 56.6568 113.155 56.2614L116.032 52.2657C116.176 52.0659 116.267 51.8326 116.295 51.588C116.324 51.3434 116.289 51.0955 116.195 50.8679C116.101 50.6404 115.95 50.4406 115.757 50.2878C115.564 50.1349 115.335 50.034 115.092 49.9946L110.229 49.2036C110.039 48.8348 109.843 48.4715 109.644 48.1114L111.688 43.6258C111.79 43.402 111.834 43.1555 111.814 42.91C111.795 42.6644 111.712 42.428 111.575 42.2235C111.439 42.0183 111.252 41.8515 111.033 41.7392C110.814 41.6268 110.57 41.5727 110.323 41.5821L105.387 41.7539C105.133 41.4346 104.873 41.1194 104.608 40.8082L105.742 36.0004C105.799 35.7606 105.793 35.5103 105.726 35.2733C105.659 35.0363 105.532 34.8205 105.357 34.6465C105.183 34.4723 104.967 34.3455 104.73 34.2781C104.494 34.2107 104.244 34.2049 104.004 34.2614L99.1973 35.3946C98.8852 35.13 98.5693 34.8701 98.2496 34.6149L98.4223 29.6793C98.4315 29.4332 98.3775 29.1889 98.2653 28.9697C98.1531 28.7505 97.9866 28.5638 97.7816 28.4274C97.577 28.2903 97.3407 28.208 97.0952 28.1882C96.8497 28.1683 96.6033 28.2117 96.3793 28.3141L91.8949 30.3586C91.5332 30.159 91.1691 29.9636 90.8027 29.7727L90.0098 24.9086C89.9701 24.6657 89.869 24.437 89.7162 24.2441C89.5633 24.0512 89.3638 23.9005 89.1364 23.8064C88.909 23.7122 88.6613 23.6777 88.4169 23.706C88.1724 23.7344 87.9392 23.8247 87.7394 23.9684L83.741 26.8453C83.3476 26.7203 82.9519 26.5996 82.5527 26.4852L80.8281 21.8723C80.7423 21.6412 80.5987 21.4359 80.411 21.2762C80.2233 21.1164 79.9977 21.0075 79.7559 20.9598C79.5146 20.9123 79.2652 20.927 79.0312 21.0026C78.7972 21.0782 78.5863 21.2121 78.4184 21.3918L75.0531 25.0023C74.6462 24.9567 74.2386 24.9169 73.8305 24.8828L71.2316 20.6836C71.1021 20.4744 70.9213 20.3017 70.7064 20.1819C70.4914 20.0621 70.2494 19.9993 70.0033 19.9993C69.7572 19.9993 69.5152 20.0621 69.3003 20.1819C69.0853 20.3017 68.9045 20.4744 68.775 20.6836L66.1762 24.8828C65.7677 24.9168 65.3597 24.9567 64.9523 25.0023L61.5863 21.3918C61.4186 21.2115 61.2075 21.0771 60.9731 21.0014C60.7387 20.9257 60.4889 20.9113 60.2473 20.9594C60.0058 21.0076 59.7806 21.1168 59.5932 21.2765C59.4058 21.4363 59.2623 21.6414 59.1766 21.8723L57.4523 26.4852C57.0527 26.5996 56.6574 26.7211 56.2629 26.8453L52.2652 23.9684C52.0655 23.824 51.8321 23.7333 51.5874 23.7049C51.3426 23.6765 51.0946 23.7114 50.8672 23.8063C50.64 23.9006 50.4405 24.0514 50.2878 24.2443C50.135 24.4372 50.034 24.6658 49.9941 24.9086L49.2012 29.7727C48.834 29.9629 48.4711 30.1586 48.109 30.3586L43.6242 28.3137C43.4004 28.2112 43.154 28.1679 42.9086 28.1878C42.6632 28.2077 42.4271 28.2902 42.2227 28.4274C42.0175 28.5637 41.8509 28.7504 41.7386 28.9696C41.6262 29.1888 41.5721 29.4332 41.5812 29.6793L41.7531 34.6149C41.4338 34.8706 41.1179 35.1305 40.8055 35.3946L35.9988 34.2618C35.7591 34.2056 35.5089 34.2114 35.272 34.2787C35.0351 34.3461 34.8193 34.4726 34.6449 34.6465C34.4705 34.8205 34.3435 35.0363 34.2761 35.2733C34.2086 35.5103 34.203 35.7606 34.2598 36.0004L35.3922 40.8082C35.1293 41.1196 34.8695 41.4348 34.6145 41.7539L29.6785 41.5821C29.4327 41.5743 29.189 41.629 28.9701 41.7412C28.7512 41.8533 28.5643 42.0191 28.427 42.2231C28.29 42.4277 28.2076 42.664 28.1877 42.9095C28.1678 43.1549 28.2111 43.4014 28.3133 43.6254L30.3578 48.1114C30.159 48.4715 29.9625 48.8348 29.7719 49.2036L24.909 49.9946C24.666 50.0342 24.4371 50.1352 24.2441 50.2881C24.0511 50.441 23.9004 50.6407 23.8062 50.8682C23.712 51.0957 23.6775 51.3435 23.706 51.588C23.7344 51.8326 23.8249 52.0659 23.9688 52.2657L26.8457 56.2618C26.7207 56.6563 26.5992 57.0524 26.4844 57.452L21.8719 59.1766C21.6415 59.2631 21.4371 59.407 21.2779 59.5946C21.1186 59.7823 21.0099 60.0074 20.962 60.2488C20.9141 60.4901 20.9286 60.7397 21.0041 60.9739C21.0795 61.2081 21.2135 61.4192 21.3934 61.5872L25.0016 64.952C24.9566 65.3582 24.9168 65.7672 24.8824 66.175L20.6836 68.7739C20.4744 68.9034 20.3018 69.0843 20.1821 69.2993C20.0625 69.5143 19.9998 69.7563 20 70.0024C20 70.504 20.259 70.9684 20.684 71.2301L24.8824 73.829C24.9168 74.2379 24.9566 74.6461 25.0016 75.052L21.393 78.418C21.2128 78.5858 21.0785 78.7968 21.0029 79.031C20.9272 79.2653 20.9127 79.515 20.9607 79.7564C21.0086 79.9978 21.1176 80.223 21.277 80.4105C21.4365 80.598 21.6413 80.7417 21.8719 80.8278L26.4844 82.5524C26.5992 82.9516 26.7207 83.3481 26.8457 83.7426L23.9688 87.7391C23.8246 87.9389 23.7339 88.1722 23.7054 88.4169C23.6769 88.6616 23.7115 88.9095 23.8058 89.137C23.9002 89.3646 24.0512 89.5642 24.2445 89.7169C24.4378 89.8696 24.6669 89.9703 24.9102 90.0094L29.7723 90.8005C29.9625 91.1692 30.1574 91.5325 30.3582 91.8942L28.3133 96.3786C28.2109 96.6026 28.1676 96.8491 28.1875 97.0945C28.2074 97.34 28.2898 97.5763 28.427 97.7809C28.5633 97.9859 28.75 98.1525 28.9691 98.2647C29.1882 98.3769 29.4325 98.4311 29.6785 98.4219L34.6121 98.2493C34.8695 98.57 35.1285 98.8844 35.3922 99.1969L34.2598 104.005C34.2031 104.245 34.2087 104.495 34.2761 104.731C34.3436 104.968 34.4705 105.183 34.6449 105.357C34.8188 105.531 35.0346 105.658 35.2717 105.725C35.5088 105.793 35.7592 105.798 35.9988 105.741L40.8055 104.609C41.118 104.874 41.4344 105.132 41.7535 105.386L41.5816 110.323C41.5728 110.569 41.627 110.813 41.7391 111.032C41.8513 111.252 42.0176 111.438 42.2223 111.575C42.427 111.712 42.6633 111.794 42.9087 111.813C43.1541 111.833 43.4004 111.79 43.6242 111.687L48.109 109.644C48.4701 109.844 48.8342 110.04 49.2012 110.229L49.9941 115.091C50.0333 115.334 50.1341 115.563 50.2869 115.756C50.4398 115.949 50.6395 116.1 50.8672 116.194C51.0947 116.288 51.3425 116.323 51.5871 116.295C51.8318 116.267 52.0652 116.176 52.2652 116.033L56.2609 113.154C56.6555 113.279 57.0519 113.401 57.4512 113.516L59.1758 118.127C59.2616 118.358 59.4053 118.563 59.5929 118.722C59.7806 118.881 60.006 118.99 60.2477 119.038C60.489 119.086 60.7388 119.072 60.9731 118.996C61.2074 118.921 61.4183 118.786 61.5855 118.605L64.9516 114.997C65.3578 115.044 65.7664 115.083 66.1754 115.119L68.7742 119.318C68.9039 119.527 69.0846 119.699 69.2995 119.819C69.5143 119.938 69.7561 120.001 70.0019 120.001C70.248 120.001 70.4899 119.938 70.7048 119.819C70.9198 119.699 71.1007 119.527 71.2305 119.318L73.8293 115.119C74.2383 115.083 74.6465 115.044 75.0523 114.997L78.4176 118.605C78.5849 118.786 78.7957 118.92 79.0299 118.996C79.2641 119.072 79.5138 119.086 79.7551 119.038C79.9966 118.99 80.222 118.881 80.4096 118.722C80.5972 118.562 80.7409 118.358 80.8269 118.127L82.5516 113.516C82.9508 113.401 83.3476 113.279 83.7422 113.154L87.7387 116.033C87.9386 116.177 88.1719 116.267 88.4165 116.295C88.6611 116.323 88.9089 116.289 89.1363 116.194C89.3637 116.1 89.5632 115.949 89.716 115.756C89.8687 115.563 89.9696 115.334 90.009 115.091L90.8019 110.229C91.1687 110.039 91.5316 109.841 91.8937 109.643L96.3785 111.687C96.6023 111.79 96.8488 111.834 97.0943 111.814C97.3398 111.795 97.5763 111.713 97.7811 111.576C97.9859 111.439 98.1523 111.252 98.2644 111.033C98.3765 110.814 98.4306 110.569 98.4215 110.323L98.2496 105.386C98.5692 105.132 98.8847 104.873 99.1961 104.609L104.003 105.741C104.491 105.855 105.003 105.713 105.356 105.357C105.53 105.183 105.657 104.968 105.725 104.731C105.792 104.495 105.798 104.245 105.741 104.005L104.609 99.1969C104.873 98.8844 105.132 98.57 105.386 98.2493L110.322 98.4219C110.568 98.4312 110.812 98.3772 111.032 98.265C111.251 98.1529 111.438 97.9863 111.574 97.7813C111.711 97.5767 111.794 97.3402 111.813 97.0945C111.833 96.8488 111.79 96.6022 111.687 96.3782L109.643 91.8946C109.843 91.5325 110.039 91.1692 110.228 90.8008L115.091 90.0094C115.334 89.9704 115.563 89.8696 115.756 89.7166C115.949 89.5637 116.1 89.3638 116.193 89.136C116.288 88.9086 116.322 88.661 116.294 88.4165C116.266 88.172 116.175 87.9388 116.031 87.7391L113.154 83.743C113.278 83.3481 113.4 82.9516 113.516 82.5524L118.127 80.8278C118.358 80.7419 118.563 80.5982 118.723 80.4105C118.882 80.2228 118.991 79.9972 119.038 79.7555C119.087 79.5142 119.072 79.2645 118.997 79.0303C118.921 78.7961 118.786 78.5853 118.606 78.418L114.998 75.052C115.042 74.6458 115.082 74.2372 115.118 73.8293L119.316 71.2301C119.525 71.1009 119.698 70.9202 119.818 70.7053C119.938 70.4904 120 70.2484 120 70.0024C120 69.502 119.742 69.0368 119.317 68.7739ZM91.2183 103.6C89.6152 103.255 88.5957 101.675 88.9398 100.066C89.2828 98.4602 90.8617 97.4379 92.4644 97.7837C94.0676 98.127 95.0887 99.7098 94.7449 101.315C94.4012 102.92 92.8207 103.944 91.2183 103.6ZM89.7918 93.9524C89.4439 93.8778 89.0848 93.8725 88.7348 93.9368C88.3849 94.0012 88.0511 94.1339 87.7526 94.3273C87.454 94.5207 87.1964 94.7712 86.9947 95.0642C86.793 95.3573 86.651 95.6872 86.5769 96.0352L85.0863 102.991C80.4867 105.079 75.3793 106.238 70 106.238C64.4977 106.238 59.2789 105.021 54.5977 102.845L53.1078 95.8891C52.7945 94.4254 51.3555 93.493 49.8937 93.8071L43.7531 95.1258C42.6119 93.9512 41.5511 92.701 40.5781 91.3836H70.457C70.7949 91.3836 71.0203 91.3223 71.0203 91.0145V80.4454C71.0203 80.1379 70.7949 80.0766 70.4566 80.0766H61.7187V73.3774H71.1699C72.0324 73.3774 75.7828 73.6235 76.9816 78.4172C77.3574 79.8915 78.1816 84.6868 78.7457 86.2219C79.3074 87.9438 81.5945 91.3833 84.032 91.3833H98.9207C99.0898 91.3833 99.2703 91.3641 99.4605 91.3297C98.4275 92.7327 97.2959 94.0603 96.0742 95.3024L89.7918 93.9524ZM48.4676 103.455C46.8641 103.801 45.2855 102.779 44.9406 101.173C44.5977 99.5637 45.6172 97.9844 47.2203 97.6387C48.8238 97.2958 50.4031 98.318 50.7469 99.9239C51.0898 101.529 50.0699 103.111 48.4676 103.455ZM37.1328 57.4942C37.798 58.995 37.1211 60.7539 35.6223 61.418C34.1234 62.084 32.3691 61.4063 31.7043 59.9043C31.0391 58.4024 31.7156 56.6465 33.2148 55.9805C33.5714 55.8224 33.9557 55.736 34.3457 55.7265C34.7356 55.717 35.1236 55.7844 35.4875 55.925C35.8514 56.0655 36.184 56.2764 36.4663 56.5456C36.7486 56.8148 36.9751 57.1374 37.1328 57.4942ZM33.6492 65.752L40.0461 62.9094C40.7028 62.6173 41.2166 62.0764 41.4747 61.4056C41.7329 60.7349 41.7141 59.989 41.4227 59.3321L40.1055 56.3532H45.2867V79.7079H34.8332C33.9066 76.4458 33.4378 73.0708 33.4402 69.6797C33.4402 68.3524 33.5117 67.0411 33.6492 65.752ZM61.7203 63.4836V56.5996H74.0586C74.6961 56.5996 78.5586 57.3364 78.5586 60.2247C78.5586 62.6227 75.5961 63.4825 73.1598 63.4825H61.7203V63.4836ZM106.561 69.6797C106.561 70.593 106.527 71.4969 106.461 72.3938H102.709C102.334 72.3938 102.183 72.6407 102.183 73.0083V74.7309C102.183 78.7856 99.8965 79.6676 97.893 79.8922C95.9851 80.1071 93.8695 79.0934 93.609 77.9258C92.4832 71.5954 90.6078 70.2434 87.6461 67.9071C91.3219 65.5731 95.1461 62.1297 95.1461 57.5204C95.1461 52.5438 91.7344 49.409 89.4086 47.8719C86.1461 45.7211 82.5336 45.2899 81.559 45.2899H42.7652C48.0258 39.4188 55.1555 35.2598 63.2191 33.7465L67.7918 38.5434C68.0371 38.8009 68.3308 39.0075 68.6561 39.1513C68.9813 39.2951 69.3318 39.3733 69.6873 39.3815C70.0429 39.3897 70.3966 39.3277 70.7281 39.1991C71.0597 39.0704 71.3626 38.8776 71.6195 38.6317L76.7359 33.7379C87.4566 35.734 96.5336 42.4075 101.764 51.5633L98.2617 59.4747C97.657 60.8438 98.2742 62.445 99.6394 63.0516L106.383 66.0469C106.5 67.2442 106.561 68.4536 106.561 69.6797ZM67.7937 29.6656C68.9785 28.5309 70.8578 28.5758 71.9922 29.7621C73.1242 30.952 73.0812 32.8332 71.8937 33.9672C70.709 35.1024 68.8297 35.0582 67.6953 33.8696C67.1518 33.2986 66.8569 32.5354 66.8753 31.7473C66.8938 30.9592 67.2241 30.2106 67.7937 29.6656ZM102.553 57.6383C102.71 57.2816 102.937 56.9594 103.219 56.6902C103.501 56.4211 103.834 56.2102 104.198 56.0697C104.562 55.9292 104.95 55.8619 105.339 55.8715C105.729 55.8811 106.113 55.9676 106.47 56.1258C107.969 56.7907 108.646 58.5489 107.98 60.0497C107.823 60.4066 107.597 60.7289 107.314 60.9982C107.032 61.2676 106.699 61.4786 106.335 61.6192C105.972 61.7598 105.583 61.8272 105.193 61.8176C104.803 61.808 104.419 61.7216 104.062 61.5633C102.565 60.8981 101.889 59.1415 102.553 57.6383Z" fill="white"/>
<path d="M152.844 86V53.2727H165.756C168.228 53.2727 170.337 53.7148 172.085 54.5991C173.842 55.4727 175.179 56.7138 176.096 58.3224C177.022 59.9205 177.486 61.8008 177.486 63.9634C177.486 66.1367 177.017 68.0064 176.08 69.5724C175.142 71.1278 173.784 72.321 172.005 73.152C170.236 73.983 168.095 74.3984 165.581 74.3984H156.935V68.8374H164.462C165.783 68.8374 166.88 68.6562 167.754 68.294C168.627 67.9318 169.277 67.3885 169.703 66.6641C170.14 65.9396 170.359 65.0394 170.359 63.9634C170.359 62.8768 170.14 61.9606 169.703 61.2148C169.277 60.4691 168.622 59.9045 167.738 59.521C166.864 59.1268 165.762 58.9297 164.43 58.9297H159.764V86H152.844ZM170.518 71.1065L178.652 86H171.014L163.056 71.1065H170.518ZM197.988 75.549V61.4545H204.796V86H198.26V81.5415H198.004C197.45 82.9798 196.529 84.1357 195.24 85.0092C193.961 85.8828 192.401 86.3196 190.558 86.3196C188.917 86.3196 187.473 85.9467 186.227 85.201C184.98 84.4553 184.006 83.3952 183.303 82.021C182.61 80.6467 182.259 79.0007 182.248 77.0831V61.4545H189.055V75.8686C189.066 77.3175 189.455 78.4627 190.222 79.3043C190.989 80.146 192.017 80.5668 193.306 80.5668C194.126 80.5668 194.893 80.3803 195.607 80.0075C196.321 79.6239 196.896 79.0593 197.333 78.3136C197.781 77.5678 197.999 76.6463 197.988 75.549ZM230.664 68.4538L224.431 68.8374C224.325 68.3047 224.096 67.8253 223.744 67.3991C223.393 66.9624 222.929 66.6161 222.354 66.3604C221.789 66.0941 221.113 65.9609 220.324 65.9609C219.27 65.9609 218.38 66.1847 217.656 66.6321C216.931 67.0689 216.569 67.6548 216.569 68.3899C216.569 68.9759 216.804 69.4712 217.272 69.8761C217.741 70.2809 218.545 70.6058 219.685 70.8509L224.128 71.7457C226.514 72.2358 228.293 73.0241 229.465 74.1108C230.637 75.1974 231.223 76.625 231.223 78.3935C231.223 80.0021 230.749 81.4137 229.801 82.6282C228.863 83.8427 227.574 84.7908 225.934 85.4727C224.304 86.1438 222.423 86.4794 220.293 86.4794C217.043 86.4794 214.454 85.8029 212.526 84.4499C210.609 83.0863 209.485 81.2326 209.154 78.8888L215.85 78.5373C216.052 79.5281 216.543 80.2844 217.32 80.8065C218.098 81.3178 219.094 81.5735 220.309 81.5735C221.502 81.5735 222.46 81.3445 223.185 80.8864C223.92 80.4176 224.293 79.8157 224.304 79.0806C224.293 78.4627 224.032 77.9567 223.521 77.5625C223.009 77.1577 222.221 76.8487 221.155 76.6357L216.905 75.7887C214.508 75.3093 212.723 74.4783 211.551 73.2958C210.39 72.1133 209.81 70.6058 209.81 68.7734C209.81 67.1967 210.236 65.8384 211.088 64.6985C211.951 63.5586 213.16 62.6797 214.715 62.0618C216.282 61.4439 218.114 61.1349 220.213 61.1349C223.313 61.1349 225.752 61.7901 227.532 63.1005C229.321 64.4109 230.365 66.1953 230.664 68.4538ZM248.565 61.4545V66.5682H233.784V61.4545H248.565ZM237.14 55.5739H243.947V78.4574C243.947 79.0859 244.043 79.576 244.235 79.9276C244.426 80.2685 244.693 80.5082 245.034 80.6467C245.385 80.7852 245.79 80.8544 246.248 80.8544C246.568 80.8544 246.887 80.8278 247.207 80.7745C247.527 80.7106 247.772 80.6626 247.942 80.6307L249.013 85.6964C248.672 85.8029 248.192 85.9254 247.575 86.0639C246.957 86.2131 246.206 86.3036 245.321 86.3356C243.681 86.3995 242.243 86.1811 241.007 85.6804C239.782 85.1797 238.828 84.402 238.146 83.3473C237.464 82.2926 237.129 80.9609 237.14 79.3523V55.5739Z" fill="white"/>
</svg>
