<svg width="385" height="140" viewBox="0 0 385 140" fill="none" xmlns="http://www.w3.org/2000/svg">
<rect width="385" height="140" rx="20" fill="black"/>
<path fill-rule="evenodd" clip-rule="evenodd" d="M70 28.0645C46.8397 28.0645 28.0645 46.8397 28.0645 70C28.0645 93.1603 46.8397 111.935 70 111.935C93.1603 111.935 111.935 93.1603 111.935 70C111.935 46.8397 93.1603 28.0645 70 28.0645ZM20 70C20 42.3858 42.3858 20 70 20C97.6142 20 120 42.3858 120 70C120 97.6142 97.6142 120 70 120C42.3858 120 20 97.6142 20 70Z" fill="white"/>
<path d="M57.7569 67.4556C68.7758 58.4532 79.5544 49.1387 90.8133 40.4004C84.9077 49.475 78.8343 58.429 72.9286 67.5032C67.8633 67.5274 62.7984 67.5278 57.7569 67.4556ZM67.0714 72.4726C72.1605 72.4726 77.2258 72.4726 82.2911 72.5448C71.2004 81.4988 60.4698 90.8851 49.1867 99.5996C55.0923 90.525 61.1657 81.5472 67.0714 72.4726Z" fill="white"/>
<path d="M170.598 62.685C170.471 61.396 169.922 60.3945 168.952 59.6808C167.983 58.967 166.667 58.6101 165.005 58.6101C163.876 58.6101 162.923 58.7699 162.145 59.0895C161.367 59.3984 160.771 59.8299 160.355 60.3839C159.95 60.9379 159.748 61.5664 159.748 62.2695C159.727 62.8555 159.849 63.3668 160.115 63.8036C160.392 64.2404 160.771 64.6186 161.25 64.9382C161.729 65.2472 162.283 65.5188 162.912 65.7532C163.54 65.9769 164.212 66.1687 164.925 66.3285L167.866 67.0316C169.293 67.3512 170.604 67.7773 171.797 68.31C172.99 68.8427 174.023 69.4979 174.897 70.2756C175.771 71.0533 176.447 71.9695 176.926 73.0241C177.417 74.0788 177.667 75.288 177.678 76.6516C177.667 78.6545 177.156 80.391 176.143 81.8612C175.142 83.3207 173.693 84.4553 171.797 85.2649C169.911 86.0639 167.637 86.4634 164.973 86.4634C162.331 86.4634 160.03 86.0586 158.07 85.2489C156.12 84.4393 154.597 83.2408 153.5 81.6534C152.413 80.0554 151.843 78.0792 151.79 75.7248H158.485C158.56 76.8221 158.874 77.7383 159.428 78.4734C159.993 79.1978 160.744 79.7464 161.681 80.1193C162.63 80.4815 163.7 80.6626 164.893 80.6626C166.065 80.6626 167.083 80.4922 167.946 80.1513C168.819 79.8104 169.496 79.3363 169.975 78.729C170.455 78.1218 170.694 77.424 170.694 76.6357C170.694 75.9006 170.476 75.2827 170.039 74.782C169.613 74.2812 168.984 73.8551 168.153 73.5036C167.333 73.152 166.326 72.8324 165.133 72.5447L161.57 71.6499C158.81 70.9787 156.632 69.9293 155.034 68.5018C153.436 67.0742 152.642 65.1513 152.653 62.733C152.642 60.7514 153.169 59.0202 154.235 57.5394C155.311 56.0586 156.786 54.9027 158.661 54.0717C160.536 53.2408 162.667 52.8253 165.053 52.8253C167.482 52.8253 169.602 53.2408 171.413 54.0717C173.235 54.9027 174.652 56.0586 175.664 57.5394C176.676 59.0202 177.198 60.7354 177.23 62.685H170.598ZM193.294 86.4794C190.812 86.4794 188.665 85.9521 186.854 84.8974C185.054 83.832 183.663 82.3512 182.683 80.4549C181.703 78.5479 181.213 76.3374 181.213 73.8232C181.213 71.2876 181.703 69.0717 182.683 67.1754C183.663 65.2685 185.054 63.7876 186.854 62.733C188.665 61.6676 190.812 61.1349 193.294 61.1349C195.776 61.1349 197.918 61.6676 199.718 62.733C201.529 63.7876 202.925 65.2685 203.905 67.1754C204.885 69.0717 205.375 71.2876 205.375 73.8232C205.375 76.3374 204.885 78.5479 203.905 80.4549C202.925 82.3512 201.529 83.832 199.718 84.8974C197.918 85.9521 195.776 86.4794 193.294 86.4794ZM193.326 81.206C194.455 81.206 195.398 80.8864 196.155 80.2472C196.911 79.5973 197.481 78.7131 197.864 77.5945C198.259 76.4759 198.456 75.2028 198.456 73.7752C198.456 72.3477 198.259 71.0746 197.864 69.956C197.481 68.8374 196.911 67.9531 196.155 67.3033C195.398 66.6534 194.455 66.3285 193.326 66.3285C192.186 66.3285 191.227 66.6534 190.45 67.3033C189.683 67.9531 189.102 68.8374 188.708 69.956C188.324 71.0746 188.133 72.3477 188.133 73.7752C188.133 75.2028 188.324 76.4759 188.708 77.5945C189.102 78.7131 189.683 79.5973 190.45 80.2472C191.227 80.8864 192.186 81.206 193.326 81.206ZM220.892 86.4794C218.378 86.4794 216.215 85.9467 214.404 84.8814C212.603 83.8054 211.218 82.3139 210.249 80.407C209.29 78.5 208.811 76.3054 208.811 73.8232C208.811 71.3089 209.296 69.1037 210.265 67.2074C211.245 65.3004 212.635 63.8143 214.436 62.7489C216.236 61.6729 218.378 61.1349 220.86 61.1349C223.001 61.1349 224.876 61.5238 226.485 62.3015C228.093 63.0792 229.367 64.1712 230.304 65.5774C231.242 66.9837 231.758 68.6349 231.854 70.5312H225.43C225.249 69.3061 224.77 68.3207 223.992 67.5749C223.225 66.8185 222.218 66.4403 220.972 66.4403C219.917 66.4403 218.995 66.728 218.207 67.3033C217.429 67.8679 216.822 68.6935 216.385 69.7802C215.949 70.8668 215.73 72.1825 215.73 73.7273C215.73 75.2933 215.943 76.625 216.369 77.7223C216.806 78.8196 217.419 79.6559 218.207 80.2312C218.995 80.8065 219.917 81.0941 220.972 81.0941C221.749 81.0941 222.447 80.9343 223.065 80.6147C223.694 80.2951 224.21 79.8317 224.615 79.2244C225.031 78.6065 225.302 77.8661 225.43 77.0032H231.854C231.748 78.8782 231.236 80.5295 230.32 81.957C229.415 83.3739 228.163 84.4819 226.565 85.2809C224.967 86.0799 223.076 86.4794 220.892 86.4794ZM242.381 78.9368L242.397 70.771H243.388L251.25 61.4545H259.064L248.501 73.7912H246.887L242.381 78.9368ZM236.213 86V53.2727H243.02V86H236.213ZM251.554 86L244.331 75.3093L248.869 70.4993L259.528 86H251.554ZM272.579 86.4794C270.055 86.4794 267.881 85.968 266.06 84.9453C264.248 83.9119 262.853 82.4524 261.873 80.5668C260.893 78.6705 260.403 76.4279 260.403 73.8391C260.403 71.3143 260.893 69.0984 261.873 67.1914C262.853 65.2844 264.233 63.7983 266.012 62.733C267.801 61.6676 269.9 61.1349 272.308 61.1349C273.927 61.1349 275.435 61.396 276.83 61.918C278.236 62.4293 279.462 63.2017 280.506 64.2351C281.56 65.2685 282.381 66.5682 282.967 68.1342C283.552 69.6896 283.845 71.5114 283.845 73.5994V75.4691H263.119V71.2504H277.437C277.437 70.2702 277.224 69.402 276.798 68.6456C276.372 67.8892 275.781 67.2979 275.024 66.8718C274.279 66.435 273.41 66.2166 272.42 66.2166C271.386 66.2166 270.47 66.4563 269.671 66.9357C268.883 67.4045 268.265 68.0384 267.817 68.8374C267.37 69.6257 267.141 70.5046 267.13 71.4741V75.4851C267.13 76.6996 267.354 77.7489 267.801 78.6332C268.259 79.5174 268.904 80.1992 269.735 80.6786C270.566 81.158 271.551 81.3977 272.691 81.3977C273.448 81.3977 274.14 81.2912 274.769 81.0781C275.397 80.8651 275.935 80.5455 276.383 80.1193C276.83 79.6932 277.171 79.1712 277.405 78.5533L283.702 78.9688C283.382 80.4815 282.727 81.8026 281.736 82.9318C280.756 84.0504 279.488 84.924 277.933 85.5526C276.388 86.1705 274.604 86.4794 272.579 86.4794ZM301.344 61.4545V66.5682H286.562V61.4545H301.344ZM289.918 55.5739H296.725V78.4574C296.725 79.0859 296.821 79.576 297.013 79.9276C297.205 80.2685 297.471 80.5082 297.812 80.6467C298.164 80.7852 298.568 80.8544 299.027 80.8544C299.346 80.8544 299.666 80.8278 299.985 80.7745C300.305 80.7106 300.55 80.6626 300.72 80.6307L301.791 85.6964C301.45 85.8029 300.971 85.9254 300.353 86.0639C299.735 86.2131 298.984 86.3036 298.1 86.3356C296.459 86.3995 295.021 86.1811 293.785 85.6804C292.56 85.1797 291.606 84.402 290.925 83.3473C290.243 82.2926 289.907 80.9609 289.918 79.3523V55.5739ZM309.757 86.4155C308.703 86.4155 307.797 86.0426 307.041 85.2969C306.295 84.5405 305.922 83.6349 305.922 82.5803C305.922 81.5362 306.295 80.6413 307.041 79.8956C307.797 79.1499 308.703 78.777 309.757 78.777C310.78 78.777 311.675 79.1499 312.442 79.8956C313.209 80.6413 313.592 81.5362 313.592 82.5803C313.592 83.2834 313.411 83.9279 313.049 84.5138C312.698 85.0891 312.234 85.5526 311.659 85.9041C311.084 86.245 310.45 86.4155 309.757 86.4155ZM326.229 53.2727V86H319.309V53.2727H326.229ZM361.996 69.6364C361.996 73.2053 361.32 76.2415 359.967 78.745C358.624 81.2486 356.792 83.1609 354.47 84.4819C352.158 85.7923 349.558 86.4474 346.671 86.4474C343.763 86.4474 341.153 85.7869 338.841 84.4659C336.529 83.1449 334.702 81.2326 333.36 78.729C332.017 76.2255 331.346 73.1946 331.346 69.6364C331.346 66.0675 332.017 63.0312 333.36 60.5277C334.702 58.0241 336.529 56.1172 338.841 54.8068C341.153 53.4858 343.763 52.8253 346.671 52.8253C349.558 52.8253 352.158 53.4858 354.47 54.8068C356.792 56.1172 358.624 58.0241 359.967 60.5277C361.32 63.0312 361.996 66.0675 361.996 69.6364ZM354.981 69.6364C354.981 67.3246 354.635 65.375 353.942 63.7876C353.26 62.2003 352.296 60.9964 351.05 60.1761C349.803 59.3558 348.344 58.9457 346.671 58.9457C344.999 58.9457 343.539 59.3558 342.293 60.1761C341.046 60.9964 340.077 62.2003 339.384 63.7876C338.703 65.375 338.362 67.3246 338.362 69.6364C338.362 71.9482 338.703 73.8977 339.384 75.4851C340.077 77.0724 341.046 78.2763 342.293 79.0966C343.539 79.9169 344.999 80.3271 346.671 80.3271C348.344 80.3271 349.803 79.9169 351.05 79.0966C352.296 78.2763 353.26 77.0724 353.942 75.4851C354.635 73.8977 354.981 71.9482 354.981 69.6364Z" fill="white"/>
</svg>
