<svg width="140" height="140" viewBox="0 0 140 140" fill="none" xmlns="http://www.w3.org/2000/svg">
<rect width="140" height="140" rx="20" fill="#6CB52D"/>
<path d="M111.099 25.7525C109.661 29.2487 107.801 32.3481 105.743 35.1252C96.6681 25.8765 83.9729 20 69.9634 20C42.4405 20 19.951 42.3655 19.951 69.9876C19.951 84.4185 26.1251 97.4114 35.9193 106.586L37.779 108.247C46.4326 115.562 57.6897 120 69.9386 120C96.2218 120 117.868 99.4942 119.728 73.6077C121.216 61.0364 117.397 44.9442 111.099 25.7525ZM43.1596 107.007C41.7214 108.867 39.0435 109.065 37.1839 107.627C35.3242 106.189 35.1259 103.511 36.564 101.651C38.0021 99.7917 40.68 99.5934 42.5397 101.031C44.3002 102.47 44.5977 105.148 43.1596 107.007ZM110.802 92.0555C98.5278 108.445 72.1454 102.891 55.3341 103.709C55.3341 103.709 52.3339 103.908 49.3584 104.329C49.3584 104.329 50.499 103.809 51.9372 103.288C63.7894 99.1718 69.3684 98.3288 76.5838 94.6343C90.0973 87.7163 103.586 72.5663 106.289 56.8956C101.131 71.9464 85.4606 84.9392 71.228 90.1959C61.4338 93.816 43.8043 97.3122 43.8043 97.3122L43.0852 96.8906C31.1338 91.0141 30.7123 65.0285 52.5818 56.6725C62.1777 52.9531 71.2528 55.0112 81.6669 52.5564C92.7009 49.9777 105.495 41.7208 110.628 30.91C116.356 48.3412 123.373 75.3434 110.802 92.0555Z" fill="white"/>
</svg>
