<svg width="487" height="140" viewBox="0 0 487 140" fill="none" xmlns="http://www.w3.org/2000/svg">
<rect width="487" height="140" rx="20" fill="#5FCAF4"/>
<mask id="mask0_133_196" style="mask-type:luminance" maskUnits="userSpaceOnUse" x="20" y="19" width="100" height="102">
<path d="M69.9998 19.9754C42.3859 19.9754 20 42.3727 20 70.0007C20 95.3671 38.8715 116.32 63.3336 119.582V109.502C63.3336 106.659 61.5418 104.105 58.8487 103.201C44.7348 98.4569 34.6377 84.9601 35.0096 69.1565C35.4623 49.9173 51.1267 34.7905 70.3608 34.9844C89.5245 35.1783 105 50.7813 105 70.0007C105 70.4387 104.989 70.8746 104.973 71.3081C104.969 71.4052 104.966 71.5032 104.962 71.6006C104.944 72.0035 104.919 72.4054 104.888 72.8049C104.879 72.9321 104.866 73.059 104.854 73.1859C104.829 73.4649 104.801 73.742 104.769 74.0186C104.734 74.3328 104.693 74.6452 104.649 74.956C104.63 75.0982 104.611 75.2407 104.589 75.3817C100.304 103.623 63.5392 119.496 63.3374 119.583C65.5177 119.873 67.7411 120.025 69.9998 120.025C97.6142 120.025 120 97.6287 120 70.0007C120 42.3727 97.6142 19.9754 69.9998 19.9754Z" fill="white"/>
</mask>
<g mask="url(#mask0_133_196)">
<path d="M12.4083 127.618H127.591V12.3851H12.4083V127.618Z" fill="white"/>
</g>
<path d="M158.485 86H151.071L162.369 53.2727H171.286L182.567 86H175.153L166.955 60.7514H166.699L158.485 86ZM158.022 73.136H175.536V78.5373H158.022V73.136ZM186.379 86V61.4545H192.867V65.7852H193.154C193.666 64.3469 194.518 63.2124 195.711 62.3814C196.904 61.5504 198.332 61.1349 199.994 61.1349C201.677 61.1349 203.11 61.5558 204.292 62.3974C205.475 63.2283 206.263 64.3576 206.657 65.7852H206.913C207.414 64.3789 208.319 63.255 209.63 62.4134C210.951 61.5611 212.512 61.1349 214.312 61.1349C216.602 61.1349 218.461 61.8647 219.889 63.3242C221.327 64.7731 222.046 66.8292 222.046 69.4925V86H215.255V70.8349C215.255 69.4712 214.893 68.4485 214.168 67.7667C213.444 67.0849 212.538 66.744 211.452 66.744C210.216 66.744 209.252 67.1381 208.559 67.9265C207.867 68.7042 207.52 69.7322 207.52 71.0107V86H200.921V70.6911C200.921 69.4872 200.574 68.5284 199.882 67.8146C199.2 67.1009 198.3 66.744 197.181 66.744C196.425 66.744 195.743 66.9357 195.136 67.3192C194.539 67.6921 194.065 68.2195 193.714 68.9013C193.362 69.5724 193.186 70.3608 193.186 71.2663V86H186.379ZM234.423 86.4634C232.857 86.4634 231.461 86.1918 230.236 85.6484C229.011 85.0945 228.042 84.2795 227.328 83.2035C226.625 82.1168 226.273 80.7638 226.273 79.1445C226.273 77.7809 226.523 76.6357 227.024 75.7088C227.525 74.782 228.207 74.0362 229.07 73.4716C229.933 72.907 230.913 72.4808 232.01 72.1932C233.118 71.9055 234.279 71.7031 235.494 71.5859C236.921 71.4368 238.072 71.2983 238.945 71.1705C239.819 71.032 240.453 70.8295 240.847 70.5632C241.241 70.2969 241.438 69.9027 241.438 69.3807V69.2848C241.438 68.2727 241.119 67.4897 240.479 66.9357C239.851 66.3817 238.956 66.1048 237.795 66.1048C236.57 66.1048 235.595 66.3764 234.87 66.9197C234.146 67.4524 233.667 68.1236 233.432 68.9332L227.136 68.4219C227.456 66.9304 228.084 65.6413 229.022 64.5547C229.959 63.4574 231.168 62.6158 232.649 62.0298C234.141 61.4332 235.866 61.1349 237.827 61.1349C239.19 61.1349 240.495 61.2947 241.742 61.6143C242.999 61.9339 244.112 62.4293 245.082 63.1005C246.062 63.7717 246.834 64.6346 247.399 65.6893C247.963 66.7333 248.246 67.9851 248.246 69.4446V86H241.79V82.5962H241.598C241.204 83.3633 240.676 84.0398 240.016 84.6257C239.355 85.201 238.562 85.6538 237.635 85.984C236.708 86.3036 235.637 86.4634 234.423 86.4634ZM236.373 81.7653C237.374 81.7653 238.258 81.5682 239.025 81.174C239.792 80.7692 240.394 80.2259 240.831 79.544C241.268 78.8622 241.486 78.0898 241.486 77.2269V74.6222C241.273 74.7607 240.98 74.8885 240.607 75.0057C240.245 75.1122 239.835 75.2134 239.377 75.3093C238.919 75.3945 238.461 75.4744 238.002 75.549C237.544 75.6129 237.129 75.6715 236.756 75.7248C235.957 75.842 235.259 76.0284 234.663 76.2841C234.066 76.5398 233.603 76.886 233.272 77.3228C232.942 77.7489 232.777 78.2816 232.777 78.9208C232.777 79.8477 233.113 80.5561 233.784 81.0462C234.466 81.5256 235.328 81.7653 236.373 81.7653ZM253.399 86V81.9411L265.416 67.0636V66.8878H253.815V61.4545H273.614V65.881L262.332 80.391V80.5668H274.03V86H253.399ZM289.622 86.4794C287.14 86.4794 284.993 85.9521 283.182 84.8974C281.382 83.832 279.992 82.3512 279.011 80.4549C278.031 78.5479 277.541 76.3374 277.541 73.8232C277.541 71.2876 278.031 69.0717 279.011 67.1754C279.992 65.2685 281.382 63.7876 283.182 62.733C284.993 61.6676 287.14 61.1349 289.622 61.1349C292.104 61.1349 294.246 61.6676 296.046 62.733C297.857 63.7876 299.253 65.2685 300.233 67.1754C301.213 69.0717 301.703 71.2876 301.703 73.8232C301.703 76.3374 301.213 78.5479 300.233 80.4549C299.253 82.3512 297.857 83.832 296.046 84.8974C294.246 85.9521 292.104 86.4794 289.622 86.4794ZM289.654 81.206C290.783 81.206 291.726 80.8864 292.483 80.2472C293.239 79.5973 293.809 78.7131 294.193 77.5945C294.587 76.4759 294.784 75.2028 294.784 73.7752C294.784 72.3477 294.587 71.0746 294.193 69.956C293.809 68.8374 293.239 67.9531 292.483 67.3033C291.726 66.6534 290.783 66.3285 289.654 66.3285C288.514 66.3285 287.555 66.6534 286.778 67.3033C286.011 67.9531 285.43 68.8374 285.036 69.956C284.652 71.0746 284.461 72.3477 284.461 73.7752C284.461 75.2028 284.652 76.4759 285.036 77.5945C285.43 78.7131 286.011 79.5973 286.778 80.2472C287.555 80.8864 288.514 81.206 289.654 81.206ZM312.937 71.8097V86H306.13V61.4545H312.618V65.7852H312.905C313.449 64.3576 314.359 63.2283 315.638 62.3974C316.916 61.5558 318.466 61.1349 320.288 61.1349C321.993 61.1349 323.479 61.5078 324.747 62.2536C326.014 62.9993 327 64.0646 327.703 65.4496C328.406 66.8239 328.758 68.4645 328.758 70.3714V86H321.95V71.5859C321.961 70.0838 321.577 68.9119 320.799 68.0703C320.022 67.218 318.951 66.7919 317.587 66.7919C316.671 66.7919 315.862 66.989 315.158 67.3832C314.466 67.7773 313.923 68.3526 313.528 69.109C313.145 69.8548 312.948 70.755 312.937 71.8097ZM350.307 86H342.892L354.19 53.2727H363.107L374.389 86H366.974L358.776 60.7514H358.521L350.307 86ZM349.843 73.136H367.358V78.5373H349.843V73.136ZM385.008 53.2727V86H378.2V53.2727H385.008ZM401.647 86.4794C399.122 86.4794 396.949 85.968 395.127 84.9453C393.316 83.9119 391.92 82.4524 390.94 80.5668C389.96 78.6705 389.47 76.4279 389.47 73.8391C389.47 71.3143 389.96 69.0984 390.94 67.1914C391.92 65.2844 393.3 63.7983 395.079 62.733C396.869 61.6676 398.968 61.1349 401.375 61.1349C402.994 61.1349 404.502 61.396 405.898 61.918C407.304 62.4293 408.529 63.2017 409.573 64.2351C410.628 65.2685 411.448 66.5682 412.034 68.1342C412.62 69.6896 412.913 71.5114 412.913 73.5994V75.4691H392.187V71.2504H406.505C406.505 70.2702 406.292 69.402 405.866 68.6456C405.439 67.8892 404.848 67.2979 404.092 66.8718C403.346 66.435 402.478 66.2166 401.487 66.2166C400.454 66.2166 399.537 66.4563 398.738 66.9357C397.95 67.4045 397.332 68.0384 396.885 68.8374C396.437 69.6257 396.208 70.5046 396.198 71.4741V75.4851C396.198 76.6996 396.421 77.7489 396.869 78.6332C397.327 79.5174 397.971 80.1992 398.802 80.6786C399.633 81.158 400.619 81.3977 401.759 81.3977C402.515 81.3977 403.208 81.2912 403.836 81.0781C404.465 80.8651 405.003 80.5455 405.45 80.1193C405.898 79.6932 406.238 79.1712 406.473 78.5533L412.769 78.9688C412.449 80.4815 411.794 81.8026 410.803 82.9318C409.823 84.0504 408.556 84.924 407 85.5526C405.455 86.1705 403.671 86.4794 401.647 86.4794ZM422.605 61.4545L427.111 70.0359L431.729 61.4545H438.713L431.602 73.7273L438.904 86H431.953L427.111 77.5146L422.349 86H415.318L422.605 73.7273L415.574 61.4545H422.605ZM449.623 86.4634C448.057 86.4634 446.661 86.1918 445.436 85.6484C444.211 85.0945 443.242 84.2795 442.528 83.2035C441.825 82.1168 441.473 80.7638 441.473 79.1445C441.473 77.7809 441.724 76.6357 442.224 75.7088C442.725 74.782 443.407 74.0362 444.27 73.4716C445.133 72.907 446.113 72.4808 447.21 72.1932C448.318 71.9055 449.479 71.7031 450.694 71.5859C452.121 71.4368 453.272 71.2983 454.146 71.1705C455.019 71.032 455.653 70.8295 456.047 70.5632C456.441 70.2969 456.638 69.9027 456.638 69.3807V69.2848C456.638 68.2727 456.319 67.4897 455.68 66.9357C455.051 66.3817 454.156 66.1048 452.995 66.1048C451.77 66.1048 450.795 66.3764 450.071 66.9197C449.346 67.4524 448.867 68.1236 448.632 68.9332L442.336 68.4219C442.656 66.9304 443.284 65.6413 444.222 64.5547C445.159 63.4574 446.369 62.6158 447.849 62.0298C449.341 61.4332 451.067 61.1349 453.027 61.1349C454.391 61.1349 455.696 61.2947 456.942 61.6143C458.199 61.9339 459.312 62.4293 460.282 63.1005C461.262 63.7717 462.034 64.6346 462.599 65.6893C463.164 66.7333 463.446 67.9851 463.446 69.4446V86H456.99V82.5962H456.798C456.404 83.3633 455.877 84.0398 455.216 84.6257C454.556 85.201 453.762 85.6538 452.835 85.984C451.908 86.3036 450.838 86.4634 449.623 86.4634ZM451.573 81.7653C452.574 81.7653 453.458 81.5682 454.225 81.174C454.992 80.7692 455.594 80.2259 456.031 79.544C456.468 78.8622 456.686 78.0898 456.686 77.2269V74.6222C456.473 74.7607 456.18 74.8885 455.807 75.0057C455.445 75.1122 455.035 75.2134 454.577 75.3093C454.119 75.3945 453.661 75.4744 453.203 75.549C452.745 75.6129 452.329 75.6715 451.956 75.7248C451.157 75.842 450.459 76.0284 449.863 76.2841C449.266 76.5398 448.803 76.886 448.473 77.3228C448.142 77.7489 447.977 78.2816 447.977 78.9208C447.977 79.8477 448.313 80.5561 448.984 81.0462C449.666 81.5256 450.529 81.7653 451.573 81.7653Z" fill="white"/>
</svg>
