<svg width="340" height="140" viewBox="0 0 340 140" fill="none" xmlns="http://www.w3.org/2000/svg">
<rect width="339.571" height="140" rx="20" fill="url(#paint0_linear_67_352)"/>
<path d="M78.5117 20L111.176 90.2297L114.571 36.6622L78.5117 20Z" fill="white"/>
<path d="M86.9381 93.7973H47.6328L42.6148 105.946L67.2855 120L91.9561 105.946L86.9381 93.7973Z" fill="white"/>
<path d="M54.3685 78.0405H80.2159L67.2855 46.6486L54.3685 78.0405Z" fill="white"/>
<path d="M56.0592 20L20 36.6622L23.3949 90.2297L56.0592 20Z" fill="white"/>
<path d="M153.056 86H145.642L156.94 53.2727H165.856L177.138 86H169.724L161.526 60.7514H161.27L153.056 86ZM152.593 73.136H170.107V78.5373H152.593V73.136ZM187.757 71.8097V86H180.95V61.4545H187.438V65.7852H187.725C188.269 64.3576 189.179 63.2283 190.458 62.3974C191.736 61.5558 193.286 61.1349 195.108 61.1349C196.813 61.1349 198.299 61.5078 199.566 62.2536C200.834 62.9993 201.82 64.0646 202.523 65.4496C203.226 66.8239 203.577 68.4645 203.577 70.3714V86H196.77V71.5859C196.781 70.0838 196.397 68.9119 195.619 68.0703C194.842 67.218 193.771 66.7919 192.407 66.7919C191.491 66.7919 190.682 66.989 189.978 67.3832C189.286 67.7773 188.743 68.3526 188.348 69.109C187.965 69.8548 187.768 70.755 187.757 71.8097ZM220.001 95.7159C217.796 95.7159 215.905 95.4123 214.328 94.805C212.762 94.2085 211.516 93.3935 210.589 92.3601C209.662 91.3267 209.06 90.1655 208.783 88.8764L215.079 88.0295C215.271 88.5195 215.575 88.9776 215.99 89.4038C216.406 89.8299 216.954 90.1708 217.636 90.4265C218.328 90.6928 219.17 90.826 220.161 90.826C221.642 90.826 222.861 90.4638 223.82 89.7393C224.79 89.0256 225.274 87.8271 225.274 86.1438V81.6534H224.987C224.689 82.3352 224.241 82.9798 223.645 83.587C223.048 84.1942 222.281 84.6896 221.343 85.0732C220.406 85.4567 219.287 85.6484 217.988 85.6484C216.145 85.6484 214.467 85.2223 212.954 84.37C211.452 83.5071 210.253 82.1914 209.358 80.4229C208.474 78.6438 208.032 76.396 208.032 73.6793C208.032 70.8988 208.485 68.5763 209.39 66.712C210.296 64.8477 211.5 63.4521 213.002 62.5252C214.515 61.5984 216.171 61.1349 217.972 61.1349C219.346 61.1349 220.496 61.3693 221.423 61.8381C222.35 62.2962 223.096 62.8714 223.661 63.5639C224.236 64.2457 224.678 64.9169 224.987 65.5774H225.243V61.4545H232.002V86.2397C232.002 88.3278 231.491 90.0749 230.468 91.4812C229.445 92.8874 228.028 93.9421 226.217 94.6452C224.417 95.359 222.345 95.7159 220.001 95.7159ZM220.145 80.5348C221.242 80.5348 222.169 80.2631 222.925 79.7198C223.692 79.1658 224.278 78.3775 224.683 77.3548C225.099 76.3214 225.306 75.0856 225.306 73.6474C225.306 72.2092 225.104 70.9627 224.699 69.908C224.294 68.8427 223.708 68.017 222.941 67.4311C222.174 66.8452 221.242 66.5522 220.145 66.5522C219.026 66.5522 218.083 66.8558 217.316 67.4631C216.549 68.0597 215.969 68.8906 215.575 69.956C215.18 71.0213 214.983 72.2518 214.983 73.6474C214.983 75.0643 215.18 76.2894 215.575 77.3228C215.979 78.3455 216.56 79.1392 217.316 79.7038C218.083 80.2578 219.026 80.5348 220.145 80.5348ZM253.16 75.549V61.4545H259.967V86H253.431V81.5415H253.176C252.622 82.9798 251.7 84.1357 250.411 85.0092C249.133 85.8828 247.572 86.3196 245.729 86.3196C244.088 86.3196 242.645 85.9467 241.398 85.201C240.152 84.4553 239.177 83.3952 238.474 82.021C237.782 80.6467 237.43 79.0007 237.419 77.0831V61.4545H244.227V75.8686C244.238 77.3175 244.626 78.4627 245.393 79.3043C246.161 80.146 247.189 80.5668 248.478 80.5668C249.298 80.5668 250.065 80.3803 250.779 80.0075C251.493 79.6239 252.068 79.0593 252.505 78.3136C252.952 77.5678 253.17 76.6463 253.16 75.549ZM272.22 53.2727V86H265.413V53.2727H272.22ZM284.673 86.4634C283.107 86.4634 281.711 86.1918 280.486 85.6484C279.261 85.0945 278.291 84.2795 277.577 83.2035C276.874 82.1168 276.523 80.7638 276.523 79.1445C276.523 77.7809 276.773 76.6357 277.274 75.7088C277.774 74.782 278.456 74.0362 279.319 73.4716C280.182 72.907 281.162 72.4808 282.26 72.1932C283.368 71.9055 284.529 71.7031 285.743 71.5859C287.171 71.4368 288.321 71.2983 289.195 71.1705C290.069 71.032 290.702 70.8295 291.097 70.5632C291.491 70.2969 291.688 69.9027 291.688 69.3807V69.2848C291.688 68.2727 291.368 67.4897 290.729 66.9357C290.1 66.3817 289.206 66.1048 288.044 66.1048C286.819 66.1048 285.844 66.3764 285.12 66.9197C284.396 67.4524 283.916 68.1236 283.682 68.9332L277.386 68.4219C277.705 66.9304 278.334 65.6413 279.271 64.5547C280.209 63.4574 281.418 62.6158 282.899 62.0298C284.39 61.4332 286.116 61.1349 288.076 61.1349C289.44 61.1349 290.745 61.2947 291.991 61.6143C293.249 61.9339 294.362 62.4293 295.331 63.1005C296.311 63.7717 297.084 64.6346 297.648 65.6893C298.213 66.7333 298.495 67.9851 298.495 69.4446V86H292.039V82.5962H291.848C291.453 83.3633 290.926 84.0398 290.266 84.6257C289.605 85.201 288.811 85.6538 287.885 85.984C286.958 86.3036 285.887 86.4634 284.673 86.4634ZM286.622 81.7653C287.624 81.7653 288.508 81.5682 289.275 81.174C290.042 80.7692 290.644 80.2259 291.081 79.544C291.517 78.8622 291.736 78.0898 291.736 77.2269V74.6222C291.523 74.7607 291.23 74.8885 290.857 75.0057C290.495 75.1122 290.085 75.2134 289.626 75.3093C289.168 75.3945 288.71 75.4744 288.252 75.549C287.794 75.6129 287.379 75.6715 287.006 75.7248C286.207 75.842 285.509 76.0284 284.912 76.2841C284.316 76.5398 283.852 76.886 283.522 77.3228C283.192 77.7489 283.027 78.2816 283.027 78.9208C283.027 79.8477 283.362 80.5561 284.033 81.0462C284.715 81.5256 285.578 81.7653 286.622 81.7653ZM303.777 86V61.4545H310.377V65.7372H310.632C311.08 64.2138 311.831 63.0632 312.885 62.2855C313.94 61.4972 315.155 61.103 316.529 61.103C316.87 61.103 317.237 61.1243 317.632 61.1669C318.026 61.2095 318.372 61.2681 318.67 61.3427V67.3832C318.351 67.2873 317.909 67.2021 317.344 67.1275C316.779 67.0529 316.263 67.0156 315.794 67.0156C314.792 67.0156 313.898 67.234 313.109 67.6708C312.331 68.0969 311.714 68.6935 311.255 69.4606C310.808 70.2276 310.584 71.1119 310.584 72.1133V86H303.777Z" fill="white"/>
<defs>
<linearGradient id="paint0_linear_67_352" x1="0" y1="140" x2="347.41" y2="22.4721" gradientUnits="userSpaceOnUse">
<stop stop-color="#F5133E"/>
<stop offset="1" stop-color="#933DFF"/>
</linearGradient>
</defs>
</svg>
