<svg width="140" height="140" viewBox="0 0 140 140" fill="none" xmlns="http://www.w3.org/2000/svg">
<rect width="140" height="140" rx="20" fill="#13222A"/>
<path d="M77.9966 45.0895H61.9589L45.7811 91.0634H56.3586L59.677 81.6608H75.7175L72.8711 73.5718H62.5115L69.9776 52.3485L83.5938 91.0559L83.5967 91.0634H94.1741L77.9966 45.0895Z" fill="#FFEADB"/>
<path d="M113.578 45.4846C113.312 45.0134 112.87 44.667 112.349 44.5217C111.827 44.3764 111.27 44.4441 110.798 44.7099C110.327 44.9757 109.981 45.4178 109.836 45.939C109.691 46.4602 109.758 47.0178 110.024 47.489C115.434 57.1082 117.198 68.354 114.994 79.1678C112.79 89.9816 106.765 99.6399 98.023 106.375C89.2802 113.109 78.4042 116.471 67.386 115.842C56.3678 115.213 45.9445 110.637 38.0243 102.952C30.104 95.2668 25.2167 84.986 24.2569 73.9917C23.2971 62.9974 26.329 52.0252 32.7977 43.0837C39.2663 34.1422 48.739 27.8295 59.4816 25.3012C70.2241 22.7729 81.518 24.1982 91.2956 29.3161C90.9823 30.7585 91.1902 32.2652 91.8825 33.5688C92.5747 34.8724 93.7064 35.8885 95.0767 36.4369C96.4471 36.9852 97.9674 37.0303 99.3678 36.5641C100.768 36.0979 101.958 35.1505 102.726 33.8902C103.495 32.6299 103.791 31.1382 103.564 29.6798C103.337 28.2215 102.6 26.8908 101.485 25.924C100.37 24.9572 98.9479 24.4169 97.472 24.3989C95.9961 24.381 94.5616 24.8865 93.4231 25.8258C82.7958 20.1908 70.4932 18.5759 58.7716 21.2772C47.05 23.9785 36.6952 30.815 29.6061 40.5328C22.5169 50.2507 19.1687 62.1985 20.1755 74.1851C21.1823 86.1717 26.4767 97.3937 35.0876 105.793C43.6984 114.192 55.0487 119.205 67.0566 119.913C79.0646 120.621 90.9253 116.977 100.464 109.648C110.002 102.319 116.578 91.7976 118.988 80.0123C121.396 68.2271 119.475 55.9684 113.578 45.4846Z" fill="#FFEADB"/>
</svg>
