<svg width="140" height="140" viewBox="0 0 140 140" fill="none" xmlns="http://www.w3.org/2000/svg">
<rect width="140" height="140" rx="20" fill="#F02E65"/>
<path fill-rule="evenodd" clip-rule="evenodd" d="M86.6963 103.31C80.6136 103.31 74.9114 101.68 70.0044 98.8315C66.3221 100.963 62.2303 102.389 57.935 102.99C49.1875 104.213 40.3122 101.911 33.2617 96.5907C29.7671 93.9576 26.8258 90.6616 24.6057 86.8914C22.3855 83.1208 20.9301 78.9498 20.3226 74.6168C19.7151 70.2838 19.9673 65.8734 21.065 61.6376C22.1627 57.4019 24.0843 53.4245 26.7199 49.9319C29.3556 46.4392 32.6536 43.5002 36.4256 41.2827C40.1975 39.0652 44.3694 37.6128 48.7031 37.0083C53.0367 36.4038 57.4468 36.6592 61.6814 37.7599C64.6043 38.5197 67.4042 39.6718 70.0064 41.1801C74.9136 38.3331 80.6145 36.7028 86.6963 36.7028C105.09 36.7028 120 51.6132 120 70.0067C120 88.3997 105.09 103.31 86.6963 103.31ZM64.4296 45.2398L64.4399 45.2311C59.8152 43.156 54.6616 42.3997 49.5613 43.113C42.4287 44.1104 35.9844 47.9005 31.6461 53.6494C27.308 59.3984 25.4311 66.6347 26.4286 73.768C27.4261 80.9002 31.2162 87.3445 36.965 91.6827C42.7138 96.0208 49.9506 97.8978 57.0831 96.9001C64.216 95.9029 70.6603 92.113 74.9983 86.3639C79.3365 80.6147 81.2136 73.3784 80.2158 66.2457C79.7559 62.9551 78.7013 59.8108 77.134 56.9525C74.296 51.7964 69.8306 47.6618 64.4296 45.2398Z" fill="white"/>
<path d="M54.2147 58.4845C54.1747 58.5829 53.6657 60.583 53.1171 62.955C52.5481 65.3271 51.6462 69.0719 51.1375 71.2868C50.1563 75.345 49.5681 78.0114 49.5681 78.3647C49.5681 78.4619 50.1762 78.5411 50.9206 78.5411H52.274L52.8809 75.8349C53.2347 74.3649 54.0191 70.9924 54.6462 68.3463C55.2737 65.699 56.0378 62.4843 56.3326 61.1897C56.6259 59.8956 56.9202 58.7204 56.9791 58.5828C57.0387 58.4069 56.7045 58.3485 55.6853 58.3485C54.9203 58.3485 54.2531 58.4069 54.2147 58.4845ZM43.6862 66.9735L41.8826 68.9343L42.4125 69.5613C42.7057 69.914 43.5103 70.797 44.1965 71.5221L45.4513 72.8551H49.0194L47.3338 71.0312C46.4115 70.0522 45.6468 69.1107 45.6468 68.9934C45.6468 68.8562 46.3531 67.9743 47.2159 67.033C48.0781 66.073 48.7841 65.2484 48.7841 65.1502C48.7841 65.0721 48.039 65.0131 47.1374 65.0131H45.5103L43.6862 66.9735ZM57.41 65.1306C57.41 65.19 57.7437 65.562 58.1543 65.9737C59.6848 67.5032 60.7628 68.7978 60.7038 69.0518C60.665 69.1893 59.9192 70.11 59.0181 71.0711L57.3914 72.8551H59.2141L61.0374 72.8354L62.703 71.0127C63.6252 69.9936 64.37 69.0906 64.37 68.9731C64.37 68.8759 63.5859 67.9542 62.6052 66.9155L60.8413 65.0131H59.1351C58.1745 65.0131 57.41 65.0721 57.41 65.1306Z" fill="white"/>
</svg>
