<svg width="503" height="140" viewBox="0 0 503 140" fill="none" xmlns="http://www.w3.org/2000/svg">
<rect width="502.76" height="140" rx="20" fill="#00878F"/>
<path d="M135.76 79.1395C135.803 86.0939 132.972 92.7538 127.781 97.8971C122.359 103.242 115.056 106.247 107.443 106.267C95.1408 106.267 84.7201 99.6907 76.4689 86.7269L76.2908 86.4214L70.9717 76.5459C66.6725 69.6926 59.3268 61.6611 48.5984 61.6611C48.446 61.6597 48.2892 61.6626 48.1281 61.6699C37.8767 61.8897 29.7969 69.5915 29.7375 79.2076C29.7046 83.586 31.5333 87.8281 34.8764 91.1449C38.4594 94.6786 43.2847 96.6671 48.3171 96.6838H71.6135C74.5896 100.592 77.691 103.739 80.8121 106.267H48.3171C40.7027 106.248 33.3997 103.243 27.9769 97.8971C22.7919 92.7538 19.9587 86.0939 20.0005 79.1395C20.1104 64.3119 32.3641 52.4252 47.9149 52.0889C60.1313 51.8032 71.3058 58.7642 79.3416 71.662L79.4955 71.9257L84.8036 81.7837C91.2261 91.8109 98.629 96.686 107.443 96.686C112.437 96.686 117.334 94.6639 120.884 91.1471C124.224 87.8281 126.055 83.586 126.02 79.2076C125.961 69.7695 118.173 62.1733 108.195 61.6941C104.892 61.5265 101.598 62.1497 98.585 63.5118C98.4004 60.2525 97.4775 57.0778 95.8859 54.2275C94.8671 52.3793 93.5822 50.6908 92.0724 49.2161C88.1731 45.4114 83.1969 43.3146 78.0426 43.3146H77.9152C73.9274 43.3252 70.0324 44.5184 66.723 46.7434C63.3637 45.0594 59.7828 43.8598 56.087 43.1805C58.894 40.2238 62.2683 37.8634 66.0082 36.2403C69.7481 34.6171 73.7768 33.7646 77.8536 33.7335C85.6433 33.7094 93.1406 36.7668 98.9279 42.4222C101.762 45.2041 104.048 48.4946 105.665 52.1219C106.383 52.0779 107.12 52.0713 107.854 52.0889C123.396 52.4252 135.658 64.3119 135.76 79.1395Z" fill="white"/>
<path d="M174.245 86H166.831L178.129 53.2727H187.046L198.327 86H190.913L182.715 60.7514H182.459L174.245 86ZM173.782 73.136H191.296V78.5373H173.782V73.136ZM202.139 86V61.4545H208.739V65.7372H208.994C209.442 64.2138 210.193 63.0632 211.247 62.2855C212.302 61.4972 213.517 61.103 214.891 61.103C215.232 61.103 215.599 61.1243 215.993 61.1669C216.388 61.2095 216.734 61.2681 217.032 61.3427V67.3832C216.713 67.2873 216.27 67.2021 215.706 67.1275C215.141 67.0529 214.625 67.0156 214.156 67.0156C213.154 67.0156 212.259 67.234 211.471 67.6708C210.693 68.0969 210.076 68.6935 209.617 69.4606C209.17 70.2276 208.946 71.1119 208.946 72.1133V86H202.139ZM228.454 86.3995C226.59 86.3995 224.901 85.9201 223.388 84.9613C221.886 83.9918 220.693 82.5696 219.809 80.6946C218.935 78.8089 218.498 76.4972 218.498 73.7592C218.498 70.9467 218.951 68.6083 219.857 66.744C220.762 64.869 221.966 63.468 223.468 62.5412C224.981 61.6037 226.638 61.1349 228.438 61.1349C229.812 61.1349 230.958 61.3693 231.874 61.8381C232.801 62.2962 233.546 62.8714 234.111 63.5639C234.686 64.2457 235.123 64.9169 235.421 65.5774H235.629V53.2727H242.421V86H235.709V82.0689H235.421C235.102 82.7507 234.649 83.4272 234.063 84.0984C233.488 84.7589 232.737 85.3075 231.81 85.7443C230.894 86.1811 229.775 86.3995 228.454 86.3995ZM230.611 80.9822C231.709 80.9822 232.635 80.6839 233.392 80.0874C234.159 79.4801 234.745 78.6332 235.15 77.5465C235.565 76.4599 235.773 75.1868 235.773 73.7273C235.773 72.2678 235.57 71 235.166 69.924C234.761 68.848 234.175 68.017 233.408 67.4311C232.641 66.8452 231.709 66.5522 230.611 66.5522C229.493 66.5522 228.55 66.8558 227.783 67.4631C227.016 68.0703 226.435 68.9119 226.041 69.9879C225.647 71.0639 225.45 72.3104 225.45 73.7273C225.45 75.1548 225.647 76.4173 226.041 77.5146C226.446 78.6012 227.026 79.4535 227.783 80.0714C228.55 80.6786 229.493 80.9822 230.611 80.9822ZM263.758 75.549V61.4545H270.566V86H264.03V81.5415H263.774C263.22 82.9798 262.299 84.1357 261.009 85.0092C259.731 85.8828 258.17 86.3196 256.327 86.3196C254.687 86.3196 253.243 85.9467 251.997 85.201C250.75 84.4553 249.775 83.3952 249.072 82.021C248.38 80.6467 248.028 79.0007 248.018 77.0831V61.4545H254.825V75.8686C254.836 77.3175 255.225 78.4627 255.992 79.3043C256.759 80.146 257.787 80.5668 259.076 80.5668C259.896 80.5668 260.663 80.3803 261.377 80.0075C262.091 79.6239 262.666 79.0593 263.103 78.3136C263.55 77.5678 263.769 76.6463 263.758 75.549ZM276.011 86V61.4545H282.818V86H276.011ZM279.431 58.2905C278.418 58.2905 277.55 57.9549 276.826 57.2837C276.112 56.6019 275.755 55.7869 275.755 54.8388C275.755 53.9013 276.112 53.0969 276.826 52.4258C277.55 51.744 278.418 51.4031 279.431 51.4031C280.443 51.4031 281.306 51.744 282.019 52.4258C282.744 53.0969 283.106 53.9013 283.106 54.8388C283.106 55.7869 282.744 56.6019 282.019 57.2837C281.306 57.9549 280.443 58.2905 279.431 58.2905ZM295.079 71.8097V86H288.272V61.4545H294.759V65.7852H295.047C295.59 64.3576 296.501 63.2283 297.78 62.3974C299.058 61.5558 300.608 61.1349 302.43 61.1349C304.134 61.1349 305.621 61.5078 306.888 62.2536C308.156 62.9993 309.142 64.0646 309.845 65.4496C310.548 66.8239 310.899 68.4645 310.899 70.3714V86H304.092V71.5859C304.103 70.0838 303.719 68.9119 302.941 68.0703C302.164 67.218 301.093 66.7919 299.729 66.7919C298.813 66.7919 298.003 66.989 297.3 67.3832C296.608 67.7773 296.065 68.3526 295.67 69.109C295.287 69.8548 295.09 70.755 295.079 71.8097ZM327.355 86.4794C324.873 86.4794 322.726 85.9521 320.915 84.8974C319.115 83.832 317.724 82.3512 316.744 80.4549C315.764 78.5479 315.274 76.3374 315.274 73.8232C315.274 71.2876 315.764 69.0717 316.744 67.1754C317.724 65.2685 319.115 63.7876 320.915 62.733C322.726 61.6676 324.873 61.1349 327.355 61.1349C329.837 61.1349 331.978 61.6676 333.779 62.733C335.59 63.7876 336.986 65.2685 337.966 67.1754C338.946 69.0717 339.436 71.2876 339.436 73.8232C339.436 76.3374 338.946 78.5479 337.966 80.4549C336.986 82.3512 335.59 83.832 333.779 84.8974C331.978 85.9521 329.837 86.4794 327.355 86.4794ZM327.387 81.206C328.516 81.206 329.459 80.8864 330.215 80.2472C330.972 79.5973 331.542 78.7131 331.925 77.5945C332.319 76.4759 332.516 75.2028 332.516 73.7752C332.516 72.3477 332.319 71.0746 331.925 69.956C331.542 68.8374 330.972 67.9531 330.215 67.3033C329.459 66.6534 328.516 66.3285 327.387 66.3285C326.247 66.3285 325.288 66.6534 324.51 67.3033C323.743 67.9531 323.163 68.8374 322.769 69.956C322.385 71.0746 322.193 72.3477 322.193 73.7752C322.193 75.2028 322.385 76.4759 322.769 77.5945C323.163 78.7131 323.743 79.5973 324.51 80.2472C325.288 80.8864 326.247 81.206 327.387 81.206ZM383.281 64.7305H376.282C376.154 63.8249 375.893 63.0206 375.499 62.3175C375.105 61.6037 374.599 60.9964 373.981 60.4957C373.363 59.995 372.649 59.6115 371.84 59.3452C371.041 59.0788 370.172 58.9457 369.235 58.9457C367.541 58.9457 366.065 59.3665 364.808 60.2081C363.551 61.0391 362.576 62.2536 361.884 63.8516C361.191 65.4389 360.845 67.3672 360.845 69.6364C360.845 71.9695 361.191 73.9297 361.884 75.517C362.587 77.1044 363.567 78.3029 364.824 79.1126C366.081 79.9222 367.536 80.3271 369.187 80.3271C370.114 80.3271 370.971 80.2045 371.76 79.9595C372.559 79.7145 373.267 79.3576 373.885 78.8888C374.503 78.4094 375.014 77.8288 375.419 77.147C375.835 76.4652 376.122 75.6875 376.282 74.8139L383.281 74.8459C383.1 76.348 382.647 77.7969 381.923 79.1925C381.209 80.5774 380.245 81.8185 379.031 82.9158C377.827 84.0025 376.389 84.8654 374.716 85.5046C373.054 86.1332 371.174 86.4474 369.075 86.4474C366.156 86.4474 363.546 85.7869 361.245 84.4659C358.954 83.1449 357.143 81.2326 355.812 78.729C354.49 76.2255 353.83 73.1946 353.83 69.6364C353.83 66.0675 354.501 63.0312 355.843 60.5277C357.186 58.0241 359.008 56.1172 361.309 54.8068C363.61 53.4858 366.199 52.8253 369.075 52.8253C370.971 52.8253 372.729 53.0916 374.348 53.6243C375.978 54.157 377.422 54.9347 378.679 55.9574C379.936 56.9695 380.959 58.2106 381.747 59.6808C382.546 61.1509 383.058 62.8342 383.281 64.7305ZM394.923 53.2727V86H388.115V53.2727H394.923ZM411.466 86.4794C408.984 86.4794 406.837 85.9521 405.026 84.8974C403.226 83.832 401.836 82.3512 400.855 80.4549C399.875 78.5479 399.385 76.3374 399.385 73.8232C399.385 71.2876 399.875 69.0717 400.855 67.1754C401.836 65.2685 403.226 63.7876 405.026 62.733C406.837 61.6676 408.984 61.1349 411.466 61.1349C413.948 61.1349 416.09 61.6676 417.89 62.733C419.701 63.7876 421.097 65.2685 422.077 67.1754C423.057 69.0717 423.547 71.2876 423.547 73.8232C423.547 76.3374 423.057 78.5479 422.077 80.4549C421.097 82.3512 419.701 83.832 417.89 84.8974C416.09 85.9521 413.948 86.4794 411.466 86.4794ZM411.498 81.206C412.627 81.206 413.57 80.8864 414.327 80.2472C415.083 79.5973 415.653 78.7131 416.037 77.5945C416.431 76.4759 416.628 75.2028 416.628 73.7752C416.628 72.3477 416.431 71.0746 416.037 69.956C415.653 68.8374 415.083 67.9531 414.327 67.3033C413.57 66.6534 412.627 66.3285 411.498 66.3285C410.358 66.3285 409.399 66.6534 408.622 67.3033C407.855 67.9531 407.274 68.8374 406.88 69.956C406.496 71.0746 406.305 72.3477 406.305 73.7752C406.305 75.2028 406.496 76.4759 406.88 77.5945C407.274 78.7131 407.855 79.5973 408.622 80.2472C409.399 80.8864 410.358 81.206 411.498 81.206ZM443.714 75.549V61.4545H450.522V86H443.986V81.5415H443.73C443.176 82.9798 442.255 84.1357 440.966 85.0092C439.687 85.8828 438.126 86.3196 436.283 86.3196C434.643 86.3196 433.199 85.9467 431.953 85.201C430.706 84.4553 429.732 83.3952 429.028 82.021C428.336 80.6467 427.984 79.0007 427.974 77.0831V61.4545H434.781V75.8686C434.792 77.3175 435.181 78.4627 435.948 79.3043C436.715 80.146 437.743 80.5668 439.032 80.5668C439.852 80.5668 440.619 80.3803 441.333 80.0075C442.047 79.6239 442.622 79.0593 443.059 78.3136C443.506 77.5678 443.725 76.6463 443.714 75.549ZM465.012 86.3995C463.147 86.3995 461.459 85.9201 459.946 84.9613C458.444 83.9918 457.251 82.5696 456.366 80.6946C455.493 78.8089 455.056 76.4972 455.056 73.7592C455.056 70.9467 455.509 68.6083 456.414 66.744C457.32 64.869 458.524 63.468 460.026 62.5412C461.539 61.6037 463.195 61.1349 464.996 61.1349C466.37 61.1349 467.515 61.3693 468.431 61.8381C469.358 62.2962 470.104 62.8714 470.669 63.5639C471.244 64.2457 471.681 64.9169 471.979 65.5774H472.187V53.2727H478.978V86H472.267V82.0689H471.979C471.659 82.7507 471.207 83.4272 470.621 84.0984C470.045 84.7589 469.294 85.3075 468.367 85.7443C467.451 86.1811 466.333 86.3995 465.012 86.3995ZM467.169 80.9822C468.266 80.9822 469.193 80.6839 469.949 80.0874C470.717 79.4801 471.302 78.6332 471.707 77.5465C472.123 76.4599 472.331 75.1868 472.331 73.7273C472.331 72.2678 472.128 71 471.723 69.924C471.318 68.848 470.732 68.017 469.965 67.4311C469.198 66.8452 468.266 66.5522 467.169 66.5522C466.05 66.5522 465.107 66.8558 464.34 67.4631C463.573 68.0703 462.993 68.9119 462.599 69.9879C462.204 71.0639 462.007 72.3104 462.007 73.7273C462.007 75.1548 462.204 76.4173 462.599 77.5146C463.003 78.6012 463.584 79.4535 464.34 80.0714C465.107 80.6786 466.05 80.9822 467.169 80.9822Z" fill="white"/>
</svg>
