<svg width="140" height="140" viewBox="0 0 140 140" fill="none" xmlns="http://www.w3.org/2000/svg">
<rect width="140" height="140" rx="20" fill="#512BD4"/>
<path d="M14.4574 65H11.196L18.5241 44.6364H22.0739L29.402 65H26.1406L20.3835 48.3352H20.2244L14.4574 65ZM15.0043 57.0256H25.5838V59.6108H15.0043V57.0256ZM43.2852 49.9858C43.1791 49.0445 42.7416 48.3153 41.9727 47.7983C41.2037 47.2746 40.2359 47.0128 39.0692 47.0128C38.234 47.0128 37.5115 47.1454 36.9016 47.4105C36.2918 47.669 35.8178 48.027 35.4798 48.4844C35.1483 48.9351 34.9826 49.4489 34.9826 50.0256C34.9826 50.5095 35.0953 50.9271 35.3207 51.2784C35.5527 51.6297 35.8543 51.9247 36.2255 52.1634C36.6033 52.3954 37.0077 52.5909 37.4386 52.75C37.8694 52.9025 38.2837 53.0284 38.6815 53.1278L40.6701 53.6449C41.3197 53.804 41.9859 54.0194 42.6687 54.2912C43.3514 54.563 43.9845 54.9209 44.5678 55.3651C45.1512 55.8092 45.6218 56.3594 45.9798 57.0156C46.3443 57.6719 46.5266 58.4574 46.5266 59.3722C46.5266 60.5256 46.2283 61.5497 45.6317 62.4446C45.0418 63.3395 44.1834 64.0455 43.0565 64.5625C41.9362 65.0795 40.5806 65.3381 38.9897 65.3381C37.4651 65.3381 36.146 65.0961 35.0323 64.6122C33.9187 64.1283 33.047 63.4422 32.4173 62.554C31.7875 61.6591 31.4395 60.5985 31.3732 59.3722H34.4556C34.5153 60.108 34.7539 60.7211 35.1715 61.2116C35.5958 61.6955 36.136 62.0568 36.7923 62.2955C37.4551 62.5275 38.181 62.6435 38.9698 62.6435C39.8382 62.6435 40.6104 62.5076 41.2866 62.2358C41.9693 61.9574 42.5063 61.5729 42.8974 61.0824C43.2885 60.5852 43.484 60.0052 43.484 59.3423C43.484 58.7391 43.3117 58.2453 42.967 57.8608C42.6289 57.4763 42.1682 57.1581 41.5849 56.9062C41.0082 56.6544 40.3552 56.4323 39.6261 56.2401L37.2198 55.5838C35.5891 55.1397 34.2965 54.4867 33.342 53.625C32.3941 52.7633 31.9201 51.6231 31.9201 50.2045C31.9201 49.0312 32.2383 48.0071 32.8746 47.1321C33.511 46.2571 34.3728 45.5777 35.4599 45.0938C36.547 44.6032 37.7733 44.358 39.1388 44.358C40.5176 44.358 41.734 44.5999 42.788 45.0838C43.8486 45.5677 44.6838 46.2339 45.2937 47.0824C45.9035 47.9242 46.2217 48.892 46.2482 49.9858H43.2852ZM50.1982 65V44.6364H57.4567C59.041 44.6364 60.3535 44.9247 61.3942 45.5014C62.4349 46.0781 63.2138 46.8669 63.7308 47.8679C64.2479 48.8622 64.5064 49.9825 64.5064 51.2287C64.5064 52.4815 64.2446 53.6084 63.7209 54.6094C63.2038 55.6037 62.4216 56.3925 61.3743 56.9759C60.3336 57.5526 59.0244 57.8409 57.4467 57.8409H52.4553V55.2358H57.1683C58.1693 55.2358 58.9813 55.0634 59.6044 54.7188C60.2275 54.3674 60.6849 53.8902 60.9766 53.2869C61.2682 52.6837 61.4141 51.9976 61.4141 51.2287C61.4141 50.4598 61.2682 49.777 60.9766 49.1804C60.6849 48.5838 60.2242 48.1165 59.5945 47.7784C58.9714 47.4403 58.1494 47.2713 57.1286 47.2713H53.2706V65H50.1982ZM68.8714 65.1889C68.3279 65.1889 67.8606 64.9967 67.4695 64.6122C67.0784 64.2211 66.8828 63.7505 66.8828 63.2003C66.8828 62.6567 67.0784 62.1927 67.4695 61.8082C67.8606 61.4171 68.3279 61.2216 68.8714 61.2216C69.415 61.2216 69.8823 61.4171 70.2734 61.8082C70.6645 62.1927 70.8601 62.6567 70.8601 63.2003C70.8601 63.5649 70.7673 63.8996 70.5817 64.2045C70.4027 64.5028 70.1641 64.7415 69.8658 64.9205C69.5675 65.0994 69.236 65.1889 68.8714 65.1889ZM91.517 44.6364V65H88.6932L78.3423 50.0653H78.1534V65H75.081V44.6364H77.9247L88.2855 59.5909H88.4744V44.6364H91.517ZM95.9989 65V44.6364H108.766V47.2812H99.0714V53.4858H108.1V56.1207H99.0714V62.3551H108.885V65H95.9989ZM111.866 47.2812V44.6364H127.626V47.2812H121.272V65H118.21V47.2812H111.866Z" fill="white"/>
<path d="M58.3324 83.5H56.1307C56.0005 82.8667 55.7726 82.3104 55.4471 81.831C55.1275 81.3516 54.7369 80.9491 54.2752 80.6236C53.8195 80.2921 53.3134 80.0436 52.7571 79.8778C52.2008 79.7121 51.6207 79.6293 51.017 79.6293C49.9162 79.6293 48.9189 79.9074 48.0252 80.4638C47.1374 81.0201 46.4302 81.8398 45.9034 82.9229C45.3826 84.006 45.1222 85.3348 45.1222 86.9091C45.1222 88.4834 45.3826 89.8121 45.9034 90.8952C46.4302 91.9783 47.1374 92.7981 48.0252 93.3544C48.9189 93.9107 49.9162 94.1889 51.017 94.1889C51.6207 94.1889 52.2008 94.1061 52.7571 93.9403C53.3134 93.7746 53.8195 93.529 54.2752 93.2035C54.7369 92.872 55.1275 92.4666 55.4471 91.9872C55.7726 91.5019 56.0005 90.9455 56.1307 90.3182H58.3324C58.1667 91.2474 57.8648 92.079 57.4268 92.8129C56.9889 93.5468 56.4444 94.1712 55.7933 94.6861C55.1423 95.1951 54.4113 95.5827 53.6005 95.8491C52.7956 96.1154 51.9344 96.2486 51.017 96.2486C49.4664 96.2486 48.0874 95.8698 46.88 95.1122C45.6726 94.3546 44.7227 93.2775 44.0302 91.8807C43.3377 90.4839 42.9915 88.8267 42.9915 86.9091C42.9915 84.9915 43.3377 83.3343 44.0302 81.9375C44.7227 80.5407 45.6726 79.4635 46.88 78.706C48.0874 77.9484 49.4664 77.5696 51.017 77.5696C51.9344 77.5696 52.7956 77.7028 53.6005 77.9691C54.4113 78.2354 55.1423 78.6261 55.7933 79.141C56.4444 79.65 56.9889 80.2714 57.4268 81.0053C57.8648 81.7333 58.1667 82.5649 58.3324 83.5ZM67.1459 96.2841C65.9148 96.2841 64.8347 95.9911 63.9055 95.4052C62.9822 94.8192 62.2601 93.9995 61.7393 92.946C61.2243 91.8925 60.9669 90.6615 60.9669 89.2528C60.9669 87.8324 61.2243 86.5924 61.7393 85.533C62.2601 84.4736 62.9822 83.6509 63.9055 83.065C64.8347 82.479 65.9148 82.1861 67.1459 82.1861C68.3769 82.1861 69.4541 82.479 70.3774 83.065C71.3066 83.6509 72.0287 84.4736 72.5436 85.533C73.0644 86.5924 73.3248 87.8324 73.3248 89.2528C73.3248 90.6615 73.0644 91.8925 72.5436 92.946C72.0287 93.9995 71.3066 94.8192 70.3774 95.4052C69.4541 95.9911 68.3769 96.2841 67.1459 96.2841ZM67.1459 94.402C68.081 94.402 68.8504 94.1623 69.4541 93.6829C70.0578 93.2035 70.5046 92.5732 70.7947 91.7919C71.0847 91.0107 71.2297 90.1643 71.2297 89.2528C71.2297 88.3414 71.0847 87.4921 70.7947 86.7049C70.5046 85.9177 70.0578 85.2815 69.4541 84.7962C68.8504 84.3108 68.081 84.0682 67.1459 84.0682C66.2107 84.0682 65.4413 84.3108 64.8376 84.7962C64.2339 85.2815 63.7871 85.9177 63.4971 86.7049C63.2071 87.4921 63.0621 88.3414 63.0621 89.2528C63.0621 90.1643 63.2071 91.0107 63.4971 91.7919C63.7871 92.5732 64.2339 93.2035 64.8376 93.6829C65.4413 94.1623 66.2107 94.402 67.1459 94.402ZM76.5231 96V82.3636H78.5472V84.4233H78.6893C78.9379 83.7486 79.3877 83.2011 80.0387 82.7809C80.6897 82.3607 81.4237 82.1506 82.2404 82.1506C82.3943 82.1506 82.5866 82.1535 82.8175 82.1594C83.0483 82.1654 83.2229 82.1742 83.3413 82.1861V84.3168C83.2702 84.299 83.1075 84.2724 82.853 84.2369C82.6044 84.1954 82.341 84.1747 82.0629 84.1747C81.4 84.1747 80.8081 84.3138 80.2873 84.592C79.7724 84.8642 79.364 85.243 79.0621 85.7283C78.7662 86.2077 78.6183 86.7552 78.6183 87.3707V96H76.5231ZM91.1271 96.2841C89.8132 96.2841 88.6798 95.9941 87.7269 95.4141C86.7799 94.8281 86.049 94.0114 85.5341 92.9638C85.0251 91.9103 84.7706 90.6851 84.7706 89.2884C84.7706 87.8916 85.0251 86.6605 85.5341 85.5952C86.049 84.5239 86.7652 83.6894 87.6825 83.0916C88.6058 82.4879 89.683 82.1861 90.9141 82.1861C91.6243 82.1861 92.3256 82.3045 93.0181 82.5412C93.7106 82.7779 94.3409 83.1626 94.9091 83.6953C95.4773 84.2221 95.93 84.9205 96.2674 85.7905C96.6048 86.6605 96.7734 87.7318 96.7734 89.0043V89.892H86.2621V88.081H94.6428C94.6428 87.3116 94.4889 86.625 94.1811 86.0213C93.8793 85.4176 93.4472 84.9412 92.8849 84.592C92.3286 84.2428 91.6716 84.0682 90.9141 84.0682C90.0795 84.0682 89.3575 84.2753 88.7479 84.6896C88.1442 85.098 87.6796 85.6307 87.354 86.2876C87.0285 86.9446 86.8658 87.6489 86.8658 88.4006V89.608C86.8658 90.6378 87.0433 91.5108 87.3984 92.2269C87.7595 92.9371 88.2596 93.4787 88.8988 93.8516C89.538 94.2185 90.2808 94.402 91.1271 94.402C91.6776 94.402 92.1747 94.325 92.6186 94.1712C93.0684 94.0114 93.4561 93.7746 93.7816 93.4609C94.1071 93.1413 94.3587 92.7448 94.5362 92.2713L96.5604 92.8395C96.3473 93.526 95.9892 94.1297 95.4862 94.6506C94.9831 95.1655 94.3616 95.5679 93.6218 95.858C92.882 96.142 92.0504 96.2841 91.1271 96.2841Z" fill="white"/>
</svg>
