<svg width="140" height="140" viewBox="0 0 140 140" fill="none" xmlns="http://www.w3.org/2000/svg">
<rect width="140" height="140" rx="20" fill="#252F3E"/>
<path d="M48.181 61.8182C48.181 63.0488 48.3141 64.0466 48.5469 64.7783C48.813 65.51 49.1456 66.3082 49.6112 67.1729C49.7775 67.439 49.844 67.7051 49.844 67.9379C49.844 68.2705 49.6444 68.6031 49.2121 68.9356L47.1168 70.3325C46.8174 70.5321 46.5181 70.6318 46.252 70.6318C45.9194 70.6318 45.5868 70.4656 45.2543 70.1662C44.7886 69.6673 44.3895 69.1352 44.0569 68.6031C43.7243 68.0376 43.3918 67.4057 43.0259 66.6408C40.4317 69.7006 37.1723 71.2305 33.2478 71.2305C30.454 71.2305 28.2256 70.4323 26.5959 68.8359C24.9662 67.2394 24.1348 65.1109 24.1348 62.4501C24.1348 59.6231 25.1325 57.3283 27.1613 55.5988C29.1901 53.8693 31.8842 53.0046 35.3098 53.0046C36.4406 53.0046 37.6047 53.1044 38.8353 53.2707C40.0659 53.437 41.3297 53.703 42.6601 54.0024V51.5744C42.6601 49.0468 42.1279 47.284 41.0969 46.253C40.0326 45.222 38.2366 44.7231 35.6757 44.7231C34.5116 44.7231 33.3143 44.8561 32.0837 45.1555C30.8531 45.4548 29.6558 45.8206 28.4917 46.2863C27.9595 46.5191 27.5604 46.6521 27.3276 46.7186C27.0948 46.7852 26.9285 46.8184 26.7955 46.8184C26.3299 46.8184 26.097 46.4858 26.097 45.7874V44.1577C26.097 43.6256 26.1636 43.2264 26.3299 42.9936C26.4962 42.7608 26.7955 42.528 27.2611 42.2952C28.4252 41.6965 29.822 41.1976 31.4518 40.7985C33.0815 40.3662 34.8109 40.1666 36.6402 40.1666C40.598 40.1666 43.4915 41.0646 45.354 42.8606C47.1833 44.6566 48.1145 47.3838 48.1145 51.0423V61.8182H48.181ZM34.6779 66.8736C35.7755 66.8736 36.9063 66.674 38.1036 66.2749C39.3009 65.8758 40.3652 65.1441 41.2632 64.1463C41.7953 63.5144 42.1944 62.816 42.394 62.0178C42.5935 61.2196 42.7266 60.255 42.7266 59.1242V57.7274C41.7621 57.4945 40.731 57.295 39.6668 57.162C38.6025 57.0289 37.5714 56.9624 36.5404 56.9624C34.3121 56.9624 32.6824 57.3948 31.5848 58.2928C30.4873 59.1908 29.9551 60.4546 29.9551 62.1175C29.9551 63.6807 30.3542 64.8448 31.1857 65.643C31.9839 66.4745 33.148 66.8736 34.6779 66.8736ZM61.3849 70.4656C60.7862 70.4656 60.3871 70.3658 60.121 70.133C59.8549 69.9334 59.6221 69.4678 59.4226 68.8359L51.6067 43.1267C51.4072 42.4615 51.3074 42.0291 51.3074 41.7963C51.3074 41.2642 51.5735 40.9648 52.1056 40.9648H55.365C55.9969 40.9648 56.4293 41.0646 56.6621 41.2974C56.9282 41.497 57.1277 41.9626 57.3273 42.5945L62.9148 64.612L68.1032 42.5945C68.2695 41.9293 68.469 41.497 68.7351 41.2974C69.0012 41.0979 69.4668 40.9648 70.0655 40.9648H72.7262C73.3581 40.9648 73.7905 41.0646 74.0565 41.2974C74.3226 41.497 74.5554 41.9626 74.6885 42.5945L79.9434 64.878L85.6972 42.5945C85.8967 41.9293 86.1295 41.497 86.3623 41.2974C86.6284 41.0979 87.0608 40.9648 87.6595 40.9648H90.7525C91.2847 40.9648 91.584 41.2309 91.584 41.7963C91.584 41.9626 91.5507 42.1289 91.5175 42.3285C91.4842 42.528 91.4177 42.7941 91.2847 43.1599L83.2693 68.8691C83.0697 69.5343 82.8369 69.9667 82.5708 70.1662C82.3048 70.3658 81.8724 70.4988 81.307 70.4988H78.4467C77.8148 70.4988 77.3824 70.399 77.1164 70.1662C76.8503 69.9334 76.6175 69.501 76.4844 68.8359L71.3293 47.3838L66.2074 68.8026C66.0411 69.4678 65.8416 69.9002 65.5755 70.133C65.3094 70.3658 64.8438 70.4656 64.2451 70.4656H61.3849ZM104.123 71.3635C102.393 71.3635 100.664 71.164 99.0008 70.7649C97.3378 70.3658 96.0407 69.9334 95.176 69.4345C94.6438 69.1352 94.278 68.8026 94.1449 68.5033C94.0119 68.2039 93.9454 67.8713 93.9454 67.572V65.8758C93.9454 65.1774 94.2115 64.8448 94.7104 64.8448C94.9099 64.8448 95.1095 64.878 95.309 64.9446C95.5086 65.0111 95.8079 65.1441 96.1405 65.2772C97.2713 65.776 98.5019 66.1751 99.799 66.4412C101.129 66.7073 102.426 66.8403 103.757 66.8403C105.852 66.8403 107.482 66.4745 108.613 65.7428C109.743 65.0111 110.342 63.9468 110.342 62.5832C110.342 61.6519 110.043 60.887 109.444 60.255C108.845 59.6231 107.715 59.0577 106.085 58.5256L101.262 57.0289C98.8345 56.264 97.0385 55.1332 95.9409 53.6365C94.8434 52.1731 94.278 50.5434 94.278 48.814C94.278 47.4171 94.5773 46.1865 95.176 45.1222C95.7746 44.0579 96.5729 43.1267 97.5706 42.395C98.5684 41.63 99.6992 41.0646 101.03 40.6655C102.36 40.2664 103.757 40.1001 105.22 40.1001C105.952 40.1001 106.717 40.1334 107.448 40.2331C108.213 40.3329 108.912 40.4659 109.61 40.599C110.276 40.7653 110.907 40.9316 111.506 41.1311C112.105 41.3307 112.57 41.5302 112.903 41.7298C113.369 41.9959 113.701 42.2619 113.901 42.5613C114.1 42.8273 114.2 43.1932 114.2 43.6588V45.222C114.2 45.9204 113.934 46.2863 113.435 46.2863C113.169 46.2863 112.737 46.1532 112.171 45.8872C110.275 45.0224 108.147 44.5901 105.786 44.5901C103.89 44.5901 102.393 44.8894 101.362 45.5213C100.331 46.1532 99.799 47.1177 99.799 48.4814C99.799 49.4126 100.132 50.2108 100.797 50.8428C101.462 51.4747 102.692 52.1066 104.455 52.672L109.178 54.1687C111.573 54.9336 113.302 55.9979 114.333 57.3615C115.364 58.7251 115.863 60.2883 115.863 62.0178C115.863 63.4479 115.564 64.745 114.998 65.8758C114.4 67.0066 113.601 68.0044 112.57 68.8026C111.539 69.6341 110.309 70.2327 108.879 70.6651C107.382 71.1307 105.819 71.3635 104.123 71.3635Z" fill="white"/>
<path fill-rule="evenodd" clip-rule="evenodd" d="M110.408 87.5273C99.4663 95.6092 83.5685 99.8997 69.8991 99.8997C50.742 99.8997 33.4806 92.8155 20.443 81.0418C19.412 80.1105 20.3432 78.8467 21.5738 79.5784C35.6757 87.7601 53.0701 92.7157 71.0632 92.7157C83.2027 92.7157 96.5395 90.188 108.812 84.9996C110.641 84.1681 112.204 86.1969 110.408 87.5273Z" fill="#FF9900"/>
<path fill-rule="evenodd" clip-rule="evenodd" d="M114.965 82.3389C113.568 80.5429 105.719 81.4742 102.16 81.9065C101.096 82.0396 100.93 81.1083 101.894 80.4099C108.147 76.0197 118.424 77.2835 119.621 78.7469C120.819 80.2436 119.289 90.5206 113.435 95.4429C112.537 96.2079 111.672 95.8088 112.071 94.811C113.402 91.5184 116.362 84.1016 114.965 82.3389Z" fill="#FF9900"/>
</svg>
