<svg width="140" height="140" viewBox="0 0 140 140" fill="none" xmlns="http://www.w3.org/2000/svg">
<rect width="140" height="140" rx="20" fill="#252F3E"/>
<path d="M48.1809 61.8177C48.1809 63.0483 48.314 64.0461 48.5468 64.7778C48.8129 65.5095 49.1455 66.3077 49.6111 67.1724C49.7774 67.4385 49.8439 67.7046 49.8439 67.9374C49.8439 68.27 49.6443 68.6026 49.212 68.9351L47.1167 70.332C46.8173 70.5316 46.518 70.6313 46.2519 70.6313C45.9193 70.6313 45.5867 70.4651 45.2542 70.1657C44.7885 69.6668 44.3894 69.1347 44.0568 68.6026C43.7242 68.0371 43.3917 67.4052 43.0258 66.6403C40.4316 69.7001 37.1722 71.23 33.2477 71.23C30.4539 71.23 28.2256 70.4318 26.5959 68.8354C24.9662 67.2389 24.1347 65.1104 24.1347 62.4496C24.1347 59.6226 25.1325 57.3278 27.1613 55.5983C29.1901 53.8688 31.8841 53.0041 35.3097 53.0041C36.4405 53.0041 37.6046 53.1039 38.8352 53.2702C40.0658 53.4365 41.3296 53.7025 42.66 54.0019V51.5739C42.66 49.0463 42.1278 47.2835 41.0968 46.2525C40.0325 45.2215 38.2365 44.7226 35.6756 44.7226C34.5115 44.7226 33.3142 44.8556 32.0836 45.155C30.853 45.4543 29.6557 45.8201 28.4916 46.2858C27.9595 46.5186 27.5604 46.6516 27.3276 46.7181C27.0948 46.7847 26.9285 46.8179 26.7954 46.8179C26.3298 46.8179 26.097 46.4853 26.097 45.7869V44.1572C26.097 43.6251 26.1635 43.2259 26.3298 42.9931C26.4961 42.7603 26.7954 42.5275 27.261 42.2947C28.4251 41.696 29.822 41.1971 31.4517 40.798C33.0814 40.3657 34.8108 40.1661 36.6401 40.1661C40.5979 40.1661 43.4914 41.0641 45.3539 42.8601C47.1832 44.6561 48.1144 47.3833 48.1144 51.0418V61.8177H48.1809ZM34.6778 66.8731C35.7754 66.8731 36.9062 66.6735 38.1035 66.2744C39.3008 65.8753 40.3651 65.1436 41.2631 64.1458C41.7952 63.5139 42.1943 62.8155 42.3939 62.0173C42.5934 61.2191 42.7265 60.2545 42.7265 59.1237V57.7269C41.762 57.494 40.7309 57.2945 39.6667 57.1615C38.6024 57.0284 37.5713 56.9619 36.5403 56.9619C34.312 56.9619 32.6823 57.3943 31.5847 58.2923C30.4872 59.1903 29.955 60.4541 29.955 62.117C29.955 63.6802 30.3541 64.8443 31.1856 65.6425C31.9838 66.474 33.1479 66.8731 34.6778 66.8731ZM61.3848 70.4651C60.7861 70.4651 60.387 70.3653 60.1209 70.1325C59.8548 69.9329 59.622 69.4673 59.4225 68.8354L51.6066 43.1262C51.4071 42.461 51.3073 42.0286 51.3073 41.7958C51.3073 41.2637 51.5734 40.9643 52.1055 40.9643H55.3649C55.9968 40.9643 56.4292 41.0641 56.662 41.2969C56.9281 41.4965 57.1276 41.9621 57.3272 42.594L62.9147 64.6115L68.1031 42.594C68.2694 41.9288 68.4689 41.4965 68.735 41.2969C69.0011 41.0974 69.4667 40.9643 70.0654 40.9643H72.7261C73.358 40.9643 73.7904 41.0641 74.0564 41.2969C74.3225 41.4965 74.5553 41.9621 74.6884 42.594L79.9433 64.8775L85.6971 42.594C85.8966 41.9288 86.1294 41.4965 86.3622 41.2969C86.6283 41.0974 87.0607 40.9643 87.6594 40.9643H90.7524C91.2846 40.9643 91.5839 41.2304 91.5839 41.7958C91.5839 41.9621 91.5506 42.1284 91.5174 42.328C91.4841 42.5275 91.4176 42.7936 91.2846 43.1594L83.2692 68.8686C83.0696 69.5338 82.8368 69.9662 82.5707 70.1657C82.3047 70.3653 81.8723 70.4983 81.3069 70.4983H78.4466C77.8147 70.4983 77.3823 70.3985 77.1163 70.1657C76.8502 69.9329 76.6174 69.5005 76.4843 68.8354L71.3292 47.3833L66.2073 68.8021C66.041 69.4673 65.8415 69.8997 65.5754 70.1325C65.3093 70.3653 64.8437 70.4651 64.245 70.4651H61.3848ZM104.122 71.363C102.393 71.363 100.664 71.1635 99.0007 70.7644C97.3377 70.3653 96.0406 69.9329 95.1759 69.434C94.6437 69.1347 94.2779 68.8021 94.1448 68.5028C94.0118 68.2034 93.9453 67.8708 93.9453 67.5715V65.8753C93.9453 65.1769 94.2114 64.8443 94.7103 64.8443C94.9098 64.8443 95.1094 64.8775 95.3089 64.9441C95.5085 65.0106 95.8078 65.1436 96.1404 65.2767C97.2712 65.7755 98.5018 66.1746 99.7989 66.4407C101.129 66.7068 102.426 66.8398 103.757 66.8398C105.852 66.8398 107.482 66.474 108.612 65.7423C109.743 65.0106 110.342 63.9463 110.342 62.5827C110.342 61.6514 110.043 60.8865 109.444 60.2545C108.845 59.6226 107.714 59.0572 106.085 58.5251L101.262 57.0284C98.8344 56.2635 97.0384 55.1327 95.9408 53.636C94.8433 52.1726 94.2779 50.5429 94.2779 48.8135C94.2779 47.4166 94.5772 46.186 95.1759 45.1217C95.7745 44.0574 96.5728 43.1262 97.5705 42.3945C98.5683 41.6295 99.6991 41.0641 101.029 40.665C102.36 40.2659 103.757 40.0996 105.22 40.0996C105.952 40.0996 106.717 40.1329 107.448 40.2326C108.213 40.3324 108.912 40.4654 109.61 40.5985C110.275 40.7648 110.907 40.9311 111.506 41.1306C112.105 41.3302 112.57 41.5297 112.903 41.7293C113.368 41.9954 113.701 42.2614 113.901 42.5608C114.1 42.8268 114.2 43.1927 114.2 43.6583V45.2215C114.2 45.9199 113.934 46.2858 113.435 46.2858C113.169 46.2858 112.737 46.1527 112.171 45.8867C110.275 45.0219 108.147 44.5896 105.785 44.5896C103.89 44.5896 102.393 44.8889 101.362 45.5208C100.331 46.1527 99.7989 47.1172 99.7989 48.4809C99.7989 49.4121 100.131 50.2103 100.797 50.8423C101.462 51.4742 102.692 52.1061 104.455 52.6715L109.178 54.1682C111.572 54.9331 113.302 55.9974 114.333 57.361C115.364 58.7246 115.863 60.2878 115.863 62.0173C115.863 63.4474 115.564 64.7445 114.998 65.8753C114.4 67.0061 113.601 68.0039 112.57 68.8021C111.539 69.6336 110.309 70.2322 108.879 70.6646C107.382 71.1302 105.819 71.363 104.122 71.363Z" fill="white"/>
<path fill-rule="evenodd" clip-rule="evenodd" d="M110.408 87.5268C99.4662 95.6087 83.5684 99.8992 69.899 99.8992C50.7419 99.8992 33.4805 92.815 20.443 81.0413C19.4119 80.11 20.3432 78.8462 21.5738 79.5779C35.6756 87.7596 53.07 92.7152 71.0631 92.7152C83.2026 92.7152 96.5394 90.1875 108.812 84.9991C110.641 84.1676 112.204 86.1964 110.408 87.5268Z" fill="#FF9900"/>
<path fill-rule="evenodd" clip-rule="evenodd" d="M114.965 82.3384C113.568 80.5424 105.719 81.4737 102.16 81.906C101.096 82.0391 100.93 81.1078 101.894 80.4094C108.147 76.0192 118.424 77.283 119.621 78.7464C120.819 80.2431 119.289 90.5201 113.435 95.4424C112.537 96.2074 111.672 95.8083 112.071 94.8105C113.402 91.5179 116.362 84.1011 114.965 82.3384Z" fill="#FF9900"/>
</svg>
