<svg width="140" height="140" viewBox="0 0 140 140" fill="none" xmlns="http://www.w3.org/2000/svg">
<rect width="140" height="140" rx="20" fill="#332E47"/>
<path d="M20 74.1061C20 74.0616 20 74.0172 20.0378 73.9258C20.1835 73.2586 20.267 72.6329 20.4037 72.0191C20.816 70.1665 21.1696 68.2956 21.6923 66.4738C22.5109 63.6206 23.7779 60.9521 25.2953 58.3983C26.7735 55.9105 28.5392 53.6436 30.5225 51.5501C32.0408 49.9476 33.7248 48.5261 35.5161 47.226C37.8748 45.5143 40.402 44.1081 43.0968 43.0244C45.4923 42.0612 47.9447 41.2396 50.5224 40.9056C52.3242 40.6721 54.1313 40.3801 55.9418 40.3325C59.4056 40.2415 62.8735 40.3011 66.3396 40.3078C68.7358 40.3123 71.1367 40.3573 73.5018 39.8981C75.1254 39.5828 76.7516 39.2521 78.3436 38.8096C80.8439 38.1147 83.1814 37.0184 85.4209 35.7063C87.9533 34.2227 90.2086 32.3885 92.3031 30.3465C92.5614 30.0947 92.7465 29.7542 93.0332 29.5499C93.2143 29.4209 93.5349 29.4097 93.766 29.4628C93.8759 29.488 94.0065 29.7981 93.9848 29.9599C93.8462 30.9923 93.6725 32.02 93.5016 33.0478C93.0186 35.9529 92.0404 38.7008 90.7745 41.3442C90.2348 42.4713 89.5461 43.5265 88.9468 44.6261C88.8577 44.7895 88.7987 45.1083 88.8855 45.1944C89.0036 45.3117 89.2967 45.3465 89.4776 45.2923C90.8586 44.879 92.2417 44.4675 93.6026 43.9937C95.663 43.2762 97.6569 42.389 99.5365 41.2835C102.157 39.7423 104.579 37.9332 106.611 35.6447C107.354 34.8076 108.14 34.0022 108.821 33.1171C110.721 30.6502 112.348 28.0051 113.815 25.2601C113.969 24.9718 114.118 24.6962 114.541 24.6939C114.96 24.6915 115.121 24.9505 115.274 25.245C116.667 27.9178 117.802 30.6927 118.555 33.6159C119.085 35.6684 119.491 37.743 119.707 39.8546C119.761 40.3763 119.9 40.8891 120 41.4061C120 41.4505 120 41.4949 119.964 41.588C119.952 41.8264 119.976 42.0162 120 42.2061C120 44.6415 120 47.0769 119.963 49.5763C119.95 49.8955 119.975 50.1508 120 50.4061C120 50.4505 120 50.4949 119.963 50.5886C119.884 50.7601 119.818 50.8798 119.804 51.0052C119.697 51.983 119.646 52.9691 119.49 53.9388C119.238 55.5122 118.958 57.0833 118.62 58.6404C118.066 61.1966 117.253 63.6779 116.293 66.1095C115.245 68.7633 114.028 71.3451 112.541 73.7744C111.267 75.8536 109.86 77.8569 108.413 79.8216C107.346 81.2715 106.199 82.6805 104.947 83.9718C103.277 85.6944 101.531 87.356 99.7058 88.912C98.0326 90.3383 96.2528 91.6514 94.4406 92.899C92.9036 93.9572 91.2823 94.9036 89.6464 95.805C86.9799 97.2743 84.2026 98.5129 81.3215 99.5073C77.8427 100.708 74.3004 101.657 70.6398 102.104C68.7528 102.334 66.8609 102.648 64.9677 102.674C61.8064 102.719 58.6286 102.929 55.4834 102.399C54.2354 102.188 52.9848 101.953 51.7662 101.617C49.7086 101.051 47.7502 100.225 45.8929 99.1577C43.9993 98.0698 42.2091 96.8358 40.6649 95.2947C39.583 94.2149 38.5685 93.0558 37.6206 91.8558C36.0141 89.8219 34.8388 87.5308 34.0443 85.0702C33.2265 82.5377 32.8447 79.9377 32.9779 77.2534C33.0596 75.6078 33.2505 73.9909 33.6024 72.3885C34.1728 69.7917 35.194 67.3648 36.5723 65.1078C37.998 62.7732 39.7597 60.7054 41.8876 58.9596C43.2285 57.8595 44.64 56.8717 46.1793 56.0744C48.0757 55.0922 50.0555 54.3486 52.1467 53.868C53.9312 53.458 55.7327 53.2142 57.5491 53.2304C59.0214 53.2435 60.4976 53.4268 61.9617 53.6152C64.2685 53.9119 66.4452 54.6729 68.5286 55.6852C70.4571 56.6222 72.235 57.7942 73.8607 59.204C75.4022 60.5408 76.8061 62.0046 77.9768 63.6685C79.5092 65.8466 80.6878 68.213 81.4888 70.7621C82.1286 72.798 82.4464 74.8918 82.5888 77.0099C82.6851 78.4419 82.5877 79.8743 82.1948 81.2672C81.8113 82.6269 81.1774 83.8516 80.0253 84.7154C78.9681 85.5081 77.766 85.7628 76.4344 85.6213C74.8324 85.4511 73.5371 84.8106 72.5991 83.4922C71.7331 82.2751 71.4293 80.8695 71.413 79.4221C71.3732 75.8727 71.4033 72.3225 71.3956 68.7726C71.3947 68.3469 71.3611 67.9171 71.2961 67.4964C70.8552 64.6457 68.1981 62.3001 65.2963 62.305C62.3298 62.3099 59.3628 62.2814 56.3968 62.3197C55.3846 62.3328 54.3648 62.4461 53.3654 62.6143C50.6906 63.0647 48.3943 64.3325 46.3785 66.0979C45.1766 67.1506 44.1749 68.3841 43.3516 69.7764C42.0539 71.971 41.3093 74.3315 41.2308 76.8565C41.1899 78.1715 41.3447 79.5229 41.6254 80.8112C42.2243 83.5588 43.5542 85.9519 45.5213 87.9778C46.9518 89.4509 48.604 90.6014 50.4954 91.4056C52.2237 92.1405 54.0214 92.5729 55.9029 92.5994C56.5453 92.6084 57.1891 92.5462 57.8316 92.5053C59.4937 92.3995 61.0527 91.9126 62.5547 91.2165C64.4096 90.3568 66.0105 89.1522 67.3965 87.6561C67.5681 87.4709 67.7229 87.2702 67.8945 87.0659C68.8819 88.6864 70.1917 89.8696 71.8125 90.7033C72.9779 91.3029 74.2197 91.6482 75.5263 91.8209C76.7722 91.9856 78.0132 92.0241 79.2345 91.7772C81.9323 91.2317 84.0945 89.7658 85.7326 87.5979C87.6156 85.1056 88.5127 82.2138 88.5705 79.1162C88.6025 77.3977 88.4248 75.6604 88.1766 73.9556C87.9317 72.2734 87.5398 70.6053 87.1024 68.9603C86.4983 66.6889 85.5231 64.5606 84.3607 62.5177C83.2915 60.6385 82.0674 58.862 80.5975 57.2836C79.4821 56.0859 78.256 54.9859 77.029 53.8991C75.4359 52.4881 73.6276 51.382 71.7489 50.3934C69.4522 49.1848 67.0265 48.3125 64.505 47.7182C62.3139 47.2017 60.0823 46.9417 57.833 46.9193C56.7643 46.9087 55.6873 46.9844 54.6266 47.1191C53.1243 47.3099 51.6084 47.4906 50.1434 47.8564C47.5868 48.4948 45.1423 49.4508 42.8191 50.7268C40.2451 52.1404 37.9078 53.8706 35.8528 55.9443C34.5998 57.2089 33.507 58.6413 32.417 60.056C30.9184 62.0007 29.8003 64.1745 28.9101 66.455C28.1303 68.4526 27.4578 70.49 27.1923 72.6337C27.0173 74.0466 26.7493 75.4604 26.7293 76.8768C26.7053 78.5871 26.8183 80.3104 27.0243 82.0096C27.1975 83.439 27.5262 84.8588 27.8977 86.2531C28.5281 88.6187 29.519 90.8445 30.7251 92.9757C31.8402 94.9458 33.1627 96.7688 34.692 98.4297C35.9564 99.8028 37.3294 101.066 38.827 102.195C41.4984 104.21 44.397 105.796 47.5518 106.899C49.9989 107.755 52.5051 108.4 55.0985 108.598C57.384 108.773 59.6739 108.915 61.9646 108.988C63.0974 109.024 64.2377 108.89 65.3722 108.802C66.8453 108.687 68.3193 108.569 69.7867 108.399C71.1968 108.235 72.618 108.088 74.0004 107.781C76.4379 107.24 78.8731 106.661 81.2664 105.953C84.3498 105.042 87.3537 103.878 90.2212 102.419C92.4377 101.291 94.5773 100.012 96.7562 98.8087C97.0354 98.6545 97.3403 98.4535 97.7255 98.7788C96.6649 99.7888 95.6583 100.802 94.5927 101.748C93.3786 102.826 92.1309 103.868 90.8638 104.884C88.6589 106.651 86.255 108.116 83.7508 109.415C80.7435 110.974 77.6102 112.227 74.3351 113.1C72.6736 113.542 71.0024 113.966 69.3145 114.287C67.808 114.574 66.2757 114.74 64.7486 114.9C63.1139 115.071 61.474 115.237 59.8327 115.288C58.2255 115.338 56.6116 115.28 55.0047 115.194C53.6801 115.122 52.347 115.021 51.0436 114.788C49.2564 114.468 47.4752 114.078 45.7247 113.597C42.8258 112.801 40.112 111.552 37.5279 110.014C35.5279 108.824 33.6378 107.474 31.9556 105.877C30.5911 104.581 29.3329 103.166 28.1021 101.74C26.5428 99.9324 25.3012 97.8991 24.2024 95.7852C23.0914 93.648 22.2174 91.4125 21.5424 89.098C20.8796 86.8252 20.409 84.5177 20.1927 82.1586C20.1815 82.0362 20.0666 81.9234 20 81.8061C20 81.7616 20 81.7172 20.0366 81.6234C20.0488 81.3513 20.0244 81.1287 20 80.9061C20 78.904 20 76.9019 20.0366 74.8369C20.0488 74.5513 20.0244 74.3287 20 74.1061Z" fill="white"/>
<path d="M20 74.1061C20 74.0616 20 74.0172 20.0378 73.9258C20.1835 73.2586 20.267 72.6329 20.4037 72.0191C20.816 70.1665 21.1696 68.2956 21.6923 66.4738C22.5109 63.6206 23.7779 60.9521 25.2953 58.3983C26.7735 55.9105 28.5392 53.6436 30.5225 51.5501C32.0408 49.9476 33.7248 48.5261 35.5161 47.226C37.8748 45.5143 40.402 44.1081 43.0968 43.0244C45.4923 42.0612 47.9447 41.2396 50.5224 40.9056C52.3242 40.6721 54.1313 40.3801 55.9418 40.3325C59.4056 40.2415 62.8735 40.3011 66.3396 40.3078C68.7358 40.3123 71.1367 40.3573 73.5018 39.8981C75.1254 39.5828 76.7516 39.2521 78.3436 38.8096C80.8439 38.1147 83.1814 37.0184 85.4209 35.7063C87.9533 34.2227 90.2086 32.3885 92.3031 30.3465C92.5614 30.0947 92.7465 29.7542 93.0332 29.5499C93.2143 29.4209 93.5349 29.4097 93.766 29.4628C93.8759 29.488 94.0065 29.7981 93.9848 29.9599C93.8462 30.9923 93.6725 32.02 93.5016 33.0478C93.0186 35.9529 92.0404 38.7008 90.7745 41.3442C90.2348 42.4713 89.5461 43.5265 88.9468 44.6261C88.8577 44.7895 88.7987 45.1083 88.8855 45.1944C89.0036 45.3117 89.2967 45.3465 89.4776 45.2923C90.8586 44.879 92.2417 44.4675 93.6026 43.9937C95.663 43.2762 97.6569 42.389 99.5365 41.2835C102.157 39.7423 104.579 37.9332 106.611 35.6447C107.354 34.8076 108.14 34.0022 108.821 33.1171C110.721 30.6502 112.348 28.0051 113.815 25.2601C113.969 24.9718 114.118 24.6962 114.541 24.6939C114.96 24.6915 115.121 24.9505 115.274 25.245C116.667 27.9178 117.802 30.6927 118.555 33.6159C119.085 35.6684 119.491 37.743 119.707 39.8546C119.761 40.3763 119.9 40.8891 120 41.4061C120 41.4505 120 41.4949 119.964 41.588C119.952 41.8264 119.976 42.0162 120 42.2061C120 44.6415 120 47.0769 119.963 49.5763C119.95 49.8955 119.975 50.1508 120 50.4061C120 50.4505 120 50.4949 119.963 50.5886C119.884 50.7601 119.818 50.8798 119.804 51.0052C119.697 51.983 119.646 52.9691 119.49 53.9388C119.238 55.5122 118.958 57.0833 118.62 58.6404C118.066 61.1966 117.253 63.6779 116.293 66.1095C115.245 68.7633 114.028 71.3451 112.541 73.7744C111.267 75.8536 109.86 77.8569 108.413 79.8216C107.346 81.2715 106.199 82.6805 104.947 83.9718C103.277 85.6944 101.531 87.356 99.7058 88.912C98.0326 90.3383 96.2528 91.6514 94.4406 92.899C92.9036 93.9572 91.2823 94.9036 89.6464 95.805C86.9799 97.2743 84.2026 98.5129 81.3215 99.5073C77.8427 100.708 74.3004 101.657 70.6398 102.104C68.7528 102.334 66.8609 102.648 64.9677 102.674C61.8064 102.719 58.6286 102.929 55.4834 102.399C54.2354 102.188 52.9848 101.953 51.7662 101.617C49.7086 101.051 47.7502 100.225 45.8929 99.1577C43.9993 98.0698 42.2091 96.8358 40.6649 95.2947C39.583 94.2149 38.5685 93.0558 37.6206 91.8558C36.0141 89.8219 34.8388 87.5308 34.0443 85.0702C33.2265 82.5377 32.8447 79.9377 32.9779 77.2534C33.0596 75.6078 33.2505 73.9909 33.6024 72.3885C34.1728 69.7917 35.194 67.3648 36.5723 65.1078C37.998 62.7732 39.7597 60.7054 41.8876 58.9596C43.2285 57.8595 44.64 56.8717 46.1793 56.0744C48.0757 55.0922 50.0555 54.3486 52.1467 53.868C53.9312 53.458 55.7327 53.2142 57.5491 53.2304C59.0214 53.2435 60.4976 53.4268 61.9617 53.6152C64.2685 53.9119 66.4452 54.6729 68.5286 55.6852C70.4571 56.6222 72.235 57.7942 73.8607 59.204C75.4022 60.5408 76.8061 62.0046 77.9768 63.6685C79.5092 65.8466 80.6878 68.213 81.4888 70.7621C82.1286 72.798 82.4464 74.8918 82.5888 77.0099C82.6851 78.4419 82.5877 79.8743 82.1948 81.2672C81.8113 82.6269 81.1774 83.8516 80.0253 84.7154C78.9681 85.5081 77.766 85.7628 76.4344 85.6213C74.8324 85.4511 73.5371 84.8106 72.5991 83.4922C71.7331 82.2751 71.4293 80.8695 71.413 79.4221C71.3732 75.8727 71.4033 72.3225 71.3956 68.7726C71.3947 68.3469 71.3611 67.9171 71.2961 67.4964C70.8552 64.6457 68.1981 62.3001 65.2963 62.305C62.3298 62.3099 59.3628 62.2814 56.3968 62.3197C55.3846 62.3328 54.3648 62.4461 53.3654 62.6143C50.6906 63.0647 48.3943 64.3325 46.3785 66.0979C45.1766 67.1506 44.1749 68.3841 43.3516 69.7764C42.0539 71.971 41.3093 74.3315 41.2308 76.8565C41.1899 78.1715 41.3447 79.5229 41.6254 80.8112C42.2243 83.5588 43.5542 85.9519 45.5213 87.9778C46.9518 89.4509 48.604 90.6014 50.4954 91.4056C52.2237 92.1405 54.0214 92.5729 55.9029 92.5994C56.5453 92.6084 57.1891 92.5462 57.8316 92.5053C59.4937 92.3995 61.0527 91.9126 62.5547 91.2165C64.4096 90.3568 66.0105 89.1522 67.3965 87.6561C67.5681 87.4709 67.7229 87.2702 67.8945 87.0659C68.8819 88.6864 70.1917 89.8696 71.8125 90.7033C72.9779 91.3029 74.2197 91.6482 75.5263 91.8209C76.7722 91.9856 78.0132 92.0241 79.2345 91.7772C81.9323 91.2317 84.0945 89.7658 85.7326 87.5979C87.6156 85.1056 88.5127 82.2138 88.5705 79.1162C88.6025 77.3977 88.4248 75.6604 88.1766 73.9556C87.9317 72.2734 87.5398 70.6053 87.1024 68.9603C86.4983 66.6889 85.5231 64.5606 84.3607 62.5177C83.2915 60.6385 82.0674 58.862 80.5975 57.2836C79.4821 56.0859 78.256 54.9859 77.029 53.8991C75.4359 52.4881 73.6276 51.382 71.7489 50.3934C69.4522 49.1848 67.0265 48.3125 64.505 47.7182C62.3139 47.2017 60.0823 46.9417 57.833 46.9193C56.7643 46.9087 55.6873 46.9844 54.6266 47.1191C53.1243 47.3099 51.6084 47.4906 50.1434 47.8564C47.5868 48.4948 45.1423 49.4508 42.8191 50.7268C40.2451 52.1404 37.9078 53.8706 35.8528 55.9443C34.5998 57.2089 33.507 58.6413 32.417 60.056C30.9184 62.0007 29.8003 64.1745 28.9101 66.455C28.1303 68.4526 27.4578 70.49 27.1923 72.6337C27.0173 74.0466 26.7493 75.4604 26.7293 76.8768C26.7053 78.5871 26.8183 80.3104 27.0243 82.0096C27.1975 83.439 27.5262 84.8588 27.8977 86.2531C28.5281 88.6187 29.519 90.8445 30.7251 92.9757C31.8402 94.9458 33.1627 96.7688 34.692 98.4297C35.9564 99.8028 37.3294 101.066 38.827 102.195C41.4984 104.21 44.397 105.796 47.5518 106.899C49.9989 107.755 52.5051 108.4 55.0985 108.598C57.384 108.773 59.6739 108.915 61.9646 108.988C63.0974 109.024 64.2377 108.89 65.3722 108.802C66.8453 108.687 68.3193 108.569 69.7867 108.399C71.1968 108.235 72.618 108.088 74.0004 107.781C76.4379 107.24 78.8731 106.661 81.2664 105.953C84.3498 105.042 87.3537 103.878 90.2212 102.419C92.4377 101.291 94.5773 100.012 96.7562 98.8087C97.0354 98.6545 97.3403 98.4535 97.7255 98.7788C96.6649 99.7888 95.6583 100.802 94.5927 101.748C93.3786 102.826 92.1309 103.868 90.8638 104.884C88.6589 106.651 86.255 108.116 83.7508 109.415C80.7435 110.974 77.6102 112.227 74.3351 113.1C72.6736 113.542 71.0024 113.966 69.3145 114.287C67.808 114.574 66.2757 114.74 64.7486 114.9C63.1139 115.071 61.474 115.237 59.8327 115.288C58.2255 115.338 56.6116 115.28 55.0047 115.194C53.6801 115.122 52.347 115.021 51.0436 114.788C49.2564 114.468 47.4752 114.078 45.7247 113.597C42.8258 112.801 40.112 111.552 37.5279 110.014C35.5279 108.824 33.6378 107.474 31.9556 105.877C30.5911 104.581 29.3329 103.166 28.1021 101.74C26.5428 99.9324 25.3012 97.8991 24.2024 95.7852C23.0914 93.648 22.2174 91.4125 21.5424 89.098C20.8796 86.8252 20.409 84.5177 20.1927 82.1586C20.1815 82.0362 20.0666 81.9234 20 81.8061C20 81.7616 20 81.7172 20.0366 81.6234C20.0488 81.3513 20.0244 81.1287 20 80.9061C20 78.904 20 76.9019 20.0366 74.8369C20.0488 74.5513 20.0244 74.3287 20 74.1061Z" fill="url(#paint0_linear_67_543)"/>
<path d="M64.4786 81.5778C63.0005 84.2965 60.7962 85.9404 57.7526 86.4067C55.0879 86.815 52.6614 86.2036 50.5795 84.5089C48.6945 82.9745 47.5876 80.9724 47.2858 78.5147C46.9806 76.0292 47.5907 73.7998 49.0558 71.8287C50.3314 70.1128 52.0688 68.9986 54.1674 68.5177C54.7689 68.3798 55.4 68.3195 56.0182 68.3152C58.9175 68.2947 61.8171 68.3058 64.7165 68.3063C65.3124 68.3064 65.4987 68.4929 65.4991 69.1085C65.5011 72.008 65.5321 74.908 65.4838 77.8067C65.4651 78.928 65.2268 80.0368 64.7132 81.0613C64.634 81.2193 64.5735 81.3866 64.4786 81.5778Z" fill="white"/>
<path d="M64.4786 81.5778C63.0005 84.2965 60.7962 85.9404 57.7526 86.4067C55.0879 86.815 52.6614 86.2036 50.5795 84.5089C48.6945 82.9745 47.5876 80.9724 47.2858 78.5147C46.9806 76.0292 47.5907 73.7998 49.0558 71.8287C50.3314 70.1128 52.0688 68.9986 54.1674 68.5177C54.7689 68.3798 55.4 68.3195 56.0182 68.3152C58.9175 68.2947 61.8171 68.3058 64.7165 68.3063C65.3124 68.3064 65.4987 68.4929 65.4991 69.1085C65.5011 72.008 65.5321 74.908 65.4838 77.8067C65.4651 78.928 65.2268 80.0368 64.7132 81.0613C64.634 81.2193 64.5735 81.3866 64.4786 81.5778Z" fill="url(#paint1_linear_67_543)"/>
<defs>
<linearGradient id="paint0_linear_67_543" x1="120" y1="115.306" x2="3.51358" y2="81.4985" gradientUnits="userSpaceOnUse">
<stop stop-color="#E666CC"/>
<stop offset="1" stop-color="#9780E5"/>
</linearGradient>
<linearGradient id="paint1_linear_67_543" x1="120" y1="115.306" x2="3.51358" y2="81.4985" gradientUnits="userSpaceOnUse">
<stop stop-color="#E666CC"/>
<stop offset="1" stop-color="#9780E5"/>
</linearGradient>
</defs>
</svg>
