<svg width="140" height="140" viewBox="0 0 140 140" fill="none" xmlns="http://www.w3.org/2000/svg">
<rect width="140" height="140" rx="20" fill="url(#paint0_linear_67_507)"/>
<path fill-rule="evenodd" clip-rule="evenodd" d="M40.7703 30.1699C35.0645 30.1699 30.8424 35.164 31.0314 40.5801C31.2129 45.7834 30.9771 52.5224 29.2807 58.0181C27.5781 63.5293 24.7008 67.0217 20 67.4699V72.5308C24.7008 72.9801 27.5781 76.4707 29.2805 81.9826C30.9771 87.4783 31.2127 94.2174 31.0312 99.4207C30.8422 104.836 35.0643 109.831 40.7711 109.831H99.2373C104.943 109.831 109.165 104.837 108.975 99.4207C108.794 94.2174 109.03 87.4783 110.726 81.9826C112.429 76.4707 115.299 72.9787 120 72.5308V67.4699C115.299 67.0207 112.429 63.5301 110.726 58.0181C109.029 52.5232 108.794 45.7834 108.975 40.5801C109.165 35.1648 104.943 30.1699 99.2373 30.1699H40.7703ZM87.7967 79.2064C87.7967 86.664 82.234 91.1869 73.0025 91.1869H57.2881C56.8386 91.1869 56.4075 91.0083 56.0896 90.6905C55.7717 90.3726 55.5932 89.9415 55.5932 89.492V50.509C55.5932 50.0594 55.7717 49.6283 56.0896 49.3105C56.4075 48.9926 56.8386 48.814 57.2881 48.814H72.9131C80.6105 48.814 85.6623 52.9836 85.6623 59.3851C85.6623 63.8783 82.2639 67.9008 77.9344 68.6054V68.8398C83.8281 69.4863 87.7967 73.5683 87.7967 79.2064ZM71.2891 54.1869H62.3289V66.8431H69.8756C75.7096 66.8431 78.9264 64.4939 78.9264 60.2949C78.9258 56.3597 76.1602 54.1869 71.2891 54.1869ZM62.3289 71.8648V85.8123H71.6187C77.693 85.8123 80.9104 83.375 80.9104 78.7945C80.9104 74.214 77.6027 71.864 71.2281 71.864L62.3289 71.8648Z" fill="white"/>
<defs>
<linearGradient id="paint0_linear_67_507" x1="0" y1="0" x2="163.111" y2="103.62" gradientUnits="userSpaceOnUse">
<stop stop-color="#9013FE"/>
<stop offset="1" stop-color="#6610F2"/>
</linearGradient>
</defs>
</svg>
