<svg width="420" height="140" viewBox="0 0 420 140" fill="none" xmlns="http://www.w3.org/2000/svg">
<rect width="419.951" height="140" rx="20" fill="#3448C5"/>
<path d="M106.752 59.9048C104.46 52.7173 99.9539 46.4384 93.8788 41.9656C87.8036 37.4928 80.47 35.055 72.9261 35.0006C66.548 34.964 60.2804 36.666 54.7969 39.9237C49.3133 43.1814 44.821 47.8715 41.8026 53.4905C36.2551 54.4846 31.1698 57.2233 27.2866 61.3078C23.4035 65.3923 20.9252 70.6095 20.2125 76.2001C19.4999 81.7907 20.59 87.4628 23.3243 92.3908C26.0586 97.319 30.2943 101.246 35.4149 103.6L36.0794 103.901H36.1237V96.3705C32.6109 94.2143 29.8609 91.0128 28.2591 87.215C26.6573 83.4172 26.2839 79.2134 27.1914 75.1927C28.0989 71.1721 30.2417 67.5362 33.3195 64.7946C36.3973 62.053 40.2558 60.3432 44.3541 59.9048L46.2147 59.7098L47.0297 58.0354C49.344 53.1308 53.0104 48.9889 57.5977 46.0964C62.1852 43.204 67.503 41.6812 72.9261 41.7073C79.388 41.7529 85.6493 43.9575 90.7141 47.9709C95.7788 51.9843 99.3564 57.5757 100.878 63.8561L101.516 66.3899H104.174C108.458 66.4778 112.539 68.2376 115.543 71.2935C118.548 74.3494 120.238 78.459 120.254 82.7446C120.254 88.9905 116.648 94.1025 110.508 96.6894V103.83L110.951 103.688C120.821 100.455 126.951 92.4281 126.951 82.7446C126.911 77.1399 124.843 71.7394 121.13 67.541C117.417 63.3426 112.309 60.6301 106.752 59.9048Z" fill="white"/>
<path d="M59.9375 103.033L61.4082 104.504C61.4479 104.545 61.4748 104.596 61.4856 104.652C61.4964 104.708 61.4907 104.766 61.469 104.819C61.4473 104.871 61.4108 104.917 61.3638 104.949C61.3167 104.981 61.2613 104.999 61.2043 105H49.5984C48.1886 105 46.8365 104.44 45.8397 103.443C44.8428 102.446 44.2827 101.094 44.2827 99.6843V77.1457C44.2827 77.0681 44.2519 76.9937 44.197 76.9389C44.1423 76.8841 44.0679 76.8532 43.9904 76.8532H41.5097C41.4519 76.8539 41.3953 76.8373 41.347 76.8058C41.2986 76.7743 41.2607 76.7292 41.238 76.676C41.2152 76.623 41.2087 76.5644 41.2192 76.5077C41.2298 76.4509 41.2568 76.3985 41.297 76.3571L51.1489 66.5054C51.176 66.4778 51.2084 66.4559 51.2442 66.4409C51.2799 66.4259 51.3183 66.4182 51.357 66.4182C51.3958 66.4182 51.4341 66.4259 51.4698 66.4409C51.5057 66.4559 51.5381 66.4778 51.5652 66.5054L61.4082 76.3571C61.4479 76.398 61.4748 76.4495 61.4856 76.5054C61.4964 76.5614 61.4907 76.6193 61.469 76.6721C61.4473 76.7247 61.4108 76.7699 61.3638 76.8021C61.3167 76.8343 61.2613 76.8521 61.2043 76.8532H58.6883C58.6099 76.8532 58.5346 76.8837 58.4784 76.9383C58.4221 76.9929 58.3894 77.0673 58.387 77.1457V99.2944C58.3907 100.696 58.9479 102.04 59.9375 103.033ZM81.7053 103.033L83.1849 104.504C83.2251 104.545 83.2522 104.598 83.2627 104.654C83.2732 104.711 83.2667 104.77 83.2439 104.823C83.2213 104.876 83.1833 104.921 83.135 104.953C83.0866 104.984 83.0299 105.001 82.9723 105H71.3929C69.983 105 68.6309 104.44 67.634 103.443C66.6371 102.446 66.0772 101.094 66.0772 99.6843V82.8423C66.0772 82.7639 66.0467 82.6886 65.992 82.6324C65.9375 82.5761 65.8631 82.5434 65.7847 82.541H63.2775C63.2206 82.54 63.1652 82.5222 63.1181 82.49C63.0712 82.4578 63.0346 82.4126 63.0129 82.3599C62.9913 82.3071 62.9855 82.2493 62.9963 82.1933C63.0071 82.1374 63.0341 82.0857 63.0737 82.0449L72.9167 72.2109C72.9439 72.1833 72.9763 72.1614 73.012 72.1464C73.0478 72.1314 73.0861 72.1237 73.1248 72.1237C73.1637 72.1237 73.2019 72.1314 73.2378 72.1464C73.2735 72.1614 73.3059 72.1833 73.3331 72.2109L83.1849 82.0272C83.2251 82.0686 83.2522 82.121 83.2627 82.1777C83.2732 82.2345 83.2667 82.2931 83.2439 82.3462C83.2213 82.3992 83.1833 82.4444 83.135 82.4759C83.0866 82.5075 83.0299 82.5239 82.9723 82.5234H80.4561C80.3777 82.5256 80.3034 82.5584 80.2489 82.6146C80.1942 82.6709 80.1637 82.7462 80.1637 82.8246V99.2944C80.165 100.695 80.7189 102.039 81.7053 103.033ZM103.482 103.033L104.953 104.504C104.992 104.545 105.019 104.596 105.03 104.652C105.041 104.708 105.035 104.766 105.014 104.819C104.992 104.871 104.955 104.917 104.908 104.949C104.861 104.981 104.806 104.999 104.749 105H93.1341C91.7243 105 90.3723 104.44 89.3754 103.443C88.3785 102.446 87.8184 101.094 87.8184 99.6843V88.4947C87.8184 88.4172 87.7876 88.3427 87.7328 88.288C87.6779 88.2331 87.6036 88.2023 87.5261 88.2023H85.0453C84.9866 88.2029 84.929 88.1858 84.88 88.1532C84.8311 88.1205 84.7931 88.0738 84.7711 88.0193C84.7491 87.9649 84.744 87.9049 84.7567 87.8474C84.7692 87.79 84.7988 87.7377 84.8416 87.6973L94.6934 77.8544C94.7198 77.827 94.7515 77.8053 94.7865 77.7905C94.8215 77.7756 94.8591 77.768 94.8972 77.768C94.9351 77.768 94.9728 77.7756 95.0079 77.7905C95.0428 77.8053 95.0745 77.827 95.1009 77.8544L104.953 87.6973C104.996 87.7377 105.025 87.79 105.038 87.8474C105.05 87.9049 105.045 87.9649 105.023 88.0193C105.001 88.0738 104.963 88.1205 104.914 88.1532C104.865 88.1858 104.808 88.2029 104.749 88.2023H102.224C102.146 88.2023 102.072 88.2331 102.017 88.288C101.962 88.3427 101.932 88.4172 101.932 88.4947V99.2944C101.935 100.696 102.492 102.04 103.482 103.033Z" fill="white"/>
<path d="M188.672 64.7305H181.673C181.545 63.8249 181.284 63.0206 180.89 62.3175C180.496 61.6037 179.989 60.9964 179.372 60.4957C178.754 59.995 178.04 59.6115 177.23 59.3452C176.431 59.0788 175.563 58.9457 174.625 58.9457C172.932 58.9457 171.456 59.3665 170.199 60.2081C168.942 61.0391 167.967 62.2536 167.275 63.8516C166.582 65.4389 166.236 67.3672 166.236 69.6364C166.236 71.9695 166.582 73.9297 167.275 75.517C167.978 77.1044 168.958 78.3029 170.215 79.1126C171.472 79.9222 172.926 80.3271 174.578 80.3271C175.504 80.3271 176.362 80.2045 177.15 79.9595C177.949 79.7145 178.658 79.3576 179.276 78.8888C179.894 78.4094 180.405 77.8288 180.81 77.147C181.225 76.4652 181.513 75.6875 181.673 74.8139L188.672 74.8459C188.491 76.348 188.038 77.7969 187.314 79.1925C186.6 80.5774 185.636 81.8185 184.421 82.9158C183.217 84.0025 181.779 84.8654 180.107 85.5046C178.445 86.1332 176.564 86.4474 174.466 86.4474C171.547 86.4474 168.937 85.7869 166.635 84.4659C164.345 83.1449 162.534 81.2326 161.202 78.729C159.881 76.2255 159.221 73.1946 159.221 69.6364C159.221 66.0675 159.892 63.0312 161.234 60.5277C162.576 58.0241 164.398 56.1172 166.699 54.8068C169 53.4858 171.589 52.8253 174.466 52.8253C176.362 52.8253 178.12 53.0916 179.739 53.6243C181.369 54.157 182.813 54.9347 184.07 55.9574C185.327 56.9695 186.35 58.2106 187.138 59.6808C187.937 61.1509 188.448 62.8342 188.672 64.7305ZM200.314 53.2727V86H193.506V53.2727H200.314ZM216.857 86.4794C214.375 86.4794 212.228 85.9521 210.417 84.8974C208.617 83.832 207.226 82.3512 206.246 80.4549C205.266 78.5479 204.776 76.3374 204.776 73.8232C204.776 71.2876 205.266 69.0717 206.246 67.1754C207.226 65.2685 208.617 63.7876 210.417 62.733C212.228 61.6676 214.375 61.1349 216.857 61.1349C219.339 61.1349 221.481 61.6676 223.281 62.733C225.092 63.7876 226.488 65.2685 227.468 67.1754C228.448 69.0717 228.938 71.2876 228.938 73.8232C228.938 76.3374 228.448 78.5479 227.468 80.4549C226.488 82.3512 225.092 83.832 223.281 84.8974C221.481 85.9521 219.339 86.4794 216.857 86.4794ZM216.889 81.206C218.018 81.206 218.961 80.8864 219.717 80.2472C220.474 79.5973 221.044 78.7131 221.427 77.5945C221.821 76.4759 222.019 75.2028 222.019 73.7752C222.019 72.3477 221.821 71.0746 221.427 69.956C221.044 68.8374 220.474 67.9531 219.717 67.3033C218.961 66.6534 218.018 66.3285 216.889 66.3285C215.749 66.3285 214.79 66.6534 214.012 67.3033C213.245 67.9531 212.665 68.8374 212.271 69.956C211.887 71.0746 211.695 72.3477 211.695 73.7752C211.695 75.2028 211.887 76.4759 212.271 77.5945C212.665 78.7131 213.245 79.5973 214.012 80.2472C214.79 80.8864 215.749 81.206 216.889 81.206ZM249.105 75.549V61.4545H255.912V86H249.376V81.5415H249.121C248.567 82.9798 247.645 84.1357 246.356 85.0092C245.078 85.8828 243.517 86.3196 241.674 86.3196C240.033 86.3196 238.59 85.9467 237.343 85.201C236.097 84.4553 235.122 83.3952 234.419 82.021C233.727 80.6467 233.375 79.0007 233.364 77.0831V61.4545H240.172V75.8686C240.183 77.3175 240.571 78.4627 241.338 79.3043C242.106 80.146 243.134 80.5668 244.423 80.5668C245.243 80.5668 246.01 80.3803 246.724 80.0075C247.438 79.6239 248.013 79.0593 248.45 78.3136C248.897 77.5678 249.115 76.6463 249.105 75.549ZM270.402 86.3995C268.538 86.3995 266.849 85.9201 265.337 84.9613C263.834 83.9918 262.641 82.5696 261.757 80.6946C260.883 78.8089 260.447 76.4972 260.447 73.7592C260.447 70.9467 260.899 68.6083 261.805 66.744C262.711 64.869 263.914 63.468 265.416 62.5412C266.929 61.6037 268.586 61.1349 270.386 61.1349C271.761 61.1349 272.906 61.3693 273.822 61.8381C274.749 62.2962 275.495 62.8714 276.059 63.5639C276.635 64.2457 277.071 64.9169 277.37 65.5774H277.577V53.2727H284.369V86H277.657V82.0689H277.37C277.05 82.7507 276.597 83.4272 276.011 84.0984C275.436 84.7589 274.685 85.3075 273.758 85.7443C272.842 86.1811 271.723 86.3995 270.402 86.3995ZM272.56 80.9822C273.657 80.9822 274.584 80.6839 275.34 80.0874C276.107 79.4801 276.693 78.6332 277.098 77.5465C277.513 76.4599 277.721 75.1868 277.721 73.7273C277.721 72.2678 277.519 71 277.114 69.924C276.709 68.848 276.123 68.017 275.356 67.4311C274.589 66.8452 273.657 66.5522 272.56 66.5522C271.441 66.5522 270.498 66.8558 269.731 67.4631C268.964 68.0703 268.383 68.9119 267.989 69.9879C267.595 71.0639 267.398 72.3104 267.398 73.7273C267.398 75.1548 267.595 76.4173 267.989 77.5146C268.394 78.6012 268.975 79.4535 269.731 80.0714C270.498 80.6786 271.441 80.9822 272.56 80.9822ZM289.966 86V61.4545H296.773V86H289.966ZM293.386 58.2905C292.374 58.2905 291.505 57.9549 290.781 57.2837C290.067 56.6019 289.71 55.7869 289.71 54.8388C289.71 53.9013 290.067 53.0969 290.781 52.4258C291.505 51.744 292.374 51.4031 293.386 51.4031C294.398 51.4031 295.261 51.744 295.974 52.4258C296.699 53.0969 297.061 53.9013 297.061 54.8388C297.061 55.7869 296.699 56.6019 295.974 57.2837C295.261 57.9549 294.398 58.2905 293.386 58.2905ZM309.034 71.8097V86H302.227V61.4545H308.715V65.7852H309.002C309.546 64.3576 310.456 63.2283 311.735 62.3974C313.013 61.5558 314.563 61.1349 316.385 61.1349C318.09 61.1349 319.576 61.5078 320.844 62.2536C322.111 62.9993 323.097 64.0646 323.8 65.4496C324.503 66.8239 324.855 68.4645 324.855 70.3714V86H318.047V71.5859C318.058 70.0838 317.674 68.9119 316.896 68.0703C316.119 67.218 315.048 66.7919 313.684 66.7919C312.768 66.7919 311.959 66.989 311.255 67.3832C310.563 67.7773 310.02 68.3526 309.625 69.109C309.242 69.8548 309.045 70.755 309.034 71.8097ZM337.219 86.4634C335.653 86.4634 334.257 86.1918 333.032 85.6484C331.807 85.0945 330.838 84.2795 330.124 83.2035C329.421 82.1168 329.069 80.7638 329.069 79.1445C329.069 77.7809 329.32 76.6357 329.82 75.7088C330.321 74.782 331.003 74.0362 331.866 73.4716C332.729 72.907 333.709 72.4808 334.806 72.1932C335.914 71.9055 337.075 71.7031 338.29 71.5859C339.717 71.4368 340.868 71.2983 341.742 71.1705C342.615 71.032 343.249 70.8295 343.643 70.5632C344.037 70.2969 344.234 69.9027 344.234 69.3807V69.2848C344.234 68.2727 343.915 67.4897 343.276 66.9357C342.647 66.3817 341.752 66.1048 340.591 66.1048C339.366 66.1048 338.391 66.3764 337.667 66.9197C336.942 67.4524 336.463 68.1236 336.228 68.9332L329.932 68.4219C330.252 66.9304 330.88 65.6413 331.818 64.5547C332.755 63.4574 333.965 62.6158 335.445 62.0298C336.937 61.4332 338.663 61.1349 340.623 61.1349C341.987 61.1349 343.292 61.2947 344.538 61.6143C345.795 61.9339 346.908 62.4293 347.878 63.1005C348.858 63.7717 349.63 64.6346 350.195 65.6893C350.76 66.7333 351.042 67.9851 351.042 69.4446V86H344.586V82.5962H344.394C344 83.3633 343.473 84.0398 342.812 84.6257C342.152 85.201 341.358 85.6538 340.431 85.984C339.504 86.3036 338.434 86.4634 337.219 86.4634ZM339.169 81.7653C340.17 81.7653 341.054 81.5682 341.821 81.174C342.588 80.7692 343.19 80.2259 343.627 79.544C344.064 78.8622 344.282 78.0898 344.282 77.2269V74.6222C344.069 74.7607 343.776 74.8885 343.403 75.0057C343.041 75.1122 342.631 75.2134 342.173 75.3093C341.715 75.3945 341.257 75.4744 340.799 75.549C340.341 75.6129 339.925 75.6715 339.552 75.7248C338.753 75.842 338.055 76.0284 337.459 76.2841C336.862 76.5398 336.399 76.886 336.069 77.3228C335.738 77.7489 335.573 78.2816 335.573 78.9208C335.573 79.8477 335.909 80.5561 336.58 81.0462C337.262 81.5256 338.125 81.7653 339.169 81.7653ZM356.323 86V61.4545H362.923V65.7372H363.179C363.626 64.2138 364.377 63.0632 365.432 62.2855C366.487 61.4972 367.701 61.103 369.076 61.103C369.416 61.103 369.784 61.1243 370.178 61.1669C370.572 61.2095 370.919 61.2681 371.217 61.3427V67.3832C370.897 67.2873 370.455 67.2021 369.89 67.1275C369.326 67.0529 368.809 67.0156 368.34 67.0156C367.339 67.0156 366.444 67.234 365.656 67.6708C364.878 68.0969 364.26 68.6935 363.802 69.4606C363.355 70.2276 363.131 71.1119 363.131 72.1133V86H356.323ZM379.686 95.2045C378.823 95.2045 378.014 95.1353 377.257 94.9968C376.512 94.869 375.894 94.7038 375.404 94.5014L376.938 89.4197C377.737 89.6648 378.456 89.7979 379.095 89.8192C379.745 89.8406 380.304 89.6914 380.773 89.3718C381.252 89.0522 381.641 88.5089 381.939 87.7418L382.339 86.7031L373.534 61.4545H380.693L385.775 79.4801H386.03L391.16 61.4545H398.367L388.827 88.6527C388.369 89.9737 387.746 91.1243 386.957 92.1044C386.18 93.0952 385.194 93.8569 384.001 94.3896C382.808 94.9329 381.37 95.2045 379.686 95.2045Z" fill="white"/>
</svg>
