<svg width="140" height="140" viewBox="0 0 140 140" fill="none" xmlns="http://www.w3.org/2000/svg">
<g clip-path="url(#clip0_75_2)">
<rect width="140" height="140" rx="20" fill="#A179DC"/>
<path d="M140 26.5L65.5481 70.0006L140 113V26.5Z" fill="#390091"/>
<path d="M140 113L65.5481 70.0006L0 107.501L0 140.001H140V113Z" fill="#280068"/>
<path d="M65.7573 14C86.5686 14 104.739 25.2509 114.471 41.9741L114.376 41.8131L89.8902 55.8475C85.0659 47.7165 76.2219 42.2294 66.0768 42.1164L65.7573 42.1146C50.2863 42.1146 37.7436 54.5993 37.7436 69.9997C37.7436 75.0359 39.0925 79.7568 41.4382 83.8343C46.2669 92.2256 55.3443 97.8854 65.7573 97.8854C76.2345 97.8854 85.3636 92.1537 90.1678 83.6727L90.051 83.8762L114.5 97.9753C104.875 114.557 86.9534 125.773 66.3839 125.997L65.7573 126C44.8803 126 26.6585 114.68 16.9508 97.8682C12.2116 89.661 9.5 80.146 9.5 69.9997C9.5 39.0723 34.6867 14 65.7573 14Z" fill="white"/>
<path d="M110.5 54V62H118.5V54H122.5V62H130.5V66H122.5V74H130.5V78H122.5V86H118.5V78H110.5V86H106.5V78H98.5V74H106.5V66H98.5V62H106.5V54H110.5ZM118.5 66H110.5V74H118.5V66Z" fill="white"/>
</g>
<defs>
<clipPath id="clip0_75_2">
<rect width="140" height="140" rx="20" fill="white"/>
</clipPath>
</defs>
</svg>
