<svg width="140" height="140" viewBox="0 0 140 140" fill="none" xmlns="http://www.w3.org/2000/svg">
<rect width="140" height="140" rx="20" fill="#663399"/>
<g clip-path="url(#clip0_2_31)">
<path d="M20 20H104C108.243 20 112.313 21.6857 115.314 24.6863C118.314 27.6869 120 31.7565 120 36V104C120 108.243 118.314 112.313 115.314 115.314C112.313 118.314 108.243 120 104 120H36C31.7565 120 27.6869 118.314 24.6863 115.314C21.6857 112.313 20 108.243 20 104V20Z" fill="white"/>
<path d="M55.8101 112C49.3871 111.994 45.4241 108.377 45.5001 101.721V84.8822C45.5001 81.5082 46.4881 78.9422 48.4641 77.1862C52.0131 73.7672 60.2471 73.5592 63.7231 77.2382C65.8651 79.1272 66.6731 82.9862 66.4811 86.5872H59.1091C59.1651 85.1722 59.0901 83.0292 58.2581 82.2222C57.1771 80.7592 54.3221 80.9312 53.5671 82.4542C53.1031 83.2802 52.8711 84.5032 52.8711 86.1212V100.739C52.8711 103.804 53.9361 105.354 56.0671 105.388C57.0631 105.388 57.8201 105.026 58.3351 104.303C59.0541 103.445 59.1661 101.545 59.1081 100.171H66.4801C66.9841 107.178 62.8481 112.087 55.8091 112H55.8101ZM79.2141 112C72.0971 112.098 68.9131 107.034 69.1101 100.171H76.0691C75.8761 103.163 76.9041 105.888 79.3681 105.698C80.4671 105.698 81.2411 105.354 81.6881 104.665C82.5381 103.406 82.6971 99.7702 81.4821 98.3632C80.6331 97.0082 77.5791 95.8122 75.9661 95.0062C73.6631 93.9042 72.0051 92.5962 70.9911 91.0802C68.7041 87.7162 68.9161 80.3322 72.1251 77.3402C75.2431 73.6482 83.3861 73.4782 86.5071 77.2632C88.4321 79.2142 89.2731 83.0532 89.1101 86.5862H82.4081C82.4651 85.1342 82.3281 82.7912 81.7641 81.9372C81.3691 81.2142 80.6211 80.8522 79.5221 80.8522C77.5631 80.8522 76.5841 82.0232 76.5841 84.3642C76.6051 86.8502 77.5741 87.8702 79.8321 88.9092C82.7561 90.0452 86.4741 91.9852 87.8221 94.3332C91.8421 101.487 89.0841 112.415 79.2131 111.998L79.2141 112ZM101.69 112C94.5731 112.098 91.3891 107.034 91.5861 100.171H98.5451C98.3521 103.163 99.3801 105.888 101.844 105.698C102.943 105.698 103.717 105.354 104.164 104.665C105.014 103.406 105.173 99.7702 103.958 98.3632C103.109 97.0082 100.055 95.8122 98.4421 95.0062C96.1391 93.9042 94.4811 92.5962 93.4671 91.0802C91.1801 87.7162 91.3921 80.3322 94.6011 77.3402C97.7191 73.6482 105.862 73.4782 108.983 77.2632C110.908 79.2142 111.749 83.0532 111.586 86.5862H104.884C104.941 85.1342 104.804 82.7912 104.24 81.9372C103.845 81.2142 103.097 80.8522 101.998 80.8522C100.039 80.8522 99.0601 82.0232 99.0601 84.3642C99.0811 86.8502 100.05 87.8702 102.308 88.9092C105.232 90.0452 108.95 91.9852 110.298 94.3332C114.318 101.487 111.56 112.415 101.689 111.998L101.69 112Z" fill="#663399"/>
</g>
<defs>
<clipPath id="clip0_2_31">
<rect width="100" height="100" fill="white" transform="translate(20 20)"/>
</clipPath>
</defs>
</svg>
