<svg width="263" height="140" viewBox="0 0 263 140" fill="none" xmlns="http://www.w3.org/2000/svg">
<rect width="263" height="140" rx="20" fill="#663399"/>
<g clip-path="url(#clip0_2_28)">
<path d="M20 20H104C108.243 20 112.313 21.6857 115.314 24.6863C118.314 27.6869 120 31.7565 120 36V104C120 108.243 118.314 112.313 115.314 115.314C112.313 118.314 108.243 120 104 120H36C31.7565 120 27.6869 118.314 24.6863 115.314C21.6857 112.313 20 108.243 20 104V20Z" fill="white"/>
<path d="M55.8101 112C49.3871 111.994 45.4241 108.377 45.5001 101.721V84.8822C45.5001 81.5082 46.4881 78.9422 48.4641 77.1862C52.0131 73.7672 60.2471 73.5592 63.7231 77.2382C65.8651 79.1272 66.6731 82.9862 66.4811 86.5872H59.1091C59.1651 85.1722 59.0901 83.0292 58.2581 82.2222C57.1771 80.7592 54.3221 80.9312 53.5671 82.4542C53.1031 83.2802 52.8711 84.5032 52.8711 86.1212V100.739C52.8711 103.804 53.9361 105.354 56.0671 105.388C57.0631 105.388 57.8201 105.026 58.3351 104.303C59.0541 103.445 59.1661 101.545 59.1081 100.171H66.4801C66.9841 107.178 62.8481 112.087 55.8091 112H55.8101ZM79.2141 112C72.0971 112.098 68.9131 107.034 69.1101 100.171H76.0691C75.8761 103.163 76.9041 105.888 79.3681 105.698C80.4671 105.698 81.2411 105.354 81.6881 104.665C82.5381 103.406 82.6971 99.7702 81.4821 98.3632C80.6331 97.0082 77.5791 95.8122 75.9661 95.0062C73.6631 93.9042 72.0051 92.5962 70.9911 91.0802C68.7041 87.7162 68.9161 80.3322 72.1251 77.3402C75.2431 73.6482 83.3861 73.4782 86.5071 77.2632C88.4321 79.2142 89.2731 83.0532 89.1101 86.5862H82.4081C82.4651 85.1342 82.3281 82.7912 81.7641 81.9372C81.3691 81.2142 80.6211 80.8522 79.5221 80.8522C77.5631 80.8522 76.5841 82.0232 76.5841 84.3642C76.6051 86.8502 77.5741 87.8702 79.8321 88.9092C82.7561 90.0452 86.4741 91.9852 87.8221 94.3332C91.8421 101.487 89.0841 112.415 79.2131 111.998L79.2141 112ZM101.69 112C94.5731 112.098 91.3891 107.034 91.5861 100.171H98.5451C98.3521 103.163 99.3801 105.888 101.844 105.698C102.943 105.698 103.717 105.354 104.164 104.665C105.014 103.406 105.173 99.7702 103.958 98.3632C103.109 97.0082 100.055 95.8122 98.4421 95.0062C96.1391 93.9042 94.4811 92.5962 93.4671 91.0802C91.1801 87.7162 91.3921 80.3322 94.6011 77.3402C97.7191 73.6482 105.862 73.4782 108.983 77.2632C110.908 79.2142 111.749 83.0532 111.586 86.5862H104.884C104.941 85.1342 104.804 82.7912 104.24 81.9372C103.845 81.2142 103.097 80.8522 101.998 80.8522C100.039 80.8522 99.0601 82.0232 99.0601 84.3642C99.0811 86.8502 100.05 87.8702 102.308 88.9092C105.232 90.0452 108.95 91.9852 110.298 94.3332C114.318 101.487 111.56 112.415 101.689 111.998L101.69 112Z" fill="#663399"/>
</g>
<path d="M181.721 64.7305H174.721C174.593 63.8249 174.332 63.0206 173.938 62.3175C173.544 61.6037 173.038 60.9964 172.42 60.4957C171.802 59.995 171.088 59.6115 170.279 59.3452C169.48 59.0788 168.612 58.9457 167.674 58.9457C165.98 58.9457 164.505 59.3665 163.248 60.2081C161.99 61.0391 161.016 62.2536 160.323 63.8516C159.631 65.4389 159.284 67.3672 159.284 69.6364C159.284 71.9695 159.631 73.9297 160.323 75.517C161.026 77.1044 162.006 78.3029 163.263 79.1126C164.521 79.9222 165.975 80.3271 167.626 80.3271C168.553 80.3271 169.411 80.2045 170.199 79.9595C170.998 79.7145 171.706 79.3576 172.324 78.8888C172.942 78.4094 173.453 77.8288 173.858 77.147C174.274 76.4652 174.561 75.6875 174.721 74.8139L181.721 74.8459C181.539 76.348 181.087 77.7969 180.362 79.1925C179.648 80.5774 178.684 81.8185 177.47 82.9158C176.266 84.0025 174.828 84.8654 173.155 85.5046C171.493 86.1332 169.613 86.4474 167.514 86.4474C164.595 86.4474 161.985 85.7869 159.684 84.4659C157.393 83.1449 155.582 81.2326 154.251 78.729C152.93 76.2255 152.269 73.1946 152.269 69.6364C152.269 66.0675 152.94 63.0312 154.283 60.5277C155.625 58.0241 157.447 56.1172 159.748 54.8068C162.049 53.4858 164.638 52.8253 167.514 52.8253C169.411 52.8253 171.168 53.0916 172.788 53.6243C174.418 54.157 175.861 54.9347 177.118 55.9574C178.375 56.9695 179.398 58.2106 180.186 59.6808C180.985 61.1509 181.497 62.8342 181.721 64.7305ZM204.436 62.685C204.308 61.396 203.76 60.3945 202.79 59.6808C201.821 58.967 200.505 58.6101 198.843 58.6101C197.714 58.6101 196.76 58.7699 195.983 59.0895C195.205 59.3984 194.608 59.8299 194.193 60.3839C193.788 60.9379 193.586 61.5664 193.586 62.2695C193.564 62.8555 193.687 63.3668 193.953 63.8036C194.23 64.2404 194.608 64.6186 195.088 64.9382C195.567 65.2472 196.121 65.5188 196.75 65.7532C197.378 65.9769 198.05 66.1687 198.763 66.3285L201.704 67.0316C203.131 67.3512 204.442 67.7773 205.635 68.31C206.828 68.8427 207.861 69.4979 208.735 70.2756C209.608 71.0533 210.285 71.9695 210.764 73.0241C211.254 74.0788 211.505 75.288 211.515 76.6516C211.505 78.6545 210.993 80.391 209.981 81.8612C208.98 83.3207 207.531 84.4553 205.635 85.2649C203.749 86.0639 201.475 86.4634 198.811 86.4634C196.169 86.4634 193.868 86.0586 191.908 85.2489C189.958 84.4393 188.435 83.2408 187.338 81.6534C186.251 80.0554 185.681 78.0792 185.628 75.7248H192.323C192.398 76.8221 192.712 77.7383 193.266 78.4734C193.831 79.1978 194.582 79.7464 195.519 80.1193C196.468 80.4815 197.538 80.6626 198.731 80.6626C199.903 80.6626 200.921 80.4922 201.784 80.1513C202.657 79.8104 203.334 79.3363 203.813 78.729C204.292 78.1218 204.532 77.424 204.532 76.6357C204.532 75.9006 204.314 75.2827 203.877 74.782C203.451 74.2812 202.822 73.8551 201.991 73.5036C201.171 73.152 200.164 72.8324 198.971 72.5447L195.407 71.6499C192.648 70.9787 190.47 69.9293 188.872 68.5018C187.274 67.0742 186.48 65.1513 186.491 62.733C186.48 60.7514 187.007 59.0202 188.073 57.5394C189.149 56.0586 190.624 54.9027 192.499 54.0717C194.374 53.2408 196.505 52.8253 198.891 52.8253C201.32 52.8253 203.44 53.2408 205.251 54.0717C207.073 54.9027 208.49 56.0586 209.502 57.5394C210.514 59.0202 211.036 60.7354 211.068 62.685H204.436ZM233.924 62.685C233.796 61.396 233.247 60.3945 232.278 59.6808C231.308 58.967 229.992 58.6101 228.331 58.6101C227.201 58.6101 226.248 58.7699 225.47 59.0895C224.692 59.3984 224.096 59.8299 223.68 60.3839C223.275 60.9379 223.073 61.5664 223.073 62.2695C223.052 62.8555 223.174 63.3668 223.441 63.8036C223.718 64.2404 224.096 64.6186 224.575 64.9382C225.055 65.2472 225.609 65.5188 226.237 65.7532C226.866 65.9769 227.537 66.1687 228.251 66.3285L231.191 67.0316C232.619 67.3512 233.929 67.7773 235.122 68.31C236.315 68.8427 237.349 69.4979 238.222 70.2756C239.096 71.0533 239.772 71.9695 240.252 73.0241C240.742 74.0788 240.992 75.288 241.003 76.6516C240.992 78.6545 240.481 80.391 239.469 81.8612C238.467 83.3207 237.018 84.4553 235.122 85.2649C233.236 86.0639 230.962 86.4634 228.299 86.4634C225.657 86.4634 223.355 86.0586 221.395 85.2489C219.446 84.4393 217.922 83.2408 216.825 81.6534C215.738 80.0554 215.168 78.0792 215.115 75.7248H221.811C221.885 76.8221 222.199 77.7383 222.753 78.4734C223.318 79.1978 224.069 79.7464 225.007 80.1193C225.955 80.4815 227.025 80.6626 228.219 80.6626C229.391 80.6626 230.408 80.4922 231.271 80.1513C232.144 79.8104 232.821 79.3363 233.3 78.729C233.78 78.1218 234.019 77.424 234.019 76.6357C234.019 75.9006 233.801 75.2827 233.364 74.782C232.938 74.2812 232.31 73.8551 231.479 73.5036C230.658 73.152 229.652 72.8324 228.458 72.5447L224.895 71.6499C222.136 70.9787 219.957 69.9293 218.359 68.5018C216.761 67.0742 215.967 65.1513 215.978 62.733C215.967 60.7514 216.495 59.0202 217.56 57.5394C218.636 56.0586 220.111 54.9027 221.986 54.0717C223.861 53.2408 225.992 52.8253 228.378 52.8253C230.807 52.8253 232.927 53.2408 234.739 54.0717C236.56 54.9027 237.977 56.0586 238.989 57.5394C240.001 59.0202 240.523 60.7354 240.555 62.685H233.924Z" fill="white"/>
<defs>
<clipPath id="clip0_2_28">
<rect width="100" height="100" fill="white" transform="translate(20 20)"/>
</clipPath>
</defs>
</svg>
