<svg width="313" height="140" viewBox="0 0 313 140" fill="none" xmlns="http://www.w3.org/2000/svg">
<rect width="312.415" height="140" rx="20" fill="#394553"/>
<path d="M66.9512 89.5122H36.4634C28.0444 89.5122 21.2195 96.3371 21.2195 104.756C21.2195 113.175 28.0444 120 36.4634 120H66.9512C75.3702 120 82.1951 113.175 82.1951 104.756C82.1951 96.3371 75.3702 89.5122 66.9512 89.5122Z" fill="#1AD1A5"/>
<path d="M51.7073 83.4146C69.2188 83.4146 83.4146 69.2188 83.4146 51.7073C83.4146 34.1958 69.2188 20 51.7073 20C34.1958 20 20 34.1958 20 51.7073C20 69.2188 34.1958 83.4146 51.7073 83.4146Z" fill="black" fill-opacity="0.3"/>
<path d="M51.7073 82.1951C68.5453 82.1951 82.1951 68.5453 82.1951 51.7073C82.1951 34.8694 68.5453 21.2195 51.7073 21.2195C34.8694 21.2195 21.2195 34.8694 21.2195 51.7073C21.2195 68.5453 34.8694 82.1951 51.7073 82.1951Z" fill="white"/>
<path d="M51.7073 65.3659C59.2507 65.3659 65.3659 59.2507 65.3659 51.7073C65.3659 44.1639 59.2507 38.0488 51.7073 38.0488C44.1639 38.0488 38.0488 44.1639 38.0488 51.7073C38.0488 59.2507 44.1639 65.3659 51.7073 65.3659Z" fill="#FF9903"/>
<path d="M127.861 86H116.259V53.2727H127.957C131.248 53.2727 134.082 53.9279 136.458 55.2383C138.834 56.538 140.661 58.4077 141.939 60.8473C143.228 63.2869 143.873 66.206 143.873 69.6044C143.873 73.0135 143.228 75.9432 141.939 78.3935C140.661 80.8437 138.823 82.7241 136.426 84.0344C134.04 85.3448 131.184 86 127.861 86ZM123.178 80.0714H127.573C129.618 80.0714 131.339 79.7092 132.735 78.9847C134.141 78.2496 135.196 77.1151 135.899 75.581C136.612 74.0362 136.969 72.044 136.969 69.6044C136.969 67.1861 136.612 65.2099 135.899 63.6758C135.196 62.1417 134.146 61.0124 132.751 60.288C131.355 59.5636 129.634 59.2013 127.589 59.2013H123.178V80.0714ZM155.87 86.4634C154.304 86.4634 152.908 86.1918 151.683 85.6484C150.458 85.0945 149.488 84.2795 148.775 83.2035C148.071 82.1168 147.72 80.7638 147.72 79.1445C147.72 77.7809 147.97 76.6357 148.471 75.7088C148.972 74.782 149.654 74.0362 150.516 73.4716C151.379 72.907 152.359 72.4808 153.457 72.1932C154.565 71.9055 155.726 71.7031 156.94 71.5859C158.368 71.4368 159.519 71.2983 160.392 71.1705C161.266 71.032 161.9 70.8295 162.294 70.5632C162.688 70.2969 162.885 69.9027 162.885 69.3807V69.2848C162.885 68.2727 162.565 67.4897 161.926 66.9357C161.298 66.3817 160.403 66.1048 159.242 66.1048C158.016 66.1048 157.042 66.3764 156.317 66.9197C155.593 67.4524 155.113 68.1236 154.879 68.9332L148.583 68.4219C148.902 66.9304 149.531 65.6413 150.469 64.5547C151.406 63.4574 152.615 62.6158 154.096 62.0298C155.587 61.4332 157.313 61.1349 159.274 61.1349C160.637 61.1349 161.942 61.2947 163.189 61.6143C164.446 61.9339 165.559 62.4293 166.529 63.1005C167.509 63.7717 168.281 64.6346 168.846 65.6893C169.41 66.7333 169.693 67.9851 169.693 69.4446V86H163.237V82.5962H163.045C162.651 83.3633 162.123 84.0398 161.463 84.6257C160.802 85.201 160.009 85.6538 159.082 85.984C158.155 86.3036 157.084 86.4634 155.87 86.4634ZM157.819 81.7653C158.821 81.7653 159.705 81.5682 160.472 81.174C161.239 80.7692 161.841 80.2259 162.278 79.544C162.715 78.8622 162.933 78.0898 162.933 77.2269V74.6222C162.72 74.7607 162.427 74.8885 162.054 75.0057C161.692 75.1122 161.282 75.2134 160.824 75.3093C160.366 75.3945 159.907 75.4744 159.449 75.549C158.991 75.6129 158.576 75.6715 158.203 75.7248C157.404 75.842 156.706 76.0284 156.109 76.2841C155.513 76.5398 155.049 76.886 154.719 77.3228C154.389 77.7489 154.224 78.2816 154.224 78.9208C154.224 79.8477 154.559 80.5561 155.231 81.0462C155.912 81.5256 156.775 81.7653 157.819 81.7653ZM174.974 86V61.4545H181.782V86H174.974ZM178.394 58.2905C177.382 58.2905 176.513 57.9549 175.789 57.2837C175.075 56.6019 174.718 55.7869 174.718 54.8388C174.718 53.9013 175.075 53.0969 175.789 52.4258C176.513 51.744 177.382 51.4031 178.394 51.4031C179.406 51.4031 180.269 51.744 180.983 52.4258C181.707 53.0969 182.069 53.9013 182.069 54.8388C182.069 55.7869 181.707 56.6019 180.983 57.2837C180.269 57.9549 179.406 58.2905 178.394 58.2905ZM207.657 68.4538L201.425 68.8374C201.319 68.3047 201.09 67.8253 200.738 67.3991C200.386 66.9624 199.923 66.6161 199.348 66.3604C198.783 66.0941 198.107 65.9609 197.318 65.9609C196.264 65.9609 195.374 66.1847 194.65 66.6321C193.925 67.0689 193.563 67.6548 193.563 68.3899C193.563 68.9759 193.797 69.4712 194.266 69.8761C194.735 70.2809 195.539 70.6058 196.679 70.8509L201.121 71.7457C203.508 72.2358 205.287 73.0241 206.459 74.1108C207.631 75.1974 208.217 76.625 208.217 78.3935C208.217 80.0021 207.743 81.4137 206.794 82.6282C205.857 83.8427 204.568 84.7908 202.927 85.4727C201.297 86.1438 199.417 86.4794 197.286 86.4794C194.037 86.4794 191.448 85.8029 189.52 84.4499C187.602 83.0863 186.478 81.2326 186.148 78.8888L192.844 78.5373C193.046 79.5281 193.536 80.2844 194.314 80.8065C195.092 81.3178 196.088 81.5735 197.302 81.5735C198.495 81.5735 199.454 81.3445 200.179 80.8864C200.914 80.4176 201.287 79.8157 201.297 79.0806C201.287 78.4627 201.026 77.9567 200.514 77.5625C200.003 77.1577 199.215 76.8487 198.149 76.6357L193.898 75.7887C191.501 75.3093 189.717 74.4783 188.545 73.2958C187.384 72.1133 186.803 70.6058 186.803 68.7734C186.803 67.1967 187.229 65.8384 188.082 64.6985C188.945 63.5586 190.154 62.6797 191.709 62.0618C193.275 61.4439 195.108 61.1349 197.206 61.1349C200.306 61.1349 202.746 61.7901 204.525 63.1005C206.315 64.4109 207.359 66.1953 207.657 68.4538ZM216.706 95.2045C215.843 95.2045 215.033 95.1353 214.277 94.9968C213.531 94.869 212.913 94.7038 212.423 94.5014L213.957 89.4197C214.756 89.6648 215.476 89.7979 216.115 89.8192C216.765 89.8406 217.324 89.6914 217.793 89.3718C218.272 89.0522 218.661 88.5089 218.959 87.7418L219.359 86.7031L210.554 61.4545H217.713L222.794 79.4801H223.05L228.18 61.4545H235.387L225.847 88.6527C225.389 89.9737 224.765 91.1243 223.977 92.1044C223.199 93.0952 222.214 93.8569 221.021 94.3896C219.828 94.9329 218.389 95.2045 216.706 95.2045ZM269.628 53.2727H276.548V74.5263C276.548 76.9126 275.978 79.0007 274.838 80.7905C273.708 82.5803 272.126 83.9759 270.092 84.9773C268.057 85.968 265.686 86.4634 262.98 86.4634C260.264 86.4634 257.888 85.968 255.853 84.9773C253.819 83.9759 252.237 82.5803 251.107 80.7905C249.978 79.0007 249.413 76.9126 249.413 74.5263V53.2727H256.333V73.935C256.333 75.1815 256.604 76.2894 257.148 77.2589C257.702 78.2283 258.479 78.9901 259.481 79.544C260.482 80.098 261.649 80.375 262.98 80.375C264.323 80.375 265.489 80.098 266.48 79.544C267.482 78.9901 268.254 78.2283 268.797 77.2589C269.351 76.2894 269.628 75.1815 269.628 73.935V53.2727ZM289.16 53.2727V86H282.241V53.2727H289.16Z" fill="white"/>
</svg>
