<svg width="140" height="140" viewBox="0 0 140 140" fill="none" xmlns="http://www.w3.org/2000/svg">
<rect width="140" height="140" rx="20" fill="#394553"/>
<path d="M85.2437 89.5122H54.7559C46.3369 89.5122 39.512 96.3371 39.512 104.756C39.512 113.175 46.3369 120 54.7559 120H85.2437C93.6627 120 100.488 113.175 100.488 104.756C100.488 96.3371 93.6627 89.5122 85.2437 89.5122Z" fill="#1AD1A5"/>
<path d="M69.9998 83.4146C87.5113 83.4146 101.707 69.2188 101.707 51.7073C101.707 34.1958 87.5113 20 69.9998 20C52.4883 20 38.2925 34.1958 38.2925 51.7073C38.2925 69.2188 52.4883 83.4146 69.9998 83.4146Z" fill="black" fill-opacity="0.3"/>
<path d="M69.9998 82.1951C86.8377 82.1951 100.488 68.5453 100.488 51.7073C100.488 34.8694 86.8377 21.2195 69.9998 21.2195C53.1618 21.2195 39.512 34.8694 39.512 51.7073C39.512 68.5453 53.1618 82.1951 69.9998 82.1951Z" fill="white"/>
<path d="M69.9998 65.3659C77.5432 65.3659 83.6583 59.2507 83.6583 51.7073C83.6583 44.1639 77.5432 38.0488 69.9998 38.0488C62.4564 38.0488 56.3413 44.1639 56.3413 51.7073C56.3413 59.2507 62.4564 65.3659 69.9998 65.3659Z" fill="#FF9903"/>
</svg>
