<svg width="140" height="140" viewBox="0 0 140 140" fill="none" xmlns="http://www.w3.org/2000/svg">
<rect width="140" height="140" rx="20" fill="#0C4B33"/>
<path d="M66.0633 20H82.437V95.046C74.0501 96.6325 67.8759 97.2567 61.1956 97.2567C41.1973 97.2358 30.7873 88.3015 30.7873 71.1427C30.7873 54.61 41.8295 43.8804 58.9408 43.8804C61.596 43.8804 63.6189 44.0894 66.0633 44.7154V20ZM66.6371 58.2396C64.7194 57.6133 63.1392 57.4045 61.116 57.4045C52.8345 57.4045 48.051 62.4561 48.051 71.3089C48.051 79.9281 52.624 84.6874 61.0108 84.6874C62.8229 84.6874 64.298 84.5854 66.6371 84.2722V58.2396Z" fill="white"/>
<path d="M109.213 45.8952V83.4698C109.213 96.4097 108.243 102.632 105.399 107.997C102.743 113.155 99.2452 116.408 92.0173 120L76.8238 112.84C84.0517 109.481 87.5496 106.513 89.7836 101.983C92.1224 97.3513 92.8599 91.9863 92.8599 77.8753V45.8955L109.213 45.8952ZM91.21 20H107.584V36.6371H91.21V20Z" fill="white"/>
</svg>
