<svg width="305" height="140" viewBox="0 0 305 140" fill="none" xmlns="http://www.w3.org/2000/svg">
<rect width="304.425" height="140" rx="20" fill="#0C4B33"/>
<path d="M55.276 20H71.6497V95.046C63.2628 96.6325 57.0886 97.2567 50.4083 97.2567C30.4101 97.2358 20 88.3015 20 71.1427C20 54.61 31.0422 43.8804 48.1535 43.8804C50.8087 43.8804 52.8316 44.0894 55.276 44.7154V20ZM55.8498 58.2396C53.9321 57.6133 52.3519 57.4045 50.3287 57.4045C42.0472 57.4045 37.2637 62.4561 37.2637 71.3089C37.2637 79.9281 41.8367 84.6874 50.2236 84.6874C52.0356 84.6874 53.5107 84.5854 55.8498 84.2722V58.2396Z" fill="white"/>
<path d="M98.4254 45.8952V83.4698C98.4254 96.4097 97.4562 102.632 94.6113 107.997C91.9559 113.155 88.4579 116.408 81.23 120L66.0365 112.84C73.2644 109.481 76.7623 106.513 78.9963 101.983C81.3351 97.3513 82.0726 91.9863 82.0726 77.8753V45.8955L98.4254 45.8952ZM80.4227 20H96.7963V36.6371H80.4227V20Z" fill="white"/>
<path d="M142.871 86H131.27V53.2727H142.967C146.259 53.2727 149.093 53.9279 151.469 55.2383C153.844 56.538 155.671 58.4077 156.95 60.8473C158.239 63.2869 158.883 66.206 158.883 69.6044C158.883 73.0135 158.239 75.9432 156.95 78.3935C155.671 80.8437 153.834 82.7241 151.437 84.0344C149.05 85.3448 146.195 86 142.871 86ZM138.189 80.0714H142.584C144.629 80.0714 146.35 79.7092 147.745 78.9847C149.152 78.2496 150.206 77.1151 150.909 75.581C151.623 74.0362 151.98 72.044 151.98 69.6044C151.98 67.1861 151.623 65.2099 150.909 63.6758C150.206 62.1417 149.157 61.0124 147.761 60.288C146.366 59.5636 144.645 59.2013 142.6 59.2013H138.189V80.0714ZM163.881 61.4545H170.689V87.2145C170.689 89.1108 170.316 90.6449 169.57 91.8168C168.824 92.9886 167.754 93.8462 166.358 94.3896C164.973 94.9329 163.317 95.2045 161.388 95.2045C161.154 95.2045 160.93 95.1992 160.717 95.1886C160.493 95.1886 160.259 95.1832 160.014 95.1726V89.8512C160.195 89.8619 160.355 89.8672 160.493 89.8672C160.621 89.8778 160.76 89.8832 160.909 89.8832C162.006 89.8832 162.773 89.6488 163.21 89.18C163.657 88.7219 163.881 88.0295 163.881 87.1026V61.4545ZM167.269 58.2905C166.268 58.2905 165.405 57.9549 164.68 57.2837C163.956 56.6019 163.594 55.7869 163.594 54.8388C163.594 53.9013 163.956 53.0969 164.68 52.4258C165.405 51.744 166.268 51.4031 167.269 51.4031C168.292 51.4031 169.16 51.744 169.874 52.4258C170.598 53.0969 170.96 53.9013 170.96 54.8388C170.96 55.7869 170.598 56.6019 169.874 57.2837C169.16 57.9549 168.292 58.2905 167.269 58.2905ZM183.141 86.4634C181.575 86.4634 180.18 86.1918 178.954 85.6484C177.729 85.0945 176.76 84.2795 176.046 83.2035C175.343 82.1168 174.991 80.7638 174.991 79.1445C174.991 77.7809 175.242 76.6357 175.742 75.7088C176.243 74.782 176.925 74.0362 177.788 73.4716C178.651 72.907 179.631 72.4808 180.728 72.1932C181.836 71.9055 182.997 71.7031 184.212 71.5859C185.639 71.4368 186.79 71.2983 187.664 71.1705C188.537 71.032 189.171 70.8295 189.565 70.5632C189.959 70.2969 190.156 69.9027 190.156 69.3807V69.2848C190.156 68.2727 189.837 67.4897 189.198 66.9357C188.569 66.3817 187.674 66.1048 186.513 66.1048C185.288 66.1048 184.313 66.3764 183.589 66.9197C182.864 67.4524 182.385 68.1236 182.15 68.9332L175.854 68.4219C176.174 66.9304 176.802 65.6413 177.74 64.5547C178.677 63.4574 179.887 62.6158 181.367 62.0298C182.859 61.4332 184.585 61.1349 186.545 61.1349C187.909 61.1349 189.214 61.2947 190.46 61.6143C191.717 61.9339 192.83 62.4293 193.8 63.1005C194.78 63.7717 195.552 64.6346 196.117 65.6893C196.682 66.7333 196.964 67.9851 196.964 69.4446V86H190.508V82.5962H190.316C189.922 83.3633 189.395 84.0398 188.734 84.6257C188.074 85.201 187.28 85.6538 186.353 85.984C185.426 86.3036 184.356 86.4634 183.141 86.4634ZM185.091 81.7653C186.092 81.7653 186.976 81.5682 187.743 81.174C188.511 80.7692 189.112 80.2259 189.549 79.544C189.986 78.8622 190.204 78.0898 190.204 77.2269V74.6222C189.991 74.7607 189.698 74.8885 189.326 75.0057C188.963 75.1122 188.553 75.2134 188.095 75.3093C187.637 75.3945 187.179 75.4744 186.721 75.549C186.263 75.6129 185.847 75.6715 185.474 75.7248C184.675 75.842 183.977 76.0284 183.381 76.2841C182.784 76.5398 182.321 76.886 181.991 77.3228C181.66 77.7489 181.495 78.2816 181.495 78.9208C181.495 79.8477 181.831 80.5561 182.502 81.0462C183.184 81.5256 184.047 81.7653 185.091 81.7653ZM209.053 71.8097V86H202.245V61.4545H208.733V65.7852H209.021C209.564 64.3576 210.475 63.2283 211.754 62.3974C213.032 61.5558 214.582 61.1349 216.404 61.1349C218.108 61.1349 219.595 61.5078 220.862 62.2536C222.13 62.9993 223.115 64.0646 223.819 65.4496C224.522 66.8239 224.873 68.4645 224.873 70.3714V86H218.066V71.5859C218.076 70.0838 217.693 68.9119 216.915 68.0703C216.137 67.218 215.067 66.7919 213.703 66.7919C212.787 66.7919 211.977 66.989 211.274 67.3832C210.582 67.7773 210.038 68.3526 209.644 69.109C209.261 69.8548 209.064 70.755 209.053 71.8097ZM241.297 95.7159C239.092 95.7159 237.201 95.4123 235.624 94.805C234.058 94.2085 232.811 93.3935 231.885 92.3601C230.958 91.3267 230.356 90.1655 230.079 88.8764L236.375 88.0295C236.567 88.5195 236.87 88.9776 237.286 89.4038C237.701 89.8299 238.25 90.1708 238.932 90.4265C239.624 90.6928 240.466 90.826 241.457 90.826C242.937 90.826 244.157 90.4638 245.116 89.7393C246.086 89.0256 246.57 87.8271 246.57 86.1438V81.6534H246.283C245.984 82.3352 245.537 82.9798 244.94 83.587C244.344 84.1942 243.577 84.6896 242.639 85.0732C241.702 85.4567 240.583 85.6484 239.283 85.6484C237.44 85.6484 235.762 85.2223 234.25 84.37C232.747 83.5071 231.549 82.1914 230.654 80.4229C229.77 78.6438 229.328 76.396 229.328 73.6793C229.328 70.8988 229.78 68.5763 230.686 66.712C231.592 64.8477 232.795 63.4521 234.298 62.5252C235.81 61.5984 237.467 61.1349 239.267 61.1349C240.642 61.1349 241.792 61.3693 242.719 61.8381C243.646 62.2962 244.392 62.8714 244.956 63.5639C245.532 64.2457 245.974 64.9169 246.283 65.5774H246.538V61.4545H253.298V86.2397C253.298 88.3278 252.787 90.0749 251.764 91.4812C250.741 92.8874 249.324 93.9421 247.513 94.6452C245.713 95.359 243.641 95.7159 241.297 95.7159ZM241.441 80.5348C242.538 80.5348 243.465 80.2631 244.221 79.7198C244.988 79.1658 245.574 78.3775 245.979 77.3548C246.394 76.3214 246.602 75.0856 246.602 73.6474C246.602 72.2092 246.4 70.9627 245.995 69.908C245.59 68.8427 245.004 68.017 244.237 67.4311C243.47 66.8452 242.538 66.5522 241.441 66.5522C240.322 66.5522 239.379 66.8558 238.612 67.4631C237.845 68.0597 237.265 68.8906 236.87 69.956C236.476 71.0213 236.279 72.2518 236.279 73.6474C236.279 75.0643 236.476 76.2894 236.87 77.3228C237.275 78.3455 237.856 79.1392 238.612 79.7038C239.379 80.2578 240.322 80.5348 241.441 80.5348ZM269.805 86.4794C267.323 86.4794 265.176 85.9521 263.365 84.8974C261.565 83.832 260.175 82.3512 259.195 80.4549C258.214 78.5479 257.724 76.3374 257.724 73.8232C257.724 71.2876 258.214 69.0717 259.195 67.1754C260.175 65.2685 261.565 63.7876 263.365 62.733C265.176 61.6676 267.323 61.1349 269.805 61.1349C272.288 61.1349 274.429 61.6676 276.229 62.733C278.04 63.7876 279.436 65.2685 280.416 67.1754C281.396 69.0717 281.886 71.2876 281.886 73.8232C281.886 76.3374 281.396 78.5479 280.416 80.4549C279.436 82.3512 278.04 83.832 276.229 84.8974C274.429 85.9521 272.288 86.4794 269.805 86.4794ZM269.837 81.206C270.967 81.206 271.909 80.8864 272.666 80.2472C273.422 79.5973 273.992 78.7131 274.376 77.5945C274.77 76.4759 274.967 75.2028 274.967 73.7752C274.967 72.3477 274.77 71.0746 274.376 69.956C273.992 68.8374 273.422 67.9531 272.666 67.3033C271.909 66.6534 270.967 66.3285 269.837 66.3285C268.697 66.3285 267.739 66.6534 266.961 67.3033C266.194 67.9531 265.613 68.8374 265.219 69.956C264.836 71.0746 264.644 72.3477 264.644 73.7752C264.644 75.2028 264.836 76.4759 265.219 77.5945C265.613 78.7131 266.194 79.5973 266.961 80.2472C267.739 80.8864 268.697 81.206 269.837 81.206Z" fill="white"/>
</svg>
