<svg width="140" height="140" viewBox="0 0 140 140" fill="none" xmlns="http://www.w3.org/2000/svg">
<rect width="140" height="140" rx="20" fill="#2496ED"/>
<path d="M119.014 61.2093C118.743 60.9939 116.211 59.0822 110.871 59.0822C109.461 59.0884 108.055 59.2093 106.664 59.4438C105.631 52.3607 99.7749 48.9073 99.5123 48.7524L98.0786 47.9255L97.1356 49.2863C95.9547 51.1142 95.0926 53.1292 94.5865 55.2456C93.6305 59.2889 94.2119 63.0866 96.2658 66.3333C93.7856 67.7154 89.807 68.0557 89.0018 68.0857H23.1303C21.4097 68.0881 20.0136 69.4785 20.0042 71.1989C19.9274 76.9696 20.9051 82.7059 22.8891 88.1253C25.1583 94.0761 28.5342 98.4595 32.9262 101.142C37.8479 104.156 45.8439 105.878 54.9078 105.878C59.0024 105.891 63.0894 105.521 67.115 104.772C72.7111 103.744 78.0959 101.788 83.0468 98.9847C87.1262 96.6224 90.7977 93.6171 93.9192 90.0845C99.138 84.1768 102.247 77.5973 104.559 71.7501H105.48C111.194 71.7501 114.708 69.4636 116.646 67.5475C117.933 66.3255 118.939 64.8368 119.591 63.1857L120 61.9887L119.014 61.2093Z" fill="white"/>
<path d="M29.236 66.1568H38.0631C38.4888 66.1568 38.8338 65.8117 38.8338 65.3861V57.5234C38.8362 57.0977 38.493 56.7508 38.0674 56.7484H29.236C28.8102 56.7484 28.4653 57.0935 28.4653 57.5191V65.386C28.4653 65.8117 28.8102 66.1568 29.236 66.1568Z" fill="white"/>
<path d="M41.4002 66.1568H50.2273C50.653 66.1568 50.998 65.8117 50.998 65.3861V57.5234C51.0004 57.0977 50.6572 56.7508 50.2315 56.7484H41.4001C40.972 56.7484 40.625 57.0953 40.625 57.5234V65.386C40.6276 65.8124 40.9738 66.1568 41.4002 66.1568Z" fill="white"/>
<path d="M53.7494 66.1568H62.5765C63.0022 66.1568 63.3472 65.8117 63.3472 65.3861V57.5234C63.3496 57.0977 63.0064 56.7508 62.5807 56.7484H53.7493C53.3235 56.7484 52.9786 57.0935 52.9786 57.5191V65.386C52.9787 65.8117 53.3238 66.1568 53.7494 66.1568Z" fill="white"/>
<path d="M65.9523 66.1568H74.7794C75.2058 66.1568 75.5521 65.8125 75.5544 65.3861V57.5234C75.5544 57.0953 75.2075 56.7484 74.7794 56.7484H65.9523C65.5266 56.7484 65.1816 57.0935 65.1816 57.5191V65.386C65.1816 65.8117 65.5267 66.1568 65.9523 66.1568Z" fill="white"/>
<path d="M41.4002 54.8453H50.2273C50.6536 54.8429 50.998 54.4965 50.998 54.0702V46.2077C50.998 45.782 50.6529 45.437 50.2273 45.437H41.4002C40.9739 45.437 40.6275 45.7813 40.6252 46.2077V54.0702C40.6275 54.4974 40.9731 54.8429 41.4002 54.8453Z" fill="white"/>
<path d="M53.7494 54.8453H62.5765C63.0027 54.8429 63.3472 54.4965 63.3472 54.0702V46.2077C63.3472 45.782 63.002 45.437 62.5765 45.437H53.7494C53.3237 45.437 52.9787 45.7821 52.9787 46.2077V54.0702C52.9787 54.4965 53.3231 54.8429 53.7494 54.8453Z" fill="white"/>
<path d="M65.9523 54.8453H74.7794C75.2065 54.8429 75.5521 54.4974 75.5544 54.0702V46.2077C75.5521 45.7813 75.2058 45.437 74.7794 45.437H65.9523C65.5266 45.437 65.1816 45.7821 65.1816 46.2077V54.0702C65.1816 54.4965 65.526 54.8429 65.9523 54.8453Z" fill="white"/>
<path d="M65.9523 43.5295H74.7794C75.2058 43.5295 75.5521 43.1851 75.5544 42.7588V34.8918C75.5521 34.4654 75.2058 34.1211 74.7794 34.1211H65.9523C65.5266 34.1211 65.1816 34.4661 65.1816 34.8918V42.7587C65.1816 43.1844 65.5267 43.5295 65.9523 43.5295Z" fill="white"/>
<path d="M78.2629 66.1568H87.0899C87.5164 66.1568 87.8625 65.8125 87.865 65.3861V57.5234C87.865 57.0953 87.518 56.7484 87.0899 56.7484H78.2629C77.8373 56.7484 77.4922 57.0935 77.4922 57.5191V65.386C77.4922 65.8117 77.8373 66.1568 78.2629 66.1568Z" fill="white"/>
</svg>
