<svg width="140" height="140" viewBox="0 0 140 140" fill="none" xmlns="http://www.w3.org/2000/svg">
<rect width="140" height="140" rx="20" fill="#2496ED"/>
<path d="M119.014 61.2093C118.743 60.9939 116.211 59.0822 110.871 59.0822C109.462 59.0884 108.055 59.2093 106.664 59.4438C105.631 52.3607 99.775 48.9073 99.5124 48.7524L98.0787 47.9255L97.1357 49.2863C95.9548 51.1142 95.0927 53.1292 94.5866 55.2456C93.6306 59.2889 94.212 63.0866 96.2659 66.3333C93.7857 67.7154 89.8071 68.0557 89.0019 68.0857H23.1304C21.4098 68.0881 20.0137 69.4785 20.0043 71.1989C19.9275 76.9696 20.9052 82.7059 22.8892 88.1253C25.1584 94.0761 28.5343 98.4595 32.9263 101.142C37.848 104.156 45.844 105.878 54.9079 105.878C59.0025 105.891 63.0895 105.521 67.1151 104.772C72.7112 103.744 78.096 101.788 83.0469 98.9847C87.1263 96.6224 90.7978 93.6171 93.9193 90.0845C99.1381 84.1768 102.247 77.5973 104.559 71.7501H105.481C111.194 71.7501 114.708 69.4636 116.646 67.5475C117.933 66.3255 118.939 64.8368 119.591 63.1857L120 61.9887L119.014 61.2093Z" fill="white"/>
<path d="M29.2361 66.1568H38.0632C38.4889 66.1568 38.8339 65.8117 38.8339 65.3861V57.5234C38.8363 57.0977 38.4931 56.7508 38.0675 56.7484H29.2361C28.8104 56.7484 28.4654 57.0935 28.4654 57.5191V65.386C28.4654 65.8117 28.8104 66.1568 29.2361 66.1568Z" fill="white"/>
<path d="M41.4003 66.1568H50.2274C50.6531 66.1568 50.9981 65.8117 50.9981 65.3861V57.5234C51.0005 57.0977 50.6573 56.7508 50.2316 56.7484H41.4002C40.9721 56.7484 40.6251 57.0953 40.6251 57.5234V65.386C40.6277 65.8124 40.9739 66.1568 41.4003 66.1568Z" fill="white"/>
<path d="M53.7495 66.1568H62.5766C63.0023 66.1568 63.3473 65.8117 63.3473 65.3861V57.5234C63.3497 57.0977 63.0065 56.7508 62.5808 56.7484H53.7494C53.3236 56.7484 52.9787 57.0935 52.9787 57.5191V65.386C52.9788 65.8117 53.3239 66.1568 53.7495 66.1568Z" fill="white"/>
<path d="M65.9524 66.1568H74.7795C75.2059 66.1568 75.5522 65.8125 75.5545 65.3861V57.5234C75.5545 57.0953 75.2076 56.7484 74.7795 56.7484H65.9524C65.5267 56.7484 65.1817 57.0935 65.1817 57.5191V65.386C65.1817 65.8117 65.5268 66.1568 65.9524 66.1568Z" fill="white"/>
<path d="M41.4003 54.8453H50.2274C50.6537 54.8429 50.9981 54.4965 50.9981 54.0702V46.2077C50.9981 45.782 50.653 45.437 50.2274 45.437H41.4003C40.974 45.437 40.6276 45.7813 40.6253 46.2077V54.0702C40.6276 54.4974 40.9732 54.8429 41.4003 54.8453Z" fill="white"/>
<path d="M53.7495 54.8453H62.5766C63.0028 54.8429 63.3473 54.4965 63.3473 54.0702V46.2077C63.3473 45.782 63.0021 45.437 62.5766 45.437H53.7495C53.3238 45.437 52.9788 45.7821 52.9788 46.2077V54.0702C52.9788 54.4965 53.3232 54.8429 53.7495 54.8453Z" fill="white"/>
<path d="M65.9524 54.8453H74.7795C75.2066 54.8429 75.5522 54.4974 75.5545 54.0702V46.2077C75.5522 45.7813 75.2059 45.437 74.7795 45.437H65.9524C65.5267 45.437 65.1817 45.7821 65.1817 46.2077V54.0702C65.1817 54.4965 65.5261 54.8429 65.9524 54.8453Z" fill="white"/>
<path d="M65.9524 43.5295H74.7795C75.2059 43.5295 75.5522 43.1851 75.5545 42.7588V34.8918C75.5522 34.4654 75.2059 34.1211 74.7795 34.1211H65.9524C65.5267 34.1211 65.1817 34.4661 65.1817 34.8918V42.7587C65.1817 43.1844 65.5268 43.5295 65.9524 43.5295Z" fill="white"/>
<path d="M78.263 66.1568H87.09C87.5165 66.1568 87.8627 65.8125 87.8651 65.3861V57.5234C87.8651 57.0953 87.5181 56.7484 87.09 56.7484H78.263C77.8374 56.7484 77.4923 57.0935 77.4923 57.5191V65.386C77.4923 65.8117 77.8374 66.1568 78.263 66.1568Z" fill="white"/>
</svg>
