<svg width="140" height="140" viewBox="0 0 140 140" fill="none" xmlns="http://www.w3.org/2000/svg">
<rect width="140" height="140" rx="20" fill="#512BD4"/>
<path d="M24.8601 68.3036C23.9865 68.3036 23.2354 67.9947 22.6069 67.3768C21.9783 66.7482 21.6641 65.9918 21.6641 65.1076C21.6641 64.234 21.9783 63.4883 22.6069 62.8704C23.2354 62.2418 23.9865 61.9276 24.8601 61.9276C25.7337 61.9276 26.4847 62.2418 27.1133 62.8704C27.7418 63.4883 28.0561 64.234 28.0561 65.1076C28.0561 65.6935 27.907 66.2315 27.6087 66.7216C27.321 67.201 26.9375 67.5845 26.4581 67.8722C25.9787 68.1598 25.446 68.3036 24.8601 68.3036ZM61.2548 35.2727V68H56.7164L40.0811 43.9979H39.7775V68H34.8397V35.2727H39.41L56.0613 59.3068H56.3649V35.2727H61.2548ZM68.4578 68V35.2727H88.9763V39.5234H73.3957V49.495H87.9056V53.7298H73.3957V63.7493H89.1681V68H68.4578ZM93.9581 39.5234V35.2727H119.287V39.5234H109.075V68H104.153V39.5234H93.9581Z" fill="white"/>
<path d="M56.1989 93H53.5568C53.4006 92.2401 53.1271 91.5724 52.7365 90.9972C52.353 90.4219 51.8842 89.9389 51.3303 89.5483C50.7834 89.1506 50.1761 88.8523 49.5085 88.6534C48.8409 88.4545 48.1449 88.3551 47.4205 88.3551C46.0994 88.3551 44.9027 88.6889 43.8303 89.3565C42.7649 90.0241 41.9162 91.0078 41.2841 92.3075C40.6591 93.6072 40.3466 95.2017 40.3466 97.0909C40.3466 98.9801 40.6591 100.575 41.2841 101.874C41.9162 103.174 42.7649 104.158 43.8303 104.825C44.9027 105.493 46.0994 105.827 47.4205 105.827C48.1449 105.827 48.8409 105.727 49.5085 105.528C50.1761 105.33 50.7834 105.035 51.3303 104.644C51.8842 104.246 52.353 103.76 52.7365 103.185C53.1271 102.602 53.4006 101.935 53.5568 101.182H56.1989C56 102.297 55.6378 103.295 55.1122 104.175C54.5866 105.056 53.9332 105.805 53.152 106.423C52.3707 107.034 51.4936 107.499 50.5206 107.819C49.5547 108.138 48.5213 108.298 47.4205 108.298C45.5597 108.298 43.9048 107.844 42.456 106.935C41.0071 106.026 39.8672 104.733 39.0362 103.057C38.2053 101.381 37.7898 99.392 37.7898 97.0909C37.7898 94.7898 38.2053 92.8011 39.0362 91.125C39.8672 89.4489 41.0071 88.1562 42.456 87.2472C43.9048 86.3381 45.5597 85.8835 47.4205 85.8835C48.5213 85.8835 49.5547 86.0433 50.5206 86.3629C51.4936 86.6825 52.3707 87.1513 53.152 87.7692C53.9332 88.38 54.5866 89.1257 55.1122 90.0064C55.6378 90.88 56 91.8778 56.1989 93ZM66.775 108.341C65.2978 108.341 64.0016 107.989 62.8865 107.286C61.7786 106.583 60.9121 105.599 60.2871 104.335C59.6692 103.071 59.3603 101.594 59.3603 99.9034C59.3603 98.1989 59.6692 96.7109 60.2871 95.4396C60.9121 94.1683 61.7786 93.1811 62.8865 92.478C64.0016 91.7749 65.2978 91.4233 66.775 91.4233C68.2523 91.4233 69.5449 91.7749 70.6529 92.478C71.7679 93.1811 72.6344 94.1683 73.2523 95.4396C73.8773 96.7109 74.1898 98.1989 74.1898 99.9034C74.1898 101.594 73.8773 103.071 73.2523 104.335C72.6344 105.599 71.7679 106.583 70.6529 107.286C69.5449 107.989 68.2523 108.341 66.775 108.341ZM66.775 106.082C67.8972 106.082 68.8205 105.795 69.5449 105.219C70.2694 104.644 70.8056 103.888 71.1536 102.95C71.5016 102.013 71.6756 100.997 71.6756 99.9034C71.6756 98.8097 71.5016 97.7905 71.1536 96.8459C70.8056 95.9013 70.2694 95.1378 69.5449 94.5554C68.8205 93.973 67.8972 93.6818 66.775 93.6818C65.6529 93.6818 64.7296 93.973 64.0051 94.5554C63.2807 95.1378 62.7445 95.9013 62.3965 96.8459C62.0485 97.7905 61.8745 98.8097 61.8745 99.9034C61.8745 100.997 62.0485 102.013 62.3965 102.95C62.7445 103.888 63.2807 104.644 64.0051 105.219C64.7296 105.795 65.6529 106.082 66.775 106.082ZM78.0277 108V91.6364H80.4567V94.108H80.6271C80.9254 93.2983 81.4652 92.6413 82.2464 92.1371C83.0277 91.6328 83.9084 91.3807 84.8885 91.3807C85.0732 91.3807 85.304 91.3842 85.581 91.3913C85.858 91.3984 86.0675 91.4091 86.2095 91.4233V93.9801C86.1243 93.9588 85.929 93.9268 85.6236 93.8842C85.3253 93.8345 85.0092 93.8097 84.6754 93.8097C83.88 93.8097 83.1697 93.9766 82.5447 94.3104C81.9268 94.6371 81.4368 95.0916 81.0746 95.674C80.7195 96.2493 80.5419 96.9062 80.5419 97.6449V108H78.0277ZM95.5526 108.341C93.9759 108.341 92.6158 107.993 91.4723 107.297C90.3359 106.594 89.4588 105.614 88.8409 104.357C88.2301 103.092 87.9247 101.622 87.9247 99.946C87.9247 98.2699 88.2301 96.7926 88.8409 95.5142C89.4588 94.2287 90.3182 93.2273 91.419 92.5099C92.527 91.7855 93.8196 91.4233 95.2969 91.4233C96.1491 91.4233 96.9908 91.5653 97.8217 91.8494C98.6527 92.1335 99.4091 92.5952 100.091 93.2344C100.773 93.8665 101.316 94.7045 101.721 95.7486C102.126 96.7926 102.328 98.0781 102.328 99.6051V100.67H89.7145V98.4972H99.7713C99.7713 97.5739 99.5866 96.75 99.2173 96.0256C98.8551 95.3011 98.3366 94.7294 97.6619 94.3104C96.9943 93.8913 96.206 93.6818 95.2969 93.6818C94.2955 93.6818 93.429 93.9304 92.6974 94.4276C91.973 94.9176 91.4155 95.5568 91.0249 96.3452C90.6342 97.1335 90.4389 97.9787 90.4389 98.8807V100.33C90.4389 101.565 90.652 102.613 91.0781 103.472C91.5114 104.325 92.1115 104.974 92.8786 105.422C93.6456 105.862 94.5369 106.082 95.5526 106.082C96.2131 106.082 96.8097 105.99 97.3423 105.805C97.8821 105.614 98.3473 105.33 98.7379 104.953C99.1286 104.57 99.4304 104.094 99.6435 103.526L102.072 104.207C101.817 105.031 101.387 105.756 100.783 106.381C100.18 106.999 99.4339 107.482 98.5462 107.83C97.6584 108.17 96.6605 108.341 95.5526 108.341Z" fill="white"/>
</svg>
