<svg width="273" height="140" viewBox="0 0 273 140" fill="none" xmlns="http://www.w3.org/2000/svg">
<rect width="273" height="140" rx="20" fill="#332E47"/>
<path d="M28.1836 91.0078C26.8945 91.0078 25.7878 90.5521 24.8633 89.6406C23.9518 88.7161 23.4961 87.6094 23.4961 86.3203C23.4961 85.0443 23.9518 83.9505 24.8633 83.0391C25.7878 82.1276 26.8945 81.6719 28.1836 81.6719C29.4336 81.6719 30.5273 82.1276 31.4648 83.0391C32.4023 83.9505 32.8711 85.0443 32.8711 86.3203C32.8711 87.1797 32.6497 87.9674 32.207 88.6836C31.7773 89.3867 31.2109 89.9531 30.5078 90.3828C29.8047 90.7995 29.0299 91.0078 28.1836 91.0078ZM73.3154 50.5V90.5H66.0107L48.6084 65.3242H48.3154V90.5H39.8584V50.5H47.2803L64.5459 75.6562H64.8975V50.5H73.3154ZM80.3027 90.5V50.5H107.256V57.4727H88.7598V67.0039H105.869V73.9766H88.7598V83.5273H107.334V90.5H80.3027ZM112.456 57.4727V50.5H145.308V57.4727H133.062V90.5H124.702V57.4727H112.456Z" fill="url(#paint0_linear_75_12)"/>
<path d="M188.932 65H185.409C185.201 63.9867 184.836 63.0966 184.315 62.3295C183.804 61.5625 183.179 60.9186 182.44 60.3977C181.711 59.8674 180.902 59.4697 180.011 59.2045C179.121 58.9394 178.193 58.8068 177.227 58.8068C175.466 58.8068 173.87 59.2519 172.44 60.142C171.02 61.0322 169.888 62.3438 169.045 64.0767C168.212 65.8097 167.795 67.9356 167.795 70.4545C167.795 72.9735 168.212 75.0994 169.045 76.8324C169.888 78.5653 171.02 79.8769 172.44 80.767C173.87 81.6572 175.466 82.1023 177.227 82.1023C178.193 82.1023 179.121 81.9697 180.011 81.7045C180.902 81.4394 181.711 81.0464 182.44 80.5256C183.179 79.9953 183.804 79.3466 184.315 78.5795C184.836 77.803 185.201 76.9129 185.409 75.9091H188.932C188.667 77.3958 188.184 78.7263 187.483 79.9006C186.782 81.0748 185.911 82.0739 184.869 82.8977C183.828 83.7121 182.658 84.3324 181.361 84.7585C180.073 85.1847 178.695 85.3977 177.227 85.3977C174.746 85.3977 172.54 84.7917 170.608 83.5795C168.676 82.3674 167.156 80.6439 166.048 78.4091C164.94 76.1742 164.386 73.5227 164.386 70.4545C164.386 67.3864 164.94 64.7348 166.048 62.5C167.156 60.2652 168.676 58.5417 170.608 57.3295C172.54 56.1174 174.746 55.5114 177.227 55.5114C178.695 55.5114 180.073 55.7244 181.361 56.1506C182.658 56.5767 183.828 57.2017 184.869 58.0256C185.911 58.84 186.782 59.8343 187.483 61.0085C188.184 62.1733 188.667 63.5038 188.932 65ZM203.033 85.4545C201.064 85.4545 199.335 84.9858 197.849 84.0483C196.371 83.1108 195.216 81.7992 194.383 80.1136C193.559 78.428 193.147 76.4583 193.147 74.2045C193.147 71.9318 193.559 69.9479 194.383 68.2528C195.216 66.5578 196.371 65.2415 197.849 64.304C199.335 63.3665 201.064 62.8977 203.033 62.8977C205.003 62.8977 206.727 63.3665 208.204 64.304C209.691 65.2415 210.846 66.5578 211.67 68.2528C212.503 69.9479 212.92 71.9318 212.92 74.2045C212.92 76.4583 212.503 78.428 211.67 80.1136C210.846 81.7992 209.691 83.1108 208.204 84.0483C206.727 84.9858 205.003 85.4545 203.033 85.4545ZM203.033 82.4432C204.53 82.4432 205.761 82.0597 206.727 81.2926C207.692 80.5256 208.407 79.517 208.871 78.267C209.335 77.017 209.567 75.6629 209.567 74.2045C209.567 72.7462 209.335 71.3873 208.871 70.1278C208.407 68.8684 207.692 67.8504 206.727 67.0739C205.761 66.2973 204.53 65.9091 203.033 65.9091C201.537 65.9091 200.306 66.2973 199.34 67.0739C198.374 67.8504 197.659 68.8684 197.195 70.1278C196.731 71.3873 196.499 72.7462 196.499 74.2045C196.499 75.6629 196.731 77.017 197.195 78.267C197.659 79.517 198.374 80.5256 199.34 81.2926C200.306 82.0597 201.537 82.4432 203.033 82.4432ZM218.037 85V63.1818H221.276V66.4773H221.503C221.901 65.3977 222.62 64.5218 223.662 63.8494C224.704 63.1771 225.878 62.8409 227.185 62.8409C227.431 62.8409 227.739 62.8456 228.108 62.8551C228.477 62.8646 228.757 62.8788 228.946 62.8977V66.3068C228.832 66.2784 228.572 66.2358 228.165 66.179C227.767 66.1127 227.346 66.0795 226.901 66.0795C225.84 66.0795 224.893 66.3021 224.06 66.7472C223.236 67.1828 222.582 67.7888 222.099 68.5653C221.626 69.3324 221.389 70.2083 221.389 71.1932V85H218.037ZM241.403 85.4545C239.301 85.4545 237.488 84.9905 235.963 84.0625C234.448 83.125 233.278 81.8182 232.455 80.142C231.64 78.4564 231.233 76.4962 231.233 74.2614C231.233 72.0265 231.64 70.0568 232.455 68.3523C233.278 66.6383 234.424 65.303 235.892 64.3466C237.369 63.3807 239.093 62.8977 241.062 62.8977C242.199 62.8977 243.321 63.0871 244.429 63.4659C245.537 63.8447 246.545 64.4602 247.455 65.3125C248.364 66.1553 249.088 67.2727 249.628 68.6648C250.168 70.0568 250.438 71.7708 250.438 73.8068V75.2273H233.619V72.3295H247.028C247.028 71.0985 246.782 70 246.29 69.0341C245.807 68.0682 245.116 67.3059 244.216 66.7472C243.326 66.1884 242.275 65.9091 241.062 65.9091C239.727 65.9091 238.572 66.2405 237.597 66.9034C236.631 67.5568 235.887 68.4091 235.366 69.4602C234.846 70.5114 234.585 71.6383 234.585 72.8409V74.7727C234.585 76.4205 234.869 77.8172 235.438 78.9631C236.015 80.0994 236.815 80.9659 237.838 81.5625C238.861 82.1496 240.049 82.4432 241.403 82.4432C242.284 82.4432 243.08 82.3201 243.79 82.0739C244.509 81.8182 245.13 81.4394 245.651 80.9375C246.171 80.4261 246.574 79.7917 246.858 79.0341L250.097 79.9432C249.756 81.0417 249.183 82.0076 248.378 82.8409C247.573 83.6648 246.579 84.3087 245.395 84.7727C244.211 85.2273 242.881 85.4545 241.403 85.4545Z" fill="white"/>
<defs>
<linearGradient id="paint0_linear_75_12" x1="148" y1="103.5" x2="18.9207" y2="38.6481" gradientUnits="userSpaceOnUse">
<stop stop-color="#E666CC"/>
<stop offset="1" stop-color="#9780E5"/>
</linearGradient>
</defs>
</svg>
