<svg width="324" height="140" viewBox="0 0 324 140" fill="none" xmlns="http://www.w3.org/2000/svg">
<rect width="324" height="140" rx="20" fill="#121212"/>
<path d="M43.1612 69.2814C44.3247 67.2356 43.6118 64.645 41.569 63.4951C39.5261 62.3452 36.927 63.0715 35.7635 65.1173L22.1065 89.1317C20.943 91.1775 21.6559 93.7681 23.6987 94.918C25.7415 96.0679 28.3407 95.3416 29.5042 93.2958L43.1612 69.2814Z" fill="#C5F74F"/>
<path d="M72.5982 50.8683C73.7617 48.8225 73.0488 46.2319 71.006 45.082C68.9632 43.9322 66.364 44.6584 65.2005 46.7042L51.5435 70.7187C50.38 72.7644 51.0929 75.355 53.1357 76.5049C55.1786 77.6548 57.7777 76.9285 58.9412 74.8827L72.5982 50.8683Z" fill="#C5F74F"/>
<path d="M117.893 50.8702C119.057 48.8245 118.344 46.2339 116.301 45.084C114.258 43.9341 111.659 44.6604 110.496 46.7062L96.8386 70.7206C95.6752 72.7664 96.3881 75.357 98.4309 76.5069C100.474 77.6567 103.073 76.9305 104.236 74.8847L117.893 50.8702Z" fill="#C5F74F"/>
<path d="M88.4469 69.2814C89.6103 67.2356 88.8974 64.645 86.8546 63.4951C84.8118 62.3452 82.2126 63.0715 81.0492 65.1173L67.3921 89.1317C66.2287 91.1775 66.9416 93.7681 68.9844 94.918C71.0272 96.0679 73.6264 95.3416 74.7898 93.2958L88.4469 69.2814Z" fill="#C5F74F"/>
<path d="M164.446 86H152.844V53.2727H164.542C167.834 53.2727 170.668 53.9279 173.043 55.2383C175.419 56.538 177.246 58.4077 178.525 60.8473C179.814 63.2869 180.458 66.206 180.458 69.6044C180.458 73.0135 179.814 75.9432 178.525 78.3935C177.246 80.8437 175.408 82.7241 173.011 84.0344C170.625 85.3448 167.77 86 164.446 86ZM159.764 80.0714H164.158C166.204 80.0714 167.924 79.7092 169.32 78.9847C170.726 78.2496 171.781 77.1151 172.484 75.581C173.198 74.0362 173.555 72.044 173.555 69.6044C173.555 67.1861 173.198 65.2099 172.484 63.6758C171.781 62.1417 170.732 61.0124 169.336 60.288C167.94 59.5636 166.22 59.2013 164.174 59.2013H159.764V80.0714ZM185.456 86V61.4545H192.056V65.7372H192.311C192.759 64.2138 193.51 63.0632 194.565 62.2855C195.619 61.4972 196.834 61.103 198.208 61.103C198.549 61.103 198.916 61.1243 199.311 61.1669C199.705 61.2095 200.051 61.2681 200.349 61.3427V67.3832C200.03 67.2873 199.588 67.2021 199.023 67.1275C198.458 67.0529 197.942 67.0156 197.473 67.0156C196.472 67.0156 195.577 67.234 194.788 67.6708C194.011 68.0969 193.393 68.6935 192.935 69.4606C192.487 70.2276 192.263 71.1119 192.263 72.1133V86H185.456ZM203.869 86V61.4545H210.676V86H203.869ZM207.289 58.2905C206.277 58.2905 205.408 57.9549 204.684 57.2837C203.97 56.6019 203.613 55.7869 203.613 54.8388C203.613 53.9013 203.97 53.0969 204.684 52.4258C205.408 51.744 206.277 51.4031 207.289 51.4031C208.301 51.4031 209.164 51.744 209.877 52.4258C210.602 53.0969 210.964 53.9013 210.964 54.8388C210.964 55.7869 210.602 56.6019 209.877 57.2837C209.164 57.9549 208.301 58.2905 207.289 58.2905ZM216.002 86V81.9411L228.019 67.0636V66.8878H216.417V61.4545H236.217V65.881L224.935 80.391V80.5668H236.632V86H216.002ZM241.71 86V81.9411L253.727 67.0636V66.8878H242.125V61.4545H261.925V65.881L250.643 80.391V80.5668H262.34V86H241.71ZM274.353 53.2727V86H267.546V53.2727H274.353ZM290.993 86.4794C288.468 86.4794 286.294 85.968 284.473 84.9453C282.662 83.9119 281.266 82.4524 280.286 80.5668C279.306 78.6705 278.816 76.4279 278.816 73.8391C278.816 71.3143 279.306 69.0984 280.286 67.1914C281.266 65.2844 282.646 63.7983 284.425 62.733C286.214 61.6676 288.313 61.1349 290.721 61.1349C292.34 61.1349 293.848 61.396 295.243 61.918C296.65 62.4293 297.875 63.2017 298.919 64.2351C299.973 65.2685 300.794 66.5682 301.38 68.1342C301.966 69.6896 302.259 71.5114 302.259 73.5994V75.4691H281.532V71.2504H295.85C295.85 70.2702 295.637 69.402 295.211 68.6456C294.785 67.8892 294.194 67.2979 293.438 66.8718C292.692 66.435 291.824 66.2166 290.833 66.2166C289.799 66.2166 288.883 66.4563 288.084 66.9357C287.296 67.4045 286.678 68.0384 286.23 68.8374C285.783 69.6257 285.554 70.5046 285.543 71.4741V75.4851C285.543 76.6996 285.767 77.7489 286.214 78.6332C286.673 79.5174 287.317 80.1992 288.148 80.6786C288.979 81.158 289.964 81.3977 291.104 81.3977C291.861 81.3977 292.553 81.2912 293.182 81.0781C293.81 80.8651 294.348 80.5455 294.796 80.1193C295.243 79.6932 295.584 79.1712 295.819 78.5533L302.115 78.9688C301.795 80.4815 301.14 81.8026 300.149 82.9318C299.169 84.0504 297.901 84.924 296.346 85.5526C294.801 86.1705 293.017 86.4794 290.993 86.4794Z" fill="white"/>
</svg>
