<svg width="618" height="140" viewBox="0 0 618 140" fill="none" xmlns="http://www.w3.org/2000/svg">
<rect width="618" height="140" rx="20" fill="#332E47"/>
<path d="M23.4766 90.5V50.5H50.4297V57.4727H31.9336V67.0039H49.043V73.9766H31.9336V83.5273H50.5078V90.5H23.4766ZM65.3174 73.1563V90.5H56.9971V60.5H64.9268V65.793H65.2783C65.9424 64.0482 67.0557 62.668 68.6182 61.6523C70.1807 60.6237 72.0752 60.1094 74.3018 60.1094C76.3851 60.1094 78.2015 60.5651 79.751 61.4766C81.3005 62.388 82.5049 63.6901 83.3643 65.3828C84.2236 67.0625 84.6533 69.0677 84.6533 71.3984V90.5H76.333V72.8828C76.346 71.0469 75.8773 69.6146 74.9268 68.5859C73.9762 67.5443 72.6676 67.0234 71.001 67.0234C69.8812 67.0234 68.8916 67.2643 68.0322 67.7461C67.1859 68.2279 66.5218 68.931 66.04 69.8555C65.5713 70.7669 65.3304 71.8672 65.3174 73.1563ZM107.168 60.5V66.75H89.1016V60.5H107.168ZM93.2031 53.3125H101.523V81.2812C101.523 82.0495 101.641 82.6484 101.875 83.0781C102.109 83.4948 102.435 83.7878 102.852 83.957C103.281 84.1263 103.776 84.2109 104.336 84.2109C104.727 84.2109 105.117 84.1784 105.508 84.1133C105.898 84.0352 106.198 83.9766 106.406 83.9375L107.715 90.1289C107.298 90.2591 106.712 90.4089 105.957 90.5781C105.202 90.7604 104.284 90.8711 103.203 90.9102C101.198 90.9883 99.4401 90.7214 97.9297 90.1094C96.4323 89.4974 95.2669 88.5469 94.4336 87.2578C93.6003 85.9687 93.1901 84.3411 93.2031 82.375V53.3125ZM112.588 90.5V60.5H120.908V90.5H112.588ZM116.768 56.6328C115.531 56.6328 114.469 56.2227 113.584 55.4023C112.712 54.569 112.275 53.5729 112.275 52.4141C112.275 51.2682 112.712 50.2852 113.584 49.4648C114.469 48.6315 115.531 48.2148 116.768 48.2148C118.005 48.2148 119.059 48.6315 119.932 49.4648C120.817 50.2852 121.26 51.2682 121.26 52.4141C121.26 53.5729 120.817 54.569 119.932 55.4023C119.059 56.2227 118.005 56.6328 116.768 56.6328ZM143.53 60.5V66.75H125.464V60.5H143.53ZM129.565 53.3125H137.886V81.2812C137.886 82.0495 138.003 82.6484 138.237 83.0781C138.472 83.4948 138.797 83.7878 139.214 83.957C139.644 84.1263 140.138 84.2109 140.698 84.2109C141.089 84.2109 141.479 84.1784 141.87 84.1133C142.261 84.0352 142.56 83.9766 142.769 83.9375L144.077 90.1289C143.66 90.2591 143.075 90.4089 142.319 90.5781C141.564 90.7604 140.646 90.8711 139.565 90.9102C137.56 90.9883 135.802 90.7214 134.292 90.1094C132.795 89.4974 131.629 88.5469 130.796 87.2578C129.963 85.9687 129.552 84.3411 129.565 82.375V53.3125ZM154.087 101.75C153.032 101.75 152.043 101.665 151.118 101.496C150.207 101.34 149.451 101.138 148.853 100.891L150.728 94.6797C151.704 94.9792 152.583 95.1419 153.364 95.168C154.159 95.194 154.842 95.0117 155.415 94.6211C156.001 94.2305 156.476 93.5664 156.841 92.6289L157.329 91.3594L146.567 60.5H155.317L161.528 82.5312H161.841L168.11 60.5H176.919L165.259 93.7422C164.699 95.3568 163.937 96.763 162.974 97.9609C162.023 99.1719 160.819 100.103 159.36 100.754C157.902 101.418 156.144 101.75 154.087 101.75ZM194.062 90.5V50.5H220.547V57.4727H202.52V67.0039H218.789V73.9766H202.52V90.5H194.062ZM225.596 90.5V60.5H233.662V65.7344H233.975C234.521 63.8724 235.439 62.4661 236.729 61.5156C238.018 60.5521 239.502 60.0703 241.182 60.0703C241.598 60.0703 242.048 60.0964 242.529 60.1484C243.011 60.2005 243.434 60.2721 243.799 60.3633V67.7461C243.408 67.6289 242.868 67.5247 242.178 67.4336C241.488 67.3424 240.856 67.2969 240.283 67.2969C239.059 67.2969 237.965 67.5638 237.002 68.0977C236.051 68.6185 235.296 69.3477 234.736 70.2852C234.189 71.2227 233.916 72.3034 233.916 73.5273V90.5H225.596ZM255.796 91.0664C253.882 91.0664 252.176 90.7344 250.679 90.0703C249.181 89.3932 247.996 88.3971 247.124 87.082C246.265 85.7539 245.835 84.1003 245.835 82.1211C245.835 80.4544 246.141 79.0547 246.753 77.9219C247.365 76.7891 248.198 75.8776 249.253 75.1875C250.308 74.4974 251.506 73.9766 252.847 73.625C254.201 73.2734 255.62 73.026 257.104 72.8828C258.849 72.7005 260.256 72.5312 261.323 72.375C262.391 72.2057 263.166 71.9583 263.647 71.6328C264.129 71.3073 264.37 70.8255 264.37 70.1875V70.0703C264.37 68.8333 263.979 67.8763 263.198 67.1992C262.43 66.5221 261.336 66.1836 259.917 66.1836C258.42 66.1836 257.228 66.5156 256.343 67.1797C255.457 67.8307 254.871 68.651 254.585 69.6406L246.89 69.0156C247.28 67.1927 248.049 65.6172 249.194 64.2891C250.34 62.9479 251.818 61.9193 253.628 61.2031C255.451 60.474 257.56 60.1094 259.956 60.1094C261.623 60.1094 263.218 60.3047 264.741 60.6953C266.278 61.0859 267.638 61.6914 268.823 62.5117C270.021 63.332 270.965 64.3867 271.655 65.6758C272.345 66.9518 272.69 68.4818 272.69 70.2656V90.5H264.8V86.3398H264.565C264.084 87.2773 263.439 88.1042 262.632 88.8203C261.825 89.5234 260.854 90.0768 259.722 90.4805C258.589 90.8711 257.28 91.0664 255.796 91.0664ZM258.179 85.3242C259.403 85.3242 260.483 85.0833 261.421 84.6016C262.358 84.1068 263.094 83.4427 263.628 82.6094C264.162 81.776 264.429 80.832 264.429 79.7773V76.5938C264.168 76.763 263.81 76.9193 263.354 77.0625C262.912 77.1927 262.41 77.3164 261.851 77.4336C261.291 77.5378 260.731 77.6354 260.171 77.7266C259.611 77.8047 259.103 77.8763 258.647 77.9414C257.671 78.0846 256.818 78.3125 256.089 78.625C255.36 78.9375 254.793 79.3607 254.39 79.8945C253.986 80.4154 253.784 81.0664 253.784 81.8477C253.784 82.9805 254.194 83.8464 255.015 84.4453C255.848 85.0312 256.903 85.3242 258.179 85.3242ZM279.146 90.5V60.5H287.075V65.793H287.427C288.052 64.0352 289.093 62.6484 290.552 61.6328C292.01 60.6172 293.755 60.1094 295.786 60.1094C297.843 60.1094 299.595 60.6237 301.04 61.6523C302.485 62.668 303.449 64.0482 303.931 65.793H304.243C304.855 64.0742 305.962 62.7005 307.563 61.6719C309.178 60.6302 311.086 60.1094 313.286 60.1094C316.086 60.1094 318.358 61.0013 320.103 62.7852C321.86 64.556 322.739 67.069 322.739 70.3242V90.5H314.438V71.9648C314.438 70.2982 313.996 69.0482 313.11 68.2148C312.225 67.3815 311.118 66.9648 309.79 66.9648C308.28 66.9648 307.101 67.4466 306.255 68.4102C305.409 69.3607 304.985 70.6172 304.985 72.1797V90.5H296.919V71.7891C296.919 70.3177 296.496 69.1458 295.649 68.2734C294.816 67.401 293.716 66.9648 292.349 66.9648C291.424 66.9648 290.591 67.1992 289.849 67.668C289.119 68.1237 288.54 68.7682 288.11 69.6016C287.681 70.4219 287.466 71.3854 287.466 72.4922V90.5H279.146ZM342.983 91.0859C339.897 91.0859 337.241 90.4609 335.015 89.2109C332.801 87.9479 331.095 86.1641 329.897 83.8594C328.7 81.5417 328.101 78.8008 328.101 75.6367C328.101 72.5508 328.7 69.8424 329.897 67.5117C331.095 65.181 332.782 63.3646 334.956 62.0625C337.144 60.7604 339.709 60.1094 342.651 60.1094C344.631 60.1094 346.473 60.4284 348.179 61.0664C349.897 61.6914 351.395 62.6354 352.671 63.8984C353.96 65.1615 354.963 66.75 355.679 68.6641C356.395 70.5651 356.753 72.7917 356.753 75.3437V77.6289H331.421V72.4727H348.921C348.921 71.2747 348.66 70.2135 348.14 69.2891C347.619 68.3646 346.896 67.6419 345.972 67.1211C345.06 66.5872 343.999 66.3203 342.788 66.3203C341.525 66.3203 340.405 66.6133 339.429 67.1992C338.465 67.7721 337.71 68.5469 337.163 69.5234C336.616 70.487 336.336 71.5612 336.323 72.7461V77.6484C336.323 79.1328 336.597 80.4154 337.144 81.4961C337.703 82.5768 338.491 83.4102 339.507 83.9961C340.522 84.582 341.727 84.875 343.12 84.875C344.045 84.875 344.891 84.7448 345.659 84.4844C346.427 84.224 347.085 83.8333 347.632 83.3125C348.179 82.7917 348.595 82.1536 348.882 81.3984L356.577 81.9062C356.187 83.7552 355.386 85.3698 354.175 86.75C352.977 88.1172 351.427 89.1849 349.526 89.9531C347.638 90.7083 345.457 91.0859 342.983 91.0859ZM367.886 90.5L359.722 60.5H368.14L372.788 80.6562H373.062L377.905 60.5H386.167L391.089 80.5391H391.343L395.913 60.5H404.312L396.167 90.5H387.358L382.202 71.6328H381.831L376.675 90.5H367.886ZM421.553 91.0859C418.519 91.0859 415.895 90.4414 413.682 89.1523C411.481 87.8503 409.782 86.0404 408.584 83.7227C407.386 81.3919 406.787 78.6901 406.787 75.6172C406.787 72.5182 407.386 69.8099 408.584 67.4922C409.782 65.1615 411.481 63.3516 413.682 62.0625C415.895 60.7604 418.519 60.1094 421.553 60.1094C424.587 60.1094 427.204 60.7604 429.404 62.0625C431.618 63.3516 433.324 65.1615 434.521 67.4922C435.719 69.8099 436.318 72.5182 436.318 75.6172C436.318 78.6901 435.719 81.3919 434.521 83.7227C433.324 86.0404 431.618 87.8503 429.404 89.1523C427.204 90.4414 424.587 91.0859 421.553 91.0859ZM421.592 84.6406C422.972 84.6406 424.124 84.25 425.049 83.4688C425.973 82.6745 426.67 81.5937 427.139 80.2266C427.62 78.8594 427.861 77.3034 427.861 75.5586C427.861 73.8138 427.62 72.2578 427.139 70.8906C426.67 69.5234 425.973 68.4427 425.049 67.6484C424.124 66.8542 422.972 66.457 421.592 66.457C420.199 66.457 419.027 66.8542 418.076 67.6484C417.139 68.4427 416.429 69.5234 415.947 70.8906C415.479 72.2578 415.244 73.8138 415.244 75.5586C415.244 77.3034 415.479 78.8594 415.947 80.2266C416.429 81.5937 417.139 82.6745 418.076 83.4688C419.027 84.25 420.199 84.6406 421.592 84.6406ZM441.729 90.5V60.5H449.795V65.7344H450.107C450.654 63.8724 451.572 62.4661 452.861 61.5156C454.15 60.5521 455.635 60.0703 457.314 60.0703C457.731 60.0703 458.18 60.0964 458.662 60.1484C459.144 60.2005 459.567 60.2721 459.932 60.3633V67.7461C459.541 67.6289 459.001 67.5247 458.311 67.4336C457.62 67.3424 456.989 67.2969 456.416 67.2969C455.192 67.2969 454.098 67.5638 453.135 68.0977C452.184 68.6185 451.429 69.3477 450.869 70.2852C450.322 71.2227 450.049 72.3034 450.049 73.5273V90.5H441.729ZM471.772 81.8672L471.792 71.8867H473.003L482.612 60.5H492.163L479.253 75.5781H477.28L471.772 81.8672ZM464.233 90.5V50.5H472.554V90.5H464.233ZM482.983 90.5L474.155 77.4336L479.702 71.5547L492.729 90.5H482.983Z" fill="url(#paint0_linear_76_42)"/>
<path d="M533.932 65H530.409C530.201 63.9867 529.836 63.0966 529.315 62.3295C528.804 61.5625 528.179 60.9186 527.44 60.3977C526.711 59.8674 525.902 59.4697 525.011 59.2045C524.121 58.9394 523.193 58.8068 522.227 58.8068C520.466 58.8068 518.87 59.2519 517.44 60.142C516.02 61.0322 514.888 62.3438 514.045 64.0767C513.212 65.8097 512.795 67.9356 512.795 70.4545C512.795 72.9735 513.212 75.0994 514.045 76.8324C514.888 78.5653 516.02 79.8769 517.44 80.767C518.87 81.6572 520.466 82.1023 522.227 82.1023C523.193 82.1023 524.121 81.9697 525.011 81.7045C525.902 81.4394 526.711 81.0464 527.44 80.5256C528.179 79.9953 528.804 79.3466 529.315 78.5795C529.836 77.803 530.201 76.9129 530.409 75.9091H533.932C533.667 77.3958 533.184 78.7263 532.483 79.9006C531.782 81.0748 530.911 82.0739 529.869 82.8977C528.828 83.7121 527.658 84.3324 526.361 84.7585C525.073 85.1847 523.695 85.3977 522.227 85.3977C519.746 85.3977 517.54 84.7917 515.608 83.5795C513.676 82.3674 512.156 80.6439 511.048 78.4091C509.94 76.1742 509.386 73.5227 509.386 70.4545C509.386 67.3864 509.94 64.7348 511.048 62.5C512.156 60.2652 513.676 58.5417 515.608 57.3295C517.54 56.1174 519.746 55.5114 522.227 55.5114C523.695 55.5114 525.073 55.7244 526.361 56.1506C527.658 56.5767 528.828 57.2017 529.869 58.0256C530.911 58.84 531.782 59.8343 532.483 61.0085C533.184 62.1733 533.667 63.5038 533.932 65ZM548.033 85.4545C546.064 85.4545 544.335 84.9858 542.849 84.0483C541.371 83.1108 540.216 81.7992 539.383 80.1136C538.559 78.428 538.147 76.4583 538.147 74.2045C538.147 71.9318 538.559 69.9479 539.383 68.2528C540.216 66.5578 541.371 65.2415 542.849 64.304C544.335 63.3665 546.064 62.8977 548.033 62.8977C550.003 62.8977 551.727 63.3665 553.204 64.304C554.691 65.2415 555.846 66.5578 556.67 68.2528C557.503 69.9479 557.92 71.9318 557.92 74.2045C557.92 76.4583 557.503 78.428 556.67 80.1136C555.846 81.7992 554.691 83.1108 553.204 84.0483C551.727 84.9858 550.003 85.4545 548.033 85.4545ZM548.033 82.4432C549.53 82.4432 550.761 82.0597 551.727 81.2926C552.692 80.5256 553.407 79.517 553.871 78.267C554.335 77.017 554.567 75.6629 554.567 74.2045C554.567 72.7462 554.335 71.3873 553.871 70.1278C553.407 68.8684 552.692 67.8504 551.727 67.0739C550.761 66.2973 549.53 65.9091 548.033 65.9091C546.537 65.9091 545.306 66.2973 544.34 67.0739C543.374 67.8504 542.659 68.8684 542.195 70.1278C541.731 71.3873 541.499 72.7462 541.499 74.2045C541.499 75.6629 541.731 77.017 542.195 78.267C542.659 79.517 543.374 80.5256 544.34 81.2926C545.306 82.0597 546.537 82.4432 548.033 82.4432ZM563.037 85V63.1818H566.276V66.4773H566.503C566.901 65.3977 567.62 64.5218 568.662 63.8494C569.704 63.1771 570.878 62.8409 572.185 62.8409C572.431 62.8409 572.739 62.8456 573.108 62.8551C573.477 62.8646 573.757 62.8788 573.946 62.8977V66.3068C573.832 66.2784 573.572 66.2358 573.165 66.179C572.767 66.1127 572.346 66.0795 571.901 66.0795C570.84 66.0795 569.893 66.3021 569.06 66.7472C568.236 67.1828 567.582 67.7888 567.099 68.5653C566.626 69.3324 566.389 70.2083 566.389 71.1932V85H563.037ZM586.403 85.4545C584.301 85.4545 582.488 84.9905 580.963 84.0625C579.448 83.125 578.278 81.8182 577.455 80.142C576.64 78.4564 576.233 76.4962 576.233 74.2614C576.233 72.0265 576.64 70.0568 577.455 68.3523C578.278 66.6383 579.424 65.303 580.892 64.3466C582.369 63.3807 584.093 62.8977 586.062 62.8977C587.199 62.8977 588.321 63.0871 589.429 63.4659C590.537 63.8447 591.545 64.4602 592.455 65.3125C593.364 66.1553 594.088 67.2727 594.628 68.6648C595.168 70.0568 595.438 71.7708 595.438 73.8068V75.2273H578.619V72.3295H592.028C592.028 71.0985 591.782 70 591.29 69.0341C590.807 68.0682 590.116 67.3059 589.216 66.7472C588.326 66.1884 587.275 65.9091 586.062 65.9091C584.727 65.9091 583.572 66.2405 582.597 66.9034C581.631 67.5568 580.887 68.4091 580.366 69.4602C579.846 70.5114 579.585 71.6383 579.585 72.8409V74.7727C579.585 76.4205 579.869 77.8172 580.438 78.9631C581.015 80.0994 581.815 80.9659 582.838 81.5625C583.861 82.1496 585.049 82.4432 586.403 82.4432C587.284 82.4432 588.08 82.3201 588.79 82.0739C589.509 81.8182 590.13 81.4394 590.651 80.9375C591.171 80.4261 591.574 79.7917 591.858 79.0341L595.097 79.9432C594.756 81.0417 594.183 82.0076 593.378 82.8409C592.573 83.6648 591.579 84.3087 590.395 84.7727C589.211 85.2273 587.881 85.4545 586.403 85.4545Z" fill="white"/>
<defs>
<linearGradient id="paint0_linear_76_42" x1="493" y1="103.5" x2="358.662" y2="-145.911" gradientUnits="userSpaceOnUse">
<stop stop-color="#E666CC"/>
<stop offset="1" stop-color="#9780E5"/>
</linearGradient>
</defs>
</svg>
