<svg width="140" height="140" viewBox="0 0 140 140" fill="none" xmlns="http://www.w3.org/2000/svg">
<rect width="140" height="140" rx="20" fill="#20716C"/>
<path d="M92.8742 55H66.8919C67.0163 55.625 67.2649 56.25 67.3892 56.75C68.2594 59.75 68.7567 62.875 69.0053 66.125C69.1297 67.375 69.1297 68.75 69.1297 70C69.1297 71.25 69.1297 72.625 69.0053 73.875C68.7567 77.125 68.2594 80.25 67.3892 83.25C67.2649 83.875 67.0163 84.5 66.8919 85H92.8742C101.079 85 107.668 78.25 107.668 70C107.668 61.75 101.079 55 92.8742 55Z" fill="#00A9E5"/>
<path d="M69.0053 73.875C69.1297 72.625 69.1297 71.25 69.1297 70C69.1297 68.75 69.1297 67.375 69.0053 66.125C68.7567 62.875 68.2594 59.75 67.3892 56.75C67.2649 56.125 67.0163 55.5 66.8919 55H26.7377C25.2459 59.75 24.5 64.75 24.5 70C24.5 75.25 25.2459 80.25 26.7377 85H66.8919C67.0163 84.375 67.2649 83.75 67.3892 83.25C68.2594 80.25 68.7567 77.125 69.0053 73.875Z" fill="#353535"/>
<path d="M97.3497 90H65.0273C64.0327 92.25 62.9139 94.375 61.6707 96.375C59.8059 99.5 57.5682 102.25 55.0819 104.875C54.2117 105.75 53.3415 106.5 52.4712 107.375C50.7308 109 48.7417 110.375 46.7526 111.75C54.5846 117 64.0327 120 74.1024 120C91.3825 120 106.549 111.125 115.5 97.75C110.9 93 104.436 90 97.3497 90Z" fill="#00BFB3"/>
<path d="M61.6707 96.375C62.9139 94.375 64.0327 92.25 65.0273 90H28.6025C32.4564 98.875 38.7965 106.5 46.8771 111.75C48.8662 110.375 50.731 109 52.5957 107.375C53.4659 106.625 54.3362 105.75 55.2064 104.875C57.5684 102.375 59.8059 99.5 61.6707 96.375Z" fill="#019B8F"/>
<path d="M55.0819 35.1245C54.2117 34.2495 53.3415 33.4995 52.4713 32.6245C50.7309 30.9995 48.7418 29.6245 46.7527 28.2495C38.7964 33.4995 32.4562 41.1245 28.4781 49.9995H64.903C63.9085 47.7495 62.7896 45.6245 61.5464 43.6245C59.806 40.4995 57.5683 37.6245 55.0819 35.1245Z" fill="#F9B110"/>
<path d="M74.1024 20C64.0327 20 54.5847 22.9995 46.7527 28.2495C48.7418 29.6245 50.6065 30.9995 52.4713 32.6245C53.3415 33.3745 54.2117 34.2495 55.0819 35.1245C57.5683 37.7495 59.8059 40.5 61.6707 43.625C62.9139 45.625 64.0327 47.75 65.0273 50H97.3497C104.436 50 110.9 47 115.5 42.25C106.549 28.875 91.3825 20 74.1024 20Z" fill="#FED10A"/>
</svg>
