<svg width="459" height="140" viewBox="0 0 459 140" fill="none" xmlns="http://www.w3.org/2000/svg">
<rect width="459" height="140" rx="20" fill="#20716C"/>
<path d="M88.3742 55H62.3919C62.5163 55.625 62.7649 56.25 62.8892 56.75C63.7594 59.75 64.2567 62.875 64.5053 66.125C64.6297 67.375 64.6297 68.75 64.6297 70C64.6297 71.25 64.6297 72.625 64.5053 73.875C64.2567 77.125 63.7594 80.25 62.8892 83.25C62.7649 83.875 62.5163 84.5 62.3919 85H88.3742C96.5792 85 103.168 78.25 103.168 70C103.168 61.75 96.5792 55 88.3742 55Z" fill="#00A9E5"/>
<path d="M64.5053 73.875C64.6297 72.625 64.6297 71.25 64.6297 70C64.6297 68.75 64.6297 67.375 64.5053 66.125C64.2567 62.875 63.7594 59.75 62.8892 56.75C62.7649 56.125 62.5163 55.5 62.3919 55H22.2377C20.7459 59.75 20 64.75 20 70C20 75.25 20.7459 80.25 22.2377 85H62.3919C62.5163 84.375 62.7649 83.75 62.8892 83.25C63.7594 80.25 64.2567 77.125 64.5053 73.875Z" fill="#353535"/>
<path d="M92.8497 90H60.5273C59.5327 92.25 58.4139 94.375 57.1707 96.375C55.3059 99.5 53.0682 102.25 50.5819 104.875C49.7117 105.75 48.8415 106.5 47.9712 107.375C46.2308 109 44.2417 110.375 42.2526 111.75C50.0846 117 59.5327 120 69.6024 120C86.8825 120 102.049 111.125 111 97.75C106.4 93 99.9358 90 92.8497 90Z" fill="#00BFB3"/>
<path d="M57.1707 96.375C58.4139 94.375 59.5327 92.25 60.5273 90H24.1025C27.9564 98.875 34.2965 106.5 42.3771 111.75C44.3662 110.375 46.231 109 48.0957 107.375C48.9659 106.625 49.8362 105.75 50.7064 104.875C53.0684 102.375 55.3059 99.5 57.1707 96.375Z" fill="#019B8F"/>
<path d="M50.5819 35.1245C49.7117 34.2495 48.8415 33.4995 47.9713 32.6245C46.2309 30.9995 44.2418 29.6245 42.2527 28.2495C34.2964 33.4995 27.9562 41.1245 23.9781 49.9995H60.403C59.4085 47.7495 58.2896 45.6245 57.0464 43.6245C55.306 40.4995 53.0683 37.6245 50.5819 35.1245Z" fill="#F9B110"/>
<path d="M69.6024 20C59.5327 20 50.0847 22.9995 42.2527 28.2495C44.2418 29.6245 46.1065 30.9995 47.9713 32.6245C48.8415 33.3745 49.7117 34.2495 50.5819 35.1245C53.0683 37.7495 55.3059 40.5 57.1707 43.625C58.4139 45.625 59.5327 47.75 60.5273 50H92.8497C99.9358 50 106.4 47 111 42.25C102.049 28.875 86.8825 20 69.6024 20Z" fill="#FED10A"/>
<path d="M143.844 86V53.2727H165.897V58.9776H150.764V66.7759H164.762V72.4808H150.764V80.2951H165.961V86H143.844ZM178.078 53.2727V86H171.27V53.2727H178.078ZM190.53 86.4634C188.964 86.4634 187.569 86.1918 186.344 85.6484C185.118 85.0945 184.149 84.2795 183.435 83.2035C182.732 82.1168 182.381 80.7638 182.381 79.1445C182.381 77.7809 182.631 76.6357 183.132 75.7088C183.632 74.782 184.314 74.0362 185.177 73.4716C186.04 72.907 187.02 72.4808 188.117 72.1932C189.225 71.9055 190.387 71.7031 191.601 71.5859C193.029 71.4368 194.179 71.2983 195.053 71.1705C195.926 71.032 196.56 70.8295 196.954 70.5632C197.349 70.2969 197.546 69.9027 197.546 69.3807V69.2848C197.546 68.2727 197.226 67.4897 196.587 66.9357C195.958 66.3817 195.063 66.1048 193.902 66.1048C192.677 66.1048 191.702 66.3764 190.978 66.9197C190.253 67.4524 189.774 68.1236 189.54 68.9332L183.243 68.4219C183.563 66.9304 184.192 65.6413 185.129 64.5547C186.067 63.4574 187.276 62.6158 188.757 62.0298C190.248 61.4332 191.974 61.1349 193.934 61.1349C195.298 61.1349 196.603 61.2947 197.849 61.6143C199.106 61.9339 200.22 62.4293 201.189 63.1005C202.169 63.7717 202.942 64.6346 203.506 65.6893C204.071 66.7333 204.353 67.9851 204.353 69.4446V86H197.897V82.5962H197.705C197.311 83.3633 196.784 84.0398 196.123 84.6257C195.463 85.201 194.669 85.6538 193.742 85.984C192.816 86.3036 191.745 86.4634 190.53 86.4634ZM192.48 81.7653C193.481 81.7653 194.366 81.5682 195.133 81.174C195.9 80.7692 196.502 80.2259 196.938 79.544C197.375 78.8622 197.594 78.0898 197.594 77.2269V74.6222C197.381 74.7607 197.088 74.8885 196.715 75.0057C196.352 75.1122 195.942 75.2134 195.484 75.3093C195.026 75.3945 194.568 75.4744 194.11 75.549C193.652 75.6129 193.236 75.6715 192.863 75.7248C192.064 75.842 191.367 76.0284 190.77 76.2841C190.173 76.5398 189.71 76.886 189.38 77.3228C189.05 77.7489 188.884 78.2816 188.884 78.9208C188.884 79.8477 189.22 80.5561 189.891 81.0462C190.573 81.5256 191.436 81.7653 192.48 81.7653ZM230.057 68.4538L223.825 68.8374C223.718 68.3047 223.489 67.8253 223.138 67.3991C222.786 66.9624 222.323 66.6161 221.748 66.3604C221.183 66.0941 220.506 65.9609 219.718 65.9609C218.663 65.9609 217.774 66.1847 217.049 66.6321C216.325 67.0689 215.963 67.6548 215.963 68.3899C215.963 68.9759 216.197 69.4712 216.666 69.8761C217.135 70.2809 217.939 70.6058 219.079 70.8509L223.521 71.7457C225.908 72.2358 227.687 73.0241 228.859 74.1108C230.031 75.1974 230.616 76.625 230.616 78.3935C230.616 80.0021 230.142 81.4137 229.194 82.6282C228.257 83.8427 226.968 84.7908 225.327 85.4727C223.697 86.1438 221.817 86.4794 219.686 86.4794C216.437 86.4794 213.848 85.8029 211.92 84.4499C210.002 83.0863 208.878 81.2326 208.548 78.8888L215.244 78.5373C215.446 79.5281 215.936 80.2844 216.714 80.8065C217.491 81.3178 218.488 81.5735 219.702 81.5735C220.895 81.5735 221.854 81.3445 222.578 80.8864C223.314 80.4176 223.686 79.8157 223.697 79.0806C223.686 78.4627 223.425 77.9567 222.914 77.5625C222.403 77.1577 221.614 76.8487 220.549 76.6357L216.298 75.7887C213.901 75.3093 212.117 74.4783 210.945 73.2958C209.784 72.1133 209.203 70.6058 209.203 68.7734C209.203 67.1967 209.629 65.8384 210.482 64.6985C211.344 63.5586 212.554 62.6797 214.109 62.0618C215.675 61.4439 217.507 61.1349 219.606 61.1349C222.706 61.1349 225.146 61.7901 226.925 63.1005C228.715 64.4109 229.759 66.1953 230.057 68.4538ZM247.959 61.4545V66.5682H233.177V61.4545H247.959ZM236.533 55.5739H243.341V78.4574C243.341 79.0859 243.437 79.576 243.628 79.9276C243.82 80.2685 244.086 80.5082 244.427 80.6467C244.779 80.7852 245.184 80.8544 245.642 80.8544C245.961 80.8544 246.281 80.8278 246.601 80.7745C246.92 80.7106 247.165 80.6626 247.336 80.6307L248.406 85.6964C248.065 85.8029 247.586 85.9254 246.968 86.0639C246.35 86.2131 245.599 86.3036 244.715 86.3356C243.074 86.3995 241.636 86.1811 240.4 85.6804C239.175 85.1797 238.222 84.402 237.54 83.3473C236.858 82.2926 236.522 80.9609 236.533 79.3523V55.5739ZM252.393 86V61.4545H259.201V86H252.393ZM255.813 58.2905C254.801 58.2905 253.933 57.9549 253.208 57.2837C252.495 56.6019 252.138 55.7869 252.138 54.8388C252.138 53.9013 252.495 53.0969 253.208 52.4258C253.933 51.744 254.801 51.4031 255.813 51.4031C256.825 51.4031 257.688 51.744 258.402 52.4258C259.126 53.0969 259.489 53.9013 259.489 54.8388C259.489 55.7869 259.126 56.6019 258.402 57.2837C257.688 57.9549 256.825 58.2905 255.813 58.2905ZM275.744 86.4794C273.23 86.4794 271.067 85.9467 269.256 84.8814C267.456 83.8054 266.071 82.3139 265.102 80.407C264.143 78.5 263.663 76.3054 263.663 73.8232C263.663 71.3089 264.148 69.1037 265.118 67.2074C266.098 65.3004 267.488 63.8143 269.288 62.7489C271.089 61.6729 273.23 61.1349 275.712 61.1349C277.854 61.1349 279.729 61.5238 281.337 62.3015C282.946 63.0792 284.219 64.1712 285.157 65.5774C286.094 66.9837 286.611 68.6349 286.707 70.5312H280.283C280.102 69.3061 279.622 68.3207 278.844 67.5749C278.077 66.8185 277.071 66.4403 275.824 66.4403C274.77 66.4403 273.848 66.728 273.06 67.3033C272.282 67.8679 271.675 68.6935 271.238 69.7802C270.801 70.8668 270.583 72.1825 270.583 73.7273C270.583 75.2933 270.796 76.625 271.222 77.7223C271.659 78.8196 272.271 79.6559 273.06 80.2312C273.848 80.8065 274.77 81.0941 275.824 81.0941C276.602 81.0941 277.3 80.9343 277.918 80.6147C278.546 80.2951 279.063 79.8317 279.468 79.2244C279.883 78.6065 280.155 77.8661 280.283 77.0032H286.707C286.6 78.8782 286.089 80.5295 285.173 81.957C284.267 83.3739 283.015 84.4819 281.417 85.2809C279.819 86.0799 277.928 86.4794 275.744 86.4794ZM311.488 68.4538L305.256 68.8374C305.149 68.3047 304.92 67.8253 304.568 67.3991C304.217 66.9624 303.753 66.6161 303.178 66.3604C302.614 66.0941 301.937 65.9609 301.149 65.9609C300.094 65.9609 299.204 66.1847 298.48 66.6321C297.756 67.0689 297.393 67.6548 297.393 68.3899C297.393 68.9759 297.628 69.4712 298.097 69.8761C298.565 70.2809 299.37 70.6058 300.51 70.8509L304.952 71.7457C307.338 72.2358 309.117 73.0241 310.289 74.1108C311.461 75.1974 312.047 76.625 312.047 78.3935C312.047 80.0021 311.573 81.4137 310.625 82.6282C309.687 83.8427 308.398 84.7908 306.758 85.4727C305.128 86.1438 303.247 86.4794 301.117 86.4794C297.867 86.4794 295.279 85.8029 293.35 84.4499C291.433 83.0863 290.309 81.2326 289.979 78.8888L296.674 78.5373C296.877 79.5281 297.367 80.2844 298.144 80.8065C298.922 81.3178 299.918 81.5735 301.133 81.5735C302.326 81.5735 303.285 81.3445 304.009 80.8864C304.744 80.4176 305.117 79.8157 305.128 79.0806C305.117 78.4627 304.856 77.9567 304.345 77.5625C303.833 77.1577 303.045 76.8487 301.98 76.6357L297.729 75.7887C295.332 75.3093 293.547 74.4783 292.376 73.2958C291.214 72.1133 290.634 70.6058 290.634 68.7734C290.634 67.1967 291.06 65.8384 291.912 64.6985C292.775 63.5586 293.984 62.6797 295.54 62.0618C297.106 61.4439 298.938 61.1349 301.037 61.1349C304.137 61.1349 306.577 61.7901 308.356 63.1005C310.146 64.4109 311.19 66.1953 311.488 68.4538ZM327.52 86.4794C324.995 86.4794 322.822 85.968 321 84.9453C319.189 83.9119 317.793 82.4524 316.813 80.5668C315.833 78.6705 315.343 76.4279 315.343 73.8391C315.343 71.3143 315.833 69.0984 316.813 67.1914C317.793 65.2844 319.173 63.7983 320.952 62.733C322.742 61.6676 324.841 61.1349 327.248 61.1349C328.868 61.1349 330.375 61.396 331.771 61.918C333.177 62.4293 334.402 63.2017 335.446 64.2351C336.501 65.2685 337.321 66.5682 337.907 68.1342C338.493 69.6896 338.786 71.5114 338.786 73.5994V75.4691H318.06V71.2504H332.378C332.378 70.2702 332.165 69.402 331.739 68.6456C331.313 67.8892 330.721 67.2979 329.965 66.8718C329.219 66.435 328.351 66.2166 327.36 66.2166C326.327 66.2166 325.411 66.4563 324.612 66.9357C323.823 67.4045 323.205 68.0384 322.758 68.8374C322.31 69.6257 322.081 70.5046 322.071 71.4741V75.4851C322.071 76.6996 322.294 77.7489 322.742 78.6332C323.2 79.5174 323.844 80.1992 324.675 80.6786C325.506 81.158 326.492 81.3977 327.632 81.3977C328.388 81.3977 329.081 81.2912 329.709 81.0781C330.338 80.8651 330.876 80.5455 331.323 80.1193C331.771 79.6932 332.112 79.1712 332.346 78.5533L338.642 78.9688C338.322 80.4815 337.667 81.8026 336.676 82.9318C335.696 84.0504 334.429 84.924 332.873 85.5526C331.328 86.1705 329.544 86.4794 327.52 86.4794ZM350.228 86.4634C348.662 86.4634 347.266 86.1918 346.041 85.6484C344.816 85.0945 343.846 84.2795 343.132 83.2035C342.429 82.1168 342.078 80.7638 342.078 79.1445C342.078 77.7809 342.328 76.6357 342.829 75.7088C343.33 74.782 344.011 74.0362 344.874 73.4716C345.737 72.907 346.717 72.4808 347.815 72.1932C348.923 71.9055 350.084 71.7031 351.298 71.5859C352.726 71.4368 353.876 71.2983 354.75 71.1705C355.624 71.032 356.257 70.8295 356.652 70.5632C357.046 70.2969 357.243 69.9027 357.243 69.3807V69.2848C357.243 68.2727 356.923 67.4897 356.284 66.9357C355.656 66.3817 354.761 66.1048 353.599 66.1048C352.374 66.1048 351.4 66.3764 350.675 66.9197C349.951 67.4524 349.471 68.1236 349.237 68.9332L342.941 68.4219C343.26 66.9304 343.889 65.6413 344.826 64.5547C345.764 63.4574 346.973 62.6158 348.454 62.0298C349.945 61.4332 351.671 61.1349 353.631 61.1349C354.995 61.1349 356.3 61.2947 357.547 61.6143C358.804 61.9339 359.917 62.4293 360.886 63.1005C361.866 63.7717 362.639 64.6346 363.203 65.6893C363.768 66.7333 364.05 67.9851 364.05 69.4446V86H357.594V82.5962H357.403C357.009 83.3633 356.481 84.0398 355.821 84.6257C355.16 85.201 354.366 85.6538 353.44 85.984C352.513 86.3036 351.442 86.4634 350.228 86.4634ZM352.177 81.7653C353.179 81.7653 354.063 81.5682 354.83 81.174C355.597 80.7692 356.199 80.2259 356.636 79.544C357.072 78.8622 357.291 78.0898 357.291 77.2269V74.6222C357.078 74.7607 356.785 74.8885 356.412 75.0057C356.05 75.1122 355.64 75.2134 355.181 75.3093C354.723 75.3945 354.265 75.4744 353.807 75.549C353.349 75.6129 352.934 75.6715 352.561 75.7248C351.762 75.842 351.064 76.0284 350.467 76.2841C349.871 76.5398 349.407 76.886 349.077 77.3228C348.747 77.7489 348.582 78.2816 348.582 78.9208C348.582 79.8477 348.917 80.5561 349.588 81.0462C350.27 81.5256 351.133 81.7653 352.177 81.7653ZM369.332 86V61.4545H375.932V65.7372H376.187C376.635 64.2138 377.386 63.0632 378.441 62.2855C379.495 61.4972 380.71 61.103 382.084 61.103C382.425 61.103 382.792 61.1243 383.187 61.1669C383.581 61.2095 383.927 61.2681 384.225 61.3427V67.3832C383.906 67.2873 383.464 67.2021 382.899 67.1275C382.334 67.0529 381.818 67.0156 381.349 67.0156C380.347 67.0156 379.453 67.234 378.664 67.6708C377.887 68.0969 377.269 68.6935 376.811 69.4606C376.363 70.2276 376.139 71.1119 376.139 72.1133V86H369.332ZM397.693 86.4794C395.178 86.4794 393.016 85.9467 391.205 84.8814C389.404 83.8054 388.019 82.3139 387.05 80.407C386.091 78.5 385.612 76.3054 385.612 73.8232C385.612 71.3089 386.096 69.1037 387.066 67.2074C388.046 65.3004 389.436 63.8143 391.237 62.7489C393.037 61.6729 395.178 61.1349 397.661 61.1349C399.802 61.1349 401.677 61.5238 403.286 62.3015C404.894 63.0792 406.167 64.1712 407.105 65.5774C408.042 66.9837 408.559 68.6349 408.655 70.5312H402.231C402.05 69.3061 401.57 68.3207 400.793 67.5749C400.026 66.8185 399.019 66.4403 397.772 66.4403C396.718 66.4403 395.796 66.728 395.008 67.3033C394.23 67.8679 393.623 68.6935 393.186 69.7802C392.749 70.8668 392.531 72.1825 392.531 73.7273C392.531 75.2933 392.744 76.625 393.17 77.7223C393.607 78.8196 394.22 79.6559 395.008 80.2312C395.796 80.8065 396.718 81.0941 397.772 81.0941C398.55 81.0941 399.248 80.9343 399.866 80.6147C400.494 80.2951 401.011 79.8317 401.416 79.2244C401.831 78.6065 402.103 77.8661 402.231 77.0032H408.655C408.548 78.8782 408.037 80.5295 407.121 81.957C406.215 83.3739 404.964 84.4819 403.366 85.2809C401.767 86.0799 399.877 86.4794 397.693 86.4794ZM419.821 71.8097V86H413.013V53.2727H419.629V65.7852H419.917C420.471 64.3363 421.366 63.2017 422.602 62.3814C423.837 61.5504 425.387 61.1349 427.252 61.1349C428.956 61.1349 430.442 61.5078 431.71 62.2536C432.989 62.9886 433.979 64.0486 434.683 65.4336C435.396 66.8079 435.748 68.4538 435.737 70.3714V86H428.93V71.5859C428.94 70.0732 428.557 68.896 427.779 68.0543C427.012 67.2127 425.936 66.7919 424.551 66.7919C423.624 66.7919 422.804 66.989 422.09 67.3832C421.387 67.7773 420.833 68.3526 420.428 69.109C420.034 69.8548 419.832 70.755 419.821 71.8097Z" fill="white"/>
</svg>
