<svg width="347" height="140" viewBox="0 0 347 140" fill="none" xmlns="http://www.w3.org/2000/svg">
<rect width="346.251" height="140" rx="20" fill="#2C4549"/>
<path d="M52.5472 41.4935C39.479 39.1134 29.1463 41.6051 25.0283 48.737C21.9554 54.059 22.8326 61.1162 27.1573 68.6596C27.2448 68.8125 27.3616 68.9465 27.5009 69.0542C27.6402 69.1618 27.7994 69.241 27.9694 69.2871C28.1393 69.3332 28.3167 69.3453 28.4913 69.3229C28.666 69.3004 28.8344 69.2437 28.9872 69.156C29.2956 68.9791 29.5211 68.6869 29.6142 68.3437C29.7073 68.0006 29.6603 67.6345 29.4836 67.3259C25.5875 60.5316 24.8282 54.4411 27.3496 50.077C30.77 44.1523 39.9854 41.9298 52.066 44.1305C52.2844 44.1736 52.5101 44.1617 52.7227 44.0959C52.9354 44.03 53.1283 43.9122 53.284 43.7532C53.4397 43.5941 53.5534 43.3988 53.6148 43.1848C53.6762 42.9709 53.6833 42.745 53.6356 42.5276C53.5779 42.2661 53.4433 42.028 53.2491 41.8438C53.0549 41.6595 52.81 41.5376 52.5459 41.4938L52.5472 41.4935ZM33.953 77.8278C39.2366 83.6349 46.1016 89.0813 53.9308 93.602C72.8867 104.546 93.0672 107.472 103.013 100.69C103.299 100.487 103.494 100.179 103.556 99.8338C103.619 99.4882 103.543 99.132 103.345 98.8418C103.147 98.5516 102.843 98.3507 102.499 98.2821C102.155 98.2136 101.797 98.283 101.503 98.4753C92.6016 104.545 73.4317 101.766 55.2711 91.2807C47.6751 86.8948 41.0281 81.6214 35.9357 76.0247C35.7586 75.8238 35.5255 75.6805 35.2662 75.6133C35.007 75.546 34.7336 75.5579 34.4812 75.6473C34.2714 75.7219 34.0834 75.8475 33.9343 76.0129C33.7853 76.1783 33.6798 76.3783 33.6273 76.5947C33.5749 76.8111 33.5772 77.0372 33.6341 77.2525C33.691 77.4677 33.8006 77.6655 33.953 77.8278Z" fill="#2DD0ED"/>
<path d="M99.8411 76.1977C108.398 66.0896 111.386 55.9223 107.277 48.8047C104.253 43.5675 97.8597 40.8024 89.3647 40.6921C89.0094 40.6876 88.6667 40.8242 88.4121 41.0721C88.1574 41.3201 88.0116 41.6589 88.0066 42.0143C88.0027 42.2794 88.0777 42.5397 88.222 42.7621C88.3664 42.9845 88.5736 43.159 88.8174 43.2634C88.9791 43.333 89.153 43.37 89.329 43.3724C96.9696 43.4712 102.478 45.8539 104.956 50.1449C108.368 56.0571 105.704 65.1238 97.7956 74.4666C97.6779 74.6003 97.588 74.7561 97.5312 74.925C97.4744 75.0939 97.4519 75.2724 97.465 75.4501C97.4781 75.6277 97.5265 75.801 97.6074 75.9597C97.6883 76.1185 97.8001 76.2595 97.9361 76.3745C98.0722 76.4893 98.2298 76.5759 98.3997 76.6292C98.5696 76.6825 98.7484 76.7015 98.9256 76.6851C99.1029 76.6686 99.2752 76.6171 99.4324 76.5334C99.5895 76.4497 99.7285 76.3356 99.8411 76.1977ZM77.8509 41.9399C70.1139 43.598 61.8795 46.8388 53.9718 51.4043C34.4019 62.7028 21.6363 79.3615 23.4099 91.4421C23.432 91.6192 23.4892 91.7901 23.5782 91.9448C23.6672 92.0995 23.7862 92.2348 23.9282 92.3429C24.0702 92.4509 24.2324 92.5295 24.4052 92.5741C24.578 92.6186 24.758 92.6282 24.9346 92.6022C25.1111 92.5763 25.2807 92.5153 25.4334 92.4229C25.5861 92.3305 25.7188 92.2085 25.8237 92.0642C25.9286 91.9198 26.0036 91.7559 26.0443 91.5822C26.085 91.4084 26.0906 91.2283 26.0608 91.0523C24.4873 80.3273 36.5871 64.5352 55.3107 53.7256C62.9823 49.2961 70.9565 46.1591 78.4127 44.5598C78.7496 44.4751 79.0406 44.263 79.2241 43.968C79.4077 43.673 79.4696 43.3183 79.3967 42.9786C79.3239 42.6389 79.122 42.3408 78.8336 42.147C78.5453 41.9533 78.1929 41.879 77.8509 41.9399Z" fill="#2DD0ED"/>
<path d="M46.1476 99.8167C50.6233 112.308 57.9411 120 66.1719 120C72.1736 120 77.7267 115.909 82.0574 108.705C82.1545 108.555 82.2203 108.386 82.251 108.209C82.2817 108.032 82.2766 107.851 82.236 107.676C82.1853 107.457 82.0802 107.254 81.9306 107.087C81.7809 106.919 81.5914 106.792 81.3796 106.716C81.1678 106.641 80.9405 106.62 80.7185 106.656C80.4966 106.692 80.2872 106.783 80.1096 106.921C79.9678 107.031 79.8496 107.168 79.7619 107.324C75.8695 113.798 71.0886 117.321 66.1719 117.321C59.3363 117.321 52.8075 110.46 48.6716 98.9127C48.6148 98.7436 48.525 98.5874 48.4072 98.4534C48.2895 98.3194 48.1462 98.2102 47.9858 98.1321C47.8253 98.0543 47.651 98.0092 47.4729 97.9995C47.2948 97.9901 47.1166 98.0163 46.9488 98.0766C46.7809 98.1368 46.6268 98.23 46.4953 98.3505C46.3639 98.471 46.2578 98.6166 46.1833 98.7786C46.1087 98.9406 46.0672 99.1158 46.0612 99.2941C46.0554 99.4724 46.0852 99.6501 46.1489 99.8167H46.1476ZM87.014 97.3723C89.33 89.9728 90.5729 81.4342 90.5729 72.5366C90.5729 50.3373 82.8038 31.1994 71.7363 26.285C71.4128 26.149 71.0489 26.1452 70.7227 26.2745C70.3965 26.4038 70.134 26.6558 69.9916 26.9765C69.8492 27.2973 69.8382 27.661 69.9611 27.9897C70.084 28.3184 70.3308 28.5858 70.6487 28.7345C80.5196 33.118 87.8939 51.2799 87.8939 72.5366C87.8939 81.1673 86.6884 89.4367 84.4569 96.5723C84.3992 96.7415 84.3759 96.9205 84.3886 97.0988C84.4012 97.2772 84.4494 97.4511 84.5305 97.6105C84.6524 97.8506 84.8438 98.0484 85.0798 98.1781C85.3158 98.3078 85.5854 98.3635 85.8534 98.3378C86.1215 98.312 86.3756 98.2062 86.5826 98.034C86.7896 97.8618 86.94 97.6312 87.014 97.3723ZM112.251 96.0604C112.257 95.2147 112.095 94.3763 111.775 93.5935C111.455 92.8106 110.983 92.0987 110.387 91.4989C109.791 90.899 109.082 90.4229 108.302 90.098C107.521 89.7731 106.684 89.6059 105.838 89.6059C104.992 89.6059 104.155 89.7732 103.374 90.0981C102.593 90.423 101.884 90.8991 101.288 91.499C100.692 92.099 100.221 92.8108 99.9008 93.5937C99.581 94.3766 99.4191 95.215 99.4245 96.0606C99.4354 97.7545 100.116 99.3752 101.317 100.569C102.519 101.763 104.144 102.433 105.838 102.433C107.532 102.433 109.157 101.763 110.358 100.569C111.56 99.375 112.24 97.7542 112.251 96.0604ZM109.571 96.0604C109.571 97.0504 109.177 97.9999 108.477 98.6999C107.777 99.4 106.828 99.7934 105.838 99.7936C105.1 99.7936 104.378 99.5746 103.764 99.1644C103.15 98.7542 102.672 98.1712 102.389 97.4891C102.107 96.8069 102.033 96.0564 102.177 95.3323C102.321 94.6082 102.676 93.9431 103.198 93.421C103.721 92.899 104.386 92.5434 105.11 92.3994C105.834 92.2554 106.584 92.3293 107.267 92.6118C107.949 92.8943 108.532 93.3727 108.942 93.9865C109.352 94.6004 109.571 95.3221 109.571 96.0604ZM26.4135 102.474C27.2558 102.474 28.0898 102.308 28.868 101.986C29.6462 101.664 30.3532 101.191 30.9488 100.596C31.5444 100 32.0168 99.293 32.3391 98.5148C32.6613 97.7367 32.8271 96.9026 32.827 96.0604C32.8271 95.2181 32.6613 94.3841 32.339 93.6059C32.0167 92.8277 31.5442 92.1206 30.9486 91.5251C30.353 90.9295 29.646 90.4571 28.8678 90.1348C28.0896 89.8126 27.2555 89.6467 26.4133 89.6468C25.571 89.6468 24.737 89.8127 23.9589 90.135C23.1808 90.4573 22.4738 90.9297 21.8782 91.5253C21.2827 92.1208 20.8103 92.8279 20.488 93.606C20.1658 94.3841 19.9999 95.2181 20 96.0604C19.9999 96.9026 20.1658 97.7366 20.4881 98.5148C20.8103 99.293 21.2828 100 21.8783 100.596C22.4739 101.191 23.1809 101.664 23.9591 101.986C24.7373 102.308 25.5713 102.474 26.4135 102.474ZM26.4135 99.7936C25.4232 99.7936 24.4734 99.4002 23.7732 98.6999C23.0729 97.9997 22.6795 97.0499 22.6795 96.0596C22.6795 95.0693 23.0729 94.1195 23.7732 93.4192C24.4734 92.719 25.4232 92.3256 26.4135 92.3256C27.4038 92.3256 28.3536 92.719 29.0539 93.4192C29.7541 94.1195 30.1475 95.0693 30.1475 96.0596C30.1475 97.0499 29.7541 97.9997 29.0539 98.6999C28.3536 99.4002 27.4038 99.7936 26.4135 99.7936Z" fill="#2DD0ED"/>
<path d="M66.1719 32.827C67.4405 32.8271 68.6805 32.451 69.7352 31.7462C70.7899 31.0414 71.6119 30.0397 72.0972 28.8677C72.5006 27.8932 72.6575 26.8344 72.554 25.7849C72.4505 24.7354 72.0898 23.7275 71.5039 22.8507C70.918 21.9738 70.1249 21.2549 69.1949 20.7577C68.2648 20.2605 67.2265 20.0002 66.1719 20C64.9034 19.9998 63.6633 20.3758 62.6085 21.0805C61.5536 21.7851 60.7315 22.7868 60.246 23.9588C59.7606 25.1308 59.6336 26.4204 59.8812 27.6645C60.1287 28.9087 60.7397 30.0515 61.6368 30.9483C62.2324 31.5439 62.9394 32.0163 63.7176 32.3386C64.4957 32.6609 65.3297 32.8271 66.1719 32.827ZM66.1719 30.1465C65.4336 30.1464 64.7119 29.9274 64.098 29.5172C63.4841 29.1071 63.0055 28.5241 62.7229 27.842C62.5351 27.3891 62.4384 26.9037 62.4384 26.4134C62.4384 25.9231 62.5351 25.4376 62.7229 24.9847C62.9104 24.5318 63.1853 24.1202 63.532 23.7736C63.8786 23.4269 64.2902 23.152 64.7431 22.9645C65.2532 22.7532 65.8038 22.6577 66.3552 22.6848C66.9066 22.7119 67.4452 22.8609 67.932 23.1212C68.4189 23.3815 68.842 23.7464 69.1709 24.1899C69.4998 24.6333 69.7262 25.1442 69.8339 25.6857C69.9416 26.2271 69.9279 26.7857 69.7938 27.3213C69.6596 27.8568 69.4084 28.3559 69.0581 28.7827C68.7079 29.2095 68.2674 29.5533 67.7683 29.7893C67.2692 30.0253 66.724 30.1478 66.1719 30.1478V30.1465ZM67.1516 77.0736C65.9484 77.3333 64.6914 77.1046 63.6568 76.4378C62.8852 75.9404 62.2784 75.2254 61.9131 74.3832C61.5479 73.5409 61.4407 72.6093 61.605 71.7061C61.7693 70.8029 62.1978 69.9687 62.8363 69.3091C63.4748 68.6494 64.2946 68.194 65.192 68.0003C66.3869 67.7616 67.6278 68.0022 68.6468 68.6704C69.6658 69.3385 70.3813 70.3805 70.6387 71.5715C70.8958 72.7626 70.6742 74.007 70.0218 75.0361C69.3694 76.0653 68.3385 76.7966 67.1516 77.0723V77.0736Z" fill="#2DD0ED"/>
<path d="M145.096 86V53.2727H167.148V58.9776H152.015V66.7759H166.014V72.4808H152.015V80.2951H167.212V86H145.096ZM179.329 53.2727V86H172.522V53.2727H179.329ZM195.969 86.4794C193.444 86.4794 191.27 85.968 189.449 84.9453C187.638 83.9119 186.242 82.4524 185.262 80.5668C184.282 78.6705 183.792 76.4279 183.792 73.8391C183.792 71.3143 184.282 69.0984 185.262 67.1914C186.242 65.2844 187.622 63.7983 189.401 62.733C191.191 61.6676 193.289 61.1349 195.697 61.1349C197.316 61.1349 198.824 61.396 200.219 61.918C201.626 62.4293 202.851 63.2017 203.895 64.2351C204.949 65.2685 205.77 66.5682 206.356 68.1342C206.942 69.6896 207.235 71.5114 207.235 73.5994V75.4691H186.508V71.2504H200.827C200.827 70.2702 200.614 69.402 200.187 68.6456C199.761 67.8892 199.17 67.2979 198.414 66.8718C197.668 66.435 196.8 66.2166 195.809 66.2166C194.775 66.2166 193.859 66.4563 193.06 66.9357C192.272 67.4045 191.654 68.0384 191.207 68.8374C190.759 69.6257 190.53 70.5046 190.519 71.4741V75.4851C190.519 76.6996 190.743 77.7489 191.191 78.6332C191.649 79.5174 192.293 80.1992 193.124 80.6786C193.955 81.158 194.941 81.3977 196.08 81.3977C196.837 81.3977 197.529 81.2912 198.158 81.0781C198.786 80.8651 199.324 80.5455 199.772 80.1193C200.219 79.6932 200.56 79.1712 200.795 78.5533L207.091 78.9688C206.771 80.4815 206.116 81.8026 205.125 82.9318C204.145 84.0504 202.877 84.924 201.322 85.5526C199.777 86.1705 197.993 86.4794 195.969 86.4794ZM222.767 86.4794C220.253 86.4794 218.09 85.9467 216.279 84.8814C214.479 83.8054 213.094 82.3139 212.125 80.407C211.166 78.5 210.686 76.3054 210.686 73.8232C210.686 71.3089 211.171 69.1037 212.14 67.2074C213.121 65.3004 214.511 63.8143 216.311 62.7489C218.112 61.6729 220.253 61.1349 222.735 61.1349C224.877 61.1349 226.752 61.5238 228.36 62.3015C229.969 63.0792 231.242 64.1712 232.18 65.5774C233.117 66.9837 233.634 68.6349 233.73 70.5312H227.306C227.125 69.3061 226.645 68.3207 225.867 67.5749C225.1 66.8185 224.094 66.4403 222.847 66.4403C221.792 66.4403 220.871 66.728 220.083 67.3033C219.305 67.8679 218.698 68.6935 218.261 69.7802C217.824 70.8668 217.606 72.1825 217.606 73.7273C217.606 75.2933 217.819 76.625 218.245 77.7223C218.682 78.8196 219.294 79.6559 220.083 80.2312C220.871 80.8065 221.792 81.0941 222.847 81.0941C223.625 81.0941 224.323 80.9343 224.941 80.6147C225.569 80.2951 226.086 79.8317 226.491 79.2244C226.906 78.6065 227.178 77.8661 227.306 77.0032H233.73C233.623 78.8782 233.112 80.5295 232.196 81.957C231.29 83.3739 230.038 84.4819 228.44 85.2809C226.842 86.0799 224.951 86.4794 222.767 86.4794ZM251.144 61.4545V66.5682H236.362V61.4545H251.144ZM239.718 55.5739H246.526V78.4574C246.526 79.0859 246.622 79.576 246.813 79.9276C247.005 80.2685 247.271 80.5082 247.612 80.6467C247.964 80.7852 248.369 80.8544 248.827 80.8544C249.146 80.8544 249.466 80.8278 249.786 80.7745C250.105 80.7106 250.35 80.6626 250.521 80.6307L251.591 85.6964C251.25 85.8029 250.771 85.9254 250.153 86.0639C249.535 86.2131 248.784 86.3036 247.9 86.3356C246.259 86.3995 244.821 86.1811 243.585 85.6804C242.36 85.1797 241.407 84.402 240.725 83.3473C240.043 82.2926 239.708 80.9609 239.718 79.3523V55.5739ZM255.578 86V61.4545H262.178V65.7372H262.434C262.881 64.2138 263.632 63.0632 264.687 62.2855C265.742 61.4972 266.956 61.103 268.331 61.103C268.671 61.103 269.039 61.1243 269.433 61.1669C269.827 61.2095 270.174 61.2681 270.472 61.3427V67.3832C270.152 67.2873 269.71 67.2021 269.146 67.1275C268.581 67.0529 268.064 67.0156 267.595 67.0156C266.594 67.0156 265.699 67.234 264.911 67.6708C264.133 68.0969 263.515 68.6935 263.057 69.4606C262.61 70.2276 262.386 71.1119 262.386 72.1133V86H255.578ZM283.939 86.4794C281.457 86.4794 279.31 85.9521 277.499 84.8974C275.699 83.832 274.308 82.3512 273.328 80.4549C272.348 78.5479 271.858 76.3374 271.858 73.8232C271.858 71.2876 272.348 69.0717 273.328 67.1754C274.308 65.2685 275.699 63.7876 277.499 62.733C279.31 61.6676 281.457 61.1349 283.939 61.1349C286.421 61.1349 288.563 61.6676 290.363 62.733C292.174 63.7876 293.57 65.2685 294.55 67.1754C295.53 69.0717 296.02 71.2876 296.02 73.8232C296.02 76.3374 295.53 78.5479 294.55 80.4549C293.57 82.3512 292.174 83.832 290.363 84.8974C288.563 85.9521 286.421 86.4794 283.939 86.4794ZM283.971 81.206C285.1 81.206 286.043 80.8864 286.8 80.2472C287.556 79.5973 288.126 78.7131 288.509 77.5945C288.904 76.4759 289.101 75.2028 289.101 73.7752C289.101 72.3477 288.904 71.0746 288.509 69.956C288.126 68.8374 287.556 67.9531 286.8 67.3033C286.043 66.6534 285.1 66.3285 283.971 66.3285C282.831 66.3285 281.872 66.6534 281.095 67.3033C280.328 67.9531 279.747 68.8374 279.353 69.956C278.969 71.0746 278.778 72.3477 278.778 73.7752C278.778 75.2028 278.969 76.4759 279.353 77.5945C279.747 78.7131 280.328 79.5973 281.095 80.2472C281.872 80.8864 282.831 81.206 283.971 81.206ZM307.254 71.8097V86H300.447V61.4545H306.935V65.7852H307.222C307.765 64.3576 308.676 63.2283 309.955 62.3974C311.233 61.5558 312.783 61.1349 314.605 61.1349C316.31 61.1349 317.796 61.5078 319.063 62.2536C320.331 62.9993 321.317 64.0646 322.02 65.4496C322.723 66.8239 323.074 68.4645 323.074 70.3714V86H316.267V71.5859C316.278 70.0838 315.894 68.9119 315.116 68.0703C314.339 67.218 313.268 66.7919 311.904 66.7919C310.988 66.7919 310.178 66.989 309.475 67.3832C308.783 67.7773 308.24 68.3526 307.845 69.109C307.462 69.8548 307.265 70.755 307.254 71.8097Z" fill="white"/>
</svg>
