<svg width="140" height="140" viewBox="0 0 140 140" fill="none" xmlns="http://www.w3.org/2000/svg">
<rect width="140" height="140" rx="20" fill="#2C4549"/>
<path d="M56.4217 41.4935C43.3535 39.1134 33.0208 41.6051 28.9028 48.737C25.8299 54.059 26.7071 61.1162 31.0318 68.6596C31.1193 68.8125 31.2361 68.9465 31.3754 69.0542C31.5147 69.1618 31.6739 69.241 31.8439 69.2871C32.0138 69.3332 32.1912 69.3453 32.3658 69.3229C32.5405 69.3004 32.7089 69.2437 32.8617 69.156C33.1701 68.9791 33.3956 68.6869 33.4887 68.3437C33.5818 68.0006 33.5348 67.6345 33.3581 67.3259C29.462 60.5316 28.7027 54.4411 31.2241 50.077C34.6445 44.1523 43.8599 41.9298 55.9405 44.1305C56.1589 44.1736 56.3846 44.1617 56.5972 44.0959C56.8099 44.03 57.0028 43.9122 57.1585 43.7532C57.3142 43.5941 57.4279 43.3988 57.4893 43.1848C57.5507 42.9709 57.5578 42.745 57.5101 42.5276C57.4524 42.2661 57.3178 42.028 57.1236 41.8438C56.9294 41.6595 56.6845 41.5376 56.4204 41.4938L56.4217 41.4935ZM37.8275 77.8278C43.1111 83.6349 49.9761 89.0813 57.8053 93.602C76.7612 104.546 96.9417 107.472 106.887 100.69C107.174 100.487 107.369 100.179 107.431 99.8338C107.493 99.4882 107.417 99.132 107.219 98.8418C107.022 98.5516 106.718 98.3507 106.373 98.2821C106.029 98.2136 105.671 98.283 105.378 98.4753C96.4761 104.545 77.3062 101.766 59.1456 91.2807C51.5496 86.8948 44.9026 81.6214 39.8102 76.0247C39.6331 75.8238 39.4 75.6805 39.1407 75.6133C38.8815 75.546 38.6081 75.5579 38.3557 75.6473C38.1459 75.7219 37.9579 75.8475 37.8088 76.0129C37.6598 76.1783 37.5543 76.3783 37.5018 76.5947C37.4494 76.8111 37.4517 77.0372 37.5086 77.2525C37.5655 77.4677 37.6751 77.6655 37.8275 77.8278Z" fill="#2DD0ED"/>
<path d="M103.716 76.1977C112.272 66.0896 115.26 55.9223 111.151 48.8047C108.127 43.5675 101.734 40.8024 93.2392 40.6921C92.8839 40.6876 92.5412 40.8242 92.2866 41.0721C92.0319 41.3201 91.8861 41.6589 91.8811 42.0143C91.8772 42.2794 91.9522 42.5397 92.0965 42.7621C92.2409 42.9845 92.4481 43.159 92.6919 43.2634C92.8536 43.333 93.0275 43.37 93.2035 43.3724C100.844 43.4712 106.352 45.8539 108.83 50.1449C112.243 56.0571 109.579 65.1238 101.67 74.4666C101.552 74.6003 101.463 74.7561 101.406 74.925C101.349 75.0939 101.326 75.2724 101.34 75.4501C101.353 75.6277 101.401 75.801 101.482 75.9597C101.563 76.1185 101.675 76.2595 101.811 76.3745C101.947 76.4893 102.104 76.5759 102.274 76.6292C102.444 76.6825 102.623 76.7015 102.8 76.6851C102.977 76.6686 103.15 76.6171 103.307 76.5334C103.464 76.4497 103.603 76.3356 103.716 76.1977ZM81.7254 41.9399C73.9884 43.598 65.754 46.8388 57.8463 51.4043C38.2764 62.7028 25.5108 79.3615 27.2844 91.4421C27.3065 91.6192 27.3637 91.7901 27.4527 91.9448C27.5417 92.0995 27.6607 92.2348 27.8027 92.3429C27.9447 92.4509 28.1069 92.5295 28.2797 92.5741C28.4526 92.6186 28.6325 92.6282 28.8091 92.6022C28.9857 92.5763 29.1553 92.5153 29.3079 92.4229C29.4606 92.3305 29.5933 92.2085 29.6982 92.0642C29.8031 91.9198 29.8781 91.7559 29.9188 91.5822C29.9595 91.4084 29.9651 91.2283 29.9353 91.0523C28.3618 80.3273 40.4616 64.5352 59.1852 53.7256C66.8568 49.2961 74.831 46.1591 82.2872 44.5598C82.6241 44.4751 82.9151 44.263 83.0986 43.968C83.2822 43.673 83.3441 43.3183 83.2712 42.9786C83.1984 42.6389 82.9965 42.3408 82.7081 42.147C82.4198 41.9533 82.0674 41.879 81.7254 41.9399Z" fill="#2DD0ED"/>
<path d="M50.0221 99.8167C54.4978 112.308 61.8156 120 70.0464 120C76.0481 120 81.6012 115.909 85.9319 108.705C86.029 108.555 86.0948 108.386 86.1255 108.209C86.1562 108.032 86.1511 107.851 86.1105 107.676C86.0598 107.457 85.9547 107.254 85.8051 107.087C85.6554 106.919 85.4659 106.792 85.2541 106.716C85.0423 106.641 84.815 106.62 84.593 106.656C84.3711 106.692 84.1617 106.783 83.9841 106.921C83.8423 107.031 83.7241 107.168 83.6364 107.324C79.744 113.798 74.9631 117.321 70.0464 117.321C63.2108 117.321 56.682 110.46 52.5461 98.9127C52.4893 98.7436 52.3995 98.5874 52.2817 98.4534C52.164 98.3194 52.0207 98.2102 51.8603 98.1321C51.6998 98.0543 51.5255 98.0092 51.3474 97.9995C51.1693 97.9901 50.9911 98.0163 50.8233 98.0766C50.6554 98.1368 50.5013 98.23 50.3698 98.3505C50.2384 98.471 50.1323 98.6166 50.0578 98.7786C49.9832 98.9406 49.9417 99.1158 49.9357 99.2941C49.9299 99.4724 49.9597 99.6501 50.0234 99.8167H50.0221ZM90.8885 97.3723C93.2045 89.9728 94.4474 81.4342 94.4474 72.5366C94.4474 50.3373 86.6783 31.1994 75.6108 26.285C75.2873 26.149 74.9234 26.1452 74.5972 26.2745C74.271 26.4038 74.0085 26.6558 73.8661 26.9765C73.7237 27.2973 73.7127 27.661 73.8356 27.9897C73.9585 28.3184 74.2053 28.5858 74.5232 28.7345C84.3941 33.118 91.7684 51.2799 91.7684 72.5366C91.7684 81.1673 90.5629 89.4367 88.3314 96.5723C88.2737 96.7415 88.2504 96.9205 88.2631 97.0988C88.2757 97.2772 88.3239 97.4511 88.405 97.6105C88.5269 97.8506 88.7183 98.0484 88.9543 98.1781C89.1903 98.3078 89.4599 98.3635 89.7279 98.3378C89.996 98.312 90.2501 98.2062 90.4571 98.034C90.6641 97.8618 90.8145 97.6312 90.8885 97.3723ZM116.126 96.0604C116.131 95.2147 115.969 94.3763 115.649 93.5935C115.33 92.8106 114.858 92.0987 114.262 91.4989C113.666 90.899 112.957 90.4229 112.176 90.098C111.395 89.7731 110.558 89.6059 109.712 89.6059C108.867 89.6059 108.029 89.7732 107.249 90.0981C106.468 90.423 105.759 90.8991 105.163 91.499C104.567 92.099 104.095 92.8108 103.775 93.5937C103.456 94.3766 103.294 95.215 103.299 96.0606C103.31 97.7545 103.99 99.3752 105.192 100.569C106.394 101.763 108.019 102.433 109.713 102.433C111.406 102.433 113.032 101.763 114.233 100.569C115.435 99.375 116.115 97.7542 116.126 96.0604ZM113.446 96.0604C113.445 97.0504 113.052 97.9999 112.352 98.6999C111.652 99.4 110.702 99.7934 109.712 99.7936C108.974 99.7936 108.252 99.5746 107.639 99.1644C107.025 98.7542 106.546 98.1712 106.264 97.4891C105.981 96.8069 105.907 96.0564 106.051 95.3323C106.195 94.6082 106.551 93.9431 107.073 93.421C107.595 92.899 108.26 92.5434 108.984 92.3994C109.708 92.2554 110.459 92.3293 111.141 92.6118C111.823 92.8943 112.406 93.3727 112.816 93.9865C113.227 94.6004 113.446 95.3221 113.446 96.0604ZM30.288 102.474C31.1303 102.474 31.9643 102.308 32.7425 101.986C33.5207 101.664 34.2277 101.191 34.8233 100.596C35.4189 100 35.8913 99.293 36.2136 98.5148C36.5358 97.7367 36.7016 96.9026 36.7015 96.0604C36.7016 95.2181 36.5358 94.3841 36.2135 93.6059C35.8912 92.8277 35.4187 92.1206 34.8231 91.5251C34.2275 90.9295 33.5205 90.4571 32.7423 90.1348C31.9641 89.8126 31.13 89.6467 30.2878 89.6468C29.4455 89.6468 28.6115 89.8127 27.8334 90.135C27.0553 90.4573 26.3483 90.9297 25.7527 91.5253C25.1572 92.1208 24.6848 92.8279 24.3625 93.606C24.0403 94.3841 23.8744 95.2181 23.8745 96.0604C23.8744 96.9026 24.0403 97.7366 24.3626 98.5148C24.6849 99.293 25.1573 100 25.7528 100.596C26.3484 101.191 27.0555 101.664 27.8336 101.986C28.6118 102.308 29.4458 102.474 30.288 102.474ZM30.288 99.7936C29.2977 99.7936 28.3479 99.4002 27.6477 98.6999C26.9474 97.9997 26.554 97.0499 26.554 96.0596C26.554 95.0693 26.9474 94.1195 27.6477 93.4192C28.3479 92.719 29.2977 92.3256 30.288 92.3256C31.2783 92.3256 32.2281 92.719 32.9284 93.4192C33.6286 94.1195 34.022 95.0693 34.022 96.0596C34.022 97.0499 33.6286 97.9997 32.9284 98.6999C32.2281 99.4002 31.2783 99.7936 30.288 99.7936Z" fill="#2DD0ED"/>
<path d="M70.0464 32.827C71.315 32.8271 72.555 32.451 73.6097 31.7462C74.6644 31.0414 75.4864 30.0397 75.9717 28.8677C76.3751 27.8932 76.532 26.8344 76.4285 25.7849C76.325 24.7354 75.9643 23.7275 75.3784 22.8507C74.7925 21.9738 73.9994 21.2549 73.0694 20.7577C72.1393 20.2605 71.101 20.0002 70.0464 20C68.7779 19.9998 67.5378 20.3758 66.483 21.0805C65.4281 21.7851 64.606 22.7868 64.1205 23.9588C63.6351 25.1308 63.5081 26.4204 63.7557 27.6645C64.0032 28.9087 64.6142 30.0515 65.5113 30.9483C66.1069 31.5439 66.8139 32.0163 67.5921 32.3386C68.3702 32.6609 69.2042 32.8271 70.0464 32.827ZM70.0464 30.1465C69.3081 30.1464 68.5864 29.9274 67.9725 29.5172C67.3586 29.1071 66.88 28.5241 66.5974 27.842C66.4096 27.3891 66.3129 26.9037 66.3129 26.4134C66.3129 25.9231 66.4096 25.4376 66.5974 24.9847C66.7849 24.5318 67.0598 24.1202 67.4065 23.7736C67.7531 23.4269 68.1647 23.152 68.6176 22.9645C69.1277 22.7532 69.6783 22.6577 70.2297 22.6848C70.7811 22.7119 71.3197 22.8609 71.8065 23.1212C72.2934 23.3815 72.7165 23.7464 73.0454 24.1899C73.3743 24.6333 73.6007 25.1442 73.7084 25.6857C73.8161 26.2271 73.8024 26.7857 73.6683 27.3213C73.5341 27.8568 73.2829 28.3559 72.9326 28.7827C72.5824 29.2095 72.1419 29.5533 71.6428 29.7893C71.1437 30.0253 70.5985 30.1478 70.0464 30.1478V30.1465ZM71.0261 77.0736C69.8229 77.3333 68.5659 77.1046 67.5313 76.4378C66.7597 75.9404 66.1529 75.2254 65.7876 74.3832C65.4224 73.5409 65.3152 72.6093 65.4795 71.7061C65.6438 70.8029 66.0723 69.9687 66.7108 69.3091C67.3493 68.6494 68.1691 68.194 69.0665 68.0003C70.2614 67.7616 71.5023 68.0022 72.5213 68.6704C73.5403 69.3385 74.2558 70.3805 74.5132 71.5715C74.7703 72.7626 74.5487 74.007 73.8963 75.0361C73.2439 76.0653 72.213 76.7966 71.0261 77.0723V77.0736Z" fill="#2DD0ED"/>
</svg>
