<svg width="532" height="140" viewBox="0 0 532 140" fill="none" xmlns="http://www.w3.org/2000/svg">
<rect width="532" height="140" rx="20" fill="#E8362D"/>
<path d="M38.4545 23.2623C39.2874 24.1142 39.2752 25.4741 38.4659 26.3485C29.3277 36.2225 24.3775 48.9279 24.3775 62.435C24.3775 76.6596 29.9417 89.9949 39.9573 100.071C50.0471 110.146 63.4011 115.629 77.6455 115.629C91.1705 115.629 103.893 110.619 113.78 101.552C114.658 100.747 116.018 100.737 116.87 101.569C117.74 102.416 117.75 103.813 116.86 104.639C106.157 114.56 92.3383 120 77.6455 120C62.2141 120 47.7468 113.999 36.9151 103.109C26.0092 92.292 20 77.8449 20 62.435C20 47.7614 25.4488 33.9609 35.3857 23.2727C36.2108 22.3852 37.6073 22.3958 38.4545 23.2623Z" fill="white"/>
<path d="M42.9988 41.3943C45.3728 40.8017 48.637 40.8761 51.8269 41.3205C54.9364 41.7777 57.9614 42.493 60.8795 43.4438C63.5729 44.3213 65.2557 46.9164 65.2557 49.7456C65.2557 55.3631 58.7458 58.9658 53.2854 57.6152C51.4669 57.1653 49.5927 56.842 47.6726 56.6565C46.1146 56.4342 44.6306 57.5452 44.408 59.3233C44.1854 60.9532 45.4471 62.4352 47.0792 62.5834C53.3853 63.1761 59.1723 65.6205 63.9204 69.1766C72.8973 75.9925 78.2384 87.1796 77.0514 99.1814C76.8816 100.764 76.6038 102.315 76.2303 103.825C75.1524 108.183 70.7372 110.705 66.3483 109.734C66.1046 109.68 65.8619 109.624 65.6201 109.567C64.9841 109.417 64.3812 109.153 63.8292 108.804C60.9278 106.966 60.2049 103.124 60.9651 99.7781C61.2481 98.5329 61.3977 97.2435 61.3977 95.9221C61.3977 87.2797 55.0552 79.963 46.7821 78.5245C46.7331 78.516 46.6833 78.5118 46.6337 78.5118C45.5207 78.3637 43.2955 78.1409 41.886 77.6965C34.2444 75.2516 28.7542 68.1395 28.7542 59.6937C28.7543 54.9523 30.4605 50.5812 33.428 47.2474C35.9505 44.4321 39.2151 42.3574 42.9988 41.3943Z" fill="white"/>
<path d="M80.043 80.4228C79.8053 79.8735 80.2363 79.2527 80.8355 79.2527C90.1281 79.2527 98.773 85.2987 98.9959 94.5756C99.0066 95.0231 99.012 95.4719 99.012 95.9221C99.012 97.6757 98.9218 99.4113 98.7592 101.12C98.449 104.381 96.3002 107.181 93.2002 108.252C92.9234 108.347 92.6458 108.441 92.3676 108.532C91.1408 108.933 89.8221 108.925 88.579 108.578L88.4351 108.538C84.7503 107.509 82.7041 103.653 83.0612 99.8485C83.7515 92.9895 82.6105 86.3553 80.043 80.4228Z" fill="white"/>
<path d="M47.5241 85.4017C51.6045 85.4017 54.943 88.7356 54.943 92.8103C54.943 96.885 51.6045 100.219 47.5241 100.219C43.4436 100.219 40.1051 96.885 40.1051 92.8103C40.1051 88.7356 43.4437 85.4017 47.5241 85.4017Z" fill="white"/>
<path d="M114.704 79.2527C117.185 79.2527 119.351 80.9656 119.751 83.4108C119.93 84.5055 119.737 85.6378 119.182 86.5981C117.594 89.3404 115.715 91.9178 113.597 94.2495C112.69 95.2479 111.386 95.7737 110.036 95.7737C107.225 95.7737 104.969 93.4947 104.738 90.6977C104.679 89.9877 104.608 89.281 104.526 88.5778C103.966 83.8328 107.422 79.2527 112.206 79.2527H114.704Z" fill="white"/>
<path d="M51.6122 21.2731C53.4488 20.1281 55.6565 19.7565 57.7847 20.154C58.4511 20.2785 59.1146 20.4116 59.7751 20.5531C63.0529 21.2556 65.2557 24.2407 65.2557 27.5885C65.2557 32.8615 59.9385 36.5304 54.7446 35.5801C52.7537 35.2158 50.7293 34.9479 48.6763 34.7813C45.9158 34.5574 43.6668 32.3369 43.6668 29.5711C43.6668 28.1816 44.2372 26.8455 45.2913 25.9385C47.2794 24.2279 49.3914 22.6577 51.6122 21.2731Z" fill="white"/>
<path d="M116.323 59.4964C116.323 56.8369 114.164 54.6808 111.501 54.6808C108.837 54.6808 106.678 56.8369 106.678 59.4964C106.678 62.156 108.837 64.312 111.501 64.312C114.164 64.312 116.323 62.156 116.323 59.4964ZM123 59.4964C123 65.8385 117.852 70.9798 111.501 70.9798C105.15 70.9798 100.001 65.8385 100.001 59.4964C100.001 53.1544 105.15 48.0131 111.501 48.0131C117.852 48.0131 123 53.1544 123 59.4964Z" fill="white"/>
<path d="M89.1201 32.3316C89.1201 29.672 86.961 27.516 84.2977 27.516C81.6344 27.516 79.4754 29.672 79.4754 32.3316C79.4754 34.9912 81.6344 37.1472 84.2977 37.1472C86.961 37.1472 89.1201 34.9912 89.1201 32.3316ZM95.7971 32.3316C95.7971 38.6736 90.6487 43.8149 84.2977 43.8149C77.9468 43.8149 72.7983 38.6736 72.7983 32.3316C72.7983 25.9895 77.9468 20.8482 84.2977 20.8482C90.6487 20.8482 95.7971 25.9895 95.7971 32.3316Z" fill="white"/>
<path d="M120.28 32.3316C120.28 30.4903 118.785 28.9977 116.941 28.9977H95.305C95.625 30.0528 95.7971 31.1721 95.7971 32.3316C95.7971 33.491 95.625 34.6103 95.305 35.6654H116.941C118.785 35.6654 120.28 34.1728 120.28 32.3316Z" fill="white"/>
<path d="M78.8571 62.8303H100.493C100.173 61.7752 100.001 60.6559 100.001 59.4964C100.001 58.337 100.173 57.2177 100.493 56.1626H78.8571C77.0133 56.1626 75.5186 57.6552 75.5186 59.4964C75.5186 61.3377 77.0133 62.8303 78.8571 62.8303Z" fill="white"/>
<path d="M162.764 53.2727V86H155.844V53.2727H162.764ZM198.531 69.6364C198.531 73.2053 197.855 76.2415 196.502 78.745C195.16 81.2486 193.327 83.1609 191.005 84.4819C188.693 85.7923 186.093 86.4474 183.206 86.4474C180.298 86.4474 177.688 85.7869 175.376 84.4659C173.064 83.1449 171.237 81.2326 169.895 78.729C168.553 76.2255 167.881 73.1946 167.881 69.6364C167.881 66.0675 168.553 63.0312 169.895 60.5277C171.237 58.0241 173.064 56.1172 175.376 54.8068C177.688 53.4858 180.298 52.8253 183.206 52.8253C186.093 52.8253 188.693 53.4858 191.005 54.8068C193.327 56.1172 195.16 58.0241 196.502 60.5277C197.855 63.0312 198.531 66.0675 198.531 69.6364ZM191.516 69.6364C191.516 67.3246 191.17 65.375 190.477 63.7876C189.796 62.2003 188.831 60.9964 187.585 60.1761C186.339 59.3558 184.879 58.9457 183.206 58.9457C181.534 58.9457 180.074 59.3558 178.828 60.1761C177.581 60.9964 176.612 62.2003 175.919 63.7876C175.238 65.375 174.897 67.3246 174.897 69.6364C174.897 71.9482 175.238 73.8977 175.919 75.4851C176.612 77.0724 177.581 78.2763 178.828 79.0966C180.074 79.9169 181.534 80.3271 183.206 80.3271C184.879 80.3271 186.339 79.9169 187.585 79.0966C188.831 78.2763 189.796 77.0724 190.477 75.4851C191.17 73.8977 191.516 71.9482 191.516 69.6364ZM200.916 58.9776V53.2727H227.795V58.9776H217.775V86H210.936V58.9776H200.916ZM271.513 64.7305H264.513C264.385 63.8249 264.124 63.0206 263.73 62.3175C263.336 61.6037 262.83 60.9964 262.212 60.4957C261.594 59.995 260.88 59.6115 260.071 59.3452C259.272 59.0788 258.403 58.9457 257.466 58.9457C255.772 58.9457 254.297 59.3665 253.04 60.2081C251.782 61.0391 250.808 62.2536 250.115 63.8516C249.423 65.4389 249.076 67.3672 249.076 69.6364C249.076 71.9695 249.423 73.9297 250.115 75.517C250.818 77.1044 251.798 78.3029 253.055 79.1126C254.313 79.9222 255.767 80.3271 257.418 80.3271C258.345 80.3271 259.203 80.2045 259.991 79.9595C260.79 79.7145 261.498 79.3576 262.116 78.8888C262.734 78.4094 263.245 77.8288 263.65 77.147C264.066 76.4652 264.353 75.6875 264.513 74.8139L271.513 74.8459C271.331 76.348 270.879 77.7969 270.154 79.1925C269.44 80.5774 268.476 81.8185 267.262 82.9158C266.058 84.0025 264.62 84.8654 262.947 85.5046C261.285 86.1332 259.405 86.4474 257.306 86.4474C254.387 86.4474 251.777 85.7869 249.476 84.4659C247.185 83.1449 245.374 81.2326 244.043 78.729C242.722 76.2255 242.061 73.1946 242.061 69.6364C242.061 66.0675 242.732 63.0312 244.075 60.5277C245.417 58.0241 247.239 56.1172 249.54 54.8068C251.841 53.4858 254.43 52.8253 257.306 52.8253C259.203 52.8253 260.96 53.0916 262.58 53.6243C264.21 54.157 265.653 54.9347 266.91 55.9574C268.167 56.9695 269.19 58.2106 269.978 59.6808C270.777 61.1509 271.289 62.8342 271.513 64.7305ZM287.437 86.4794C284.954 86.4794 282.808 85.9521 280.997 84.8974C279.196 83.832 277.806 82.3512 276.826 80.4549C275.846 78.5479 275.356 76.3374 275.356 73.8232C275.356 71.2876 275.846 69.0717 276.826 67.1754C277.806 65.2685 279.196 63.7876 280.997 62.733C282.808 61.6676 284.954 61.1349 287.437 61.1349C289.919 61.1349 292.06 61.6676 293.861 62.733C295.672 63.7876 297.067 65.2685 298.047 67.1754C299.028 69.0717 299.518 71.2876 299.518 73.8232C299.518 76.3374 299.028 78.5479 298.047 80.4549C297.067 82.3512 295.672 83.832 293.861 84.8974C292.06 85.9521 289.919 86.4794 287.437 86.4794ZM287.469 81.206C288.598 81.206 289.541 80.8864 290.297 80.2472C291.054 79.5973 291.623 78.7131 292.007 77.5945C292.401 76.4759 292.598 75.2028 292.598 73.7752C292.598 72.3477 292.401 71.0746 292.007 69.956C291.623 68.8374 291.054 67.9531 290.297 67.3033C289.541 66.6534 288.598 66.3285 287.469 66.3285C286.329 66.3285 285.37 66.6534 284.592 67.3033C283.825 67.9531 283.245 68.8374 282.85 69.956C282.467 71.0746 282.275 72.3477 282.275 73.7752C282.275 75.2028 282.467 76.4759 282.85 77.5945C283.245 78.7131 283.825 79.5973 284.592 80.2472C285.37 80.8864 286.329 81.206 287.469 81.206ZM303.944 86V61.4545H310.432V65.7852H310.72C311.231 64.3469 312.083 63.2124 313.277 62.3814C314.47 61.5504 315.897 61.1349 317.559 61.1349C319.242 61.1349 320.675 61.5558 321.858 62.3974C323.04 63.2283 323.829 64.3576 324.223 65.7852H324.479C324.979 64.3789 325.885 63.255 327.195 62.4134C328.516 61.5611 330.077 61.1349 331.877 61.1349C334.168 61.1349 336.027 61.8647 337.454 63.3242C338.893 64.7731 339.612 66.8292 339.612 69.4925V86H332.82V70.8349C332.82 69.4712 332.458 68.4485 331.734 67.7667C331.009 67.0849 330.104 66.744 329.017 66.744C327.781 66.744 326.817 67.1381 326.125 67.9265C325.432 68.7042 325.086 69.7322 325.086 71.0107V86H318.486V70.6911C318.486 69.4872 318.14 68.5284 317.447 67.8146C316.766 67.1009 315.865 66.744 314.747 66.744C313.99 66.744 313.309 66.9357 312.701 67.3192C312.105 67.6921 311.631 68.2195 311.279 68.9013C310.927 69.5724 310.752 70.3608 310.752 71.2663V86H303.944ZM344.989 86V61.4545H351.477V65.7852H351.765C352.276 64.3469 353.128 63.2124 354.321 62.3814C355.515 61.5504 356.942 61.1349 358.604 61.1349C360.287 61.1349 361.72 61.5558 362.903 62.3974C364.085 63.2283 364.874 64.3576 365.268 65.7852H365.524C366.024 64.3789 366.93 63.255 368.24 62.4134C369.561 61.5611 371.122 61.1349 372.922 61.1349C375.213 61.1349 377.072 61.8647 378.499 63.3242C379.938 64.7731 380.657 66.8292 380.657 69.4925V86H373.865V70.8349C373.865 69.4712 373.503 68.4485 372.778 67.7667C372.054 67.0849 371.149 66.744 370.062 66.744C368.826 66.744 367.862 67.1381 367.169 67.9265C366.477 68.7042 366.131 69.7322 366.131 71.0107V86H359.531V70.6911C359.531 69.4872 359.185 68.5284 358.492 67.8146C357.81 67.1009 356.91 66.744 355.792 66.744C355.035 66.744 354.353 66.9357 353.746 67.3192C353.15 67.6921 352.676 68.2195 352.324 68.9013C351.972 69.5724 351.797 70.3608 351.797 71.2663V86H344.989ZM393.033 86.4634C391.467 86.4634 390.072 86.1918 388.847 85.6484C387.621 85.0945 386.652 84.2795 385.938 83.2035C385.235 82.1168 384.883 80.7638 384.883 79.1445C384.883 77.7809 385.134 76.6357 385.634 75.7088C386.135 74.782 386.817 74.0362 387.68 73.4716C388.543 72.907 389.523 72.4808 390.62 72.1932C391.728 71.9055 392.889 71.7031 394.104 71.5859C395.532 71.4368 396.682 71.2983 397.556 71.1705C398.429 71.032 399.063 70.8295 399.457 70.5632C399.851 70.2969 400.049 69.9027 400.049 69.3807V69.2848C400.049 68.2727 399.729 67.4897 399.09 66.9357C398.461 66.3817 397.566 66.1048 396.405 66.1048C395.18 66.1048 394.205 66.3764 393.481 66.9197C392.756 67.4524 392.277 68.1236 392.043 68.9332L385.746 68.4219C386.066 66.9304 386.695 65.6413 387.632 64.5547C388.57 63.4574 389.779 62.6158 391.259 62.0298C392.751 61.4332 394.477 61.1349 396.437 61.1349C397.801 61.1349 399.106 61.2947 400.352 61.6143C401.609 61.9339 402.723 62.4293 403.692 63.1005C404.672 63.7717 405.445 64.6346 406.009 65.6893C406.574 66.7333 406.856 67.9851 406.856 69.4446V86H400.4V82.5962H400.208C399.814 83.3633 399.287 84.0398 398.626 84.6257C397.966 85.201 397.172 85.6538 396.245 85.984C395.318 86.3036 394.248 86.4634 393.033 86.4634ZM394.983 81.7653C395.984 81.7653 396.869 81.5682 397.636 81.174C398.403 80.7692 399.005 80.2259 399.441 79.544C399.878 78.8622 400.097 78.0898 400.097 77.2269V74.6222C399.883 74.7607 399.59 74.8885 399.218 75.0057C398.855 75.1122 398.445 75.2134 397.987 75.3093C397.529 75.3945 397.071 75.4744 396.613 75.549C396.155 75.6129 395.739 75.6715 395.366 75.7248C394.567 75.842 393.87 76.0284 393.273 76.2841C392.676 76.5398 392.213 76.886 391.883 77.3228C391.552 77.7489 391.387 78.2816 391.387 78.9208C391.387 79.8477 391.723 80.5561 392.394 81.0462C393.076 81.5256 393.939 81.7653 394.983 81.7653ZM418.945 71.8097V86H412.138V61.4545H418.625V65.7852H418.913C419.456 64.3576 420.367 63.2283 421.646 62.3974C422.924 61.5558 424.474 61.1349 426.296 61.1349C428 61.1349 429.487 61.5078 430.754 62.2536C432.022 62.9993 433.008 64.0646 433.711 65.4496C434.414 66.8239 434.765 68.4645 434.765 70.3714V86H427.958V71.5859C427.968 70.0838 427.585 68.9119 426.807 68.0703C426.03 67.218 424.959 66.7919 423.595 66.7919C422.679 66.7919 421.869 66.989 421.166 67.3832C420.474 67.7773 419.93 68.3526 419.536 69.109C419.153 69.8548 418.956 70.755 418.945 71.8097ZM449.175 86.3995C447.311 86.3995 445.623 85.9201 444.11 84.9613C442.608 83.9918 441.414 82.5696 440.53 80.6946C439.657 78.8089 439.22 76.4972 439.22 73.7592C439.22 70.9467 439.673 68.6083 440.578 66.744C441.484 64.869 442.688 63.468 444.19 62.5412C445.702 61.6037 447.359 61.1349 449.159 61.1349C450.534 61.1349 451.679 61.3693 452.595 61.8381C453.522 62.2962 454.268 62.8714 454.832 63.5639C455.408 64.2457 455.844 64.9169 456.143 65.5774H456.35V53.2727H463.142V86H456.43V82.0689H456.143C455.823 82.7507 455.37 83.4272 454.784 84.0984C454.209 84.7589 453.458 85.3075 452.531 85.7443C451.615 86.1811 450.496 86.3995 449.175 86.3995ZM451.333 80.9822C452.43 80.9822 453.357 80.6839 454.113 80.0874C454.88 79.4801 455.466 78.6332 455.871 77.5465C456.287 76.4599 456.494 75.1868 456.494 73.7273C456.494 72.2678 456.292 71 455.887 69.924C455.482 68.848 454.896 68.017 454.129 67.4311C453.362 66.8452 452.43 66.5522 451.333 66.5522C450.214 66.5522 449.271 66.8558 448.504 67.4631C447.737 68.0703 447.157 68.9119 446.762 69.9879C446.368 71.0639 446.171 72.3104 446.171 73.7273C446.171 75.1548 446.368 76.4173 446.762 77.5146C447.167 78.6012 447.748 79.4535 448.504 80.0714C449.271 80.6786 450.214 80.9822 451.333 80.9822ZM479.925 86.4794C477.4 86.4794 475.227 85.968 473.405 84.9453C471.594 83.9119 470.199 82.4524 469.218 80.5668C468.238 78.6705 467.748 76.4279 467.748 73.8391C467.748 71.3143 468.238 69.0984 469.218 67.1914C470.199 65.2844 471.578 63.7983 473.357 62.733C475.147 61.6676 477.246 61.1349 479.653 61.1349C481.273 61.1349 482.78 61.396 484.176 61.918C485.582 62.4293 486.807 63.2017 487.851 64.2351C488.906 65.2685 489.726 66.5682 490.312 68.1342C490.898 69.6896 491.191 71.5114 491.191 73.5994V75.4691H470.465V71.2504H484.783C484.783 70.2702 484.57 69.402 484.144 68.6456C483.718 67.8892 483.127 67.2979 482.37 66.8718C481.624 66.435 480.756 66.2166 479.765 66.2166C478.732 66.2166 477.816 66.4563 477.017 66.9357C476.228 67.4045 475.611 68.0384 475.163 68.8374C474.716 69.6257 474.487 70.5046 474.476 71.4741V75.4851C474.476 76.6996 474.7 77.7489 475.147 78.6332C475.605 79.5174 476.25 80.1992 477.081 80.6786C477.912 81.158 478.897 81.3977 480.037 81.3977C480.793 81.3977 481.486 81.2912 482.114 81.0781C482.743 80.8651 483.281 80.5455 483.728 80.1193C484.176 79.6932 484.517 79.1712 484.751 78.5533L491.047 78.9688C490.728 80.4815 490.073 81.8026 489.082 82.9318C488.102 84.0504 486.834 84.924 485.278 85.5526C483.734 86.1705 481.949 86.4794 479.925 86.4794ZM495.634 86V61.4545H502.233V65.7372H502.489C502.937 64.2138 503.688 63.0632 504.742 62.2855C505.797 61.4972 507.011 61.103 508.386 61.103C508.727 61.103 509.094 61.1243 509.488 61.1669C509.883 61.2095 510.229 61.2681 510.527 61.3427V67.3832C510.207 67.2873 509.765 67.2021 509.201 67.1275C508.636 67.0529 508.119 67.0156 507.651 67.0156C506.649 67.0156 505.754 67.234 504.966 67.6708C504.188 68.0969 503.57 68.6935 503.112 69.4606C502.665 70.2276 502.441 71.1119 502.441 72.1133V86H495.634Z" fill="white"/>
</svg>
