<svg width="745" height="140" viewBox="0 0 745 140" fill="none" xmlns="http://www.w3.org/2000/svg">
<rect width="745" height="140" rx="20" fill="#E8362D"/>
<path d="M37.9651 25.3805C38.7759 26.2138 38.764 27.5439 37.9762 28.3992C29.0804 38.057 24.2614 50.4842 24.2614 63.6955C24.2614 77.6086 29.6781 90.6519 39.4281 100.507C49.2503 110.362 62.2502 115.724 76.1168 115.724C89.2831 115.724 101.668 110.825 111.293 101.956C112.148 101.169 113.471 101.159 114.301 101.972C115.148 102.801 115.158 104.168 114.291 104.975C103.872 114.679 90.42 120 76.1168 120C61.0946 120 47.011 114.131 36.4665 103.478C25.8499 92.8987 20 78.768 20 63.6955C20 49.3432 25.3043 35.8449 34.9777 25.3907C35.7809 24.5226 37.1404 24.533 37.9651 25.3805Z" fill="white"/>
<path d="M42.3889 43.1155C44.6999 42.5359 47.8775 42.6086 50.9829 43.0433C54.0099 43.4905 56.9547 44.1901 59.7954 45.1201C62.4173 45.9784 64.0556 48.5167 64.0556 51.2839C64.0556 56.7784 57.7183 60.3023 52.4027 58.9812C50.6324 58.5412 48.808 58.225 46.9387 58.0435C45.4221 57.8261 43.9774 58.9128 43.7607 60.6519C43.544 62.2461 44.7722 63.6957 46.3611 63.8406C52.4999 64.4203 58.1335 66.8112 62.7557 70.2894C71.4945 76.9561 76.6939 87.8982 75.5385 99.6373C75.3731 101.185 75.1027 102.702 74.7391 104.179C73.6898 108.442 69.3917 110.909 65.1192 109.959C64.882 109.906 64.6457 109.851 64.4103 109.796C63.7911 109.649 63.2042 109.391 62.6669 109.049C59.8424 107.252 59.1387 103.493 59.8788 100.221C60.1542 99.0029 60.2998 97.7417 60.2999 96.4493C60.2999 87.9962 54.1255 80.8397 46.0718 79.4327C46.0242 79.4244 45.9757 79.4203 45.9274 79.4203C44.844 79.2754 42.6777 79.0575 41.3056 78.6228C33.8667 76.2315 28.5221 69.2751 28.5221 61.0142C28.5221 56.3766 30.1831 52.1013 33.0719 48.8404C35.5275 46.0868 38.7056 44.0576 42.3889 43.1155Z" fill="white"/>
<path d="M78.4507 81.2894C78.2193 80.7522 78.6389 80.1449 79.2222 80.1449C88.2684 80.1449 96.684 86.0585 96.9009 95.1323C96.9114 95.57 96.9167 96.009 96.9167 96.4493C96.9167 98.1645 96.8289 99.8622 96.6706 101.533C96.3685 104.723 94.2768 107.462 91.2589 108.509C90.9896 108.603 90.7193 108.694 90.4484 108.783C89.2542 109.175 87.9705 109.168 86.7603 108.828L86.6203 108.789C83.0332 107.783 81.0412 104.011 81.3889 100.29C82.0609 93.581 80.9501 87.092 78.4507 81.2894Z" fill="white"/>
<path d="M46.7942 86.1593C50.7664 86.1593 54.0164 89.4202 54.0164 93.4057C54.0164 97.3912 50.7664 100.652 46.7942 100.652C42.8219 100.652 39.5719 97.3912 39.5719 93.4057C39.5719 89.4202 42.8219 86.1593 46.7942 86.1593Z" fill="white"/>
<path d="M112.193 80.1449C114.608 80.1449 116.716 81.8203 117.106 84.212C117.28 85.2827 117.092 86.3902 116.551 87.3295C115.006 90.0118 113.176 92.5327 111.115 94.8134C110.232 95.7898 108.962 96.3042 107.648 96.3042C104.912 96.3042 102.716 94.0751 102.491 91.3394C102.434 90.6448 102.365 89.9536 102.284 89.2659C101.739 84.6247 105.104 80.1449 109.761 80.1449H112.193Z" fill="white"/>
<path d="M50.7739 23.4349C52.5617 22.3149 54.7109 21.9515 56.7827 22.3403C57.4314 22.4621 58.0773 22.5922 58.7203 22.7307C61.9111 23.4177 64.0556 26.3375 64.0556 29.612C64.0556 34.7695 58.8794 38.3581 53.8232 37.4286C51.8851 37.0723 49.9143 36.8102 47.9158 36.6473C45.2285 36.4283 43.0392 34.2564 43.0392 31.5512C43.0392 30.1921 43.5944 28.8853 44.6206 27.9981C46.5559 26.325 48.6119 24.7892 50.7739 23.4349Z" fill="white"/>
<path d="M72.8739 49.1605H72.7222V68.8375C72.7222 70.2575 73.8848 71.4239 75.3 71.4239H95.4927C95.3158 59.1258 85.2573 49.1605 72.8739 49.1605ZM72.8739 32.9321H72.7222V41.2999C89.3768 41.3759 102.923 54.8151 103.1 71.4239H111.743C111.591 50.1748 94.2291 32.9321 72.8739 32.9321ZM124 68.8629V51.0876C118.137 36.6849 106.335 25.2996 91.6513 20H75.3C73.8848 20 72.7222 21.1664 72.7222 22.5864V25.0968C98.3485 25.1728 119.198 45.8895 119.35 71.4493H121.422C122.863 71.4239 124 70.2829 124 68.8629ZM117.252 27.176C119.628 29.5596 122.054 32.5771 124 35.2395V22.5611C124.001 22.2245 123.936 21.891 123.808 21.5798C123.68 21.2686 123.492 20.9859 123.255 20.7479C123.017 20.5099 122.736 20.3213 122.425 20.1929C122.115 20.0646 121.783 19.999 121.447 20H108.432C111.465 22.1046 114.599 24.5135 117.252 27.176Z" fill="white"/>
<path d="M156.844 86V53.2727H178.897V58.9776H163.764V66.7759H177.762V72.4808H163.764V80.2951H178.961V86H156.844ZM202.152 62.685C202.024 61.396 201.476 60.3945 200.506 59.6808C199.537 58.967 198.221 58.6101 196.559 58.6101C195.43 58.6101 194.476 58.7699 193.699 59.0895C192.921 59.3984 192.324 59.8299 191.909 60.3839C191.504 60.9379 191.302 61.5664 191.302 62.2695C191.28 62.8555 191.403 63.3668 191.669 63.8036C191.946 64.2404 192.324 64.6186 192.804 64.9382C193.283 65.2472 193.837 65.5188 194.466 65.7532C195.094 65.9769 195.765 66.1687 196.479 66.3285L199.419 67.0316C200.847 67.3512 202.157 67.7773 203.351 68.31C204.544 68.8427 205.577 69.4979 206.451 70.2756C207.324 71.0533 208.001 71.9695 208.48 73.0241C208.97 74.0788 209.221 75.288 209.231 76.6516C209.221 78.6545 208.709 80.391 207.697 81.8612C206.696 83.3207 205.247 84.4553 203.351 85.2649C201.465 86.0639 199.19 86.4634 196.527 86.4634C193.885 86.4634 191.584 86.0586 189.624 85.2489C187.674 84.4393 186.151 83.2408 185.053 81.6534C183.967 80.0554 183.397 78.0792 183.343 75.7248H190.039C190.114 76.8221 190.428 77.7383 190.982 78.4734C191.547 79.1978 192.298 79.7464 193.235 80.1193C194.183 80.4815 195.254 80.6626 196.447 80.6626C197.619 80.6626 198.636 80.4922 199.499 80.1513C200.373 79.8104 201.049 79.3363 201.529 78.729C202.008 78.1218 202.248 77.424 202.248 76.6357C202.248 75.9006 202.03 75.2827 201.593 74.782C201.167 74.2812 200.538 73.8551 199.707 73.5036C198.887 73.152 197.88 72.8324 196.687 72.5447L193.123 71.6499C190.364 70.9787 188.185 69.9293 186.587 68.5018C184.989 67.0742 184.196 65.1513 184.206 62.733C184.196 60.7514 184.723 59.0202 185.788 57.5394C186.864 56.0586 188.34 54.9027 190.215 54.0717C192.09 53.2408 194.221 52.8253 196.607 52.8253C199.036 52.8253 201.156 53.2408 202.967 54.0717C204.789 54.9027 206.206 56.0586 207.218 57.5394C208.23 59.0202 208.752 60.7354 208.784 62.685H202.152ZM213.885 86V53.2727H226.797C229.28 53.2727 231.394 53.7468 233.142 54.695C234.889 55.6325 236.22 56.9375 237.137 58.6101C238.063 60.272 238.527 62.1896 238.527 64.3629C238.527 66.5362 238.058 68.4538 237.121 70.1158C236.183 71.7777 234.825 73.0721 233.046 73.9989C231.277 74.9258 229.136 75.3892 226.622 75.3892H218.392V69.8441H225.503C226.835 69.8441 227.932 69.6151 228.795 69.157C229.669 68.6882 230.318 68.0437 230.744 67.2234C231.181 66.3924 231.4 65.4389 231.4 64.3629C231.4 63.2763 231.181 62.3281 230.744 61.5185C230.318 60.6982 229.669 60.0643 228.795 59.6168C227.921 59.1587 226.813 58.9297 225.471 58.9297H220.805V86H213.885ZM257.351 66.9357V72.337H242.426V66.9357H257.351ZM290.654 53.2727V86H284.677L270.439 65.4016H270.199V86H263.28V53.2727H269.352L283.479 73.8551H283.767V53.2727H290.654ZM326.445 69.6364C326.445 73.2053 325.769 76.2415 324.416 78.745C323.074 81.2486 321.241 83.1609 318.919 84.4819C316.607 85.7923 314.008 86.4474 311.12 86.4474C308.212 86.4474 305.602 85.7869 303.29 84.4659C300.978 83.1449 299.151 81.2326 297.809 78.729C296.467 76.2255 295.796 73.1946 295.796 69.6364C295.796 66.0675 296.467 63.0312 297.809 60.5277C299.151 58.0241 300.978 56.1172 303.29 54.8068C305.602 53.4858 308.212 52.8253 311.12 52.8253C314.008 52.8253 316.607 53.4858 318.919 54.8068C321.241 56.1172 323.074 58.0241 324.416 60.5277C325.769 63.0312 326.445 66.0675 326.445 69.6364ZM319.43 69.6364C319.43 67.3246 319.084 65.375 318.391 63.7876C317.71 62.2003 316.745 60.9964 315.499 60.1761C314.253 59.3558 312.793 58.9457 311.12 58.9457C309.448 58.9457 307.988 59.3558 306.742 60.1761C305.495 60.9964 304.526 62.2003 303.834 63.7876C303.152 65.375 302.811 67.3246 302.811 69.6364C302.811 71.9482 303.152 73.8977 303.834 75.4851C304.526 77.0724 305.495 78.2763 306.742 79.0966C307.988 79.9169 309.448 80.3271 311.12 80.3271C312.793 80.3271 314.253 79.9169 315.499 79.0966C316.745 78.2763 317.71 77.0724 318.391 75.4851C319.084 73.8977 319.43 71.9482 319.43 69.6364ZM337.707 86L328.343 53.2727H335.902L341.319 76.0124H341.591L347.567 53.2727H354.039L360 76.0604H360.287L365.705 53.2727H373.263L363.899 86H357.155L350.923 64.6026H350.667L344.451 86H337.707ZM387.382 53.2727H395.915L404.928 75.2614H405.311L414.324 53.2727H422.857V86H416.146V64.6985H415.874L407.405 85.8402H402.834L394.365 64.6186H394.093V86H387.382V53.2727ZM440.911 74.6222H446.792L449.748 78.4254L452.656 81.8132L458.138 88.6847H451.682L447.91 84.0504L445.977 81.3018L440.911 74.6222ZM458.633 69.6364C458.633 73.2053 457.956 76.2415 456.603 78.745C455.261 81.2486 453.429 83.1609 451.106 84.4819C448.794 85.7923 446.195 86.4474 443.308 86.4474C440.4 86.4474 437.79 85.7869 435.478 84.4659C433.166 83.1449 431.339 81.2326 429.997 78.729C428.654 76.2255 427.983 73.1946 427.983 69.6364C427.983 66.0675 428.654 63.0312 429.997 60.5277C431.339 58.0241 433.166 56.1172 435.478 54.8068C437.79 53.4858 440.4 52.8253 443.308 52.8253C446.195 52.8253 448.794 53.4858 451.106 54.8068C453.429 56.1172 455.261 58.0241 456.603 60.5277C457.956 63.0312 458.633 66.0675 458.633 69.6364ZM451.618 69.6364C451.618 67.3246 451.271 65.375 450.579 63.7876C449.897 62.2003 448.933 60.9964 447.687 60.1761C446.44 59.3558 444.981 58.9457 443.308 58.9457C441.635 58.9457 440.176 59.3558 438.929 60.1761C437.683 60.9964 436.714 62.2003 436.021 63.7876C435.339 65.375 434.998 67.3246 434.998 69.6364C434.998 71.9482 435.339 73.8977 436.021 75.4851C436.714 77.0724 437.683 78.2763 438.929 79.0966C440.176 79.9169 441.635 80.3271 443.308 80.3271C444.981 80.3271 446.44 79.9169 447.687 79.0966C448.933 78.2763 449.897 77.0724 450.579 75.4851C451.271 73.8977 451.618 71.9482 451.618 69.6364ZM461.018 58.9776V53.2727H487.896V58.9776H477.877V86H471.037V58.9776H461.018ZM491.077 58.9776V53.2727H517.955V58.9776H507.936V86H501.096V58.9776H491.077ZM554.498 63.8516C554.274 63.0739 553.96 62.3867 553.555 61.7901C553.15 61.1829 552.655 60.6715 552.069 60.256C551.493 59.8299 550.833 59.505 550.087 59.2812C549.352 59.0575 548.537 58.9457 547.642 58.9457C545.97 58.9457 544.499 59.3612 543.232 60.1921C541.975 61.0231 540.994 62.2322 540.291 63.8196C539.588 65.3963 539.237 67.3246 539.237 69.6044C539.237 71.8842 539.583 73.8232 540.275 75.4212C540.968 77.0192 541.948 78.239 543.216 79.0806C544.483 79.9116 545.98 80.3271 547.706 80.3271C549.272 80.3271 550.609 80.0501 551.717 79.4961C552.836 78.9315 553.688 78.1378 554.274 77.1151C554.87 76.0923 555.169 74.8832 555.169 73.4876L556.575 73.6953H548.138V68.4858H561.832V72.6087C561.832 75.4851 561.225 77.9567 560.011 80.0234C558.796 82.0795 557.124 83.6669 554.993 84.7855C552.862 85.8935 550.423 86.4474 547.674 86.4474C544.606 86.4474 541.911 85.771 539.588 84.418C537.266 83.0543 535.455 81.1207 534.155 78.6172C532.866 76.103 532.221 73.12 532.221 69.6683C532.221 67.0156 532.605 64.6506 533.372 62.5732C534.15 60.4851 535.236 58.7166 536.632 57.2678C538.027 55.8189 539.652 54.7163 541.506 53.9599C543.359 53.2035 545.368 52.8253 547.53 52.8253C549.384 52.8253 551.11 53.0969 552.708 53.6403C554.306 54.1729 555.723 54.9293 556.959 55.9094C558.205 56.8896 559.222 58.0561 560.011 59.4091C560.799 60.7514 561.305 62.2322 561.529 63.8516H554.498ZM573.901 86.4634C572.335 86.4634 570.94 86.1918 569.715 85.6484C568.49 85.0945 567.52 84.2795 566.806 83.2035C566.103 82.1168 565.752 80.7638 565.752 79.1445C565.752 77.7809 566.002 76.6357 566.503 75.7088C567.003 74.782 567.685 74.0362 568.548 73.4716C569.411 72.907 570.391 72.4808 571.488 72.1932C572.596 71.9055 573.758 71.7031 574.972 71.5859C576.4 71.4368 577.55 71.2983 578.424 71.1705C579.297 71.032 579.931 70.8295 580.325 70.5632C580.72 70.2969 580.917 69.9027 580.917 69.3807V69.2848C580.917 68.2727 580.597 67.4897 579.958 66.9357C579.329 66.3817 578.434 66.1048 577.273 66.1048C576.048 66.1048 575.073 66.3764 574.349 66.9197C573.624 67.4524 573.145 68.1236 572.911 68.9332L566.615 68.4219C566.934 66.9304 567.563 65.6413 568.5 64.5547C569.438 63.4574 570.647 62.6158 572.128 62.0298C573.619 61.4332 575.345 61.1349 577.305 61.1349C578.669 61.1349 579.974 61.2947 581.22 61.6143C582.477 61.9339 583.591 62.4293 584.56 63.1005C585.54 63.7717 586.313 64.6346 586.877 65.6893C587.442 66.7333 587.724 67.9851 587.724 69.4446V86H581.268V82.5962H581.077C580.682 83.3633 580.155 84.0398 579.494 84.6257C578.834 85.201 578.04 85.6538 577.113 85.984C576.187 86.3036 575.116 86.4634 573.901 86.4634ZM575.851 81.7653C576.852 81.7653 577.737 81.5682 578.504 81.174C579.271 80.7692 579.873 80.2259 580.309 79.544C580.746 78.8622 580.965 78.0898 580.965 77.2269V74.6222C580.752 74.7607 580.459 74.8885 580.086 75.0057C579.724 75.1122 579.313 75.2134 578.855 75.3093C578.397 75.3945 577.939 75.4744 577.481 75.549C577.023 75.6129 576.607 75.6715 576.235 75.7248C575.436 75.842 574.738 76.0284 574.141 76.2841C573.545 76.5398 573.081 76.886 572.751 77.3228C572.421 77.7489 572.256 78.2816 572.256 78.9208C572.256 79.8477 572.591 80.5561 573.262 81.0462C573.944 81.5256 574.807 81.7653 575.851 81.7653ZM606.061 61.4545V66.5682H591.28V61.4545H606.061ZM594.636 55.5739H601.443V78.4574C601.443 79.0859 601.539 79.576 601.731 79.9276C601.923 80.2685 602.189 80.5082 602.53 80.6467C602.881 80.7852 603.286 80.8544 603.744 80.8544C604.064 80.8544 604.384 80.8278 604.703 80.7745C605.023 80.7106 605.268 80.6626 605.438 80.6307L606.509 85.6964C606.168 85.8029 605.689 85.9254 605.071 86.0639C604.453 86.2131 603.702 86.3036 602.817 86.3356C601.177 86.3995 599.739 86.1811 598.503 85.6804C597.278 85.1797 596.324 84.402 595.642 83.3473C594.961 82.2926 594.625 80.9609 594.636 79.3523V55.5739ZM621.418 86.4794C618.893 86.4794 616.72 85.968 614.898 84.9453C613.087 83.9119 611.692 82.4524 610.712 80.5668C609.732 78.6705 609.241 76.4279 609.241 73.8391C609.241 71.3143 609.732 69.0984 610.712 67.1914C611.692 65.2844 613.071 63.7983 614.85 62.733C616.64 61.6676 618.739 61.1349 621.147 61.1349C622.766 61.1349 624.273 61.396 625.669 61.918C627.075 62.4293 628.3 63.2017 629.344 64.2351C630.399 65.2685 631.219 66.5682 631.805 68.1342C632.391 69.6896 632.684 71.5114 632.684 73.5994V75.4691H611.958V71.2504H626.276C626.276 70.2702 626.063 69.402 625.637 68.6456C625.211 67.8892 624.62 67.2979 623.863 66.8718C623.118 66.435 622.249 66.2166 621.259 66.2166C620.225 66.2166 619.309 66.4563 618.51 66.9357C617.722 67.4045 617.104 68.0384 616.656 68.8374C616.209 69.6257 615.98 70.5046 615.969 71.4741V75.4851C615.969 76.6996 616.193 77.7489 616.64 78.6332C617.098 79.5174 617.743 80.1992 618.574 80.6786C619.405 81.158 620.39 81.3977 621.53 81.3977C622.287 81.3977 622.979 81.2912 623.608 81.0781C624.236 80.8651 624.774 80.5455 625.222 80.1193C625.669 79.6932 626.01 79.1712 626.244 78.5533L632.54 78.9688C632.221 80.4815 631.566 81.8026 630.575 82.9318C629.595 84.0504 628.327 84.924 626.772 85.5526C625.227 86.1705 623.442 86.4794 621.418 86.4794ZM641.793 86L635.113 61.4545H642.001L645.804 77.946H646.028L649.991 61.4545H656.75L660.777 77.8501H660.985L664.724 61.4545H671.596L664.932 86H657.725L653.506 70.5632H653.203L648.984 86H641.793ZM682.227 86.4634C680.661 86.4634 679.265 86.1918 678.04 85.6484C676.815 85.0945 675.845 84.2795 675.131 83.2035C674.428 82.1168 674.077 80.7638 674.077 79.1445C674.077 77.7809 674.327 76.6357 674.828 75.7088C675.329 74.782 676.01 74.0362 676.873 73.4716C677.736 72.907 678.716 72.4808 679.814 72.1932C680.922 71.9055 682.083 71.7031 683.297 71.5859C684.725 71.4368 685.875 71.2983 686.749 71.1705C687.623 71.032 688.256 70.8295 688.651 70.5632C689.045 70.2969 689.242 69.9027 689.242 69.3807V69.2848C689.242 68.2727 688.922 67.4897 688.283 66.9357C687.655 66.3817 686.76 66.1048 685.598 66.1048C684.373 66.1048 683.399 66.3764 682.674 66.9197C681.95 67.4524 681.47 68.1236 681.236 68.9332L674.94 68.4219C675.259 66.9304 675.888 65.6413 676.825 64.5547C677.763 63.4574 678.972 62.6158 680.453 62.0298C681.944 61.4332 683.67 61.1349 685.63 61.1349C686.994 61.1349 688.299 61.2947 689.546 61.6143C690.803 61.9339 691.916 62.4293 692.885 63.1005C693.866 63.7717 694.638 64.6346 695.203 65.6893C695.767 66.7333 696.049 67.9851 696.049 69.4446V86H689.593V82.5962H689.402C689.008 83.3633 688.48 84.0398 687.82 84.6257C687.159 85.201 686.366 85.6538 685.439 85.984C684.512 86.3036 683.441 86.4634 682.227 86.4634ZM684.176 81.7653C685.178 81.7653 686.062 81.5682 686.829 81.174C687.596 80.7692 688.198 80.2259 688.635 79.544C689.071 78.8622 689.29 78.0898 689.29 77.2269V74.6222C689.077 74.7607 688.784 74.8885 688.411 75.0057C688.049 75.1122 687.639 75.2134 687.18 75.3093C686.722 75.3945 686.264 75.4744 685.806 75.549C685.348 75.6129 684.933 75.6715 684.56 75.7248C683.761 75.842 683.063 76.0284 682.466 76.2841C681.87 76.5398 681.406 76.886 681.076 77.3228C680.746 77.7489 680.581 78.2816 680.581 78.9208C680.581 79.8477 680.916 80.5561 681.587 81.0462C682.269 81.5256 683.132 81.7653 684.176 81.7653ZM704.655 95.2045C703.792 95.2045 702.982 95.1353 702.226 94.9968C701.48 94.869 700.862 94.7038 700.372 94.5014L701.906 89.4197C702.705 89.6648 703.424 89.7979 704.063 89.8192C704.713 89.8406 705.273 89.6914 705.741 89.3718C706.221 89.0522 706.61 88.5089 706.908 87.7418L707.307 86.7031L698.502 61.4545H705.661L710.743 79.4801H710.999L716.128 61.4545H723.335L713.795 88.6527C713.337 89.9737 712.714 91.1243 711.926 92.1044C711.148 93.0952 710.163 93.8569 708.969 94.3896C707.776 94.9329 706.338 95.2045 704.655 95.2045Z" fill="white"/>
</svg>
