<svg width="140" height="140" viewBox="0 0 140 140" fill="none" xmlns="http://www.w3.org/2000/svg">
<rect width="140" height="140" rx="20" fill="#E8362D"/>
<path d="M36.9545 23.2623C37.7874 24.1142 37.7752 25.4741 36.9659 26.3485C27.8277 36.2225 22.8775 48.9279 22.8775 62.435C22.8775 76.6596 28.4417 89.9949 38.4573 100.071C48.5471 110.146 61.9011 115.629 76.1455 115.629C89.6705 115.629 102.393 110.619 112.28 101.552C113.158 100.747 114.518 100.737 115.37 101.569C116.24 102.416 116.25 103.813 115.36 104.639C104.657 114.56 90.8383 120 76.1455 120C60.7141 120 46.2468 113.999 35.4151 103.109C24.5092 92.292 18.5 77.8449 18.5 62.435C18.5 47.7614 23.9488 33.9609 33.8857 23.2727C34.7108 22.3852 36.1073 22.3958 36.9545 23.2623Z" fill="white"/>
<path d="M41.4988 41.3943C43.8728 40.8017 47.137 40.8761 50.3269 41.3205C53.4364 41.7777 56.4614 42.493 59.3795 43.4438C62.0729 44.3213 63.7557 46.9164 63.7557 49.7456C63.7557 55.3631 57.2458 58.9658 51.7854 57.6152C49.9669 57.1653 48.0927 56.842 46.1726 56.6565C44.6146 56.4342 43.1306 57.5452 42.908 59.3233C42.6854 60.9532 43.9471 62.4352 45.5792 62.5834C51.8853 63.1761 57.6723 65.6205 62.4204 69.1766C71.3973 75.9925 76.7384 87.1796 75.5514 99.1814C75.3816 100.764 75.1038 102.315 74.7303 103.825C73.6524 108.183 69.2372 110.705 64.8483 109.734C64.6046 109.68 64.3619 109.624 64.1201 109.567C63.4841 109.417 62.8812 109.153 62.3292 108.804C59.4278 106.966 58.7049 103.124 59.4651 99.7781C59.7481 98.5329 59.8977 97.2435 59.8977 95.9221C59.8977 87.2797 53.5552 79.963 45.2821 78.5245C45.2331 78.516 45.1833 78.5118 45.1337 78.5118C44.0207 78.3637 41.7955 78.1409 40.386 77.6965C32.7444 75.2516 27.2542 68.1395 27.2542 59.6937C27.2543 54.9523 28.9605 50.5812 31.928 47.2474C34.4505 44.4321 37.7151 42.3574 41.4988 41.3943Z" fill="white"/>
<path d="M78.543 80.4228C78.3053 79.8735 78.7363 79.2527 79.3355 79.2527C88.6281 79.2527 97.273 85.2987 97.4959 94.5756C97.5066 95.0231 97.512 95.4719 97.512 95.9221C97.512 97.6757 97.4218 99.4113 97.2592 101.12C96.949 104.381 94.8002 107.181 91.7002 108.252C91.4234 108.347 91.1458 108.441 90.8676 108.532C89.6408 108.933 88.3221 108.925 87.079 108.578L86.9351 108.538C83.2503 107.509 81.2041 103.653 81.5612 99.8485C82.2515 92.9895 81.1105 86.3553 78.543 80.4228Z" fill="white"/>
<path d="M46.0241 85.4017C50.1045 85.4017 53.443 88.7356 53.443 92.8103C53.443 96.885 50.1045 100.219 46.0241 100.219C41.9436 100.219 38.6051 96.885 38.6051 92.8103C38.6051 88.7356 41.9437 85.4017 46.0241 85.4017Z" fill="white"/>
<path d="M113.204 79.2527C115.685 79.2527 117.851 80.9656 118.251 83.4108C118.43 84.5055 118.237 85.6378 117.682 86.5981C116.094 89.3404 114.215 91.9178 112.097 94.2495C111.19 95.2479 109.886 95.7737 108.536 95.7737C105.725 95.7737 103.469 93.4947 103.238 90.6977C103.179 89.9877 103.108 89.281 103.026 88.5778C102.466 83.8328 105.922 79.2527 110.706 79.2527H113.204Z" fill="white"/>
<path d="M50.1122 21.2731C51.9488 20.1281 54.1565 19.7565 56.2847 20.154C56.9511 20.2785 57.6146 20.4116 58.2751 20.5531C61.5529 21.2556 63.7557 24.2407 63.7557 27.5885C63.7557 32.8615 58.4385 36.5304 53.2446 35.5801C51.2537 35.2158 49.2293 34.9479 47.1763 34.7813C44.4158 34.5574 42.1668 32.3369 42.1668 29.5711C42.1668 28.1816 42.7372 26.8455 43.7913 25.9385C45.7794 24.2279 47.8914 22.6577 50.1122 21.2731Z" fill="white"/>
<path d="M114.823 59.4964C114.823 56.8369 112.664 54.6808 110.001 54.6808C107.337 54.6808 105.178 56.8369 105.178 59.4964C105.178 62.156 107.337 64.312 110.001 64.312C112.664 64.312 114.823 62.156 114.823 59.4964ZM121.5 59.4964C121.5 65.8385 116.352 70.9798 110.001 70.9798C103.65 70.9798 98.5012 65.8385 98.5012 59.4964C98.5012 53.1544 103.65 48.0131 110.001 48.0131C116.352 48.0131 121.5 53.1544 121.5 59.4964Z" fill="white"/>
<path d="M87.6201 32.3316C87.6201 29.672 85.461 27.516 82.7977 27.516C80.1344 27.516 77.9754 29.672 77.9754 32.3316C77.9754 34.9912 80.1344 37.1472 82.7977 37.1472C85.461 37.1472 87.6201 34.9912 87.6201 32.3316ZM94.2971 32.3316C94.2971 38.6736 89.1487 43.8149 82.7977 43.8149C76.4468 43.8149 71.2983 38.6736 71.2983 32.3316C71.2983 25.9895 76.4468 20.8482 82.7977 20.8482C89.1487 20.8482 94.2971 25.9895 94.2971 32.3316Z" fill="white"/>
<path d="M118.78 32.3316C118.78 30.4903 117.285 28.9977 115.441 28.9977H93.805C94.125 30.0528 94.2971 31.1721 94.2971 32.3316C94.2971 33.491 94.125 34.6103 93.805 35.6654H115.441C117.285 35.6654 118.78 34.1728 118.78 32.3316Z" fill="white"/>
<path d="M77.3571 62.8303H98.9933C98.6733 61.7752 98.5012 60.6559 98.5012 59.4964C98.5012 58.337 98.6733 57.2177 98.9933 56.1626H77.3571C75.5133 56.1626 74.0186 57.6552 74.0186 59.4964C74.0186 61.3377 75.5133 62.8303 77.3571 62.8303Z" fill="white"/>
</svg>
