<svg width="292" height="140" viewBox="0 0 292 140" fill="none" xmlns="http://www.w3.org/2000/svg">
<rect width="291.15" height="140" rx="20" fill="black"/>
<path d="M72.6699 56.7634C73.5789 55.4236 74.5739 55.2533 75.3811 55.2533C76.1883 55.2533 77.5331 55.4236 78.4424 56.7634C85.6073 66.6047 97.4341 86.209 106.158 100.67C111.848 110.101 116.217 117.344 117.114 118.266C120.479 121.726 125.095 119.57 127.777 115.645C130.417 111.78 131.15 109.067 131.15 106.172C131.15 104.201 92.8968 33.0564 89.0443 27.1345C85.3394 21.4387 84.1327 20 77.7917 20H73.0467C66.7245 20 65.8109 21.4387 62.1057 27.1345C58.2536 33.0564 20 104.201 20 106.172C20 109.067 20.733 111.78 23.3735 115.645C26.0555 119.57 30.6711 121.726 34.0364 118.266C34.933 117.344 39.3028 110.101 44.9921 100.67C53.7161 86.209 65.505 66.6047 72.6699 56.7634Z" fill="white"/>
<path d="M163.995 86V53.2727H186.047V58.9776H170.914V66.7759H184.913V72.4808H170.914V80.2951H186.111V86H163.995ZM197.109 61.4545L201.616 70.0359L206.234 61.4545H213.217L206.106 73.7273L213.409 86H206.458L201.616 77.5146L196.854 86H189.822L197.109 73.7273L190.078 61.4545H197.109ZM217.26 95.2045V61.4545H223.972V65.5774H224.276C224.574 64.9169 225.005 64.2457 225.57 63.5639C226.145 62.8714 226.891 62.2962 227.807 61.8381C228.734 61.3693 229.885 61.1349 231.259 61.1349C233.049 61.1349 234.7 61.6037 236.213 62.5412C237.726 63.468 238.935 64.869 239.84 66.744C240.746 68.6083 241.199 70.9467 241.199 73.7592C241.199 76.4972 240.756 78.8089 239.872 80.6946C238.999 82.5696 237.805 83.9918 236.293 84.9613C234.791 85.9201 233.107 86.3995 231.243 86.3995C229.922 86.3995 228.798 86.1811 227.871 85.7443C226.955 85.3075 226.204 84.7589 225.618 84.0984C225.032 83.4272 224.585 82.7507 224.276 82.0689H224.068V95.2045H217.26ZM223.924 73.7273C223.924 75.1868 224.126 76.4599 224.531 77.5465C224.936 78.6332 225.522 79.4801 226.289 80.0874C227.056 80.6839 227.988 80.9822 229.086 80.9822C230.194 80.9822 231.131 80.6786 231.898 80.0714C232.665 79.4535 233.246 78.6012 233.64 77.5146C234.045 76.4173 234.247 75.1548 234.247 73.7273C234.247 72.3104 234.05 71.0639 233.656 69.9879C233.262 68.9119 232.681 68.0703 231.914 67.4631C231.147 66.8558 230.204 66.5522 229.086 66.5522C227.978 66.5522 227.04 66.8452 226.273 67.4311C225.517 68.017 224.936 68.848 224.531 69.924C224.126 71 223.924 72.2678 223.924 73.7273ZM256.827 86.4794C254.345 86.4794 252.198 85.9521 250.387 84.8974C248.587 83.832 247.196 82.3512 246.216 80.4549C245.236 78.5479 244.746 76.3374 244.746 73.8232C244.746 71.2876 245.236 69.0717 246.216 67.1754C247.196 65.2685 248.587 63.7876 250.387 62.733C252.198 61.6676 254.345 61.1349 256.827 61.1349C259.309 61.1349 261.451 61.6676 263.251 62.733C265.062 63.7876 266.458 65.2685 267.438 67.1754C268.418 69.0717 268.908 71.2876 268.908 73.8232C268.908 76.3374 268.418 78.5479 267.438 80.4549C266.458 82.3512 265.062 83.832 263.251 84.8974C261.451 85.9521 259.309 86.4794 256.827 86.4794ZM256.859 81.206C257.988 81.206 258.931 80.8864 259.688 80.2472C260.444 79.5973 261.014 78.7131 261.397 77.5945C261.792 76.4759 261.989 75.2028 261.989 73.7752C261.989 72.3477 261.792 71.0746 261.397 69.956C261.014 68.8374 260.444 67.9531 259.688 67.3033C258.931 66.6534 257.988 66.3285 256.859 66.3285C255.719 66.3285 254.76 66.6534 253.983 67.3033C253.216 67.9531 252.635 68.8374 252.241 69.956C251.857 71.0746 251.666 72.3477 251.666 73.7752C251.666 75.2028 251.857 76.4759 252.241 77.5945C252.635 78.7131 253.216 79.5973 253.983 80.2472C254.76 80.8864 255.719 81.206 256.859 81.206Z" fill="white"/>
</svg>
