<svg width="140" height="140" viewBox="0 0 140 140" fill="none" xmlns="http://www.w3.org/2000/svg">
<rect width="140" height="140" rx="20" fill="black"/>
<path d="M67.0948 56.7634C68.0038 55.4236 68.9988 55.2533 69.8061 55.2533C70.6133 55.2533 71.958 55.4236 72.8673 56.7634C80.0322 66.6047 91.859 86.209 100.583 100.67C106.272 110.101 110.642 117.344 111.539 118.266C114.904 121.726 119.52 119.57 122.202 115.645C124.842 111.78 125.575 109.067 125.575 106.172C125.575 104.201 87.3217 33.0564 83.4692 27.1345C79.7644 21.4387 78.5576 20 72.2167 20H67.4716C61.1494 20 60.2359 21.4387 56.5307 27.1345C52.6785 33.0564 14.4249 104.201 14.4249 106.172C14.4249 109.067 15.1579 111.78 17.7984 115.645C20.4804 119.57 25.096 121.726 28.4613 118.266C29.3579 117.344 33.7277 110.101 39.417 100.67C48.1411 86.209 59.9299 66.6047 67.0948 56.7634Z" fill="white"/>
</svg>
