<svg width="140" height="140" viewBox="0 0 140 140" fill="none" xmlns="http://www.w3.org/2000/svg">
<rect width="140" height="140" rx="20" fill="#049688"/>
<path d="M64.3802 119.665C62.8936 119.488 61.3344 119.26 60.9165 119.157C60.3015 119.011 59.6829 118.881 59.0613 118.767C58.3513 118.629 57.647 118.464 56.9498 118.273C53.7119 117.345 53.4798 117.27 51.0387 116.272C48.7929 115.358 44.6551 113.221 43.2396 112.249C42.8521 111.981 42.4897 111.764 42.4342 111.764C42.3795 111.764 41.4734 111.128 40.4204 110.35C33.7258 105.4 28.6998 99.391 25.0682 91.9901C24.4433 90.7189 23.9332 89.5912 23.9332 89.4851C23.9332 89.3805 23.8207 89.091 23.6832 88.8476C23.3996 88.3411 22.9958 87.2502 22.67 86.1225C22.53 85.6434 22.367 85.1713 22.1818 84.7078C22.0295 84.3488 21.9068 83.9118 21.9068 83.7354C21.9068 83.5583 21.7545 82.9824 21.5686 82.4517C21.3827 81.925 21.2327 81.303 21.2327 81.0705C21.2327 80.8395 21.0866 80.0404 20.9061 79.2944C20.4671 77.4528 20 72.6824 20 70.0089C20 67.3385 20.4671 62.5682 20.9061 60.7273C21.0858 59.9805 21.2327 59.1666 21.2327 58.9169C21.2327 58.6664 21.3459 58.1755 21.4826 57.8244C21.6233 57.4748 21.8029 56.8466 21.8857 56.4291C21.9717 56.0116 22.1669 55.2921 22.3255 54.8255L22.7864 53.4786C23.1247 52.4696 23.4387 51.6159 23.5887 51.2834C23.6746 51.0977 24.0097 50.3392 24.3362 49.5978C24.8643 48.4 25.9962 46.1409 26.6578 44.9586C26.8992 44.5255 26.9906 44.3819 28.2967 42.3428C30.366 39.1059 33.9023 35.0785 37.1942 32.2075C38.3542 31.1954 42.2295 28.2566 42.4037 28.2566C42.4522 28.2566 42.8178 28.0373 43.2185 27.7689C44.2707 27.065 45.3026 26.4672 46.6478 25.7938C47.1307 25.5552 47.6088 25.3073 48.082 25.0501C48.3046 24.9221 48.7226 24.7301 50.8684 23.7703C51.341 23.5596 51.8503 23.3676 53.3181 22.8549C53.6415 22.7426 54.2915 22.5046 54.7555 22.3305C55.2226 22.1573 55.7718 22.0137 55.9764 22.0137C56.178 22.0137 56.7084 21.8733 57.1544 21.7C57.5997 21.526 58.4082 21.3278 58.9542 21.2607C59.4979 21.1967 60.2205 21.0445 60.5595 20.9251C60.8954 20.8096 61.8172 20.6598 62.6069 20.5935C63.6363 20.5006 64.6628 20.3796 65.6855 20.2306C67.7853 19.9231 72.3504 19.9231 74.4283 20.2306C75.4097 20.3713 76.3946 20.4871 77.3819 20.5779C78.1263 20.6395 79.0754 20.7948 79.4933 20.9228C79.9113 21.0476 80.6346 21.2037 81.0986 21.2607C81.5626 21.3223 82.3438 21.5143 82.8344 21.6906C83.3265 21.8701 83.8843 22.0137 84.0764 22.0137C84.2686 22.0137 84.6654 22.1206 84.9552 22.2548C85.2482 22.3859 85.8676 22.6052 86.3348 22.7426C86.7988 22.883 87.5948 23.1601 88.108 23.3645C88.6173 23.5682 89.3008 23.8366 89.6274 23.9584C90.2289 24.1847 94.6737 26.4064 95.2783 26.7848C100.185 29.8415 102.709 31.8384 106.102 35.3407C110.194 39.5655 112.91 43.5891 115.674 49.512C115.87 49.9303 116.168 50.5491 116.339 50.8839C116.507 51.2226 116.648 51.619 116.648 51.7657C116.648 51.9139 116.788 52.3588 116.962 52.756C117.432 53.8352 117.834 55.0635 118.024 56.0022C118.118 56.4627 118.292 57.0323 118.411 57.2672C118.53 57.5013 118.67 58.0967 118.726 58.5845C118.78 59.0714 118.942 59.8705 119.08 60.3551C119.876 63.1105 120.272 71.2286 119.79 74.819C119.647 75.8858 119.486 77.1757 119.431 77.6845C119.339 78.5562 118.878 80.8091 118.484 82.3238L118.078 83.9274C117.313 87.0153 115.421 91.4142 113.111 95.4837C112.195 97.0991 109.126 101.468 108.546 101.979C108.494 102.025 108.235 102.331 107.972 102.653C107.71 102.979 106.868 103.891 106.105 104.677C102.745 108.143 100.036 110.286 95.2783 113.237C94.7143 113.587 89.9297 115.922 89.0352 116.285C88.5712 116.471 87.7963 116.784 87.3143 116.979C86.8355 117.172 86.3012 117.334 86.1332 117.337C85.9653 117.339 85.5231 117.489 85.1505 117.669C84.7787 117.848 84.3053 117.998 84.0952 118.001C83.8874 118.004 83.2804 118.151 82.7461 118.327C82.2126 118.507 81.4705 118.699 81.0978 118.756C80.726 118.815 79.93 118.973 79.3254 119.108C78.7216 119.242 76.896 119.504 75.2735 119.69C71.6542 120.111 67.9976 120.103 64.3802 119.665ZM68.054 109.911C68.2883 109.728 68.5297 109.365 68.5938 109.11C68.7344 108.545 91.4303 63.0918 91.8576 62.5221C92.2177 62.0407 92.2513 61.2697 91.9216 60.9981C91.7482 60.8522 89.575 60.8061 83.7741 60.8155C79.423 60.8249 75.7649 60.828 75.6453 60.8249C75.4688 60.8186 75.4321 57.9141 75.45 45.4736C75.4625 37.0325 75.4227 30.0491 75.3618 29.9523C75.3008 29.854 75.0626 29.7752 74.8306 29.7752C74.5041 29.7752 74.3517 29.9156 74.151 30.4057C73.7721 31.3172 72.7253 33.3867 67.6298 43.2699C66.5714 45.3209 65.5155 47.3733 64.4622 49.4269C63.5592 51.1921 62.1343 53.9632 61.3008 55.584C59.0573 59.9409 56.8185 64.3003 54.5844 68.662C50.7309 76.1816 50.2646 77.0782 50.099 77.2764C49.7787 77.6635 49.6045 78.5562 49.7849 78.8917C49.949 79.1992 50.2763 79.2117 58.4113 79.1992C63.0616 79.1937 66.8971 79.2179 66.9369 79.2538C67.044 79.3639 67.0041 108.369 66.894 109.06C66.8213 109.515 66.8698 109.755 67.0775 109.963C67.4369 110.322 67.5353 110.319 68.054 109.911Z" fill="white"/>
</svg>
