<svg width="272" height="140" viewBox="0 0 272 140" fill="none" xmlns="http://www.w3.org/2000/svg">
<rect width="271.667" height="140" rx="20" fill="#444444"/>
<path d="M36.6667 120C45.8667 120 53.3334 112.533 53.3334 103.333V86.6662H36.6667C27.4667 86.6662 20 94.1329 20 103.333C20 112.533 27.4667 120 36.6667 120Z" fill="#0ACF83"/>
<path d="M20 69.9994C20 60.7994 27.4667 53.3327 36.6667 53.3327H53.3334V86.6662H36.6667C27.4667 86.6662 20 79.1994 20 69.9994Z" fill="#A259FF"/>
<path d="M20 36.6661C20 27.4662 27.4667 19.9995 36.6667 19.9995H53.3334V53.3327H36.6667C27.4667 53.3327 20 45.8661 20 36.6661Z" fill="#F24E1E"/>
<path d="M53.3334 19.9995H70.0001C79.2001 19.9995 86.6668 27.4662 86.6668 36.6661C86.6668 45.8661 79.2001 53.3328 70.0001 53.3328L53.3334 53.3327V19.9995Z" fill="#FF7262"/>
<path d="M86.6668 69.9994C86.6668 79.1994 79.2001 86.666 70.0001 86.666C60.8001 86.666 53.3334 79.1994 53.3334 69.9994C53.3334 60.7994 60.8001 53.3328 70.0001 53.3328C79.2001 53.3328 86.6668 60.7994 86.6668 69.9994Z" fill="#1ABCFE"/>
<path d="M119.511 86V53.2727H141.18V58.9776H126.431V66.7759H139.742V72.4808H126.431V86H119.511ZM145.707 86V61.4545H152.514V86H145.707ZM149.126 58.2905C148.114 58.2905 147.246 57.9549 146.522 57.2837C145.808 56.6019 145.451 55.7869 145.451 54.8388C145.451 53.9013 145.808 53.0969 146.522 52.4258C147.246 51.744 148.114 51.4031 149.126 51.4031C150.138 51.4031 151.001 51.744 151.715 52.4258C152.44 53.0969 152.802 53.9013 152.802 54.8388C152.802 55.7869 152.44 56.6019 151.715 57.2837C151.001 57.9549 150.138 58.2905 149.126 58.2905ZM169.026 95.7159C166.82 95.7159 164.929 95.4123 163.353 94.805C161.787 94.2085 160.54 93.3935 159.613 92.3601C158.687 91.3267 158.085 90.1655 157.808 88.8764L164.104 88.0295C164.296 88.5195 164.599 88.9776 165.015 89.4038C165.43 89.8299 165.979 90.1708 166.661 90.4265C167.353 90.6928 168.195 90.826 169.185 90.826C170.666 90.826 171.886 90.4638 172.845 89.7393C173.814 89.0256 174.299 87.8271 174.299 86.1438V81.6534H174.011C173.713 82.3352 173.266 82.9798 172.669 83.587C172.073 84.1942 171.305 84.6896 170.368 85.0732C169.43 85.4567 168.312 85.6484 167.012 85.6484C165.169 85.6484 163.491 85.2223 161.978 84.37C160.476 83.5071 159.278 82.1914 158.383 80.4229C157.499 78.6438 157.057 76.396 157.057 73.6793C157.057 70.8988 157.509 68.5763 158.415 66.712C159.32 64.8477 160.524 63.4521 162.026 62.5252C163.539 61.5984 165.196 61.1349 166.996 61.1349C168.37 61.1349 169.521 61.3693 170.448 61.8381C171.375 62.2962 172.12 62.8714 172.685 63.5639C173.26 64.2457 173.702 64.9169 174.011 65.5774H174.267V61.4545H181.027V86.2397C181.027 88.3278 180.515 90.0749 179.493 91.4812C178.47 92.8874 177.053 93.9421 175.242 94.6452C173.441 95.359 171.369 95.7159 169.026 95.7159ZM169.169 80.5348C170.267 80.5348 171.194 80.2631 171.95 79.7198C172.717 79.1658 173.303 78.3775 173.708 77.3548C174.123 76.3214 174.331 75.0856 174.331 73.6474C174.331 72.2092 174.129 70.9627 173.724 69.908C173.319 68.8427 172.733 68.017 171.966 67.4311C171.199 66.8452 170.267 66.5522 169.169 66.5522C168.051 66.5522 167.108 66.8558 166.341 67.4631C165.574 68.0597 164.993 68.8906 164.599 69.956C164.205 71.0213 164.008 72.2518 164.008 73.6474C164.008 75.0643 164.205 76.2894 164.599 77.3228C165.004 78.3455 165.585 79.1392 166.341 79.7038C167.108 80.2578 168.051 80.5348 169.169 80.5348ZM186.444 86V61.4545H192.932V65.7852H193.22C193.731 64.3469 194.583 63.2124 195.776 62.3814C196.97 61.5504 198.397 61.1349 200.059 61.1349C201.742 61.1349 203.175 61.5558 204.358 62.3974C205.54 63.2283 206.329 64.3576 206.723 65.7852H206.978C207.479 64.3789 208.385 63.255 209.695 62.4134C211.016 61.5611 212.577 61.1349 214.377 61.1349C216.668 61.1349 218.527 61.8647 219.954 63.3242C221.392 64.7731 222.112 66.8292 222.112 69.4925V86H215.32V70.8349C215.32 69.4712 214.958 68.4485 214.233 67.7667C213.509 67.0849 212.603 66.744 211.517 66.744C210.281 66.744 209.317 67.1381 208.624 67.9265C207.932 68.7042 207.586 69.7322 207.586 71.0107V86H200.986V70.6911C200.986 69.4872 200.64 68.5284 199.947 67.8146C199.265 67.1009 198.365 66.744 197.247 66.744C196.49 66.744 195.808 66.9357 195.201 67.3192C194.604 67.6921 194.13 68.2195 193.779 68.9013C193.427 69.5724 193.252 70.3608 193.252 71.2663V86H186.444ZM234.488 86.4634C232.922 86.4634 231.527 86.1918 230.301 85.6484C229.076 85.0945 228.107 84.2795 227.393 83.2035C226.69 82.1168 226.338 80.7638 226.338 79.1445C226.338 77.7809 226.589 76.6357 227.089 75.7088C227.59 74.782 228.272 74.0362 229.135 73.4716C229.998 72.907 230.978 72.4808 232.075 72.1932C233.183 71.9055 234.344 71.7031 235.559 71.5859C236.986 71.4368 238.137 71.2983 239.011 71.1705C239.884 71.032 240.518 70.8295 240.912 70.5632C241.306 70.2969 241.503 69.9027 241.503 69.3807V69.2848C241.503 68.2727 241.184 67.4897 240.545 66.9357C239.916 66.3817 239.021 66.1048 237.86 66.1048C236.635 66.1048 235.66 66.3764 234.936 66.9197C234.211 67.4524 233.732 68.1236 233.497 68.9332L227.201 68.4219C227.521 66.9304 228.149 65.6413 229.087 64.5547C230.024 63.4574 231.234 62.6158 232.714 62.0298C234.206 61.4332 235.932 61.1349 237.892 61.1349C239.256 61.1349 240.561 61.2947 241.807 61.6143C243.064 61.9339 244.177 62.4293 245.147 63.1005C246.127 63.7717 246.899 64.6346 247.464 65.6893C248.029 66.7333 248.311 67.9851 248.311 69.4446V86H241.855V82.5962H241.663C241.269 83.3633 240.742 84.0398 240.081 84.6257C239.421 85.201 238.627 85.6538 237.7 85.984C236.773 86.3036 235.703 86.4634 234.488 86.4634ZM236.438 81.7653C237.439 81.7653 238.323 81.5682 239.09 81.174C239.858 80.7692 240.459 80.2259 240.896 79.544C241.333 78.8622 241.551 78.0898 241.551 77.2269V74.6222C241.338 74.7607 241.045 74.8885 240.672 75.0057C240.31 75.1122 239.9 75.2134 239.442 75.3093C238.984 75.3945 238.526 75.4744 238.068 75.549C237.61 75.6129 237.194 75.6715 236.821 75.7248C236.022 75.842 235.324 76.0284 234.728 76.2841C234.131 76.5398 233.668 76.886 233.338 77.3228C233.007 77.7489 232.842 78.2816 232.842 78.9208C232.842 79.8477 233.178 80.5561 233.849 81.0462C234.531 81.5256 235.394 81.7653 236.438 81.7653Z" fill="white"/>
</svg>
