<svg width="140" height="140" viewBox="0 0 140 140" fill="none" xmlns="http://www.w3.org/2000/svg">
<rect width="140" height="140" rx="20" fill="#444444"/>
<path d="M53.3333 120C62.5333 120 70 112.533 70 103.333V86.6662H53.3333C44.1333 86.6662 36.6666 94.1329 36.6666 103.333C36.6666 112.533 44.1333 120 53.3333 120Z" fill="#0ACF83"/>
<path d="M36.6666 69.9994C36.6666 60.7994 44.1333 53.3327 53.3333 53.3327H70V86.6662H53.3333C44.1333 86.6662 36.6666 79.1994 36.6666 69.9994Z" fill="#A259FF"/>
<path d="M36.6666 36.6661C36.6666 27.4662 44.1333 19.9995 53.3333 19.9995H70V53.3327H53.3333C44.1333 53.3327 36.6666 45.8661 36.6666 36.6661Z" fill="#F24E1E"/>
<path d="M70 19.9995H86.6667C95.8667 19.9995 103.333 27.4662 103.333 36.6661C103.333 45.8661 95.8667 53.3328 86.6667 53.3328L70 53.3327V19.9995Z" fill="#FF7262"/>
<path d="M103.333 69.9994C103.333 79.1994 95.8667 86.666 86.6667 86.666C77.4667 86.666 70 79.1994 70 69.9994C70 60.7994 77.4667 53.3328 86.6667 53.3328C95.8667 53.3328 103.333 60.7994 103.333 69.9994Z" fill="#1ABCFE"/>
</svg>
