<svg width="340" height="140" viewBox="0 0 340 140" fill="none" xmlns="http://www.w3.org/2000/svg">
<rect width="339.617" height="140" rx="20" fill="#7E311E"/>
<path d="M44.9367 117.126C49.1209 118.81 53.6604 119.809 58.4267 119.975C64.8774 120.201 71.0114 118.867 76.4953 116.334C69.9193 113.75 63.9636 109.972 58.8808 105.274C55.586 110.55 50.7128 114.716 44.9367 117.126Z" fill="#FF9100"/>
<path d="M58.8799 105.276C47.2772 94.5447 40.2385 79.0132 40.8333 61.9779C40.8527 61.4247 40.8819 60.8719 40.916 60.3192C38.838 59.7818 36.6686 59.4538 34.436 59.3759C31.2404 59.2642 28.1457 59.6606 25.224 60.4833C22.1267 65.9089 20.2576 72.1341 20.0247 78.8018C19.4238 96.0105 29.8376 111.047 44.9358 117.127C50.7119 114.718 55.5849 110.556 58.8799 105.276Z" fill="#FFC400"/>
<path d="M58.8803 105.275C61.5779 100.958 63.2135 95.8967 63.4039 90.444C63.9048 76.1004 54.2622 63.7616 40.9165 60.3185C40.8824 60.8712 40.8532 61.424 40.8339 61.9772C40.239 79.0125 47.2776 94.544 58.8803 105.275Z" fill="#FF9100"/>
<path d="M61.9114 20C54.3106 26.0892 48.3085 34.1184 44.6772 43.3678C42.5982 48.6658 41.2917 54.3566 40.9103 60.3221C54.256 63.7652 63.8986 76.104 63.3977 90.4476C63.2072 95.9003 61.5669 100.956 58.8741 105.278C63.9568 109.981 69.9126 113.754 76.4887 116.338C89.6879 110.237 99.0528 97.1077 99.5953 81.5787C99.9464 71.5173 96.0808 62.5503 90.6184 54.9813C84.8499 46.9763 61.9114 20 61.9114 20Z" fill="#DD2C00"/>
<path d="M132.462 86V53.2727H154.131V58.9776H139.381V66.7759H152.693V72.4808H139.381V86H132.462ZM158.657 86V61.4545H165.465V86H158.657ZM162.077 58.2905C161.065 58.2905 160.197 57.9549 159.472 57.2837C158.758 56.6019 158.402 55.7869 158.402 54.8388C158.402 53.9013 158.758 53.0969 159.472 52.4258C160.197 51.744 161.065 51.4031 162.077 51.4031C163.089 51.4031 163.952 51.744 164.666 52.4258C165.39 53.0969 165.752 53.9013 165.752 54.8388C165.752 55.7869 165.39 56.6019 164.666 57.2837C163.952 57.9549 163.089 58.2905 162.077 58.2905ZM170.918 86V61.4545H177.518V65.7372H177.773C178.221 64.2138 178.972 63.0632 180.027 62.2855C181.081 61.4972 182.296 61.103 183.67 61.103C184.011 61.103 184.379 61.1243 184.773 61.1669C185.167 61.2095 185.513 61.2681 185.811 61.3427V67.3832C185.492 67.2873 185.05 67.2021 184.485 67.1275C183.92 67.0529 183.404 67.0156 182.935 67.0156C181.934 67.0156 181.039 67.234 180.25 67.6708C179.473 68.0969 178.855 68.6935 178.397 69.4606C177.949 70.2276 177.726 71.1119 177.726 72.1133V86H170.918ZM199.375 86.4794C196.85 86.4794 194.676 85.968 192.855 84.9453C191.044 83.9119 189.648 82.4524 188.668 80.5668C187.688 78.6705 187.198 76.4279 187.198 73.8391C187.198 71.3143 187.688 69.0984 188.668 67.1914C189.648 65.2844 191.028 63.7983 192.807 62.733C194.597 61.6676 196.695 61.1349 199.103 61.1349C200.722 61.1349 202.23 61.396 203.625 61.918C205.032 62.4293 206.257 63.2017 207.301 64.2351C208.355 65.2685 209.176 66.5682 209.762 68.1342C210.348 69.6896 210.641 71.5114 210.641 73.5994V75.4691H189.914V71.2504H204.233C204.233 70.2702 204.019 69.402 203.593 68.6456C203.167 67.8892 202.576 67.2979 201.82 66.8718C201.074 66.435 200.206 66.2166 199.215 66.2166C198.181 66.2166 197.265 66.4563 196.466 66.9357C195.678 67.4045 195.06 68.0384 194.612 68.8374C194.165 69.6257 193.936 70.5046 193.925 71.4741V75.4851C193.925 76.6996 194.149 77.7489 194.597 78.6332C195.055 79.5174 195.699 80.1992 196.53 80.6786C197.361 81.158 198.347 81.3977 199.486 81.3977C200.243 81.3977 200.935 81.2912 201.564 81.0781C202.192 80.8651 202.73 80.5455 203.178 80.1193C203.625 79.6932 203.966 79.1712 204.201 78.5533L210.497 78.9688C210.177 80.4815 209.522 81.8026 208.531 82.9318C207.551 84.0504 206.283 84.924 204.728 85.5526C203.183 86.1705 201.399 86.4794 199.375 86.4794ZM215.211 86V53.2727H222.018V65.5774H222.226C222.524 64.9169 222.956 64.2457 223.521 63.5639C224.096 62.8714 224.842 62.2962 225.758 61.8381C226.685 61.3693 227.835 61.1349 229.209 61.1349C230.999 61.1349 232.65 61.6037 234.163 62.5412C235.676 63.468 236.885 64.869 237.791 66.744C238.696 68.6083 239.149 70.9467 239.149 73.7592C239.149 76.4972 238.707 78.8089 237.823 80.6946C236.949 82.5696 235.756 83.9918 234.243 84.9613C232.741 85.9201 231.058 86.3995 229.193 86.3995C227.872 86.3995 226.748 86.1811 225.822 85.7443C224.905 85.3075 224.154 84.7589 223.568 84.0984C222.983 83.4272 222.535 82.7507 222.226 82.0689H221.923V86H215.211ZM221.875 73.7273C221.875 75.1868 222.077 76.4599 222.482 77.5465C222.887 78.6332 223.473 79.4801 224.24 80.0874C225.007 80.6839 225.939 80.9822 227.036 80.9822C228.144 80.9822 229.082 80.6786 229.849 80.0714C230.616 79.4535 231.196 78.6012 231.59 77.5146C231.995 76.4173 232.198 75.1548 232.198 73.7273C232.198 72.3104 232.001 71.0639 231.606 69.9879C231.212 68.9119 230.632 68.0703 229.865 67.4631C229.098 66.8558 228.155 66.5522 227.036 66.5522C225.928 66.5522 224.991 66.8452 224.224 67.4311C223.467 68.017 222.887 68.848 222.482 69.924C222.077 71 221.875 72.2678 221.875 73.7273ZM250.691 86.4634C249.125 86.4634 247.729 86.1918 246.504 85.6484C245.279 85.0945 244.309 84.2795 243.596 83.2035C242.892 82.1168 242.541 80.7638 242.541 79.1445C242.541 77.7809 242.791 76.6357 243.292 75.7088C243.793 74.782 244.474 74.0362 245.337 73.4716C246.2 72.907 247.18 72.4808 248.278 72.1932C249.386 71.9055 250.547 71.7031 251.761 71.5859C253.189 71.4368 254.339 71.2983 255.213 71.1705C256.087 71.032 256.721 70.8295 257.115 70.5632C257.509 70.2969 257.706 69.9027 257.706 69.3807V69.2848C257.706 68.2727 257.386 67.4897 256.747 66.9357C256.119 66.3817 255.224 66.1048 254.063 66.1048C252.837 66.1048 251.863 66.3764 251.138 66.9197C250.414 67.4524 249.934 68.1236 249.7 68.9332L243.404 68.4219C243.723 66.9304 244.352 65.6413 245.289 64.5547C246.227 63.4574 247.436 62.6158 248.917 62.0298C250.408 61.4332 252.134 61.1349 254.094 61.1349C255.458 61.1349 256.763 61.2947 258.01 61.6143C259.267 61.9339 260.38 62.4293 261.349 63.1005C262.33 63.7717 263.102 64.6346 263.667 65.6893C264.231 66.7333 264.513 67.9851 264.513 69.4446V86H258.058V82.5962H257.866C257.472 83.3633 256.944 84.0398 256.284 84.6257C255.623 85.201 254.83 85.6538 253.903 85.984C252.976 86.3036 251.905 86.4634 250.691 86.4634ZM252.64 81.7653C253.642 81.7653 254.526 81.5682 255.293 81.174C256.06 80.7692 256.662 80.2259 257.099 79.544C257.536 78.8622 257.754 78.0898 257.754 77.2269V74.6222C257.541 74.7607 257.248 74.8885 256.875 75.0057C256.513 75.1122 256.103 75.2134 255.645 75.3093C255.186 75.3945 254.728 75.4744 254.27 75.549C253.812 75.6129 253.397 75.6715 253.024 75.7248C252.225 75.842 251.527 76.0284 250.93 76.2841C250.334 76.5398 249.87 76.886 249.54 77.3228C249.21 77.7489 249.045 78.2816 249.045 78.9208C249.045 79.8477 249.38 80.5561 250.051 81.0462C250.733 81.5256 251.596 81.7653 252.64 81.7653ZM290.218 68.4538L283.985 68.8374C283.879 68.3047 283.65 67.8253 283.298 67.3991C282.947 66.9624 282.483 66.6161 281.908 66.3604C281.343 66.0941 280.667 65.9609 279.878 65.9609C278.824 65.9609 277.934 66.1847 277.21 66.6321C276.485 67.0689 276.123 67.6548 276.123 68.3899C276.123 68.9759 276.357 69.4712 276.826 69.8761C277.295 70.2809 278.099 70.6058 279.239 70.8509L283.682 71.7457C286.068 72.2358 287.847 73.0241 289.019 74.1108C290.191 75.1974 290.777 76.625 290.777 78.3935C290.777 80.0021 290.303 81.4137 289.355 82.6282C288.417 83.8427 287.128 84.7908 285.487 85.4727C283.857 86.1438 281.977 86.4794 279.846 86.4794C276.597 86.4794 274.008 85.8029 272.08 84.4499C270.162 83.0863 269.039 81.2326 268.708 78.8888L275.404 78.5373C275.606 79.5281 276.096 80.2844 276.874 80.8065C277.652 81.3178 278.648 81.5735 279.862 81.5735C281.056 81.5735 282.014 81.3445 282.739 80.8864C283.474 80.4176 283.847 79.8157 283.857 79.0806C283.847 78.4627 283.586 77.9567 283.074 77.5625C282.563 77.1577 281.775 76.8487 280.709 76.6357L276.459 75.7887C274.062 75.3093 272.277 74.4783 271.105 73.2958C269.944 72.1133 269.363 70.6058 269.363 68.7734C269.363 67.1967 269.79 65.8384 270.642 64.6985C271.505 63.5586 272.714 62.6797 274.269 62.0618C275.835 61.4439 277.668 61.1349 279.767 61.1349C282.867 61.1349 285.306 61.7901 287.085 63.1005C288.875 64.4109 289.919 66.1953 290.218 68.4538ZM306.25 86.4794C303.725 86.4794 301.551 85.968 299.73 84.9453C297.919 83.9119 296.523 82.4524 295.543 80.5668C294.563 78.6705 294.073 76.4279 294.073 73.8391C294.073 71.3143 294.563 69.0984 295.543 67.1914C296.523 65.2844 297.903 63.7983 299.682 62.733C301.472 61.6676 303.57 61.1349 305.978 61.1349C307.597 61.1349 309.105 61.396 310.5 61.918C311.907 62.4293 313.132 63.2017 314.176 64.2351C315.23 65.2685 316.051 66.5682 316.637 68.1342C317.223 69.6896 317.516 71.5114 317.516 73.5994V75.4691H296.789V71.2504H311.108C311.108 70.2702 310.894 69.402 310.468 68.6456C310.042 67.8892 309.451 67.2979 308.695 66.8718C307.949 66.435 307.081 66.2166 306.09 66.2166C305.056 66.2166 304.14 66.4563 303.341 66.9357C302.553 67.4045 301.935 68.0384 301.487 68.8374C301.04 69.6257 300.811 70.5046 300.8 71.4741V75.4851C300.8 76.6996 301.024 77.7489 301.472 78.6332C301.93 79.5174 302.574 80.1992 303.405 80.6786C304.236 81.158 305.222 81.3977 306.361 81.3977C307.118 81.3977 307.81 81.2912 308.439 81.0781C309.067 80.8651 309.605 80.5455 310.053 80.1193C310.5 79.6932 310.841 79.1712 311.076 78.5533L317.372 78.9688C317.052 80.4815 316.397 81.8026 315.406 82.9318C314.426 84.0504 313.158 84.924 311.603 85.5526C310.058 86.1705 308.274 86.4794 306.25 86.4794Z" fill="white"/>
</svg>
