<svg width="140" height="140" viewBox="0 0 140 140" fill="none" xmlns="http://www.w3.org/2000/svg">
<rect width="140" height="140" rx="20" fill="#7E311E"/>
<path d="M55.1281 117.126C59.3123 118.81 63.8518 119.809 68.6181 119.975C75.0688 120.201 81.2028 118.867 86.6867 116.334C80.1107 113.75 74.155 109.972 69.0722 105.274C65.7774 110.55 60.9042 114.716 55.1281 117.126Z" fill="#FF9100"/>
<path d="M69.0713 105.276C57.4686 94.5447 50.4299 79.0132 51.0247 61.9779C51.0441 61.4247 51.0733 60.8719 51.1074 60.3192C49.0294 59.7818 46.86 59.4538 44.6274 59.3759C41.4318 59.2642 38.3371 59.6606 35.4154 60.4833C32.3181 65.9089 30.449 72.1341 30.2161 78.8018C29.6152 96.0105 40.029 111.047 55.1272 117.127C60.9033 114.718 65.7763 110.556 69.0713 105.276Z" fill="#FFC400"/>
<path d="M69.0717 105.275C71.7693 100.958 73.4049 95.8967 73.5953 90.444C74.0962 76.1004 64.4536 63.7616 51.1079 60.3185C51.0738 60.8712 51.0446 61.424 51.0253 61.9772C50.4304 79.0125 57.469 94.544 69.0717 105.275Z" fill="#FF9100"/>
<path d="M72.1028 20C64.502 26.0892 58.5 34.1184 54.8686 43.3678C52.7896 48.6658 51.4831 54.3566 51.1017 60.3221C64.4474 63.7652 74.09 76.104 73.5891 90.4476C73.3987 95.9003 71.7583 100.956 69.0655 105.278C74.1482 109.981 80.104 113.754 86.6801 116.338C99.8793 110.237 109.244 97.1077 109.787 81.5787C110.138 71.5173 106.272 62.5503 100.81 54.9813C95.0413 46.9763 72.1028 20 72.1028 20Z" fill="#DD2C00"/>
</svg>
