<svg width="140" height="140" viewBox="0 0 140 140" fill="none" xmlns="http://www.w3.org/2000/svg">
<rect width="140" height="140" rx="20" fill="#538DD7"/>
<path d="M113.114 90.2253C113.114 91.6322 111.912 92.2477 110.506 92.8338C104.878 95.2079 98.8698 97.4354 92.4803 97.4354C80.61 97.4354 72.3448 84.3048 44.6474 98.1682V113.35C44.6474 122.231 31.253 122.202 31.253 113.35V40.0769C28.6151 38.0253 26.8566 34.8306 26.8566 31.1962C26.8566 25.0412 31.8685 20 38.0528 20C44.2077 20 49.2489 25.0119 49.2489 31.1962C49.2489 34.7719 47.549 37.996 44.8818 40.0476V46.2026C55.7556 42.6855 64.0795 36.1202 87.7029 45.2061C95.4992 48.5474 107.838 40.6045 110.125 40.6045C111.737 40.6045 113.143 41.8062 113.143 43.213V90.2253H113.114Z" fill="white"/>
</svg>
