<svg width="293" height="140" viewBox="0 0 293 140" fill="none" xmlns="http://www.w3.org/2000/svg">
<rect width="292.429" height="140" rx="20" fill="#0858CF"/>
<path d="M66.2724 20L77.8129 26.6365L32.365 52.7718L20.8246 46.1352L66.2724 20Z" fill="white"/>
<path d="M78.2782 28.0298L33.1165 53.9888L33.115 67.1227L78.2768 41.1638L78.2782 28.0298Z" fill="white"/>
<path d="M60.1173 53.6615L33.2114 69.1273L33.21 82.2616L60.1157 66.7957L60.1173 53.6615Z" fill="white"/>
<path d="M49.8031 74.4251L33.1477 83.9991L33.1462 97.1336L49.8017 87.5596L49.8031 74.4251Z" fill="white"/>
<path d="M20.0045 47.4015L31.6128 54.0738L31.6083 67.2108L20 60.5387L20.0045 47.4015Z" fill="white"/>
<path d="M20.1149 62.4493L31.5824 69.0406L31.578 82.1776L20.1105 75.5864L20.1149 62.4493Z" fill="white"/>
<path d="M20.1099 77.4064L31.5812 84L31.5765 98.0036L20.1051 91.41L20.1099 77.4064Z" fill="white"/>
<path d="M45.672 120L34.1315 113.364L79.0636 87.5249L90.6039 94.1613L45.672 120Z" fill="white"/>
<path d="M33.2167 112.228L78.3106 86.3077L78.312 73.1738L33.2181 99.0938L33.2167 112.228Z" fill="white"/>
<path d="M51.3098 86.6351L78.2155 71.1693L78.217 58.0351L51.3112 73.5008L51.3098 86.6351Z" fill="white"/>
<path d="M61.6239 65.8714L78.2793 56.2975L78.2807 43.1631L61.6254 52.737L61.6239 65.8714Z" fill="white"/>
<path d="M91.424 92.9831L79.8158 86.311L79.8202 73.1738L91.4286 79.8459L91.424 92.9831Z" fill="white"/>
<path d="M91.3144 77.8508L79.8469 71.2595L79.8513 58.1225L91.3188 64.7137L91.3144 77.8508Z" fill="white"/>
<path d="M91.3187 62.8937L79.8473 56.3001L79.8519 42.5482L91.3233 49.1417L91.3187 62.8937Z" fill="white"/>
<path d="M124.273 86V53.2727H145.942V58.9776H131.193V66.7759H144.504V72.4808H131.193V86H124.273ZM159.757 86.4794C157.275 86.4794 155.128 85.9521 153.317 84.8974C151.517 83.832 150.126 82.3512 149.146 80.4549C148.166 78.5479 147.676 76.3374 147.676 73.8232C147.676 71.2876 148.166 69.0717 149.146 67.1754C150.126 65.2685 151.517 63.7876 153.317 62.733C155.128 61.6676 157.275 61.1349 159.757 61.1349C162.239 61.1349 164.381 61.6676 166.181 62.733C167.992 63.7876 169.388 65.2685 170.368 67.1754C171.348 69.0717 171.838 71.2876 171.838 73.8232C171.838 76.3374 171.348 78.5479 170.368 80.4549C169.388 82.3512 167.992 83.832 166.181 84.8974C164.381 85.9521 162.239 86.4794 159.757 86.4794ZM159.789 81.206C160.918 81.206 161.861 80.8864 162.617 80.2472C163.374 79.5973 163.944 78.7131 164.327 77.5945C164.722 76.4759 164.919 75.2028 164.919 73.7752C164.919 72.3477 164.722 71.0746 164.327 69.956C163.944 68.8374 163.374 67.9531 162.617 67.3033C161.861 66.6534 160.918 66.3285 159.789 66.3285C158.649 66.3285 157.69 66.6534 156.913 67.3033C156.146 67.9531 155.565 68.8374 155.171 69.956C154.787 71.0746 154.595 72.3477 154.595 73.7752C154.595 75.2028 154.787 76.4759 155.171 77.5945C155.565 78.7131 156.146 79.5973 156.913 80.2472C157.69 80.8864 158.649 81.206 159.789 81.206ZM176.264 86V61.4545H182.864V65.7372H183.12C183.567 64.2138 184.318 63.0632 185.373 62.2855C186.428 61.4972 187.642 61.103 189.017 61.103C189.358 61.103 189.725 61.1243 190.119 61.1669C190.513 61.2095 190.86 61.2681 191.158 61.3427V67.3832C190.838 67.2873 190.396 67.2021 189.832 67.1275C189.267 67.0529 188.75 67.0156 188.282 67.0156C187.28 67.0156 186.385 67.234 185.597 67.6708C184.819 68.0969 184.201 68.6935 183.743 69.4606C183.296 70.2276 183.072 71.1119 183.072 72.1133V86H176.264ZM194.678 86V61.4545H201.165V65.7852H201.453C201.964 64.3469 202.817 63.2124 204.01 62.3814C205.203 61.5504 206.631 61.1349 208.293 61.1349C209.976 61.1349 211.409 61.5558 212.591 62.3974C213.774 63.2283 214.562 64.3576 214.956 65.7852H215.212C215.713 64.3789 216.618 63.255 217.929 62.4134C219.25 61.5611 220.81 61.1349 222.611 61.1349C224.901 61.1349 226.76 61.8647 228.188 63.3242C229.626 64.7731 230.345 66.8292 230.345 69.4925V86H223.554V70.8349C223.554 69.4712 223.191 68.4485 222.467 67.7667C221.743 67.0849 220.837 66.744 219.75 66.744C218.515 66.744 217.55 67.1381 216.858 67.9265C216.165 68.7042 215.819 69.7322 215.819 71.0107V86H209.219V70.6911C209.219 69.4872 208.873 68.5284 208.181 67.8146C207.499 67.1009 206.599 66.744 205.48 66.744C204.724 66.744 204.042 66.9357 203.435 67.3192C202.838 67.6921 202.364 68.2195 202.012 68.9013C201.661 69.5724 201.485 70.3608 201.485 71.2663V86H194.678ZM235.722 86V61.4545H242.53V86H235.722ZM239.142 58.2905C238.13 58.2905 237.262 57.9549 236.537 57.2837C235.824 56.6019 235.467 55.7869 235.467 54.8388C235.467 53.9013 235.824 53.0969 236.537 52.4258C237.262 51.744 238.13 51.4031 239.142 51.4031C240.154 51.4031 241.017 51.744 241.731 52.4258C242.455 53.0969 242.818 53.9013 242.818 54.8388C242.818 55.7869 242.455 56.6019 241.731 57.2837C241.017 57.9549 240.154 58.2905 239.142 58.2905ZM254.152 78.9368L254.168 70.771H255.158L263.021 61.4545H270.835L260.272 73.7912H258.658L254.152 78.9368ZM247.983 86V53.2727H254.791V86H247.983ZM263.324 86L256.101 75.3093L260.639 70.4993L271.298 86H263.324Z" fill="white"/>
</svg>
