<svg width="140" height="140" viewBox="0 0 140 140" fill="none" xmlns="http://www.w3.org/2000/svg">
<rect width="140" height="140" rx="20" fill="#D73526"/>
<path d="M71.4765 105.449C71.4765 109.135 68.4885 112.123 64.8025 112.123C61.1166 112.123 58.1286 109.135 58.1286 105.449C58.1286 101.763 61.1166 98.7746 64.8025 98.7746C68.4885 98.7746 71.4765 101.763 71.4765 105.449Z" fill="#4B1100"/>
<path fill-rule="evenodd" clip-rule="evenodd" d="M57.4721 64.9123C52.6581 64.9123 44.1242 65.7878 44.1242 57.5819C44.1242 48.5011 51.4546 49.8139 57.4721 49.9233C56.7427 43.1035 56.9251 33.2929 63.1614 26.5095C69.6533 19.448 75.7435 20.0543 75.7435 20.0543H88.1067C90.7325 19.726 95.9623 20.7326 95.8748 27.3847C95.7872 34.0368 90.149 35.0433 87.3408 34.7151H77.0564C75.4517 34.8975 72.2424 36.7501 72.2424 42.702V49.923L81.5421 49.9233C84.1315 49.8502 89.3102 51.2797 89.3102 57.5816C89.3102 63.8836 84.1315 65.0946 81.5421 64.9123H72.2424V93.112C76.4987 95.6243 79.354 100.258 79.354 105.558C79.354 113.534 72.8881 120 64.912 120C56.9358 120 50.4699 113.534 50.4699 105.558C50.4699 100.303 53.2764 95.704 57.4721 93.1772V64.9123ZM64.8025 112.123C68.4885 112.123 71.4765 109.135 71.4765 105.449C71.4765 101.763 68.4885 98.7746 64.8025 98.7746C61.1166 98.7746 58.1286 101.763 58.1286 105.449C58.1286 109.135 61.1166 112.123 64.8025 112.123Z" fill="white"/>
</svg>
