<svg width="140" height="140" viewBox="0 0 140 140" fill="none" xmlns="http://www.w3.org/2000/svg">
<rect width="140" height="140" rx="20" fill="#DE4C36"/>
<path d="M118.114 65.5454L74.453 21.8868C71.9401 19.3724 67.862 19.3724 65.346 21.8868L56.2796 30.9532L67.7808 42.4544C70.4534 41.5513 73.5183 42.1571 75.6487 44.2876C77.7893 46.4317 78.3909 49.5228 77.4659 52.204L88.5499 63.2884C91.2315 62.3646 94.3257 62.9622 96.4675 65.1075C99.4608 68.0997 99.4608 72.9493 96.4675 75.9435C93.4733 78.938 88.6237 78.938 85.628 75.9435C83.3765 73.6896 82.8202 70.3829 83.9601 67.6091L73.6233 57.2724L73.6222 84.4743C74.3715 84.8448 75.0559 85.3342 75.6487 85.9235C78.6421 88.9157 78.6421 93.7657 75.6487 96.7622C72.6546 99.7552 67.8026 99.7552 64.8128 96.7622C61.8194 93.7657 61.8194 88.9161 64.8128 85.9239C65.5301 85.2062 66.3826 84.6379 67.321 84.2517V56.7962C66.3813 56.4126 65.5283 55.8439 64.8128 55.1239C62.5448 52.8591 61.9995 49.5314 63.1616 46.7466L51.8241 35.4079L21.8866 65.3435C19.371 67.8603 19.371 71.9388 21.8866 74.4536L65.5483 118.113C68.062 120.627 72.1394 120.627 74.6561 118.113L118.114 74.6564C120.629 72.1407 120.629 68.0599 118.114 65.5454Z" fill="white"/>
</svg>
