<svg width="236" height="140" viewBox="0 0 236 140" fill="none" xmlns="http://www.w3.org/2000/svg">
<rect width="236" height="140" rx="20" fill="#DE4C36"/>
<path d="M118.114 65.5454L74.4531 21.8868C71.9402 19.3724 67.8621 19.3724 65.3461 21.8868L56.2797 30.9532L67.7809 42.4544C70.4535 41.5513 73.5184 42.1571 75.6488 44.2876C77.7894 46.4317 78.391 49.5228 77.466 52.204L88.55 63.2884C91.2316 62.3646 94.3258 62.9622 96.4676 65.1075C99.4609 68.0997 99.4609 72.9493 96.4676 75.9435C93.4734 78.938 88.6238 78.938 85.6281 75.9435C83.3766 73.6896 82.8203 70.3829 83.9602 67.6091L73.6234 57.2724L73.6223 84.4743C74.3716 84.8448 75.056 85.3342 75.6488 85.9235C78.6422 88.9157 78.6422 93.7657 75.6488 96.7622C72.6547 99.7552 67.8027 99.7552 64.8129 96.7622C61.8195 93.7657 61.8195 88.9161 64.8129 85.9239C65.5302 85.2062 66.3827 84.6379 67.3211 84.2517V56.7962C66.3814 56.4126 65.5284 55.8439 64.8129 55.1239C62.5449 52.8591 61.9996 49.5314 63.1617 46.7466L51.8242 35.4079L21.8867 65.3435C19.3711 67.8603 19.3711 71.9388 21.8867 74.4536L65.5484 118.113C68.0621 120.627 72.1395 120.627 74.6562 118.113L118.114 74.6564C120.629 72.1407 120.629 68.0599 118.114 65.5454Z" fill="white"/>
<path d="M174.546 63.8516C174.322 63.0739 174.008 62.3867 173.603 61.7901C173.198 61.1829 172.703 60.6715 172.117 60.256C171.541 59.8299 170.881 59.505 170.135 59.2812C169.4 59.0575 168.585 58.9457 167.69 58.9457C166.018 58.9457 164.547 59.3612 163.28 60.1921C162.023 61.0231 161.043 62.2322 160.339 63.8196C159.636 65.3963 159.285 67.3246 159.285 69.6044C159.285 71.8842 159.631 73.8232 160.323 75.4212C161.016 77.0192 161.996 78.239 163.264 79.0806C164.531 79.9116 166.028 80.3271 167.754 80.3271C169.32 80.3271 170.657 80.0501 171.765 79.4961C172.884 78.9315 173.736 78.1378 174.322 77.1151C174.919 76.0923 175.217 74.8832 175.217 73.4876L176.623 73.6953H168.186V68.4858H181.881V72.6087C181.881 75.4851 181.273 77.9567 180.059 80.0234C178.844 82.0795 177.172 83.6669 175.041 84.7855C172.91 85.8935 170.471 86.4474 167.722 86.4474C164.654 86.4474 161.959 85.771 159.636 84.418C157.314 83.0543 155.503 81.1207 154.203 78.6172C152.914 76.103 152.269 73.12 152.269 69.6683C152.269 67.0156 152.653 64.6506 153.42 62.5732C154.198 60.4851 155.284 58.7166 156.68 57.2678C158.076 55.8189 159.7 54.7163 161.554 53.9599C163.408 53.2035 165.416 52.8253 167.578 52.8253C169.432 52.8253 171.158 53.0969 172.756 53.6403C174.354 54.1729 175.771 54.9293 177.007 55.9094C178.253 56.8896 179.27 58.0561 180.059 59.4091C180.847 60.7514 181.353 62.2322 181.577 63.8516H174.546ZM188.488 86V61.4545H195.296V86H188.488ZM191.908 58.2905C190.896 58.2905 190.028 57.9549 189.303 57.2837C188.59 56.6019 188.233 55.7869 188.233 54.8388C188.233 53.9013 188.59 53.0969 189.303 52.4258C190.028 51.744 190.896 51.4031 191.908 51.4031C192.92 51.4031 193.783 51.744 194.497 52.4258C195.221 53.0969 195.584 53.9013 195.584 54.8388C195.584 55.7869 195.221 56.6019 194.497 57.2837C193.783 57.9549 192.92 58.2905 191.908 58.2905ZM213.805 61.4545V66.5682H199.023V61.4545H213.805ZM202.379 55.5739H209.187V78.4574C209.187 79.0859 209.282 79.576 209.474 79.9276C209.666 80.2685 209.932 80.5082 210.273 80.6467C210.625 80.7852 211.03 80.8544 211.488 80.8544C211.807 80.8544 212.127 80.8278 212.447 80.7745C212.766 80.7106 213.011 80.6626 213.182 80.6307L214.252 85.6964C213.911 85.8029 213.432 85.9254 212.814 86.0639C212.196 86.2131 211.445 86.3036 210.561 86.3356C208.92 86.3995 207.482 86.1811 206.246 85.6804C205.021 85.1797 204.068 84.402 203.386 83.3473C202.704 82.2926 202.368 80.9609 202.379 79.3523V55.5739Z" fill="white"/>
</svg>
