<svg width="407" height="140" viewBox="0 0 407 140" fill="none" xmlns="http://www.w3.org/2000/svg">
<rect width="407" height="140" rx="20" fill="#161614"/>
<path d="M70.0002 21.2344C42.3894 21.2344 20 43.6199 20 71.2346C20 93.3263 34.3265 112.068 54.1933 118.68C56.692 119.143 57.6096 117.595 57.6096 116.274C57.6096 115.082 57.5629 111.143 57.5418 106.965C43.6313 109.99 40.6961 101.066 40.6961 101.066C38.4217 95.2867 35.1445 93.7502 35.1445 93.7502C30.6082 90.6468 35.4865 90.7104 35.4865 90.7104C40.5075 91.0633 43.1513 95.8631 43.1513 95.8631C47.6107 103.507 54.8481 101.297 57.7014 100.02C58.15 96.7878 59.446 94.5824 60.8758 93.3338C49.7703 92.0691 38.0954 87.7818 38.0954 68.6233C38.0954 63.1647 40.0487 58.704 43.2474 55.2026C42.7282 53.943 41.0169 48.8577 43.7317 41.9705C43.7317 41.9705 47.9303 40.6266 57.4853 47.0958C61.4734 45.9876 65.7509 45.4324 70.0002 45.4135C74.2494 45.4324 78.53 45.9876 82.526 47.0958C92.0696 40.6266 96.2624 41.9705 96.2624 41.9705C98.9838 48.8577 97.2717 53.943 96.7525 55.2026C99.9583 58.704 101.898 63.1643 101.898 68.6233C101.898 87.8273 90.2014 92.0562 79.0677 93.2938C80.8609 94.8455 82.4589 97.8885 82.4589 102.553C82.4589 109.243 82.4009 114.627 82.4009 116.274C82.4009 117.605 83.3009 119.164 85.8357 118.673C105.691 112.054 120 93.3189 120 71.2346C120 43.6199 97.6137 21.2344 70.0002 21.2344Z" fill="white"/>
<path d="M38.7266 92.4609C38.6168 92.7091 38.2254 92.7837 37.8698 92.6135C37.507 92.4503 37.3031 92.1115 37.4208 91.8621C37.5286 91.6064 37.92 91.5351 38.2819 91.7068C38.6454 91.8696 38.8525 92.2115 38.7266 92.4609ZM41.1861 94.6554C40.9477 94.8765 40.4814 94.7738 40.165 94.4244C39.8379 94.0758 39.7768 93.6099 40.0187 93.3852C40.2646 93.1644 40.7167 93.2676 41.0446 93.6166C41.3716 93.9691 41.4355 94.4319 41.1861 94.6554ZM42.8735 97.4631C42.5669 97.676 42.0657 97.4764 41.7563 97.0317C41.45 96.5874 41.45 96.0541 41.763 95.8404C42.0735 95.6267 42.5669 95.8188 42.8806 96.26C43.1864 96.7121 43.1868 97.2451 42.8735 97.4631ZM45.7268 100.715C45.4526 101.017 44.8691 100.936 44.4417 100.524C44.0049 100.121 43.8829 99.5485 44.1578 99.2462C44.435 98.9434 45.0221 99.0285 45.4526 99.4375C45.8867 99.8399 46.019 100.416 45.7268 100.715ZM49.4145 101.813C49.2941 102.204 48.7318 102.382 48.1655 102.216C47.6 102.045 47.2298 101.586 47.344 101.19C47.4616 100.796 48.0263 100.611 48.5969 100.789C49.1615 100.959 49.5321 101.415 49.4145 101.813ZM53.612 102.279C53.6261 102.691 53.1457 103.033 52.5512 103.041C51.9532 103.053 51.4697 102.72 51.4634 102.314C51.4634 101.898 51.9328 101.559 52.5304 101.549C53.1249 101.537 53.612 101.869 53.612 102.279ZM57.735 102.121C57.8063 102.523 57.393 102.936 56.8029 103.046C56.2225 103.152 55.6852 102.904 55.6111 102.505C55.539 102.092 55.9601 101.679 56.5393 101.572C57.1307 101.47 57.6597 101.712 57.735 102.121Z" fill="white"/>
<path d="M174.546 63.8516C174.322 63.0739 174.008 62.3867 173.603 61.7901C173.198 61.1829 172.702 60.6715 172.117 60.256C171.541 59.8299 170.881 59.505 170.135 59.2812C169.4 59.0575 168.585 58.9457 167.69 58.9457C166.017 58.9457 164.547 59.3612 163.28 60.1921C162.022 61.0231 161.042 62.2322 160.339 63.8196C159.636 65.3963 159.285 67.3246 159.285 69.6044C159.285 71.8842 159.631 73.8232 160.323 75.4212C161.016 77.0192 161.996 78.239 163.264 79.0806C164.531 79.9116 166.028 80.3271 167.754 80.3271C169.32 80.3271 170.657 80.0501 171.765 79.4961C172.884 78.9315 173.736 78.1378 174.322 77.1151C174.918 76.0923 175.217 74.8832 175.217 73.4876L176.623 73.6953H168.185V68.4858H181.88V72.6087C181.88 75.4851 181.273 77.9567 180.059 80.0234C178.844 82.0795 177.172 83.6669 175.041 84.7855C172.91 85.8935 170.471 86.4474 167.722 86.4474C164.654 86.4474 161.959 85.771 159.636 84.418C157.314 83.0543 155.503 81.1207 154.203 78.6172C152.914 76.103 152.269 73.12 152.269 69.6683C152.269 67.0156 152.653 64.6506 153.42 62.5732C154.198 60.4851 155.284 58.7166 156.68 57.2678C158.075 55.8189 159.7 54.7163 161.554 53.9599C163.407 53.2035 165.416 52.8253 167.578 52.8253C169.432 52.8253 171.158 53.0969 172.756 53.6403C174.354 54.1729 175.771 54.9293 177.006 55.9094C178.253 56.8896 179.27 58.0561 180.059 59.4091C180.847 60.7514 181.353 62.2322 181.577 63.8516H174.546ZM188.488 86V61.4545H195.296V86H188.488ZM191.908 58.2905C190.896 58.2905 190.028 57.9549 189.303 57.2837C188.589 56.6019 188.232 55.7869 188.232 54.8388C188.232 53.9013 188.589 53.0969 189.303 52.4258C190.028 51.744 190.896 51.4031 191.908 51.4031C192.92 51.4031 193.783 51.744 194.497 52.4258C195.221 53.0969 195.583 53.9013 195.583 54.8388C195.583 55.7869 195.221 56.6019 194.497 57.2837C193.783 57.9549 192.92 58.2905 191.908 58.2905ZM213.805 61.4545V66.5682H199.023V61.4545H213.805ZM202.379 55.5739H209.186V78.4574C209.186 79.0859 209.282 79.576 209.474 79.9276C209.666 80.2685 209.932 80.5082 210.273 80.6467C210.625 80.7852 211.029 80.8544 211.488 80.8544C211.807 80.8544 212.127 80.8278 212.446 80.7745C212.766 80.7106 213.011 80.6626 213.181 80.6307L214.252 85.6964C213.911 85.8029 213.432 85.9254 212.814 86.0639C212.196 86.2131 211.445 86.3036 210.561 86.3356C208.92 86.3995 207.482 86.1811 206.246 85.6804C205.021 85.1797 204.067 84.402 203.386 83.3473C202.704 82.2926 202.368 80.9609 202.379 79.3523V55.5739ZM225.574 71.8097V86H218.766V53.2727H225.382V65.7852H225.67C226.224 64.3363 227.119 63.2017 228.355 62.3814C229.59 61.5504 231.14 61.1349 233.005 61.1349C234.709 61.1349 236.195 61.5078 237.463 62.2536C238.742 62.9886 239.732 64.0486 240.436 65.4336C241.149 66.8079 241.501 68.4538 241.49 70.3714V86H234.683V71.5859C234.693 70.0732 234.31 68.896 233.532 68.0543C232.765 67.2127 231.689 66.7919 230.304 66.7919C229.377 66.7919 228.557 66.989 227.843 67.3832C227.14 67.7773 226.586 68.3526 226.181 69.109C225.787 69.8548 225.585 70.755 225.574 71.8097ZM262.588 75.549V61.4545H269.395V86H262.86V81.5415H262.604C262.05 82.9798 261.128 84.1357 259.839 85.0092C258.561 85.8828 257 86.3196 255.157 86.3196C253.517 86.3196 252.073 85.9467 250.827 85.201C249.58 84.4553 248.605 83.3952 247.902 82.021C247.21 80.6467 246.858 79.0007 246.848 77.0831V61.4545H253.655V75.8686C253.666 77.3175 254.055 78.4627 254.822 79.3043C255.589 80.146 256.617 80.5668 257.906 80.5668C258.726 80.5668 259.493 80.3803 260.207 80.0075C260.921 79.6239 261.496 79.0593 261.933 78.3136C262.38 77.5678 262.599 76.6463 262.588 75.549ZM274.969 86V53.2727H281.776V65.5774H281.984C282.282 64.9169 282.714 64.2457 283.278 63.5639C283.853 62.8714 284.599 62.2962 285.515 61.8381C286.442 61.3693 287.593 61.1349 288.967 61.1349C290.757 61.1349 292.408 61.6037 293.921 62.5412C295.434 63.468 296.643 64.869 297.548 66.744C298.454 68.6083 298.907 70.9467 298.907 73.7592C298.907 76.4972 298.465 78.8089 297.58 80.6946C296.707 82.5696 295.514 83.9918 294.001 84.9613C292.499 85.9201 290.815 86.3995 288.951 86.3995C287.63 86.3995 286.506 86.1811 285.579 85.7443C284.663 85.3075 283.912 84.7589 283.326 84.0984C282.74 83.4272 282.293 82.7507 281.984 82.0689H281.68V86H274.969ZM281.632 73.7273C281.632 75.1868 281.835 76.4599 282.239 77.5465C282.644 78.6332 283.23 79.4801 283.997 80.0874C284.764 80.6839 285.697 80.9822 286.794 80.9822C287.902 80.9822 288.839 80.6786 289.606 80.0714C290.373 79.4535 290.954 78.6012 291.348 77.5146C291.753 76.4173 291.955 75.1548 291.955 73.7273C291.955 72.3104 291.758 71.0639 291.364 69.9879C290.97 68.9119 290.389 68.0703 289.622 67.4631C288.855 66.8558 287.912 66.5522 286.794 66.5522C285.686 66.5522 284.748 66.8452 283.981 67.4311C283.225 68.017 282.644 68.848 282.239 69.924C281.835 71 281.632 72.2678 281.632 73.7273ZM319.633 86H312.218L323.516 53.2727H332.433L343.715 86H336.3L328.102 60.7514H327.847L319.633 86ZM319.17 73.136H336.684V78.5373H319.17V73.136ZM347.654 86V53.2727H360.566C363.048 53.2727 365.163 53.7468 366.91 54.695C368.657 55.6325 369.989 56.9375 370.905 58.6101C371.832 60.272 372.295 62.1896 372.295 64.3629C372.295 66.5362 371.827 68.4538 370.889 70.1158C369.952 71.7777 368.593 73.0721 366.814 73.9989C365.046 74.9258 362.904 75.3892 360.39 75.3892H352.16V69.8441H359.272C360.603 69.8441 361.701 69.6151 362.564 69.157C363.437 68.6882 364.087 68.0437 364.513 67.2234C364.95 66.3924 365.168 65.4389 365.168 64.3629C365.168 63.2763 364.95 62.3281 364.513 61.5185C364.087 60.6982 363.437 60.0643 362.564 59.6168C361.69 59.1587 360.582 58.9297 359.24 58.9297H354.573V86H347.654ZM383.709 53.2727V86H376.79V53.2727H383.709Z" fill="white"/>
</svg>
