<svg width="479" height="140" viewBox="0 0 479 140" fill="none" xmlns="http://www.w3.org/2000/svg">
<rect width="479" height="140" rx="20" fill="#474F5E"/>
<mask id="mask0_20_20" style="mask-type:luminance" maskUnits="userSpaceOnUse" x="20" y="18" width="100" height="104">
<path d="M119.04 60.5257H71.0651V80.16H98.6315C98.1884 82.9387 97.1934 85.6722 95.7362 88.1647C94.0667 91.0205 92.0028 93.1946 89.8873 94.8503C83.5504 99.8099 76.1625 100.824 71.0316 100.824C58.0704 100.824 46.996 92.268 42.7088 80.6419C42.5358 80.22 42.4209 79.7842 42.281 79.3534C41.3336 76.3944 40.816 73.2606 40.816 70.0034C40.816 66.6136 41.3765 63.3686 42.3986 60.304C46.43 48.2169 57.7541 39.1891 71.041 39.1891C73.7134 39.1891 76.287 39.514 78.7276 40.1621C84.3052 41.6431 88.2506 44.56 90.6681 46.8673L105.255 32.2765C96.382 23.9669 84.8147 18.9316 71.0167 18.9316C59.9861 18.9314 49.8021 22.4417 41.4567 28.3741C34.6888 33.1852 29.1382 39.6266 25.3922 47.1077C21.9079 54.0441 20 61.7309 20 69.9957C20 78.2609 21.9108 86.0277 25.3951 92.9V92.9463C29.0754 100.242 34.4573 106.524 40.9984 111.313C46.7127 115.497 56.959 121.069 71.0167 121.069C79.1009 121.069 86.2657 119.58 92.5844 116.79C97.1427 114.778 101.181 112.153 104.838 108.779C109.669 104.321 113.453 98.8075 116.036 92.4638C118.618 86.1201 120 78.9465 120 71.1691C120 67.547 119.644 63.8686 119.04 60.5254V60.5257Z" fill="white"/>
</mask>
<g mask="url(#mask0_20_20)">
<g filter="url(#filter0_f_20_20)">
<path d="M19.2642 70.3428C19.3172 78.4775 21.5867 86.8706 25.0219 93.646V93.6927C27.504 98.6132 30.8963 102.5 34.7601 106.351L58.0966 97.6542C53.6815 95.3635 53.0078 93.9599 49.8429 91.3987C46.6086 88.0677 44.1981 84.2436 42.6969 79.7598H42.6364L42.6969 79.7131C41.7093 76.7522 41.6119 73.6092 41.5754 70.3428H19.2642Z" fill="url(#paint0_radial_20_20)"/>
</g>
<g filter="url(#filter1_f_20_20)">
<path d="M71.0654 18.5601C68.7589 26.8365 69.6408 34.8815 71.0654 39.5625C73.729 39.5645 76.2949 39.8888 78.7278 40.5348C84.3055 42.0159 88.2504 44.9329 90.6679 47.2402L105.629 32.2766C96.7658 23.9769 86.1 18.5731 71.0654 18.5601Z" fill="url(#paint1_radial_20_20)"/>
</g>
<g filter="url(#filter2_f_20_20)">
<path d="M71.0155 18.4946C59.7017 18.4944 49.2563 22.0948 40.6967 28.1796C37.5184 30.4389 34.6019 33.0487 32.0048 35.9509C31.3245 42.4701 37.0978 50.4828 48.5309 50.4165C54.0781 43.8259 62.2823 39.5618 71.4137 39.5618C71.422 39.5618 71.4301 39.5625 71.4384 39.5625L71.0655 18.4961C71.0487 18.4961 71.0323 18.4946 71.0155 18.4946Z" fill="url(#paint2_radial_20_20)"/>
</g>
<g filter="url(#filter3_f_20_20)">
<path d="M108.357 72.7017L98.2591 79.7874C97.8159 82.5661 96.8202 85.2996 95.3631 87.7922C93.6936 90.6479 91.6298 92.8221 89.5143 94.4778C83.1905 99.4272 75.8221 100.446 70.6926 100.45C65.3908 109.673 64.4613 114.293 71.0655 121.737C79.2376 121.731 86.4826 120.224 92.873 117.402C97.4924 115.363 101.585 112.703 105.291 109.284C110.187 104.766 114.022 99.1783 116.639 92.7496C119.257 86.3207 120.656 79.0512 120.656 71.1694L108.357 72.7017Z" fill="url(#paint3_radial_20_20)"/>
</g>
<g filter="url(#filter4_f_20_20)">
<path d="M70.3196 59.7798V80.906H118.905C119.332 78.0127 120.746 74.2687 120.746 71.1692C120.746 67.5471 120.39 63.123 119.786 59.7798H70.3196Z" fill="#3086FF"/>
</g>
<g filter="url(#filter5_f_20_20)">
<path d="M32.2365 35.2051C29.2383 38.5557 26.6768 42.3059 24.646 46.3618C21.1617 53.2982 19.2539 61.7309 19.2539 69.9957C19.2539 70.1122 19.2633 70.2262 19.2641 70.3424C20.8072 73.3643 40.5788 72.7856 41.5754 70.3424C41.5741 70.2284 41.5615 70.1173 41.5615 70.003C41.5615 66.6132 42.1223 64.1146 43.1443 61.0499C44.4051 57.2697 46.3793 53.7886 48.9037 50.7894C49.4759 50.0432 51.0023 48.439 51.4477 47.4768C51.6173 47.1103 51.1397 46.9046 51.113 46.7755C51.0831 46.6313 50.4427 46.7473 50.2993 46.6398C49.8438 46.2986 48.9418 46.1204 48.394 45.962C47.2233 45.6234 45.2831 44.8767 44.2054 44.1028C40.799 41.6562 35.4829 38.7339 32.2365 35.2051Z" fill="url(#paint4_radial_20_20)"/>
</g>
<g filter="url(#filter6_f_20_20)">
<path d="M44.2786 46.79C52.1778 51.6772 54.4495 44.3232 59.7013 42.0219L50.5655 22.6719C47.2049 24.1145 44.0298 25.9069 41.0837 28.0011C36.6841 31.1287 32.7988 34.9453 29.5894 39.2886L44.2786 46.79Z" fill="url(#paint5_radial_20_20)"/>
</g>
<g filter="url(#filter7_f_20_20)">
<path d="M47.4937 96.1588C36.89 100.069 35.23 100.209 34.2539 106.921C36.1191 108.78 38.1231 110.5 40.2527 112.059C45.9671 116.242 56.959 121.814 71.0167 121.814C71.0332 121.814 71.049 121.813 71.0655 121.813V100.077C71.0548 100.077 71.0426 100.078 71.032 100.078C65.7678 100.078 61.5613 98.6656 57.2483 96.2099C56.1849 95.6044 54.2556 97.2303 53.2748 96.5034C51.9222 95.5009 48.6669 97.3672 47.4937 96.1588Z" fill="url(#paint6_radial_20_20)"/>
</g>
<g opacity="0.5" filter="url(#filter8_f_20_20)">
<path d="M64.8555 99.3926V121.436C66.8224 121.672 68.8693 121.815 71.0167 121.815C73.1693 121.815 75.2519 121.702 77.2755 121.494V99.5412C75.0078 99.9371 72.8719 100.078 71.032 100.078C68.913 100.078 66.8522 99.826 64.8555 99.3926Z" fill="url(#paint7_linear_20_20)"/>
</g>
</g>
<path d="M174.545 63.8516C174.322 63.0739 174.007 62.3867 173.603 61.7901C173.198 61.1829 172.702 60.6715 172.116 60.256C171.541 59.8299 170.881 59.505 170.135 59.2812C169.4 59.0575 168.585 58.9457 167.69 58.9457C166.017 58.9457 164.547 59.3612 163.279 60.1921C162.022 61.0231 161.042 62.2322 160.339 63.8196C159.636 65.3963 159.284 67.3246 159.284 69.6044C159.284 71.8842 159.631 73.8232 160.323 75.4212C161.016 77.0192 161.996 78.239 163.263 79.0806C164.531 79.9116 166.028 80.3271 167.754 80.3271C169.32 80.3271 170.657 80.0501 171.765 79.4961C172.884 78.9315 173.736 78.1378 174.322 77.1151C174.918 76.0923 175.217 74.8832 175.217 73.4876L176.623 73.6953H168.185V68.4858H181.88V72.6087C181.88 75.4851 181.273 77.9567 180.059 80.0234C178.844 82.0795 177.172 83.6669 175.041 84.7855C172.91 85.8935 170.471 86.4474 167.722 86.4474C164.654 86.4474 161.958 85.771 159.636 84.418C157.314 83.0543 155.502 81.1207 154.203 78.6172C152.914 76.103 152.269 73.12 152.269 69.6683C152.269 67.0156 152.653 64.6506 153.42 62.5732C154.197 60.4851 155.284 58.7166 156.68 57.2678C158.075 55.8189 159.7 54.7163 161.554 53.9599C163.407 53.2035 165.415 52.8253 167.578 52.8253C169.432 52.8253 171.158 53.0969 172.756 53.6403C174.354 54.1729 175.771 54.9293 177.006 55.9094C178.253 56.8896 179.27 58.0561 180.059 59.4091C180.847 60.7514 181.353 62.2322 181.577 63.8516H174.545ZM198.04 86.4794C195.558 86.4794 193.411 85.9521 191.6 84.8974C189.8 83.832 188.41 82.3512 187.429 80.4549C186.449 78.5479 185.959 76.3374 185.959 73.8232C185.959 71.2876 186.449 69.0717 187.429 67.1754C188.41 65.2685 189.8 63.7876 191.6 62.733C193.411 61.6676 195.558 61.1349 198.04 61.1349C200.522 61.1349 202.664 61.6676 204.464 62.733C206.275 63.7876 207.671 65.2685 208.651 67.1754C209.631 69.0717 210.121 71.2876 210.121 73.8232C210.121 76.3374 209.631 78.5479 208.651 80.4549C207.671 82.3512 206.275 83.832 204.464 84.8974C202.664 85.9521 200.522 86.4794 198.04 86.4794ZM198.072 81.206C199.201 81.206 200.144 80.8864 200.901 80.2472C201.657 79.5973 202.227 78.7131 202.611 77.5945C203.005 76.4759 203.202 75.2028 203.202 73.7752C203.202 72.3477 203.005 71.0746 202.611 69.956C202.227 68.8374 201.657 67.9531 200.901 67.3033C200.144 66.6534 199.201 66.3285 198.072 66.3285C196.932 66.3285 195.973 66.6534 195.196 67.3033C194.429 67.9531 193.848 68.8374 193.454 69.956C193.07 71.0746 192.879 72.3477 192.879 73.7752C192.879 75.2028 193.07 76.4759 193.454 77.5945C193.848 78.7131 194.429 79.5973 195.196 80.2472C195.973 80.8864 196.932 81.206 198.072 81.206ZM225.638 86.4794C223.156 86.4794 221.009 85.9521 219.198 84.8974C217.397 83.832 216.007 82.3512 215.027 80.4549C214.047 78.5479 213.557 76.3374 213.557 73.8232C213.557 71.2876 214.047 69.0717 215.027 67.1754C216.007 65.2685 217.397 63.7876 219.198 62.733C221.009 61.6676 223.156 61.1349 225.638 61.1349C228.12 61.1349 230.261 61.6676 232.062 62.733C233.873 63.7876 235.269 65.2685 236.249 67.1754C237.229 69.0717 237.719 71.2876 237.719 73.8232C237.719 76.3374 237.229 78.5479 236.249 80.4549C235.269 82.3512 233.873 83.832 232.062 84.8974C230.261 85.9521 228.12 86.4794 225.638 86.4794ZM225.67 81.206C226.799 81.206 227.742 80.8864 228.498 80.2472C229.255 79.5973 229.825 78.7131 230.208 77.5945C230.602 76.4759 230.799 75.2028 230.799 73.7752C230.799 72.3477 230.602 71.0746 230.208 69.956C229.825 68.8374 229.255 67.9531 228.498 67.3033C227.742 66.6534 226.799 66.3285 225.67 66.3285C224.53 66.3285 223.571 66.6534 222.793 67.3033C222.026 67.9531 221.446 68.8374 221.052 69.956C220.668 71.0746 220.476 72.3477 220.476 73.7752C220.476 75.2028 220.668 76.4759 221.052 77.5945C221.446 78.7131 222.026 79.5973 222.793 80.2472C223.571 80.8864 224.53 81.206 225.67 81.206ZM253.204 95.7159C250.998 95.7159 249.107 95.4123 247.531 94.805C245.965 94.2085 244.718 93.3935 243.791 92.3601C242.864 91.3267 242.263 90.1655 241.986 88.8764L248.282 88.0295C248.473 88.5195 248.777 88.9776 249.193 89.4038C249.608 89.8299 250.157 90.1708 250.839 90.4265C251.531 90.6928 252.373 90.826 253.363 90.826C254.844 90.826 256.064 90.4638 257.023 89.7393C257.992 89.0256 258.477 87.8271 258.477 86.1438V81.6534H258.189C257.891 82.3352 257.444 82.9798 256.847 83.587C256.25 84.1942 255.483 84.6896 254.546 85.0732C253.608 85.4567 252.49 85.6484 251.19 85.6484C249.347 85.6484 247.669 85.2223 246.156 84.37C244.654 83.5071 243.456 82.1914 242.561 80.4229C241.677 78.6438 241.234 76.396 241.234 73.6793C241.234 70.8988 241.687 68.5763 242.593 66.712C243.498 64.8477 244.702 63.4521 246.204 62.5252C247.717 61.5984 249.374 61.1349 251.174 61.1349C252.548 61.1349 253.699 61.3693 254.626 61.8381C255.553 62.2962 256.298 62.8714 256.863 63.5639C257.438 64.2457 257.88 64.9169 258.189 65.5774H258.445V61.4545H265.205V86.2397C265.205 88.3278 264.693 90.0749 263.671 91.4812C262.648 92.8874 261.231 93.9421 259.42 94.6452C257.619 95.359 255.547 95.7159 253.204 95.7159ZM253.347 80.5348C254.445 80.5348 255.372 80.2631 256.128 79.7198C256.895 79.1658 257.481 78.3775 257.886 77.3548C258.301 76.3214 258.509 75.0856 258.509 73.6474C258.509 72.2092 258.307 70.9627 257.902 69.908C257.497 68.8427 256.911 68.017 256.144 67.4311C255.377 66.8452 254.445 66.5522 253.347 66.5522C252.229 66.5522 251.286 66.8558 250.519 67.4631C249.752 68.0597 249.171 68.8906 248.777 69.956C248.383 71.0213 248.186 72.2518 248.186 73.6474C248.186 75.0643 248.383 76.2894 248.777 77.3228C249.182 78.3455 249.763 79.1392 250.519 79.7038C251.286 80.2578 252.229 80.5348 253.347 80.5348ZM277.429 53.2727V86H270.622V53.2727H277.429ZM294.069 86.4794C291.544 86.4794 289.371 85.968 287.549 84.9453C285.738 83.9119 284.342 82.4524 283.362 80.5668C282.382 78.6705 281.892 76.4279 281.892 73.8391C281.892 71.3143 282.382 69.0984 283.362 67.1914C284.342 65.2844 285.722 63.7983 287.501 62.733C289.291 61.6676 291.389 61.1349 293.797 61.1349C295.416 61.1349 296.924 61.396 298.319 61.918C299.726 62.4293 300.951 63.2017 301.995 64.2351C303.05 65.2685 303.87 66.5682 304.456 68.1342C305.042 69.6896 305.335 71.5114 305.335 73.5994V75.4691H284.608V71.2504H298.927C298.927 70.2702 298.714 69.402 298.287 68.6456C297.861 67.8892 297.27 67.2979 296.514 66.8718C295.768 66.435 294.9 66.2166 293.909 66.2166C292.876 66.2166 291.959 66.4563 291.16 66.9357C290.372 67.4045 289.754 68.0384 289.307 68.8374C288.859 69.6257 288.63 70.5046 288.619 71.4741V75.4851C288.619 76.6996 288.843 77.7489 289.291 78.6332C289.749 79.5174 290.393 80.1992 291.224 80.6786C292.055 81.158 293.041 81.3977 294.181 81.3977C294.937 81.3977 295.629 81.2912 296.258 81.0781C296.887 80.8651 297.425 80.5455 297.872 80.1193C298.319 79.6932 298.66 79.1712 298.895 78.5533L305.191 78.9688C304.871 80.4815 304.216 81.8026 303.225 82.9318C302.245 84.0504 300.977 84.924 299.422 85.5526C297.877 86.1705 296.093 86.4794 294.069 86.4794ZM350.395 69.6364C350.395 73.2053 349.718 76.2415 348.365 78.745C347.023 81.2486 345.19 83.1609 342.868 84.4819C340.556 85.7923 337.957 86.4474 335.07 86.4474C332.161 86.4474 329.551 85.7869 327.239 84.4659C324.928 83.1449 323.101 81.2326 321.758 78.729C320.416 76.2255 319.745 73.1946 319.745 69.6364C319.745 66.0675 320.416 63.0312 321.758 60.5277C323.101 58.0241 324.928 56.1172 327.239 54.8068C329.551 53.4858 332.161 52.8253 335.07 52.8253C337.957 52.8253 340.556 53.4858 342.868 54.8068C345.19 56.1172 347.023 58.0241 348.365 60.5277C349.718 63.0312 350.395 66.0675 350.395 69.6364ZM343.379 69.6364C343.379 67.3246 343.033 65.375 342.341 63.7876C341.659 62.2003 340.695 60.9964 339.448 60.1761C338.202 59.3558 336.742 58.9457 335.07 58.9457C333.397 58.9457 331.938 59.3558 330.691 60.1761C329.445 60.9964 328.475 62.2003 327.783 63.7876C327.101 65.375 326.76 67.3246 326.76 69.6364C326.76 71.9482 327.101 73.8977 327.783 75.4851C328.475 77.0724 329.445 78.2763 330.691 79.0966C331.938 79.9169 333.397 80.3271 335.07 80.3271C336.742 80.3271 338.202 79.9169 339.448 79.0966C340.695 78.2763 341.659 77.0724 342.341 75.4851C343.033 73.8977 343.379 71.9482 343.379 69.6364ZM359.316 86H351.901L363.199 53.2727H372.116L383.398 86H375.983L367.785 60.7514H367.529L359.316 86ZM358.852 73.136H376.366V78.5373H358.852V73.136ZM402.949 75.549V61.4545H409.757V86H403.221V81.5415H402.965C402.411 82.9798 401.49 84.1357 400.201 85.0092C398.922 85.8828 397.362 86.3196 395.518 86.3196C393.878 86.3196 392.434 85.9467 391.188 85.201C389.941 84.4553 388.967 83.3952 388.263 82.021C387.571 80.6467 387.219 79.0007 387.209 77.0831V61.4545H394.016V75.8686C394.027 77.3175 394.416 78.4627 395.183 79.3043C395.95 80.146 396.978 80.5668 398.267 80.5668C399.087 80.5668 399.854 80.3803 400.568 80.0075C401.282 79.6239 401.857 79.0593 402.294 78.3136C402.741 77.5678 402.96 76.6463 402.949 75.549ZM428.258 61.4545V66.5682H413.476V61.4545H428.258ZM416.832 55.5739H423.639V78.4574C423.639 79.0859 423.735 79.576 423.927 79.9276C424.119 80.2685 424.385 80.5082 424.726 80.6467C425.078 80.7852 425.483 80.8544 425.941 80.8544C426.26 80.8544 426.58 80.8278 426.899 80.7745C427.219 80.7106 427.464 80.6626 427.635 80.6307L428.705 85.6964C428.364 85.8029 427.885 85.9254 427.267 86.0639C426.649 86.2131 425.898 86.3036 425.014 86.3356C423.373 86.3995 421.935 86.1811 420.699 85.6804C419.474 85.1797 418.521 84.402 417.839 83.3473C417.157 82.2926 416.821 80.9609 416.832 79.3523V55.5739ZM440.027 71.8097V86H433.22V53.2727H439.835V65.7852H440.123C440.677 64.3363 441.572 63.2017 442.808 62.3814C444.043 61.5504 445.593 61.1349 447.458 61.1349C449.162 61.1349 450.649 61.5078 451.916 62.2536C453.195 62.9886 454.185 64.0486 454.889 65.4336C455.602 66.8079 455.954 68.4538 455.943 70.3714V86H449.136V71.5859C449.146 70.0732 448.763 68.896 447.985 68.0543C447.218 67.2127 446.142 66.7919 444.757 66.7919C443.83 66.7919 443.01 66.989 442.296 67.3832C441.593 67.7773 441.039 68.3526 440.634 69.109C440.24 69.8548 440.038 70.755 440.027 71.8097Z" fill="white"/>
<defs>
<filter id="filter0_f_20_20" x="18.7941" y="69.8727" width="39.7727" height="36.9485" filterUnits="userSpaceOnUse" color-interpolation-filters="sRGB">
<feFlood flood-opacity="0" result="BackgroundImageFix"/>
<feBlend mode="normal" in="SourceGraphic" in2="BackgroundImageFix" result="shape"/>
<feGaussianBlur stdDeviation="0.23504" result="effect1_foregroundBlur_20_20"/>
</filter>
<filter id="filter1_f_20_20" x="69.1771" y="18.09" width="36.9214" height="29.6203" filterUnits="userSpaceOnUse" color-interpolation-filters="sRGB">
<feFlood flood-opacity="0" result="BackgroundImageFix"/>
<feBlend mode="normal" in="SourceGraphic" in2="BackgroundImageFix" result="shape"/>
<feGaussianBlur stdDeviation="0.23504" result="effect1_foregroundBlur_20_20"/>
</filter>
<filter id="filter2_f_20_20" x="31.4808" y="18.0245" width="40.4277" height="32.8625" filterUnits="userSpaceOnUse" color-interpolation-filters="sRGB">
<feFlood flood-opacity="0" result="BackgroundImageFix"/>
<feBlend mode="normal" in="SourceGraphic" in2="BackgroundImageFix" result="shape"/>
<feGaussianBlur stdDeviation="0.23504" result="effect1_foregroundBlur_20_20"/>
</filter>
<filter id="filter3_f_20_20" x="65.9418" y="70.6994" width="55.1845" height="51.5075" filterUnits="userSpaceOnUse" color-interpolation-filters="sRGB">
<feFlood flood-opacity="0" result="BackgroundImageFix"/>
<feBlend mode="normal" in="SourceGraphic" in2="BackgroundImageFix" result="shape"/>
<feGaussianBlur stdDeviation="0.23504" result="effect1_foregroundBlur_20_20"/>
</filter>
<filter id="filter4_f_20_20" x="69.8495" y="59.3097" width="51.3664" height="22.0661" filterUnits="userSpaceOnUse" color-interpolation-filters="sRGB">
<feFlood flood-opacity="0" result="BackgroundImageFix"/>
<feBlend mode="normal" in="SourceGraphic" in2="BackgroundImageFix" result="shape"/>
<feGaussianBlur stdDeviation="0.23504" result="effect1_foregroundBlur_20_20"/>
</filter>
<filter id="filter5_f_20_20" x="18.7838" y="34.735" width="33.1704" height="38.1325" filterUnits="userSpaceOnUse" color-interpolation-filters="sRGB">
<feFlood flood-opacity="0" result="BackgroundImageFix"/>
<feBlend mode="normal" in="SourceGraphic" in2="BackgroundImageFix" result="shape"/>
<feGaussianBlur stdDeviation="0.23504" result="effect1_foregroundBlur_20_20"/>
</filter>
<filter id="filter6_f_20_20" x="26.2845" y="19.367" width="36.7218" height="32.3704" filterUnits="userSpaceOnUse" color-interpolation-filters="sRGB">
<feFlood flood-opacity="0" result="BackgroundImageFix"/>
<feBlend mode="normal" in="SourceGraphic" in2="BackgroundImageFix" result="shape"/>
<feGaussianBlur stdDeviation="1.65243" result="effect1_foregroundBlur_20_20"/>
</filter>
<filter id="filter7_f_20_20" x="33.7838" y="95.6017" width="37.7517" height="26.6828" filterUnits="userSpaceOnUse" color-interpolation-filters="sRGB">
<feFlood flood-opacity="0" result="BackgroundImageFix"/>
<feBlend mode="normal" in="SourceGraphic" in2="BackgroundImageFix" result="shape"/>
<feGaussianBlur stdDeviation="0.23504" result="effect1_foregroundBlur_20_20"/>
</filter>
<filter id="filter8_f_20_20" x="64.3854" y="98.9225" width="13.3603" height="23.362" filterUnits="userSpaceOnUse" color-interpolation-filters="sRGB">
<feFlood flood-opacity="0" result="BackgroundImageFix"/>
<feBlend mode="normal" in="SourceGraphic" in2="BackgroundImageFix" result="shape"/>
<feGaussianBlur stdDeviation="0.23504" result="effect1_foregroundBlur_20_20"/>
</filter>
<radialGradient id="paint0_radial_20_20" cx="0" cy="0" r="1" gradientUnits="userSpaceOnUse" gradientTransform="translate(57.6294 105.585) rotate(-92.3395) scale(50.9063 74.7752)">
<stop offset="0.141612" stop-color="#1ABD4D"/>
<stop offset="0.247515" stop-color="#6EC30D"/>
<stop offset="0.311547" stop-color="#8AC502"/>
<stop offset="0.366013" stop-color="#A2C600"/>
<stop offset="0.445673" stop-color="#C8C903"/>
<stop offset="0.540305" stop-color="#EBCB03"/>
<stop offset="0.615636" stop-color="#F7CD07"/>
<stop offset="0.699345" stop-color="#FDCD04"/>
<stop offset="0.771242" stop-color="#FDCE05"/>
<stop offset="0.860566" stop-color="#FFCE0A"/>
</radialGradient>
<radialGradient id="paint1_radial_20_20" cx="0" cy="0" r="1" gradientTransform="matrix(35.2903 -8.66278e-05 -4.96019e-05 45.5755 104.229 46.1575)" gradientUnits="userSpaceOnUse">
<stop offset="0.408458" stop-color="#FB4E5A"/>
<stop offset="1" stop-color="#FF4540"/>
</radialGradient>
<radialGradient id="paint2_radial_20_20" cx="0" cy="0" r="1" gradientUnits="userSpaceOnUse" gradientTransform="translate(84.9568 11.8974) rotate(151.02) scale(56.5215 76.6992)">
<stop offset="0.231273" stop-color="#FF4541"/>
<stop offset="0.311547" stop-color="#FF4540"/>
<stop offset="0.457516" stop-color="#FF4640"/>
<stop offset="0.540305" stop-color="#FF473F"/>
<stop offset="0.699346" stop-color="#FF5138"/>
<stop offset="0.771242" stop-color="#FF5B33"/>
<stop offset="0.860566" stop-color="#FF6C29"/>
<stop offset="1" stop-color="#FF8C18"/>
</radialGradient>
<radialGradient id="paint3_radial_20_20" cx="0" cy="0" r="1" gradientUnits="userSpaceOnUse" gradientTransform="translate(71.8006 115.126) rotate(-127.454) scale(147.45 54.4276)">
<stop offset="0.131546" stop-color="#0CBA65"/>
<stop offset="0.209784" stop-color="#0BB86D"/>
<stop offset="0.297297" stop-color="#09B479"/>
<stop offset="0.396257" stop-color="#08AD93"/>
<stop offset="0.477124" stop-color="#0AA6A9"/>
<stop offset="0.568425" stop-color="#0D9CC6"/>
<stop offset="0.667385" stop-color="#1893DD"/>
<stop offset="0.768727" stop-color="#258BF1"/>
<stop offset="0.858506" stop-color="#3086FF"/>
</radialGradient>
<radialGradient id="paint4_radial_20_20" cx="0" cy="0" r="1" gradientUnits="userSpaceOnUse" gradientTransform="translate(66.6835 28.1412) rotate(96.6178) scale(55.062 76.1328)">
<stop offset="0.366013" stop-color="#FF4E3A"/>
<stop offset="0.457516" stop-color="#FF8A1B"/>
<stop offset="0.540305" stop-color="#FFA312"/>
<stop offset="0.615636" stop-color="#FFB60C"/>
<stop offset="0.771242" stop-color="#FFCD0A"/>
<stop offset="0.860566" stop-color="#FECF0A"/>
<stop offset="0.915033" stop-color="#FECF08"/>
<stop offset="1" stop-color="#FDCD01"/>
</radialGradient>
<radialGradient id="paint5_radial_20_20" cx="0" cy="0" r="1" gradientUnits="userSpaceOnUse" gradientTransform="translate(57.7599 27.5738) rotate(132.119) scale(27.3488 77.1385)">
<stop offset="0.315904" stop-color="#FF4C3C"/>
<stop offset="0.603818" stop-color="#FF692C"/>
<stop offset="0.726837" stop-color="#FF7825"/>
<stop offset="0.884534" stop-color="#FF8D1B"/>
<stop offset="1" stop-color="#FF9F13"/>
</radialGradient>
<radialGradient id="paint6_radial_20_20" cx="0" cy="0" r="1" gradientUnits="userSpaceOnUse" gradientTransform="translate(84.9567 128.101) rotate(-151.02) scale(56.5215 76.6992)">
<stop offset="0.231273" stop-color="#0FBC5F"/>
<stop offset="0.311547" stop-color="#0FBC5F"/>
<stop offset="0.366013" stop-color="#0FBC5E"/>
<stop offset="0.457516" stop-color="#0FBC5D"/>
<stop offset="0.540305" stop-color="#12BC58"/>
<stop offset="0.699346" stop-color="#28BF3C"/>
<stop offset="0.771242" stop-color="#38C02B"/>
<stop offset="0.860566" stop-color="#52C218"/>
<stop offset="0.915033" stop-color="#67C30F"/>
<stop offset="1" stop-color="#86C504"/>
</radialGradient>
<linearGradient id="paint7_linear_20_20" x1="64.8555" y1="110.604" x2="77.2755" y2="110.604" gradientUnits="userSpaceOnUse">
<stop stop-color="#0FBC5C"/>
<stop offset="1" stop-color="#0CBA65"/>
</linearGradient>
</defs>
</svg>
