<svg width="515" height="140" viewBox="0 0 515 140" fill="none" xmlns="http://www.w3.org/2000/svg">
<rect width="514.773" height="140" rx="20" fill="#474F5E"/>
<path d="M39.2382 94.0974C42.1311 97.784 44.764 101.667 47.1179 105.719C49.1277 109.53 49.9654 112.114 51.4344 116.706C52.335 119.243 53.1491 120 54.8993 120C56.8068 120 57.6721 118.712 58.3407 116.72C59.729 112.384 60.8185 109.074 62.5372 105.947C65.9097 99.9103 70.1003 94.5457 74.2181 89.3896C75.3331 87.9305 82.5403 79.4293 85.785 72.7216C85.785 72.7216 89.7731 65.3532 89.7731 55.0625C89.7731 45.4366 85.8401 38.7603 85.8401 38.7603L74.517 41.7927L67.6402 59.904L65.9392 62.4015L65.599 62.8538L65.1467 63.4201L64.3522 64.3247L63.2176 65.4594L57.0939 70.4484L41.7848 79.2877L39.2382 94.0974Z" fill="#34A853"/>
<path d="M23.4374 71.4827C27.1738 80.0173 34.379 87.5195 39.2539 94.1033L65.1467 63.4319C65.1467 63.4319 61.4989 68.2026 54.8816 68.2026C47.5112 68.2026 41.5567 62.3169 41.5567 54.8954C41.5567 49.8061 44.6185 46.3097 44.6185 46.3097L27.042 51.0194L23.4374 71.4827Z" fill="#FBBC04"/>
<path d="M65.4358 21.5771C74.0352 24.3499 81.3958 30.1707 85.848 38.7544L65.1546 63.4142C65.1546 63.4142 68.2164 59.8549 68.2164 54.7971C68.2164 47.2025 61.8214 41.5291 54.9131 41.5291C48.3804 41.5291 44.6283 46.292 44.6283 46.292V30.7567L65.4358 21.5771Z" fill="#4285F4"/>
<path d="M28.1806 32.4735C33.3171 26.3282 42.3551 20 54.8148 20C60.8598 20 65.4141 21.587 65.4141 21.587L44.6087 46.3058H29.8679L28.1806 32.4735Z" fill="#1A73E8"/>
<path d="M23.4374 71.4827C23.4374 71.4827 20 64.7514 20 54.9996C20 45.7827 23.5829 37.726 28.1806 32.4735L44.6205 46.3077L23.4374 71.4827Z" fill="#EA4335"/>
<path d="M144.319 63.8516C144.095 63.0739 143.781 62.3867 143.376 61.7901C142.971 61.1829 142.475 60.6715 141.89 60.256C141.314 59.8299 140.654 59.505 139.908 59.2812C139.173 59.0575 138.358 58.9457 137.463 58.9457C135.79 58.9457 134.32 59.3612 133.053 60.1921C131.795 61.0231 130.815 62.2322 130.112 63.8196C129.409 65.3963 129.058 67.3246 129.058 69.6044C129.058 71.8842 129.404 73.8232 130.096 75.4212C130.789 77.0192 131.769 78.239 133.037 79.0806C134.304 79.9116 135.801 80.3271 137.527 80.3271C139.093 80.3271 140.43 80.0501 141.538 79.4961C142.657 78.9315 143.509 78.1378 144.095 77.1151C144.691 76.0923 144.99 74.8832 144.99 73.4876L146.396 73.6953H137.958V68.4858H151.653V72.6087C151.653 75.4851 151.046 77.9567 149.832 80.0234C148.617 82.0795 146.945 83.6669 144.814 84.7855C142.683 85.8935 140.244 86.4474 137.495 86.4474C134.427 86.4474 131.732 85.771 129.409 84.418C127.087 83.0543 125.276 81.1207 123.976 78.6172C122.687 76.103 122.042 73.12 122.042 69.6683C122.042 67.0156 122.426 64.6506 123.193 62.5732C123.971 60.4851 125.057 58.7166 126.453 57.2678C127.848 55.8189 129.473 54.7163 131.327 53.9599C133.18 53.2035 135.189 52.8253 137.351 52.8253C139.205 52.8253 140.931 53.0969 142.529 53.6403C144.127 54.1729 145.544 54.9293 146.779 55.9094C148.026 56.8896 149.043 58.0561 149.832 59.4091C150.62 60.7514 151.126 62.2322 151.35 63.8516H144.319ZM167.813 86.4794C165.331 86.4794 163.184 85.9521 161.373 84.8974C159.573 83.832 158.183 82.3512 157.202 80.4549C156.222 78.5479 155.732 76.3374 155.732 73.8232C155.732 71.2876 156.222 69.0717 157.202 67.1754C158.183 65.2685 159.573 63.7876 161.373 62.733C163.184 61.6676 165.331 61.1349 167.813 61.1349C170.296 61.1349 172.437 61.6676 174.237 62.733C176.048 63.7876 177.444 65.2685 178.424 67.1754C179.404 69.0717 179.894 71.2876 179.894 73.8232C179.894 76.3374 179.404 78.5479 178.424 80.4549C177.444 82.3512 176.048 83.832 174.237 84.8974C172.437 85.9521 170.296 86.4794 167.813 86.4794ZM167.845 81.206C168.975 81.206 169.917 80.8864 170.674 80.2472C171.43 79.5973 172 78.7131 172.384 77.5945C172.778 76.4759 172.975 75.2028 172.975 73.7752C172.975 72.3477 172.778 71.0746 172.384 69.956C172 68.8374 171.43 67.9531 170.674 67.3033C169.917 66.6534 168.975 66.3285 167.845 66.3285C166.705 66.3285 165.747 66.6534 164.969 67.3033C164.202 67.9531 163.621 68.8374 163.227 69.956C162.843 71.0746 162.652 72.3477 162.652 73.7752C162.652 75.2028 162.843 76.4759 163.227 77.5945C163.621 78.7131 164.202 79.5973 164.969 80.2472C165.747 80.8864 166.705 81.206 167.845 81.206ZM195.411 86.4794C192.929 86.4794 190.782 85.9521 188.971 84.8974C187.171 83.832 185.78 82.3512 184.8 80.4549C183.82 78.5479 183.33 76.3374 183.33 73.8232C183.33 71.2876 183.82 69.0717 184.8 67.1754C185.78 65.2685 187.171 63.7876 188.971 62.733C190.782 61.6676 192.929 61.1349 195.411 61.1349C197.893 61.1349 200.035 61.6676 201.835 62.733C203.646 63.7876 205.042 65.2685 206.022 67.1754C207.002 69.0717 207.492 71.2876 207.492 73.8232C207.492 76.3374 207.002 78.5479 206.022 80.4549C205.042 82.3512 203.646 83.832 201.835 84.8974C200.035 85.9521 197.893 86.4794 195.411 86.4794ZM195.443 81.206C196.572 81.206 197.515 80.8864 198.271 80.2472C199.028 79.5973 199.598 78.7131 199.981 77.5945C200.375 76.4759 200.573 75.2028 200.573 73.7752C200.573 72.3477 200.375 71.0746 199.981 69.956C199.598 68.8374 199.028 67.9531 198.271 67.3033C197.515 66.6534 196.572 66.3285 195.443 66.3285C194.303 66.3285 193.344 66.6534 192.566 67.3033C191.799 67.9531 191.219 68.8374 190.825 69.956C190.441 71.0746 190.249 72.3477 190.249 73.7752C190.249 75.2028 190.441 76.4759 190.825 77.5945C191.219 78.7131 191.799 79.5973 192.566 80.2472C193.344 80.8864 194.303 81.206 195.443 81.206ZM222.977 95.7159C220.771 95.7159 218.88 95.4123 217.304 94.805C215.738 94.2085 214.491 93.3935 213.564 92.3601C212.638 91.3267 212.036 90.1655 211.759 88.8764L218.055 88.0295C218.247 88.5195 218.55 88.9776 218.966 89.4038C219.381 89.8299 219.93 90.1708 220.612 90.4265C221.304 90.6928 222.146 90.826 223.136 90.826C224.617 90.826 225.837 90.4638 226.796 89.7393C227.765 89.0256 228.25 87.8271 228.25 86.1438V81.6534H227.962C227.664 82.3352 227.217 82.9798 226.62 83.587C226.024 84.1942 225.256 84.6896 224.319 85.0732C223.381 85.4567 222.263 85.6484 220.963 85.6484C219.12 85.6484 217.442 85.2223 215.929 84.37C214.427 83.5071 213.229 82.1914 212.334 80.4229C211.45 78.6438 211.008 76.396 211.008 73.6793C211.008 70.8988 211.46 68.5763 212.366 66.712C213.271 64.8477 214.475 63.4521 215.977 62.5252C217.49 61.5984 219.147 61.1349 220.947 61.1349C222.321 61.1349 223.472 61.3693 224.399 61.8381C225.326 62.2962 226.071 62.8714 226.636 63.5639C227.211 64.2457 227.653 64.9169 227.962 65.5774H228.218V61.4545H234.978V86.2397C234.978 88.3278 234.466 90.0749 233.444 91.4812C232.421 92.8874 231.004 93.9421 229.193 94.6452C227.392 95.359 225.32 95.7159 222.977 95.7159ZM223.12 80.5348C224.218 80.5348 225.145 80.2631 225.901 79.7198C226.668 79.1658 227.254 78.3775 227.659 77.3548C228.074 76.3214 228.282 75.0856 228.282 73.6474C228.282 72.2092 228.08 70.9627 227.675 69.908C227.27 68.8427 226.684 68.017 225.917 67.4311C225.15 66.8452 224.218 66.5522 223.12 66.5522C222.002 66.5522 221.059 66.8558 220.292 67.4631C219.525 68.0597 218.944 68.8906 218.55 69.956C218.156 71.0213 217.959 72.2518 217.959 73.6474C217.959 75.0643 218.156 76.2894 218.55 77.3228C218.955 78.3455 219.536 79.1392 220.292 79.7038C221.059 80.2578 222.002 80.5348 223.12 80.5348ZM247.202 53.2727V86H240.395V53.2727H247.202ZM263.842 86.4794C261.317 86.4794 259.144 85.968 257.322 84.9453C255.511 83.9119 254.115 82.4524 253.135 80.5668C252.155 78.6705 251.665 76.4279 251.665 73.8391C251.665 71.3143 252.155 69.0984 253.135 67.1914C254.115 65.2844 255.495 63.7983 257.274 62.733C259.064 61.6676 261.162 61.1349 263.57 61.1349C265.189 61.1349 266.697 61.396 268.092 61.918C269.499 62.4293 270.724 63.2017 271.768 64.2351C272.823 65.2685 273.643 66.5682 274.229 68.1342C274.815 69.6896 275.108 71.5114 275.108 73.5994V75.4691H254.382V71.2504H268.7C268.7 70.2702 268.487 69.402 268.061 68.6456C267.634 67.8892 267.043 67.2979 266.287 66.8718C265.541 66.435 264.673 66.2166 263.682 66.2166C262.649 66.2166 261.732 66.4563 260.933 66.9357C260.145 67.4045 259.527 68.0384 259.08 68.8374C258.632 69.6257 258.403 70.5046 258.393 71.4741V75.4851C258.393 76.6996 258.616 77.7489 259.064 78.6332C259.522 79.5174 260.166 80.1992 260.997 80.6786C261.828 81.158 262.814 81.3977 263.954 81.3977C264.71 81.3977 265.403 81.2912 266.031 81.0781C266.66 80.8651 267.198 80.5455 267.645 80.1193C268.092 79.6932 268.433 79.1712 268.668 78.5533L274.964 78.9688C274.644 80.4815 273.989 81.8026 272.998 82.9318C272.018 84.0504 270.751 84.924 269.195 85.5526C267.65 86.1705 265.866 86.4794 263.842 86.4794ZM290.093 53.2727H298.626L307.639 75.2614H308.023L317.036 53.2727H325.569V86H318.857V64.6985H318.586L310.116 85.8402H305.546L297.076 64.6186H296.805V86H290.093V53.2727ZM338.141 86.4634C336.575 86.4634 335.18 86.1918 333.955 85.6484C332.729 85.0945 331.76 84.2795 331.046 83.2035C330.343 82.1168 329.991 80.7638 329.991 79.1445C329.991 77.7809 330.242 76.6357 330.743 75.7088C331.243 74.782 331.925 74.0362 332.788 73.4716C333.651 72.907 334.631 72.4808 335.728 72.1932C336.836 71.9055 337.998 71.7031 339.212 71.5859C340.64 71.4368 341.79 71.2983 342.664 71.1705C343.537 71.032 344.171 70.8295 344.565 70.5632C344.96 70.2969 345.157 69.9027 345.157 69.3807V69.2848C345.157 68.2727 344.837 67.4897 344.198 66.9357C343.569 66.3817 342.674 66.1048 341.513 66.1048C340.288 66.1048 339.313 66.3764 338.589 66.9197C337.864 67.4524 337.385 68.1236 337.151 68.9332L330.854 68.4219C331.174 66.9304 331.803 65.6413 332.74 64.5547C333.678 63.4574 334.887 62.6158 336.368 62.0298C337.859 61.4332 339.585 61.1349 341.545 61.1349C342.909 61.1349 344.214 61.2947 345.46 61.6143C346.717 61.9339 347.831 62.4293 348.8 63.1005C349.78 63.7717 350.553 64.6346 351.117 65.6893C351.682 66.7333 351.964 67.9851 351.964 69.4446V86H345.508V82.5962H345.316C344.922 83.3633 344.395 84.0398 343.734 84.6257C343.074 85.201 342.28 85.6538 341.353 85.984C340.426 86.3036 339.356 86.4634 338.141 86.4634ZM340.091 81.7653C341.092 81.7653 341.977 81.5682 342.744 81.174C343.511 80.7692 344.113 80.2259 344.549 79.544C344.986 78.8622 345.205 78.0898 345.205 77.2269V74.6222C344.991 74.7607 344.698 74.8885 344.326 75.0057C343.963 75.1122 343.553 75.2134 343.095 75.3093C342.637 75.3945 342.179 75.4744 341.721 75.549C341.263 75.6129 340.847 75.6715 340.474 75.7248C339.675 75.842 338.978 76.0284 338.381 76.2841C337.784 76.5398 337.321 76.886 336.991 77.3228C336.661 77.7489 336.495 78.2816 336.495 78.9208C336.495 79.8477 336.831 80.5561 337.502 81.0462C338.184 81.5256 339.047 81.7653 340.091 81.7653ZM357.246 95.2045V61.4545H363.957V65.5774H364.261C364.559 64.9169 364.991 64.2457 365.555 63.5639C366.13 62.8714 366.876 62.2962 367.792 61.8381C368.719 61.3693 369.87 61.1349 371.244 61.1349C373.034 61.1349 374.685 61.6037 376.198 62.5412C377.711 63.468 378.92 64.869 379.825 66.744C380.731 68.6083 381.184 70.9467 381.184 73.7592C381.184 76.4972 380.742 78.8089 379.857 80.6946C378.984 82.5696 377.791 83.9918 376.278 84.9613C374.776 85.9201 373.092 86.3995 371.228 86.3995C369.907 86.3995 368.783 86.1811 367.856 85.7443C366.94 85.3075 366.189 84.7589 365.603 84.0984C365.017 83.4272 364.57 82.7507 364.261 82.0689H364.053V95.2045H357.246ZM363.909 73.7273C363.909 75.1868 364.112 76.4599 364.517 77.5465C364.921 78.6332 365.507 79.4801 366.274 80.0874C367.041 80.6839 367.974 80.9822 369.071 80.9822C370.179 80.9822 371.116 80.6786 371.883 80.0714C372.65 79.4535 373.231 78.6012 373.625 77.5146C374.03 76.4173 374.232 75.1548 374.232 73.7273C374.232 72.3104 374.035 71.0639 373.641 69.9879C373.247 68.9119 372.666 68.0703 371.899 67.4631C371.132 66.8558 370.189 66.5522 369.071 66.5522C367.963 66.5522 367.025 66.8452 366.258 67.4311C365.502 68.017 364.921 68.848 364.517 69.924C364.112 71 363.909 72.2678 363.909 73.7273ZM406.145 68.4538L399.912 68.8374C399.806 68.3047 399.577 67.8253 399.225 67.3991C398.874 66.9624 398.41 66.6161 397.835 66.3604C397.27 66.0941 396.594 65.9609 395.806 65.9609C394.751 65.9609 393.861 66.1847 393.137 66.6321C392.412 67.0689 392.05 67.6548 392.05 68.3899C392.05 68.9759 392.285 69.4712 392.753 69.8761C393.222 70.2809 394.026 70.6058 395.166 70.8509L399.609 71.7457C401.995 72.2358 403.774 73.0241 404.946 74.1108C406.118 75.1974 406.704 76.625 406.704 78.3935C406.704 80.0021 406.23 81.4137 405.282 82.6282C404.344 83.8427 403.055 84.7908 401.415 85.4727C399.785 86.1438 397.904 86.4794 395.774 86.4794C392.524 86.4794 389.936 85.8029 388.007 84.4499C386.09 83.0863 384.966 81.2326 384.635 78.8888L391.331 78.5373C391.534 79.5281 392.024 80.2844 392.801 80.8065C393.579 81.3178 394.575 81.5735 395.79 81.5735C396.983 81.5735 397.942 81.3445 398.666 80.8864C399.401 80.4176 399.774 79.8157 399.785 79.0806C399.774 78.4627 399.513 77.9567 399.002 77.5625C398.49 77.1577 397.702 76.8487 396.637 76.6357L392.386 75.7887C389.989 75.3093 388.204 74.4783 387.032 73.2958C385.871 72.1133 385.291 70.6058 385.291 68.7734C385.291 67.1967 385.717 65.8384 386.569 64.6985C387.432 63.5586 388.641 62.6797 390.197 62.0618C391.763 61.4439 393.595 61.1349 395.694 61.1349C398.794 61.1349 401.233 61.7901 403.013 63.1005C404.802 64.4109 405.846 66.1953 406.145 68.4538ZM427.175 86H419.76L431.058 53.2727H439.975L451.257 86H443.842L435.644 60.7514H435.388L427.175 86ZM426.711 73.136H444.225V78.5373H426.711V73.136ZM455.196 86V53.2727H468.108C470.59 53.2727 472.705 53.7468 474.452 54.695C476.199 55.6325 477.531 56.9375 478.447 58.6101C479.374 60.272 479.837 62.1896 479.837 64.3629C479.837 66.5362 479.368 68.4538 478.431 70.1158C477.493 71.7777 476.135 73.0721 474.356 73.9989C472.587 74.9258 470.446 75.3892 467.932 75.3892H459.702V69.8441H466.813C468.145 69.8441 469.242 69.6151 470.105 69.157C470.979 68.6882 471.629 68.0437 472.055 67.2234C472.491 66.3924 472.71 65.4389 472.71 64.3629C472.71 63.2763 472.491 62.3281 472.055 61.5185C471.629 60.6982 470.979 60.0643 470.105 59.6168C469.232 59.1587 468.124 58.9297 466.781 58.9297H462.115V86H455.196ZM491.251 53.2727V86H484.331V53.2727H491.251Z" fill="white"/>
</svg>
