<svg width="479" height="140" viewBox="0 0 479 140" fill="none" xmlns="http://www.w3.org/2000/svg">
<rect width="478.999" height="140" rx="20" fill="#474F5E"/>
<path d="M99.2449 69.9998C99.2495 76.882 96.8251 83.545 92.3989 88.815C87.9726 94.085 81.8286 97.6238 75.0491 98.8081C68.2695 99.9924 61.2896 98.7461 55.3388 95.2887C49.3881 91.8314 44.8484 86.3849 42.5195 79.9088L25.792 93.2906C30.9933 103.178 39.3575 111.037 49.549 115.614C59.7405 120.191 71.1716 121.221 82.017 118.539C92.8625 115.858 102.497 109.62 109.382 100.822C116.266 92.0233 120.005 81.1717 119.999 69.9998" fill="#00AC47"/>
<path d="M99.2449 69.9998C99.2411 74.6526 98.1255 79.2371 95.9912 83.3715C93.8569 87.5059 90.7656 91.0705 86.9747 93.7683L103.512 106.998C108.698 102.329 112.845 96.6234 115.685 90.2499C118.525 83.8764 119.995 76.9775 119.999 69.9998" fill="#4285F4"/>
<path d="M40.7546 69.9998C40.7618 66.6192 41.3591 63.2659 42.5195 60.0908L25.792 46.709C21.9886 53.8832 20 61.8797 20 69.9998C20 78.1199 21.9886 86.1164 25.792 93.2906L42.5195 79.9088C41.3591 76.7336 40.7618 73.3803 40.7546 69.9998Z" fill="#FFBA00"/>
<path d="M69.9997 40.7546C76.1879 40.7564 82.2138 42.7339 87.1996 46.3991L102.52 32.1C96.8331 27.1964 90.1119 23.6406 82.8582 21.6979C75.6046 19.7551 68.0059 19.4755 60.6292 20.8801C53.2524 22.2846 46.2881 25.3369 40.2559 29.8093C34.2237 34.2817 29.2794 40.0586 25.792 46.709L42.5195 60.0908C44.5595 54.4356 48.2916 49.5458 53.2083 46.0863C58.125 42.6267 63.9879 40.7651 69.9997 40.7546Z" fill="#EA4435"/>
<path d="M119.999 66.2262L119.999 69.9998L111.509 83.2073H71.8865V62.4526H116.226C117.227 62.4526 118.187 62.8502 118.894 63.5579C119.602 64.2656 119.999 65.2254 119.999 66.2262Z" fill="#4285F4"/>
<path d="M174.545 63.8516C174.321 63.0739 174.007 62.3867 173.602 61.7901C173.197 61.1829 172.702 60.6715 172.116 60.256C171.541 59.8299 170.88 59.505 170.134 59.2812C169.399 59.0575 168.584 58.9457 167.689 58.9457C166.017 58.9457 164.547 59.3612 163.279 60.1921C162.022 61.0231 161.042 62.2322 160.339 63.8196C159.636 65.3963 159.284 67.3246 159.284 69.6044C159.284 71.8842 159.63 73.8232 160.323 75.4212C161.015 77.0192 161.995 78.239 163.263 79.0806C164.531 79.9116 166.028 80.3271 167.753 80.3271C169.319 80.3271 170.656 80.0501 171.764 79.4961C172.883 78.9315 173.735 78.1378 174.321 77.1151C174.918 76.0923 175.216 74.8832 175.216 73.4876L176.622 73.6953H168.185V68.4858H181.88V72.6087C181.88 75.4851 181.273 77.9567 180.058 80.0234C178.844 82.0795 177.171 83.6669 175.04 84.7855C172.91 85.8935 170.47 86.4474 167.721 86.4474C164.653 86.4474 161.958 85.771 159.636 84.418C157.313 83.0543 155.502 81.1207 154.202 78.6172C152.913 76.103 152.269 73.12 152.269 69.6683C152.269 67.0156 152.652 64.6506 153.419 62.5732C154.197 60.4851 155.284 58.7166 156.679 57.2678C158.075 55.8189 159.699 54.7163 161.553 53.9599C163.407 53.2035 165.415 52.8253 167.578 52.8253C169.431 52.8253 171.157 53.0969 172.755 53.6403C174.353 54.1729 175.77 54.9293 177.006 55.9094C178.252 56.8896 179.27 58.0561 180.058 59.4091C180.846 60.7514 181.352 62.2322 181.576 63.8516H174.545ZM198.04 86.4794C195.557 86.4794 193.411 85.9521 191.6 84.8974C189.799 83.832 188.409 82.3512 187.429 80.4549C186.449 78.5479 185.959 76.3374 185.959 73.8232C185.959 71.2876 186.449 69.0717 187.429 67.1754C188.409 65.2685 189.799 63.7876 191.6 62.733C193.411 61.6676 195.557 61.1349 198.04 61.1349C200.522 61.1349 202.663 61.6676 204.464 62.733C206.275 63.7876 207.67 65.2685 208.651 67.1754C209.631 69.0717 210.121 71.2876 210.121 73.8232C210.121 76.3374 209.631 78.5479 208.651 80.4549C207.67 82.3512 206.275 83.832 204.464 84.8974C202.663 85.9521 200.522 86.4794 198.04 86.4794ZM198.072 81.206C199.201 81.206 200.144 80.8864 200.9 80.2472C201.657 79.5973 202.227 78.7131 202.61 77.5945C203.004 76.4759 203.201 75.2028 203.201 73.7752C203.201 72.3477 203.004 71.0746 202.61 69.956C202.227 68.8374 201.657 67.9531 200.9 67.3033C200.144 66.6534 199.201 66.3285 198.072 66.3285C196.932 66.3285 195.973 66.6534 195.195 67.3033C194.428 67.9531 193.848 68.8374 193.453 69.956C193.07 71.0746 192.878 72.3477 192.878 73.7752C192.878 75.2028 193.07 76.4759 193.453 77.5945C193.848 78.7131 194.428 79.5973 195.195 80.2472C195.973 80.8864 196.932 81.206 198.072 81.206ZM225.637 86.4794C223.155 86.4794 221.008 85.9521 219.197 84.8974C217.397 83.832 216.007 82.3512 215.027 80.4549C214.046 78.5479 213.556 76.3374 213.556 73.8232C213.556 71.2876 214.046 69.0717 215.027 67.1754C216.007 65.2685 217.397 63.7876 219.197 62.733C221.008 61.6676 223.155 61.1349 225.637 61.1349C228.12 61.1349 230.261 61.6676 232.061 62.733C233.872 63.7876 235.268 65.2685 236.248 67.1754C237.228 69.0717 237.718 71.2876 237.718 73.8232C237.718 76.3374 237.228 78.5479 236.248 80.4549C235.268 82.3512 233.872 83.832 232.061 84.8974C230.261 85.9521 228.12 86.4794 225.637 86.4794ZM225.669 81.206C226.799 81.206 227.741 80.8864 228.498 80.2472C229.254 79.5973 229.824 78.7131 230.208 77.5945C230.602 76.4759 230.799 75.2028 230.799 73.7752C230.799 72.3477 230.602 71.0746 230.208 69.956C229.824 68.8374 229.254 67.9531 228.498 67.3033C227.741 66.6534 226.799 66.3285 225.669 66.3285C224.529 66.3285 223.571 66.6534 222.793 67.3033C222.026 67.9531 221.445 68.8374 221.051 69.956C220.668 71.0746 220.476 72.3477 220.476 73.7752C220.476 75.2028 220.668 76.4759 221.051 77.5945C221.445 78.7131 222.026 79.5973 222.793 80.2472C223.571 80.8864 224.529 81.206 225.669 81.206ZM253.203 95.7159C250.998 95.7159 249.107 95.4123 247.53 94.805C245.964 94.2085 244.718 93.3935 243.791 92.3601C242.864 91.3267 242.262 90.1655 241.985 88.8764L248.281 88.0295C248.473 88.5195 248.777 88.9776 249.192 89.4038C249.608 89.8299 250.156 90.1708 250.838 90.4265C251.53 90.6928 252.372 90.826 253.363 90.826C254.844 90.826 256.064 90.4638 257.022 89.7393C257.992 89.0256 258.477 87.8271 258.477 86.1438V81.6534H258.189C257.891 82.3352 257.443 82.9798 256.847 83.587C256.25 84.1942 255.483 84.6896 254.545 85.0732C253.608 85.4567 252.489 85.6484 251.19 85.6484C249.347 85.6484 247.669 85.2223 246.156 84.37C244.654 83.5071 243.455 82.1914 242.56 80.4229C241.676 78.6438 241.234 76.396 241.234 73.6793C241.234 70.8988 241.687 68.5763 242.592 66.712C243.498 64.8477 244.702 63.4521 246.204 62.5252C247.717 61.5984 249.373 61.1349 251.174 61.1349C252.548 61.1349 253.698 61.3693 254.625 61.8381C255.552 62.2962 256.298 62.8714 256.863 63.5639C257.438 64.2457 257.88 64.9169 258.189 65.5774H258.445V61.4545H265.204V86.2397C265.204 88.3278 264.693 90.0749 263.67 91.4812C262.647 92.8874 261.23 93.9421 259.419 94.6452C257.619 95.359 255.547 95.7159 253.203 95.7159ZM253.347 80.5348C254.444 80.5348 255.371 80.2631 256.127 79.7198C256.894 79.1658 257.48 78.3775 257.885 77.3548C258.301 76.3214 258.508 75.0856 258.508 73.6474C258.508 72.2092 258.306 70.9627 257.901 69.908C257.496 68.8427 256.91 68.017 256.143 67.4311C255.376 66.8452 254.444 66.5522 253.347 66.5522C252.228 66.5522 251.285 66.8558 250.518 67.4631C249.751 68.0597 249.171 68.8906 248.777 69.956C248.382 71.0213 248.185 72.2518 248.185 73.6474C248.185 75.0643 248.382 76.2894 248.777 77.3228C249.181 78.3455 249.762 79.1392 250.518 79.7038C251.285 80.2578 252.228 80.5348 253.347 80.5348ZM277.429 53.2727V86H270.621V53.2727H277.429ZM294.068 86.4794C291.543 86.4794 289.37 85.968 287.548 84.9453C285.737 83.9119 284.342 82.4524 283.362 80.5668C282.381 78.6705 281.891 76.4279 281.891 73.8391C281.891 71.3143 282.381 69.0984 283.362 67.1914C284.342 65.2844 285.721 63.7983 287.5 62.733C289.29 61.6676 291.389 61.1349 293.797 61.1349C295.416 61.1349 296.923 61.396 298.319 61.918C299.725 62.4293 300.95 63.2017 301.994 64.2351C303.049 65.2685 303.869 66.5682 304.455 68.1342C305.041 69.6896 305.334 71.5114 305.334 73.5994V75.4691H284.608V71.2504H298.926C298.926 70.2702 298.713 69.402 298.287 68.6456C297.861 67.8892 297.27 67.2979 296.513 66.8718C295.767 66.435 294.899 66.2166 293.908 66.2166C292.875 66.2166 291.959 66.4563 291.16 66.9357C290.371 67.4045 289.754 68.0384 289.306 68.8374C288.859 69.6257 288.63 70.5046 288.619 71.4741V75.4851C288.619 76.6996 288.843 77.7489 289.29 78.6332C289.748 79.5174 290.393 80.1992 291.224 80.6786C292.055 81.158 293.04 81.3977 294.18 81.3977C294.936 81.3977 295.629 81.2912 296.258 81.0781C296.886 80.8651 297.424 80.5455 297.871 80.1193C298.319 79.6932 298.66 79.1712 298.894 78.5533L305.19 78.9688C304.871 80.4815 304.216 81.8026 303.225 82.9318C302.245 84.0504 300.977 84.924 299.422 85.5526C297.877 86.1705 296.092 86.4794 294.068 86.4794ZM350.394 69.6364C350.394 73.2053 349.718 76.2415 348.365 78.745C347.022 81.2486 345.19 83.1609 342.867 84.4819C340.556 85.7923 337.956 86.4474 335.069 86.4474C332.161 86.4474 329.551 85.7869 327.239 84.4659C324.927 83.1449 323.1 81.2326 321.758 78.729C320.415 76.2255 319.744 73.1946 319.744 69.6364C319.744 66.0675 320.415 63.0312 321.758 60.5277C323.1 58.0241 324.927 56.1172 327.239 54.8068C329.551 53.4858 332.161 52.8253 335.069 52.8253C337.956 52.8253 340.556 53.4858 342.867 54.8068C345.19 56.1172 347.022 58.0241 348.365 60.5277C349.718 63.0312 350.394 66.0675 350.394 69.6364ZM343.379 69.6364C343.379 67.3246 343.033 65.375 342.34 63.7876C341.658 62.2003 340.694 60.9964 339.448 60.1761C338.201 59.3558 336.742 58.9457 335.069 58.9457C333.397 58.9457 331.937 59.3558 330.691 60.1761C329.444 60.9964 328.475 62.2003 327.782 63.7876C327.1 65.375 326.76 67.3246 326.76 69.6364C326.76 71.9482 327.1 73.8977 327.782 75.4851C328.475 77.0724 329.444 78.2763 330.691 79.0966C331.937 79.9169 333.397 80.3271 335.069 80.3271C336.742 80.3271 338.201 79.9169 339.448 79.0966C340.694 78.2763 341.658 77.0724 342.34 75.4851C343.033 73.8977 343.379 71.9482 343.379 69.6364ZM359.315 86H351.9L363.198 53.2727H372.115L383.397 86H375.982L367.784 60.7514H367.529L359.315 86ZM358.852 73.136H376.366V78.5373H358.852V73.136ZM402.949 75.549V61.4545H409.756V86H403.22V81.5415H402.965C402.411 82.9798 401.489 84.1357 400.2 85.0092C398.922 85.8828 397.361 86.3196 395.518 86.3196C393.877 86.3196 392.434 85.9467 391.187 85.201C389.941 84.4553 388.966 83.3952 388.263 82.021C387.571 80.6467 387.219 79.0007 387.208 77.0831V61.4545H394.016V75.8686C394.027 77.3175 394.415 78.4627 395.182 79.3043C395.949 80.146 396.977 80.5668 398.267 80.5668C399.087 80.5668 399.854 80.3803 400.568 80.0075C401.281 79.6239 401.857 79.0593 402.294 78.3136C402.741 77.5678 402.959 76.6463 402.949 75.549ZM428.257 61.4545V66.5682H413.476V61.4545H428.257ZM416.831 55.5739H423.639V78.4574C423.639 79.0859 423.735 79.576 423.927 79.9276C424.118 80.2685 424.385 80.5082 424.726 80.6467C425.077 80.7852 425.482 80.8544 425.94 80.8544C426.26 80.8544 426.579 80.8278 426.899 80.7745C427.219 80.7106 427.464 80.6626 427.634 80.6307L428.705 85.6964C428.364 85.8029 427.884 85.9254 427.266 86.0639C426.649 86.2131 425.898 86.3036 425.013 86.3356C423.373 86.3995 421.934 86.1811 420.699 85.6804C419.473 85.1797 418.52 84.402 417.838 83.3473C417.156 82.2926 416.821 80.9609 416.831 79.3523V55.5739ZM440.027 71.8097V86H433.219V53.2727H439.835V65.7852H440.122C440.676 64.3363 441.571 63.2017 442.807 62.3814C444.043 61.5504 445.593 61.1349 447.457 61.1349C449.162 61.1349 450.648 61.5078 451.916 62.2536C453.194 62.9886 454.185 64.0486 454.888 65.4336C455.602 66.8079 455.953 68.4538 455.943 70.3714V86H449.135V71.5859C449.146 70.0732 448.762 68.896 447.985 68.0543C447.218 67.2127 446.142 66.7919 444.757 66.7919C443.83 66.7919 443.01 66.989 442.296 67.3832C441.593 67.7773 441.039 68.3526 440.634 69.109C440.24 69.8548 440.037 70.755 440.027 71.8097Z" fill="white"/>
</svg>
