<svg width="140" height="140" viewBox="0 0 140 140" fill="none" xmlns="http://www.w3.org/2000/svg">
<g clip-path="url(#paint0_angular_184_770_clip_path)" data-figma-skip-parse="true"><g transform="matrix(0.07 0 0 0.07 70 70)"><foreignObject x="-1014.29" y="-1014.29" width="2028.57" height="2028.57"><div xmlns="http://www.w3.org/1999/xhtml" style="background:conic-gradient(from 90deg,rgba(251, 69, 64, 1) 0deg,rgba(49, 137, 251, 1) 84.8077deg,rgba(12, 185, 104, 1) 166.154deg,rgba(232, 207, 25, 1) 278.654deg,rgba(251, 69, 64, 1) 360deg);height:100%;width:100%;opacity:1"></div></foreignObject></g></g><rect width="140" height="140" rx="20" data-figma-gradient-fill="{&#34;type&#34;:&#34;GRADIENT_ANGULAR&#34;,&#34;stops&#34;:[{&#34;color&#34;:{&#34;r&#34;:0.98431372642517090,&#34;g&#34;:0.27058824896812439,&#34;b&#34;:0.25098040699958801,&#34;a&#34;:1.0},&#34;position&#34;:0.0},{&#34;color&#34;:{&#34;r&#34;:0.19215686619281769,&#34;g&#34;:0.53725492954254150,&#34;b&#34;:0.98431372642517090,&#34;a&#34;:1.0},&#34;position&#34;:0.23557692766189575},{&#34;color&#34;:{&#34;r&#34;:0.047058824449777603,&#34;g&#34;:0.72549021244049072,&#34;b&#34;:0.40784314274787903,&#34;a&#34;:1.0},&#34;position&#34;:0.46153846383094788},{&#34;color&#34;:{&#34;r&#34;:0.90980392694473267,&#34;g&#34;:0.81176471710205078,&#34;b&#34;:0.098039217293262482,&#34;a&#34;:1.0},&#34;position&#34;:0.77403843402862549}],&#34;stopsVar&#34;:[{&#34;color&#34;:{&#34;r&#34;:0.98431372642517090,&#34;g&#34;:0.27058824896812439,&#34;b&#34;:0.25098040699958801,&#34;a&#34;:1.0},&#34;position&#34;:0.0},{&#34;color&#34;:{&#34;r&#34;:0.19215686619281769,&#34;g&#34;:0.53725492954254150,&#34;b&#34;:0.98431372642517090,&#34;a&#34;:1.0},&#34;position&#34;:0.23557692766189575},{&#34;color&#34;:{&#34;r&#34;:0.047058824449777603,&#34;g&#34;:0.72549021244049072,&#34;b&#34;:0.40784314274787903,&#34;a&#34;:1.0},&#34;position&#34;:0.46153846383094788},{&#34;color&#34;:{&#34;r&#34;:0.90980392694473267,&#34;g&#34;:0.81176471710205078,&#34;b&#34;:0.098039217293262482,&#34;a&#34;:1.0},&#34;position&#34;:0.77403843402862549}],&#34;transform&#34;:{&#34;m00&#34;:140.0,&#34;m01&#34;:0.0,&#34;m02&#34;:0.0,&#34;m10&#34;:0.0,&#34;m11&#34;:140.0,&#34;m12&#34;:0.0},&#34;opacity&#34;:1.0,&#34;blendMode&#34;:&#34;NORMAL&#34;,&#34;visible&#34;:true}"/>
<rect x="5" y="5" width="130" height="130" rx="16" fill="#17181F"/>
<path d="M83.4518 51.922H86.5033L95.1968 43.2286L95.6243 39.5399C79.4488 25.2631 54.7558 26.8015 40.4791 42.9771C36.5096 47.4705 33.6299 52.8149 32.0622 58.5993C33.0305 58.2011 34.1036 58.1382 35.1138 58.4149L52.4965 55.5478C52.4965 55.5478 53.3809 54.0849 53.8378 54.1771C61.5714 45.6849 74.5865 44.6956 83.5147 51.922H83.4518Z" fill="#EA4335"/>
<path d="M107.579 58.5993C105.579 51.243 101.48 44.6286 95.7752 39.5693L83.5775 51.7669C88.729 55.9753 91.6632 62.3172 91.5374 68.9693V71.1365C97.5356 71.1365 102.394 75.9988 102.394 81.9929C102.394 87.9911 97.5314 92.8492 91.5374 92.8492H69.8206L67.6535 95.0456V108.069L69.8206 110.236H91.5374C103.987 110.333 115.032 102.264 118.729 90.3762C122.417 78.4845 117.89 65.5742 107.579 58.5993Z" fill="#4285F4"/>
<path d="M48.0743 110.115H69.7912V92.7317H48.0743C46.5276 92.7317 44.9977 92.4007 43.5893 91.7552L40.5378 92.6983L31.7856 101.392L31.0227 104.443C35.9312 108.149 41.921 110.14 48.0743 110.115Z" fill="#34A853"/>
<path d="M48.0743 53.7202C36.0108 53.7914 25.3263 61.5166 21.4784 72.9472C17.6304 84.3778 21.4658 96.9946 31.0269 104.347L43.6228 91.7509C38.1569 89.282 35.7299 82.8521 38.1988 77.3862C40.6677 71.9203 47.0977 69.4933 52.5636 71.9622C54.9696 73.052 56.8977 74.9802 57.9876 77.3862L70.5835 64.7902C65.2224 57.786 56.8936 53.6908 48.0743 53.7202Z" fill="#FBBC05"/>
<defs>
<clipPath id="paint0_angular_184_770_clip_path"><rect width="140" height="140" rx="20"/></clipPath></defs>
</svg>
