<svg width="468" height="140" viewBox="0 0 468 140" fill="none" xmlns="http://www.w3.org/2000/svg">
<rect width="467.999" height="140" rx="20" fill="#474F5E"/>
<path d="M83.4511 51.922H86.5026L95.1961 43.2286L95.6236 39.5399C79.4481 25.2631 54.7551 26.8015 40.4784 42.9771C36.5089 47.4705 33.6292 52.8149 32.0615 58.5993C33.0298 58.2011 34.1029 58.1382 35.1131 58.4149L52.4958 55.5478C52.4958 55.5478 53.3802 54.0849 53.8371 54.1771C61.5707 45.6849 74.5858 44.6956 83.514 51.922H83.4511Z" fill="#EA4335"/>
<path d="M107.578 58.5993C105.579 51.243 101.479 44.6286 95.7745 39.5693L83.5768 51.7669C88.7283 55.9753 91.6625 62.3172 91.5367 68.9693V71.1365C97.5349 71.1365 102.393 75.9988 102.393 81.9929C102.393 87.9911 97.5307 92.8492 91.5367 92.8492H69.8199L67.6528 95.0456V108.069L69.8199 110.236H91.5367C103.986 110.333 115.031 102.264 118.728 90.3762C122.416 78.4845 117.889 65.5742 107.578 58.5993Z" fill="#4285F4"/>
<path d="M48.0736 110.115H69.7905V92.7317H48.0736C46.5269 92.7317 44.997 92.4007 43.5886 91.7552L40.5371 92.6983L31.7849 101.392L31.022 104.443C35.9305 108.149 41.9203 110.14 48.0736 110.115Z" fill="#34A853"/>
<path d="M48.0736 53.7202C36.0101 53.7914 25.3256 61.5166 21.4776 72.9472C17.6297 84.3778 21.4651 96.9946 31.0262 104.347L43.6221 91.7509C38.1562 89.282 35.7292 82.8521 38.1981 77.3862C40.667 71.9202 47.097 69.4933 52.5629 71.9622C54.9689 73.052 56.897 74.9802 57.9869 77.3862L70.5828 64.7902C65.2217 57.786 56.8929 53.6908 48.0736 53.7202Z" fill="#FBBC05"/>
<path d="M174.544 63.8516C174.32 63.0739 174.006 62.3867 173.601 61.7901C173.196 61.1829 172.701 60.6715 172.115 60.256C171.54 59.8299 170.879 59.505 170.133 59.2812C169.398 59.0575 168.583 58.9457 167.689 58.9457C166.016 58.9457 164.546 59.3612 163.278 60.1921C162.021 61.0231 161.041 62.2322 160.338 63.8196C159.635 65.3963 159.283 67.3246 159.283 69.6044C159.283 71.8842 159.629 73.8232 160.322 75.4212C161.014 77.0192 161.994 78.239 163.262 79.0806C164.53 79.9116 166.027 80.3271 167.752 80.3271C169.318 80.3271 170.655 80.0501 171.763 79.4961C172.882 78.9315 173.734 78.1378 174.32 77.1151C174.917 76.0923 175.215 74.8832 175.215 73.4876L176.621 73.6953H168.184V68.4858H181.879V72.6087C181.879 75.4851 181.272 77.9567 180.057 80.0234C178.843 82.0795 177.17 83.6669 175.039 84.7855C172.909 85.8935 170.469 86.4474 167.72 86.4474C164.652 86.4474 161.957 85.771 159.635 84.418C157.312 83.0543 155.501 81.1207 154.201 78.6172C152.912 76.103 152.268 73.12 152.268 69.6683C152.268 67.0156 152.651 64.6506 153.418 62.5732C154.196 60.4851 155.283 58.7166 156.678 57.2678C158.074 55.8189 159.698 54.7163 161.552 53.9599C163.406 53.2035 165.414 52.8253 167.577 52.8253C169.43 52.8253 171.156 53.0969 172.754 53.6403C174.352 54.1729 175.769 54.9293 177.005 55.9094C178.251 56.8896 179.269 58.0561 180.057 59.4091C180.845 60.7514 181.352 62.2322 181.575 63.8516H174.544ZM198.039 86.4794C195.557 86.4794 193.41 85.9521 191.599 84.8974C189.798 83.832 188.408 82.3512 187.428 80.4549C186.448 78.5479 185.958 76.3374 185.958 73.8232C185.958 71.2876 186.448 69.0717 187.428 67.1754C188.408 65.2685 189.798 63.7876 191.599 62.733C193.41 61.6676 195.557 61.1349 198.039 61.1349C200.521 61.1349 202.662 61.6676 204.463 62.733C206.274 63.7876 207.669 65.2685 208.65 67.1754C209.63 69.0717 210.12 71.2876 210.12 73.8232C210.12 76.3374 209.63 78.5479 208.65 80.4549C207.669 82.3512 206.274 83.832 204.463 84.8974C202.662 85.9521 200.521 86.4794 198.039 86.4794ZM198.071 81.206C199.2 81.206 200.143 80.8864 200.899 80.2472C201.656 79.5973 202.226 78.7131 202.609 77.5945C203.003 76.4759 203.2 75.2028 203.2 73.7752C203.2 72.3477 203.003 71.0746 202.609 69.956C202.226 68.8374 201.656 67.9531 200.899 67.3033C200.143 66.6534 199.2 66.3285 198.071 66.3285C196.931 66.3285 195.972 66.6534 195.194 67.3033C194.427 67.9531 193.847 68.8374 193.452 69.956C193.069 71.0746 192.877 72.3477 192.877 73.7752C192.877 75.2028 193.069 76.4759 193.452 77.5945C193.847 78.7131 194.427 79.5973 195.194 80.2472C195.972 80.8864 196.931 81.206 198.071 81.206ZM225.636 86.4794C223.154 86.4794 221.008 85.9521 219.196 84.8974C217.396 83.832 216.006 82.3512 215.026 80.4549C214.045 78.5479 213.555 76.3374 213.555 73.8232C213.555 71.2876 214.045 69.0717 215.026 67.1754C216.006 65.2685 217.396 63.7876 219.196 62.733C221.008 61.6676 223.154 61.1349 225.636 61.1349C228.119 61.1349 230.26 61.6676 232.06 62.733C233.871 63.7876 235.267 65.2685 236.247 67.1754C237.227 69.0717 237.717 71.2876 237.717 73.8232C237.717 76.3374 237.227 78.5479 236.247 80.4549C235.267 82.3512 233.871 83.832 232.06 84.8974C230.26 85.9521 228.119 86.4794 225.636 86.4794ZM225.668 81.206C226.798 81.206 227.74 80.8864 228.497 80.2472C229.253 79.5973 229.823 78.7131 230.207 77.5945C230.601 76.4759 230.798 75.2028 230.798 73.7752C230.798 72.3477 230.601 71.0746 230.207 69.956C229.823 68.8374 229.253 67.9531 228.497 67.3033C227.74 66.6534 226.798 66.3285 225.668 66.3285C224.528 66.3285 223.57 66.6534 222.792 67.3033C222.025 67.9531 221.444 68.8374 221.05 69.956C220.667 71.0746 220.475 72.3477 220.475 73.7752C220.475 75.2028 220.667 76.4759 221.05 77.5945C221.444 78.7131 222.025 79.5973 222.792 80.2472C223.57 80.8864 224.528 81.206 225.668 81.206ZM253.202 95.7159C250.997 95.7159 249.106 95.4123 247.529 94.805C245.963 94.2085 244.717 93.3935 243.79 92.3601C242.863 91.3267 242.261 90.1655 241.984 88.8764L248.28 88.0295C248.472 88.5195 248.776 88.9776 249.191 89.4038C249.607 89.8299 250.155 90.1708 250.837 90.4265C251.53 90.6928 252.371 90.826 253.362 90.826C254.843 90.826 256.063 90.4638 257.021 89.7393C257.991 89.0256 258.476 87.8271 258.476 86.1438V81.6534H258.188C257.89 82.3352 257.442 82.9798 256.846 83.587C256.249 84.1942 255.482 84.6896 254.544 85.0732C253.607 85.4567 252.488 85.6484 251.189 85.6484C249.346 85.6484 247.668 85.2223 246.155 84.37C244.653 83.5071 243.454 82.1914 242.559 80.4229C241.675 78.6438 241.233 76.396 241.233 73.6793C241.233 70.8988 241.686 68.5763 242.591 66.712C243.497 64.8477 244.701 63.4521 246.203 62.5252C247.716 61.5984 249.372 61.1349 251.173 61.1349C252.547 61.1349 253.697 61.3693 254.624 61.8381C255.551 62.2962 256.297 62.8714 256.862 63.5639C257.437 64.2457 257.879 64.9169 258.188 65.5774H258.444V61.4545H265.203V86.2397C265.203 88.3278 264.692 90.0749 263.669 91.4812C262.646 92.8874 261.229 93.9421 259.418 94.6452C257.618 95.359 255.546 95.7159 253.202 95.7159ZM253.346 80.5348C254.443 80.5348 255.37 80.2631 256.126 79.7198C256.894 79.1658 257.479 78.3775 257.884 77.3548C258.3 76.3214 258.508 75.0856 258.508 73.6474C258.508 72.2092 258.305 70.9627 257.9 69.908C257.495 68.8427 256.909 68.017 256.142 67.4311C255.375 66.8452 254.443 66.5522 253.346 66.5522C252.227 66.5522 251.284 66.8558 250.517 67.4631C249.75 68.0597 249.17 68.8906 248.776 69.956C248.381 71.0213 248.184 72.2518 248.184 73.6474C248.184 75.0643 248.381 76.2894 248.776 77.3228C249.18 78.3455 249.761 79.1392 250.517 79.7038C251.284 80.2578 252.227 80.5348 253.346 80.5348ZM277.428 53.2727V86H270.62V53.2727H277.428ZM294.067 86.4794C291.542 86.4794 289.369 85.968 287.547 84.9453C285.736 83.9119 284.341 82.4524 283.361 80.5668C282.38 78.6705 281.89 76.4279 281.89 73.8391C281.89 71.3143 282.38 69.0984 283.361 67.1914C284.341 65.2844 285.72 63.7983 287.499 62.733C289.289 61.6676 291.388 61.1349 293.796 61.1349C295.415 61.1349 296.922 61.396 298.318 61.918C299.724 62.4293 300.949 63.2017 301.993 64.2351C303.048 65.2685 303.868 66.5682 304.454 68.1342C305.04 69.6896 305.333 71.5114 305.333 73.5994V75.4691H284.607V71.2504H298.925C298.925 70.2702 298.712 69.402 298.286 68.6456C297.86 67.8892 297.269 67.2979 296.512 66.8718C295.766 66.435 294.898 66.2166 293.907 66.2166C292.874 66.2166 291.958 66.4563 291.159 66.9357C290.371 67.4045 289.753 68.0384 289.305 68.8374C288.858 69.6257 288.629 70.5046 288.618 71.4741V75.4851C288.618 76.6996 288.842 77.7489 289.289 78.6332C289.747 79.5174 290.392 80.1992 291.223 80.6786C292.054 81.158 293.039 81.3977 294.179 81.3977C294.936 81.3977 295.628 81.2912 296.257 81.0781C296.885 80.8651 297.423 80.5455 297.871 80.1193C298.318 79.6932 298.659 79.1712 298.893 78.5533L305.189 78.9688C304.87 80.4815 304.215 81.8026 303.224 82.9318C302.244 84.0504 300.976 84.924 299.421 85.5526C297.876 86.1705 296.091 86.4794 294.067 86.4794ZM349.195 64.7305H342.195C342.068 63.8249 341.807 63.0206 341.412 62.3175C341.018 61.6037 340.512 60.9964 339.894 60.4957C339.276 59.995 338.563 59.6115 337.753 59.3452C336.954 59.0788 336.086 58.9457 335.148 58.9457C333.454 58.9457 331.979 59.3665 330.722 60.2081C329.465 61.0391 328.49 62.2536 327.797 63.8516C327.105 65.4389 326.759 67.3672 326.759 69.6364C326.759 71.9695 327.105 73.9297 327.797 75.517C328.5 77.1044 329.481 78.3029 330.738 79.1126C331.995 79.9222 333.449 80.3271 335.1 80.3271C336.027 80.3271 336.885 80.2045 337.673 79.9595C338.472 79.7145 339.18 79.3576 339.798 78.8888C340.416 78.4094 340.928 77.8288 341.332 77.147C341.748 76.4652 342.036 75.6875 342.195 74.8139L349.195 74.8459C349.014 76.348 348.561 77.7969 347.836 79.1925C347.123 80.5774 346.158 81.8185 344.944 82.9158C343.74 84.0025 342.302 84.8654 340.629 85.5046C338.967 86.1332 337.087 86.4474 334.988 86.4474C332.069 86.4474 329.459 85.7869 327.158 84.4659C324.868 83.1449 323.057 81.2326 321.725 78.729C320.404 76.2255 319.743 73.1946 319.743 69.6364C319.743 66.0675 320.414 63.0312 321.757 60.5277C323.099 58.0241 324.921 56.1172 327.222 54.8068C329.523 53.4858 332.112 52.8253 334.988 52.8253C336.885 52.8253 338.642 53.0916 340.262 53.6243C341.892 54.157 343.335 54.9347 344.592 55.9574C345.849 56.9695 346.872 58.2106 347.661 59.6808C348.46 61.1509 348.971 62.8342 349.195 64.7305ZM360.836 53.2727V86H354.029V53.2727H360.836ZM377.38 86.4794C374.897 86.4794 372.751 85.9521 370.94 84.8974C369.139 83.832 367.749 82.3512 366.769 80.4549C365.789 78.5479 365.299 76.3374 365.299 73.8232C365.299 71.2876 365.789 69.0717 366.769 67.1754C367.749 65.2685 369.139 63.7876 370.94 62.733C372.751 61.6676 374.897 61.1349 377.38 61.1349C379.862 61.1349 382.003 61.6676 383.804 62.733C385.615 63.7876 387.01 65.2685 387.99 67.1754C388.97 69.0717 389.461 71.2876 389.461 73.8232C389.461 76.3374 388.97 78.5479 387.99 80.4549C387.01 82.3512 385.615 83.832 383.804 84.8974C382.003 85.9521 379.862 86.4794 377.38 86.4794ZM377.412 81.206C378.541 81.206 379.484 80.8864 380.24 80.2472C380.996 79.5973 381.566 78.7131 381.95 77.5945C382.344 76.4759 382.541 75.2028 382.541 73.7752C382.541 72.3477 382.344 71.0746 381.95 69.956C381.566 68.8374 380.996 67.9531 380.24 67.3033C379.484 66.6534 378.541 66.3285 377.412 66.3285C376.272 66.3285 375.313 66.6534 374.535 67.3033C373.768 67.9531 373.187 68.8374 372.793 69.956C372.41 71.0746 372.218 72.3477 372.218 73.7752C372.218 75.2028 372.41 76.4759 372.793 77.5945C373.187 78.7131 373.768 79.5973 374.535 80.2472C375.313 80.8864 376.272 81.206 377.412 81.206ZM409.627 75.549V61.4545H416.435V86H409.899V81.5415H409.643C409.089 82.9798 408.168 84.1357 406.879 85.0092C405.6 85.8828 404.04 86.3196 402.197 86.3196C400.556 86.3196 399.113 85.9467 397.866 85.201C396.62 84.4553 395.645 83.3952 394.942 82.021C394.249 80.6467 393.898 79.0007 393.887 77.0831V61.4545H400.695V75.8686C400.705 77.3175 401.094 78.4627 401.861 79.3043C402.628 80.146 403.656 80.5668 404.945 80.5668C405.766 80.5668 406.533 80.3803 407.246 80.0075C407.96 79.6239 408.535 79.0593 408.972 78.3136C409.42 77.5678 409.638 76.6463 409.627 75.549ZM430.925 86.3995C429.061 86.3995 427.372 85.9201 425.859 84.9613C424.357 83.9918 423.164 82.5696 422.28 80.6946C421.406 78.8089 420.969 76.4972 420.969 73.7592C420.969 70.9467 421.422 68.6083 422.328 66.744C423.233 64.869 424.437 63.468 425.939 62.5412C427.452 61.6037 429.109 61.1349 430.909 61.1349C432.283 61.1349 433.428 61.3693 434.345 61.8381C435.272 62.2962 436.017 62.8714 436.582 63.5639C437.157 64.2457 437.594 64.9169 437.892 65.5774H438.1V53.2727H444.892V86H438.18V82.0689H437.892C437.573 82.7507 437.12 83.4272 436.534 84.0984C435.959 84.7589 435.208 85.3075 434.281 85.7443C433.365 86.1811 432.246 86.3995 430.925 86.3995ZM433.082 80.9822C434.18 80.9822 435.106 80.6839 435.863 80.0874C436.63 79.4801 437.216 78.6332 437.621 77.5465C438.036 76.4599 438.244 75.1868 438.244 73.7273C438.244 72.2678 438.041 71 437.637 69.924C437.232 68.848 436.646 68.017 435.879 67.4311C435.112 66.8452 434.18 66.5522 433.082 66.5522C431.964 66.5522 431.021 66.8558 430.254 67.4631C429.487 68.0703 428.906 68.9119 428.512 69.9879C428.118 71.0639 427.921 72.3104 427.921 73.7273C427.921 75.1548 428.118 76.4173 428.512 77.5146C428.917 78.6012 429.497 79.4535 430.254 80.0714C431.021 80.6786 431.964 80.9822 433.082 80.9822Z" fill="white"/>
</svg>
