<svg width="467" height="140" viewBox="0 0 467 140" fill="none" xmlns="http://www.w3.org/2000/svg">
<rect width="467" height="140" rx="20" fill="#474F5E"/>
<mask id="mask0_133_139" style="mask-type:luminance" maskUnits="userSpaceOnUse" x="20" y="19" width="100" height="102">
<path d="M115.77 58.3055L81.4385 24.4865C74.8762 18.0191 64.3181 18.0646 57.8078 24.584L24.1453 58.3185C21.4944 60.977 20 64.5779 20 68.3348V108.023C20 114.822 25.5097 120.334 32.3059 120.334H107.694C114.49 120.334 120 114.822 120 108.023V68.4063C120 64.6104 118.473 60.9705 115.77 58.3055ZM97.11 96.4079H42.89V71.5913L69.7693 44.8897L97.11 71.5913V96.4079Z" fill="white"/>
</mask>
<g mask="url(#mask0_133_139)">
<path d="M53.763 21.3979L44.707 28.082L64.8896 55.4479L73.9455 48.7638L53.763 21.3979Z" fill="url(#paint0_linear_133_139)"/>
<path d="M74.2525 79.7899L127.576 123.926L141.988 54.5195L74.2525 79.7899Z" fill="#18A1CE"/>
<path d="M8.30493 103.189V83.364L69.0547 79.7891L8.30493 103.189Z" fill="#FCC010"/>
<path d="M69.0546 79.1387L42.4156 136.663L132.939 121.745L69.0546 79.1387Z" fill="#32B55E"/>
<path d="M69.0546 79.1387L42.4156 136.663L116.81 132.438L69.0546 79.1387Z" fill="#32B55E"/>
<path d="M74.2524 79.7891L134.352 104.489L145.398 79.7891H74.2524Z" fill="#18A1CE"/>
<path d="M56.3849 12.1904L70.679 75.2395L16.7513 49.5649L56.3849 12.1904Z" fill="#EF4B5A"/>
<path d="M118.434 25.8398L74.2524 76.5391L126.881 68.7392L118.434 25.8398Z" fill="#537DBF"/>
<path d="M42.89 96.4084H61.0571L49.9773 120.334H32.3059C25.5097 120.334 20 114.822 20 108.023V98.684L42.89 89.8662V96.4084Z" fill="url(#paint1_linear_133_139)"/>
<path d="M120 98.5893V108.023C120 114.821 114.49 120.333 107.694 120.333H105.965L84.5273 96.4079H97.11V89.1826L120 98.5893Z" fill="url(#paint2_linear_133_139)"/>
<path d="M49.4107 65.1141L42.8906 71.5919V81.3288L20 82.6762V68.3361C20 64.5792 21.4944 60.9782 24.1453 58.3198L27.6857 54.7715L49.41 65.1148L49.4107 65.1141Z" fill="url(#paint3_linear_133_139)"/>
<path d="M120 79.7894H97.11V73.1517L120 69.7588V79.7894Z" fill="url(#paint4_linear_133_139)"/>
<path d="M101.98 44.7209L87.0912 61.8065L76.2712 51.2396L86.3622 29.3369L101.98 44.7209Z" fill="url(#paint5_linear_133_139)"/>
<path d="M58.9558 23.536C63.8509 19.4599 78.3522 10.143 83.9984 12.5161L73.6027 51.5155L64.895 49.7313L58.9558 23.536Z" fill="url(#paint6_linear_133_139)"/>
<path d="M13.5838 50.0837L4.40247 77.3418L53.6596 93.9464L62.841 66.6882L13.5838 50.0837Z" fill="url(#paint7_linear_133_139)"/>
<path d="M12.2981 115.362L50.8622 81.4141L72.6282 96.3638L34.8944 136.58L12.2981 115.362Z" fill="url(#paint8_linear_133_139)"/>
<path d="M127.928 56.0642L78.4758 63.6416L82.331 88.8217L131.784 81.2443L127.928 56.0642Z" fill="url(#paint9_linear_133_139)" fill-opacity="0.5"/>
<path d="M80.0224 18.2889L68.7067 69.041L95.2552 74.965L106.571 24.213L80.0224 18.2889Z" fill="url(#paint10_linear_133_139)"/>
<path d="M46.0871 136.788C58.9166 127.533 63.2957 111.677 55.8681 101.373C48.4405 91.0679 32.0189 90.217 19.1894 99.4719C6.35985 108.727 1.98073 124.583 9.40834 134.888C16.8359 145.192 33.2576 146.043 46.0871 136.788Z" fill="url(#paint11_radial_133_139)"/>
<path d="M28.882 118.218C44.5864 116.332 56.0902 104.578 54.5764 91.9638C53.0626 79.3501 39.1046 70.6537 23.4002 72.5399C7.69587 74.426 -3.80789 86.1805 -2.29413 98.7942C-0.780368 111.408 13.1777 120.104 28.882 118.218Z" fill="url(#paint12_radial_133_139)"/>
</g>
<path d="M174.545 63.8516C174.322 63.0739 174.007 62.3867 173.603 61.7901C173.198 61.1829 172.702 60.6715 172.116 60.256C171.541 59.8299 170.881 59.505 170.135 59.2812C169.4 59.0575 168.585 58.9457 167.69 58.9457C166.017 58.9457 164.547 59.3612 163.279 60.1921C162.022 61.0231 161.042 62.2322 160.339 63.8196C159.636 65.3963 159.284 67.3246 159.284 69.6044C159.284 71.8842 159.631 73.8232 160.323 75.4212C161.016 77.0192 161.996 78.239 163.263 79.0806C164.531 79.9116 166.028 80.3271 167.754 80.3271C169.32 80.3271 170.657 80.0501 171.765 79.4961C172.884 78.9315 173.736 78.1378 174.322 77.1151C174.918 76.0923 175.217 74.8832 175.217 73.4876L176.623 73.6953H168.185V68.4858H181.88V72.6087C181.88 75.4851 181.273 77.9567 180.059 80.0234C178.844 82.0795 177.172 83.6669 175.041 84.7855C172.91 85.8935 170.471 86.4474 167.722 86.4474C164.654 86.4474 161.958 85.771 159.636 84.418C157.314 83.0543 155.502 81.1207 154.203 78.6172C152.914 76.103 152.269 73.12 152.269 69.6683C152.269 67.0156 152.653 64.6506 153.42 62.5732C154.197 60.4851 155.284 58.7166 156.68 57.2678C158.075 55.8189 159.7 54.7163 161.554 53.9599C163.407 53.2035 165.415 52.8253 167.578 52.8253C169.432 52.8253 171.158 53.0969 172.756 53.6403C174.354 54.1729 175.771 54.9293 177.006 55.9094C178.253 56.8896 179.27 58.0561 180.059 59.4091C180.847 60.7514 181.353 62.2322 181.577 63.8516H174.545ZM198.04 86.4794C195.558 86.4794 193.411 85.9521 191.6 84.8974C189.8 83.832 188.41 82.3512 187.429 80.4549C186.449 78.5479 185.959 76.3374 185.959 73.8232C185.959 71.2876 186.449 69.0717 187.429 67.1754C188.41 65.2685 189.8 63.7876 191.6 62.733C193.411 61.6676 195.558 61.1349 198.04 61.1349C200.522 61.1349 202.664 61.6676 204.464 62.733C206.275 63.7876 207.671 65.2685 208.651 67.1754C209.631 69.0717 210.121 71.2876 210.121 73.8232C210.121 76.3374 209.631 78.5479 208.651 80.4549C207.671 82.3512 206.275 83.832 204.464 84.8974C202.664 85.9521 200.522 86.4794 198.04 86.4794ZM198.072 81.206C199.201 81.206 200.144 80.8864 200.901 80.2472C201.657 79.5973 202.227 78.7131 202.611 77.5945C203.005 76.4759 203.202 75.2028 203.202 73.7752C203.202 72.3477 203.005 71.0746 202.611 69.956C202.227 68.8374 201.657 67.9531 200.901 67.3033C200.144 66.6534 199.201 66.3285 198.072 66.3285C196.932 66.3285 195.973 66.6534 195.196 67.3033C194.429 67.9531 193.848 68.8374 193.454 69.956C193.07 71.0746 192.879 72.3477 192.879 73.7752C192.879 75.2028 193.07 76.4759 193.454 77.5945C193.848 78.7131 194.429 79.5973 195.196 80.2472C195.973 80.8864 196.932 81.206 198.072 81.206ZM225.638 86.4794C223.156 86.4794 221.009 85.9521 219.198 84.8974C217.397 83.832 216.007 82.3512 215.027 80.4549C214.047 78.5479 213.557 76.3374 213.557 73.8232C213.557 71.2876 214.047 69.0717 215.027 67.1754C216.007 65.2685 217.397 63.7876 219.198 62.733C221.009 61.6676 223.156 61.1349 225.638 61.1349C228.12 61.1349 230.261 61.6676 232.062 62.733C233.873 63.7876 235.269 65.2685 236.249 67.1754C237.229 69.0717 237.719 71.2876 237.719 73.8232C237.719 76.3374 237.229 78.5479 236.249 80.4549C235.269 82.3512 233.873 83.832 232.062 84.8974C230.261 85.9521 228.12 86.4794 225.638 86.4794ZM225.67 81.206C226.799 81.206 227.742 80.8864 228.498 80.2472C229.255 79.5973 229.825 78.7131 230.208 77.5945C230.602 76.4759 230.799 75.2028 230.799 73.7752C230.799 72.3477 230.602 71.0746 230.208 69.956C229.825 68.8374 229.255 67.9531 228.498 67.3033C227.742 66.6534 226.799 66.3285 225.67 66.3285C224.53 66.3285 223.571 66.6534 222.793 67.3033C222.026 67.9531 221.446 68.8374 221.052 69.956C220.668 71.0746 220.476 72.3477 220.476 73.7752C220.476 75.2028 220.668 76.4759 221.052 77.5945C221.446 78.7131 222.026 79.5973 222.793 80.2472C223.571 80.8864 224.53 81.206 225.67 81.206ZM253.204 95.7159C250.998 95.7159 249.107 95.4123 247.531 94.805C245.965 94.2085 244.718 93.3935 243.791 92.3601C242.864 91.3267 242.263 90.1655 241.986 88.8764L248.282 88.0295C248.473 88.5195 248.777 88.9776 249.193 89.4038C249.608 89.8299 250.157 90.1708 250.839 90.4265C251.531 90.6928 252.373 90.826 253.363 90.826C254.844 90.826 256.064 90.4638 257.023 89.7393C257.992 89.0256 258.477 87.8271 258.477 86.1438V81.6534H258.189C257.891 82.3352 257.444 82.9798 256.847 83.587C256.25 84.1942 255.483 84.6896 254.546 85.0732C253.608 85.4567 252.49 85.6484 251.19 85.6484C249.347 85.6484 247.669 85.2223 246.156 84.37C244.654 83.5071 243.456 82.1914 242.561 80.4229C241.677 78.6438 241.234 76.396 241.234 73.6793C241.234 70.8988 241.687 68.5763 242.593 66.712C243.498 64.8477 244.702 63.4521 246.204 62.5252C247.717 61.5984 249.374 61.1349 251.174 61.1349C252.548 61.1349 253.699 61.3693 254.626 61.8381C255.553 62.2962 256.298 62.8714 256.863 63.5639C257.438 64.2457 257.88 64.9169 258.189 65.5774H258.445V61.4545H265.205V86.2397C265.205 88.3278 264.693 90.0749 263.671 91.4812C262.648 92.8874 261.231 93.9421 259.42 94.6452C257.619 95.359 255.547 95.7159 253.204 95.7159ZM253.347 80.5348C254.445 80.5348 255.372 80.2631 256.128 79.7198C256.895 79.1658 257.481 78.3775 257.886 77.3548C258.301 76.3214 258.509 75.0856 258.509 73.6474C258.509 72.2092 258.307 70.9627 257.902 69.908C257.497 68.8427 256.911 68.017 256.144 67.4311C255.377 66.8452 254.445 66.5522 253.347 66.5522C252.229 66.5522 251.286 66.8558 250.519 67.4631C249.752 68.0597 249.171 68.8906 248.777 69.956C248.383 71.0213 248.186 72.2518 248.186 73.6474C248.186 75.0643 248.383 76.2894 248.777 77.3228C249.182 78.3455 249.763 79.1392 250.519 79.7038C251.286 80.2578 252.229 80.5348 253.347 80.5348ZM277.429 53.2727V86H270.622V53.2727H277.429ZM294.069 86.4794C291.544 86.4794 289.371 85.968 287.549 84.9453C285.738 83.9119 284.342 82.4524 283.362 80.5668C282.382 78.6705 281.892 76.4279 281.892 73.8391C281.892 71.3143 282.382 69.0984 283.362 67.1914C284.342 65.2844 285.722 63.7983 287.501 62.733C289.291 61.6676 291.389 61.1349 293.797 61.1349C295.416 61.1349 296.924 61.396 298.319 61.918C299.726 62.4293 300.951 63.2017 301.995 64.2351C303.05 65.2685 303.87 66.5682 304.456 68.1342C305.042 69.6896 305.335 71.5114 305.335 73.5994V75.4691H284.608V71.2504H298.927C298.927 70.2702 298.714 69.402 298.287 68.6456C297.861 67.8892 297.27 67.2979 296.514 66.8718C295.768 66.435 294.9 66.2166 293.909 66.2166C292.876 66.2166 291.959 66.4563 291.16 66.9357C290.372 67.4045 289.754 68.0384 289.307 68.8374C288.859 69.6257 288.63 70.5046 288.619 71.4741V75.4851C288.619 76.6996 288.843 77.7489 289.291 78.6332C289.749 79.5174 290.393 80.1992 291.224 80.6786C292.055 81.158 293.041 81.3977 294.181 81.3977C294.937 81.3977 295.629 81.2912 296.258 81.0781C296.887 80.8651 297.425 80.5455 297.872 80.1193C298.319 79.6932 298.66 79.1712 298.895 78.5533L305.191 78.9688C304.871 80.4815 304.216 81.8026 303.225 82.9318C302.245 84.0504 300.977 84.924 299.422 85.5526C297.877 86.1705 296.093 86.4794 294.069 86.4794ZM320.32 86V53.2727H327.239V66.7759H341.286V53.2727H348.189V86H341.286V72.4808H327.239V86H320.32ZM364.857 86.4794C362.374 86.4794 360.228 85.9521 358.417 84.8974C356.616 83.832 355.226 82.3512 354.246 80.4549C353.266 78.5479 352.776 76.3374 352.776 73.8232C352.776 71.2876 353.266 69.0717 354.246 67.1754C355.226 65.2685 356.616 63.7876 358.417 62.733C360.228 61.6676 362.374 61.1349 364.857 61.1349C367.339 61.1349 369.48 61.6676 371.281 62.733C373.092 63.7876 374.487 65.2685 375.467 67.1754C376.448 69.0717 376.938 71.2876 376.938 73.8232C376.938 76.3374 376.448 78.5479 375.467 80.4549C374.487 82.3512 373.092 83.832 371.281 84.8974C369.48 85.9521 367.339 86.4794 364.857 86.4794ZM364.889 81.206C366.018 81.206 366.961 80.8864 367.717 80.2472C368.473 79.5973 369.043 78.7131 369.427 77.5945C369.821 76.4759 370.018 75.2028 370.018 73.7752C370.018 72.3477 369.821 71.0746 369.427 69.956C369.043 68.8374 368.473 67.9531 367.717 67.3033C366.961 66.6534 366.018 66.3285 364.889 66.3285C363.749 66.3285 362.79 66.6534 362.012 67.3033C361.245 67.9531 360.665 68.8374 360.27 69.956C359.887 71.0746 359.695 72.3477 359.695 73.7752C359.695 75.2028 359.887 76.4759 360.27 77.5945C360.665 78.7131 361.245 79.5973 362.012 80.2472C362.79 80.8864 363.749 81.206 364.889 81.206ZM381.364 86V61.4545H387.852V65.7852H388.14C388.651 64.3469 389.503 63.2124 390.696 62.3814C391.89 61.5504 393.317 61.1349 394.979 61.1349C396.662 61.1349 398.095 61.5558 399.278 62.3974C400.46 63.2283 401.249 64.3576 401.643 65.7852H401.899C402.399 64.3789 403.305 63.255 404.615 62.4134C405.936 61.5611 407.497 61.1349 409.297 61.1349C411.588 61.1349 413.447 61.8647 414.874 63.3242C416.313 64.7731 417.032 66.8292 417.032 69.4925V86H410.24V70.8349C410.24 69.4712 409.878 68.4485 409.153 67.7667C408.429 67.0849 407.524 66.744 406.437 66.744C405.201 66.744 404.237 67.1381 403.544 67.9265C402.852 68.7042 402.506 69.7322 402.506 71.0107V86H395.906V70.6911C395.906 69.4872 395.56 68.5284 394.867 67.8146C394.185 67.1009 393.285 66.744 392.167 66.744C391.41 66.744 390.728 66.9357 390.121 67.3192C389.525 67.6921 389.051 68.2195 388.699 68.9013C388.347 69.5724 388.172 70.3608 388.172 71.2663V86H381.364ZM433.595 86.4794C431.07 86.4794 428.897 85.968 427.075 84.9453C425.264 83.9119 423.869 82.4524 422.888 80.5668C421.908 78.6705 421.418 76.4279 421.418 73.8391C421.418 71.3143 421.908 69.0984 422.888 67.1914C423.869 65.2844 425.248 63.7983 427.027 62.733C428.817 61.6676 430.916 61.1349 433.323 61.1349C434.943 61.1349 436.45 61.396 437.846 61.918C439.252 62.4293 440.477 63.2017 441.521 64.2351C442.576 65.2685 443.396 66.5682 443.982 68.1342C444.568 69.6896 444.861 71.5114 444.861 73.5994V75.4691H424.135V71.2504H438.453C438.453 70.2702 438.24 69.402 437.814 68.6456C437.388 67.8892 436.796 67.2979 436.04 66.8718C435.294 66.435 434.426 66.2166 433.435 66.2166C432.402 66.2166 431.486 66.4563 430.687 66.9357C429.898 67.4045 429.28 68.0384 428.833 68.8374C428.386 69.6257 428.157 70.5046 428.146 71.4741V75.4851C428.146 76.6996 428.37 77.7489 428.817 78.6332C429.275 79.5174 429.92 80.1992 430.751 80.6786C431.582 81.158 432.567 81.3977 433.707 81.3977C434.463 81.3977 435.156 81.2912 435.784 81.0781C436.413 80.8651 436.951 80.5455 437.398 80.1193C437.846 79.6932 438.187 79.1712 438.421 78.5533L444.717 78.9688C444.398 80.4815 443.742 81.8026 442.752 82.9318C441.772 84.0504 440.504 84.924 438.948 85.5526C437.404 86.1705 435.619 86.4794 433.595 86.4794Z" fill="white"/>
<defs>
<linearGradient id="paint0_linear_133_139" x1="59.9264" y1="37.9497" x2="55.9607" y2="41.0706" gradientUnits="userSpaceOnUse">
<stop stop-color="#D769A9"/>
<stop offset="1" stop-color="#EF4B5A"/>
</linearGradient>
<linearGradient id="paint1_linear_133_139" x1="35.6851" y1="101.533" x2="49.6585" y2="112.252" gradientUnits="userSpaceOnUse">
<stop stop-color="#FCC010"/>
<stop offset="1" stop-color="#32B55E"/>
</linearGradient>
<linearGradient id="paint2_linear_133_139" x1="108.454" y1="95.3777" x2="98.3775" y2="109.674" gradientUnits="userSpaceOnUse">
<stop stop-color="#18A1CE"/>
<stop offset="1" stop-color="#32B55E"/>
</linearGradient>
<linearGradient id="paint3_linear_133_139" x1="34.96" y1="62.1833" x2="33.9847" y2="78.758" gradientUnits="userSpaceOnUse">
<stop stop-color="#EF4647"/>
<stop offset="1" stop-color="#FCC010"/>
</linearGradient>
<linearGradient id="paint4_linear_133_139" x1="108.118" y1="71.5645" x2="109.093" y2="78.7143" gradientUnits="userSpaceOnUse">
<stop stop-color="#537DBF"/>
<stop offset="1" stop-color="#18A1CE"/>
</linearGradient>
<linearGradient id="paint5_linear_133_139" x1="83.9835" y1="43.1603" x2="94.7078" y2="52.5809" gradientUnits="userSpaceOnUse">
<stop stop-color="#D769A9"/>
<stop offset="1" stop-color="#537DBF"/>
</linearGradient>
<linearGradient id="paint6_linear_133_139" x1="73.489" y1="31.9547" x2="63.0933" y2="32.2794" gradientUnits="userSpaceOnUse">
<stop stop-color="#D769A9"/>
<stop offset="1" stop-color="#EF4B5A"/>
</linearGradient>
<linearGradient id="paint7_linear_133_139" x1="38.2124" y1="58.386" x2="29.0244" y2="85.6419" gradientUnits="userSpaceOnUse">
<stop stop-color="#EF4B5A"/>
<stop offset="1" stop-color="#FABE0F"/>
</linearGradient>
<linearGradient id="paint8_linear_133_139" x1="34.0472" y1="96.1201" x2="52.5483" y2="117.521" gradientUnits="userSpaceOnUse">
<stop stop-color="#FCC010"/>
<stop offset="1" stop-color="#32B55E"/>
</linearGradient>
<linearGradient id="paint9_linear_133_139" x1="103.202" y1="59.8529" x2="107.06" y2="85.0326" gradientUnits="userSpaceOnUse">
<stop stop-color="#547DBF"/>
<stop offset="1" stop-color="#18A1CE"/>
</linearGradient>
<linearGradient id="paint10_linear_133_139" x1="76.3578" y1="41.7922" x2="97.0218" y2="50.6408" gradientUnits="userSpaceOnUse">
<stop stop-color="#D669A8"/>
<stop offset="1" stop-color="#577DBE"/>
</linearGradient>
<radialGradient id="paint11_radial_133_139" cx="0" cy="0" r="1" gradientTransform="matrix(13.4489 18.6582 23.2299 -16.7576 32.6732 118.093)" gradientUnits="userSpaceOnUse">
<stop stop-color="#A5CE3D"/>
<stop offset="1" stop-color="#A5CE3D" stop-opacity="0"/>
</radialGradient>
<radialGradient id="paint12_radial_133_139" cx="0" cy="0" r="1" gradientTransform="matrix(2.74091 22.8392 28.4353 -3.41522 26.1924 95.3809)" gradientUnits="userSpaceOnUse">
<stop stop-color="#FACD0C"/>
<stop offset="1" stop-color="#FACD0C" stop-opacity="0"/>
</radialGradient>
</defs>
</svg>
