<svg width="344" height="140" viewBox="0 0 344 140" fill="none" xmlns="http://www.w3.org/2000/svg">
<rect width="344" height="140" rx="20" fill="#243C68"/>
<path d="M118.827 63.076C118.633 61.0931 118.31 58.8176 117.663 56.2821C117.016 53.7791 116.047 51.016 114.624 48.1554C113.201 45.2948 111.358 42.3366 108.966 39.4435C108.028 38.3058 106.994 37.2006 105.894 36.1278C107.543 29.5289 103.89 23.8077 103.89 23.8077C97.585 23.4176 93.5758 25.7906 92.0885 26.8634C91.8299 26.7658 91.6036 26.6358 91.3449 26.5383C90.278 26.1157 89.1787 25.6931 88.0147 25.3355C86.8831 24.978 85.7191 24.6529 84.5229 24.3603C83.3266 24.0678 82.1303 23.8402 80.9017 23.6452C80.6754 23.6127 80.4814 23.5802 80.2551 23.5477C77.5068 14.7058 69.6178 11 69.6178 11C60.7912 16.6237 59.1423 24.4904 59.1423 24.4904C59.1423 24.4904 59.11 24.6529 59.0453 24.9455C58.5603 25.0755 58.0753 25.238 57.5904 25.368C56.9114 25.5631 56.2324 25.8231 55.5858 26.0832C54.9068 26.3433 54.2602 26.6033 53.5812 26.8959C52.2556 27.481 50.93 28.1311 49.6367 28.8463C48.3757 29.5614 47.1471 30.3416 45.9508 31.1543C45.7892 31.0893 45.6275 31.0242 45.6275 31.0242C33.406 26.3432 22.5748 31.9669 22.5748 31.9669C21.5725 45.0347 27.457 53.259 28.6209 54.7543C28.3299 55.5669 28.0713 56.3796 27.8126 57.1923C26.9073 60.1504 26.2284 63.1735 25.808 66.3267C25.7434 66.7818 25.6787 67.2369 25.6464 67.692C14.3302 73.3157 11 84.7906 11 84.7906C20.4086 95.6804 31.4015 96.3631 31.4015 96.3631L31.4338 96.3306C32.8241 98.8336 34.4407 101.207 36.2513 103.45C37.0272 104.392 37.8032 105.27 38.6438 106.148C35.2166 116.03 39.1288 124.221 39.1288 124.221C49.6044 124.612 56.4911 119.606 57.946 118.468C58.9806 118.825 60.0476 119.15 61.1145 119.41C64.3477 120.256 67.6456 120.743 70.9434 120.873C71.7517 120.906 72.5924 120.938 73.4007 120.906H74.5646L75.0819 120.873V120.906C80.0287 127.992 88.6937 129 88.6937 129C94.8691 122.466 95.2247 115.965 95.2247 114.567C95.2247 114.567 95.2247 114.534 95.2247 114.469C95.2247 114.339 95.2247 114.274 95.2247 114.274C95.2247 114.177 95.2247 114.079 95.2247 113.982C96.518 113.072 97.7466 112.096 98.9106 111.024C101.368 108.781 103.534 106.213 105.345 103.45C105.506 103.19 105.668 102.929 105.83 102.669C112.813 103.06 117.76 98.3135 117.76 98.3135C116.596 90.9995 112.458 87.4237 111.585 86.741C111.585 86.741 111.552 86.7085 111.488 86.676C111.423 86.6435 111.423 86.611 111.423 86.611C111.391 86.5785 111.326 86.546 111.261 86.5135C111.294 86.0584 111.326 85.6358 111.358 85.1807C111.423 84.4005 111.423 83.5879 111.423 82.8077V81.7675C111.423 81.5724 111.423 81.6375 111.423 81.5724L111.391 81.0848L111.358 80.4347C111.358 80.2072 111.326 80.0121 111.294 79.8171C111.261 79.622 111.261 79.3945 111.229 79.1994L111.164 78.5818L111.067 77.9642C110.938 77.1515 110.809 76.3713 110.615 75.5587C109.871 72.4055 108.643 69.4149 107.058 66.7168C105.442 64.0187 103.437 61.6457 101.141 59.6303C98.8783 57.6149 96.324 55.9895 93.6728 54.7868C90.9893 53.584 88.2087 52.8039 85.4282 52.4463C84.0379 52.2512 82.6476 52.1862 81.2573 52.2187H80.6107C80.5784 52.2187 80.4167 52.2187 80.449 52.2187H80.2227L79.7054 52.2512C79.5114 52.2512 79.3174 52.2837 79.1558 52.2837C78.4445 52.3488 77.7332 52.4463 77.0542 52.5763C74.2736 53.0964 71.6547 54.1041 69.3592 55.5019C67.0636 56.8997 65.059 58.6226 63.4424 60.573C61.8258 62.5234 60.5649 64.7014 59.6919 66.9444C58.819 69.1873 58.334 71.5278 58.2047 73.7708C58.1723 74.3234 58.1723 74.9085 58.1723 75.4612C58.1723 75.5912 58.1723 75.7537 58.1723 75.8837L58.2047 76.3388C58.237 76.5989 58.237 76.8915 58.2693 77.1515C58.3663 78.2893 58.5926 79.3945 58.8836 80.4347C59.4979 82.5477 60.4679 84.4656 61.6642 86.0909C62.8605 87.7162 64.3154 89.049 65.835 90.1218C67.3546 91.162 69.0035 91.9096 70.6201 92.3972C72.2367 92.8848 73.8533 93.0799 75.3729 93.0799C75.5669 93.0799 75.7609 93.0799 75.9226 93.0799C76.0196 93.0799 76.1166 93.0799 76.2136 93.0799C76.3106 93.0799 76.4076 93.0799 76.5045 93.0474C76.6662 93.0474 76.8279 93.0149 76.9895 93.0149C77.0219 93.0149 77.0865 93.0149 77.1189 92.9824L77.2805 92.9499C77.3775 92.9499 77.4745 92.9174 77.5715 92.9174C77.7655 92.8848 77.9271 92.8523 78.1211 92.8198C78.3151 92.7873 78.4768 92.7548 78.6385 92.6898C78.9941 92.6248 79.3174 92.4948 79.6407 92.3972C80.2874 92.1697 80.934 91.9096 81.4837 91.6171C82.0656 91.3245 82.5829 90.9669 83.1003 90.6419C83.2296 90.5443 83.3912 90.4468 83.5206 90.3168C84.0379 89.8942 84.1349 89.114 83.7146 88.5939C83.3589 88.1388 82.7123 88.0088 82.195 88.3014C82.0656 88.3664 81.9363 88.4314 81.807 88.4964C81.3543 88.724 80.9017 88.919 80.4167 89.0815C79.9317 89.2441 79.4144 89.3741 78.8971 89.4716C78.6385 89.5041 78.3798 89.5366 78.0888 89.5691C77.9595 89.5691 77.8301 89.6017 77.6685 89.6017C77.5392 89.6017 77.3775 89.6017 77.2805 89.6017C77.1512 89.6017 77.0219 89.6017 76.8925 89.6017C76.7309 89.6017 76.5692 89.6017 76.4075 89.5691C76.4075 89.5691 76.3105 89.5691 76.3752 89.5691H76.2136C76.1489 89.5691 76.0519 89.5691 75.9872 89.5366C75.8256 89.5041 75.6962 89.5041 75.5346 89.4716C74.3383 89.3091 73.142 88.9515 72.0104 88.4314C70.8464 87.9113 69.7472 87.1961 68.7449 86.2859C67.7426 85.3758 66.8696 84.303 66.1906 83.0678C65.5117 81.8325 65.0267 80.4672 64.8004 79.0369C64.7034 78.3218 64.6387 77.5741 64.671 76.859C64.671 76.6639 64.7034 76.4689 64.7034 76.2738C64.7034 76.3388 64.7034 76.2413 64.7034 76.2413V76.0138C64.7034 75.9163 64.7357 75.8187 64.7357 75.7212C64.768 75.3311 64.8327 74.941 64.8974 74.551C65.447 71.4303 66.9989 68.3747 69.3915 66.0667C70.0058 65.4815 70.6525 64.9614 71.3314 64.4738C72.0104 63.9862 72.754 63.5636 73.53 63.2061C74.306 62.8485 75.0819 62.5559 75.9226 62.3284C76.7309 62.1008 77.5715 61.9708 78.4445 61.8733C78.8648 61.8408 79.2851 61.8083 79.7377 61.8083C79.8671 61.8083 79.9317 61.8083 80.0287 61.8083H80.6107C80.7077 61.8083 80.6107 61.8083 80.643 61.8083H80.74L81.0957 61.8408C82.0333 61.9058 82.9386 62.0358 83.8439 62.2634C85.6545 62.6534 87.4327 63.3361 89.0817 64.2463C92.3795 66.0992 95.1924 68.9598 96.906 72.4055C97.779 74.1284 98.3933 75.9813 98.6843 77.8992C98.7489 78.3868 98.8136 78.8744 98.8459 79.362L98.9106 80.0771C98.9106 80.2072 98.9106 80.3372 98.9106 80.4347C98.9106 80.5647 98.9106 80.6948 98.9106 80.7923V81.4749C98.9106 81.7025 98.8783 82.0926 98.8783 82.3201C98.8459 82.8402 98.7813 83.3928 98.7166 83.9129C98.6519 84.4331 98.5549 84.9532 98.4579 85.4733C98.3609 85.9934 98.2316 86.5135 98.1023 87.0011C97.8436 88.0088 97.5203 89.0165 97.1323 90.0242C96.3564 91.9747 95.3217 93.8601 94.0931 95.5829C91.6036 99.0287 88.2087 101.824 84.3289 103.612C82.389 104.49 80.352 105.14 78.2505 105.465C77.2158 105.66 76.1489 105.758 75.0819 105.79H73.5947C73.724 105.79 73.5623 105.79 73.5623 105.79H73.4653C72.8834 105.79 72.3337 105.758 71.7517 105.693C69.4885 105.53 67.2576 105.107 65.059 104.49C62.8928 103.872 60.7912 102.994 58.7866 101.954C54.8098 99.8088 51.221 96.8832 48.4404 93.3399C47.0501 91.5846 45.8215 89.6667 44.8192 87.6837C43.8169 85.7008 43.0086 83.5879 42.4267 81.4749C41.8447 79.3295 41.489 77.1515 41.3274 74.941L41.295 74.5185V72.6656C41.295 72.6656 41.295 72.6981 41.295 72.6331V72.438C41.295 72.178 41.295 71.8854 41.295 71.6253C41.3274 70.5526 41.4244 69.4149 41.5537 68.3096C41.683 67.2044 41.877 66.0667 42.1033 64.9614C42.3297 63.8562 42.5883 62.751 42.9116 61.6457C43.5259 59.4678 44.3019 57.3548 45.2072 55.3719C47.0501 51.4061 49.4427 47.8628 52.3202 45.0347C53.0315 44.3196 53.7752 43.6694 54.5511 43.0193C55.3271 42.4017 56.1354 41.8165 56.976 41.2639C57.7843 40.7113 58.6573 40.2237 59.5303 39.7686C59.9506 39.541 60.4032 39.3135 60.8559 39.1185C61.0822 39.0209 61.3085 38.9234 61.5348 38.8259C61.7612 38.7284 61.9875 38.6309 62.2138 38.5333C63.1191 38.1432 64.0567 37.8182 65.0267 37.5256C65.253 37.4606 65.5117 37.3956 65.738 37.2981C65.9643 37.2331 66.223 37.168 66.4493 37.103C66.9343 36.973 67.4193 36.843 67.9042 36.7455C68.1306 36.6804 68.3892 36.6479 68.6479 36.5829C68.9065 36.5179 69.1329 36.4854 69.3915 36.4204C69.6502 36.3879 69.8765 36.3229 70.1351 36.2904L70.4908 36.2253L70.8788 36.1603C71.1374 36.1278 71.3638 36.0953 71.6224 36.0628C71.9134 36.0303 72.1721 35.9978 72.4631 35.9653C72.6894 35.9328 73.0774 35.9003 73.3037 35.8678C73.4653 35.8353 73.6593 35.8353 73.821 35.8028L74.1766 35.7702L74.3383 35.7377H74.5323C74.8233 35.7052 75.0819 35.7052 75.3729 35.6727L75.7932 35.6402C75.7932 35.6402 75.9549 35.6402 75.8256 35.6402H76.1166C76.3429 35.6402 76.6015 35.6077 76.8279 35.6077C77.7655 35.5752 78.7354 35.5752 79.6731 35.6077C81.5483 35.6727 83.3912 35.9003 85.1695 36.2253C88.7583 36.908 92.1209 38.0457 95.1924 39.5736C98.2639 41.0689 100.98 42.9218 103.372 44.9372C103.534 45.0672 103.663 45.1972 103.825 45.3273C103.954 45.4573 104.116 45.5873 104.245 45.7174C104.536 45.9774 104.795 46.2375 105.086 46.4975C105.377 46.7576 105.636 47.0176 105.894 47.2777C106.153 47.5377 106.412 47.7978 106.67 48.0904C107.673 49.1631 108.61 50.2358 109.451 51.341C111.132 53.519 112.49 55.7295 113.557 57.8099C113.622 57.9399 113.686 58.07 113.751 58.2C113.816 58.33 113.88 58.4601 113.945 58.5901C114.074 58.8501 114.204 59.1102 114.301 59.3702C114.43 59.6303 114.527 59.8579 114.656 60.1179C114.753 60.378 114.883 60.6055 114.98 60.8656C115.368 61.8408 115.756 62.7835 116.047 63.6612C116.532 65.0915 116.887 66.3592 117.178 67.4645C117.275 67.9196 117.695 68.2121 118.148 68.1471C118.633 68.1146 118.989 67.7245 118.989 67.2369C119.021 66.0667 118.989 64.6689 118.827 63.076Z" fill="url(#paint0_linear_230_8)"/>
<path d="M173.545 63.8516C173.322 63.0739 173.007 62.3867 172.603 61.7901C172.198 61.1829 171.702 60.6715 171.116 60.256C170.541 59.8299 169.881 59.505 169.135 59.2812C168.4 59.0575 167.585 58.9457 166.69 58.9457C165.017 58.9457 163.547 59.3612 162.279 60.1921C161.022 61.0231 160.042 62.2322 159.339 63.8196C158.636 65.3963 158.284 67.3246 158.284 69.6044C158.284 71.8842 158.631 73.8232 159.323 75.4212C160.016 77.0192 160.996 78.239 162.263 79.0806C163.531 79.9116 165.028 80.3271 166.754 80.3271C168.32 80.3271 169.657 80.0501 170.765 79.4961C171.884 78.9315 172.736 78.1378 173.322 77.1151C173.918 76.0923 174.217 74.8832 174.217 73.4876L175.623 73.6953H167.185V68.4858H180.88V72.6087C180.88 75.4851 180.273 77.9567 179.059 80.0234C177.844 82.0795 176.172 83.6669 174.041 84.7855C171.91 85.8935 169.471 86.4474 166.722 86.4474C163.654 86.4474 160.958 85.771 158.636 84.418C156.314 83.0543 154.502 81.1207 153.203 78.6172C151.914 76.103 151.269 73.12 151.269 69.6683C151.269 67.0156 151.653 64.6506 152.42 62.5732C153.197 60.4851 154.284 58.7166 155.68 57.2678C157.075 55.8189 158.7 54.7163 160.554 53.9599C162.407 53.2035 164.415 52.8253 166.578 52.8253C168.432 52.8253 170.158 53.0969 171.756 53.6403C173.354 54.1729 174.771 54.9293 176.006 55.9094C177.253 56.8896 178.27 58.0561 179.059 59.4091C179.847 60.7514 180.353 62.2322 180.577 63.8516H173.545ZM185.95 86V61.4545H192.55V65.7372H192.805C193.253 64.2138 194.004 63.0632 195.059 62.2855C196.113 61.4972 197.328 61.103 198.702 61.103C199.043 61.103 199.411 61.1243 199.805 61.1669C200.199 61.2095 200.545 61.2681 200.843 61.3427V67.3832C200.524 67.2873 200.082 67.2021 199.517 67.1275C198.953 67.0529 198.436 67.0156 197.967 67.0156C196.966 67.0156 196.071 67.234 195.282 67.6708C194.505 68.0969 193.887 68.6935 193.429 69.4606C192.981 70.2276 192.758 71.1119 192.758 72.1133V86H185.95ZM210.659 86.4634C209.093 86.4634 207.698 86.1918 206.472 85.6484C205.247 85.0945 204.278 84.2795 203.564 83.2035C202.861 82.1168 202.509 80.7638 202.509 79.1445C202.509 77.7809 202.76 76.6357 203.26 75.7088C203.761 74.782 204.443 74.0362 205.306 73.4716C206.169 72.907 207.149 72.4808 208.246 72.1932C209.354 71.9055 210.515 71.7031 211.73 71.5859C213.157 71.4368 214.308 71.2983 215.182 71.1705C216.055 71.032 216.689 70.8295 217.083 70.5632C217.477 70.2969 217.675 69.9027 217.675 69.3807V69.2848C217.675 68.2727 217.355 67.4897 216.716 66.9357C216.087 66.3817 215.192 66.1048 214.031 66.1048C212.806 66.1048 211.831 66.3764 211.107 66.9197C210.382 67.4524 209.903 68.1236 209.669 68.9332L203.372 68.4219C203.692 66.9304 204.32 65.6413 205.258 64.5547C206.195 63.4574 207.405 62.6158 208.885 62.0298C210.377 61.4332 212.103 61.1349 214.063 61.1349C215.427 61.1349 216.732 61.2947 217.978 61.6143C219.235 61.9339 220.349 62.4293 221.318 63.1005C222.298 63.7717 223.07 64.6346 223.635 65.6893C224.2 66.7333 224.482 67.9851 224.482 69.4446V86H218.026V82.5962H217.834C217.44 83.3633 216.913 84.0398 216.252 84.6257C215.592 85.201 214.798 85.6538 213.871 85.984C212.944 86.3036 211.874 86.4634 210.659 86.4634ZM212.609 81.7653C213.61 81.7653 214.494 81.5682 215.262 81.174C216.029 80.7692 216.631 80.2259 217.067 79.544C217.504 78.8622 217.722 78.0898 217.722 77.2269V74.6222C217.509 74.7607 217.216 74.8885 216.844 75.0057C216.481 75.1122 216.071 75.2134 215.613 75.3093C215.155 75.3945 214.697 75.4744 214.239 75.549C213.781 75.6129 213.365 75.6715 212.992 75.7248C212.193 75.842 211.496 76.0284 210.899 76.2841C210.302 76.5398 209.839 76.886 209.509 77.3228C209.178 77.7489 209.013 78.2816 209.013 78.9208C209.013 79.8477 209.349 80.5561 210.02 81.0462C210.702 81.5256 211.565 81.7653 212.609 81.7653ZM242.963 61.4545V66.5682H227.814V61.4545H242.963ZM231.282 86V59.6808C231.282 57.9016 231.628 56.4261 232.32 55.2543C233.023 54.0824 233.982 53.2035 235.197 52.6175C236.411 52.0316 237.791 51.7386 239.336 51.7386C240.38 51.7386 241.333 51.8185 242.196 51.9783C243.07 52.1381 243.719 52.282 244.146 52.4098L242.931 57.5234C242.665 57.4382 242.335 57.3583 241.94 57.2837C241.557 57.2092 241.163 57.1719 240.758 57.1719C239.756 57.1719 239.059 57.4062 238.664 57.875C238.27 58.3331 238.073 58.9776 238.073 59.8086V86H231.282ZM253.242 86.4634C251.676 86.4634 250.281 86.1918 249.055 85.6484C247.83 85.0945 246.861 84.2795 246.147 83.2035C245.444 82.1168 245.092 80.7638 245.092 79.1445C245.092 77.7809 245.343 76.6357 245.843 75.7088C246.344 74.782 247.026 74.0362 247.889 73.4716C248.752 72.907 249.732 72.4808 250.829 72.1932C251.937 71.9055 253.098 71.7031 254.313 71.5859C255.741 71.4368 256.891 71.2983 257.765 71.1705C258.638 71.032 259.272 70.8295 259.666 70.5632C260.06 70.2969 260.258 69.9027 260.258 69.3807V69.2848C260.258 68.2727 259.938 67.4897 259.299 66.9357C258.67 66.3817 257.775 66.1048 256.614 66.1048C255.389 66.1048 254.414 66.3764 253.69 66.9197C252.965 67.4524 252.486 68.1236 252.252 68.9332L245.955 68.4219C246.275 66.9304 246.903 65.6413 247.841 64.5547C248.778 63.4574 249.988 62.6158 251.468 62.0298C252.96 61.4332 254.686 61.1349 256.646 61.1349C258.01 61.1349 259.315 61.2947 260.561 61.6143C261.818 61.9339 262.932 62.4293 263.901 63.1005C264.881 63.7717 265.653 64.6346 266.218 65.6893C266.783 66.7333 267.065 67.9851 267.065 69.4446V86H260.609V82.5962H260.417C260.023 83.3633 259.496 84.0398 258.835 84.6257C258.175 85.201 257.381 85.6538 256.454 85.984C255.527 86.3036 254.457 86.4634 253.242 86.4634ZM255.192 81.7653C256.193 81.7653 257.078 81.5682 257.845 81.174C258.612 80.7692 259.214 80.2259 259.65 79.544C260.087 78.8622 260.305 78.0898 260.305 77.2269V74.6222C260.092 74.7607 259.799 74.8885 259.427 75.0057C259.064 75.1122 258.654 75.2134 258.196 75.3093C257.738 75.3945 257.28 75.4744 256.822 75.549C256.364 75.6129 255.948 75.6715 255.575 75.7248C254.776 75.842 254.079 76.0284 253.482 76.2841C252.885 76.5398 252.422 76.886 252.092 77.3228C251.761 77.7489 251.596 78.2816 251.596 78.9208C251.596 79.8477 251.932 80.5561 252.603 81.0462C253.285 81.5256 254.148 81.7653 255.192 81.7653ZM279.154 71.8097V86H272.347V61.4545H278.834V65.7852H279.122C279.665 64.3576 280.576 63.2283 281.855 62.3974C283.133 61.5558 284.683 61.1349 286.505 61.1349C288.209 61.1349 289.696 61.5078 290.963 62.2536C292.231 62.9993 293.217 64.0646 293.92 65.4496C294.623 66.8239 294.974 68.4645 294.974 70.3714V86H288.167V71.5859C288.177 70.0838 287.794 68.9119 287.016 68.0703C286.239 67.218 285.168 66.7919 283.804 66.7919C282.888 66.7919 282.078 66.989 281.375 67.3832C280.683 67.7773 280.139 68.3526 279.745 69.109C279.362 69.8548 279.165 70.755 279.154 71.8097ZM307.339 86.4634C305.773 86.4634 304.377 86.1918 303.152 85.6484C301.927 85.0945 300.958 84.2795 300.244 83.2035C299.541 82.1168 299.189 80.7638 299.189 79.1445C299.189 77.7809 299.439 76.6357 299.94 75.7088C300.441 74.782 301.123 74.0362 301.986 73.4716C302.849 72.907 303.829 72.4808 304.926 72.1932C306.034 71.9055 307.195 71.7031 308.41 71.5859C309.837 71.4368 310.988 71.2983 311.861 71.1705C312.735 71.032 313.369 70.8295 313.763 70.5632C314.157 70.2969 314.354 69.9027 314.354 69.3807V69.2848C314.354 68.2727 314.035 67.4897 313.395 66.9357C312.767 66.3817 311.872 66.1048 310.711 66.1048C309.486 66.1048 308.511 66.3764 307.786 66.9197C307.062 67.4524 306.583 68.1236 306.348 68.9332L300.052 68.4219C300.372 66.9304 301 65.6413 301.938 64.5547C302.875 63.4574 304.084 62.6158 305.565 62.0298C307.057 61.4332 308.782 61.1349 310.743 61.1349C312.106 61.1349 313.411 61.2947 314.658 61.6143C315.915 61.9339 317.028 62.4293 317.998 63.1005C318.978 63.7717 319.75 64.6346 320.315 65.6893C320.879 66.7333 321.162 67.9851 321.162 69.4446V86H314.706V82.5962H314.514C314.12 83.3633 313.593 84.0398 312.932 84.6257C312.271 85.201 311.478 85.6538 310.551 85.984C309.624 86.3036 308.553 86.4634 307.339 86.4634ZM309.289 81.7653C310.29 81.7653 311.174 81.5682 311.941 81.174C312.708 80.7692 313.31 80.2259 313.747 79.544C314.184 78.8622 314.402 78.0898 314.402 77.2269V74.6222C314.189 74.7607 313.896 74.8885 313.523 75.0057C313.161 75.1122 312.751 75.2134 312.293 75.3093C311.835 75.3945 311.377 75.4744 310.919 75.549C310.46 75.6129 310.045 75.6715 309.672 75.7248C308.873 75.842 308.175 76.0284 307.579 76.2841C306.982 76.5398 306.519 76.886 306.188 77.3228C305.858 77.7489 305.693 78.2816 305.693 78.9208C305.693 79.8477 306.029 80.5561 306.7 81.0462C307.382 81.5256 308.244 81.7653 309.289 81.7653Z" fill="white"/>
<defs>
<linearGradient id="paint0_linear_230_8" x1="64.9944" y1="46.27" x2="64.9944" y2="128.139" gradientUnits="userSpaceOnUse">
<stop stop-color="#F05A28"/>
<stop offset="1" stop-color="#FBCA0A"/>
</linearGradient>
</defs>
</svg>
