<svg width="335" height="140" viewBox="0 0 335 140" fill="none" xmlns="http://www.w3.org/2000/svg">
<rect width="334.999" height="140" rx="20" fill="#E535AB"/>
<path fill-rule="evenodd" clip-rule="evenodd" d="M73.0434 31.4596L93.6056 43.332C94.1993 42.7038 94.8805 42.1647 95.6283 41.7313C99.8926 39.2798 105.332 40.7353 107.809 45C110.261 49.2646 108.805 54.7037 104.54 57.1807C103.798 57.6081 102.998 57.9266 102.166 58.1262V81.8796C102.989 82.0796 103.78 82.396 104.515 82.8189C108.805 85.296 110.261 90.7353 107.784 95C105.332 99.2643 99.8671 100.72 95.6025 98.2687C94.7763 97.7946 94.0321 97.1904 93.3984 96.4793L72.9614 108.279C73.2607 109.185 73.4127 110.133 73.4116 111.088C73.4116 115.991 69.4282 120 64.4995 120C59.5708 120 55.5875 116.016 55.5875 111.088C55.5875 110.212 55.7134 109.365 55.948 108.566L35.3913 96.6973C34.8042 97.3129 34.1325 97.842 33.3965 98.2687C29.1065 100.72 23.6671 99.2643 21.2155 95C18.7642 90.7353 20.2198 85.296 24.4841 82.8189C25.2187 82.3959 26.0098 82.0795 26.8336 81.8793V58.1262C26.0007 57.9266 25.2009 57.6081 24.4587 57.1807C20.1941 54.7294 18.7385 49.2646 21.1901 45C23.6417 40.7353 29.1061 39.2798 33.3708 41.7313C34.1144 42.1624 34.7923 42.698 35.3837 43.3219L55.9518 31.4464C55.7094 30.6235 55.5867 29.77 55.5875 28.9121C55.5875 23.9841 59.5708 20 64.4995 20C69.4282 20 73.4116 23.9837 73.4116 28.9121C73.4116 29.7979 73.2829 30.6527 73.0434 31.4596ZM70.9011 35.1176L91.5124 47.0178C91.1842 48.165 91.0901 49.3666 91.2356 50.551C91.3812 51.7354 91.7634 52.8783 92.3596 53.912C93.6143 56.0946 95.6581 57.5416 97.9266 58.1054V81.8883C97.8108 81.9164 97.6957 81.9474 97.5814 81.9801L70.6616 35.3558C70.743 35.2779 70.8229 35.1983 70.9011 35.1176ZM58.343 35.361L31.4236 81.9846C31.3072 81.951 31.1901 81.9196 31.0724 81.8907V58.1054C33.3409 57.5416 35.3847 56.0946 36.6394 53.912C37.2368 52.8764 37.6194 51.731 37.7644 50.5442C37.9094 49.3574 37.8137 48.1535 37.4831 47.0046L58.0884 35.1079C58.1715 35.1938 58.2564 35.2786 58.343 35.361ZM66.9897 37.473L93.9029 84.0861C93.2864 84.6744 92.7579 85.3485 92.3339 86.0876C91.9109 86.8222 91.5946 87.6132 91.3945 88.437H37.6052C37.4048 87.6132 37.0883 86.8222 36.6651 86.0876C36.2396 85.3536 35.7121 84.6836 35.0986 84.0976L62.017 37.4751C62.824 37.7075 63.6597 37.8249 64.4995 37.8241C65.3642 37.8241 66.1996 37.7018 66.9897 37.473ZM71.0903 105.084L91.5677 93.2607C91.5063 93.0677 91.4515 92.8727 91.4032 92.6759H37.5937C37.5652 92.7917 37.5343 92.9064 37.5012 93.0209L58.0787 104.902C58.9097 104.038 59.907 103.351 61.0104 102.882C62.1138 102.414 63.3007 102.173 64.4995 102.175C65.7403 102.173 66.9677 102.431 68.1028 102.932C69.2379 103.433 70.2556 104.166 71.0903 105.084Z" fill="white"/>
<path d="M163.544 63.8516C163.321 63.0739 163.006 62.3867 162.602 61.7901C162.197 61.1829 161.701 60.6715 161.116 60.256C160.54 59.8299 159.88 59.505 159.134 59.2812C158.399 59.0575 157.584 58.9457 156.689 58.9457C155.016 58.9457 153.546 59.3612 152.278 60.1921C151.021 61.0231 150.041 62.2322 149.338 63.8196C148.635 65.3963 148.283 67.3246 148.283 69.6044C148.283 71.8842 148.63 73.8232 149.322 75.4212C150.015 77.0192 150.995 78.239 152.263 79.0806C153.53 79.9116 155.027 80.3271 156.753 80.3271C158.319 80.3271 159.656 80.0501 160.764 79.4961C161.883 78.9315 162.735 78.1378 163.321 77.1151C163.917 76.0923 164.216 74.8832 164.216 73.4876L165.622 73.6953H157.184V68.4858H170.879V72.6087C170.879 75.4851 170.272 77.9567 169.058 80.0234C167.843 82.0795 166.171 83.6669 164.04 84.7855C161.909 85.8935 159.47 86.4474 156.721 86.4474C153.653 86.4474 150.957 85.771 148.635 84.418C146.313 83.0543 144.502 81.1207 143.202 78.6172C141.913 76.103 141.268 73.12 141.268 69.6683C141.268 67.0156 141.652 64.6506 142.419 62.5732C143.196 60.4851 144.283 58.7166 145.679 57.2678C147.074 55.8189 148.699 54.7163 150.553 53.9599C152.406 53.2035 154.415 52.8253 156.577 52.8253C158.431 52.8253 160.157 53.0969 161.755 53.6403C163.353 54.1729 164.77 54.9293 166.005 55.9094C167.252 56.8896 168.269 58.0561 169.058 59.4091C169.846 60.7514 170.352 62.2322 170.576 63.8516H163.544ZM175.949 86V61.4545H182.549V65.7372H182.805C183.252 64.2138 184.003 63.0632 185.058 62.2855C186.112 61.4972 187.327 61.103 188.701 61.103C189.042 61.103 189.41 61.1243 189.804 61.1669C190.198 61.2095 190.544 61.2681 190.843 61.3427V67.3832C190.523 67.2873 190.081 67.2021 189.516 67.1275C188.952 67.0529 188.435 67.0156 187.966 67.0156C186.965 67.0156 186.07 67.234 185.281 67.6708C184.504 68.0969 183.886 68.6935 183.428 69.4606C182.98 70.2276 182.757 71.1119 182.757 72.1133V86H175.949ZM200.658 86.4634C199.092 86.4634 197.697 86.1918 196.472 85.6484C195.246 85.0945 194.277 84.2795 193.563 83.2035C192.86 82.1168 192.508 80.7638 192.508 79.1445C192.508 77.7809 192.759 76.6357 193.259 75.7088C193.76 74.782 194.442 74.0362 195.305 73.4716C196.168 72.907 197.148 72.4808 198.245 72.1932C199.353 71.9055 200.514 71.7031 201.729 71.5859C203.157 71.4368 204.307 71.2983 205.181 71.1705C206.054 71.032 206.688 70.8295 207.082 70.5632C207.476 70.2969 207.674 69.9027 207.674 69.3807V69.2848C207.674 68.2727 207.354 67.4897 206.715 66.9357C206.086 66.3817 205.191 66.1048 204.03 66.1048C202.805 66.1048 201.83 66.3764 201.106 66.9197C200.381 67.4524 199.902 68.1236 199.668 68.9332L193.371 68.4219C193.691 66.9304 194.32 65.6413 195.257 64.5547C196.195 63.4574 197.404 62.6158 198.884 62.0298C200.376 61.4332 202.102 61.1349 204.062 61.1349C205.426 61.1349 206.731 61.2947 207.977 61.6143C209.234 61.9339 210.348 62.4293 211.317 63.1005C212.297 63.7717 213.07 64.6346 213.634 65.6893C214.199 66.7333 214.481 67.9851 214.481 69.4446V86H208.025V82.5962H207.833C207.439 83.3633 206.912 84.0398 206.251 84.6257C205.591 85.201 204.797 85.6538 203.87 85.984C202.943 86.3036 201.873 86.4634 200.658 86.4634ZM202.608 81.7653C203.609 81.7653 204.494 81.5682 205.261 81.174C206.028 80.7692 206.63 80.2259 207.066 79.544C207.503 78.8622 207.722 78.0898 207.722 77.2269V74.6222C207.508 74.7607 207.215 74.8885 206.843 75.0057C206.48 75.1122 206.07 75.2134 205.612 75.3093C205.154 75.3945 204.696 75.4744 204.238 75.549C203.78 75.6129 203.364 75.6715 202.991 75.7248C202.192 75.842 201.495 76.0284 200.898 76.2841C200.301 76.5398 199.838 76.886 199.508 77.3228C199.177 77.7489 199.012 78.2816 199.012 78.9208C199.012 79.8477 199.348 80.5561 200.019 81.0462C200.701 81.5256 201.564 81.7653 202.608 81.7653ZM219.763 95.2045V61.4545H226.474V65.5774H226.778C227.076 64.9169 227.508 64.2457 228.072 63.5639C228.647 62.8714 229.393 62.2962 230.309 61.8381C231.236 61.3693 232.387 61.1349 233.761 61.1349C235.551 61.1349 237.202 61.6037 238.715 62.5412C240.228 63.468 241.437 64.869 242.342 66.744C243.248 68.6083 243.701 70.9467 243.701 73.7592C243.701 76.4972 243.259 78.8089 242.374 80.6946C241.501 82.5696 240.308 83.9918 238.795 84.9613C237.293 85.9201 235.609 86.3995 233.745 86.3995C232.424 86.3995 231.3 86.1811 230.373 85.7443C229.457 85.3075 228.706 84.7589 228.12 84.0984C227.534 83.4272 227.087 82.7507 226.778 82.0689H226.57V95.2045H219.763ZM226.426 73.7273C226.426 75.1868 226.629 76.4599 227.033 77.5465C227.438 78.6332 228.024 79.4801 228.791 80.0874C229.558 80.6839 230.491 80.9822 231.588 80.9822C232.696 80.9822 233.633 80.6786 234.4 80.0714C235.167 79.4535 235.748 78.6012 236.142 77.5146C236.547 76.4173 236.749 75.1548 236.749 73.7273C236.749 72.3104 236.552 71.0639 236.158 69.9879C235.764 68.9119 235.183 68.0703 234.416 67.4631C233.649 66.8558 232.706 66.5522 231.588 66.5522C230.48 66.5522 229.542 66.8452 228.775 67.4311C228.019 68.017 227.438 68.848 227.033 69.924C226.629 71 226.426 72.2678 226.426 73.7273ZM255.047 71.8097V86H248.239V53.2727H254.855V65.7852H255.142C255.696 64.3363 256.591 63.2017 257.827 62.3814C259.063 61.5504 260.613 61.1349 262.477 61.1349C264.182 61.1349 265.668 61.5078 266.936 62.2536C268.214 62.9886 269.205 64.0486 269.908 65.4336C270.622 66.8079 270.973 68.4538 270.963 70.3714V86H264.155V71.5859C264.166 70.0732 263.782 68.896 263.005 68.0543C262.238 67.2127 261.162 66.7919 259.777 66.7919C258.85 66.7919 258.03 66.989 257.316 67.3832C256.613 67.7773 256.059 68.3526 255.654 69.109C255.26 69.8548 255.057 70.755 255.047 71.8097ZM292.54 95.2045V82.0689H292.332C292.013 82.7507 291.56 83.4272 290.974 84.0984C290.399 84.7589 289.648 85.3075 288.721 85.7443C287.805 86.1811 286.686 86.3995 285.365 86.3995C283.501 86.3995 281.812 85.9201 280.299 84.9613C278.797 83.9918 277.604 82.5696 276.72 80.6946C275.846 78.8089 275.409 76.4972 275.409 73.7592C275.409 70.9467 275.862 68.6083 276.768 66.744C277.673 64.869 278.877 63.468 280.379 62.5412C281.892 61.6037 283.548 61.1349 285.349 61.1349C286.723 61.1349 287.868 61.3693 288.785 61.8381C289.711 62.2962 290.457 62.8714 291.022 63.5639C291.597 64.2457 292.034 64.9169 292.332 65.5774H292.62V61.4545H299.332V95.2045H292.54ZM287.522 80.9822C288.619 80.9822 289.546 80.6839 290.303 80.0874C291.07 79.4801 291.656 78.6332 292.061 77.5465C292.476 76.4599 292.684 75.1868 292.684 73.7273C292.684 72.2678 292.481 71 292.077 69.924C291.672 68.848 291.086 68.017 290.319 67.4311C289.552 66.8452 288.619 66.5522 287.522 66.5522C286.404 66.5522 285.461 66.8558 284.694 67.4631C283.927 68.0703 283.346 68.9119 282.952 69.9879C282.558 71.0639 282.361 72.3104 282.361 73.7273C282.361 75.1548 282.558 76.4173 282.952 77.5146C283.357 78.6012 283.937 79.4535 284.694 80.0714C285.461 80.6786 286.404 80.9822 287.522 80.9822ZM311.604 53.2727V86H304.797V53.2727H311.604Z" fill="white"/>
</svg>
