<svg width="284" height="140" viewBox="0 0 284 140" fill="none" xmlns="http://www.w3.org/2000/svg">
<rect width="283.044" height="140" rx="20" fill="#02A8EF"/>
<path fill-rule="evenodd" clip-rule="evenodd" d="M20 32.1738L52.3478 50.9564V120L20 101.217V32.1738Z" fill="white"/>
<path d="M68.348 40.1739L33.2175 20V34.087L57.0436 48V90.2609L68.348 96.6957C75.3045 100.696 81.0436 98.4348 81.0436 91.3044V60.1739C80.8697 53.2174 75.1306 44.1739 68.348 40.1739Z" fill="white"/>
<path d="M113.888 86V53.2727H126.8C129.282 53.2727 131.397 53.7468 133.144 54.695C134.891 55.6325 136.223 56.9375 137.139 58.6101C138.066 60.272 138.529 62.1896 138.529 64.3629C138.529 66.5362 138.061 68.4538 137.123 70.1158C136.186 71.7777 134.827 73.0721 133.048 73.9989C131.28 74.9258 129.139 75.3892 126.624 75.3892H118.395V69.8441H125.506C126.837 69.8441 127.935 69.6151 128.798 69.157C129.671 68.6882 130.321 68.0437 130.747 67.2234C131.184 66.3924 131.402 65.4389 131.402 64.3629C131.402 63.2763 131.184 62.3281 130.747 61.5185C130.321 60.6982 129.671 60.0643 128.798 59.6168C127.924 59.1587 126.816 58.9297 125.474 58.9297H120.808V86H113.888ZM149.236 86.4634C147.67 86.4634 146.275 86.1918 145.049 85.6484C143.824 85.0945 142.855 84.2795 142.141 83.2035C141.438 82.1168 141.086 80.7638 141.086 79.1445C141.086 77.7809 141.337 76.6357 141.837 75.7088C142.338 74.782 143.02 74.0362 143.883 73.4716C144.746 72.907 145.726 72.4808 146.823 72.1932C147.931 71.9055 149.092 71.7031 150.307 71.5859C151.734 71.4368 152.885 71.2983 153.759 71.1705C154.632 71.032 155.266 70.8295 155.66 70.5632C156.054 70.2969 156.251 69.9027 156.251 69.3807V69.2848C156.251 68.2727 155.932 67.4897 155.293 66.9357C154.664 66.3817 153.769 66.1048 152.608 66.1048C151.383 66.1048 150.408 66.3764 149.684 66.9197C148.959 67.4524 148.48 68.1236 148.245 68.9332L141.949 68.4219C142.269 66.9304 142.897 65.6413 143.835 64.5547C144.772 63.4574 145.982 62.6158 147.462 62.0298C148.954 61.4332 150.68 61.1349 152.64 61.1349C154.004 61.1349 155.309 61.2947 156.555 61.6143C157.812 61.9339 158.925 62.4293 159.895 63.1005C160.875 63.7717 161.647 64.6346 162.212 65.6893C162.777 66.7333 163.059 67.9851 163.059 69.4446V86H156.603V82.5962H156.411C156.017 83.3633 155.49 84.0398 154.829 84.6257C154.169 85.201 153.375 85.6538 152.448 85.984C151.521 86.3036 150.451 86.4634 149.236 86.4634ZM151.186 81.7653C152.187 81.7653 153.071 81.5682 153.838 81.174C154.605 80.7692 155.207 80.2259 155.644 79.544C156.081 78.8622 156.299 78.0898 156.299 77.2269V74.6222C156.086 74.7607 155.793 74.8885 155.42 75.0057C155.058 75.1122 154.648 75.2134 154.19 75.3093C153.732 75.3945 153.274 75.4744 152.816 75.549C152.358 75.6129 151.942 75.6715 151.569 75.7248C150.77 75.842 150.072 76.0284 149.476 76.2841C148.879 76.5398 148.416 76.886 148.086 77.3228C147.755 77.7489 147.59 78.2816 147.59 78.9208C147.59 79.8477 147.926 80.5561 148.597 81.0462C149.279 81.5256 150.142 81.7653 151.186 81.7653ZM179.431 86.4794C176.916 86.4794 174.754 85.9467 172.943 84.8814C171.142 83.8054 169.757 82.3139 168.788 80.407C167.829 78.5 167.35 76.3054 167.35 73.8232C167.35 71.3089 167.834 69.1037 168.804 67.2074C169.784 65.3004 171.174 63.8143 172.975 62.7489C174.775 61.6729 176.916 61.1349 179.399 61.1349C181.54 61.1349 183.415 61.5238 185.024 62.3015C186.632 63.0792 187.905 64.1712 188.843 65.5774C189.78 66.9837 190.297 68.6349 190.393 70.5312H183.969C183.788 69.3061 183.308 68.3207 182.531 67.5749C181.764 66.8185 180.757 66.4403 179.51 66.4403C178.456 66.4403 177.534 66.728 176.746 67.3033C175.968 67.8679 175.361 68.6935 174.924 69.7802C174.487 70.8668 174.269 72.1825 174.269 73.7273C174.269 75.2933 174.482 76.625 174.908 77.7223C175.345 78.8196 175.958 79.6559 176.746 80.2312C177.534 80.8065 178.456 81.0941 179.51 81.0941C180.288 81.0941 180.986 80.9343 181.604 80.6147C182.232 80.2951 182.749 79.8317 183.154 79.2244C183.569 78.6065 183.841 77.8661 183.969 77.0032H190.393C190.286 78.8782 189.775 80.5295 188.859 81.957C187.953 83.3739 186.702 84.4819 185.104 85.2809C183.506 86.0799 181.615 86.4794 179.431 86.4794ZM200.92 78.9368L200.936 70.771H201.927L209.789 61.4545H217.603L207.04 73.7912H205.426L200.92 78.9368ZM194.752 86V53.2727H201.559V86H194.752ZM210.092 86L202.869 75.3093L207.408 70.4993L218.067 86H210.092ZM231.118 86.4794C228.593 86.4794 226.42 85.968 224.598 84.9453C222.787 83.9119 221.392 82.4524 220.412 80.5668C219.431 78.6705 218.941 76.4279 218.941 73.8391C218.941 71.3143 219.431 69.0984 220.412 67.1914C221.392 65.2844 222.771 63.7983 224.55 62.733C226.34 61.6676 228.439 61.1349 230.847 61.1349C232.466 61.1349 233.973 61.396 235.369 61.918C236.775 62.4293 238 63.2017 239.044 64.2351C240.099 65.2685 240.919 66.5682 241.505 68.1342C242.091 69.6896 242.384 71.5114 242.384 73.5994V75.4691H221.658V71.2504H235.976C235.976 70.2702 235.763 69.402 235.337 68.6456C234.911 67.8892 234.32 67.2979 233.563 66.8718C232.817 66.435 231.949 66.2166 230.958 66.2166C229.925 66.2166 229.009 66.4563 228.21 66.9357C227.422 67.4045 226.804 68.0384 226.356 68.8374C225.909 69.6257 225.68 70.5046 225.669 71.4741V75.4851C225.669 76.6996 225.893 77.7489 226.34 78.6332C226.798 79.5174 227.443 80.1992 228.274 80.6786C229.105 81.158 230.09 81.3977 231.23 81.3977C231.987 81.3977 232.679 81.2912 233.308 81.0781C233.936 80.8651 234.474 80.5455 234.922 80.1193C235.369 79.6932 235.71 79.1712 235.944 78.5533L242.24 78.9688C241.921 80.4815 241.266 81.8026 240.275 82.9318C239.295 84.0504 238.027 84.924 236.472 85.5526C234.927 86.1705 233.142 86.4794 231.118 86.4794ZM246.827 86V61.4545H253.427V65.7372H253.682C254.13 64.2138 254.881 63.0632 255.935 62.2855C256.99 61.4972 258.205 61.103 259.579 61.103C259.92 61.103 260.287 61.1243 260.681 61.1669C261.076 61.2095 261.422 61.2681 261.72 61.3427V67.3832C261.401 67.2873 260.958 67.2021 260.394 67.1275C259.829 67.0529 259.313 67.0156 258.844 67.0156C257.842 67.0156 256.947 67.234 256.159 67.6708C255.381 68.0969 254.764 68.6935 254.305 69.4606C253.858 70.2276 253.634 71.1119 253.634 72.1133V86H246.827Z" fill="white"/>
</svg>
