<svg width="314" height="140" viewBox="0 0 314 140" fill="none" xmlns="http://www.w3.org/2000/svg">
<rect width="314" height="140" rx="20" fill="#00CA8E"/>
<path d="M63.5 20L20 45V95L63.5 120L107 95V44.8264L63.5 20ZM82.814 74.8611L71.156 81.4583L57.236 73.8194V89.7917L44.012 98.125V64.7917L54.452 58.3681L68.894 66.0069V49.8611L82.814 41.5278V74.8611Z" fill="white"/>
<path d="M167.218 53.2727V86H161.242L147.004 65.4016H146.764V86H139.844V53.2727H145.917L160.043 73.8551H160.331V53.2727H167.218ZM183.898 86.4794C181.415 86.4794 179.269 85.9521 177.458 84.8974C175.657 83.832 174.267 82.3512 173.287 80.4549C172.307 78.5479 171.817 76.3374 171.817 73.8232C171.817 71.2876 172.307 69.0717 173.287 67.1754C174.267 65.2685 175.657 63.7876 177.458 62.733C179.269 61.6676 181.415 61.1349 183.898 61.1349C186.38 61.1349 188.521 61.6676 190.322 62.733C192.133 63.7876 193.528 65.2685 194.508 67.1754C195.489 69.0717 195.979 71.2876 195.979 73.8232C195.979 76.3374 195.489 78.5479 194.508 80.4549C193.528 82.3512 192.133 83.832 190.322 84.8974C188.521 85.9521 186.38 86.4794 183.898 86.4794ZM183.93 81.206C185.059 81.206 186.002 80.8864 186.758 80.2472C187.514 79.5973 188.084 78.7131 188.468 77.5945C188.862 76.4759 189.059 75.2028 189.059 73.7752C189.059 72.3477 188.862 71.0746 188.468 69.956C188.084 68.8374 187.514 67.9531 186.758 67.3033C186.002 66.6534 185.059 66.3285 183.93 66.3285C182.79 66.3285 181.831 66.6534 181.053 67.3033C180.286 67.9531 179.706 68.8374 179.311 69.956C178.928 71.0746 178.736 72.3477 178.736 73.7752C178.736 75.2028 178.928 76.4759 179.311 77.5945C179.706 78.7131 180.286 79.5973 181.053 80.2472C181.831 80.8864 182.79 81.206 183.93 81.206ZM200.405 86V61.4545H206.893V65.7852H207.181C207.692 64.3469 208.544 63.2124 209.737 62.3814C210.931 61.5504 212.358 61.1349 214.02 61.1349C215.703 61.1349 217.136 61.5558 218.319 62.3974C219.501 63.2283 220.29 64.3576 220.684 65.7852H220.94C221.44 64.3789 222.346 63.255 223.656 62.4134C224.977 61.5611 226.538 61.1349 228.338 61.1349C230.629 61.1349 232.488 61.8647 233.915 63.3242C235.354 64.7731 236.073 66.8292 236.073 69.4925V86H229.281V70.8349C229.281 69.4712 228.919 68.4485 228.195 67.7667C227.47 67.0849 226.565 66.744 225.478 66.744C224.242 66.744 223.278 67.1381 222.585 67.9265C221.893 68.7042 221.547 69.7322 221.547 71.0107V86H214.947V70.6911C214.947 69.4872 214.601 68.5284 213.908 67.8146C213.226 67.1009 212.326 66.744 211.208 66.744C210.451 66.744 209.769 66.9357 209.162 67.3192C208.566 67.6921 208.092 68.2195 207.74 68.9013C207.388 69.5724 207.213 70.3608 207.213 71.2663V86H200.405ZM248.449 86.4634C246.883 86.4634 245.488 86.1918 244.263 85.6484C243.037 85.0945 242.068 84.2795 241.354 83.2035C240.651 82.1168 240.299 80.7638 240.299 79.1445C240.299 77.7809 240.55 76.6357 241.051 75.7088C241.551 74.782 242.233 74.0362 243.096 73.4716C243.959 72.907 244.939 72.4808 246.036 72.1932C247.144 71.9055 248.305 71.7031 249.52 71.5859C250.948 71.4368 252.098 71.2983 252.972 71.1705C253.845 71.032 254.479 70.8295 254.873 70.5632C255.267 70.2969 255.465 69.9027 255.465 69.3807V69.2848C255.465 68.2727 255.145 67.4897 254.506 66.9357C253.877 66.3817 252.982 66.1048 251.821 66.1048C250.596 66.1048 249.621 66.3764 248.897 66.9197C248.172 67.4524 247.693 68.1236 247.459 68.9332L241.162 68.4219C241.482 66.9304 242.111 65.6413 243.048 64.5547C243.986 63.4574 245.195 62.6158 246.676 62.0298C248.167 61.4332 249.893 61.1349 251.853 61.1349C253.217 61.1349 254.522 61.2947 255.768 61.6143C257.025 61.9339 258.139 62.4293 259.108 63.1005C260.088 63.7717 260.861 64.6346 261.425 65.6893C261.99 66.7333 262.272 67.9851 262.272 69.4446V86H255.816V82.5962H255.624C255.23 83.3633 254.703 84.0398 254.042 84.6257C253.382 85.201 252.588 85.6538 251.661 85.984C250.734 86.3036 249.664 86.4634 248.449 86.4634ZM250.399 81.7653C251.4 81.7653 252.285 81.5682 253.052 81.174C253.819 80.7692 254.421 80.2259 254.857 79.544C255.294 78.8622 255.513 78.0898 255.513 77.2269V74.6222C255.299 74.7607 255.006 74.8885 254.634 75.0057C254.271 75.1122 253.861 75.2134 253.403 75.3093C252.945 75.3945 252.487 75.4744 252.029 75.549C251.571 75.6129 251.155 75.6715 250.782 75.7248C249.983 75.842 249.286 76.0284 248.689 76.2841C248.092 76.5398 247.629 76.886 247.299 77.3228C246.968 77.7489 246.803 78.2816 246.803 78.9208C246.803 79.8477 247.139 80.5561 247.81 81.0462C248.492 81.5256 249.355 81.7653 250.399 81.7653ZM276.598 86.3995C274.734 86.3995 273.045 85.9201 271.533 84.9613C270.03 83.9918 268.837 82.5696 267.953 80.6946C267.079 78.8089 266.643 76.4972 266.643 73.7592C266.643 70.9467 267.095 68.6083 268.001 66.744C268.907 64.869 270.11 63.468 271.612 62.5412C273.125 61.6037 274.782 61.1349 276.582 61.1349C277.957 61.1349 279.102 61.3693 280.018 61.8381C280.945 62.2962 281.691 62.8714 282.255 63.5639C282.831 64.2457 283.267 64.9169 283.566 65.5774H283.773V53.2727H290.565V86H283.853V82.0689H283.566C283.246 82.7507 282.793 83.4272 282.207 84.0984C281.632 84.7589 280.881 85.3075 279.954 85.7443C279.038 86.1811 277.919 86.3995 276.598 86.3995ZM278.756 80.9822C279.853 80.9822 280.78 80.6839 281.536 80.0874C282.303 79.4801 282.889 78.6332 283.294 77.5465C283.709 76.4599 283.917 75.1868 283.917 73.7273C283.917 72.2678 283.715 71 283.31 69.924C282.905 68.848 282.319 68.017 281.552 67.4311C280.785 66.8452 279.853 66.5522 278.756 66.5522C277.637 66.5522 276.694 66.8558 275.927 67.4631C275.16 68.0703 274.579 68.9119 274.185 69.9879C273.791 71.0639 273.594 72.3104 273.594 73.7273C273.594 75.1548 273.791 76.4173 274.185 77.5146C274.59 78.6012 275.171 79.4535 275.927 80.0714C276.694 80.6786 277.637 80.9822 278.756 80.9822Z" fill="white"/>
</svg>
