<svg width="378" height="140" viewBox="0 0 378 140" fill="none" xmlns="http://www.w3.org/2000/svg">
<rect width="377.719" height="140" rx="20" fill="#7B42BC"/>
<path fill-rule="evenodd" clip-rule="evenodd" d="M50.1753 37.5439L77.3683 53.3334V84.9124L50.1753 69.1229V37.5439Z" fill="white"/>
<path fill-rule="evenodd" clip-rule="evenodd" d="M80.5264 53.3334V84.9124L107.719 69.1229V37.5439L80.5264 53.3334Z" fill="white"/>
<path fill-rule="evenodd" clip-rule="evenodd" d="M20 20V51.5789L47.193 67.3684V35.7895L20 20Z" fill="white"/>
<path fill-rule="evenodd" clip-rule="evenodd" d="M50.1753 104.211L77.3683 120V88.4213L50.1753 72.6318V104.211Z" fill="white"/>
<path d="M139.317 58.9776V53.2727H166.196V58.9776H156.176V86H149.337V58.9776H139.317ZM178.121 86.4794C175.596 86.4794 173.423 85.968 171.601 84.9453C169.79 83.9119 168.394 82.4524 167.414 80.5668C166.434 78.6705 165.944 76.4279 165.944 73.8391C165.944 71.3143 166.434 69.0984 167.414 67.1914C168.394 65.2844 169.774 63.7983 171.553 62.733C173.343 61.6676 175.442 61.1349 177.849 61.1349C179.469 61.1349 180.976 61.396 182.372 61.918C183.778 62.4293 185.003 63.2017 186.047 64.2351C187.102 65.2685 187.922 66.5682 188.508 68.1342C189.094 69.6896 189.387 71.5114 189.387 73.5994V75.4691H168.661V71.2504H182.979C182.979 70.2702 182.766 69.402 182.34 68.6456C181.914 67.8892 181.322 67.2979 180.566 66.8718C179.82 66.435 178.952 66.2166 177.961 66.2166C176.928 66.2166 176.012 66.4563 175.213 66.9357C174.424 67.4045 173.806 68.0384 173.359 68.8374C172.911 69.6257 172.682 70.5046 172.672 71.4741V75.4851C172.672 76.6996 172.895 77.7489 173.343 78.6332C173.801 79.5174 174.446 80.1992 175.277 80.6786C176.107 81.158 177.093 81.3977 178.233 81.3977C178.989 81.3977 179.682 81.2912 180.31 81.0781C180.939 80.8651 181.477 80.5455 181.924 80.1193C182.372 79.6932 182.713 79.1712 182.947 78.5533L189.243 78.9688C188.924 80.4815 188.268 81.8026 187.278 82.9318C186.297 84.0504 185.03 84.924 183.474 85.5526C181.93 86.1705 180.145 86.4794 178.121 86.4794ZM193.829 86V61.4545H200.429V65.7372H200.685C201.132 64.2138 201.883 63.0632 202.938 62.2855C203.993 61.4972 205.207 61.103 206.582 61.103C206.922 61.103 207.29 61.1243 207.684 61.1669C208.078 61.2095 208.425 61.2681 208.723 61.3427V67.3832C208.403 67.2873 207.961 67.2021 207.397 67.1275C206.832 67.0529 206.315 67.0156 205.846 67.0156C204.845 67.0156 203.95 67.234 203.162 67.6708C202.384 68.0969 201.766 68.6935 201.308 69.4606C200.861 70.2276 200.637 71.1119 200.637 72.1133V86H193.829ZM212.242 86V61.4545H218.842V65.7372H219.098C219.545 64.2138 220.296 63.0632 221.351 62.2855C222.406 61.4972 223.62 61.103 224.995 61.103C225.336 61.103 225.703 61.1243 226.097 61.1669C226.491 61.2095 226.838 61.2681 227.136 61.3427V67.3832C226.816 67.2873 226.374 67.2021 225.81 67.1275C225.245 67.0529 224.728 67.0156 224.26 67.0156C223.258 67.0156 222.363 67.234 221.575 67.6708C220.797 68.0969 220.179 68.6935 219.721 69.4606C219.274 70.2276 219.05 71.1119 219.05 72.1133V86H212.242ZM236.952 86.4634C235.386 86.4634 233.99 86.1918 232.765 85.6484C231.54 85.0945 230.57 84.2795 229.857 83.2035C229.153 82.1168 228.802 80.7638 228.802 79.1445C228.802 77.7809 229.052 76.6357 229.553 75.7088C230.054 74.782 230.735 74.0362 231.598 73.4716C232.461 72.907 233.441 72.4808 234.539 72.1932C235.647 71.9055 236.808 71.7031 238.022 71.5859C239.45 71.4368 240.601 71.2983 241.474 71.1705C242.348 71.032 242.982 70.8295 243.376 70.5632C243.77 70.2969 243.967 69.9027 243.967 69.3807V69.2848C243.967 68.2727 243.647 67.4897 243.008 66.9357C242.38 66.3817 241.485 66.1048 240.324 66.1048C239.098 66.1048 238.124 66.3764 237.399 66.9197C236.675 67.4524 236.195 68.1236 235.961 68.9332L229.665 68.4219C229.984 66.9304 230.613 65.6413 231.55 64.5547C232.488 63.4574 233.697 62.6158 235.178 62.0298C236.669 61.4332 238.395 61.1349 240.356 61.1349C241.719 61.1349 243.024 61.2947 244.271 61.6143C245.528 61.9339 246.641 62.4293 247.61 63.1005C248.591 63.7717 249.363 64.6346 249.928 65.6893C250.492 66.7333 250.775 67.9851 250.775 69.4446V86H244.319V82.5962H244.127C243.733 83.3633 243.205 84.0398 242.545 84.6257C241.884 85.201 241.091 85.6538 240.164 85.984C239.237 86.3036 238.166 86.4634 236.952 86.4634ZM238.901 81.7653C239.903 81.7653 240.787 81.5682 241.554 81.174C242.321 80.7692 242.923 80.2259 243.36 79.544C243.797 78.8622 244.015 78.0898 244.015 77.2269V74.6222C243.802 74.7607 243.509 74.8885 243.136 75.0057C242.774 75.1122 242.364 75.2134 241.906 75.3093C241.447 75.3945 240.989 75.4744 240.531 75.549C240.073 75.6129 239.658 75.6715 239.285 75.7248C238.486 75.842 237.788 76.0284 237.191 76.2841C236.595 76.5398 236.131 76.886 235.801 77.3228C235.471 77.7489 235.306 78.2816 235.306 78.9208C235.306 79.8477 235.641 80.5561 236.313 81.0462C236.994 81.5256 237.857 81.7653 238.901 81.7653ZM269.256 61.4545V66.5682H254.106V61.4545H269.256ZM257.574 86V59.6808C257.574 57.9016 257.92 56.4261 258.613 55.2543C259.316 54.0824 260.275 53.2035 261.489 52.6175C262.704 52.0316 264.083 51.7386 265.628 51.7386C266.672 51.7386 267.626 51.8185 268.489 51.9783C269.362 52.1381 270.012 52.282 270.438 52.4098L269.224 57.5234C268.957 57.4382 268.627 57.3583 268.233 57.2837C267.849 57.2092 267.455 57.1719 267.05 57.1719C266.049 57.1719 265.351 57.4062 264.957 57.875C264.563 58.3331 264.366 58.9776 264.366 59.8086V86H257.574ZM283.626 86.4794C281.143 86.4794 278.997 85.9521 277.186 84.8974C275.385 83.832 273.995 82.3512 273.015 80.4549C272.035 78.5479 271.545 76.3374 271.545 73.8232C271.545 71.2876 272.035 69.0717 273.015 67.1754C273.995 65.2685 275.385 63.7876 277.186 62.733C278.997 61.6676 281.143 61.1349 283.626 61.1349C286.108 61.1349 288.249 61.6676 290.05 62.733C291.861 63.7876 293.256 65.2685 294.236 67.1754C295.217 69.0717 295.707 71.2876 295.707 73.8232C295.707 76.3374 295.217 78.5479 294.236 80.4549C293.256 82.3512 291.861 83.832 290.05 84.8974C288.249 85.9521 286.108 86.4794 283.626 86.4794ZM283.658 81.206C284.787 81.206 285.73 80.8864 286.486 80.2472C287.242 79.5973 287.812 78.7131 288.196 77.5945C288.59 76.4759 288.787 75.2028 288.787 73.7752C288.787 72.3477 288.59 71.0746 288.196 69.956C287.812 68.8374 287.242 67.9531 286.486 67.3033C285.73 66.6534 284.787 66.3285 283.658 66.3285C282.518 66.3285 281.559 66.6534 280.781 67.3033C280.014 67.9531 279.434 68.8374 279.039 69.956C278.656 71.0746 278.464 72.3477 278.464 73.7752C278.464 75.2028 278.656 76.4759 279.039 77.5945C279.434 78.7131 280.014 79.5973 280.781 80.2472C281.559 80.8864 282.518 81.206 283.658 81.206ZM300.133 86V61.4545H306.733V65.7372H306.989C307.436 64.2138 308.187 63.0632 309.242 62.2855C310.296 61.4972 311.511 61.103 312.885 61.103C313.226 61.103 313.594 61.1243 313.988 61.1669C314.382 61.2095 314.728 61.2681 315.027 61.3427V67.3832C314.707 67.2873 314.265 67.2021 313.7 67.1275C313.136 67.0529 312.619 67.0156 312.15 67.0156C311.149 67.0156 310.254 67.234 309.466 67.6708C308.688 68.0969 308.07 68.6935 307.612 69.4606C307.164 70.2276 306.941 71.1119 306.941 72.1133V86H300.133ZM318.546 86V61.4545H325.034V65.7852H325.322C325.833 64.3469 326.685 63.2124 327.879 62.3814C329.072 61.5504 330.499 61.1349 332.161 61.1349C333.845 61.1349 335.277 61.5558 336.46 62.3974C337.642 63.2283 338.431 64.3576 338.825 65.7852H339.081C339.581 64.3789 340.487 63.255 341.797 62.4134C343.118 61.5611 344.679 61.1349 346.479 61.1349C348.77 61.1349 350.629 61.8647 352.057 63.3242C353.495 64.7731 354.214 66.8292 354.214 69.4925V86H347.422V70.8349C347.422 69.4712 347.06 68.4485 346.336 67.7667C345.611 67.0849 344.706 66.744 343.619 66.744C342.383 66.744 341.419 67.1381 340.727 67.9265C340.034 68.7042 339.688 69.7322 339.688 71.0107V86H333.088V70.6911C333.088 69.4872 332.742 68.5284 332.049 67.8146C331.368 67.1009 330.467 66.744 329.349 66.744C328.592 66.744 327.911 66.9357 327.303 67.3192C326.707 67.6921 326.233 68.2195 325.881 68.9013C325.53 69.5724 325.354 70.3608 325.354 71.2663V86H318.546Z" fill="white"/>
</svg>
