<svg width="316" height="140" viewBox="0 0 316 140" fill="none" xmlns="http://www.w3.org/2000/svg">
<rect width="315.826" height="140" rx="20" fill="black"/>
<path d="M62.6336 35H77.2268V79.8243C77.2268 84.8572 76.0247 89.261 73.6206 93.0356C71.239 96.8103 67.9024 99.7537 63.611 101.866C59.3195 103.955 54.3203 105 48.6134 105C42.884 105 37.8735 103.955 33.5821 101.866C29.2906 99.7537 25.9541 96.8103 23.5725 93.0356C21.1908 89.261 20 84.8572 20 79.8243V35H34.5932V78.5773C34.5932 81.2061 35.1661 83.5428 36.312 85.5874C37.4803 87.632 39.1205 89.2385 41.2325 90.4068C43.3446 91.5752 45.8048 92.1594 48.6134 92.1594C51.4444 92.1594 53.9047 91.5752 55.9942 90.4068C58.1062 89.2385 59.7352 87.632 60.8811 85.5874C62.0494 83.5428 62.6336 81.2061 62.6336 78.5773V35Z" fill="white"/>
<path d="M103.826 35V104.023H89.2333V35H103.826Z" fill="white"/>
<path d="M136.671 86V53.2727H143.59V66.7759H157.637V53.2727H164.54V86H157.637V72.4808H143.59V86H136.671ZM181.303 86.4794C178.778 86.4794 176.605 85.968 174.783 84.9453C172.972 83.9119 171.577 82.4524 170.596 80.5668C169.616 78.6705 169.126 76.4279 169.126 73.8391C169.126 71.3143 169.616 69.0984 170.596 67.1914C171.577 65.2844 172.956 63.7983 174.735 62.733C176.525 61.6676 178.624 61.1349 181.031 61.1349C182.651 61.1349 184.158 61.396 185.554 61.918C186.96 62.4293 188.185 63.2017 189.229 64.2351C190.284 65.2685 191.104 66.5682 191.69 68.1342C192.276 69.6896 192.569 71.5114 192.569 73.5994V75.4691H171.843V71.2504H186.161C186.161 70.2702 185.948 69.402 185.522 68.6456C185.096 67.8892 184.504 67.2979 183.748 66.8718C183.002 66.435 182.134 66.2166 181.143 66.2166C180.11 66.2166 179.194 66.4563 178.395 66.9357C177.606 67.4045 176.988 68.0384 176.541 68.8374C176.094 69.6257 175.865 70.5046 175.854 71.4741V75.4851C175.854 76.6996 176.078 77.7489 176.525 78.6332C176.983 79.5174 177.628 80.1992 178.459 80.6786C179.29 81.158 180.275 81.3977 181.415 81.3977C182.171 81.3977 182.864 81.2912 183.492 81.0781C184.121 80.8651 184.659 80.5455 185.106 80.1193C185.554 79.6932 185.895 79.1712 186.129 78.5533L192.425 78.9688C192.106 80.4815 191.45 81.8026 190.46 82.9318C189.48 84.0504 188.212 84.924 186.656 85.5526C185.112 86.1705 183.327 86.4794 181.303 86.4794ZM197.012 86V61.4545H203.611V65.7372H203.867C204.314 64.2138 205.066 63.0632 206.12 62.2855C207.175 61.4972 208.389 61.103 209.764 61.103C210.105 61.103 210.472 61.1243 210.866 61.1669C211.26 61.2095 211.607 61.2681 211.905 61.3427V67.3832C211.585 67.2873 211.143 67.2021 210.579 67.1275C210.014 67.0529 209.497 67.0156 209.029 67.0156C208.027 67.0156 207.132 67.234 206.344 67.6708C205.566 68.0969 204.948 68.6935 204.49 69.4606C204.043 70.2276 203.819 71.1119 203.819 72.1133V86H197.012ZM225.372 86.4794C222.89 86.4794 220.743 85.9521 218.932 84.8974C217.132 83.832 215.742 82.3512 214.761 80.4549C213.781 78.5479 213.291 76.3374 213.291 73.8232C213.291 71.2876 213.781 69.0717 214.761 67.1754C215.742 65.2685 217.132 63.7876 218.932 62.733C220.743 61.6676 222.89 61.1349 225.372 61.1349C227.854 61.1349 229.996 61.6676 231.796 62.733C233.607 63.7876 235.003 65.2685 235.983 67.1754C236.963 69.0717 237.453 71.2876 237.453 73.8232C237.453 76.3374 236.963 78.5479 235.983 80.4549C235.003 82.3512 233.607 83.832 231.796 84.8974C229.996 85.9521 227.854 86.4794 225.372 86.4794ZM225.404 81.206C226.533 81.206 227.476 80.8864 228.233 80.2472C228.989 79.5973 229.559 78.7131 229.943 77.5945C230.337 76.4759 230.534 75.2028 230.534 73.7752C230.534 72.3477 230.337 71.0746 229.943 69.956C229.559 68.8374 228.989 67.9531 228.233 67.3033C227.476 66.6534 226.533 66.3285 225.404 66.3285C224.264 66.3285 223.305 66.6534 222.528 67.3033C221.761 67.9531 221.18 68.8374 220.786 69.956C220.402 71.0746 220.211 72.3477 220.211 73.7752C220.211 75.2028 220.402 76.4759 220.786 77.5945C221.18 78.7131 221.761 79.5973 222.528 80.2472C223.305 80.8864 224.264 81.206 225.404 81.206ZM272.637 53.2727H279.557V74.5263C279.557 76.9126 278.987 79.0007 277.847 80.7905C276.718 82.5803 275.136 83.9759 273.101 84.9773C271.066 85.968 268.696 86.4634 265.99 86.4634C263.273 86.4634 260.897 85.968 258.863 84.9773C256.828 83.9759 255.246 82.5803 254.116 80.7905C252.987 79.0007 252.423 76.9126 252.423 74.5263V53.2727H259.342V73.935C259.342 75.1815 259.614 76.2894 260.157 77.2589C260.711 78.2283 261.489 78.9901 262.49 79.544C263.491 80.098 264.658 80.375 265.99 80.375C267.332 80.375 268.499 80.098 269.489 79.544C270.491 78.9901 271.263 78.2283 271.806 77.2589C272.36 76.2894 272.637 75.1815 272.637 73.935V53.2727ZM292.169 53.2727V86H285.25V53.2727H292.169Z" fill="white"/>
</svg>
