<svg width="140" height="140" viewBox="0 0 140 140" fill="none" xmlns="http://www.w3.org/2000/svg">
<rect width="140" height="140" rx="20" fill="black"/>
<path d="M34 44.9386V74.817C34 76.2293 34.7247 77.5417 35.9169 78.2885L56.2531 91.027C58.9632 92.7246 62.4733 90.7657 62.4733 87.5557V62.4405C62.4733 60.9955 63.2317 59.6577 64.4683 58.9213L76.8733 51.5345V115.903C76.8733 119.103 80.3623 121.063 83.073 119.387L104.063 106.411C105.267 105.667 106 104.348 106 102.927V41.1144C106 37.9307 102.541 35.9677 99.8299 37.6121L76.8733 51.5345V24.0964C76.8733 20.9214 73.4316 18.9571 70.7196 20.5843L35.9834 41.4264C34.7533 42.1645 34 43.4985 34 44.9386Z" fill="white"/>
</svg>
