<svg width="307" height="140" viewBox="0 0 307 140" fill="none" xmlns="http://www.w3.org/2000/svg">
<rect width="306.955" height="140" rx="20" fill="#69DAC7"/>
<path d="M66.7129 30.3626V49.1828L87.8618 103.501C87.8618 103.501 94.3183 116.767 75.8519 120H33.7244C33.7244 120 16.5126 118.204 20.6389 104.576L42.8641 49.1835V30.3626H66.7129Z" fill="#009688"/>
<path d="M67.1593 28.1743H41.7892C39.7343 28.1743 38.063 26.3463 38.063 24.0879C38.063 21.8279 39.7336 20 41.7892 20H67.1593C69.2235 20 70.892 21.8279 70.892 24.0879C70.892 26.3463 69.2228 28.1743 67.1593 28.1743Z" fill="#004D40"/>
<path d="M60.4667 61.0919C63.1891 61.0919 65.4091 63.7519 65.4091 67.0461C65.4091 70.3258 63.1876 72.9924 60.4667 72.9924C57.7379 72.9924 55.5243 70.3258 55.5243 67.0461C55.5243 63.7505 57.7379 61.0919 60.4667 61.0919Z" fill="white"/>
<path d="M45.2942 76.5378C47.5951 76.5378 49.4603 74.2897 49.4603 71.5164C49.4603 68.7432 47.5951 66.495 45.2942 66.495C42.9933 66.495 41.1281 68.7432 41.1281 71.5164C41.1281 74.2897 42.9933 76.5378 45.2942 76.5378Z" fill="white"/>
<path d="M68.5938 47.9354V38.9841C68.5938 38.9841 79.9449 36.4814 85.6179 49.6844C85.6179 49.6844 76.7768 56.1257 68.5938 47.9354Z" fill="#004D40"/>
<path d="M40.792 47.9354V38.9841C40.792 38.9841 29.4394 36.4814 23.7693 49.6844C23.7693 49.6844 32.6017 56.1257 40.792 47.9354Z" fill="#004D40"/>
<path d="M75.4184 84.9784C56.9599 79.2524 41.4413 82.3263 33.8562 84.65L26.2074 103.061C22.7639 114.051 37.1425 115.496 37.1425 115.496H72.3279C87.7509 112.89 82.3605 102.198 82.3605 102.198L75.4184 84.9784Z" fill="white"/>
<path d="M48.8167 91.8189C48.8167 93.8041 46.1488 95.4189 42.8625 95.4189C39.5763 95.4189 36.9163 93.8034 36.9163 91.8189C36.9163 89.8257 39.5763 88.2166 42.8625 88.2166C46.1502 88.2181 48.8167 89.8257 48.8167 91.8189Z" fill="#004D40"/>
<path d="M69.9913 91.8189C69.9913 93.8041 67.3233 95.4189 64.0451 95.4189C60.7494 95.4189 58.0909 93.8034 58.0909 91.8189C58.0909 89.8257 60.7494 88.2166 64.0451 88.2166C67.3248 88.2181 69.9913 89.8257 69.9913 91.8189Z" fill="#004D40"/>
<path d="M128.719 53.2727V86H121.8V53.2727H128.719ZM148.458 53.2727V86H141.539V59.8406H141.347L133.853 64.5387V58.4023L141.955 53.2727H148.458ZM168.446 86.4474C165.985 86.4474 163.795 86.0479 161.878 85.2489C159.971 84.4393 158.474 83.3366 157.387 81.9411C156.301 80.5455 155.757 78.9634 155.757 77.195C155.757 75.8313 156.066 74.5795 156.684 73.4396C157.313 72.2891 158.165 71.3356 159.241 70.5792C160.317 69.8121 161.521 69.3221 162.853 69.109V68.8853C161.105 68.5337 159.688 67.6868 158.602 66.3445C157.515 64.9915 156.972 63.4201 156.972 61.6303C156.972 59.9364 157.467 58.429 158.458 57.108C159.449 55.7763 160.807 54.7322 162.533 53.9759C164.269 53.2088 166.24 52.8253 168.446 52.8253C170.651 52.8253 172.616 53.2088 174.342 53.9759C176.079 54.7429 177.442 55.7923 178.433 57.1239C179.424 58.445 179.925 59.9471 179.935 61.6303C179.925 63.4308 179.371 65.0021 178.273 66.3445C177.176 67.6868 175.77 68.5337 174.055 68.8853V69.109C175.365 69.3221 176.553 69.8121 177.618 70.5792C178.694 71.3356 179.546 72.2891 180.175 73.4396C180.814 74.5795 181.139 75.8313 181.15 77.195C181.139 78.9634 180.59 80.5455 179.504 81.9411C178.417 83.3366 176.915 84.4393 174.997 85.2489C173.09 86.0479 170.906 86.4474 168.446 86.4474ZM168.446 81.3658C169.543 81.3658 170.502 81.1687 171.322 80.7745C172.142 80.3697 172.781 79.8157 173.24 79.1126C173.708 78.3988 173.943 77.5785 173.943 76.6516C173.943 75.7035 173.703 74.8672 173.224 74.1428C172.744 73.4077 172.094 72.8324 171.274 72.4169C170.454 71.9908 169.511 71.7777 168.446 71.7777C167.391 71.7777 166.448 71.9908 165.617 72.4169C164.786 72.8324 164.131 73.4077 163.652 74.1428C163.183 74.8672 162.948 75.7035 162.948 76.6516C162.948 77.5785 163.177 78.3988 163.636 79.1126C164.094 79.8157 164.738 80.3697 165.569 80.7745C166.4 81.1687 167.359 81.3658 168.446 81.3658ZM168.446 66.744C169.362 66.744 170.177 66.5575 170.891 66.1847C171.604 65.8118 172.164 65.2951 172.568 64.6346C172.973 63.9741 173.176 63.2124 173.176 62.3494C173.176 61.4972 172.973 60.7514 172.568 60.1122C172.164 59.4624 171.61 58.9563 170.906 58.5941C170.203 58.2212 169.383 58.0348 168.446 58.0348C167.519 58.0348 166.698 58.2212 165.985 58.5941C165.271 58.9563 164.712 59.4624 164.307 60.1122C163.913 60.7514 163.715 61.4972 163.715 62.3494C163.715 63.2124 163.918 63.9741 164.323 64.6346C164.728 65.2951 165.287 65.8118 166.001 66.1847C166.714 66.5575 167.529 66.744 168.446 66.744ZM213.553 53.2727V86H207.577L193.339 65.4016H193.099V86H186.179V53.2727H192.252L206.378 73.8551H206.666V53.2727H213.553ZM230.329 86.4794C227.804 86.4794 225.63 85.968 223.809 84.9453C221.998 83.9119 220.602 82.4524 219.622 80.5668C218.642 78.6705 218.152 76.4279 218.152 73.8391C218.152 71.3143 218.642 69.0984 219.622 67.1914C220.602 65.2844 221.982 63.7983 223.761 62.733C225.55 61.6676 227.649 61.1349 230.057 61.1349C231.676 61.1349 233.184 61.396 234.579 61.918C235.986 62.4293 237.211 63.2017 238.255 64.2351C239.309 65.2685 240.13 66.5682 240.716 68.1342C241.302 69.6896 241.595 71.5114 241.595 73.5994V75.4691H220.868V71.2504H235.186C235.186 70.2702 234.973 69.402 234.547 68.6456C234.121 67.8892 233.53 67.2979 232.773 66.8718C232.028 66.435 231.16 66.2166 230.169 66.2166C229.135 66.2166 228.219 66.4563 227.42 66.9357C226.632 67.4045 226.014 68.0384 225.566 68.8374C225.119 69.6257 224.89 70.5046 224.879 71.4741V75.4851C224.879 76.6996 225.103 77.7489 225.55 78.6332C226.009 79.5174 226.653 80.1992 227.484 80.6786C228.315 81.158 229.3 81.3977 230.44 81.3977C231.197 81.3977 231.889 81.2912 232.518 81.0781C233.146 80.8651 233.684 80.5455 234.132 80.1193C234.579 79.6932 234.92 79.1712 235.155 78.5533L241.451 78.9688C241.131 80.4815 240.476 81.8026 239.485 82.9318C238.505 84.0504 237.237 84.924 235.682 85.5526C234.137 86.1705 232.353 86.4794 230.329 86.4794ZM251.286 61.4545L255.793 70.0359L260.411 61.4545H267.394L260.283 73.7273L267.586 86H260.635L255.793 77.5146L251.031 86H244L251.286 73.7273L244.255 61.4545H251.286ZM284.493 61.4545V66.5682H269.712V61.4545H284.493ZM273.067 55.5739H279.875V78.4574C279.875 79.0859 279.971 79.576 280.163 79.9276C280.354 80.2685 280.621 80.5082 280.962 80.6467C281.313 80.7852 281.718 80.8544 282.176 80.8544C282.496 80.8544 282.815 80.8278 283.135 80.7745C283.454 80.7106 283.699 80.6626 283.87 80.6307L284.941 85.6964C284.6 85.8029 284.12 85.9254 283.502 86.0639C282.884 86.2131 282.133 86.3036 281.249 86.3356C279.609 86.3995 278.17 86.1811 276.935 85.6804C275.709 85.1797 274.756 84.402 274.074 83.3473C273.392 82.2926 273.057 80.9609 273.067 79.3523V55.5739Z" fill="white"/>
</svg>
