<svg width="140" height="140" viewBox="0 0 140 140" fill="none" xmlns="http://www.w3.org/2000/svg">
<rect width="140" height="140" rx="20" fill="#3A75B0"/>
<path d="M56.8766 97.3354C56.8766 97.3354 53.0553 99.5576 59.5962 100.31C67.5206 101.214 71.5703 101.084 80.303 99.4311C80.303 99.4311 82.599 100.871 85.805 102.118C66.2292 110.508 41.5005 101.632 56.8766 97.3354ZM54.4845 86.387C54.4845 86.387 50.1985 89.5597 56.7443 90.2367C65.2092 91.1099 71.894 91.1814 83.4615 88.954C83.4615 88.954 85.0615 90.576 87.5773 91.4631C63.9086 98.3841 37.5461 92.0089 54.4845 86.387Z" fill="white"/>
<path d="M74.6506 67.8151C79.4743 73.3684 73.3834 78.3658 73.3834 78.3658C73.3834 78.3658 85.631 72.0432 80.0062 64.1255C74.7529 56.7424 70.724 53.0734 92.5338 40.4247C92.5338 40.4247 58.2997 48.975 74.6506 67.8151Z" fill="white"/>
<path d="M100.542 105.434C100.542 105.434 103.369 107.764 97.427 109.566C86.1276 112.989 50.3972 114.023 40.4713 109.703C36.9034 108.151 43.5945 105.997 45.6992 105.544C47.8941 105.068 49.1487 105.157 49.1487 105.157C45.1806 102.362 23.5008 110.646 38.1365 113.018C78.0498 119.491 110.894 110.104 100.542 105.434ZM58.7141 75.0433C58.7141 75.0433 40.5396 79.3603 52.2783 80.9276C57.2345 81.5912 67.1149 81.4412 76.3184 80.6699C83.8399 80.0358 91.3925 78.6865 91.3925 78.6865C91.3925 78.6865 88.7403 79.8224 86.8216 81.1325C68.3654 85.9866 32.7115 83.7285 42.9758 78.7633C51.6564 74.5673 58.7141 75.0433 58.7141 75.0433ZM91.3175 93.2673C110.079 83.518 101.405 74.1492 95.3498 75.4116C93.8657 75.7202 93.2041 75.9878 93.2041 75.9878C93.2041 75.9878 93.7551 75.125 94.8073 74.7514C106.785 70.5401 115.998 87.1717 90.9405 93.7587C90.9405 93.7587 91.2309 93.4995 91.3175 93.2673Z" fill="white"/>
<path d="M80.0062 20C80.0062 20 90.3967 30.3943 70.1512 46.3769C53.9167 59.1981 66.4492 66.5083 70.1446 74.8606C60.6681 66.3106 53.7134 58.7838 58.3793 51.7788C65.2271 41.4954 84.1983 36.5102 80.0062 20Z" fill="white"/>
<path d="M60.5578 119.685C78.5666 120.838 106.221 119.046 106.876 110.525C106.876 110.525 105.617 113.755 91.9927 116.32C76.6218 119.213 57.6641 118.875 46.42 117.021C46.42 117.021 48.7215 118.926 60.5578 119.685Z" fill="white"/>
</svg>
