<svg width="140" height="140" viewBox="0 0 140 140" fill="none" xmlns="http://www.w3.org/2000/svg">
<rect width="140" height="140" rx="20" fill="#F7DF1E"/>
<path d="M94.9412 105.954C96.9555 109.243 99.5761 111.66 104.211 111.66C108.105 111.66 110.592 109.714 110.592 107.025C110.592 103.803 108.036 102.662 103.751 100.787L101.402 99.7794C94.6206 96.8905 90.1158 93.2715 90.1158 85.6207C90.1158 78.5731 95.4857 73.208 103.878 73.208C109.852 73.208 114.148 75.2873 117.243 80.7318L109.925 85.4302C108.314 82.5413 106.576 81.4032 103.878 81.4032C101.125 81.4032 99.3809 83.1493 99.3809 85.4302C99.3809 88.2493 101.127 89.3905 105.159 91.1366L107.508 92.1429C115.492 95.5667 120 99.0572 120 106.905C120 115.365 113.354 120 104.428 120C95.7015 120 90.0634 115.841 87.3047 110.391L94.9412 105.954ZM61.746 106.768C63.2222 109.387 64.565 111.602 67.7936 111.602C70.8809 111.602 72.8285 110.394 72.8285 105.697V73.7445H82.2253V105.824C82.2253 115.554 76.5206 119.983 68.1936 119.983C60.6698 119.983 56.3127 116.089 54.0968 111.399L61.746 106.768Z" fill="black"/>
</svg>
