<svg width="140" height="140" viewBox="0 0 140 140" fill="none" xmlns="http://www.w3.org/2000/svg">
<rect width="140" height="140" rx="20" fill="black"/>
<path fill-rule="evenodd" clip-rule="evenodd" d="M77.5 46.9V20H62.5V46.9L70 57.2L77.5 46.9Z" fill="white"/>
<path fill-rule="evenodd" clip-rule="evenodd" d="M62.5 93.1V120H77.5V93.1L70 82.8L62.5 93.1Z" fill="white"/>
<path fill-rule="evenodd" clip-rule="evenodd" d="M77.5 93.1L93.3 114.9L105.5 106L89.6 84.3L77.5 80.3V93.1Z" fill="#00F2E6"/>
<path fill-rule="evenodd" clip-rule="evenodd" d="M62.5 46.9L46.7 25.1L34.5 34L50.4 55.7L62.5 59.7V46.9Z" fill="#00F2E6"/>
<path fill-rule="evenodd" clip-rule="evenodd" d="M50.4 55.7L24.8 47.4L20.1 61.7L45.7 70L57.9 66.1L50.4 55.7Z" fill="#00B9F1"/>
<path fill-rule="evenodd" clip-rule="evenodd" d="M82.1 73.9L89.6 84.3L115.2 92.6L119.9 78.3L94.3 70L82.1 73.9Z" fill="#00B9F1"/>
<path fill-rule="evenodd" clip-rule="evenodd" d="M94.3 70L119.9 61.7L115.2 47.4L89.6 55.7L82.1 66.1L94.3 70Z" fill="#D63AFF"/>
<path fill-rule="evenodd" clip-rule="evenodd" d="M45.7 70L20.1 78.3L24.8 92.6L50.4 84.3L57.9 73.9L45.7 70Z" fill="#D63AFF"/>
<path fill-rule="evenodd" clip-rule="evenodd" d="M50.4 84.3L34.5 106L46.7 114.9L62.5 93.1V80.3L50.4 84.3Z" fill="#FB015B"/>
<path fill-rule="evenodd" clip-rule="evenodd" d="M89.6 55.7L105.5 34L93.3 25.1L77.5 46.9V59.7L89.6 55.7Z" fill="#FB015B"/>
</svg>
