<svg width="273" height="140" viewBox="0 0 273 140" fill="none" xmlns="http://www.w3.org/2000/svg">
<rect width="272.8" height="140" rx="20" fill="black"/>
<path fill-rule="evenodd" clip-rule="evenodd" d="M77.4 46.9V20H62.4V46.9L69.9 57.2L77.4 46.9Z" fill="white"/>
<path fill-rule="evenodd" clip-rule="evenodd" d="M62.4 93.1V120H77.4V93.1L69.9 82.8L62.4 93.1Z" fill="white"/>
<path fill-rule="evenodd" clip-rule="evenodd" d="M77.4 93.1L93.2 114.9L105.4 106L89.5 84.3L77.4 80.3V93.1Z" fill="#00F2E6"/>
<path fill-rule="evenodd" clip-rule="evenodd" d="M62.4 46.9L46.6 25.1L34.4 34L50.3 55.7L62.4 59.7V46.9Z" fill="#00F2E6"/>
<path fill-rule="evenodd" clip-rule="evenodd" d="M50.3 55.7L24.7 47.4L20 61.7L45.6 70L57.8 66.1L50.3 55.7Z" fill="#00B9F1"/>
<path fill-rule="evenodd" clip-rule="evenodd" d="M82 73.9L89.5 84.3L115.1 92.6L119.8 78.3L94.2 70L82 73.9Z" fill="#00B9F1"/>
<path fill-rule="evenodd" clip-rule="evenodd" d="M94.2 70L119.8 61.7L115.1 47.4L89.5 55.7L82 66.1L94.2 70Z" fill="#D63AFF"/>
<path fill-rule="evenodd" clip-rule="evenodd" d="M45.6 70L20 78.3L24.7 92.6L50.3 84.3L57.8 73.9L45.6 70Z" fill="#D63AFF"/>
<path fill-rule="evenodd" clip-rule="evenodd" d="M50.3 84.3L34.4 106L46.6 114.9L62.4 93.1V80.3L50.3 84.3Z" fill="#FB015B"/>
<path fill-rule="evenodd" clip-rule="evenodd" d="M89.5 55.7L105.4 34L93.2 25.1L77.4 46.9V59.7L89.5 55.7Z" fill="#FB015B"/>
<path d="M165.748 53.2727H172.588V76.0923C172.588 78.2017 172.114 80.0341 171.165 81.5895C170.228 83.1449 168.923 84.3434 167.25 85.185C165.578 86.0266 163.633 86.4474 161.418 86.4474C159.447 86.4474 157.657 86.1012 156.048 85.4087C154.45 84.7056 153.182 83.6403 152.245 82.2127C151.307 80.7745 150.844 78.9687 150.855 76.7955H157.742C157.763 77.6584 157.939 78.3988 158.269 79.0167C158.61 79.6239 159.074 80.0927 159.66 80.4229C160.256 80.7425 160.959 80.9023 161.769 80.9023C162.621 80.9023 163.34 80.7212 163.926 80.359C164.523 79.9862 164.976 79.4428 165.285 78.729C165.594 78.0153 165.748 77.1364 165.748 76.0923V53.2727ZM185.675 86L176.311 53.2727H183.87L189.287 76.0124H189.559L195.535 53.2727H202.007L207.968 76.0604H208.255L213.673 53.2727H221.231L211.867 86H205.123L198.891 64.6026H198.635L192.419 86H185.675ZM223.688 58.9776V53.2727H250.567V58.9776H240.547V86H233.708V58.9776H223.688Z" fill="white"/>
</svg>
