<svg width="140" height="140" viewBox="0 0 140 140" fill="none" xmlns="http://www.w3.org/2000/svg">
<rect width="140" height="140" rx="20" fill="#326DE6"/>
<path d="M111.252 43.1666C110.68 41.3369 109.308 39.8503 107.592 38.9354L72.7143 22.2397C71.7994 21.7823 70.7702 21.668 69.8554 21.668C68.9406 21.668 67.9114 21.668 66.9965 21.8967L32.1184 38.7067C30.4031 39.5072 29.1452 40.9938 28.6878 42.9379L20.1112 80.5605C19.7681 82.5045 20.2255 84.4485 21.3691 86.0495L45.4979 115.896C46.8702 117.268 48.8142 118.183 50.7582 118.297H89.1813C91.2397 118.526 93.1837 117.611 94.4416 115.896L118.571 86.0495C119.714 84.4485 120.172 82.5045 119.943 80.5605L111.252 43.1666Z" fill="white"/>
<path d="M105.877 79.0739C105.763 79.0739 105.648 79.0739 105.648 78.9595C105.648 78.8452 105.42 78.8452 105.191 78.8452C104.733 78.7308 104.276 78.7308 103.819 78.7308C103.59 78.7308 103.361 78.7308 103.132 78.6165H103.018C101.76 78.5021 100.388 78.2734 99.1301 77.9303C98.787 77.816 98.444 77.4729 98.3296 77.1299L97.4148 76.9012C97.8722 73.5849 97.6435 70.1542 96.9574 66.838C96.1569 63.5217 94.7846 60.3198 92.955 57.4609L93.6411 56.7748V56.6604C93.6411 56.3174 93.7554 55.8599 93.9842 55.6312C95.0133 54.7164 96.0425 54.0303 97.1861 53.3441C97.4148 53.2298 97.6435 53.1154 97.8722 53.0011C98.3296 52.7724 98.6727 52.5437 99.1301 52.315C99.2445 52.2006 99.3588 52.2006 99.4732 52.0862C99.5875 51.9719 99.4732 51.9719 99.4732 51.8575C100.502 51.0571 100.731 49.6848 99.9306 48.6556C99.5875 48.1982 98.9014 47.8551 98.3296 47.8551C97.7579 47.8551 97.1861 48.0838 96.7287 48.4269L96.6143 48.5413C96.5 48.6556 96.3856 48.77 96.2712 48.77C95.9282 49.113 95.5851 49.4561 95.3564 49.7992C95.2421 50.0279 95.0134 50.1422 94.899 50.2566C94.0985 51.1714 93.0693 52.0862 92.0401 52.7724C91.8114 52.8867 91.5827 53.0011 91.354 53.0011C91.2397 53.0011 91.011 53.0011 90.8966 52.8867H90.7822L89.8674 53.4585C88.9526 52.5437 87.9234 51.6288 87.0085 50.714C82.7774 47.3977 77.5171 45.3393 72.1425 44.7676L72.0281 43.8527V43.9671C71.6851 43.7384 71.5707 43.3953 71.4563 43.0522C71.4563 41.7943 71.4563 40.5364 71.6851 39.1642V39.0498C71.6851 38.8211 71.7994 38.5924 71.7994 38.3637C71.9138 37.9063 71.9138 37.4489 72.0281 36.9915V36.3053C72.1425 35.1618 71.2276 34.0182 70.0841 33.9039C69.398 33.7895 68.7118 34.1326 68.1401 34.7044C67.6826 35.1618 67.4539 35.7336 67.4539 36.3053V36.8771C67.4539 37.3345 67.5683 37.7919 67.6826 38.2494C67.797 38.4781 67.797 38.7068 67.797 38.9355V39.0498C68.0257 40.3077 68.0257 41.5656 68.0257 42.9379C67.9114 43.281 67.797 43.624 67.4539 43.8527V44.0814L67.3396 44.9963C66.0817 45.1106 64.8238 45.3393 63.4515 45.568C58.0769 46.7116 53.1596 49.5704 49.3859 53.5729L48.6998 53.1154H48.5855C48.4711 53.1154 48.3568 53.2298 48.128 53.2298C47.8993 53.2298 47.6706 53.1154 47.4419 53.0011C46.4127 52.2006 45.3835 51.2858 44.5831 50.3709C44.4687 50.1422 44.24 50.0279 44.1256 49.9135C43.7826 49.5704 43.5539 49.2274 43.2108 48.8843C43.0964 48.77 42.9821 48.77 42.8677 48.6556C42.7534 48.5413 42.7534 48.5413 42.7534 48.5413C42.296 48.1982 41.7242 47.9695 41.1524 47.9695C40.4663 47.9695 39.8945 48.1982 39.5515 48.77C38.8653 49.7992 39.094 51.1714 40.0089 51.9719C40.1232 51.9719 40.1232 52.0862 40.1232 52.0862C40.1232 52.0862 40.3519 52.315 40.4663 52.315C40.8094 52.5437 41.2668 52.7724 41.7242 53.0011C41.9529 53.1154 42.1816 53.2298 42.4103 53.3441C43.5539 54.0303 44.6974 54.7164 45.6122 55.6312C45.841 55.8599 46.0697 56.3174 45.9553 56.6604V56.5461L46.6414 57.2322C46.5271 57.4609 46.4127 57.5753 46.2984 57.804C42.7534 63.4073 41.2668 70.0399 42.296 76.5581L41.3811 76.7868C41.3811 76.9012 41.2668 76.9012 41.2668 76.9012C41.1524 77.2442 40.8094 77.4729 40.4663 77.7016C39.2084 78.0447 37.9505 78.2734 36.5782 78.3878C36.3495 78.3878 36.1208 78.3878 35.8921 78.5021C35.4347 78.5021 34.9773 78.6165 34.5199 78.6165C34.4055 78.6165 34.2912 78.7308 34.0625 78.7308C33.9481 78.7308 33.9481 78.7308 33.8337 78.8452C32.5758 79.0739 31.7754 80.2174 32.0041 81.4753C32.2328 82.5045 33.262 83.1906 34.2912 83.0763C34.5199 83.0763 34.6342 83.0763 34.8629 82.9619C34.9773 82.9619 34.9773 82.9619 34.9773 82.8476C34.9773 82.7332 35.3204 82.8476 35.4347 82.8476C35.8921 82.7332 36.3495 82.5045 36.6926 82.3902C36.9213 82.2758 37.15 82.1615 37.3787 82.1615H37.4931C38.751 81.704 39.8945 81.361 41.2668 81.1323H41.3811C41.7242 81.1323 42.0673 81.2466 42.296 81.4753C42.4103 81.4753 42.4103 81.5897 42.4103 81.5897L43.4395 81.4753C45.1548 86.7356 48.3568 91.4242 52.8166 94.8548C53.8458 95.6553 54.7606 96.3414 55.9041 96.9132L55.3324 97.7137C55.3324 97.828 55.4467 97.828 55.4467 97.828C55.6754 98.1711 55.6754 98.6285 55.5611 98.9716C55.1037 100.115 54.4175 101.259 53.7314 102.288V102.402C53.6171 102.631 53.5027 102.745 53.274 102.974C53.0453 103.203 52.8166 103.66 52.4735 104.118C52.3592 104.232 52.3592 104.346 52.2448 104.461C52.2448 104.461 52.2448 104.575 52.1304 104.575C51.5587 105.719 52.0161 107.091 53.0453 107.663C53.274 107.777 53.6171 107.891 53.8458 107.891C54.7606 107.891 55.5611 107.319 56.0185 106.519C56.0185 106.519 56.0185 106.405 56.1329 106.405C56.1329 106.29 56.2472 106.176 56.3616 106.062C56.4759 105.604 56.7046 105.261 56.819 104.804L57.0477 104.118C57.3908 102.86 57.9625 101.716 58.5343 100.573C58.763 100.229 59.1061 100.001 59.4491 99.8864C59.5635 99.8864 59.5635 99.8864 59.5635 99.772L60.0209 98.8572C63.2228 100.115 66.5391 100.687 69.9697 100.687C72.0281 100.687 74.0865 100.458 76.1449 99.8864C77.4028 99.6577 78.6607 99.2003 79.8042 98.8572L80.2616 99.6577C80.376 99.6577 80.376 99.6577 80.376 99.772C80.719 99.8864 81.0621 100.115 81.2908 100.458C81.8626 101.602 82.4344 102.745 82.7774 104.003V104.118L83.0061 104.804C83.1205 105.261 83.2349 105.719 83.4636 106.062C83.5779 106.176 83.5779 106.29 83.6923 106.405C83.6923 106.405 83.6923 106.519 83.8066 106.519C84.264 107.319 85.0645 107.891 85.9794 107.891C86.3224 107.891 86.5511 107.777 86.8942 107.663C87.3516 107.434 87.809 106.976 87.9234 106.405C88.0377 105.833 88.0377 105.261 87.809 104.689C87.809 104.575 87.6947 104.575 87.6947 104.575C87.6947 104.461 87.5803 104.346 87.466 104.232C87.2373 103.774 87.0085 103.431 86.6655 103.088C86.5511 102.86 86.4368 102.745 86.2081 102.517V102.288C85.4076 101.259 84.8358 100.115 84.3784 98.9716C84.264 98.6285 84.264 98.1711 84.4928 97.828C84.4928 97.7137 84.6071 97.7137 84.6071 97.7137L84.264 96.7988C90.0961 93.2538 94.5559 87.7648 96.6143 81.2466L97.5292 81.361C97.6435 81.361 97.6435 81.2466 97.6435 81.2466C97.8722 81.0179 98.2153 80.9036 98.5583 80.9036H98.6727C99.9306 81.1323 101.188 81.4753 102.332 81.9327H102.446C102.675 82.0471 102.904 82.1615 103.132 82.1615C103.59 82.3902 103.933 82.6189 104.39 82.7332C104.505 82.7332 104.619 82.8476 104.848 82.8476C104.962 82.8476 104.962 82.8476 105.076 82.9619C105.305 83.0763 105.42 83.0763 105.648 83.0763C106.677 83.0763 107.592 82.3902 107.935 81.4753C107.821 80.2174 106.906 79.3026 105.877 79.0739ZM72.8286 75.5289L69.741 77.0155L66.6535 75.5289L65.853 72.2126L68.0257 69.4681H71.4563L73.6291 72.2126L72.8286 75.5289ZM91.4684 68.0959C92.0401 70.4973 92.1545 72.8987 91.9258 75.3002L81.0621 72.2126C80.0329 71.9839 79.4612 70.9547 79.6899 69.9255C79.8042 69.5825 79.9186 69.3538 80.1473 69.1251L88.7239 61.349C89.9818 63.4073 90.8966 65.6944 91.4684 68.0959ZM85.2932 57.1178L75.9162 63.7504C75.1157 64.2078 73.9721 64.0935 73.4004 63.293C73.1717 63.0643 73.0573 62.8356 73.0573 62.4925L72.3712 50.9427C77.4028 51.5145 81.8626 53.6872 85.2932 57.1178ZM64.5951 51.2858L66.8822 50.8283L66.3104 62.2638C66.3104 63.293 65.3956 64.0935 64.3664 64.0935C64.0233 64.0935 63.7946 63.9791 63.4515 63.8648L53.9601 57.1178C56.9333 54.259 60.5927 52.2006 64.5951 51.2858ZM50.6438 61.349L59.1061 68.8963C59.9065 69.5825 60.0209 70.726 59.3348 71.5265C59.1061 71.8696 58.8774 71.9839 58.4199 72.0983L47.3276 75.3002C46.9845 70.4973 48.128 65.5801 50.6438 61.349ZM48.6998 80.6748L60.0209 78.7308C60.9357 78.7308 61.8506 79.3026 61.9649 80.2174C62.0793 80.5605 62.0793 81.0179 61.8506 81.361L57.5051 91.8816C53.5027 89.2514 50.3008 85.249 48.6998 80.6748ZM74.6583 94.8548C73.0573 95.1979 71.4563 95.4266 69.741 95.4266C67.3396 95.4266 64.8238 94.9691 62.5367 94.283L68.1401 84.1055C68.7118 83.4194 69.6267 83.1906 70.4272 83.6481C70.7702 83.8768 70.9989 84.1055 71.342 84.4485L76.831 94.3974C76.1449 94.5117 75.4587 94.6261 74.6583 94.8548ZM88.6095 84.906C86.8942 87.6505 84.4927 90.0519 81.7482 91.7672L77.2884 81.0179C77.0597 80.1031 77.5171 79.1882 78.3176 78.8452C78.6607 78.7308 79.0037 78.6165 79.3468 78.6165L90.7822 80.5605C90.2105 82.1615 89.5243 83.6481 88.6095 84.906Z" fill="#326DE6"/>
</svg>
