<svg width="140" height="140" viewBox="0 0 140 140" fill="none" xmlns="http://www.w3.org/2000/svg">
<rect width="140" height="140" rx="20" fill="#326DE6"/>
<path d="M111.252 43.1666C110.68 41.3369 109.308 39.8503 107.592 38.9354L72.7144 22.2397C71.7995 21.7823 70.7703 21.668 69.8555 21.668C68.9407 21.668 67.9115 21.668 66.9966 21.8967L32.1185 38.7067C30.4032 39.5072 29.1453 40.9938 28.6879 42.9379L20.1113 80.5605C19.7682 82.5045 20.2257 84.4485 21.3692 86.0495L45.498 115.896C46.8703 117.268 48.8143 118.183 50.7583 118.297H89.1814C91.2398 118.526 93.1838 117.611 94.4417 115.896L118.571 86.0495C119.714 84.4485 120.172 82.5045 119.943 80.5605L111.252 43.1666Z" fill="white"/>
<path d="M105.877 79.0739C105.763 79.0739 105.648 79.0739 105.648 78.9595C105.648 78.8452 105.42 78.8452 105.191 78.8452C104.734 78.7308 104.276 78.7308 103.819 78.7308C103.59 78.7308 103.361 78.7308 103.133 78.6165H103.018C101.76 78.5021 100.388 78.2734 99.1302 77.9303C98.7871 77.816 98.4441 77.4729 98.3297 77.1299L97.4149 76.9012C97.8723 73.5849 97.6436 70.1542 96.9575 66.838C96.157 63.5217 94.7847 60.3198 92.9551 57.4609L93.6412 56.7748V56.6604C93.6412 56.3174 93.7555 55.8599 93.9843 55.6312C95.0134 54.7164 96.0426 54.0303 97.1862 53.3441C97.4149 53.2298 97.6436 53.1154 97.8723 53.0011C98.3297 52.7724 98.6728 52.5437 99.1302 52.315C99.2446 52.2006 99.3589 52.2006 99.4733 52.0862C99.5876 51.9719 99.4733 51.9719 99.4733 51.8575C100.502 51.0571 100.731 49.6848 99.9307 48.6556C99.5876 48.1982 98.9015 47.8551 98.3297 47.8551C97.758 47.8551 97.1862 48.0838 96.7288 48.4269L96.6144 48.5413C96.5001 48.6556 96.3857 48.77 96.2713 48.77C95.9283 49.113 95.5852 49.4561 95.3565 49.7992C95.2422 50.0279 95.0135 50.1422 94.8991 50.2566C94.0986 51.1714 93.0694 52.0862 92.0402 52.7724C91.8115 52.8867 91.5828 53.0011 91.3541 53.0011C91.2398 53.0011 91.0111 53.0011 90.8967 52.8867H90.7823L89.8675 53.4585C88.9527 52.5437 87.9235 51.6288 87.0086 50.714C82.7775 47.3977 77.5172 45.3393 72.1426 44.7676L72.0282 43.8527V43.9671C71.6852 43.7384 71.5708 43.3953 71.4564 43.0522C71.4564 41.7943 71.4564 40.5364 71.6852 39.1642V39.0498C71.6852 38.8211 71.7995 38.5924 71.7995 38.3637C71.9139 37.9063 71.9139 37.4489 72.0282 36.9915V36.3053C72.1426 35.1618 71.2277 34.0182 70.0842 33.9039C69.3981 33.7895 68.7119 34.1326 68.1402 34.7044C67.6827 35.1618 67.454 35.7336 67.454 36.3053V36.8771C67.454 37.3345 67.5684 37.7919 67.6827 38.2494C67.7971 38.4781 67.7971 38.7068 67.7971 38.9355V39.0498C68.0258 40.3077 68.0258 41.5656 68.0258 42.9379C67.9115 43.281 67.7971 43.624 67.454 43.8527V44.0814L67.3397 44.9963C66.0818 45.1106 64.8239 45.3393 63.4516 45.568C58.077 46.7116 53.1597 49.5704 49.386 53.5729L48.6999 53.1154H48.5856C48.4712 53.1154 48.3569 53.2298 48.1281 53.2298C47.8994 53.2298 47.6707 53.1154 47.442 53.0011C46.4128 52.2006 45.3836 51.2858 44.5832 50.3709C44.4688 50.1422 44.2401 50.0279 44.1257 49.9135C43.7827 49.5704 43.554 49.2274 43.2109 48.8843C43.0965 48.77 42.9822 48.77 42.8678 48.6556C42.7535 48.5413 42.7535 48.5413 42.7535 48.5413C42.2961 48.1982 41.7243 47.9695 41.1525 47.9695C40.4664 47.9695 39.8946 48.1982 39.5516 48.77C38.8654 49.7992 39.0941 51.1714 40.009 51.9719C40.1233 51.9719 40.1233 52.0862 40.1233 52.0862C40.1233 52.0862 40.352 52.315 40.4664 52.315C40.8095 52.5437 41.2669 52.7724 41.7243 53.0011C41.953 53.1154 42.1817 53.2298 42.4104 53.3441C43.554 54.0303 44.6975 54.7164 45.6123 55.6312C45.8411 55.8599 46.0698 56.3174 45.9554 56.6604V56.5461L46.6415 57.2322C46.5272 57.4609 46.4128 57.5753 46.2985 57.804C42.7535 63.4073 41.2669 70.0399 42.2961 76.5581L41.3812 76.7868C41.3812 76.9012 41.2669 76.9012 41.2669 76.9012C41.1525 77.2442 40.8095 77.4729 40.4664 77.7016C39.2085 78.0447 37.9506 78.2734 36.5783 78.3878C36.3496 78.3878 36.1209 78.3878 35.8922 78.5021C35.4348 78.5021 34.9774 78.6165 34.52 78.6165C34.4056 78.6165 34.2913 78.7308 34.0626 78.7308C33.9482 78.7308 33.9482 78.7308 33.8338 78.8452C32.5759 79.0739 31.7755 80.2174 32.0042 81.4753C32.2329 82.5045 33.2621 83.1906 34.2913 83.0763C34.52 83.0763 34.6343 83.0763 34.863 82.9619C34.9774 82.9619 34.9774 82.9619 34.9774 82.8476C34.9774 82.7332 35.3205 82.8476 35.4348 82.8476C35.8922 82.7332 36.3496 82.5045 36.6927 82.3902C36.9214 82.2758 37.1501 82.1615 37.3788 82.1615H37.4932C38.7511 81.704 39.8946 81.361 41.2669 81.1323H41.3812C41.7243 81.1323 42.0674 81.2466 42.2961 81.4753C42.4104 81.4753 42.4104 81.5897 42.4104 81.5897L43.4396 81.4753C45.1549 86.7356 48.3569 91.4242 52.8167 94.8548C53.8459 95.6553 54.7607 96.3414 55.9042 96.9132L55.3325 97.7137C55.3325 97.828 55.4468 97.828 55.4468 97.828C55.6755 98.1711 55.6755 98.6285 55.5612 98.9716C55.1038 100.115 54.4176 101.259 53.7315 102.288V102.402C53.6172 102.631 53.5028 102.745 53.2741 102.974C53.0454 103.203 52.8167 103.66 52.4736 104.118C52.3593 104.232 52.3593 104.346 52.2449 104.461C52.2449 104.461 52.2449 104.575 52.1305 104.575C51.5588 105.719 52.0162 107.091 53.0454 107.663C53.2741 107.777 53.6172 107.891 53.8459 107.891C54.7607 107.891 55.5612 107.319 56.0186 106.519C56.0186 106.519 56.0186 106.405 56.133 106.405C56.133 106.29 56.2473 106.176 56.3617 106.062C56.476 105.604 56.7047 105.261 56.8191 104.804L57.0478 104.118C57.3909 102.86 57.9626 101.716 58.5344 100.573C58.7631 100.229 59.1062 100.001 59.4492 99.8864C59.5636 99.8864 59.5636 99.8864 59.5636 99.772L60.021 98.8572C63.2229 100.115 66.5392 100.687 69.9698 100.687C72.0282 100.687 74.0866 100.458 76.145 99.8864C77.4029 99.6577 78.6608 99.2003 79.8043 98.8572L80.2617 99.6577C80.3761 99.6577 80.3761 99.6577 80.3761 99.772C80.7191 99.8864 81.0622 100.115 81.2909 100.458C81.8627 101.602 82.4345 102.745 82.7775 104.003V104.118L83.0062 104.804C83.1206 105.261 83.235 105.719 83.4637 106.062C83.578 106.176 83.578 106.29 83.6924 106.405C83.6924 106.405 83.6924 106.519 83.8067 106.519C84.2641 107.319 85.0646 107.891 85.9795 107.891C86.3225 107.891 86.5512 107.777 86.8943 107.663C87.3517 107.434 87.8091 106.976 87.9235 106.405C88.0378 105.833 88.0378 105.261 87.8091 104.689C87.8091 104.575 87.6948 104.575 87.6948 104.575C87.6948 104.461 87.5804 104.346 87.4661 104.232C87.2374 103.774 87.0086 103.431 86.6656 103.088C86.5512 102.86 86.4369 102.745 86.2082 102.517V102.288C85.4077 101.259 84.8359 100.115 84.3785 98.9716C84.2641 98.6285 84.2641 98.1711 84.4929 97.828C84.4929 97.7137 84.6072 97.7137 84.6072 97.7137L84.2641 96.7988C90.0962 93.2538 94.556 87.7648 96.6144 81.2466L97.5293 81.361C97.6436 81.361 97.6436 81.2466 97.6436 81.2466C97.8723 81.0179 98.2154 80.9036 98.5584 80.9036H98.6728C99.9307 81.1323 101.189 81.4753 102.332 81.9327H102.446C102.675 82.0471 102.904 82.1615 103.133 82.1615C103.59 82.3902 103.933 82.6189 104.39 82.7332C104.505 82.7332 104.619 82.8476 104.848 82.8476C104.962 82.8476 104.962 82.8476 105.077 82.9619C105.305 83.0763 105.42 83.0763 105.648 83.0763C106.678 83.0763 107.592 82.3902 107.935 81.4753C107.821 80.2174 106.906 79.3026 105.877 79.0739ZM72.8287 75.5289L69.7411 77.0155L66.6536 75.5289L65.8531 72.2126L68.0258 69.4681H71.4564L73.6292 72.2126L72.8287 75.5289ZM91.4685 68.0959C92.0402 70.4973 92.1546 72.8987 91.9259 75.3002L81.0622 72.2126C80.033 71.9839 79.4613 70.9547 79.69 69.9255C79.8043 69.5825 79.9187 69.3538 80.1474 69.1251L88.724 61.349C89.9819 63.4073 90.8967 65.6944 91.4685 68.0959ZM85.2933 57.1178L75.9163 63.7504C75.1158 64.2078 73.9722 64.0935 73.4005 63.293C73.1718 63.0643 73.0574 62.8356 73.0574 62.4925L72.3713 50.9427C77.4029 51.5145 81.8627 53.6872 85.2933 57.1178ZM64.5952 51.2858L66.8823 50.8283L66.3105 62.2638C66.3105 63.293 65.3957 64.0935 64.3665 64.0935C64.0234 64.0935 63.7947 63.9791 63.4516 63.8648L53.9602 57.1178C56.9334 54.259 60.5928 52.2006 64.5952 51.2858ZM50.6439 61.349L59.1062 68.8963C59.9066 69.5825 60.021 70.726 59.3349 71.5265C59.1062 71.8696 58.8775 71.9839 58.42 72.0983L47.3277 75.3002C46.9846 70.4973 48.1281 65.5801 50.6439 61.349ZM48.6999 80.6748L60.021 78.7308C60.9358 78.7308 61.8507 79.3026 61.965 80.2174C62.0794 80.5605 62.0794 81.0179 61.8507 81.361L57.5052 91.8816C53.5028 89.2514 50.3009 85.249 48.6999 80.6748ZM74.6584 94.8548C73.0574 95.1979 71.4564 95.4266 69.7411 95.4266C67.3397 95.4266 64.8239 94.9691 62.5368 94.283L68.1402 84.1055C68.7119 83.4194 69.6268 83.1906 70.4273 83.6481C70.7703 83.8768 70.999 84.1055 71.3421 84.4485L76.8311 94.3974C76.145 94.5117 75.4588 94.6261 74.6584 94.8548ZM88.6096 84.906C86.8943 87.6505 84.4928 90.0519 81.7483 91.7672L77.2885 81.0179C77.0598 80.1031 77.5172 79.1882 78.3177 78.8452C78.6608 78.7308 79.0038 78.6165 79.3469 78.6165L90.7823 80.5605C90.2106 82.1615 89.5244 83.6481 88.6096 84.906Z" fill="#326DE6"/>
</svg>
