<svg width="426" height="140" viewBox="0 0 426 140" fill="none" xmlns="http://www.w3.org/2000/svg">
<rect width="426" height="140" rx="20" fill="#326DE6"/>
<path d="M111.252 43.1666C110.68 41.3369 109.308 39.8503 107.593 38.9354L72.7145 22.2397C71.7996 21.7823 70.7704 21.668 69.8556 21.668C68.9408 21.668 67.9116 21.668 66.9967 21.8967L32.1186 38.7067C30.4033 39.5072 29.1454 40.9938 28.688 42.9379L20.1114 80.5605C19.7684 82.5045 20.2258 84.4485 21.3693 86.0495L45.4981 115.896C46.8704 117.268 48.8144 118.183 50.7584 118.297H89.1815C91.2399 118.526 93.1839 117.611 94.4418 115.896L118.571 86.0495C119.714 84.4485 120.172 82.5045 119.943 80.5605L111.252 43.1666Z" fill="white"/>
<path d="M105.877 79.0739C105.763 79.0739 105.649 79.0739 105.649 78.9595C105.649 78.8452 105.42 78.8452 105.191 78.8452C104.734 78.7308 104.276 78.7308 103.819 78.7308C103.59 78.7308 103.361 78.7308 103.133 78.6165H103.018C101.761 78.5021 100.388 78.2734 99.1303 77.9303C98.7872 77.816 98.4442 77.4729 98.3298 77.1299L97.415 76.9012C97.8724 73.5849 97.6437 70.1542 96.9576 66.838C96.1571 63.5217 94.7848 60.3198 92.9552 57.4609L93.6413 56.7748V56.6604C93.6413 56.3174 93.7556 55.8599 93.9844 55.6312C95.0135 54.7164 96.0427 54.0303 97.1863 53.3441C97.415 53.2298 97.6437 53.1154 97.8724 53.0011C98.3298 52.7724 98.6729 52.5437 99.1303 52.315C99.2447 52.2006 99.359 52.2006 99.4734 52.0862C99.5877 51.9719 99.4734 51.9719 99.4734 51.8575C100.503 51.0571 100.731 49.6848 99.9308 48.6556C99.5877 48.1982 98.9016 47.8551 98.3298 47.8551C97.7581 47.8551 97.1863 48.0838 96.7289 48.4269L96.6145 48.5413C96.5002 48.6556 96.3858 48.77 96.2714 48.77C95.9284 49.113 95.5853 49.4561 95.3566 49.7992C95.2423 50.0279 95.0136 50.1422 94.8992 50.2566C94.0987 51.1714 93.0695 52.0862 92.0403 52.7724C91.8116 52.8867 91.5829 53.0011 91.3542 53.0011C91.2399 53.0011 91.0112 53.0011 90.8968 52.8867H90.7824L89.8676 53.4585C88.9528 52.5437 87.9236 51.6288 87.0087 50.714C82.7776 47.3977 77.5173 45.3393 72.1427 44.7676L72.0283 43.8527V43.9671C71.6853 43.7384 71.5709 43.3953 71.4565 43.0522C71.4565 41.7943 71.4565 40.5364 71.6853 39.1642V39.0498C71.6853 38.8211 71.7996 38.5924 71.7996 38.3637C71.914 37.9063 71.914 37.4489 72.0283 36.9915V36.3053C72.1427 35.1618 71.2278 34.0182 70.0843 33.9039C69.3982 33.7895 68.712 34.1326 68.1403 34.7044C67.6828 35.1618 67.4541 35.7336 67.4541 36.3053V36.8771C67.4541 37.3345 67.5685 37.7919 67.6828 38.2494C67.7972 38.4781 67.7972 38.7068 67.7972 38.9355V39.0498C68.0259 40.3077 68.0259 41.5656 68.0259 42.9379C67.9116 43.281 67.7972 43.624 67.4541 43.8527V44.0814L67.3398 44.9963C66.0819 45.1106 64.824 45.3393 63.4517 45.568C58.0771 46.7116 53.1598 49.5704 49.3861 53.5729L48.7 53.1154H48.5857C48.4713 53.1154 48.357 53.2298 48.1282 53.2298C47.8995 53.2298 47.6708 53.1154 47.4421 53.0011C46.4129 52.2006 45.3837 51.2858 44.5833 50.3709C44.4689 50.1422 44.2402 50.0279 44.1258 49.9135C43.7828 49.5704 43.5541 49.2274 43.211 48.8843C43.0966 48.77 42.9823 48.77 42.8679 48.6556C42.7536 48.5413 42.7536 48.5413 42.7536 48.5413C42.2962 48.1982 41.7244 47.9695 41.1526 47.9695C40.4665 47.9695 39.8947 48.1982 39.5517 48.77C38.8655 49.7992 39.0942 51.1714 40.0091 51.9719C40.1234 51.9719 40.1234 52.0862 40.1234 52.0862C40.1234 52.0862 40.3521 52.315 40.4665 52.315C40.8096 52.5437 41.267 52.7724 41.7244 53.0011C41.9531 53.1154 42.1818 53.2298 42.4105 53.3441C43.5541 54.0303 44.6976 54.7164 45.6124 55.6312C45.8412 55.8599 46.0699 56.3174 45.9555 56.6604V56.5461L46.6416 57.2322C46.5273 57.4609 46.4129 57.5753 46.2986 57.804C42.7536 63.4073 41.267 70.0399 42.2962 76.5581L41.3813 76.7868C41.3813 76.9012 41.267 76.9012 41.267 76.9012C41.1526 77.2442 40.8096 77.4729 40.4665 77.7016C39.2086 78.0447 37.9507 78.2734 36.5784 78.3878C36.3497 78.3878 36.121 78.3878 35.8923 78.5021C35.4349 78.5021 34.9775 78.6165 34.5201 78.6165C34.4057 78.6165 34.2914 78.7308 34.0627 78.7308C33.9483 78.7308 33.9483 78.7308 33.8339 78.8452C32.576 79.0739 31.7756 80.2174 32.0043 81.4753C32.233 82.5045 33.2622 83.1906 34.2914 83.0763C34.5201 83.0763 34.6344 83.0763 34.8631 82.9619C34.9775 82.9619 34.9775 82.9619 34.9775 82.8476C34.9775 82.7332 35.3206 82.8476 35.4349 82.8476C35.8923 82.7332 36.3497 82.5045 36.6928 82.3902C36.9215 82.2758 37.1502 82.1615 37.3789 82.1615H37.4933C38.7512 81.704 39.8947 81.361 41.267 81.1323H41.3813C41.7244 81.1323 42.0675 81.2466 42.2962 81.4753C42.4105 81.4753 42.4105 81.5897 42.4105 81.5897L43.4397 81.4753C45.155 86.7356 48.357 91.4242 52.8168 94.8548C53.846 95.6553 54.7608 96.3414 55.9043 96.9132L55.3326 97.7137C55.3326 97.828 55.4469 97.828 55.4469 97.828C55.6756 98.1711 55.6756 98.6285 55.5613 98.9716C55.1039 100.115 54.4177 101.259 53.7316 102.288V102.402C53.6173 102.631 53.5029 102.745 53.2742 102.974C53.0455 103.203 52.8168 103.66 52.4737 104.118C52.3594 104.232 52.3594 104.346 52.245 104.461C52.245 104.461 52.245 104.575 52.1306 104.575C51.5589 105.719 52.0163 107.091 53.0455 107.663C53.2742 107.777 53.6173 107.891 53.846 107.891C54.7608 107.891 55.5613 107.319 56.0187 106.519C56.0187 106.519 56.0187 106.405 56.1331 106.405C56.1331 106.29 56.2474 106.176 56.3618 106.062C56.4761 105.604 56.7048 105.261 56.8192 104.804L57.0479 104.118C57.391 102.86 57.9627 101.716 58.5345 100.573C58.7632 100.229 59.1063 100.001 59.4493 99.8864C59.5637 99.8864 59.5637 99.8864 59.5637 99.772L60.0211 98.8572C63.223 100.115 66.5393 100.687 69.9699 100.687C72.0283 100.687 74.0867 100.458 76.1451 99.8864C77.403 99.6577 78.6609 99.2003 79.8044 98.8572L80.2618 99.6577C80.3762 99.6577 80.3762 99.6577 80.3762 99.772C80.7192 99.8864 81.0623 100.115 81.291 100.458C81.8628 101.602 82.4346 102.745 82.7776 104.003V104.118L83.0063 104.804C83.1207 105.261 83.2351 105.719 83.4638 106.062C83.5781 106.176 83.5781 106.29 83.6925 106.405C83.6925 106.405 83.6925 106.519 83.8068 106.519C84.2642 107.319 85.0647 107.891 85.9796 107.891C86.3226 107.891 86.5513 107.777 86.8944 107.663C87.3518 107.434 87.8092 106.976 87.9236 106.405C88.0379 105.833 88.0379 105.261 87.8092 104.689C87.8092 104.575 87.6949 104.575 87.6949 104.575C87.6949 104.461 87.5805 104.346 87.4662 104.232C87.2375 103.774 87.0087 103.431 86.6657 103.088C86.5513 102.86 86.437 102.745 86.2083 102.517V102.288C85.4078 101.259 84.836 100.115 84.3786 98.9716C84.2642 98.6285 84.2642 98.1711 84.493 97.828C84.493 97.7137 84.6073 97.7137 84.6073 97.7137L84.2642 96.7988C90.0963 93.2538 94.5561 87.7648 96.6145 81.2466L97.5294 81.361C97.6437 81.361 97.6437 81.2466 97.6437 81.2466C97.8724 81.0179 98.2155 80.9036 98.5585 80.9036H98.6729C99.9308 81.1323 101.189 81.4753 102.332 81.9327H102.447C102.675 82.0471 102.904 82.1615 103.133 82.1615C103.59 82.3902 103.933 82.6189 104.391 82.7332C104.505 82.7332 104.619 82.8476 104.848 82.8476C104.962 82.8476 104.962 82.8476 105.077 82.9619C105.306 83.0763 105.42 83.0763 105.649 83.0763C106.678 83.0763 107.593 82.3902 107.936 81.4753C107.821 80.2174 106.906 79.3026 105.877 79.0739ZM72.8288 75.5289L69.7412 77.0155L66.6537 75.5289L65.8532 72.2126L68.0259 69.4681H71.4565L73.6293 72.2126L72.8288 75.5289ZM91.4686 68.0959C92.0403 70.4973 92.1547 72.8987 91.926 75.3002L81.0623 72.2126C80.0331 71.9839 79.4614 70.9547 79.6901 69.9255C79.8044 69.5825 79.9188 69.3538 80.1475 69.1251L88.7241 61.349C89.982 63.4073 90.8968 65.6944 91.4686 68.0959ZM85.2934 57.1178L75.9164 63.7504C75.1159 64.2078 73.9723 64.0935 73.4006 63.293C73.1719 63.0643 73.0575 62.8356 73.0575 62.4925L72.3714 50.9427C77.403 51.5145 81.8628 53.6872 85.2934 57.1178ZM64.5953 51.2858L66.8824 50.8283L66.3106 62.2638C66.3106 63.293 65.3958 64.0935 64.3666 64.0935C64.0235 64.0935 63.7948 63.9791 63.4517 63.8648L53.9603 57.1178C56.9335 54.259 60.5929 52.2006 64.5953 51.2858ZM50.644 61.349L59.1063 68.8963C59.9067 69.5825 60.0211 70.726 59.335 71.5265C59.1063 71.8696 58.8776 71.9839 58.4201 72.0983L47.3278 75.3002C46.9847 70.4973 48.1282 65.5801 50.644 61.349ZM48.7 80.6748L60.0211 78.7308C60.9359 78.7308 61.8508 79.3026 61.9651 80.2174C62.0795 80.5605 62.0795 81.0179 61.8508 81.361L57.5053 91.8816C53.5029 89.2514 50.301 85.249 48.7 80.6748ZM74.6585 94.8548C73.0575 95.1979 71.4565 95.4266 69.7412 95.4266C67.3398 95.4266 64.824 94.9691 62.5369 94.283L68.1403 84.1055C68.712 83.4194 69.6269 83.1906 70.4274 83.6481C70.7704 83.8768 70.9991 84.1055 71.3422 84.4485L76.8312 94.3974C76.1451 94.5117 75.4589 94.6261 74.6585 94.8548ZM88.6097 84.906C86.8944 87.6505 84.4929 90.0519 81.7484 91.7672L77.2886 81.0179C77.0599 80.1031 77.5173 79.1882 78.3178 78.8452C78.6609 78.7308 79.0039 78.6165 79.347 78.6165L90.7824 80.5605C90.2107 82.1615 89.5245 83.6481 88.6097 84.906Z" fill="#326DE6"/>
<path d="M152.845 86V53.2727H159.764V67.7028H160.196L171.973 53.2727H180.267L168.122 67.9265L180.411 86H172.133L163.168 72.5447L159.764 76.6996V86H152.845ZM197.945 75.549V61.4545H204.752V86H198.216V81.5415H197.961C197.407 82.9798 196.485 84.1357 195.196 85.0092C193.918 85.8828 192.357 86.3196 190.514 86.3196C188.873 86.3196 187.43 85.9467 186.183 85.201C184.937 84.4553 183.962 83.3952 183.259 82.021C182.567 80.6467 182.215 79.0007 182.204 77.0831V61.4545H189.012V75.8686C189.023 77.3175 189.411 78.4627 190.178 79.3043C190.946 80.146 191.974 80.5668 193.263 80.5668C194.083 80.5668 194.85 80.3803 195.564 80.0075C196.278 79.6239 196.853 79.0593 197.29 78.3136C197.737 77.5678 197.955 76.6463 197.945 75.549ZM210.325 86V53.2727H217.133V65.5774H217.341C217.639 64.9169 218.07 64.2457 218.635 63.5639C219.21 62.8714 219.956 62.2962 220.872 61.8381C221.799 61.3693 222.95 61.1349 224.324 61.1349C226.114 61.1349 227.765 61.6037 229.278 62.5412C230.791 63.468 232 64.869 232.905 66.744C233.811 68.6083 234.264 70.9467 234.264 73.7592C234.264 76.4972 233.822 78.8089 232.937 80.6946C232.064 82.5696 230.871 83.9918 229.358 84.9613C227.856 85.9201 226.172 86.3995 224.308 86.3995C222.987 86.3995 221.863 86.1811 220.936 85.7443C220.02 85.3075 219.269 84.7589 218.683 84.0984C218.097 83.4272 217.65 82.7507 217.341 82.0689H217.037V86H210.325ZM216.989 73.7273C216.989 75.1868 217.192 76.4599 217.596 77.5465C218.001 78.6332 218.587 79.4801 219.354 80.0874C220.121 80.6839 221.053 80.9822 222.151 80.9822C223.259 80.9822 224.196 80.6786 224.963 80.0714C225.73 79.4535 226.311 78.6012 226.705 77.5146C227.11 76.4173 227.312 75.1548 227.312 73.7273C227.312 72.3104 227.115 71.0639 226.721 69.9879C226.327 68.9119 225.746 68.0703 224.979 67.4631C224.212 66.8558 223.269 66.5522 222.151 66.5522C221.043 66.5522 220.105 66.8452 219.338 67.4311C218.582 68.017 218.001 68.848 217.596 69.924C217.192 71 216.989 72.2678 216.989 73.7273ZM249.992 86.4794C247.467 86.4794 245.294 85.968 243.472 84.9453C241.661 83.9119 240.265 82.4524 239.285 80.5668C238.305 78.6705 237.815 76.4279 237.815 73.8391C237.815 71.3143 238.305 69.0984 239.285 67.1914C240.265 65.2844 241.645 63.7983 243.424 62.733C245.214 61.6676 247.313 61.1349 249.72 61.1349C251.34 61.1349 252.847 61.396 254.243 61.918C255.649 62.4293 256.874 63.2017 257.918 64.2351C258.973 65.2685 259.793 66.5682 260.379 68.1342C260.965 69.6896 261.258 71.5114 261.258 73.5994V75.4691H240.532V71.2504H254.85C254.85 70.2702 254.637 69.402 254.211 68.6456C253.785 67.8892 253.193 67.2979 252.437 66.8718C251.691 66.435 250.823 66.2166 249.832 66.2166C248.799 66.2166 247.883 66.4563 247.084 66.9357C246.295 67.4045 245.677 68.0384 245.23 68.8374C244.783 69.6257 244.553 70.5046 244.543 71.4741V75.4851C244.543 76.6996 244.767 77.7489 245.214 78.6332C245.672 79.5174 246.317 80.1992 247.148 80.6786C247.979 81.158 248.964 81.3977 250.104 81.3977C250.86 81.3977 251.553 81.2912 252.181 81.0781C252.81 80.8651 253.348 80.5455 253.795 80.1193C254.243 79.6932 254.584 79.1712 254.818 78.5533L261.114 78.9688C260.795 80.4815 260.139 81.8026 259.149 82.9318C258.169 84.0504 256.901 84.924 255.345 85.5526C253.801 86.1705 252.016 86.4794 249.992 86.4794ZM265.701 86V61.4545H272.3V65.7372H272.556C273.003 64.2138 273.754 63.0632 274.809 62.2855C275.864 61.4972 277.078 61.103 278.453 61.103C278.794 61.103 279.161 61.1243 279.555 61.1669C279.949 61.2095 280.296 61.2681 280.594 61.3427V67.3832C280.274 67.2873 279.832 67.2021 279.268 67.1275C278.703 67.0529 278.186 67.0156 277.718 67.0156C276.716 67.0156 275.821 67.234 275.033 67.6708C274.255 68.0969 273.637 68.6935 273.179 69.4606C272.732 70.2276 272.508 71.1119 272.508 72.1133V86H265.701ZM290.921 71.8097V86H284.114V61.4545H290.602V65.7852H290.889C291.432 64.3576 292.343 63.2283 293.622 62.3974C294.9 61.5558 296.45 61.1349 298.272 61.1349C299.977 61.1349 301.463 61.5078 302.73 62.2536C303.998 62.9993 304.984 64.0646 305.687 65.4496C306.39 66.8239 306.741 68.4645 306.741 70.3714V86H299.934V71.5859C299.945 70.0838 299.561 68.9119 298.783 68.0703C298.006 67.218 296.935 66.7919 295.571 66.7919C294.655 66.7919 293.845 66.989 293.142 67.3832C292.45 67.7773 291.907 68.3526 291.512 69.109C291.129 69.8548 290.932 70.755 290.921 71.8097ZM323.293 86.4794C320.768 86.4794 318.595 85.968 316.773 84.9453C314.962 83.9119 313.566 82.4524 312.586 80.5668C311.606 78.6705 311.116 76.4279 311.116 73.8391C311.116 71.3143 311.606 69.0984 312.586 67.1914C313.566 65.2844 314.946 63.7983 316.725 62.733C318.515 61.6676 320.614 61.1349 323.021 61.1349C324.64 61.1349 326.148 61.396 327.544 61.918C328.95 62.4293 330.175 63.2017 331.219 64.2351C332.274 65.2685 333.094 66.5682 333.68 68.1342C334.266 69.6896 334.559 71.5114 334.559 73.5994V75.4691H313.833V71.2504H328.151C328.151 70.2702 327.938 69.402 327.512 68.6456C327.085 67.8892 326.494 67.2979 325.738 66.8718C324.992 66.435 324.124 66.2166 323.133 66.2166C322.1 66.2166 321.183 66.4563 320.384 66.9357C319.596 67.4045 318.978 68.0384 318.531 68.8374C318.083 69.6257 317.854 70.5046 317.844 71.4741V75.4851C317.844 76.6996 318.067 77.7489 318.515 78.6332C318.973 79.5174 319.617 80.1992 320.448 80.6786C321.279 81.158 322.265 81.3977 323.405 81.3977C324.161 81.3977 324.854 81.2912 325.482 81.0781C326.111 80.8651 326.649 80.5455 327.096 80.1193C327.544 79.6932 327.884 79.1712 328.119 78.5533L334.415 78.9688C334.095 80.4815 333.44 81.8026 332.449 82.9318C331.469 84.0504 330.202 84.924 328.646 85.5526C327.101 86.1705 325.317 86.4794 323.293 86.4794ZM352.057 61.4545V66.5682H337.275V61.4545H352.057ZM340.631 55.5739H347.439V78.4574C347.439 79.0859 347.535 79.576 347.726 79.9276C347.918 80.2685 348.185 80.5082 348.525 80.6467C348.877 80.7852 349.282 80.8544 349.74 80.8544C350.06 80.8544 350.379 80.8278 350.699 80.7745C351.018 80.7106 351.263 80.6626 351.434 80.6307L352.504 85.6964C352.164 85.8029 351.684 85.9254 351.066 86.0639C350.448 86.2131 349.697 86.3036 348.813 86.3356C347.172 86.3995 345.734 86.1811 344.498 85.6804C343.273 85.1797 342.32 84.402 341.638 83.3473C340.956 82.2926 340.621 80.9609 340.631 79.3523V55.5739ZM367.414 86.4794C364.889 86.4794 362.716 85.968 360.894 84.9453C359.083 83.9119 357.687 82.4524 356.707 80.5668C355.727 78.6705 355.237 76.4279 355.237 73.8391C355.237 71.3143 355.727 69.0984 356.707 67.1914C357.687 65.2844 359.067 63.7983 360.846 62.733C362.636 61.6676 364.735 61.1349 367.142 61.1349C368.762 61.1349 370.269 61.396 371.665 61.918C373.071 62.4293 374.296 63.2017 375.34 64.2351C376.395 65.2685 377.215 66.5682 377.801 68.1342C378.387 69.6896 378.68 71.5114 378.68 73.5994V75.4691H357.954V71.2504H372.272C372.272 70.2702 372.059 69.402 371.633 68.6456C371.207 67.8892 370.615 67.2979 369.859 66.8718C369.113 66.435 368.245 66.2166 367.254 66.2166C366.221 66.2166 365.305 66.4563 364.506 66.9357C363.717 67.4045 363.099 68.0384 362.652 68.8374C362.204 69.6257 361.975 70.5046 361.965 71.4741V75.4851C361.965 76.6996 362.188 77.7489 362.636 78.6332C363.094 79.5174 363.739 80.1992 364.569 80.6786C365.4 81.158 366.386 81.3977 367.526 81.3977C368.282 81.3977 368.975 81.2912 369.603 81.0781C370.232 80.8651 370.77 80.5455 371.217 80.1193C371.665 79.6932 372.006 79.1712 372.24 78.5533L378.536 78.9688C378.216 80.4815 377.561 81.8026 376.571 82.9318C375.59 84.0504 374.323 84.924 372.767 85.5526C371.223 86.1705 369.438 86.4794 367.414 86.4794ZM403.545 68.4538L397.313 68.8374C397.206 68.3047 396.977 67.8253 396.626 67.3991C396.274 66.9624 395.811 66.6161 395.235 66.3604C394.671 66.0941 393.994 65.9609 393.206 65.9609C392.151 65.9609 391.262 66.1847 390.537 66.6321C389.813 67.0689 389.451 67.6548 389.451 68.3899C389.451 68.9759 389.685 69.4712 390.154 69.8761C390.622 70.2809 391.427 70.6058 392.567 70.8509L397.009 71.7457C399.395 72.2358 401.175 73.0241 402.346 74.1108C403.518 75.1974 404.104 76.625 404.104 78.3935C404.104 80.0021 403.63 81.4137 402.682 82.6282C401.745 83.8427 400.455 84.7908 398.815 85.4727C397.185 86.1438 395.305 86.4794 393.174 86.4794C389.925 86.4794 387.336 85.8029 385.408 84.4499C383.49 83.0863 382.366 81.2326 382.036 78.8888L388.731 78.5373C388.934 79.5281 389.424 80.2844 390.202 80.8065C390.979 81.3178 391.975 81.5735 393.19 81.5735C394.383 81.5735 395.342 81.3445 396.066 80.8864C396.801 80.4176 397.174 79.8157 397.185 79.0806C397.174 78.4627 396.913 77.9567 396.402 77.5625C395.89 77.1577 395.102 76.8487 394.037 76.6357L389.786 75.7887C387.389 75.3093 385.605 74.4783 384.433 73.2958C383.272 72.1133 382.691 70.6058 382.691 68.7734C382.691 67.1967 383.117 65.8384 383.969 64.6985C384.832 63.5586 386.041 62.6797 387.597 62.0618C389.163 61.4439 390.995 61.1349 393.094 61.1349C396.194 61.1349 398.634 61.7901 400.413 63.1005C402.203 64.4109 403.247 66.1953 403.545 68.4538Z" fill="white"/>
</svg>
