<svg width="140" height="140" viewBox="0 0 140 140" fill="none" xmlns="http://www.w3.org/2000/svg">
<rect width="140" height="140" rx="20" fill="#FF2D20"/>
<path d="M118.515 42.6226C118.551 42.756 118.569 42.8934 118.569 43.0315V64.4962C118.569 64.7717 118.497 65.0423 118.359 65.2807C118.221 65.5191 118.022 65.7169 117.783 65.8539L99.7673 76.2263V96.7853C99.7673 97.3448 99.47 97.8612 98.9848 98.1429L61.3785 119.792C61.2924 119.84 61.1985 119.872 61.1047 119.905C61.0695 119.917 61.0362 119.938 60.999 119.948C60.7361 120.017 60.4598 120.017 60.197 119.948C60.1539 119.936 60.1148 119.913 60.0737 119.897C59.9876 119.866 59.8976 119.839 59.8154 119.792L22.217 98.1429C21.9781 98.0057 21.7797 97.808 21.6416 97.5696C21.5035 97.3313 21.4307 97.0607 21.4305 96.7853V32.3911C21.4305 32.2502 21.4501 32.1133 21.4853 31.9802C21.4971 31.9352 21.5245 31.8942 21.5401 31.8492C21.5694 31.767 21.5968 31.6829 21.6399 31.6066C21.6692 31.5557 21.7123 31.5147 21.7475 31.4677C21.7925 31.4051 21.8335 31.3405 21.8864 31.2858C21.9314 31.2408 21.9901 31.2075 22.0409 31.1684C22.0977 31.1214 22.1485 31.0706 22.2131 31.0333H22.215L41.0153 20.2091C41.2533 20.0721 41.5231 20 41.7977 20C42.0724 20 42.3422 20.0721 42.5803 20.2091L61.3805 31.0333H61.3844C61.447 31.0725 61.4998 31.1214 61.5565 31.1664C61.6074 31.2056 61.6642 31.2408 61.7092 31.2838C61.7639 31.3405 61.803 31.4051 61.85 31.4677C61.8832 31.5147 61.9283 31.5557 61.9557 31.6066C62.0006 31.6848 62.0261 31.767 62.0574 31.8492C62.0731 31.8942 62.1004 31.9352 62.1121 31.9822C62.1481 32.1155 62.1665 32.253 62.1669 32.3911V72.611L77.8332 63.5904V43.0295C77.8332 42.8926 77.8527 42.7536 77.8879 42.6226C77.9016 42.5757 77.927 42.5346 77.9426 42.4896C77.974 42.4074 78.0014 42.3233 78.0444 42.247C78.0737 42.1962 78.1168 42.1551 78.1501 42.1081C78.197 42.0455 78.2361 41.9809 78.2909 41.9262C78.3359 41.8811 78.3927 41.8479 78.4435 41.8088C78.5021 41.7618 78.553 41.711 78.6156 41.6738H78.6176L97.4197 30.8495C97.6578 30.7123 97.9276 30.6401 98.2023 30.6401C98.477 30.6401 98.7468 30.7123 98.9848 30.8495L117.785 41.6738C117.852 41.7129 117.902 41.7618 117.961 41.8069C118.01 41.8459 118.067 41.8811 118.112 41.9242C118.167 41.9809 118.206 42.0455 118.253 42.1081C118.288 42.1551 118.331 42.1962 118.358 42.247C118.403 42.3233 118.429 42.4074 118.46 42.4896C118.478 42.5346 118.503 42.5757 118.515 42.6226ZM115.435 63.5904V45.741L99.7673 54.7616V72.611L115.437 63.5904H115.435ZM96.6352 95.8795V78.0183L62.1649 97.6949V115.724L96.6352 95.8795ZM24.5646 35.1006V95.8795L59.031 115.722V97.6969L41.025 87.5064L41.0192 87.5025L41.0113 87.4986C40.9507 87.4634 40.8999 87.4125 40.8431 87.3695C40.7942 87.3303 40.7375 87.2991 40.6944 87.256L40.6905 87.2502C40.6397 87.2013 40.6045 87.1406 40.5614 87.0859C40.5223 87.033 40.4753 86.9881 40.444 86.9332L40.4421 86.9274C40.4069 86.8686 40.3853 86.7982 40.3599 86.7317C40.3344 86.673 40.3012 86.6183 40.2855 86.5556V86.5537C40.266 86.4794 40.2621 86.4011 40.2542 86.3248C40.2464 86.2662 40.2308 86.2074 40.2308 86.1488V44.1212L24.5646 35.1025V35.1006ZM41.7997 23.3744L26.1355 32.3911L41.7958 41.4078L57.4581 32.3891L41.7958 23.3744H41.7997ZM59.0329 74.4148V35.1006L43.3647 44.1212V83.4353L59.0329 74.4148ZM98.2023 34.0148L82.54 43.0315L98.2023 52.0482L113.863 43.0295L98.2023 34.0148ZM96.6352 54.7616L80.9671 45.741V63.5904L96.6352 72.611V54.7616ZM60.596 94.9854L95.0526 75.3167L79.4021 66.3058L44.9591 86.1351L60.596 94.9854Z" fill="white"/>
</svg>
