<svg width="339" height="140" viewBox="0 0 339 140" fill="none" xmlns="http://www.w3.org/2000/svg">
<rect width="339" height="140" rx="20" fill="#111725"/>
<path fill-rule="evenodd" clip-rule="evenodd" d="M51.189 20.0007C34.0953 19.8891 20.1052 32.912 20.0009 49.0296C19.9087 63.3014 26.9193 70.2688 34.5111 77.8136C39.8039 83.0734 45.3788 88.6137 49.0262 97.1052C49.2723 97.3065 49.4369 97.4408 49.5076 97.5043C49.8332 97.7925 50.2516 97.9519 50.6851 97.9529C51.1188 97.9575 51.5394 97.8037 51.8689 97.52C51.888 97.5029 51.923 97.4879 51.966 97.4694C52.0838 97.4185 52.263 97.341 52.3555 97.1265C55.9908 88.7159 61.645 83.2503 67.0449 78.0309C74.7344 70.5981 81.9076 63.6642 81.9994 49.4356C82.1037 33.3177 68.2831 20.113 51.189 20.0007ZM50.891 66.1696C59.355 66.225 66.2624 59.259 66.3182 50.6105C66.374 41.962 59.5574 34.906 51.093 34.8506C42.6286 34.7951 35.7216 41.7611 35.6655 50.4096C35.6097 59.0581 42.4266 66.1141 50.891 66.1696Z" fill="#82B4FE"/>
<path fill-rule="evenodd" clip-rule="evenodd" d="M39.8119 102.941C38.3997 102.932 37.2447 104.504 37.2322 106.452L37.1684 116.314C37.1556 118.262 38.2902 119.849 39.7027 119.858L61.322 120C62.7342 120.009 63.8892 118.437 63.9017 116.489L63.9655 106.627C63.9783 104.679 62.8437 103.092 61.4312 103.083L39.8119 102.941Z" fill="white"/>
<path d="M114.844 53.2727H123.378L132.391 75.2614H132.774L141.787 53.2727H150.32V86H143.609V64.6985H143.337L134.868 85.8402H130.297L121.828 64.6186H121.556V86H114.844V53.2727ZM162.893 86.4634C161.327 86.4634 159.931 86.1918 158.706 85.6484C157.481 85.0945 156.511 84.2795 155.797 83.2035C155.094 82.1168 154.743 80.7638 154.743 79.1445C154.743 77.7809 154.993 76.6357 155.494 75.7088C155.995 74.782 156.676 74.0362 157.539 73.4716C158.402 72.907 159.382 72.4808 160.48 72.1932C161.588 71.9055 162.749 71.7031 163.963 71.5859C165.391 71.4368 166.541 71.2983 167.415 71.1705C168.289 71.032 168.922 70.8295 169.317 70.5632C169.711 70.2969 169.908 69.9027 169.908 69.3807V69.2848C169.908 68.2727 169.588 67.4897 168.949 66.9357C168.321 66.3817 167.426 66.1048 166.264 66.1048C165.039 66.1048 164.065 66.3764 163.34 66.9197C162.616 67.4524 162.136 68.1236 161.902 68.9332L155.606 68.4219C155.925 66.9304 156.554 65.6413 157.491 64.5547C158.429 63.4574 159.638 62.6158 161.119 62.0298C162.61 61.4332 164.336 61.1349 166.296 61.1349C167.66 61.1349 168.965 61.2947 170.212 61.6143C171.469 61.9339 172.582 62.4293 173.551 63.1005C174.532 63.7717 175.304 64.6346 175.869 65.6893C176.433 66.7333 176.715 67.9851 176.715 69.4446V86H170.26V82.5962H170.068C169.674 83.3633 169.146 84.0398 168.486 84.6257C167.825 85.201 167.032 85.6538 166.105 85.984C165.178 86.3036 164.107 86.4634 162.893 86.4634ZM164.842 81.7653C165.844 81.7653 166.728 81.5682 167.495 81.174C168.262 80.7692 168.864 80.2259 169.301 79.544C169.737 78.8622 169.956 78.0898 169.956 77.2269V74.6222C169.743 74.7607 169.45 74.8885 169.077 75.0057C168.715 75.1122 168.305 75.2134 167.847 75.3093C167.388 75.3945 166.93 75.4744 166.472 75.549C166.014 75.6129 165.599 75.6715 165.226 75.7248C164.427 75.842 163.729 76.0284 163.132 76.2841C162.536 76.5398 162.072 76.886 161.742 77.3228C161.412 77.7489 161.247 78.2816 161.247 78.9208C161.247 79.8477 161.582 80.5561 162.253 81.0462C162.935 81.5256 163.798 81.7653 164.842 81.7653ZM181.997 95.2045V61.4545H188.709V65.5774H189.012C189.31 64.9169 189.742 64.2457 190.307 63.5639C190.882 62.8714 191.628 62.2962 192.544 61.8381C193.471 61.3693 194.621 61.1349 195.995 61.1349C197.785 61.1349 199.437 61.6037 200.949 62.5412C202.462 63.468 203.671 64.869 204.577 66.744C205.482 68.6083 205.935 70.9467 205.935 73.7592C205.935 76.4972 205.493 78.8089 204.609 80.6946C203.735 82.5696 202.542 83.9918 201.029 84.9613C199.527 85.9201 197.844 86.3995 195.979 86.3995C194.658 86.3995 193.535 86.1811 192.608 85.7443C191.691 85.3075 190.94 84.7589 190.354 84.0984C189.769 83.4272 189.321 82.7507 189.012 82.0689H188.804V95.2045H181.997ZM188.661 73.7273C188.661 75.1868 188.863 76.4599 189.268 77.5465C189.673 78.6332 190.259 79.4801 191.026 80.0874C191.793 80.6839 192.725 80.9822 193.822 80.9822C194.93 80.9822 195.868 80.6786 196.635 80.0714C197.402 79.4535 197.982 78.6012 198.377 77.5146C198.781 76.4173 198.984 75.1548 198.984 73.7273C198.984 72.3104 198.787 71.0639 198.392 69.9879C197.998 68.9119 197.418 68.0703 196.651 67.4631C195.884 66.8558 194.941 66.5522 193.822 66.5522C192.714 66.5522 191.777 66.8452 191.01 67.4311C190.253 68.017 189.673 68.848 189.268 69.924C188.863 71 188.661 72.2678 188.661 73.7273Z" fill="white"/>
<path d="M210.601 86V53.2727H217.521V80.2951H231.551V86H210.601ZM236.006 86V61.4545H242.813V86H236.006ZM239.425 58.2905C238.413 58.2905 237.545 57.9549 236.821 57.2837C236.107 56.6019 235.75 55.7869 235.75 54.8388C235.75 53.9013 236.107 53.0969 236.821 52.4258C237.545 51.744 238.413 51.4031 239.425 51.4031C240.438 51.4031 241.3 51.744 242.014 52.4258C242.739 53.0969 243.101 53.9013 243.101 54.8388C243.101 55.7869 242.739 56.6019 242.014 57.2837C241.3 57.9549 240.438 58.2905 239.425 58.2905ZM248.394 86V53.2727H255.202V65.5774H255.41C255.708 64.9169 256.139 64.2457 256.704 63.5639C257.279 62.8714 258.025 62.2962 258.941 61.8381C259.868 61.3693 261.019 61.1349 262.393 61.1349C264.183 61.1349 265.834 61.6037 267.347 62.5412C268.859 63.468 270.069 64.869 270.974 66.744C271.88 68.6083 272.332 70.9467 272.332 73.7592C272.332 76.4972 271.89 78.8089 271.006 80.6946C270.133 82.5696 268.939 83.9918 267.427 84.9613C265.924 85.9201 264.241 86.3995 262.377 86.3995C261.056 86.3995 259.932 86.1811 259.005 85.7443C258.089 85.3075 257.338 84.7589 256.752 84.0984C256.166 83.4272 255.718 82.7507 255.41 82.0689H255.106V86H248.394ZM255.058 73.7273C255.058 75.1868 255.26 76.4599 255.665 77.5465C256.07 78.6332 256.656 79.4801 257.423 80.0874C258.19 80.6839 259.122 80.9822 260.22 80.9822C261.328 80.9822 262.265 80.6786 263.032 80.0714C263.799 79.4535 264.38 78.6012 264.774 77.5146C265.179 76.4173 265.381 75.1548 265.381 73.7273C265.381 72.3104 265.184 71.0639 264.79 69.9879C264.396 68.9119 263.815 68.0703 263.048 67.4631C262.281 66.8558 261.338 66.5522 260.22 66.5522C259.112 66.5522 258.174 66.8452 257.407 67.4311C256.651 68.017 256.07 68.848 255.665 69.924C255.26 71 255.058 72.2678 255.058 73.7273ZM276.875 86V61.4545H283.475V65.7372H283.73C284.178 64.2138 284.929 63.0632 285.983 62.2855C287.038 61.4972 288.253 61.103 289.627 61.103C289.968 61.103 290.335 61.1243 290.73 61.1669C291.124 61.2095 291.47 61.2681 291.768 61.3427V67.3832C291.449 67.2873 291.007 67.2021 290.442 67.1275C289.877 67.0529 289.361 67.0156 288.892 67.0156C287.89 67.0156 286.996 67.234 286.207 67.6708C285.43 68.0969 284.812 68.6935 284.354 69.4606C283.906 70.2276 283.682 71.1119 283.682 72.1133V86H276.875ZM305.331 86.4794C302.807 86.4794 300.633 85.968 298.812 84.9453C297 83.9119 295.605 82.4524 294.625 80.5668C293.645 78.6705 293.155 76.4279 293.155 73.8391C293.155 71.3143 293.645 69.0984 294.625 67.1914C295.605 65.2844 296.984 63.7983 298.764 62.733C300.553 61.6676 302.652 61.1349 305.06 61.1349C306.679 61.1349 308.187 61.396 309.582 61.918C310.988 62.4293 312.214 63.2017 313.258 64.2351C314.312 65.2685 315.133 66.5682 315.718 68.1342C316.304 69.6896 316.597 71.5114 316.597 73.5994V75.4691H295.871V71.2504H310.189C310.189 70.2702 309.976 69.402 309.55 68.6456C309.124 67.8892 308.533 67.2979 307.776 66.8718C307.031 66.435 306.162 66.2166 305.172 66.2166C304.138 66.2166 303.222 66.4563 302.423 66.9357C301.635 67.4045 301.017 68.0384 300.569 68.8374C300.122 69.6257 299.893 70.5046 299.882 71.4741V75.4851C299.882 76.6996 300.106 77.7489 300.553 78.6332C301.011 79.5174 301.656 80.1992 302.487 80.6786C303.318 81.158 304.303 81.3977 305.443 81.3977C306.2 81.3977 306.892 81.2912 307.521 81.0781C308.149 80.8651 308.687 80.5455 309.135 80.1193C309.582 79.6932 309.923 79.1712 310.157 78.5533L316.454 78.9688C316.134 80.4815 315.479 81.8026 314.488 82.9318C313.508 84.0504 312.24 84.924 310.685 85.5526C309.14 86.1705 307.356 86.4794 305.331 86.4794Z" fill="#82B4FE"/>
</svg>
