<svg width="334" height="140" viewBox="0 0 334 140" fill="none" xmlns="http://www.w3.org/2000/svg">
<rect width="334" height="140" rx="20" fill="#0E61C6"/>
<path d="M46.0965 101.443C51.0876 106.435 64.3733 119.986 64.367 120C64.3186 120.088 77.5656 106.781 82.8414 101.505L64.4374 83.0923L46.0965 101.443Z" fill="#3A1888"/>
<path d="M64.4374 83.0923L82.8414 101.505C82.8689 101.474 82.9011 101.439 82.931 101.412L101.317 83.0148L82.9146 64.6029L64.4374 83.0923Z" fill="#03A1C4"/>
<path d="M101.317 83.0148L101.365 82.9664C111.536 72.7917 111.544 56.3009 101.396 46.1134L82.9146 64.6029L101.317 83.0148Z" fill="#05D0DF"/>
<path d="M45.956 64.6029L27.6183 82.9495L27.6331 82.9678L46.0645 101.412C46.075 101.421 46.087 101.432 46.0965 101.443L64.4374 83.0923L45.956 64.6029Z" fill="#761FE8"/>
<path d="M64.4361 46.1122L82.9146 64.6029L101.396 46.1134C101.381 46.103 101.374 46.0924 101.364 46.0819L82.931 27.6397L82.9146 27.624L64.4361 46.1122Z" fill="#FFAA01"/>
<path d="M27.5413 46.1791C17.4612 56.3666 17.4857 72.7943 27.6183 82.9495L45.956 64.6029L27.5413 46.1791Z" fill="#F1175D"/>
<path d="M64.4361 46.1122L46.0195 27.6836L27.6333 46.0795C27.6016 46.111 27.5738 46.1499 27.5413 46.1791L45.956 64.6029L64.4361 46.1122Z" fill="#FB3A1B"/>
<path d="M82.9146 27.624C72.7318 17.4545 56.2416 17.4582 46.0658 27.6379L46.0195 27.6836L64.4361 46.1122L82.9146 27.624Z" fill="#FBC935"/>
<path d="M141.844 53.2727H150.378L159.391 75.2614H159.774L168.787 53.2727H177.32V86H170.609V64.6985H170.337L161.868 85.8402H157.297L148.828 64.6186H148.556V86H141.844V53.2727ZM189.893 86.4634C188.327 86.4634 186.931 86.1918 185.706 85.6484C184.481 85.0945 183.511 84.2795 182.797 83.2035C182.094 82.1168 181.743 80.7638 181.743 79.1445C181.743 77.7809 181.993 76.6357 182.494 75.7088C182.995 74.782 183.676 74.0362 184.539 73.4716C185.402 72.907 186.382 72.4808 187.48 72.1932C188.588 71.9055 189.749 71.7031 190.963 71.5859C192.391 71.4368 193.541 71.2983 194.415 71.1705C195.289 71.032 195.922 70.8295 196.317 70.5632C196.711 70.2969 196.908 69.9027 196.908 69.3807V69.2848C196.908 68.2727 196.588 67.4897 195.949 66.9357C195.321 66.3817 194.426 66.1048 193.264 66.1048C192.039 66.1048 191.065 66.3764 190.34 66.9197C189.616 67.4524 189.136 68.1236 188.902 68.9332L182.606 68.4219C182.925 66.9304 183.554 65.6413 184.491 64.5547C185.429 63.4574 186.638 62.6158 188.119 62.0298C189.61 61.4332 191.336 61.1349 193.296 61.1349C194.66 61.1349 195.965 61.2947 197.212 61.6143C198.469 61.9339 199.582 62.4293 200.551 63.1005C201.532 63.7717 202.304 64.6346 202.869 65.6893C203.433 66.7333 203.715 67.9851 203.715 69.4446V86H197.26V82.5962H197.068C196.674 83.3633 196.146 84.0398 195.486 84.6257C194.825 85.201 194.032 85.6538 193.105 85.984C192.178 86.3036 191.107 86.4634 189.893 86.4634ZM191.842 81.7653C192.844 81.7653 193.728 81.5682 194.495 81.174C195.262 80.7692 195.864 80.2259 196.301 79.544C196.737 78.8622 196.956 78.0898 196.956 77.2269V74.6222C196.743 74.7607 196.45 74.8885 196.077 75.0057C195.715 75.1122 195.305 75.2134 194.847 75.3093C194.388 75.3945 193.93 75.4744 193.472 75.549C193.014 75.6129 192.599 75.6715 192.226 75.7248C191.427 75.842 190.729 76.0284 190.132 76.2841C189.536 76.5398 189.072 76.886 188.742 77.3228C188.412 77.7489 188.247 78.2816 188.247 78.9208C188.247 79.8477 188.582 80.5561 189.253 81.0462C189.935 81.5256 190.798 81.7653 191.842 81.7653ZM208.997 95.2045V61.4545H215.709V65.5774H216.012C216.31 64.9169 216.742 64.2457 217.307 63.5639C217.882 62.8714 218.628 62.2962 219.544 61.8381C220.471 61.3693 221.621 61.1349 222.995 61.1349C224.785 61.1349 226.437 61.6037 227.949 62.5412C229.462 63.468 230.671 64.869 231.577 66.744C232.482 68.6083 232.935 70.9467 232.935 73.7592C232.935 76.4972 232.493 78.8089 231.609 80.6946C230.735 82.5696 229.542 83.9918 228.029 84.9613C226.527 85.9201 224.844 86.3995 222.979 86.3995C221.658 86.3995 220.535 86.1811 219.608 85.7443C218.691 85.3075 217.94 84.7589 217.354 84.0984C216.769 83.4272 216.321 82.7507 216.012 82.0689H215.804V95.2045H208.997ZM215.661 73.7273C215.661 75.1868 215.863 76.4599 216.268 77.5465C216.673 78.6332 217.259 79.4801 218.026 80.0874C218.793 80.6839 219.725 80.9822 220.822 80.9822C221.93 80.9822 222.868 80.6786 223.635 80.0714C224.402 79.4535 224.982 78.6012 225.377 77.5146C225.781 76.4173 225.984 75.1548 225.984 73.7273C225.984 72.3104 225.787 71.0639 225.392 69.9879C224.998 68.9119 224.418 68.0703 223.651 67.4631C222.884 66.8558 221.941 66.5522 220.822 66.5522C219.714 66.5522 218.777 66.8452 218.01 67.4311C217.253 68.017 216.673 68.848 216.268 69.924C215.863 71 215.661 72.2678 215.661 73.7273ZM248.18 61.4545V63.9315H236.467V61.4545H248.18ZM240.126 55.5739H242.987V79.592C242.987 80.6147 243.162 81.419 243.514 82.005C243.866 82.5803 244.324 82.9904 244.888 83.2354C245.453 83.4698 246.055 83.587 246.694 83.587C247.067 83.587 247.386 83.5657 247.653 83.5231C247.919 83.4698 248.153 83.4165 248.356 83.3633L248.963 85.9361C248.686 86.0426 248.345 86.1385 247.94 86.2237C247.536 86.3196 247.035 86.3675 246.438 86.3675C245.394 86.3675 244.388 86.1385 243.418 85.6804C242.459 85.2223 241.671 84.5405 241.053 83.6349C240.435 82.7294 240.126 81.6055 240.126 80.2631V55.5739ZM254.672 86V61.4545H257.532V86H254.672ZM256.126 57.2358C255.54 57.2358 255.04 57.0387 254.624 56.6445C254.209 56.2397 254.001 55.755 254.001 55.1903C254.001 54.6257 254.209 54.1463 254.624 53.7521C255.04 53.3473 255.54 53.1449 256.126 53.1449C256.712 53.1449 257.213 53.3473 257.628 53.7521C258.044 54.1463 258.252 54.6257 258.252 55.1903C258.252 55.755 258.044 56.2397 257.628 56.6445C257.213 57.0387 256.712 57.2358 256.126 57.2358ZM267.9 53.2727V86H265.055V53.2727H267.9ZM285.35 86.5114C283.059 86.5114 281.078 85.9787 279.405 84.9134C277.733 83.8374 276.438 82.3512 275.522 80.4549C274.617 78.5479 274.164 76.3533 274.164 73.8711C274.164 71.3995 274.617 69.2049 275.522 67.2873C276.438 65.359 277.701 63.8516 279.309 62.7649C280.929 61.6676 282.798 61.119 284.918 61.119C286.25 61.119 287.534 61.364 288.77 61.854C290.005 62.3335 291.113 63.0739 292.093 64.0753C293.084 65.0661 293.867 66.3178 294.443 67.8306C295.018 69.3327 295.305 71.1119 295.305 73.168V74.5742H276.129V72.0653H292.397C292.397 70.4886 292.078 69.0717 291.438 67.8146C290.81 66.5469 289.931 65.5455 288.802 64.8104C287.683 64.0753 286.389 63.7077 284.918 63.7077C283.363 63.7077 281.994 64.1232 280.812 64.9542C279.629 65.7852 278.702 66.8825 278.031 68.2461C277.37 69.6097 277.035 71.1012 277.024 72.7205V74.2227C277.024 76.1722 277.36 77.8768 278.031 79.3363C278.713 80.7852 279.677 81.9091 280.923 82.7081C282.17 83.5071 283.645 83.9066 285.35 83.9066C286.511 83.9066 287.528 83.7255 288.402 83.3633C289.286 83.0011 290.027 82.5163 290.623 81.9091C291.231 81.2912 291.689 80.6147 291.998 79.8796L294.698 80.7585C294.325 81.7919 293.713 82.7454 292.861 83.619C292.019 84.4925 290.964 85.1957 289.696 85.7283C288.439 86.2504 286.991 86.5114 285.35 86.5114ZM301.574 86V61.4545H304.338V65.2259H304.546C305.036 63.9901 305.888 62.994 307.103 62.2376C308.328 61.4705 309.713 61.087 311.258 61.087C311.492 61.087 311.753 61.0923 312.041 61.103C312.328 61.1136 312.568 61.1243 312.76 61.1349V64.0273C312.632 64.006 312.408 63.9741 312.089 63.9315C311.769 63.8888 311.423 63.8675 311.05 63.8675C309.771 63.8675 308.632 64.1392 307.63 64.6825C306.639 65.2152 305.856 65.9556 305.281 66.9038C304.706 67.8519 304.418 68.9332 304.418 70.1477V86H301.574Z" fill="white"/>
</svg>
