<svg width="140" height="140" viewBox="0 0 140 140" fill="none" xmlns="http://www.w3.org/2000/svg">
<rect width="140" height="140" rx="20" fill="#0E61C6"/>
<path d="M51.5965 101.443C56.5876 106.435 69.8733 119.986 69.867 120C69.8186 120.088 83.0656 106.781 88.3414 101.505L69.9374 83.0923L51.5965 101.443Z" fill="#3A1888"/>
<path d="M69.9374 83.0923L88.3414 101.505C88.3689 101.474 88.4011 101.439 88.431 101.412L106.817 83.0148L88.4146 64.6029L69.9374 83.0923Z" fill="#03A1C4"/>
<path d="M106.817 83.0148L106.865 82.9664C117.036 72.7917 117.044 56.3009 106.896 46.1134L88.4146 64.6029L106.817 83.0148Z" fill="#05D0DF"/>
<path d="M51.456 64.6029L33.1183 82.9495L33.1331 82.9678L51.5645 101.412C51.575 101.421 51.587 101.432 51.5965 101.443L69.9374 83.0923L51.456 64.6029Z" fill="#761FE8"/>
<path d="M69.9361 46.1122L88.4146 64.6029L106.896 46.1134C106.881 46.103 106.874 46.0924 106.864 46.0819L88.431 27.6397L88.4146 27.624L69.9361 46.1122Z" fill="#FFAA01"/>
<path d="M33.0413 46.1791C22.9612 56.3666 22.9857 72.7943 33.1183 82.9495L51.456 64.6029L33.0413 46.1791Z" fill="#F1175D"/>
<path d="M69.9361 46.1122L51.5195 27.6836L33.1333 46.0795C33.1016 46.111 33.0738 46.1499 33.0413 46.1791L51.456 64.6029L69.9361 46.1122Z" fill="#FB3A1B"/>
<path d="M88.4146 27.624C78.2318 17.4545 61.7416 17.4582 51.5658 27.6379L51.5195 27.6836L69.9361 46.1122L88.4146 27.624Z" fill="#FBC935"/>
</svg>
