<svg width="395" height="140" viewBox="0 0 395 140" fill="none" xmlns="http://www.w3.org/2000/svg">
<rect width="395" height="140" rx="20" fill="#11557C"/>
<path d="M70 120C97.6142 120 120 97.6142 120 70C120 42.3858 97.6142 20 70 20C42.3858 20 20 42.3858 20 70C20 97.6142 42.3858 120 70 120Z" fill="white"/>
<path d="M70 107.5C90.7107 107.5 107.5 90.7107 107.5 70C107.5 49.2893 90.7107 32.5 70 32.5C49.2893 32.5 32.5 49.2893 32.5 70C32.5 90.7107 49.2893 107.5 70 107.5Z" fill="white"/>
<path d="M70 95C83.8071 95 95 83.8071 95 70C95 56.1929 83.8071 45 70 45C56.1929 45 45 56.1929 45 70C45 83.8071 56.1929 95 70 95Z" fill="white"/>
<path d="M70 82.5C76.9036 82.5 82.5 76.9036 82.5 70C82.5 63.0964 76.9036 57.5 70 57.5C63.0964 57.5 57.5 63.0964 57.5 70C57.5 76.9036 63.0964 82.5 70 82.5Z" fill="white"/>
<path d="M70 20V120ZM105.227 105.227L34.7727 34.7727ZM105.227 34.7727L34.7727 105.227ZM120 70H20Z" fill="white"/>
<path d="M70 70H80.2273C80.3594 69.0576 80.3594 68.1014 80.2273 67.1591L70 70Z" fill="#4444CC"/>
<path d="M70 70L89.3182 45.5682C86.73 43.6205 83.8548 42.087 80.7955 41.0227L70 70Z" fill="#BBCC33"/>
<path d="M70 70L60.9091 29.0909C54.4493 30.5071 48.4147 33.4271 43.2955 37.6136L70 70Z" fill="#DD9933"/>
<path d="M70 70L37.0455 54.0909C33.8336 61.0069 32.8412 68.7475 34.2045 76.25L70 70Z" fill="#DDBB33"/>
<path d="M70 70L51.25 79.0909C51.5593 80.0642 51.9391 81.0137 52.3864 81.9318L70 70Z" fill="#33BBBB"/>
<path d="M70 70L64.3182 95.5682C67.694 96.2417 71.1696 96.2417 74.5455 95.5682L70 70Z" fill="#33CC99"/>
<path d="M70 70L96.1364 102.955C98.663 100.951 100.951 98.663 102.955 96.1364L70 70Z" fill="#DD7733"/>
<path d="M120 70C120 97.6142 97.6142 120 70 120M120 70C120 42.3858 97.6142 20 70 20M120 70H20M70 120C42.3858 120 20 97.6142 20 70M70 120V20M20 70C20 42.3858 42.3858 20 70 20M105.227 105.227L34.7727 34.7727M105.227 34.7727L34.7727 105.227M70 70H80.2273C80.3594 69.0576 80.3594 68.1014 80.2273 67.1591L70 70ZM70 70L89.3182 45.5682C86.73 43.6205 83.8548 42.087 80.7955 41.0227L70 70ZM70 70L60.9091 29.0909C54.4493 30.5071 48.4147 33.4271 43.2955 37.6136L70 70ZM70 70L37.0455 54.0909C33.8336 61.0069 32.8412 68.7475 34.2045 76.25L70 70ZM70 70L51.25 79.0909C51.5593 80.0642 51.9391 81.0137 52.3864 81.9318L70 70ZM70 70L64.3182 95.5682C67.694 96.2417 71.1696 96.2417 74.5455 95.5682L70 70ZM70 70L96.1364 102.955C98.663 100.951 100.951 98.663 102.955 96.1364L70 70ZM107.5 70C107.5 90.7107 90.7107 107.5 70 107.5C49.2893 107.5 32.5 90.7107 32.5 70C32.5 49.2893 49.2893 32.5 70 32.5C90.7107 32.5 107.5 49.2893 107.5 70ZM95 70C95 83.8071 83.8071 95 70 95C56.1929 95 45 83.8071 45 70C45 56.1929 56.1929 45 70 45C83.8071 45 95 56.1929 95 70ZM82.5 70C82.5 76.9036 76.9036 82.5 70 82.5C63.0964 82.5 57.5 76.9036 57.5 70C57.5 63.0964 63.0964 57.5 70 57.5C76.9036 57.5 82.5 63.0964 82.5 70Z" stroke="#808080"/>
<path d="M152.844 53.2727H161.378L170.391 75.2614H170.774L179.787 53.2727H188.32V86H181.609V64.6985H181.337L172.868 85.8402H168.297L159.828 64.6186H159.556V86H152.844V53.2727ZM200.893 86.4634C199.327 86.4634 197.931 86.1918 196.706 85.6484C195.481 85.0945 194.511 84.2795 193.797 83.2035C193.094 82.1168 192.743 80.7638 192.743 79.1445C192.743 77.7809 192.993 76.6357 193.494 75.7088C193.995 74.782 194.676 74.0362 195.539 73.4716C196.402 72.907 197.382 72.4808 198.48 72.1932C199.588 71.9055 200.749 71.7031 201.963 71.5859C203.391 71.4368 204.541 71.2983 205.415 71.1705C206.289 71.032 206.922 70.8295 207.317 70.5632C207.711 70.2969 207.908 69.9027 207.908 69.3807V69.2848C207.908 68.2727 207.588 67.4897 206.949 66.9357C206.321 66.3817 205.426 66.1048 204.264 66.1048C203.039 66.1048 202.065 66.3764 201.34 66.9197C200.616 67.4524 200.136 68.1236 199.902 68.9332L193.606 68.4219C193.925 66.9304 194.554 65.6413 195.491 64.5547C196.429 63.4574 197.638 62.6158 199.119 62.0298C200.61 61.4332 202.336 61.1349 204.296 61.1349C205.66 61.1349 206.965 61.2947 208.212 61.6143C209.469 61.9339 210.582 62.4293 211.551 63.1005C212.532 63.7717 213.304 64.6346 213.869 65.6893C214.433 66.7333 214.715 67.9851 214.715 69.4446V86H208.26V82.5962H208.068C207.674 83.3633 207.146 84.0398 206.486 84.6257C205.825 85.201 205.032 85.6538 204.105 85.984C203.178 86.3036 202.107 86.4634 200.893 86.4634ZM202.842 81.7653C203.844 81.7653 204.728 81.5682 205.495 81.174C206.262 80.7692 206.864 80.2259 207.301 79.544C207.737 78.8622 207.956 78.0898 207.956 77.2269V74.6222C207.743 74.7607 207.45 74.8885 207.077 75.0057C206.715 75.1122 206.305 75.2134 205.847 75.3093C205.388 75.3945 204.93 75.4744 204.472 75.549C204.014 75.6129 203.599 75.6715 203.226 75.7248C202.427 75.842 201.729 76.0284 201.132 76.2841C200.536 76.5398 200.072 76.886 199.742 77.3228C199.412 77.7489 199.247 78.2816 199.247 78.9208C199.247 79.8477 199.582 80.5561 200.253 81.0462C200.935 81.5256 201.798 81.7653 202.842 81.7653ZM233.053 61.4545V66.5682H218.271V61.4545H233.053ZM221.627 55.5739H228.434V78.4574C228.434 79.0859 228.53 79.576 228.722 79.9276C228.914 80.2685 229.18 80.5082 229.521 80.6467C229.873 80.7852 230.277 80.8544 230.736 80.8544C231.055 80.8544 231.375 80.8278 231.694 80.7745C232.014 80.7106 232.259 80.6626 232.429 80.6307L233.5 85.6964C233.159 85.8029 232.68 85.9254 232.062 86.0639C231.444 86.2131 230.693 86.3036 229.809 86.3356C228.168 86.3995 226.73 86.1811 225.494 85.6804C224.269 85.1797 223.315 84.402 222.634 83.3473C221.952 82.2926 221.616 80.9609 221.627 79.3523V55.5739ZM237.487 95.2045V61.4545H244.199V65.5774H244.502C244.801 64.9169 245.232 64.2457 245.797 63.5639C246.372 62.8714 247.118 62.2962 248.034 61.8381C248.961 61.3693 250.111 61.1349 251.486 61.1349C253.275 61.1349 254.927 61.6037 256.44 62.5412C257.952 63.468 259.161 64.869 260.067 66.744C260.973 68.6083 261.425 70.9467 261.425 73.7592C261.425 76.4972 260.983 78.8089 260.099 80.6946C259.225 82.5696 258.032 83.9918 256.519 84.9613C255.017 85.9201 253.334 86.3995 251.47 86.3995C250.149 86.3995 249.025 86.1811 248.098 85.7443C247.182 85.3075 246.431 84.7589 245.845 84.0984C245.259 83.4272 244.811 82.7507 244.502 82.0689H244.295V95.2045H237.487ZM244.151 73.7273C244.151 75.1868 244.353 76.4599 244.758 77.5465C245.163 78.6332 245.749 79.4801 246.516 80.0874C247.283 80.6839 248.215 80.9822 249.312 80.9822C250.42 80.9822 251.358 80.6786 252.125 80.0714C252.892 79.4535 253.473 78.6012 253.867 77.5146C254.272 76.4173 254.474 75.1548 254.474 73.7273C254.474 72.3104 254.277 71.0639 253.883 69.9879C253.489 68.9119 252.908 68.0703 252.141 67.4631C251.374 66.8558 250.431 66.5522 249.312 66.5522C248.204 66.5522 247.267 66.8452 246.5 67.4311C245.744 68.017 245.163 68.848 244.758 69.924C244.353 71 244.151 72.2678 244.151 73.7273ZM272.771 53.2727V86H265.964V53.2727H272.771ZM289.315 86.4794C286.832 86.4794 284.686 85.9521 282.875 84.8974C281.074 83.832 279.684 82.3512 278.704 80.4549C277.724 78.5479 277.234 76.3374 277.234 73.8232C277.234 71.2876 277.724 69.0717 278.704 67.1754C279.684 65.2685 281.074 63.7876 282.875 62.733C284.686 61.6676 286.832 61.1349 289.315 61.1349C291.797 61.1349 293.938 61.6676 295.739 62.733C297.55 63.7876 298.945 65.2685 299.925 67.1754C300.906 69.0717 301.396 71.2876 301.396 73.8232C301.396 76.3374 300.906 78.5479 299.925 80.4549C298.945 82.3512 297.55 83.832 295.739 84.8974C293.938 85.9521 291.797 86.4794 289.315 86.4794ZM289.347 81.206C290.476 81.206 291.419 80.8864 292.175 80.2472C292.931 79.5973 293.501 78.7131 293.885 77.5945C294.279 76.4759 294.476 75.2028 294.476 73.7752C294.476 72.3477 294.279 71.0746 293.885 69.956C293.501 68.8374 292.931 67.9531 292.175 67.3033C291.419 66.6534 290.476 66.3285 289.347 66.3285C288.207 66.3285 287.248 66.6534 286.47 67.3033C285.703 67.9531 285.123 68.8374 284.728 69.956C284.345 71.0746 284.153 72.3477 284.153 73.7752C284.153 75.2028 284.345 76.4759 284.728 77.5945C285.123 78.7131 285.703 79.5973 286.47 80.2472C287.248 80.8864 288.207 81.206 289.347 81.206ZM318.878 61.4545V66.5682H304.096V61.4545H318.878ZM307.452 55.5739H314.26V78.4574C314.26 79.0859 314.355 79.576 314.547 79.9276C314.739 80.2685 315.005 80.5082 315.346 80.6467C315.698 80.7852 316.103 80.8544 316.561 80.8544C316.88 80.8544 317.2 80.8278 317.52 80.7745C317.839 80.7106 318.084 80.6626 318.255 80.6307L319.325 85.6964C318.984 85.8029 318.505 85.9254 317.887 86.0639C317.269 86.2131 316.518 86.3036 315.634 86.3356C313.993 86.3995 312.555 86.1811 311.319 85.6804C310.094 85.1797 309.141 84.402 308.459 83.3473C307.777 82.2926 307.441 80.9609 307.452 79.3523V55.5739ZM330.647 53.2727V86H323.84V53.2727H330.647ZM336.1 86V61.4545H342.908V86H336.1ZM339.52 58.2905C338.508 58.2905 337.64 57.9549 336.915 57.2837C336.202 56.6019 335.845 55.7869 335.845 54.8388C335.845 53.9013 336.202 53.0969 336.915 52.4258C337.64 51.744 338.508 51.4031 339.52 51.4031C340.532 51.4031 341.395 51.744 342.109 52.4258C342.833 53.0969 343.196 53.9013 343.196 54.8388C343.196 55.7869 342.833 56.6019 342.109 57.2837C341.395 57.9549 340.532 58.2905 339.52 58.2905ZM348.489 86V53.2727H355.297V65.5774H355.504C355.803 64.9169 356.234 64.2457 356.799 63.5639C357.374 62.8714 358.12 62.2962 359.036 61.8381C359.963 61.3693 361.113 61.1349 362.488 61.1349C364.277 61.1349 365.929 61.6037 367.441 62.5412C368.954 63.468 370.163 64.869 371.069 66.744C371.974 68.6083 372.427 70.9467 372.427 73.7592C372.427 76.4972 371.985 78.8089 371.101 80.6946C370.227 82.5696 369.034 83.9918 367.521 84.9613C366.019 85.9201 364.336 86.3995 362.472 86.3995C361.151 86.3995 360.027 86.1811 359.1 85.7443C358.184 85.3075 357.433 84.7589 356.847 84.0984C356.261 83.4272 355.813 82.7507 355.504 82.0689H355.201V86H348.489ZM355.153 73.7273C355.153 75.1868 355.355 76.4599 355.76 77.5465C356.165 78.6332 356.751 79.4801 357.518 80.0874C358.285 80.6839 359.217 80.9822 360.314 80.9822C361.422 80.9822 362.36 80.6786 363.127 80.0714C363.894 79.4535 364.474 78.6012 364.869 77.5146C365.273 76.4173 365.476 75.1548 365.476 73.7273C365.476 72.3104 365.279 71.0639 364.885 69.9879C364.49 68.9119 363.91 68.0703 363.143 67.4631C362.376 66.8558 361.433 66.5522 360.314 66.5522C359.206 66.5522 358.269 66.8452 357.502 67.4311C356.745 68.017 356.165 68.848 355.76 69.924C355.355 71 355.153 72.2678 355.153 73.7273Z" fill="white"/>
</svg>
