<svg width="333" height="140" viewBox="0 0 333 140" fill="none" xmlns="http://www.w3.org/2000/svg">
<rect width="332.847" height="140" rx="20" fill="#00ED64"/>
<path d="M52.1381 31.1457C47.9272 26.1661 44.3012 21.1087 43.5604 20.0584C43.4824 19.9805 43.3654 19.9805 43.2875 20.0584C42.5467 21.1087 38.9207 26.1661 34.7098 31.1457C-1.43316 77.0899 40.4023 108.096 40.4023 108.096L40.7532 108.329C41.0651 113.114 41.8449 120 41.8449 120H43.4044H44.964C44.964 120 45.7438 113.153 46.0557 108.329L46.4066 108.057C46.4456 108.057 88.2812 77.0899 52.1381 31.1457ZM43.4044 107.395C43.4044 107.395 41.533 105.8 41.0261 104.983V104.906L43.2875 54.8765C43.2875 54.7209 43.5214 54.7209 43.5214 54.8765L45.7828 104.906V104.983C45.2759 105.8 43.4044 107.395 43.4044 107.395Z" fill="#001E2B"/>
<path d="M99.6914 53.2727H108.225L117.238 75.2614H117.621L126.634 53.2727H135.167V86H128.456V64.6985H128.184L119.714 85.8402H115.144L106.675 64.6186H106.403V86H99.6914V53.2727ZM151.831 86.4794C149.348 86.4794 147.202 85.9521 145.391 84.8974C143.59 83.832 142.2 82.3512 141.22 80.4549C140.24 78.5479 139.75 76.3374 139.75 73.8232C139.75 71.2876 140.24 69.0717 141.22 67.1754C142.2 65.2685 143.59 63.7876 145.391 62.733C147.202 61.6676 149.348 61.1349 151.831 61.1349C154.313 61.1349 156.454 61.6676 158.255 62.733C160.066 63.7876 161.461 65.2685 162.441 67.1754C163.421 69.0717 163.911 71.2876 163.911 73.8232C163.911 76.3374 163.421 78.5479 162.441 80.4549C161.461 82.3512 160.066 83.832 158.255 84.8974C156.454 85.9521 154.313 86.4794 151.831 86.4794ZM151.862 81.206C152.992 81.206 153.935 80.8864 154.691 80.2472C155.447 79.5973 156.017 78.7131 156.401 77.5945C156.795 76.4759 156.992 75.2028 156.992 73.7752C156.992 72.3477 156.795 71.0746 156.401 69.956C156.017 68.8374 155.447 67.9531 154.691 67.3033C153.935 66.6534 152.992 66.3285 151.862 66.3285C150.723 66.3285 149.764 66.6534 148.986 67.3033C148.219 67.9531 147.638 68.8374 147.244 69.956C146.861 71.0746 146.669 72.3477 146.669 73.7752C146.669 75.2028 146.861 76.4759 147.244 77.5945C147.638 78.7131 148.219 79.5973 148.986 80.2472C149.764 80.8864 150.723 81.206 151.862 81.206ZM175.145 71.8097V86H168.338V61.4545H174.826V65.7852H175.114C175.657 64.3576 176.568 63.2283 177.846 62.3974C179.125 61.5558 180.675 61.1349 182.496 61.1349C184.201 61.1349 185.687 61.5078 186.955 62.2536C188.223 62.9993 189.208 64.0646 189.911 65.4496C190.614 66.8239 190.966 68.4645 190.966 70.3714V86H184.158V71.5859C184.169 70.0838 183.785 68.9119 183.008 68.0703C182.23 67.218 181.159 66.7919 179.796 66.7919C178.88 66.7919 178.07 66.989 177.367 67.3832C176.674 67.7773 176.131 68.3526 175.737 69.109C175.353 69.8548 175.156 70.755 175.145 71.8097ZM207.389 95.7159C205.184 95.7159 203.293 95.4123 201.716 94.805C200.15 94.2085 198.904 93.3935 197.977 92.3601C197.05 91.3267 196.448 90.1655 196.171 88.8764L202.467 88.0295C202.659 88.5195 202.963 88.9776 203.378 89.4038C203.794 89.8299 204.342 90.1708 205.024 90.4265C205.717 90.6928 206.558 90.826 207.549 90.826C209.03 90.826 210.25 90.4638 211.209 89.7393C212.178 89.0256 212.663 87.8271 212.663 86.1438V81.6534H212.375C212.077 82.3352 211.629 82.9798 211.033 83.587C210.436 84.1942 209.669 84.6896 208.732 85.0732C207.794 85.4567 206.676 85.6484 205.376 85.6484C203.533 85.6484 201.855 85.2223 200.342 84.37C198.84 83.5071 197.641 82.1914 196.747 80.4229C195.862 78.6438 195.42 76.396 195.42 73.6793C195.42 70.8988 195.873 68.5763 196.779 66.712C197.684 64.8477 198.888 63.4521 200.39 62.5252C201.903 61.5984 203.559 61.1349 205.36 61.1349C206.734 61.1349 207.885 61.3693 208.812 61.8381C209.738 62.2962 210.484 62.8714 211.049 63.5639C211.624 64.2457 212.066 64.9169 212.375 65.5774H212.631V61.4545H219.39V86.2397C219.39 88.3278 218.879 90.0749 217.856 91.4812C216.834 92.8874 215.417 93.9421 213.606 94.6452C211.805 95.359 209.733 95.7159 207.389 95.7159ZM207.533 80.5348C208.63 80.5348 209.557 80.2631 210.314 79.7198C211.081 79.1658 211.667 78.3775 212.072 77.3548C212.487 76.3214 212.695 75.0856 212.695 73.6474C212.695 72.2092 212.492 70.9627 212.088 69.908C211.683 68.8427 211.097 68.017 210.33 67.4311C209.563 66.8452 208.63 66.5522 207.533 66.5522C206.415 66.5522 205.472 66.8558 204.705 67.4631C203.938 68.0597 203.357 68.8906 202.963 69.956C202.569 71.0213 202.372 72.2518 202.372 73.6474C202.372 75.0643 202.569 76.2894 202.963 77.3228C203.368 78.3455 203.948 79.1392 204.705 79.7038C205.472 80.2578 206.415 80.5348 207.533 80.5348ZM235.898 86.4794C233.416 86.4794 231.269 85.9521 229.458 84.8974C227.657 83.832 226.267 82.3512 225.287 80.4549C224.307 78.5479 223.817 76.3374 223.817 73.8232C223.817 71.2876 224.307 69.0717 225.287 67.1754C226.267 65.2685 227.657 63.7876 229.458 62.733C231.269 61.6676 233.416 61.1349 235.898 61.1349C238.38 61.1349 240.521 61.6676 242.322 62.733C244.133 63.7876 245.529 65.2685 246.509 67.1754C247.489 69.0717 247.979 71.2876 247.979 73.8232C247.979 76.3374 247.489 78.5479 246.509 80.4549C245.529 82.3512 244.133 83.832 242.322 84.8974C240.521 85.9521 238.38 86.4794 235.898 86.4794ZM235.93 81.206C237.059 81.206 238.002 80.8864 238.758 80.2472C239.515 79.5973 240.085 78.7131 240.468 77.5945C240.862 76.4759 241.059 75.2028 241.059 73.7752C241.059 72.3477 240.862 71.0746 240.468 69.956C240.085 68.8374 239.515 67.9531 238.758 67.3033C238.002 66.6534 237.059 66.3285 235.93 66.3285C234.79 66.3285 233.831 66.6534 233.053 67.3033C232.286 67.9531 231.706 68.8374 231.312 69.956C230.928 71.0746 230.736 72.3477 230.736 73.7752C230.736 75.2028 230.928 76.4759 231.312 77.5945C231.706 78.7131 232.286 79.5973 233.053 80.2472C233.831 80.8864 234.79 81.206 235.93 81.206ZM264.135 86H252.533V53.2727H264.231C267.523 53.2727 270.356 53.9279 272.732 55.2383C275.108 56.538 276.935 58.4077 278.213 60.8473C279.502 63.2869 280.147 66.206 280.147 69.6044C280.147 73.0135 279.502 75.9432 278.213 78.3935C276.935 80.8437 275.097 82.7241 272.7 84.0344C270.314 85.3448 267.459 86 264.135 86ZM259.453 80.0714H263.847C265.893 80.0714 267.613 79.7092 269.009 78.9847C270.415 78.2496 271.47 77.1151 272.173 75.581C272.887 74.0362 273.243 72.044 273.243 69.6044C273.243 67.1861 272.887 65.2099 272.173 63.6758C271.47 62.1417 270.42 61.0124 269.025 60.288C267.629 59.5636 265.909 59.2013 263.863 59.2013H259.453V80.0714ZM285.272 86V53.2727H298.376C300.784 53.2727 302.792 53.6296 304.401 54.3434C306.009 55.0572 307.218 56.0479 308.028 57.3157C308.838 58.5728 309.243 60.0217 309.243 61.6623C309.243 62.9407 308.987 64.0646 308.476 65.0341C307.964 65.9929 307.261 66.7812 306.366 67.3991C305.482 68.0064 304.47 68.4379 303.33 68.6935V69.0131C304.576 69.0664 305.743 69.418 306.83 70.0678C307.927 70.7177 308.816 71.6286 309.498 72.8004C310.18 73.9616 310.521 75.3466 310.521 76.9553C310.521 78.6918 310.09 80.2418 309.227 81.6055C308.374 82.9585 307.112 84.0291 305.439 84.8175C303.767 85.6058 301.705 86 299.255 86H285.272ZM292.192 80.343H297.833C299.761 80.343 301.167 79.9755 302.052 79.2404C302.936 78.4947 303.378 77.5039 303.378 76.2681C303.378 75.3626 303.16 74.5636 302.723 73.8711C302.286 73.1786 301.663 72.6353 300.853 72.2411C300.054 71.8469 299.101 71.6499 297.993 71.6499H292.192V80.343ZM292.192 66.9677H297.321C298.27 66.9677 299.111 66.8026 299.846 66.4723C300.592 66.1314 301.178 65.652 301.604 65.0341C302.041 64.4162 302.259 63.6758 302.259 62.8129C302.259 61.6303 301.838 60.6768 300.997 59.9524C300.166 59.228 298.983 58.8658 297.449 58.8658H292.192V66.9677Z" fill="#001E2B"/>
</svg>
