<svg width="469" height="140" viewBox="0 0 469 140" fill="none" xmlns="http://www.w3.org/2000/svg">
<rect width="469" height="140" rx="20" fill="#3C5280"/>
<path fill-rule="evenodd" clip-rule="evenodd" d="M81.0002 116.508L84.0821 74.4026C86.9278 73.1998 88.9249 70.3825 88.9249 67.0995C88.9249 62.7237 85.376 59.1751 81.0002 59.1751C76.624 59.1751 73.0754 62.7237 73.0754 67.0995C73.0754 70.3825 75.0727 73.1998 77.9184 74.4026L81.0002 116.508Z" fill="#F3771C"/>
<path fill-rule="evenodd" clip-rule="evenodd" d="M26.8778 67.07C26.8778 80.4753 31.7792 93.024 40.2793 102.721L35.1564 107.313C25.564 96.3969 20 82.2197 20 67.07C20 49.9998 27.0164 34.5654 38.3207 23.4922L53.7319 37.3078C39.4901 50.3637 36.5407 71.5958 46.4496 87.9528L51.6812 83.2632C44.1276 69.6175 47.0052 52.3818 58.883 41.9254L73.4732 55.0044C71.6826 56.1267 70.1607 57.6373 69.0255 59.4184C67.622 61.6198 66.8091 64.2335 66.8091 67.0361C66.8091 73.2848 70.8495 78.5911 76.4594 80.485L76.9426 87.0796C67.5949 85.1968 60.5534 76.9374 60.5534 67.0361C60.5534 62.6271 61.9497 58.5439 64.324 55.2038L59.744 51.0974L59.727 51.0821C52.2189 61.0554 52.6827 74.9008 60.7677 84.3546L45.4017 98.1287C30.2743 80.8048 29.8424 55.0925 44.3312 37.2814L39.2059 32.6865C32.1315 41.2755 27.6515 52.0812 26.9691 63.9035L26.9377 63.9387L26.9656 63.9633C26.9072 64.9914 26.8778 66.027 26.8778 67.07ZM85.5406 80.485C91.1505 78.5911 95.1914 73.2848 95.1914 67.0361C95.1914 64.2335 94.3781 61.6198 92.975 59.4189C91.8393 57.6379 90.3174 56.1267 88.5279 55.0044L103.118 41.9254C114.995 52.3818 117.873 69.6175 110.319 83.2632L115.55 87.9528C125.46 71.5958 122.51 50.3637 108.268 37.3078L123.679 23.4922C134.984 34.5654 142 49.9998 142 67.07C142 82.2197 136.436 96.3969 126.844 107.313L121.721 102.721C130.221 93.024 135.122 80.4753 135.122 67.07C135.122 66.027 135.093 64.9912 135.035 63.9631L135.062 63.9386L135.031 63.9033C134.349 52.0811 129.869 41.2753 122.795 32.6863L117.669 37.2813C132.158 55.0923 131.726 80.8046 116.598 98.1285L101.233 84.3544C109.318 74.9006 109.782 61.0552 102.273 51.0819L102.256 51.0972L97.676 55.2042C100.05 58.5437 101.447 62.6275 101.447 67.036C101.447 76.9372 94.4051 85.1961 85.0579 87.0794L85.5406 80.485Z" fill="white"/>
<path fill-rule="evenodd" clip-rule="evenodd" d="M296.605 54.7737C303.541 48.4923 314.26 49.0226 320.541 55.9582C326.408 62.4361 326.332 72.2139 320.645 78.5945L339.021 101.606L317.936 81.0482C311.025 86.0771 301.288 85.1874 295.421 78.7097C289.139 71.7743 289.67 61.0553 296.605 54.7737ZM315.524 72.1821L312.852 68.8348C313.362 67.1735 313.009 65.2937 311.759 63.9127C309.87 61.8265 306.645 61.667 304.56 63.5562C302.474 65.4455 302.314 68.6695 304.203 70.7552C305.454 72.1364 307.29 72.6727 308.993 72.3291L312.06 75.3191C308.54 77.1202 304.116 76.4231 301.336 73.3528C298.012 69.6832 298.293 64.0121 301.962 60.6885C305.632 57.365 311.303 57.646 314.626 61.3155C317.407 64.3854 317.664 68.8569 315.524 72.1821Z" fill="#F3771C"/>
<path fill-rule="evenodd" clip-rule="evenodd" d="M331.114 51.4693H339.178V66.7778C339.178 69.7482 339.377 71.8211 339.785 72.9776C340.204 74.1334 340.852 75.0401 341.759 75.6784C342.666 76.3257 343.782 76.6447 345.108 76.6447C346.433 76.6447 347.55 76.3257 348.477 75.6983C349.403 75.0604 350.091 74.1334 350.54 72.9076C350.868 71.9905 351.028 70.0371 351.028 67.0372V51.4693H359.031V64.9341C359.031 70.4851 358.593 74.2831 357.715 76.3257C356.649 78.8174 355.074 80.7313 352.991 82.0569C350.908 83.3921 348.257 84.0598 345.048 84.0598C341.56 84.0598 338.749 83.2823 336.597 81.7274C334.444 80.1634 332.929 78.0002 332.051 75.2097C331.433 73.286 331.114 69.7776 331.114 64.7049V51.4693ZM243.191 50.6521C246.19 50.6521 249.011 51.4095 251.652 52.9048C254.283 54.3995 256.346 56.4425 257.822 59.0039C259.306 61.5758 260.044 64.3464 260.044 67.3257C260.044 70.326 259.296 73.1265 257.811 75.738C256.317 78.3492 254.293 80.3823 251.722 81.8575C249.151 83.323 246.32 84.0598 243.22 84.0598C238.666 84.0598 234.779 82.4353 231.56 79.1962C228.34 75.9573 226.726 72.0201 226.726 67.3862C226.726 62.4228 228.55 58.2863 232.188 54.9777C235.377 52.0971 239.044 50.6521 243.191 50.6521ZM172 51.4693H180.003V55.1277C181.368 53.6222 182.883 52.5061 184.547 51.768C186.212 51.0312 188.025 50.6521 189.989 50.6521C191.973 50.6521 193.767 51.1407 195.361 52.1174C196.956 53.0937 198.241 54.5094 199.218 56.3833C200.484 54.5094 202.039 53.0937 203.873 52.1174C205.716 51.1407 207.72 50.6521 209.902 50.6521C212.165 50.6521 214.148 51.1804 215.862 52.2371C217.576 53.2836 218.803 54.659 219.55 56.353C220.307 58.0471 220.676 60.7983 220.676 64.6154V83.2428H212.653V67.1267C212.653 63.519 212.205 61.0872 211.308 59.8117C210.41 58.5361 209.065 57.8976 207.281 57.8976C205.916 57.8976 204.689 58.2863 203.613 59.064C202.527 59.8419 201.73 60.9181 201.202 62.2927C200.674 63.6681 200.414 65.8711 200.414 68.9107V83.2428H192.381V67.854C192.381 65.0141 192.172 62.9512 191.753 61.6747C191.335 60.3992 190.707 59.4528 189.87 58.8349C189.032 58.2071 188.025 57.8976 186.839 57.8976C185.514 57.8976 184.308 58.2965 183.232 59.0839C182.155 59.8709 181.338 60.9778 180.81 62.3926C180.271 63.8181 180.003 66.0501 180.003 69.1104V83.2428H172V51.4693ZM285.996 55.9146L281.063 60.8485C279.061 58.8643 277.246 57.868 275.611 57.868C274.714 57.868 274.007 58.0575 273.508 58.4363C273 58.8146 272.741 59.2933 272.741 59.851C272.741 60.2795 272.91 60.6786 273.23 61.0371C273.548 61.3964 274.345 61.8845 275.611 62.5123L278.522 63.9673C281.601 65.4927 283.714 67.0372 284.861 68.6116C286.007 70.1867 286.585 72.0407 286.585 74.1633C286.585 76.9833 285.548 79.3359 283.475 81.2298C281.402 83.1132 278.622 84.0598 275.143 84.0598C270.508 84.0598 266.811 82.2467 264.04 78.6286L268.954 73.286C269.881 74.373 270.977 75.2598 272.233 75.9274C273.488 76.5946 274.605 76.934 275.581 76.934C276.628 76.934 277.475 76.6849 278.113 76.1769C278.761 75.668 279.08 75.09 279.08 74.4219C279.08 73.1965 277.924 72 275.611 70.8344L272.921 69.4889C267.778 66.8975 265.216 63.6586 265.216 59.7719C265.216 57.2597 266.183 55.1069 268.117 53.3333C270.05 51.5493 272.532 50.6521 275.552 50.6521C277.615 50.6521 279.548 51.1109 281.372 52.0175C283.196 52.9247 284.741 54.2201 285.996 55.9146ZM243.31 58.1569C240.839 58.1569 238.775 59.0238 237.131 60.7486C235.487 62.473 234.669 64.6746 234.669 67.3559C234.669 70.1266 235.476 72.3594 237.111 74.0738C238.736 75.7878 240.789 76.6447 243.28 76.6447C245.772 76.6447 247.845 75.7774 249.499 74.0435C251.154 72.3097 251.981 70.0873 251.981 67.3559C251.981 64.6353 251.174 62.4228 249.549 60.7184C247.915 59.0143 245.842 58.1569 243.31 58.1569ZM432.146 50.6521C435.146 50.6521 437.967 51.4095 440.607 52.9048C443.239 54.3995 445.302 56.4425 446.777 59.0039C448.262 61.5758 449 64.3464 449 67.3257C449 70.326 448.252 73.1265 446.767 75.738C445.273 78.3492 443.249 80.3823 440.678 81.8575C438.107 83.323 435.276 84.0598 432.176 84.0598C427.622 84.0598 423.735 82.4353 420.516 79.1962C417.296 75.9573 415.682 72.0201 415.682 67.3862C415.682 62.4228 417.506 58.2863 421.143 54.9777C424.333 52.0971 428 50.6521 432.146 50.6521ZM432.266 58.1569C429.795 58.1569 427.731 59.0238 426.087 60.7486C424.442 62.473 423.625 64.6746 423.625 67.3559C423.625 70.1266 424.432 72.3594 426.067 74.0738C427.691 75.7878 429.744 76.6447 432.236 76.6447C434.728 76.6447 436.801 75.7774 438.455 74.0435C440.11 72.3097 440.937 70.0873 440.937 67.3559C440.937 64.6353 440.129 62.4228 438.505 60.7184C436.871 59.0143 434.797 58.1569 432.266 58.1569ZM400.263 39.7689H408.207V51.4693H412.93V58.3364H408.207V83.2428H400.263V58.3364H396.177V51.4693H400.263V39.7689ZM382.333 39.7689H390.276V51.4693H395V58.3364H390.276V83.2428H382.333V58.3364H378.247V51.4693H382.333V39.7689ZM370.164 38.3936C371.559 38.3936 372.765 38.902 373.772 39.9087C374.768 40.9247 375.266 42.151 375.266 43.586C375.266 45.0113 374.779 46.2267 373.781 47.2237C372.785 48.2303 371.599 48.7288 370.224 48.7288C368.798 48.7288 367.582 48.2199 366.586 47.1935C365.579 46.1773 365.081 44.9312 365.081 43.4767C365.081 42.071 365.58 40.8746 366.566 39.8784C367.562 38.8916 368.758 38.3936 370.164 38.3936ZM366.157 51.4693H374.161V83.2428H366.157V51.4693Z" fill="white"/>
</svg>
