<svg width="340" height="140" viewBox="0 0 340 140" fill="none" xmlns="http://www.w3.org/2000/svg">
<rect width="339.019" height="140" rx="20" fill="#F3E814"/>
<path d="M20 90L36.8224 59.7196C41.6822 50.7477 48.1869 50 62.243 50L40.5607 90H20Z" fill="black"/>
<path d="M44.2991 90L67.1028 50H87.2897L65.6075 90H44.2991Z" fill="black"/>
<path d="M111.963 50L96.2617 78.4112C90.2804 87.3832 89.1589 90 69.3458 90L91.4019 50H111.963Z" fill="black"/>
<path d="M134.019 60.0935C134.019 65.6679 129.5 70.1869 123.925 70.1869C118.351 70.1869 113.832 65.6679 113.832 60.0935C113.832 54.519 118.351 50 123.925 50C129.5 50 134.019 54.519 134.019 60.0935Z" fill="black"/>
<path d="M166.863 53.2727H175.396L184.409 75.2614H184.793L193.805 53.2727H202.339V86H195.627V64.6985H195.356L186.886 85.8402H182.316L173.846 64.6186H173.575V86H166.863V53.2727ZM219.002 86.4794C216.52 86.4794 214.373 85.9521 212.562 84.8974C210.762 83.832 209.371 82.3512 208.391 80.4549C207.411 78.5479 206.921 76.3374 206.921 73.8232C206.921 71.2876 207.411 69.0717 208.391 67.1754C209.371 65.2685 210.762 63.7876 212.562 62.733C214.373 61.6676 216.52 61.1349 219.002 61.1349C221.484 61.1349 223.626 61.6676 225.426 62.733C227.237 63.7876 228.633 65.2685 229.613 67.1754C230.593 69.0717 231.083 71.2876 231.083 73.8232C231.083 76.3374 230.593 78.5479 229.613 80.4549C228.633 82.3512 227.237 83.832 225.426 84.8974C223.626 85.9521 221.484 86.4794 219.002 86.4794ZM219.034 81.206C220.163 81.206 221.106 80.8864 221.863 80.2472C222.619 79.5973 223.189 78.7131 223.572 77.5945C223.967 76.4759 224.164 75.2028 224.164 73.7752C224.164 72.3477 223.967 71.0746 223.572 69.956C223.189 68.8374 222.619 67.9531 221.863 67.3033C221.106 66.6534 220.163 66.3285 219.034 66.3285C217.894 66.3285 216.935 66.6534 216.158 67.3033C215.391 67.9531 214.81 68.8374 214.416 69.956C214.032 71.0746 213.841 72.3477 213.841 73.7752C213.841 75.2028 214.032 76.4759 214.416 77.5945C214.81 78.7131 215.391 79.5973 216.158 80.2472C216.935 80.8864 217.894 81.206 219.034 81.206ZM248.565 61.4545V66.5682H233.784V61.4545H248.565ZM237.14 55.5739H243.947V78.4574C243.947 79.0859 244.043 79.576 244.235 79.9276C244.426 80.2685 244.693 80.5082 245.034 80.6467C245.385 80.7852 245.79 80.8544 246.248 80.8544C246.568 80.8544 246.887 80.8278 247.207 80.7745C247.527 80.7106 247.772 80.6626 247.942 80.6307L249.013 85.6964C248.672 85.8029 248.192 85.9254 247.575 86.0639C246.957 86.2131 246.206 86.3036 245.321 86.3356C243.681 86.3995 242.243 86.1811 241.007 85.6804C239.782 85.1797 238.828 84.402 238.146 83.3473C237.464 82.2926 237.129 80.9609 237.14 79.3523V55.5739ZM253 86V61.4545H259.807V86H253ZM256.42 58.2905C255.407 58.2905 254.539 57.9549 253.815 57.2837C253.101 56.6019 252.744 55.7869 252.744 54.8388C252.744 53.9013 253.101 53.0969 253.815 52.4258C254.539 51.744 255.407 51.4031 256.42 51.4031C257.432 51.4031 258.295 51.744 259.008 52.4258C259.733 53.0969 260.095 53.9013 260.095 54.8388C260.095 55.7869 259.733 56.6019 259.008 57.2837C258.295 57.9549 257.432 58.2905 256.42 58.2905ZM276.351 86.4794C273.869 86.4794 271.722 85.9521 269.911 84.8974C268.11 83.832 266.72 82.3512 265.74 80.4549C264.76 78.5479 264.27 76.3374 264.27 73.8232C264.27 71.2876 264.76 69.0717 265.74 67.1754C266.72 65.2685 268.11 63.7876 269.911 62.733C271.722 61.6676 273.869 61.1349 276.351 61.1349C278.833 61.1349 280.974 61.6676 282.775 62.733C284.586 63.7876 285.981 65.2685 286.962 67.1754C287.942 69.0717 288.432 71.2876 288.432 73.8232C288.432 76.3374 287.942 78.5479 286.962 80.4549C285.981 82.3512 284.586 83.832 282.775 84.8974C280.974 85.9521 278.833 86.4794 276.351 86.4794ZM276.383 81.206C277.512 81.206 278.455 80.8864 279.211 80.2472C279.968 79.5973 280.538 78.7131 280.921 77.5945C281.315 76.4759 281.512 75.2028 281.512 73.7752C281.512 72.3477 281.315 71.0746 280.921 69.956C280.538 68.8374 279.968 67.9531 279.211 67.3033C278.455 66.6534 277.512 66.3285 276.383 66.3285C275.243 66.3285 274.284 66.6534 273.506 67.3033C272.739 67.9531 272.159 68.8374 271.764 69.956C271.381 71.0746 271.189 72.3477 271.189 73.7752C271.189 75.2028 271.381 76.4759 271.764 77.5945C272.159 78.7131 272.739 79.5973 273.506 80.2472C274.284 80.8864 275.243 81.206 276.383 81.206ZM299.666 71.8097V86H292.858V61.4545H299.346V65.7852H299.634C300.177 64.3576 301.088 63.2283 302.366 62.3974C303.645 61.5558 305.195 61.1349 307.017 61.1349C308.721 61.1349 310.207 61.5078 311.475 62.2536C312.743 62.9993 313.728 64.0646 314.431 65.4496C315.135 66.8239 315.486 68.4645 315.486 70.3714V86H308.679V71.5859C308.689 70.0838 308.306 68.9119 307.528 68.0703C306.75 67.218 305.68 66.7919 304.316 66.7919C303.4 66.7919 302.59 66.989 301.887 67.3832C301.195 67.7773 300.651 68.3526 300.257 69.109C299.873 69.8548 299.676 70.755 299.666 71.8097Z" fill="black"/>
</svg>
