<svg width="305" height="140" viewBox="0 0 305 140" fill="none" xmlns="http://www.w3.org/2000/svg">
<rect width="305" height="140" rx="20" fill="#660066"/>
<path d="M20.2957 76.6782H20V114.924C20 117.684 22.2671 119.951 25.0271 119.951H64.4061C64.0611 96.0473 44.4455 76.6782 20.2957 76.6782ZM20.2957 45.1356H20V61.3997C52.479 61.5476 78.896 87.6688 79.241 119.951H96.0966C95.8009 78.6496 61.9418 45.1356 20.2957 45.1356ZM120 114.973V80.4239C108.566 52.4298 85.5495 30.3007 56.9147 20H25.0271C22.2671 20 20 22.2671 20 25.0271V29.9064C69.9753 30.0542 110.636 70.3204 110.931 120H114.973C117.782 119.951 120 117.733 120 114.973ZM106.841 33.9478C111.474 38.5806 116.205 44.4456 120 49.6205V24.9778C120.002 24.3236 119.875 23.6754 119.625 23.0706C119.376 22.4658 119.009 21.9163 118.546 21.4536C118.084 20.991 117.534 20.6244 116.929 20.375C116.325 20.1255 115.676 19.9981 115.022 20H89.6402C95.5544 24.0907 101.666 28.7728 106.841 33.9478Z" fill="white"/>
<path d="M152.844 53.2727H161.378L170.391 75.2614H170.774L179.787 53.2727H188.32V86H181.609V64.6985H181.337L172.868 85.8402H168.297L159.828 64.6186H159.556V86H152.844V53.2727ZM206.374 74.6222H212.255L215.211 78.4254L218.119 81.8132L223.6 88.6847H217.144L213.373 84.0504L211.44 81.3018L206.374 74.6222ZM224.096 69.6364C224.096 73.2053 223.419 76.2415 222.066 78.745C220.724 81.2486 218.892 83.1609 216.569 84.4819C214.257 85.7923 211.658 86.4474 208.771 86.4474C205.862 86.4474 203.252 85.7869 200.941 84.4659C198.629 83.1449 196.802 81.2326 195.459 78.729C194.117 76.2255 193.446 73.1946 193.446 69.6364C193.446 66.0675 194.117 63.0312 195.459 60.5277C196.802 58.0241 198.629 56.1172 200.941 54.8068C203.252 53.4858 205.862 52.8253 208.771 52.8253C211.658 52.8253 214.257 53.4858 216.569 54.8068C218.892 56.1172 220.724 58.0241 222.066 60.5277C223.419 63.0312 224.096 66.0675 224.096 69.6364ZM217.081 69.6364C217.081 67.3246 216.734 65.375 216.042 63.7876C215.36 62.2003 214.396 60.9964 213.149 60.1761C211.903 59.3558 210.443 58.9457 208.771 58.9457C207.098 58.9457 205.639 59.3558 204.392 60.1761C203.146 60.9964 202.176 62.2003 201.484 63.7876C200.802 65.375 200.461 67.3246 200.461 69.6364C200.461 71.9482 200.802 73.8977 201.484 75.4851C202.176 77.0724 203.146 78.2763 204.392 79.0966C205.639 79.9169 207.098 80.3271 208.771 80.3271C210.443 80.3271 211.903 79.9169 213.149 79.0966C214.396 78.2763 215.36 77.0724 216.042 75.4851C216.734 73.8977 217.081 71.9482 217.081 69.6364ZM226.481 58.9776V53.2727H253.359V58.9776H243.34V86H236.5V58.9776H226.481ZM256.539 58.9776V53.2727H283.418V58.9776H273.398V86H266.559V58.9776H256.539Z" fill="white"/>
</svg>
