<svg width="140" height="140" viewBox="0 0 140 140" fill="none" xmlns="http://www.w3.org/2000/svg">
<rect width="140" height="140" rx="20" fill="#00618A"/>
<path d="M112.901 97.3918C107.341 97.2411 103.094 97.758 99.4632 99.2892C98.4314 99.7245 96.7861 99.7358 96.6177 101.029C97.1847 101.623 97.2727 102.511 97.7235 103.242C98.5905 104.645 100.054 106.525 101.36 107.511C102.787 108.588 104.258 109.74 105.787 110.673C108.508 112.332 111.546 113.279 114.166 114.942C115.71 115.921 117.244 117.155 118.751 118.261C119.495 118.808 119.996 119.658 120.964 120C120.964 119.948 120.964 119.895 120.964 119.842C120.455 119.195 120.324 118.305 119.857 117.629C119.172 116.944 118.487 116.259 117.802 115.573C115.792 112.906 113.241 110.563 110.53 108.617C108.367 107.065 103.527 104.968 102.625 102.452C102.572 102.399 102.52 102.346 102.466 102.293C104 102.121 105.795 101.566 107.21 101.187C109.587 100.549 111.711 100.714 114.166 100.08C115.273 99.764 116.379 99.447 117.486 99.1315C117.486 98.9202 117.486 98.7103 117.486 98.499C116.245 97.2256 115.361 95.5408 114.008 94.3885C110.468 91.374 106.604 88.3623 102.625 85.8509C100.418 84.4581 97.6911 83.5529 95.3527 82.3726C94.566 81.9757 93.1841 81.7694 92.6643 81.1077C91.436 79.5415 90.7669 77.5565 89.8195 75.7324C87.8347 71.9109 85.8859 67.7372 84.1279 63.7169C82.9284 60.9752 82.1452 58.2714 80.6499 55.8117C73.4714 44.0094 65.7442 36.8856 53.7742 29.8836C51.2273 28.3945 48.1607 27.8064 44.92 27.0381C43.1818 26.9329 41.4421 26.827 39.7031 26.7218C38.6417 26.2781 37.5373 24.9795 36.5414 24.3502C32.576 21.8451 22.4048 16.3962 19.4677 23.5598C17.6133 28.0815 22.2393 32.4939 23.8937 34.7851C25.0552 36.3925 26.542 38.1946 27.3717 40.0021C27.9176 41.1901 28.0119 42.3814 28.4789 43.6387C29.6284 46.7352 30.6278 50.1042 32.1147 52.9662C32.8662 54.4141 33.6945 55.9397 34.6446 57.2348C35.2271 58.0293 36.2251 58.3793 36.3829 59.6064C35.4067 60.9725 35.351 63.093 34.8024 64.8236C32.3316 72.6145 33.2634 82.2983 36.8576 88.0644C37.9606 89.8343 40.5581 93.6307 44.1298 92.1748C47.2542 90.9021 46.5562 86.9586 47.45 83.4793C47.6521 82.6903 47.5282 82.1105 47.924 81.5823C47.924 81.6346 47.924 81.6875 47.924 81.7405C48.8727 83.6375 49.8215 85.5345 50.7702 87.4312C52.8761 90.8232 56.614 94.3681 59.7814 96.76C61.4239 98.0003 62.717 100.145 64.8406 100.87C64.8406 100.818 64.8406 100.766 64.8406 100.712C64.787 100.712 64.7349 100.712 64.6821 100.712C64.2708 100.07 63.627 99.8048 63.1016 99.2892C61.8641 98.0764 60.4885 96.5684 59.4651 95.1788C56.5844 91.2677 54.0383 86.9867 51.7189 82.5308C50.611 80.4034 49.6482 78.0559 48.7143 75.8906C48.3544 75.0556 48.3586 73.7934 47.6085 73.3608C46.5858 74.9476 45.0792 76.2304 44.2883 78.104C43.0233 81.0988 42.8599 84.7511 42.3915 88.5384C42.114 88.6377 42.2373 88.5694 42.0746 88.6962C39.8728 88.1651 39.0988 85.8983 38.2811 83.9539C36.211 79.036 35.8265 71.1171 37.6479 65.4564C38.1191 63.992 40.2489 59.3788 39.3868 58.0258C38.9755 56.6756 37.6176 55.895 36.8576 54.8633C35.9173 53.588 34.9785 51.909 34.3277 50.4364C32.6337 46.6018 31.8428 42.2974 30.0594 38.4216C29.2072 36.5686 27.7654 34.6936 26.5815 33.0463C25.2707 31.2215 23.8029 29.8774 22.7872 27.6703C22.4259 26.8862 21.935 25.6308 22.471 24.8247C22.6414 24.2806 22.8816 24.0537 23.4197 23.8762C24.3368 23.1691 26.8907 24.1115 27.8457 24.5083C30.3813 25.5614 32.4971 26.5642 34.6446 27.9867C35.6757 28.6704 36.7181 29.9923 37.9641 30.3583C38.4381 30.3583 38.9128 30.3583 39.3868 30.3583C41.6125 30.87 44.1058 30.5172 46.185 31.1485C49.8602 32.2656 53.1536 34.003 56.1449 35.8918C65.2575 41.6454 72.7079 49.836 77.8044 59.6064C78.6243 61.1795 78.9792 62.681 79.7012 64.3496C81.1584 67.7145 82.9939 71.177 84.4434 74.4675C85.8901 77.7505 87.3002 81.0637 89.3448 83.7957C90.4203 85.2318 94.5723 86.0022 96.4592 86.7994C97.782 87.3586 99.9492 87.9411 101.202 88.6962C103.595 90.14 105.914 91.8586 108.159 93.4398C109.281 94.2301 112.729 95.9634 112.901 97.3918Z" fill="white"/>
<path fill-rule="evenodd" clip-rule="evenodd" d="M42.233 37.1566C41.0737 37.1353 40.2538 37.2832 39.3868 37.4724C39.3868 37.5253 39.3868 37.5782 39.3868 37.6306C39.4396 37.6306 39.4925 37.6306 39.5453 37.6306C40.0982 38.7668 41.0744 39.498 41.7583 40.4768C42.2851 41.5835 42.8119 42.6902 43.3395 43.7962C43.3916 43.7439 43.4451 43.691 43.4973 43.6386C44.4763 42.9487 44.9249 41.8449 44.92 40.1604C44.5277 39.7476 44.4699 39.2298 44.1297 38.7372C43.6776 38.0811 42.8028 37.7083 42.233 37.1566Z" fill="white"/>
</svg>
