<svg width="140" height="140" viewBox="0 0 140 140" fill="none" xmlns="http://www.w3.org/2000/svg">
<rect width="140" height="140" rx="20" fill="#E0234E"/>
<path fill-rule="evenodd" clip-rule="evenodd" d="M78.9161 20C78.1902 20 77.516 20.1556 76.8938 20.363C78.2161 21.2445 78.942 22.4112 79.3049 23.7335C79.3309 23.9149 79.3827 24.0446 79.4087 24.2261C79.4347 24.3816 79.4605 24.5372 79.4605 24.6928C79.5642 26.9743 78.8642 27.2595 78.3716 28.6077C77.6197 30.3448 77.8271 32.2116 78.7346 33.7152C78.8124 33.8968 78.9161 34.1042 79.0457 34.2857C78.0604 27.7262 83.531 26.741 84.5422 24.6928C84.62 22.9038 83.1422 21.7112 81.9754 20.8815C80.8605 20.2074 79.8495 20 78.9161 20ZM87.1608 21.4778C87.057 22.0741 87.1348 21.9186 87.1089 22.2297C87.083 22.4371 87.083 22.6964 87.0571 22.9038C87.0053 23.1112 86.9534 23.3186 86.8756 23.5261C86.8238 23.7335 86.746 23.9409 86.6683 24.1483C86.5645 24.3557 86.4868 24.5372 86.3831 24.7446C86.3053 24.8484 86.2535 24.952 86.1757 25.0557C86.1239 25.1335 86.0719 25.2113 86.0201 25.2891C85.8904 25.4706 85.7608 25.6521 85.6311 25.8076C85.4756 25.9632 85.346 26.1447 85.1645 26.2743V26.3003C85.0089 26.4299 84.8534 26.5854 84.6719 26.7151C84.1274 27.1299 83.5052 27.441 82.9348 27.8299C82.7533 27.9596 82.5718 28.0633 82.4162 28.2188C82.2348 28.3485 82.0792 28.4781 81.9237 28.6337C81.7422 28.7892 81.6125 28.9448 81.457 29.1263C81.3274 29.2818 81.1717 29.4633 81.068 29.6448C80.9384 29.8263 80.8088 30.0078 80.7051 30.1893C80.6013 30.3967 80.5236 30.5781 80.4199 30.7856C80.3421 30.993 80.2643 31.1745 80.2125 31.3819C80.1347 31.6152 80.0829 31.8226 80.031 32.03C80.0051 32.1338 80.0051 32.2635 79.9792 32.3672C79.9532 32.4709 79.9532 32.5746 79.9274 32.6783C79.9274 32.8857 79.9014 33.119 79.9014 33.3264C79.9014 33.4819 79.9014 33.6375 79.9274 33.7932C79.9274 34.0006 79.9534 34.2079 80.0052 34.4413C80.0311 34.6487 80.0829 34.8561 80.1348 35.0635C80.2126 35.2709 80.2644 35.4784 80.3422 35.6858C80.394 35.8154 80.4718 35.945 80.5237 36.0487L74.5605 33.7413C73.5494 33.456 72.5642 33.1968 71.553 32.9634C71.0085 32.8338 70.4641 32.7042 69.9196 32.5746C68.364 32.2635 66.7825 32.03 65.2009 31.8745C65.1491 31.8745 65.1231 31.8485 65.0713 31.8485C63.5157 31.693 61.986 31.6152 60.4304 31.6152C59.2896 31.6152 58.1489 31.667 57.034 31.7448C55.4524 31.8486 53.8709 32.0559 52.2894 32.3153C51.9005 32.3671 51.5115 32.4449 51.1226 32.5227C50.319 32.6782 49.5411 32.8597 48.7893 33.0412C48.4003 33.1449 48.0114 33.2486 47.6225 33.3523C47.2337 33.5078 46.8706 33.6893 46.5077 33.845C46.2225 33.9746 45.9373 34.1042 45.6521 34.2339C45.6003 34.2598 45.5484 34.2598 45.5225 34.2857C45.2632 34.4153 45.0298 34.519 44.7965 34.6486C44.7187 34.6746 44.6669 34.7004 44.615 34.7264C44.3299 34.856 44.0447 35.0116 43.8113 35.1412C43.6298 35.219 43.4483 35.3228 43.2928 35.4005C43.215 35.4524 43.1113 35.5043 43.0594 35.5302C42.8261 35.6598 42.5928 35.7894 42.3854 35.919C42.1519 36.0487 41.9445 36.1783 41.7631 36.3079C41.5816 36.4376 41.4001 36.5412 41.2446 36.6709C41.2186 36.6968 41.1927 36.6968 41.1668 36.7227C41.0112 36.8264 40.8298 36.9561 40.6741 37.0857C40.6741 37.0857 40.6481 37.1117 40.6223 37.1376C40.4927 37.2413 40.363 37.3449 40.2334 37.4486C40.1816 37.4746 40.1297 37.5264 40.0779 37.5524C39.9482 37.6561 39.8186 37.7857 39.689 37.8894C39.663 37.9412 39.6112 37.9672 39.5853 37.9932C39.4297 38.1487 39.2742 38.2783 39.1185 38.434C39.0925 38.434 39.0925 38.4599 39.0667 38.4858C38.9111 38.6154 38.7556 38.771 38.6 38.9265C38.5741 38.9525 38.5741 38.9783 38.5482 38.9783C38.4186 39.108 38.289 39.2376 38.1593 39.3931C38.1075 39.4449 38.0297 39.4969 37.9779 39.5487C37.8483 39.7042 37.6927 39.8598 37.537 40.0154C37.5111 40.0672 37.4593 40.0932 37.4333 40.1451C37.2259 40.3525 37.0444 40.5599 36.837 40.7673C36.8111 40.7932 36.7852 40.8191 36.7593 40.845C36.3444 41.2858 35.9036 41.7266 35.437 42.1155C34.9703 42.5303 34.4776 42.9192 33.9851 43.2563C33.4666 43.6192 32.9739 43.9303 32.4294 44.2414C31.9109 44.5266 31.3664 44.786 30.7961 45.0193C30.2516 45.2526 29.6812 45.46 29.1108 45.6415C28.0219 45.8748 26.907 46.3156 25.9478 46.3934C25.7403 46.3934 25.507 46.4452 25.2996 46.4712C25.0662 46.523 24.8588 46.5749 24.6514 46.6268C24.444 46.7045 24.2366 46.7823 24.0292 46.8601C23.8218 46.9378 23.6143 47.0416 23.4069 47.1453C23.2254 47.2749 23.018 47.3786 22.8365 47.5082C22.6551 47.6378 22.4736 47.7935 22.318 47.949C22.1365 48.0787 21.955 48.2601 21.7995 48.4157C21.6439 48.5972 21.4883 48.7527 21.3587 48.9342C21.2291 49.1416 21.0735 49.3232 20.9698 49.5306C20.8402 49.712 20.7105 49.9194 20.6068 50.1268C20.5031 50.3602 20.3994 50.5676 20.3216 50.8009C20.2439 51.0084 20.1661 51.2417 20.0883 51.4751C20.0365 51.6825 19.9845 51.8899 19.9587 52.0972C19.9587 52.1232 19.9327 52.1491 19.9327 52.175C19.8809 52.4085 19.8809 52.7196 19.8549 52.8751C19.8289 53.0566 19.8031 53.2121 19.8031 53.3936C19.8031 53.4974 19.8031 53.6269 19.8291 53.7306C19.855 53.9121 19.8809 54.0678 19.9328 54.2233C19.9846 54.3789 20.0366 54.5344 20.1143 54.69V54.7159C20.1921 54.8715 20.2958 55.027 20.3995 55.1826C20.5032 55.3381 20.6069 55.4938 20.7365 55.6494C20.8662 55.779 21.0217 55.9345 21.1773 56.0642C21.3329 56.2197 21.4884 56.3493 21.6699 56.4789C22.2922 57.0234 22.4477 57.205 23.2514 57.6198C23.3811 57.6975 23.5107 57.7494 23.6663 57.8272C23.6923 57.8272 23.7181 57.8531 23.7441 57.8531C23.7441 57.9049 23.7441 57.9309 23.77 57.9828C23.796 58.1902 23.8478 58.3976 23.8997 58.605C23.9515 58.8384 24.0293 59.0458 24.1071 59.2273C24.1849 59.3828 24.2367 59.5384 24.3145 59.6939C24.3405 59.7457 24.3663 59.7977 24.3923 59.8235C24.496 60.0309 24.5997 60.2125 24.7034 60.394C24.833 60.5755 24.9627 60.7569 25.0923 60.9384C25.2219 61.094 25.3775 61.2755 25.533 61.431C25.6886 61.5866 25.8442 61.7162 26.0257 61.8718C26.0257 61.8718 26.0516 61.8978 26.0775 61.8978C26.233 62.0275 26.3886 62.1571 26.5442 62.2608C26.7257 62.3904 26.9071 62.4941 27.1146 62.5978C27.2961 62.7015 27.5035 62.8052 27.7109 62.883C27.8664 62.9608 28.0479 63.0126 28.2294 63.0645C28.2554 63.0904 28.2812 63.0905 28.3332 63.1163C28.4369 63.1423 28.5665 63.1681 28.6702 63.194C28.5924 64.5941 28.5665 65.9164 28.7739 66.3831C29.0073 66.9016 30.1481 65.3201 31.2888 63.5053C31.1333 65.2942 31.0296 67.3942 31.2888 68.0165C31.5741 68.6646 33.1297 66.6424 34.4778 64.4126C52.8599 60.1606 69.6346 72.8648 71.3976 90.8061C71.0606 88.006 67.6123 86.4504 66.0308 86.8394C65.253 88.7579 63.9307 91.2209 61.8047 92.7506C61.9862 91.0394 61.9085 89.2764 61.5455 87.5653C60.9751 89.9506 59.8602 92.1803 58.3305 94.0988C55.8675 94.2803 53.4045 93.0877 52.1081 91.2988C52.0044 91.2209 51.9785 91.0654 51.9007 90.9617C51.8229 90.7802 51.7451 90.5987 51.6933 90.4172C51.6154 90.2358 51.5636 90.0543 51.5376 89.8728C51.5117 89.6912 51.5117 89.5098 51.5117 89.3024C51.5117 89.1727 51.5117 89.0431 51.5117 88.9135C51.5376 88.732 51.5895 88.5505 51.6413 88.3691C51.6932 88.1876 51.7451 88.006 51.8229 87.8245C51.9266 87.6431 52.0044 87.4616 52.134 87.2801C52.5747 86.0356 52.5747 85.0245 51.771 84.4281C51.6154 84.3244 51.4598 84.2467 51.2783 84.1689C51.1746 84.1429 51.045 84.0911 50.9413 84.0651C50.8636 84.0392 50.8117 84.0133 50.7339 83.9874C50.5524 83.9356 50.371 83.8836 50.1895 83.8577C50.0079 83.8059 49.8264 83.78 49.645 83.78C49.4635 83.754 49.2561 83.7282 49.0746 83.7282C48.945 83.7282 48.8154 83.7541 48.6857 83.7541C48.4782 83.7541 48.2968 83.7801 48.1153 83.8319C47.9338 83.8579 47.7523 83.8837 47.5709 83.9356C47.3894 83.9874 47.2079 84.0394 47.0264 84.1171C46.8449 84.1949 46.6893 84.2727 46.5078 84.3504C46.3523 84.4282 46.1967 84.5319 46.0152 84.6097C39.9743 88.5506 43.5781 97.7806 47.7005 100.451C46.1449 100.736 44.5633 101.073 44.1226 101.41C44.0966 101.436 44.0708 101.462 44.0708 101.462C45.1856 102.136 46.3523 102.707 47.5709 103.199C49.2302 103.744 50.9932 104.236 51.7711 104.444V104.47C53.923 104.91 56.1008 105.066 58.3046 104.936C69.7902 104.133 79.2016 95.3952 80.9128 83.8838C80.9646 84.1171 81.0165 84.3245 81.0683 84.5578C81.1461 85.0245 81.2499 85.5172 81.3017 86.0097V86.0357C81.3535 86.2691 81.3795 86.5024 81.4055 86.7099V86.8136C81.4315 87.0469 81.4573 87.2803 81.4573 87.4877C81.4832 87.7729 81.5091 88.058 81.5091 88.3433V88.7581C81.5091 88.8877 81.535 89.0433 81.535 89.1729C81.535 89.3285 81.5091 89.484 81.5091 89.6396V90.0026C81.5091 90.1841 81.4831 90.3396 81.4831 90.5211C81.4831 90.6248 81.4831 90.7285 81.4571 90.8581C81.4571 91.0396 81.4312 91.2212 81.4312 91.4286C81.4052 91.5064 81.4052 91.5842 81.4052 91.6619C81.3792 91.8693 81.3534 92.0508 81.3274 92.2582C81.3274 92.336 81.3274 92.4138 81.3014 92.4915C81.2754 92.7508 81.2237 92.9842 81.1977 93.2435V93.2954C81.1458 93.5287 81.0939 93.788 81.042 94.0213V94.0991C80.9902 94.3324 80.9383 94.5658 80.8865 94.7992C80.8865 94.8252 80.8606 94.8769 80.8606 94.9029C80.8087 95.1362 80.7568 95.3696 80.6791 95.6029V95.6807C80.6013 95.9399 80.5235 96.1733 80.4717 96.4067C80.4457 96.4326 80.4457 96.4585 80.4457 96.4585C80.3679 96.7177 80.2902 96.977 80.2124 97.2362C80.1087 97.4956 80.0309 97.7289 79.9272 97.9882C79.8235 98.2474 79.7457 98.5067 79.6419 98.74C79.5382 98.9993 79.4345 99.2327 79.3308 99.4919H79.3048C79.2011 99.7252 79.0974 99.9845 78.9678 100.218C78.9418 100.296 78.916 100.348 78.89 100.399C78.8641 100.425 78.8641 100.451 78.8382 100.477C77.153 103.874 74.664 106.855 71.5528 109.189C71.3454 109.318 71.1379 109.474 70.9306 109.629C70.8787 109.681 70.8009 109.707 70.7491 109.759C70.5676 109.889 70.3861 110.018 70.1786 110.148L70.2564 110.303H70.2824C70.6454 110.252 71.0084 110.2 71.3713 110.148H71.3973C72.0714 110.044 72.7455 109.914 73.4195 109.785C73.6011 109.759 73.8085 109.707 73.99 109.655C74.1196 109.629 74.2233 109.603 74.3529 109.577C74.5344 109.551 74.7159 109.5 74.8974 109.474C75.053 109.422 75.2086 109.396 75.3641 109.344C77.9567 108.722 80.4717 107.866 82.8829 106.855C78.7605 112.481 73.2381 117.018 66.7823 120C69.7639 119.793 72.7455 119.3 75.6234 118.47C86.0719 115.385 94.861 108.359 100.124 98.8955C99.0612 104.885 96.6759 110.588 93.1499 115.567C95.6648 113.907 97.9722 111.989 100.072 109.811C105.88 103.744 109.691 96.0436 110.988 87.7729C111.869 91.8694 112.128 96.0955 111.739 100.27C130.459 74.1614 113.295 47.0937 106.113 39.9639C106.087 39.912 106.061 39.886 106.061 39.8342C106.035 39.8602 106.035 39.8602 106.035 39.886C106.035 39.8601 106.035 39.8601 106.01 39.8342C106.01 40.1454 105.984 40.4565 105.958 40.7676C105.88 41.3639 105.802 41.9343 105.698 42.5047C105.569 43.0751 105.413 43.6455 105.258 44.2159C105.076 44.7604 104.869 45.3307 104.635 45.8752C104.402 46.3938 104.143 46.9382 103.858 47.4567C103.572 47.9494 103.261 48.4679 102.924 48.9345C102.587 49.4272 102.224 49.8939 101.861 50.3346C101.472 50.8012 101.058 51.2161 100.643 51.6309C100.383 51.8643 100.15 52.0717 99.8908 52.2791C99.6834 52.4606 99.5019 52.6162 99.2945 52.7977C98.8279 53.1606 98.3612 53.4976 97.8426 53.8088C97.35 54.12 96.8315 54.4311 96.3129 54.6903C95.7685 54.9496 95.2241 55.1829 94.6795 55.4162C94.1351 55.6237 93.5647 55.8052 92.9943 55.9607C92.4239 56.1163 91.8276 56.2459 91.2572 56.3496C90.6609 56.4534 90.0646 56.5052 89.4942 56.557C89.0794 56.583 88.6645 56.6088 88.2497 56.6088C87.6534 56.6088 87.057 56.557 86.4867 56.5051C85.8904 56.4533 85.294 56.3755 84.7237 56.2458C84.1273 56.1421 83.5569 55.9866 82.9866 55.8051H82.9606C83.531 55.7533 84.1013 55.7014 84.6718 55.5977C85.2681 55.4939 85.8384 55.3643 86.4089 55.2087C86.9792 55.0532 87.5497 54.8717 88.0941 54.6643C88.6645 54.4569 89.209 54.1977 89.7275 53.9384C90.2719 53.679 90.7646 53.3939 91.2831 53.0828C91.7757 52.7457 92.2684 52.4087 92.735 52.0457C93.2017 51.6827 93.6424 51.2938 94.0573 50.879C94.498 50.49 94.8869 50.0493 95.2759 49.6086C95.6647 49.1419 96.0277 48.6752 96.3647 48.2085C96.4165 48.1308 96.4685 48.0271 96.5203 47.9493C96.7795 47.5344 97.0389 47.1196 97.2722 46.7048C97.5574 46.1863 97.8166 45.6677 98.05 45.1232C98.2833 44.5787 98.4908 44.0343 98.6723 43.4639C98.8537 42.9194 98.9834 42.3491 99.113 41.7787C99.2168 41.1823 99.3204 40.612 99.3723 40.0416C99.4241 39.4452 99.476 38.849 99.476 38.2785C99.476 37.8637 99.45 37.4489 99.4242 37.0341C99.3724 36.4377 99.2946 35.8674 99.2168 35.297C99.113 34.7006 98.9835 34.1303 98.8279 33.5598C98.6464 33.0154 98.465 32.445 98.2575 31.9005C98.05 31.3561 97.7908 30.8117 97.5315 30.2931C97.2464 29.7746 96.9612 29.256 96.65 28.7634C96.313 28.2708 95.9759 27.8041 95.613 27.3374C95.2241 26.8967 94.8351 26.4559 94.4203 26.0152C94.2129 25.8078 93.9796 25.5744 93.7463 25.367C92.5795 24.4596 91.361 23.604 90.1424 22.8262C89.9609 22.7224 89.8054 22.6447 89.6239 22.5669C88.7682 22.0224 87.9645 21.7371 87.1608 21.4778Z" fill="white"/>
</svg>
