<svg width="140" height="140" viewBox="0 0 140 140" fill="none" xmlns="http://www.w3.org/2000/svg">
<rect width="140" height="140" rx="20" fill="#E0234E"/>
<path fill-rule="evenodd" clip-rule="evenodd" d="M78.9162 20C78.1903 20 77.5161 20.1556 76.8939 20.363C78.2162 21.2445 78.9421 22.4112 79.305 23.7335C79.3311 23.9149 79.3829 24.0446 79.4089 24.2261C79.4349 24.3816 79.4607 24.5372 79.4607 24.6928C79.5644 26.9743 78.8643 27.2595 78.3717 28.6077C77.6198 30.3448 77.8273 32.2116 78.7347 33.7152C78.8125 33.8968 78.9162 34.1042 79.0458 34.2857C78.0606 27.7262 83.5311 26.741 84.5423 24.6928C84.6201 22.9038 83.1423 21.7112 81.9755 20.8815C80.8606 20.2074 79.8496 20 78.9162 20ZM87.1609 21.4778C87.0571 22.0741 87.135 21.9186 87.1091 22.2297C87.0832 22.4371 87.0832 22.6964 87.0573 22.9038C87.0054 23.1112 86.9535 23.3186 86.8757 23.5261C86.8239 23.7335 86.7461 23.9409 86.6684 24.1483C86.5646 24.3557 86.4869 24.5372 86.3832 24.7446C86.3054 24.8484 86.2536 24.952 86.1758 25.0557C86.124 25.1335 86.072 25.2113 86.0202 25.2891C85.8906 25.4706 85.761 25.6521 85.6313 25.8076C85.4757 25.9632 85.3461 26.1447 85.1646 26.2743V26.3003C85.009 26.4299 84.8535 26.5854 84.672 26.7151C84.1276 27.1299 83.5053 27.441 82.9349 27.8299C82.7535 27.9596 82.572 28.0633 82.4163 28.2188C82.2349 28.3485 82.0793 28.4781 81.9238 28.6337C81.7423 28.7892 81.6126 28.9448 81.4571 29.1263C81.3275 29.2818 81.1719 29.4633 81.0682 29.6448C80.9386 29.8263 80.8089 30.0078 80.7052 30.1893C80.6014 30.3967 80.5237 30.5781 80.42 30.7856C80.3422 30.993 80.2644 31.1745 80.2126 31.3819C80.1348 31.6152 80.083 31.8226 80.0311 32.03C80.0052 32.1338 80.0052 32.2635 79.9793 32.3672C79.9533 32.4709 79.9533 32.5746 79.9275 32.6783C79.9275 32.8857 79.9015 33.119 79.9015 33.3264C79.9015 33.4819 79.9015 33.6375 79.9275 33.7932C79.9275 34.0006 79.9535 34.2079 80.0053 34.4413C80.0312 34.6487 80.083 34.8561 80.1349 35.0635C80.2127 35.2709 80.2645 35.4784 80.3423 35.6858C80.3941 35.8154 80.4719 35.945 80.5238 36.0487L74.5606 33.7413C73.5495 33.456 72.5643 33.1968 71.5532 32.9634C71.0086 32.8338 70.4642 32.7042 69.9197 32.5746C68.3641 32.2635 66.7826 32.03 65.201 31.8745C65.1492 31.8745 65.1232 31.8485 65.0714 31.8485C63.5158 31.693 61.9861 31.6152 60.4305 31.6152C59.2898 31.6152 58.149 31.667 57.0341 31.7448C55.4525 31.8486 53.871 32.0559 52.2895 32.3153C51.9006 32.3671 51.5117 32.4449 51.1227 32.5227C50.3191 32.6782 49.5412 32.8597 48.7894 33.0412C48.4005 33.1449 48.0115 33.2486 47.6226 33.3523C47.2338 33.5078 46.8708 33.6893 46.5078 33.845C46.2226 33.9746 45.9374 34.1042 45.6522 34.2339C45.6004 34.2598 45.5485 34.2598 45.5226 34.2857C45.2634 34.4153 45.0299 34.519 44.7966 34.6486C44.7188 34.6746 44.667 34.7004 44.6151 34.7264C44.33 34.856 44.0448 35.0116 43.8115 35.1412C43.63 35.219 43.4484 35.3228 43.2929 35.4005C43.2151 35.4524 43.1114 35.5043 43.0595 35.5302C42.8262 35.6598 42.5929 35.7894 42.3855 35.919C42.1521 36.0487 41.9446 36.1783 41.7632 36.3079C41.5817 36.4376 41.4002 36.5412 41.2447 36.6709C41.2187 36.6968 41.1928 36.6968 41.1669 36.7227C41.0113 36.8264 40.8299 36.9561 40.6743 37.0857C40.6743 37.0857 40.6483 37.1117 40.6225 37.1376C40.4929 37.2413 40.3631 37.3449 40.2335 37.4486C40.1817 37.4746 40.1298 37.5264 40.078 37.5524C39.9483 37.6561 39.8187 37.7857 39.6891 37.8894C39.6631 37.9412 39.6113 37.9672 39.5854 37.9932C39.4298 38.1487 39.2743 38.2783 39.1187 38.434C39.0927 38.434 39.0927 38.4599 39.0669 38.4858C38.9113 38.6154 38.7557 38.771 38.6001 38.9265C38.5742 38.9525 38.5742 38.9783 38.5483 38.9783C38.4187 39.108 38.2891 39.2376 38.1594 39.3931C38.1076 39.4449 38.0298 39.4969 37.978 39.5487C37.8484 39.7042 37.6928 39.8598 37.5372 40.0154C37.5113 40.0672 37.4595 40.0932 37.4335 40.1451C37.226 40.3525 37.0445 40.5599 36.8371 40.7673C36.8112 40.7932 36.7853 40.8191 36.7594 40.845C36.3445 41.2858 35.9038 41.7266 35.4371 42.1155C34.9704 42.5303 34.4778 42.9192 33.9852 43.2563C33.4667 43.6192 32.9741 43.9303 32.4295 44.2414C31.911 44.5266 31.3666 44.786 30.7962 45.0193C30.2517 45.2526 29.6813 45.46 29.111 45.6415C28.022 45.8748 26.9072 46.3156 25.9479 46.3934C25.7405 46.3934 25.5071 46.4452 25.2997 46.4712C25.0664 46.523 24.8589 46.5749 24.6515 46.6268C24.4441 46.7045 24.2367 46.7823 24.0293 46.8601C23.8219 46.9378 23.6145 47.0416 23.4071 47.1453C23.2256 47.2749 23.0181 47.3786 22.8367 47.5082C22.6552 47.6378 22.4737 47.7935 22.3181 47.949C22.1366 48.0787 21.9552 48.2601 21.7996 48.4157C21.644 48.5972 21.4885 48.7527 21.3588 48.9342C21.2292 49.1416 21.0736 49.3232 20.9699 49.5306C20.8403 49.712 20.7107 49.9194 20.607 50.1268C20.5032 50.3602 20.3995 50.5676 20.3218 50.8009C20.244 51.0084 20.1662 51.2417 20.0884 51.4751C20.0366 51.6825 19.9847 51.8899 19.9588 52.0972C19.9588 52.1232 19.9328 52.1491 19.9328 52.175C19.881 52.4085 19.881 52.7196 19.855 52.8751C19.8291 53.0566 19.8032 53.2121 19.8032 53.3936C19.8032 53.4974 19.8032 53.6269 19.8292 53.7306C19.8552 53.9121 19.881 54.0678 19.9329 54.2233C19.9848 54.3789 20.0367 54.5344 20.1144 54.69V54.7159C20.1922 54.8715 20.2959 55.027 20.3996 55.1826C20.5034 55.3381 20.607 55.4938 20.7367 55.6494C20.8663 55.779 21.0219 55.9345 21.1774 56.0642C21.333 56.2197 21.4886 56.3493 21.67 56.4789C22.2923 57.0234 22.4478 57.205 23.2516 57.6198C23.3812 57.6975 23.5108 57.7494 23.6664 57.8272C23.6924 57.8272 23.7182 57.8531 23.7442 57.8531C23.7442 57.9049 23.7442 57.9309 23.7702 57.9828C23.7961 58.1902 23.8479 58.3976 23.8998 58.605C23.9516 58.8384 24.0294 59.0458 24.1072 59.2273C24.185 59.3828 24.2368 59.5384 24.3146 59.6939C24.3406 59.7457 24.3664 59.7977 24.3924 59.8235C24.4962 60.0309 24.5998 60.2125 24.7035 60.394C24.8332 60.5755 24.9628 60.7569 25.0924 60.9384C25.2221 61.094 25.3776 61.2755 25.5332 61.431C25.6887 61.5866 25.8443 61.7162 26.0258 61.8718C26.0258 61.8718 26.0518 61.8978 26.0776 61.8978C26.2332 62.0275 26.3887 62.1571 26.5443 62.2608C26.7258 62.3904 26.9073 62.4941 27.1147 62.5978C27.2962 62.7015 27.5036 62.8052 27.711 62.883C27.8666 62.9608 28.048 63.0126 28.2295 63.0645C28.2555 63.0904 28.2813 63.0905 28.3333 63.1163C28.437 63.1423 28.5666 63.1681 28.6703 63.194C28.5925 64.5941 28.5666 65.9164 28.7741 66.3831C29.0074 66.9016 30.1482 65.3201 31.289 63.5053C31.1335 65.2942 31.0297 67.3942 31.289 68.0165C31.5742 68.6646 33.1298 66.6424 34.478 64.4126C52.8601 60.1606 69.6347 72.8648 71.3977 90.8061C71.0607 88.006 67.6124 86.4504 66.0309 86.8394C65.2531 88.7579 63.9309 91.2209 61.8048 92.7506C61.9863 91.0394 61.9086 89.2764 61.5456 87.5653C60.9752 89.9506 59.8603 92.1803 58.3306 94.0988C55.8676 94.2803 53.4046 93.0877 52.1082 91.2988C52.0045 91.2209 51.9786 91.0654 51.9008 90.9617C51.823 90.7802 51.7452 90.5987 51.6934 90.4172C51.6156 90.2358 51.5638 90.0543 51.5378 89.8728C51.5119 89.6912 51.5119 89.5098 51.5119 89.3024C51.5119 89.1727 51.5119 89.0431 51.5119 88.9135C51.5378 88.732 51.5897 88.5505 51.6415 88.3691C51.6933 88.1876 51.7452 88.006 51.823 87.8245C51.9267 87.6431 52.0045 87.4616 52.1341 87.2801C52.5748 86.0356 52.5748 85.0245 51.7711 84.4281C51.6156 84.3244 51.46 84.2467 51.2784 84.1689C51.1747 84.1429 51.0451 84.0911 50.9414 84.0651C50.8637 84.0392 50.8118 84.0133 50.734 83.9874C50.5525 83.9356 50.3711 83.8836 50.1896 83.8577C50.0081 83.8059 49.8266 83.78 49.6451 83.78C49.4636 83.754 49.2562 83.7282 49.0747 83.7282C48.9451 83.7282 48.8155 83.7541 48.6858 83.7541C48.4784 83.7541 48.297 83.7801 48.1154 83.8319C47.9339 83.8579 47.7524 83.8837 47.571 83.9356C47.3895 83.9874 47.208 84.0394 47.0265 84.1171C46.8451 84.1949 46.6895 84.2727 46.5079 84.3504C46.3524 84.4282 46.1968 84.5319 46.0153 84.6097C39.9744 88.5506 43.5783 97.7806 47.7006 100.451C46.145 100.736 44.5634 101.073 44.1227 101.41C44.0967 101.436 44.0709 101.462 44.0709 101.462C45.1858 102.136 46.3524 102.707 47.571 103.199C49.2303 103.744 50.9933 104.236 51.7712 104.444V104.47C53.9231 104.91 56.101 105.066 58.3047 104.936C69.7903 104.133 79.2017 95.3952 80.913 83.8838C80.9648 84.1171 81.0167 84.3245 81.0685 84.5578C81.1463 85.0245 81.25 85.5172 81.3018 86.0097V86.0357C81.3536 86.2691 81.3796 86.5024 81.4056 86.7099V86.8136C81.4316 87.0469 81.4574 87.2803 81.4574 87.4877C81.4833 87.7729 81.5092 88.058 81.5092 88.3433V88.7581C81.5092 88.8877 81.5351 89.0433 81.5351 89.1729C81.5351 89.3285 81.5092 89.484 81.5092 89.6396V90.0026C81.5092 90.1841 81.4832 90.3396 81.4832 90.5211C81.4832 90.6248 81.4832 90.7285 81.4572 90.8581C81.4572 91.0396 81.4313 91.2212 81.4313 91.4286C81.4053 91.5064 81.4053 91.5842 81.4053 91.6619C81.3793 91.8693 81.3535 92.0508 81.3275 92.2582C81.3275 92.336 81.3275 92.4138 81.3015 92.4915C81.2755 92.7508 81.2238 92.9842 81.1978 93.2435V93.2954C81.146 93.5287 81.0941 93.788 81.0422 94.0213V94.0991C80.9904 94.3324 80.9385 94.5658 80.8867 94.7992C80.8867 94.8252 80.8607 94.8769 80.8607 94.9029C80.8088 95.1362 80.7569 95.3696 80.6792 95.6029V95.6807C80.6014 95.9399 80.5236 96.1733 80.4718 96.4067C80.4458 96.4326 80.4458 96.4585 80.4458 96.4585C80.368 96.7177 80.2903 96.977 80.2125 97.2362C80.1088 97.4956 80.031 97.7289 79.9273 97.9882C79.8236 98.2474 79.7458 98.5067 79.6421 98.74C79.5384 98.9993 79.4347 99.2327 79.331 99.4919H79.3049C79.2012 99.7252 79.0975 99.9845 78.9679 100.218C78.9419 100.296 78.9161 100.348 78.8901 100.399C78.8642 100.425 78.8642 100.451 78.8383 100.477C77.1531 103.874 74.6642 106.855 71.5529 109.189C71.3455 109.318 71.138 109.474 70.9307 109.629C70.8788 109.681 70.801 109.707 70.7492 109.759C70.5677 109.889 70.3862 110.018 70.1788 110.148L70.2566 110.303H70.2826C70.6455 110.252 71.0085 110.2 71.3714 110.148H71.3974C72.0715 110.044 72.7456 109.914 73.4197 109.785C73.6012 109.759 73.8086 109.707 73.9901 109.655C74.1197 109.629 74.2234 109.603 74.353 109.577C74.5345 109.551 74.7161 109.5 74.8976 109.474C75.0531 109.422 75.2087 109.396 75.3642 109.344C77.9569 108.722 80.4718 107.866 82.883 106.855C78.7606 112.481 73.2383 117.018 66.7824 120C69.764 119.793 72.7456 119.3 75.6235 118.47C86.072 115.385 94.8612 108.359 100.124 98.8955C99.0613 104.885 96.6761 110.588 93.15 115.567C95.6649 113.907 97.9724 111.989 100.072 109.811C105.88 103.744 109.691 96.0436 110.988 87.7729C111.869 91.8694 112.128 96.0955 111.74 100.27C130.459 74.1614 113.295 47.0937 106.113 39.9639C106.087 39.912 106.062 39.886 106.062 39.8342C106.036 39.8602 106.036 39.8602 106.036 39.886C106.036 39.8601 106.036 39.8601 106.01 39.8342C106.01 40.1454 105.984 40.4565 105.958 40.7676C105.88 41.3639 105.802 41.9343 105.699 42.5047C105.569 43.0751 105.413 43.6455 105.258 44.2159C105.076 44.7604 104.869 45.3307 104.636 45.8752C104.402 46.3938 104.143 46.9382 103.858 47.4567C103.573 47.9494 103.261 48.4679 102.924 48.9345C102.587 49.4272 102.224 49.8939 101.861 50.3346C101.472 50.8012 101.058 51.2161 100.643 51.6309C100.384 51.8643 100.15 52.0717 99.891 52.2791C99.6836 52.4606 99.5021 52.6162 99.2946 52.7977C98.828 53.1606 98.3613 53.4976 97.8427 53.8088C97.3501 54.12 96.8316 54.4311 96.313 54.6903C95.7686 54.9496 95.2242 55.1829 94.6796 55.4162C94.1352 55.6237 93.5649 55.8052 92.9944 55.9607C92.424 56.1163 91.8278 56.2459 91.2573 56.3496C90.661 56.4534 90.0647 56.5052 89.4943 56.557C89.0795 56.583 88.6646 56.6088 88.2498 56.6088C87.6535 56.6088 87.0571 56.557 86.4868 56.5051C85.8905 56.4533 85.2941 56.3755 84.7238 56.2458C84.1275 56.1421 83.557 55.9866 82.9867 55.8051H82.9607C83.5311 55.7533 84.1015 55.7014 84.6719 55.5977C85.2682 55.4939 85.8386 55.3643 86.409 55.2087C86.9793 55.0532 87.5498 54.8717 88.0942 54.6643C88.6646 54.4569 89.2091 54.1977 89.7276 53.9384C90.2721 53.679 90.7647 53.3939 91.2832 53.0828C91.7758 52.7457 92.2685 52.4087 92.7351 52.0457C93.2018 51.6827 93.6426 51.2938 94.0574 50.879C94.4981 50.49 94.8871 50.0493 95.276 49.6086C95.6648 49.1419 96.0278 48.6752 96.3648 48.2085C96.4166 48.1308 96.4687 48.0271 96.5205 47.9493C96.7797 47.5344 97.039 47.1196 97.2723 46.7048C97.5575 46.1863 97.8167 45.6677 98.0502 45.1232C98.2835 44.5787 98.4909 44.0343 98.6724 43.4639C98.8538 42.9194 98.9835 42.3491 99.1131 41.7787C99.2169 41.1823 99.3205 40.612 99.3724 40.0416C99.4242 39.4452 99.4761 38.849 99.4761 38.2785C99.4761 37.8637 99.4501 37.4489 99.4243 37.0341C99.3725 36.4377 99.2947 35.8674 99.2169 35.297C99.1131 34.7006 98.9836 34.1303 98.828 33.5598C98.6465 33.0154 98.4651 32.445 98.2577 31.9005C98.0502 31.3561 97.7909 30.8117 97.5316 30.2931C97.2465 29.7746 96.9613 29.256 96.6502 28.7634C96.3131 28.2708 95.976 27.8041 95.6131 27.3374C95.2242 26.8967 94.8353 26.4559 94.4204 26.0152C94.213 25.8078 93.9797 25.5744 93.7464 25.367C92.5796 24.4596 91.3611 23.604 90.1425 22.8262C89.961 22.7224 89.8055 22.6447 89.624 22.5669C88.7684 22.0224 87.9646 21.7371 87.1609 21.4778Z" fill="white"/>
</svg>
