<svg width="140" height="140" viewBox="0 0 140 140" fill="none" xmlns="http://www.w3.org/2000/svg">
<rect width="140" height="140" rx="20" fill="url(#paint0_linear_67_382)"/>
<path d="M82.8541 84.2857H75.9976L75.4249 83.7131V67.663C75.4249 64.8074 74.3028 62.5941 70.8591 62.5167C69.0869 62.4703 67.0593 62.5167 64.8925 62.6018L64.5675 62.9346V83.7054L63.9948 84.278H57.1383L56.5656 83.7054V56.2871L57.1383 55.7144H72.5693C78.5668 55.7144 83.4268 60.5743 83.4268 66.5718V83.7131L82.8541 84.2857Z" fill="white"/>
<path d="M47.0238 99.4769H46.0796L41.3668 94.764V93.8199L48.5715 86.6152H53.563L54.2285 87.2807V92.2721L47.0238 99.4769Z" fill="#05BDBA"/>
<path d="M41.3668 46.1725V45.2284L46.0796 40.5155H47.0238L54.2285 47.7202V52.7117L53.563 53.3773H48.5715L41.3668 46.1725Z" fill="#05BDBA"/>
<path d="M47.9988 74.0087H20.5727L20 73.436V66.564L20.5727 65.9914H47.9988L48.5714 66.564V73.436L47.9988 74.0087Z" fill="#05BDBA"/>
<path d="M119.427 74.0087H92.0011L91.4284 73.436V66.564L92.0011 65.9914H119.427L120 66.564V73.436L119.427 74.0087Z" fill="#05BDBA"/>
<path d="M66.0455 47.1476V26.578L66.6181 26.0054H73.4902L74.0629 26.578V47.1476L73.4902 47.7202H66.6181L66.0455 47.1476Z" fill="#05BDBA"/>
<path d="M66.0455 113.422V92.8526L66.6181 92.2799H73.4902L74.0629 92.8526V113.422L73.4902 113.995H66.6181L66.0455 113.422Z" fill="#05BDBA"/>
<defs>
<linearGradient id="paint0_linear_67_382" x1="0" y1="0" x2="156.578" y2="21.8387" gradientUnits="userSpaceOnUse">
<stop stop-color="#014847"/>
<stop offset="0.7" stop-color="#1B205B"/>
<stop offset="1" stop-color="#0E112F"/>
</linearGradient>
</defs>
</svg>
