<svg width="140" height="140" viewBox="0 0 140 140" fill="none" xmlns="http://www.w3.org/2000/svg">
<rect width="140" height="140" rx="20" fill="url(#paint0_linear_67_382)"/>
<path d="M82.8541 84.2853H75.9976L75.4249 83.7127V67.6626C75.4249 64.807 74.3028 62.5937 70.8591 62.5163C69.0869 62.4699 67.0593 62.5163 64.8925 62.6014L64.5675 62.9342V83.705L63.9948 84.2776H57.1383L56.5656 83.705V56.2867L57.1383 55.714H72.5693C78.5668 55.714 83.4268 60.5739 83.4268 66.5714V83.7127L82.8541 84.2853Z" fill="white"/>
<path d="M47.0238 99.4765H46.0796L41.3668 94.7635V93.8195L48.5715 86.6147H53.563L54.2285 87.2803V92.2717L47.0238 99.4765Z" fill="#05BDBA"/>
<path d="M41.3668 46.1721V45.228L46.0796 40.5151H47.0238L54.2285 47.7198V52.7113L53.563 53.3769H48.5715L41.3668 46.1721Z" fill="#05BDBA"/>
<path d="M47.9988 74.0083H20.5727L20 73.4356V66.5636L20.5727 65.991H47.9988L48.5714 66.5636V73.4356L47.9988 74.0083Z" fill="#05BDBA"/>
<path d="M119.427 74.0083H92.0011L91.4284 73.4356V66.5636L92.0011 65.991H119.427L120 66.5636V73.4356L119.427 74.0083Z" fill="#05BDBA"/>
<path d="M66.0455 47.1472V26.5776L66.6181 26.0049H73.4902L74.0629 26.5776V47.1472L73.4902 47.7198H66.6181L66.0455 47.1472Z" fill="#05BDBA"/>
<path d="M66.0455 113.422V92.8521L66.6181 92.2794H73.4902L74.0629 92.8521V113.422L73.4902 113.994H66.6181L66.0455 113.422Z" fill="#05BDBA"/>
<defs>
<linearGradient id="paint0_linear_67_382" x1="0" y1="0" x2="156.578" y2="21.8387" gradientUnits="userSpaceOnUse">
<stop stop-color="#014847"/>
<stop offset="0.7" stop-color="#1B205B"/>
<stop offset="1" stop-color="#0E112F"/>
</linearGradient>
</defs>
</svg>
