<svg width="339" height="140" viewBox="0 0 339 140" fill="none" xmlns="http://www.w3.org/2000/svg">
<rect width="339" height="140" rx="20" fill="black"/>
<path d="M70 120C97.6142 120 120 97.6143 120 70C120 42.3858 97.6142 20 70 20C42.3858 20 20 42.3858 20 70C20 97.6143 42.3858 120 70 120Z" fill="white"/>
<path d="M103.06 107.511L58.4122 50H50V89.9834H56.7298V58.5464L97.7773 111.581C99.6294 110.341 101.394 108.981 103.06 107.511Z" fill="url(#paint0_linear_6_379)"/>
<path d="M90.5558 50H83.8892V90H90.5558V50Z" fill="url(#paint1_linear_6_379)"/>
<path d="M180.218 53.2727V86H174.242L160.004 65.4016H159.764V86H152.844V53.2727H158.917L173.043 73.8551H173.331V53.2727H180.218ZM196.994 86.4794C194.469 86.4794 192.295 85.968 190.474 84.9453C188.663 83.9119 187.267 82.4524 186.287 80.5668C185.307 78.6705 184.817 76.4279 184.817 73.8391C184.817 71.3143 185.307 69.0984 186.287 67.1914C187.267 65.2844 188.647 63.7983 190.426 62.733C192.215 61.6676 194.314 61.1349 196.722 61.1349C198.341 61.1349 199.849 61.396 201.244 61.918C202.65 62.4293 203.876 63.2017 204.92 64.2351C205.974 65.2685 206.795 66.5682 207.381 68.1342C207.967 69.6896 208.26 71.5114 208.26 73.5994V75.4691H187.533V71.2504H201.851C201.851 70.2702 201.638 69.402 201.212 68.6456C200.786 67.8892 200.195 67.2979 199.438 66.8718C198.693 66.435 197.824 66.2166 196.834 66.2166C195.8 66.2166 194.884 66.4563 194.085 66.9357C193.297 67.4045 192.679 68.0384 192.231 68.8374C191.784 69.6257 191.555 70.5046 191.544 71.4741V75.4851C191.544 76.6996 191.768 77.7489 192.215 78.6332C192.674 79.5174 193.318 80.1992 194.149 80.6786C194.98 81.158 195.965 81.3977 197.105 81.3977C197.862 81.3977 198.554 81.2912 199.183 81.0781C199.811 80.8651 200.349 80.5455 200.797 80.1193C201.244 79.6932 201.585 79.1712 201.82 78.5533L208.116 78.9688C207.796 80.4815 207.141 81.8026 206.15 82.9318C205.17 84.0504 203.902 84.924 202.347 85.5526C200.802 86.1705 199.018 86.4794 196.994 86.4794ZM217.951 61.4545L222.458 70.0359L227.076 61.4545H234.059L226.948 73.7273L234.251 86H227.3L222.458 77.5146L217.696 86H210.665L217.951 73.7273L210.92 61.4545H217.951ZM251.158 61.4545V66.5682H236.377V61.4545H251.158ZM239.732 55.5739H246.54V78.4574C246.54 79.0859 246.636 79.576 246.828 79.9276C247.019 80.2685 247.286 80.5082 247.627 80.6467C247.978 80.7852 248.383 80.8544 248.841 80.8544C249.161 80.8544 249.48 80.8278 249.8 80.7745C250.119 80.7106 250.364 80.6626 250.535 80.6307L251.606 85.6964C251.265 85.8029 250.785 85.9254 250.167 86.0639C249.549 86.2131 248.798 86.3036 247.914 86.3356C246.274 86.3995 244.835 86.1811 243.6 85.6804C242.374 85.1797 241.421 84.402 240.739 83.3473C240.057 82.2926 239.722 80.9609 239.732 79.3523V55.5739ZM279.239 53.2727H286.079V76.0923C286.079 78.2017 285.605 80.0341 284.656 81.5895C283.719 83.1449 282.414 84.3434 280.741 85.185C279.069 86.0266 277.124 86.4474 274.909 86.4474C272.938 86.4474 271.148 86.1012 269.539 85.4087C267.941 84.7056 266.673 83.6403 265.736 82.2127C264.798 80.7745 264.335 78.9687 264.346 76.7955H271.233C271.254 77.6584 271.43 78.3988 271.76 79.0167C272.101 79.6239 272.565 80.0927 273.151 80.4229C273.747 80.7425 274.45 80.9023 275.26 80.9023C276.112 80.9023 276.831 80.7212 277.417 80.359C278.014 79.9862 278.467 79.4428 278.776 78.729C279.085 78.0153 279.239 77.1364 279.239 76.0923V53.2727ZM309.553 62.685C309.426 61.396 308.877 60.3945 307.907 59.6808C306.938 58.967 305.622 58.6101 303.96 58.6101C302.831 58.6101 301.878 58.7699 301.1 59.0895C300.322 59.3984 299.726 59.8299 299.31 60.3839C298.905 60.9379 298.703 61.5664 298.703 62.2695C298.682 62.8555 298.804 63.3668 299.07 63.8036C299.347 64.2404 299.726 64.6186 300.205 64.9382C300.684 65.2472 301.238 65.5188 301.867 65.7532C302.496 65.9769 303.167 66.1687 303.881 66.3285L306.821 67.0316C308.248 67.3512 309.559 67.7773 310.752 68.31C311.945 68.8427 312.979 69.4979 313.852 70.2756C314.726 71.0533 315.402 71.9695 315.882 73.0241C316.372 74.0788 316.622 75.288 316.633 76.6516C316.622 78.6545 316.111 80.391 315.099 81.8612C314.097 83.3207 312.648 84.4553 310.752 85.2649C308.866 86.0639 306.592 86.4634 303.928 86.4634C301.286 86.4634 298.985 86.0586 297.025 85.2489C295.075 84.4393 293.552 83.2408 292.455 81.6534C291.368 80.0554 290.798 78.0792 290.745 75.7248H297.441C297.515 76.8221 297.829 77.7383 298.383 78.4734C298.948 79.1978 299.699 79.7464 300.637 80.1193C301.585 80.4815 302.655 80.6626 303.849 80.6626C305.02 80.6626 306.038 80.4922 306.901 80.1513C307.774 79.8104 308.451 79.3363 308.93 78.729C309.41 78.1218 309.649 77.424 309.649 76.6357C309.649 75.9006 309.431 75.2827 308.994 74.782C308.568 74.2812 307.939 73.8551 307.108 73.5036C306.288 73.152 305.281 72.8324 304.088 72.5447L300.525 71.6499C297.765 70.9787 295.587 69.9293 293.989 68.5018C292.391 67.0742 291.597 65.1513 291.608 62.733C291.597 60.7514 292.124 59.0202 293.19 57.5394C294.266 56.0586 295.741 54.9027 297.616 54.0717C299.491 53.2408 301.622 52.8253 304.008 52.8253C306.437 52.8253 308.557 53.2408 310.368 54.0717C312.19 54.9027 313.607 56.0586 314.619 57.5394C315.631 59.0202 316.153 60.7354 316.185 62.685H309.553Z" fill="white"/>
<defs>
<linearGradient id="paint0_linear_6_379" x1="77.5867" y1="76.385" x2="108.302" y2="120.567" gradientUnits="userSpaceOnUse">
<stop/>
<stop offset="1" stop-color="white" stop-opacity="0"/>
</linearGradient>
<linearGradient id="paint1_linear_6_379" x1="87.2225" y1="50" x2="87.1109" y2="79.3752" gradientUnits="userSpaceOnUse">
<stop/>
<stop offset="1" stop-color="white" stop-opacity="0"/>
</linearGradient>
</defs>
</svg>
