<svg width="513" height="140" viewBox="0 0 513 140" fill="none" xmlns="http://www.w3.org/2000/svg">
<rect width="512.053" height="140" rx="20" fill="#F7DF1E"/>
<path fill-rule="evenodd" clip-rule="evenodd" d="M103.451 50.0166H33.0722C25.8522 50.0166 20 56.211 20 63.5801V101.045H116.053V63.5801C116.053 56.211 110.672 50.0166 103.451 50.0166ZM46.6286 80.4583C41.877 80.4583 38.0259 76.5272 38.0259 71.6785C38.0259 66.8298 41.877 62.8977 46.6286 62.8977C51.3803 62.8977 55.2304 66.8298 55.2304 71.6785C55.2304 76.5272 51.3803 80.4583 46.6286 80.4583ZM90.6238 80.4583C85.8732 80.4583 82.0211 76.5272 82.0211 71.6785C82.0211 66.8298 85.8732 62.8977 90.6238 62.8977C95.3735 62.8977 99.2256 66.8298 99.2256 71.6785C99.2256 76.5272 95.3735 80.4583 90.6238 80.4583Z" fill="#2E2E2C"/>
<path fill-rule="evenodd" clip-rule="evenodd" d="M38.179 104.489H97.6076C99.3126 104.489 100.692 105.899 100.692 107.638C100.692 109.378 99.3126 110.788 97.6076 110.788H38.179C36.475 110.788 35.0933 109.378 35.0933 107.638C35.0933 105.9 36.475 104.489 38.179 104.489Z" fill="#2E2E2C"/>
<path fill-rule="evenodd" clip-rule="evenodd" d="M48.2288 113.7H88.0907C89.7956 113.7 91.1764 115.111 91.1764 116.851C91.1764 118.591 89.7956 120 88.0907 120H48.2288C46.5248 120 45.1431 118.591 45.1431 116.851C45.1431 115.111 46.5248 113.7 48.2288 113.7Z" fill="#2E2E2C"/>
<path fill-rule="evenodd" clip-rule="evenodd" d="M75.2426 26.4135C75.2426 22.8716 72.5201 20 69.0492 20C65.5813 20 63.0249 22.8716 63.0249 26.4135C63.0249 28.6157 64.0245 30.5578 66.0256 31.7124V42.6254C66.0256 44.4955 67.1972 46.0103 69.0272 46.0103C70.8592 46.0103 72.0289 44.4955 72.0289 42.6254V31.8945C74.03 30.7699 75.2426 28.7398 75.2426 26.4135Z" fill="#2E2E2C"/>
<path d="M176.271 53.2727V86H170.295L156.056 65.4016H155.817V86H148.897V53.2727H154.97L169.096 73.8551H169.384V53.2727H176.271ZM192.95 86.4794C190.468 86.4794 188.321 85.9521 186.51 84.8974C184.71 83.832 183.32 82.3512 182.34 80.4549C181.359 78.5479 180.869 76.3374 180.869 73.8232C180.869 71.2876 181.359 69.0717 182.34 67.1754C183.32 65.2685 184.71 63.7876 186.51 62.733C188.321 61.6676 190.468 61.1349 192.95 61.1349C195.433 61.1349 197.574 61.6676 199.374 62.733C201.185 63.7876 202.581 65.2685 203.561 67.1754C204.541 69.0717 205.031 71.2876 205.031 73.8232C205.031 76.3374 204.541 78.5479 203.561 80.4549C202.581 82.3512 201.185 83.832 199.374 84.8974C197.574 85.9521 195.433 86.4794 192.95 86.4794ZM192.982 81.206C194.112 81.206 195.054 80.8864 195.811 80.2472C196.567 79.5973 197.137 78.7131 197.521 77.5945C197.915 76.4759 198.112 75.2028 198.112 73.7752C198.112 72.3477 197.915 71.0746 197.521 69.956C197.137 68.8374 196.567 67.9531 195.811 67.3033C195.054 66.6534 194.112 66.3285 192.982 66.3285C191.842 66.3285 190.884 66.6534 190.106 67.3033C189.339 67.9531 188.758 68.8374 188.364 69.956C187.981 71.0746 187.789 72.3477 187.789 73.7752C187.789 75.2028 187.981 76.4759 188.364 77.5945C188.758 78.7131 189.339 79.5973 190.106 80.2472C190.884 80.8864 191.842 81.206 192.982 81.206ZM218.503 86.3995C216.638 86.3995 214.95 85.9201 213.437 84.9613C211.935 83.9918 210.742 82.5696 209.857 80.6946C208.984 78.8089 208.547 76.4972 208.547 73.7592C208.547 70.9467 209 68.6083 209.905 66.744C210.811 64.869 212.015 63.468 213.517 62.5412C215.03 61.6037 216.686 61.1349 218.487 61.1349C219.861 61.1349 221.006 61.3693 221.922 61.8381C222.849 62.2962 223.595 62.8714 224.16 63.5639C224.735 64.2457 225.172 64.9169 225.47 65.5774H225.678V53.2727H232.469V86H225.758V82.0689H225.47C225.15 82.7507 224.698 83.4272 224.112 84.0984C223.536 84.7589 222.785 85.3075 221.858 85.7443C220.942 86.1811 219.824 86.3995 218.503 86.3995ZM220.66 80.9822C221.757 80.9822 222.684 80.6839 223.44 80.0874C224.207 79.4801 224.793 78.6332 225.198 77.5465C225.614 76.4599 225.821 75.1868 225.821 73.7273C225.821 72.2678 225.619 71 225.214 69.924C224.809 68.848 224.223 68.017 223.456 67.4311C222.689 66.8452 221.757 66.5522 220.66 66.5522C219.541 66.5522 218.598 66.8558 217.831 67.4631C217.064 68.0703 216.484 68.9119 216.09 69.9879C215.695 71.0639 215.498 72.3104 215.498 73.7273C215.498 75.1548 215.695 76.4173 216.09 77.5146C216.494 78.6012 217.075 79.4535 217.831 80.0714C218.598 80.6786 219.541 80.9822 220.66 80.9822ZM249.252 86.4794C246.727 86.4794 244.554 85.968 242.732 84.9453C240.921 83.9119 239.526 82.4524 238.546 80.5668C237.566 78.6705 237.075 76.4279 237.075 73.8391C237.075 71.3143 237.566 69.0984 238.546 67.1914C239.526 65.2844 240.905 63.7983 242.684 62.733C244.474 61.6676 246.573 61.1349 248.981 61.1349C250.6 61.1349 252.107 61.396 253.503 61.918C254.909 62.4293 256.134 63.2017 257.178 64.2351C258.233 65.2685 259.053 66.5682 259.639 68.1342C260.225 69.6896 260.518 71.5114 260.518 73.5994V75.4691H239.792V71.2504H254.11C254.11 70.2702 253.897 69.402 253.471 68.6456C253.045 67.8892 252.454 67.2979 251.697 66.8718C250.952 66.435 250.083 66.2166 249.093 66.2166C248.059 66.2166 247.143 66.4563 246.344 66.9357C245.556 67.4045 244.938 68.0384 244.49 68.8374C244.043 69.6257 243.814 70.5046 243.803 71.4741V75.4851C243.803 76.6996 244.027 77.7489 244.474 78.6332C244.932 79.5174 245.577 80.1992 246.408 80.6786C247.239 81.158 248.224 81.3977 249.364 81.3977C250.121 81.3977 250.813 81.2912 251.442 81.0781C252.07 80.8651 252.608 80.5455 253.056 80.1193C253.503 79.6932 253.844 79.1712 254.078 78.5533L260.374 78.9688C260.055 80.4815 259.4 81.8026 258.409 82.9318C257.429 84.0504 256.161 84.924 254.606 85.5526C253.061 86.1705 251.276 86.4794 249.252 86.4794ZM293.258 62.685C293.13 61.396 292.581 60.3945 291.612 59.6808C290.642 58.967 289.326 58.6101 287.665 58.6101C286.535 58.6101 285.582 58.7699 284.804 59.0895C284.026 59.3984 283.43 59.8299 283.014 60.3839C282.609 60.9379 282.407 61.5664 282.407 62.2695C282.386 62.8555 282.508 63.3668 282.775 63.8036C283.052 64.2404 283.43 64.6186 283.909 64.9382C284.389 65.2472 284.943 65.5188 285.571 65.7532C286.2 65.9769 286.871 66.1687 287.585 66.3285L290.525 67.0316C291.953 67.3512 293.263 67.7773 294.456 68.31C295.649 68.8427 296.683 69.4979 297.556 70.2756C298.43 71.0533 299.106 71.9695 299.586 73.0241C300.076 74.0788 300.326 75.288 300.337 76.6516C300.326 78.6545 299.815 80.391 298.803 81.8612C297.801 83.3207 296.352 84.4553 294.456 85.2649C292.57 86.0639 290.296 86.4634 287.633 86.4634C284.991 86.4634 282.689 86.0586 280.729 85.2489C278.78 84.4393 277.256 83.2408 276.159 81.6534C275.072 80.0554 274.502 78.0792 274.449 75.7248H281.145C281.219 76.8221 281.533 77.7383 282.087 78.4734C282.652 79.1978 283.403 79.7464 284.341 80.1193C285.289 80.4815 286.359 80.6626 287.553 80.6626C288.725 80.6626 289.742 80.4922 290.605 80.1513C291.478 79.8104 292.155 79.3363 292.634 78.729C293.114 78.1218 293.353 77.424 293.353 76.6357C293.353 75.9006 293.135 75.2827 292.698 74.782C292.272 74.2812 291.644 73.8551 290.813 73.5036C289.992 73.152 288.986 72.8324 287.792 72.5447L284.229 71.6499C281.47 70.9787 279.291 69.9293 277.693 68.5018C276.095 67.0742 275.301 65.1513 275.312 62.733C275.301 60.7514 275.829 59.0202 276.894 57.5394C277.97 56.0586 279.445 54.9027 281.32 54.0717C283.195 53.2408 285.326 52.8253 287.712 52.8253C290.141 52.8253 292.261 53.2408 294.073 54.0717C295.894 54.9027 297.311 56.0586 298.323 57.5394C299.335 59.0202 299.857 60.7354 299.889 62.685H293.258ZM316.049 86.4794C313.524 86.4794 311.351 85.968 309.529 84.9453C307.718 83.9119 306.323 82.4524 305.343 80.5668C304.362 78.6705 303.872 76.4279 303.872 73.8391C303.872 71.3143 304.362 69.0984 305.343 67.1914C306.323 65.2844 307.702 63.7983 309.481 62.733C311.271 61.6676 313.37 61.1349 315.778 61.1349C317.397 61.1349 318.904 61.396 320.3 61.918C321.706 62.4293 322.931 63.2017 323.975 64.2351C325.03 65.2685 325.85 66.5682 326.436 68.1342C327.022 69.6896 327.315 71.5114 327.315 73.5994V75.4691H306.589V71.2504H320.907C320.907 70.2702 320.694 69.402 320.268 68.6456C319.842 67.8892 319.251 67.2979 318.494 66.8718C317.748 66.435 316.88 66.2166 315.889 66.2166C314.856 66.2166 313.94 66.4563 313.141 66.9357C312.352 67.4045 311.735 68.0384 311.287 68.8374C310.84 69.6257 310.611 70.5046 310.6 71.4741V75.4851C310.6 76.6996 310.824 77.7489 311.271 78.6332C311.729 79.5174 312.374 80.1992 313.205 80.6786C314.036 81.158 315.021 81.3977 316.161 81.3977C316.917 81.3977 317.61 81.2912 318.238 81.0781C318.867 80.8651 319.405 80.5455 319.852 80.1193C320.3 79.6932 320.641 79.1712 320.875 78.5533L327.171 78.9688C326.852 80.4815 326.197 81.8026 325.206 82.9318C324.226 84.0504 322.958 84.924 321.403 85.5526C319.858 86.1705 318.073 86.4794 316.049 86.4794ZM331.758 86V61.4545H338.357V65.7372H338.613C339.061 64.2138 339.812 63.0632 340.866 62.2855C341.921 61.4972 343.135 61.103 344.51 61.103C344.851 61.103 345.218 61.1243 345.612 61.1669C346.007 61.2095 346.353 61.2681 346.651 61.3427V67.3832C346.331 67.2873 345.889 67.2021 345.325 67.1275C344.76 67.0529 344.243 67.0156 343.775 67.0156C342.773 67.0156 341.878 67.234 341.09 67.6708C340.312 68.0969 339.694 68.6935 339.236 69.4606C338.789 70.2276 338.565 71.1119 338.565 72.1133V86H331.758ZM350.171 86V61.4545H356.978V86H350.171ZM353.59 58.2905C352.578 58.2905 351.71 57.9549 350.986 57.2837C350.272 56.6019 349.915 55.7869 349.915 54.8388C349.915 53.9013 350.272 53.0969 350.986 52.4258C351.71 51.744 352.578 51.4031 353.59 51.4031C354.603 51.4031 355.465 51.744 356.179 52.4258C356.904 53.0969 357.266 53.9013 357.266 54.8388C357.266 55.7869 356.904 56.6019 356.179 57.2837C355.465 57.9549 354.603 58.2905 353.59 58.2905ZM369.431 86.4634C367.865 86.4634 366.469 86.1918 365.244 85.6484C364.019 85.0945 363.049 84.2795 362.336 83.2035C361.632 82.1168 361.281 80.7638 361.281 79.1445C361.281 77.7809 361.531 76.6357 362.032 75.7088C362.533 74.782 363.214 74.0362 364.077 73.4716C364.94 72.907 365.92 72.4808 367.018 72.1932C368.126 71.9055 369.287 71.7031 370.501 71.5859C371.929 71.4368 373.08 71.2983 373.953 71.1705C374.827 71.032 375.461 70.8295 375.855 70.5632C376.249 70.2969 376.446 69.9027 376.446 69.3807V69.2848C376.446 68.2727 376.126 67.4897 375.487 66.9357C374.859 66.3817 373.964 66.1048 372.803 66.1048C371.577 66.1048 370.603 66.3764 369.878 66.9197C369.154 67.4524 368.674 68.1236 368.44 68.9332L362.144 68.4219C362.463 66.9304 363.092 65.6413 364.029 64.5547C364.967 63.4574 366.176 62.6158 367.657 62.0298C369.148 61.4332 370.874 61.1349 372.835 61.1349C374.198 61.1349 375.503 61.2947 376.75 61.6143C378.007 61.9339 379.12 62.4293 380.089 63.1005C381.07 63.7717 381.842 64.6346 382.407 65.6893C382.971 66.7333 383.254 67.9851 383.254 69.4446V86H376.798V82.5962H376.606C376.212 83.3633 375.684 84.0398 375.024 84.6257C374.363 85.201 373.57 85.6538 372.643 85.984C371.716 86.3036 370.645 86.4634 369.431 86.4634ZM371.38 81.7653C372.382 81.7653 373.266 81.5682 374.033 81.174C374.8 80.7692 375.402 80.2259 375.839 79.544C376.276 78.8622 376.494 78.0898 376.494 77.2269V74.6222C376.281 74.7607 375.988 74.8885 375.615 75.0057C375.253 75.1122 374.843 75.2134 374.385 75.3093C373.926 75.3945 373.468 75.4744 373.01 75.549C372.552 75.6129 372.137 75.6715 371.764 75.7248C370.965 75.842 370.267 76.0284 369.67 76.2841C369.074 76.5398 368.61 76.886 368.28 77.3228C367.95 77.7489 367.785 78.2816 367.785 78.9208C367.785 79.8477 368.12 80.5561 368.792 81.0462C369.473 81.5256 370.336 81.7653 371.38 81.7653ZM395.343 53.2727V86H388.535V53.2727H395.343ZM400.924 86V53.2727H413.835C416.318 53.2727 418.432 53.7468 420.18 54.695C421.927 55.6325 423.258 56.9375 424.175 58.6101C425.101 60.272 425.565 62.1896 425.565 64.3629C425.565 66.5362 425.096 68.4538 424.159 70.1158C423.221 71.7777 421.863 73.0721 420.084 73.9989C418.315 74.9258 416.174 75.3892 413.66 75.3892H405.43V69.8441H412.541C413.873 69.8441 414.97 69.6151 415.833 69.157C416.707 68.6882 417.356 68.0437 417.783 67.2234C418.219 66.3924 418.438 65.4389 418.438 64.3629C418.438 63.2763 418.219 62.3281 417.783 61.5185C417.356 60.6982 416.707 60.0643 415.833 59.6168C414.959 59.1587 413.851 58.9297 412.509 58.9297H407.843V86H400.924ZM440.626 86.4794C438.144 86.4794 435.997 85.9521 434.186 84.8974C432.386 83.832 430.995 82.3512 430.015 80.4549C429.035 78.5479 428.545 76.3374 428.545 73.8232C428.545 71.2876 429.035 69.0717 430.015 67.1754C430.995 65.2685 432.386 63.7876 434.186 62.733C435.997 61.6676 438.144 61.1349 440.626 61.1349C443.108 61.1349 445.25 61.6676 447.05 62.733C448.861 63.7876 450.257 65.2685 451.237 67.1754C452.217 69.0717 452.707 71.2876 452.707 73.8232C452.707 76.3374 452.217 78.5479 451.237 80.4549C450.257 82.3512 448.861 83.832 447.05 84.8974C445.25 85.9521 443.108 86.4794 440.626 86.4794ZM440.658 81.206C441.787 81.206 442.73 80.8864 443.487 80.2472C444.243 79.5973 444.813 78.7131 445.196 77.5945C445.591 76.4759 445.788 75.2028 445.788 73.7752C445.788 72.3477 445.591 71.0746 445.196 69.956C444.813 68.8374 444.243 67.9531 443.487 67.3033C442.73 66.6534 441.787 66.3285 440.658 66.3285C439.518 66.3285 438.559 66.6534 437.782 67.3033C437.015 67.9531 436.434 68.8374 436.04 69.956C435.656 71.0746 435.465 72.3477 435.465 73.7752C435.465 75.2028 435.656 76.4759 436.04 77.5945C436.434 78.7131 437.015 79.5973 437.782 80.2472C438.559 80.8864 439.518 81.206 440.658 81.206ZM457.134 86V61.4545H463.733V65.7372H463.989C464.437 64.2138 465.188 63.0632 466.242 62.2855C467.297 61.4972 468.511 61.103 469.886 61.103C470.227 61.103 470.594 61.1243 470.988 61.1669C471.383 61.2095 471.729 61.2681 472.027 61.3427V67.3832C471.707 67.2873 471.265 67.2021 470.701 67.1275C470.136 67.0529 469.619 67.0156 469.151 67.0156C468.149 67.0156 467.254 67.234 466.466 67.6708C465.688 68.0969 465.07 68.6935 464.612 69.4606C464.165 70.2276 463.941 71.1119 463.941 72.1133V86H457.134ZM489.833 61.4545V66.5682H475.051V61.4545H489.833ZM478.407 55.5739H485.215V78.4574C485.215 79.0859 485.311 79.576 485.502 79.9276C485.694 80.2685 485.96 80.5082 486.301 80.6467C486.653 80.7852 487.058 80.8544 487.516 80.8544C487.835 80.8544 488.155 80.8278 488.475 80.7745C488.794 80.7106 489.039 80.6626 489.21 80.6307L490.28 85.6964C489.939 85.8029 489.46 85.9254 488.842 86.0639C488.224 86.2131 487.473 86.3036 486.589 86.3356C484.948 86.3995 483.51 86.1811 482.274 85.6804C481.049 85.1797 480.096 84.402 479.414 83.3473C478.732 82.2926 478.396 80.9609 478.407 79.3523V55.5739Z" fill="#2E2E2C"/>
</svg>
