<svg width="364" height="140" viewBox="0 0 364 140" fill="none" xmlns="http://www.w3.org/2000/svg">
<rect width="364" height="140" rx="20" fill="#173647"/>
<path d="M70.6168 117.232C44.3612 117.232 23 95.8728 23 69.6163C23 43.3598 44.3612 22.0005 70.6168 22.0005C96.8724 22.0005 118.234 43.3618 118.234 69.6173C118.234 95.8729 96.8724 117.232 70.6168 117.232Z" fill="#85EA2D"/>
<path d="M69.9995 24.7669C94.9818 24.7669 115.233 45.0178 115.233 70C115.233 94.9813 94.9818 115.233 69.9995 115.233C45.0182 115.233 24.7664 94.9813 24.7664 70C24.7664 45.0188 45.0182 24.7669 69.9995 24.7669ZM69.9995 20.0005C42.4297 20.0005 20 42.4302 20 70C20 97.5699 42.4297 120 69.9995 120C97.5693 120 120 97.5699 120 70C120 42.4302 97.5693 20.0005 69.9995 20.0005Z" fill="#173647"/>
<path d="M51.9194 53.3891C51.7655 55.1002 51.9764 56.8692 51.8625 58.5993C51.7276 60.3303 51.5157 62.0414 51.1699 63.7524C50.6891 66.1941 49.17 68.0401 47.0751 69.5782C51.1519 72.2318 51.6126 76.3455 51.8815 80.5182C52.0164 82.768 51.9584 85.0367 52.1893 87.2665C52.3622 88.9966 53.0348 89.4393 54.8238 89.4963C55.5544 89.5153 56.303 89.4963 57.1506 89.4963V94.8414C51.8635 95.7449 47.4989 94.2457 46.4215 89.7661C46.0747 88.132 45.8438 86.459 45.7678 84.7669C45.6519 82.9789 45.8438 81.1909 45.7099 79.4028C45.3251 74.4995 44.6904 72.8464 40 72.6156V66.5209C40.3458 66.444 40.6726 66.386 41.0184 66.348C43.595 66.2131 44.6904 65.4245 45.2481 62.8869C45.518 61.4647 45.6719 60.0225 45.7288 58.5613C45.9217 55.7738 45.8448 52.9284 46.3245 50.1599C46.9972 46.1801 49.4588 44.2572 53.5545 44.0263C54.7079 43.9683 55.8813 44.0263 57.2075 44.0263V49.4873C56.6498 49.5263 56.1691 49.6022 55.6694 49.6022C52.3432 49.4863 52.1693 50.6207 51.9194 53.3891ZM58.3219 66.0402H58.245C56.322 65.9442 54.6689 67.4434 54.572 69.3664C54.476 71.3083 55.9752 72.9624 57.8982 73.0573H58.129C60.033 73.1733 61.6661 71.7111 61.782 69.8081V69.6162C61.821 67.6743 60.2639 66.0792 58.3219 66.0402ZM70.3773 66.0402C68.5123 65.9822 66.9542 67.4434 66.8972 69.2894C66.8972 69.4053 66.8972 69.5013 66.9172 69.6162C66.9172 71.7121 68.3394 73.0583 70.4932 73.0583C72.6081 73.0583 73.9353 71.6741 73.9353 69.5013C73.9153 67.4054 72.5111 66.0212 70.3773 66.0402ZM82.7215 66.0402C80.7606 66.0012 79.1255 67.5594 79.0685 69.5203C79.0685 71.4812 80.6446 73.0573 82.6056 73.0573H82.6445C84.4136 73.3652 86.2016 71.6541 86.3175 69.5972C86.4125 67.6933 84.6824 66.0402 82.7215 66.0402ZM99.6602 66.328C97.4294 66.2321 96.314 65.4825 95.7573 63.3667C95.4105 62.0214 95.1996 60.6172 95.1227 59.2329C94.9688 56.6564 94.9878 54.0608 94.8148 51.4842C94.4111 45.3706 89.9895 43.2367 83.567 44.2932V49.6002C84.5855 49.6002 85.374 49.6002 86.1626 49.6192C87.5279 49.6382 88.5663 50.1579 88.7002 51.6771C88.8351 53.0613 88.8351 54.4646 88.9701 55.8688C89.2399 58.6573 89.3928 61.4827 89.8736 64.2322C90.2973 66.5009 91.8545 68.193 93.7954 69.5772C90.3933 71.865 89.3928 75.1332 89.2199 78.8062C89.124 81.3248 89.066 83.8624 88.9321 86.401C88.8162 88.7077 88.0096 89.4573 85.6829 89.5153C85.0292 89.5342 84.3946 89.5922 83.664 89.6312V95.0722C85.0292 95.0722 86.2785 95.1492 87.5279 95.0722C91.4117 94.8412 93.7574 92.9574 94.527 89.1885C94.8538 87.1116 95.0457 85.0168 95.1037 82.9209C95.2376 80.998 95.2196 79.056 95.4115 77.1531C95.6994 74.1727 97.0646 72.9424 100.045 72.7505C100.334 72.7115 100.603 72.6546 100.872 72.5586V66.463C100.372 66.405 100.025 66.348 99.6602 66.328Z" fill="#173647"/>
<path d="M182.919 69.6364C182.919 73.2053 182.243 76.2415 180.89 78.745C179.547 81.2486 177.715 83.1609 175.392 84.4819C173.081 85.7923 170.481 86.4474 167.594 86.4474C164.686 86.4474 162.076 85.7869 159.764 84.4659C157.452 83.1449 155.625 81.2326 154.283 78.729C152.94 76.2255 152.269 73.1946 152.269 69.6364C152.269 66.0675 152.94 63.0312 154.283 60.5277C155.625 58.0241 157.452 56.1172 159.764 54.8068C162.076 53.4858 164.686 52.8253 167.594 52.8253C170.481 52.8253 173.081 53.4858 175.392 54.8068C177.715 56.1172 179.547 58.0241 180.89 60.5277C182.243 63.0312 182.919 66.0675 182.919 69.6364ZM175.904 69.6364C175.904 67.3246 175.558 65.375 174.865 63.7876C174.183 62.2003 173.219 60.9964 171.973 60.1761C170.726 59.3558 169.267 58.9457 167.594 58.9457C165.922 58.9457 164.462 59.3558 163.216 60.1761C161.969 60.9964 161 62.2003 160.307 63.7876C159.625 65.375 159.284 67.3246 159.284 69.6364C159.284 71.9482 159.625 73.8977 160.307 75.4851C161 77.0724 161.969 78.2763 163.216 79.0966C164.462 79.9169 165.922 80.3271 167.594 80.3271C169.267 80.3271 170.726 79.9169 171.973 79.0966C173.219 78.2763 174.183 77.0724 174.865 75.4851C175.558 73.8977 175.904 71.9482 175.904 69.6364ZM187.917 95.2045V61.4545H194.628V65.5774H194.932C195.23 64.9169 195.662 64.2457 196.226 63.5639C196.802 62.8714 197.547 62.2962 198.464 61.8381C199.391 61.3693 200.541 61.1349 201.915 61.1349C203.705 61.1349 205.356 61.6037 206.869 62.5412C208.382 63.468 209.591 64.869 210.497 66.744C211.402 68.6083 211.855 70.9467 211.855 73.7592C211.855 76.4972 211.413 78.8089 210.529 80.6946C209.655 82.5696 208.462 83.9918 206.949 84.9613C205.447 85.9201 203.764 86.3995 201.899 86.3995C200.578 86.3995 199.454 86.1811 198.528 85.7443C197.611 85.3075 196.86 84.7589 196.274 84.0984C195.688 83.4272 195.241 82.7507 194.932 82.0689H194.724V95.2045H187.917ZM194.581 73.7273C194.581 75.1868 194.783 76.4599 195.188 77.5465C195.593 78.6332 196.179 79.4801 196.946 80.0874C197.713 80.6839 198.645 80.9822 199.742 80.9822C200.85 80.9822 201.788 80.6786 202.555 80.0714C203.322 79.4535 203.902 78.6012 204.296 77.5146C204.701 76.4173 204.904 75.1548 204.904 73.7273C204.904 72.3104 204.707 71.0639 204.312 69.9879C203.918 68.9119 203.338 68.0703 202.571 67.4631C201.804 66.8558 200.861 66.5522 199.742 66.5522C198.634 66.5522 197.697 66.8452 196.93 67.4311C196.173 68.017 195.593 68.848 195.188 69.924C194.783 71 194.581 72.2678 194.581 73.7273ZM227.579 86.4794C225.055 86.4794 222.881 85.968 221.06 84.9453C219.248 83.9119 217.853 82.4524 216.873 80.5668C215.893 78.6705 215.403 76.4279 215.403 73.8391C215.403 71.3143 215.893 69.0984 216.873 67.1914C217.853 65.2844 219.233 63.7983 221.012 62.733C222.801 61.6676 224.9 61.1349 227.308 61.1349C228.927 61.1349 230.435 61.396 231.83 61.918C233.236 62.4293 234.462 63.2017 235.506 64.2351C236.56 65.2685 237.381 66.5682 237.967 68.1342C238.552 69.6896 238.845 71.5114 238.845 73.5994V75.4691H218.119V71.2504H232.437C232.437 70.2702 232.224 69.402 231.798 68.6456C231.372 67.8892 230.781 67.2979 230.024 66.8718C229.279 66.435 228.41 66.2166 227.42 66.2166C226.386 66.2166 225.47 66.4563 224.671 66.9357C223.883 67.4045 223.265 68.0384 222.817 68.8374C222.37 69.6257 222.141 70.5046 222.13 71.4741V75.4851C222.13 76.6996 222.354 77.7489 222.801 78.6332C223.259 79.5174 223.904 80.1992 224.735 80.6786C225.566 81.158 226.551 81.3977 227.691 81.3977C228.448 81.3977 229.14 81.2912 229.769 81.0781C230.397 80.8651 230.935 80.5455 231.383 80.1193C231.83 79.6932 232.171 79.1712 232.405 78.5533L238.702 78.9688C238.382 80.4815 237.727 81.8026 236.736 82.9318C235.756 84.0504 234.488 84.924 232.933 85.5526C231.388 86.1705 229.604 86.4794 227.579 86.4794ZM250.095 71.8097V86H243.288V61.4545H249.776V65.7852H250.063C250.607 64.3576 251.518 63.2283 252.796 62.3974C254.074 61.5558 255.625 61.1349 257.446 61.1349C259.151 61.1349 260.637 61.5078 261.905 62.2536C263.172 62.9993 264.158 64.0646 264.861 65.4496C265.564 66.8239 265.916 68.4645 265.916 70.3714V86H259.108V71.5859C259.119 70.0838 258.735 68.9119 257.958 68.0703C257.18 67.218 256.109 66.7919 254.746 66.7919C253.829 66.7919 253.02 66.989 252.317 67.3832C251.624 67.7773 251.081 68.3526 250.687 69.109C250.303 69.8548 250.106 70.755 250.095 71.8097ZM277.05 86H269.635L280.933 53.2727H289.85L301.132 86H293.717L285.519 60.7514H285.264L277.05 86ZM276.586 73.136H294.101V78.5373H276.586V73.136ZM305.071 86V53.2727H317.983C320.465 53.2727 322.58 53.7468 324.327 54.695C326.074 55.6325 327.406 56.9375 328.322 58.6101C329.249 60.272 329.712 62.1896 329.712 64.3629C329.712 66.5362 329.244 68.4538 328.306 70.1158C327.369 71.7777 326.01 73.0721 324.231 73.9989C322.463 74.9258 320.321 75.3892 317.807 75.3892H309.577V69.8441H316.689C318.02 69.8441 319.118 69.6151 319.98 69.157C320.854 68.6882 321.504 68.0437 321.93 67.2234C322.367 66.3924 322.585 65.4389 322.585 64.3629C322.585 63.2763 322.367 62.3281 321.93 61.5185C321.504 60.6982 320.854 60.0643 319.98 59.6168C319.107 59.1587 317.999 58.9297 316.657 58.9297H311.99V86H305.071ZM341.126 53.2727V86H334.207V53.2727H341.126Z" fill="white"/>
</svg>
