<svg width="608" height="140" viewBox="0 0 608 140" fill="none" xmlns="http://www.w3.org/2000/svg">
<rect width="608" height="140" rx="20" fill="#173647"/>
<path d="M70.6168 117.232C44.3612 117.232 23 95.8724 23 69.6158C23 43.3593 44.3612 22 70.6168 22C96.8724 22 118.234 43.3613 118.234 69.6168C118.234 95.8724 96.8724 117.232 70.6168 117.232Z" fill="#85EA2D"/>
<path d="M69.9995 24.7664C94.9818 24.7664 115.233 45.0173 115.233 69.9995C115.233 94.9808 94.9818 115.233 69.9995 115.233C45.0182 115.233 24.7664 94.9808 24.7664 69.9995C24.7664 45.0183 45.0182 24.7664 69.9995 24.7664ZM69.9995 20C42.4297 20 20 42.4297 20 69.9995C20 97.5694 42.4297 119.999 69.9995 119.999C97.5693 119.999 120 97.5694 120 69.9995C120 42.4297 97.5693 20 69.9995 20Z" fill="#173647"/>
<path d="M51.9194 53.3886C51.7655 55.0997 51.9764 56.8687 51.8625 58.5988C51.7276 60.3298 51.5157 62.0409 51.1699 63.7519C50.6891 66.1936 49.17 68.0396 47.0751 69.5777C51.1519 72.2313 51.6126 76.345 51.8815 80.5177C52.0164 82.7675 51.9584 85.0362 52.1893 87.266C52.3622 88.9961 53.0348 89.4388 54.8238 89.4958C55.5544 89.5148 56.303 89.4958 57.1506 89.4958V94.8409C51.8635 95.7444 47.4989 94.2452 46.4215 89.7656C46.0747 88.1315 45.8438 86.4585 45.7678 84.7664C45.6519 82.9784 45.8438 81.1904 45.7099 79.4023C45.3251 74.499 44.6904 72.8459 40 72.6151V66.5204C40.3458 66.4435 40.6726 66.3855 41.0184 66.3475C43.595 66.2126 44.6904 65.424 45.2481 62.8864C45.518 61.4642 45.6719 60.022 45.7288 58.5608C45.9217 55.7733 45.8448 52.9279 46.3245 50.1594C46.9972 46.1796 49.4588 44.2567 53.5545 44.0258C54.7079 43.9678 55.8813 44.0258 57.2075 44.0258V49.4868C56.6498 49.5258 56.1691 49.6017 55.6694 49.6017C52.3432 49.4858 52.1693 50.6202 51.9194 53.3886ZM58.3219 66.0397H58.245C56.322 65.9437 54.6689 67.4429 54.572 69.3659C54.476 71.3078 55.9752 72.9619 57.8982 73.0568H58.129C60.033 73.1728 61.6661 71.7106 61.782 69.8076V69.6157C61.821 67.6738 60.2639 66.0787 58.3219 66.0397ZM70.3773 66.0397C68.5123 65.9817 66.9542 67.4429 66.8972 69.2889C66.8972 69.4048 66.8972 69.5008 66.9172 69.6157C66.9172 71.7116 68.3394 73.0578 70.4932 73.0578C72.6081 73.0578 73.9353 71.6736 73.9353 69.5008C73.9153 67.4049 72.5111 66.0207 70.3773 66.0397ZM82.7215 66.0397C80.7606 66.0007 79.1255 67.5589 79.0685 69.5198C79.0685 71.4807 80.6446 73.0568 82.6056 73.0568H82.6445C84.4136 73.3647 86.2016 71.6536 86.3175 69.5967C86.4125 67.6928 84.6824 66.0397 82.7215 66.0397ZM99.6602 66.3275C97.4294 66.2316 96.314 65.482 95.7573 63.3662C95.4105 62.0209 95.1996 60.6167 95.1227 59.2324C94.9688 56.6559 94.9878 54.0603 94.8148 51.4837C94.4111 45.3701 89.9895 43.2362 83.567 44.2927V49.5997C84.5855 49.5997 85.374 49.5997 86.1626 49.6187C87.5279 49.6377 88.5663 50.1574 88.7002 51.6766C88.8351 53.0608 88.8351 54.4641 88.9701 55.8683C89.2399 58.6568 89.3928 61.4822 89.8736 64.2317C90.2973 66.5004 91.8545 68.1925 93.7954 69.5767C90.3933 71.8645 89.3928 75.1327 89.2199 78.8057C89.124 81.3243 89.066 83.8619 88.9321 86.4005C88.8162 88.7072 88.0096 89.4568 85.6829 89.5148C85.0292 89.5338 84.3946 89.5917 83.664 89.6307V95.0717C85.0292 95.0717 86.2785 95.1487 87.5279 95.0717C91.4117 94.8408 93.7574 92.9569 94.527 89.188C94.8538 87.1111 95.0457 85.0163 95.1037 82.9204C95.2376 80.9975 95.2196 79.0555 95.4115 77.1526C95.6994 74.1722 97.0646 72.9419 100.045 72.75C100.334 72.711 100.603 72.6541 100.872 72.5581V66.4625C100.372 66.4045 100.025 66.3475 99.6602 66.3275Z" fill="#173647"/>
<path d="M182.919 69.6364C182.919 73.2053 182.243 76.2415 180.89 78.745C179.547 81.2486 177.715 83.1609 175.392 84.4819C173.081 85.7923 170.481 86.4474 167.594 86.4474C164.686 86.4474 162.076 85.7869 159.764 84.4659C157.452 83.1449 155.625 81.2326 154.283 78.729C152.94 76.2255 152.269 73.1946 152.269 69.6364C152.269 66.0675 152.94 63.0312 154.283 60.5277C155.625 58.0241 157.452 56.1172 159.764 54.8068C162.076 53.4858 164.686 52.8253 167.594 52.8253C170.481 52.8253 173.081 53.4858 175.392 54.8068C177.715 56.1172 179.547 58.0241 180.89 60.5277C182.243 63.0312 182.919 66.0675 182.919 69.6364ZM175.904 69.6364C175.904 67.3246 175.558 65.375 174.865 63.7876C174.183 62.2003 173.219 60.9964 171.973 60.1761C170.726 59.3558 169.267 58.9457 167.594 58.9457C165.922 58.9457 164.462 59.3558 163.216 60.1761C161.969 60.9964 161 62.2003 160.307 63.7876C159.625 65.375 159.284 67.3246 159.284 69.6364C159.284 71.9482 159.625 73.8977 160.307 75.4851C161 77.0724 161.969 78.2763 163.216 79.0966C164.462 79.9169 165.922 80.3271 167.594 80.3271C169.267 80.3271 170.726 79.9169 171.973 79.0966C173.219 78.2763 174.183 77.0724 174.865 75.4851C175.558 73.8977 175.904 71.9482 175.904 69.6364ZM187.917 95.2045V61.4545H194.628V65.5774H194.932C195.23 64.9169 195.662 64.2457 196.226 63.5639C196.802 62.8714 197.547 62.2962 198.464 61.8381C199.391 61.3693 200.541 61.1349 201.915 61.1349C203.705 61.1349 205.356 61.6037 206.869 62.5412C208.382 63.468 209.591 64.869 210.497 66.744C211.402 68.6083 211.855 70.9467 211.855 73.7592C211.855 76.4972 211.413 78.8089 210.529 80.6946C209.655 82.5696 208.462 83.9918 206.949 84.9613C205.447 85.9201 203.764 86.3995 201.899 86.3995C200.578 86.3995 199.454 86.1811 198.528 85.7443C197.611 85.3075 196.86 84.7589 196.274 84.0984C195.688 83.4272 195.241 82.7507 194.932 82.0689H194.724V95.2045H187.917ZM194.581 73.7273C194.581 75.1868 194.783 76.4599 195.188 77.5465C195.593 78.6332 196.179 79.4801 196.946 80.0874C197.713 80.6839 198.645 80.9822 199.742 80.9822C200.85 80.9822 201.788 80.6786 202.555 80.0714C203.322 79.4535 203.902 78.6012 204.296 77.5146C204.701 76.4173 204.904 75.1548 204.904 73.7273C204.904 72.3104 204.707 71.0639 204.312 69.9879C203.918 68.9119 203.338 68.0703 202.571 67.4631C201.804 66.8558 200.861 66.5522 199.742 66.5522C198.634 66.5522 197.697 66.8452 196.93 67.4311C196.173 68.017 195.593 68.848 195.188 69.924C194.783 71 194.581 72.2678 194.581 73.7273ZM227.579 86.4794C225.055 86.4794 222.881 85.968 221.06 84.9453C219.248 83.9119 217.853 82.4524 216.873 80.5668C215.893 78.6705 215.403 76.4279 215.403 73.8391C215.403 71.3143 215.893 69.0984 216.873 67.1914C217.853 65.2844 219.233 63.7983 221.012 62.733C222.801 61.6676 224.9 61.1349 227.308 61.1349C228.927 61.1349 230.435 61.396 231.83 61.918C233.236 62.4293 234.462 63.2017 235.506 64.2351C236.56 65.2685 237.381 66.5682 237.967 68.1342C238.552 69.6896 238.845 71.5114 238.845 73.5994V75.4691H218.119V71.2504H232.437C232.437 70.2702 232.224 69.402 231.798 68.6456C231.372 67.8892 230.781 67.2979 230.024 66.8718C229.279 66.435 228.41 66.2166 227.42 66.2166C226.386 66.2166 225.47 66.4563 224.671 66.9357C223.883 67.4045 223.265 68.0384 222.817 68.8374C222.37 69.6257 222.141 70.5046 222.13 71.4741V75.4851C222.13 76.6996 222.354 77.7489 222.801 78.6332C223.259 79.5174 223.904 80.1992 224.735 80.6786C225.566 81.158 226.551 81.3977 227.691 81.3977C228.448 81.3977 229.14 81.2912 229.769 81.0781C230.397 80.8651 230.935 80.5455 231.383 80.1193C231.83 79.6932 232.171 79.1712 232.405 78.5533L238.702 78.9688C238.382 80.4815 237.727 81.8026 236.736 82.9318C235.756 84.0504 234.488 84.924 232.933 85.5526C231.388 86.1705 229.604 86.4794 227.579 86.4794ZM250.095 71.8097V86H243.288V61.4545H249.776V65.7852H250.063C250.607 64.3576 251.518 63.2283 252.796 62.3974C254.074 61.5558 255.625 61.1349 257.446 61.1349C259.151 61.1349 260.637 61.5078 261.905 62.2536C263.172 62.9993 264.158 64.0646 264.861 65.4496C265.564 66.8239 265.916 68.4645 265.916 70.3714V86H259.108V71.5859C259.119 70.0838 258.735 68.9119 257.958 68.0703C257.18 67.218 256.109 66.7919 254.746 66.7919C253.829 66.7919 253.02 66.989 252.317 67.3832C251.624 67.7773 251.081 68.3526 250.687 69.109C250.303 69.8548 250.106 70.755 250.095 71.8097ZM277.05 86H269.635L280.933 53.2727H289.85L301.132 86H293.717L285.519 60.7514H285.264L277.05 86ZM276.586 73.136H294.101V78.5373H276.586V73.136ZM305.071 86V53.2727H317.983C320.465 53.2727 322.58 53.7468 324.327 54.695C326.074 55.6325 327.406 56.9375 328.322 58.6101C329.249 60.272 329.712 62.1896 329.712 64.3629C329.712 66.5362 329.244 68.4538 328.306 70.1158C327.369 71.7777 326.01 73.0721 324.231 73.9989C322.463 74.9258 320.321 75.3892 317.807 75.3892H309.577V69.8441H316.689C318.02 69.8441 319.118 69.6151 319.98 69.157C320.854 68.6882 321.504 68.0437 321.93 67.2234C322.367 66.3924 322.585 65.4389 322.585 64.3629C322.585 63.2763 322.367 62.3281 321.93 61.5185C321.504 60.6982 320.854 60.0643 319.98 59.6168C319.107 59.1587 317.999 58.9297 316.657 58.9297H311.99V86H305.071ZM341.126 53.2727V86H334.207V53.2727H341.126ZM358.608 69.6364C358.608 65.6733 359.136 62.0245 360.19 58.69C361.256 55.3555 362.88 52.266 365.064 49.4215H371.568C370.737 50.4762 369.965 51.7653 369.251 53.2887C368.537 54.8015 367.914 56.4634 367.381 58.2745C366.849 60.0856 366.433 61.9606 366.135 63.8995C365.837 65.8278 365.688 67.7401 365.688 69.6364C365.688 72.1612 365.943 74.7127 366.455 77.2908C366.977 79.8583 367.68 82.2447 368.564 84.4499C369.459 86.6552 370.46 88.4609 371.568 89.8672H365.064C362.88 87.0227 361.256 83.9332 360.19 80.5987C359.136 77.2642 358.608 73.6101 358.608 69.6364ZM393.401 62.685C393.273 61.396 392.725 60.3945 391.755 59.6808C390.786 58.967 389.47 58.6101 387.808 58.6101C386.679 58.6101 385.725 58.7699 384.948 59.0895C384.17 59.3984 383.573 59.8299 383.158 60.3839C382.753 60.9379 382.551 61.5664 382.551 62.2695C382.529 62.8555 382.652 63.3668 382.918 63.8036C383.195 64.2404 383.573 64.6186 384.053 64.9382C384.532 65.2472 385.086 65.5188 385.715 65.7532C386.343 65.9769 387.014 66.1687 387.728 66.3285L390.669 67.0316C392.096 67.3512 393.406 67.7773 394.6 68.31C395.793 68.8427 396.826 69.4979 397.7 70.2756C398.573 71.0533 399.25 71.9695 399.729 73.0241C400.219 74.0788 400.47 75.288 400.48 76.6516C400.47 78.6545 399.958 80.391 398.946 81.8612C397.945 83.3207 396.496 84.4553 394.6 85.2649C392.714 86.0639 390.439 86.4634 387.776 86.4634C385.134 86.4634 382.833 86.0586 380.873 85.2489C378.923 84.4393 377.4 83.2408 376.302 81.6534C375.216 80.0554 374.646 78.0792 374.593 75.7248H381.288C381.363 76.8221 381.677 77.7383 382.231 78.4734C382.796 79.1978 383.547 79.7464 384.484 80.1193C385.432 80.4815 386.503 80.6626 387.696 80.6626C388.868 80.6626 389.885 80.4922 390.748 80.1513C391.622 79.8104 392.298 79.3363 392.778 78.729C393.257 78.1218 393.497 77.424 393.497 76.6357C393.497 75.9006 393.279 75.2827 392.842 74.782C392.416 74.2812 391.787 73.8551 390.956 73.5036C390.136 73.152 389.129 72.8324 387.936 72.5447L384.372 71.6499C381.613 70.9787 379.434 69.9293 377.836 68.5018C376.238 67.0742 375.445 65.1513 375.455 62.733C375.445 60.7514 375.972 59.0202 377.037 57.5394C378.113 56.0586 379.589 54.9027 381.464 54.0717C383.339 53.2408 385.47 52.8253 387.856 52.8253C390.285 52.8253 392.405 53.2408 394.216 54.0717C396.038 54.9027 397.455 56.0586 398.467 57.5394C399.479 59.0202 400.001 60.7354 400.033 62.685H393.401ZM409.849 86L403.169 61.4545H410.056L413.86 77.946H414.083L418.046 61.4545H424.806L428.833 77.8501H429.041L432.78 61.4545H439.652L432.988 86H425.781L421.562 70.5632H421.258L417.04 86H409.849ZM450.282 86.4634C448.716 86.4634 447.321 86.1918 446.096 85.6484C444.87 85.0945 443.901 84.2795 443.187 83.2035C442.484 82.1168 442.132 80.7638 442.132 79.1445C442.132 77.7809 442.383 76.6357 442.884 75.7088C443.384 74.782 444.066 74.0362 444.929 73.4716C445.792 72.907 446.772 72.4808 447.869 72.1932C448.977 71.9055 450.138 71.7031 451.353 71.5859C452.781 71.4368 453.931 71.2983 454.805 71.1705C455.678 71.032 456.312 70.8295 456.706 70.5632C457.1 70.2969 457.298 69.9027 457.298 69.3807V69.2848C457.298 68.2727 456.978 67.4897 456.339 66.9357C455.71 66.3817 454.815 66.1048 453.654 66.1048C452.429 66.1048 451.454 66.3764 450.73 66.9197C450.005 67.4524 449.526 68.1236 449.292 68.9332L442.995 68.4219C443.315 66.9304 443.944 65.6413 444.881 64.5547C445.819 63.4574 447.028 62.6158 448.509 62.0298C450 61.4332 451.726 61.1349 453.686 61.1349C455.05 61.1349 456.355 61.2947 457.601 61.6143C458.858 61.9339 459.972 62.4293 460.941 63.1005C461.921 63.7717 462.694 64.6346 463.258 65.6893C463.823 66.7333 464.105 67.9851 464.105 69.4446V86H457.649V82.5962H457.457C457.063 83.3633 456.536 84.0398 455.875 84.6257C455.215 85.201 454.421 85.6538 453.494 85.984C452.567 86.3036 451.497 86.4634 450.282 86.4634ZM452.232 81.7653C453.233 81.7653 454.118 81.5682 454.885 81.174C455.652 80.7692 456.254 80.2259 456.69 79.544C457.127 78.8622 457.346 78.0898 457.346 77.2269V74.6222C457.132 74.7607 456.839 74.8885 456.467 75.0057C456.104 75.1122 455.694 75.2134 455.236 75.3093C454.778 75.3945 454.32 75.4744 453.862 75.549C453.404 75.6129 452.988 75.6715 452.615 75.7248C451.816 75.842 451.119 76.0284 450.522 76.2841C449.925 76.5398 449.462 76.886 449.132 77.3228C448.801 77.7489 448.636 78.2816 448.636 78.9208C448.636 79.8477 448.972 80.5561 449.643 81.0462C450.325 81.5256 451.188 81.7653 452.232 81.7653ZM480.445 95.7159C478.24 95.7159 476.349 95.4123 474.772 94.805C473.206 94.2085 471.959 93.3935 471.032 92.3601C470.106 91.3267 469.504 90.1655 469.227 88.8764L475.523 88.0295C475.715 88.5195 476.018 88.9776 476.434 89.4038C476.849 89.8299 477.398 90.1708 478.08 90.4265C478.772 90.6928 479.614 90.826 480.605 90.826C482.085 90.826 483.305 90.4638 484.264 89.7393C485.233 89.0256 485.718 87.8271 485.718 86.1438V81.6534H485.431C485.132 82.3352 484.685 82.9798 484.088 83.587C483.492 84.1942 482.725 84.6896 481.787 85.0732C480.85 85.4567 479.731 85.6484 478.431 85.6484C476.588 85.6484 474.91 85.2223 473.398 84.37C471.895 83.5071 470.697 82.1914 469.802 80.4229C468.918 78.6438 468.476 76.396 468.476 73.6793C468.476 70.8988 468.928 68.5763 469.834 66.712C470.74 64.8477 471.943 63.4521 473.445 62.5252C474.958 61.5984 476.615 61.1349 478.415 61.1349C479.79 61.1349 480.94 61.3693 481.867 61.8381C482.794 62.2962 483.54 62.8714 484.104 63.5639C484.68 64.2457 485.122 64.9169 485.431 65.5774H485.686V61.4545H492.446V86.2397C492.446 88.3278 491.934 90.0749 490.912 91.4812C489.889 92.8874 488.472 93.9421 486.661 94.6452C484.861 95.359 482.789 95.7159 480.445 95.7159ZM480.589 80.5348C481.686 80.5348 482.613 80.2631 483.369 79.7198C484.136 79.1658 484.722 78.3775 485.127 77.3548C485.542 76.3214 485.75 75.0856 485.75 73.6474C485.75 72.2092 485.548 70.9627 485.143 69.908C484.738 68.8427 484.152 68.017 483.385 67.4311C482.618 66.8452 481.686 66.5522 480.589 66.5522C479.47 66.5522 478.527 66.8558 477.76 67.4631C476.993 68.0597 476.412 68.8906 476.018 69.956C475.624 71.0213 475.427 72.2518 475.427 73.6474C475.427 75.0643 475.624 76.2894 476.018 77.3228C476.423 78.3455 477.004 79.1392 477.76 79.7038C478.527 80.2578 479.47 80.5348 480.589 80.5348ZM508.921 95.7159C506.716 95.7159 504.825 95.4123 503.248 94.805C501.682 94.2085 500.436 93.3935 499.509 92.3601C498.582 91.3267 497.98 90.1655 497.703 88.8764L503.999 88.0295C504.191 88.5195 504.495 88.9776 504.91 89.4038C505.326 89.8299 505.874 90.1708 506.556 90.4265C507.249 90.6928 508.09 90.826 509.081 90.826C510.562 90.826 511.782 90.4638 512.741 89.7393C513.71 89.0256 514.195 87.8271 514.195 86.1438V81.6534H513.907C513.609 82.3352 513.161 82.9798 512.565 83.587C511.968 84.1942 511.201 84.6896 510.264 85.0732C509.326 85.4567 508.208 85.6484 506.908 85.6484C505.065 85.6484 503.387 85.2223 501.874 84.37C500.372 83.5071 499.173 82.1914 498.279 80.4229C497.394 78.6438 496.952 76.396 496.952 73.6793C496.952 70.8988 497.405 68.5763 498.311 66.712C499.216 64.8477 500.42 63.4521 501.922 62.5252C503.435 61.5984 505.091 61.1349 506.892 61.1349C508.266 61.1349 509.417 61.3693 510.344 61.8381C511.27 62.2962 512.016 62.8714 512.581 63.5639C513.156 64.2457 513.598 64.9169 513.907 65.5774H514.163V61.4545H520.922V86.2397C520.922 88.3278 520.411 90.0749 519.388 91.4812C518.366 92.8874 516.949 93.9421 515.138 94.6452C513.337 95.359 511.265 95.7159 508.921 95.7159ZM509.065 80.5348C510.162 80.5348 511.089 80.2631 511.846 79.7198C512.613 79.1658 513.199 78.3775 513.604 77.3548C514.019 76.3214 514.227 75.0856 514.227 73.6474C514.227 72.2092 514.024 70.9627 513.619 69.908C513.215 68.8427 512.629 68.017 511.862 67.4311C511.095 66.8452 510.162 66.5522 509.065 66.5522C507.947 66.5522 507.004 66.8558 506.237 67.4631C505.47 68.0597 504.889 68.8906 504.495 69.956C504.101 71.0213 503.904 72.2518 503.904 73.6474C503.904 75.0643 504.101 76.2894 504.495 77.3228C504.9 78.3455 505.48 79.1392 506.237 79.7038C507.004 80.2578 507.947 80.5348 509.065 80.5348ZM537.526 86.4794C535.001 86.4794 532.828 85.968 531.006 84.9453C529.195 83.9119 527.799 82.4524 526.819 80.5668C525.839 78.6705 525.349 76.4279 525.349 73.8391C525.349 71.3143 525.839 69.0984 526.819 67.1914C527.799 65.2844 529.179 63.7983 530.958 62.733C532.748 61.6676 534.846 61.1349 537.254 61.1349C538.873 61.1349 540.381 61.396 541.776 61.918C543.183 62.4293 544.408 63.2017 545.452 64.2351C546.507 65.2685 547.327 66.5682 547.913 68.1342C548.499 69.6896 548.792 71.5114 548.792 73.5994V75.4691H528.066V71.2504H542.384C542.384 70.2702 542.171 69.402 541.744 68.6456C541.318 67.8892 540.727 67.2979 539.971 66.8718C539.225 66.435 538.357 66.2166 537.366 66.2166C536.333 66.2166 535.416 66.4563 534.617 66.9357C533.829 67.4045 533.211 68.0384 532.764 68.8374C532.316 69.6257 532.087 70.5046 532.077 71.4741V75.4851C532.077 76.6996 532.3 77.7489 532.748 78.6332C533.206 79.5174 533.85 80.1992 534.681 80.6786C535.512 81.158 536.498 81.3977 537.638 81.3977C538.394 81.3977 539.086 81.2912 539.715 81.0781C540.344 80.8651 540.882 80.5455 541.329 80.1193C541.776 79.6932 542.117 79.1712 542.352 78.5533L548.648 78.9688C548.328 80.4815 547.673 81.8026 546.682 82.9318C545.702 84.0504 544.434 84.924 542.879 85.5526C541.334 86.1705 539.55 86.4794 537.526 86.4794ZM553.234 86V61.4545H559.834V65.7372H560.09C560.537 64.2138 561.288 63.0632 562.343 62.2855C563.398 61.4972 564.612 61.103 565.986 61.103C566.327 61.103 566.695 61.1243 567.089 61.1669C567.483 61.2095 567.829 61.2681 568.128 61.3427V67.3832C567.808 67.2873 567.366 67.2021 566.801 67.1275C566.237 67.0529 565.72 67.0156 565.251 67.0156C564.25 67.0156 563.355 67.234 562.567 67.6708C561.789 68.0969 561.171 68.6935 560.713 69.4606C560.265 70.2276 560.042 71.1119 560.042 72.1133V86H553.234ZM583.121 72.8803C583.121 76.854 582.588 80.5082 581.523 83.8427C580.468 87.1772 578.849 90.2667 576.665 93.1112H570.161C570.992 92.0565 571.764 90.7674 572.478 89.244C573.192 87.7205 573.815 86.0586 574.348 84.2582C574.881 82.4471 575.296 80.5721 575.594 78.6332C575.893 76.6942 576.042 74.7766 576.042 72.8803C576.042 70.3555 575.781 67.8093 575.259 65.2418C574.747 62.6637 574.044 60.2773 573.149 58.0827C572.265 55.8775 571.269 54.0717 570.161 52.6655H576.665C578.849 55.5099 580.468 58.5994 581.523 61.9339C582.588 65.2685 583.121 68.9173 583.121 72.8803Z" fill="white"/>
</svg>
