<svg width="140" height="140" viewBox="0 0 140 140" fill="none" xmlns="http://www.w3.org/2000/svg">
<rect width="140" height="140" rx="20" fill="#202C5F"/>
<path d="M73.281 75.0402C68.4239 79.643 68.4239 87.1146 73.281 91.7174C78.1381 96.3202 86.0225 96.3202 90.8796 91.7174C95.7367 87.1146 95.7367 79.643 90.8796 75.0402C86.0225 70.4374 78.1381 70.4374 73.281 75.0402ZM86.455 87.5245C84.0597 89.7944 80.1342 89.7944 77.7389 87.5245C75.3436 85.2546 75.3436 81.5346 77.7389 79.2647C80.1342 76.9948 84.0597 76.9948 86.455 79.2647C88.8503 81.5346 88.8503 85.2546 86.455 87.5245ZM90.68 17.064L83.0617 24.2834C81.5647 25.7021 81.5647 28.0035 83.0617 29.4222L112.836 57.6379C114.333 59.0566 116.762 59.0566 118.259 57.6379L125.877 50.4184C127.374 48.9998 127.374 46.6984 125.877 45.2797L96.1026 17.064C94.6056 15.6453 92.1771 15.6453 90.68 17.064ZM37.2854 109.34C38.6494 108.048 38.6494 105.967 37.2854 104.675L33.3931 100.986C32.0291 99.6935 29.8334 99.6935 28.4695 100.986L20.4852 108.552L18.2896 106.472C17.0919 105.337 15.0959 105.337 13.8982 106.472C12.7006 107.607 12.7006 109.498 13.8982 110.633L27.1055 123.149C28.3031 124.284 30.2992 124.284 31.4968 123.149C32.6945 122.014 32.6945 120.122 31.4968 118.987L29.3012 116.907L37.2854 109.34Z" fill="#F5A800"/>
<path d="M77.6058 37.7759L60.6726 53.8226C59.1755 55.2412 59.1755 57.6057 60.6726 59.0244L71.1186 68.9235C78.5041 63.8794 88.8836 64.5099 95.5371 70.8151L103.987 62.8075C105.484 61.3888 105.484 59.0244 103.987 57.6057L83.095 37.8074C81.5647 36.3572 79.1029 36.3572 77.6058 37.7759ZM66.7273 73.1165L60.5395 67.2526C59.109 65.897 56.7137 65.897 55.2832 67.2526L33.4929 87.9021C32.0624 89.2578 32.0624 91.5276 33.4929 92.8832L45.8352 104.579C47.2657 105.935 49.661 105.935 51.0915 104.579L65.0972 91.3069C62.1696 85.4746 62.7019 78.4759 66.7273 73.1165Z" fill="#425CC7"/>
</svg>
