<svg width="140" height="140" viewBox="0 0 140 140" fill="none" xmlns="http://www.w3.org/2000/svg">
<rect width="140" height="140" rx="20" fill="#C74634"/>
<path d="M51.5287 101.529C34.0127 101.529 20 87.5163 20 70.0004C20 52.4845 34.0127 38.4717 51.5287 38.4717H88.4713C105.987 38.4717 120 52.4845 120 70.0004C120 87.5163 105.987 101.529 88.4713 101.529H51.5287ZM87.5159 90.3826C98.9809 90.3826 107.898 81.1469 107.898 70.0004C107.898 58.5354 98.6624 49.6182 87.5159 49.6182H52.4841C41.0191 49.6182 32.1019 58.8539 32.1019 70.0004C32.1019 81.1469 41.3376 90.3826 52.4841 90.3826H87.5159Z" fill="white"/>
</svg>
