<svg width="140" height="140" viewBox="0 0 140 140" fill="none" xmlns="http://www.w3.org/2000/svg">
<rect width="140" height="140" rx="20" fill="#C74634"/>
<path d="M51.5287 101.529C34.0127 101.529 20 87.5158 20 69.9999C20 52.484 34.0127 38.4712 51.5287 38.4712H88.4713C105.987 38.4712 120 52.484 120 69.9999C120 87.5158 105.987 101.529 88.4713 101.529H51.5287ZM87.5159 90.3821C98.9809 90.3821 107.898 81.1464 107.898 69.9999C107.898 58.5349 98.6624 49.6177 87.5159 49.6177H52.4841C41.0191 49.6177 32.1019 58.8534 32.1019 69.9999C32.1019 81.1464 41.3376 90.3821 52.4841 90.3821H87.5159Z" fill="white"/>
</svg>
