<svg width="296" height="140" viewBox="0 0 296 140" fill="none" xmlns="http://www.w3.org/2000/svg">
<rect width="296" height="140" rx="20" fill="#130754"/>
<path d="M48.545 25.9114H37.5934V48.6045H48.545V25.9114Z" fill="white"/>
<path d="M48.545 72.527H37.5934V95.22H48.545V72.527Z" fill="white"/>
<path d="M48.545 55.2282H37.5934V65.935H48.545V55.2282Z" fill="#FFCA00"/>
<path d="M30.9516 44.5667H20V120H30.9516V44.5667Z" fill="white"/>
<path d="M65.7748 91.2503H54.8232V113.943H65.7748V91.2503Z" fill="white"/>
<path d="M65.7748 44.594H54.8232V67.287H65.7748V44.594Z" fill="white"/>
<path d="M65.7748 73.9153H54.8232V84.6221H65.7748V73.9153Z" fill="#E70488"/>
<path d="M83 20H72.0484V95.4333H83V20Z" fill="white"/>
<path d="M115.844 86V53.2727H128.756C131.239 53.2727 133.353 53.7468 135.1 54.695C136.848 55.6325 138.179 56.9375 139.096 58.6101C140.022 60.272 140.486 62.1896 140.486 64.3629C140.486 66.5362 140.017 68.4538 139.08 70.1158C138.142 71.7777 136.784 73.0721 135.005 73.9989C133.236 74.9258 131.095 75.3892 128.581 75.3892H120.351V69.8441H127.462C128.794 69.8441 129.891 69.6151 130.754 69.157C131.627 68.6882 132.277 68.0437 132.703 67.2234C133.14 66.3924 133.359 65.4389 133.359 64.3629C133.359 63.2763 133.14 62.3281 132.703 61.5185C132.277 60.6982 131.627 60.0643 130.754 59.6168C129.88 59.1587 128.772 58.9297 127.43 58.9297H122.764V86H115.844ZM151.192 86.4634C149.626 86.4634 148.231 86.1918 147.006 85.6484C145.781 85.0945 144.811 84.2795 144.097 83.2035C143.394 82.1168 143.043 80.7638 143.043 79.1445C143.043 77.7809 143.293 76.6357 143.794 75.7088C144.294 74.782 144.976 74.0362 145.839 73.4716C146.702 72.907 147.682 72.4808 148.779 72.1932C149.887 71.9055 151.049 71.7031 152.263 71.5859C153.691 71.4368 154.841 71.2983 155.715 71.1705C156.588 71.032 157.222 70.8295 157.616 70.5632C158.011 70.2969 158.208 69.9027 158.208 69.3807V69.2848C158.208 68.2727 157.888 67.4897 157.249 66.9357C156.62 66.3817 155.725 66.1048 154.564 66.1048C153.339 66.1048 152.364 66.3764 151.64 66.9197C150.915 67.4524 150.436 68.1236 150.202 68.9332L143.906 68.4219C144.225 66.9304 144.854 65.6413 145.791 64.5547C146.729 63.4574 147.938 62.6158 149.419 62.0298C150.91 61.4332 152.636 61.1349 154.596 61.1349C155.96 61.1349 157.265 61.2947 158.511 61.6143C159.768 61.9339 160.882 62.4293 161.851 63.1005C162.831 63.7717 163.604 64.6346 164.168 65.6893C164.733 66.7333 165.015 67.9851 165.015 69.4446V86H158.559V82.5962H158.368C157.973 83.3633 157.446 84.0398 156.786 84.6257C156.125 85.201 155.331 85.6538 154.404 85.984C153.478 86.3036 152.407 86.4634 151.192 86.4634ZM153.142 81.7653C154.143 81.7653 155.028 81.5682 155.795 81.174C156.562 80.7692 157.164 80.2259 157.6 79.544C158.037 78.8622 158.256 78.0898 158.256 77.2269V74.6222C158.043 74.7607 157.75 74.8885 157.377 75.0057C157.015 75.1122 156.604 75.2134 156.146 75.3093C155.688 75.3945 155.23 75.4744 154.772 75.549C154.314 75.6129 153.898 75.6715 153.526 75.7248C152.727 75.842 152.029 76.0284 151.432 76.2841C150.836 76.5398 150.372 76.886 150.042 77.3228C149.712 77.7489 149.547 78.2816 149.547 78.9208C149.547 79.8477 149.882 80.5561 150.553 81.0462C151.235 81.5256 152.098 81.7653 153.142 81.7653ZM177.104 71.8097V86H170.297V61.4545H176.785V65.7852H177.072C177.616 64.3576 178.526 63.2283 179.805 62.3974C181.083 61.5558 182.633 61.1349 184.455 61.1349C186.16 61.1349 187.646 61.5078 188.914 62.2536C190.181 62.9993 191.167 64.0646 191.87 65.4496C192.573 66.8239 192.925 68.4645 192.925 70.3714V86H186.117V71.5859C186.128 70.0838 185.744 68.9119 184.966 68.0703C184.189 67.218 183.118 66.7919 181.754 66.7919C180.838 66.7919 180.029 66.989 179.325 67.3832C178.633 67.7773 178.09 68.3526 177.695 69.109C177.312 69.8548 177.115 70.755 177.104 71.8097ZM207.335 86.3995C205.47 86.3995 203.782 85.9201 202.269 84.9613C200.767 83.9918 199.574 82.5696 198.689 80.6946C197.816 78.8089 197.379 76.4972 197.379 73.7592C197.379 70.9467 197.832 68.6083 198.737 66.744C199.643 64.869 200.847 63.468 202.349 62.5412C203.862 61.6037 205.518 61.1349 207.319 61.1349C208.693 61.1349 209.838 61.3693 210.754 61.8381C211.681 62.2962 212.427 62.8714 212.992 63.5639C213.567 64.2457 214.004 64.9169 214.302 65.5774H214.51V53.2727H221.301V86H214.59V82.0689H214.302C213.982 82.7507 213.53 83.4272 212.944 84.0984C212.368 84.7589 211.617 85.3075 210.69 85.7443C209.774 86.1811 208.656 86.3995 207.335 86.3995ZM209.492 80.9822C210.589 80.9822 211.516 80.6839 212.272 80.0874C213.04 79.4801 213.625 78.6332 214.03 77.5465C214.446 76.4599 214.653 75.1868 214.653 73.7273C214.653 72.2678 214.451 71 214.046 69.924C213.641 68.848 213.055 68.017 212.288 67.4311C211.521 66.8452 210.589 66.5522 209.492 66.5522C208.373 66.5522 207.43 66.8558 206.663 67.4631C205.896 68.0703 205.316 68.9119 204.922 69.9879C204.527 71.0639 204.33 72.3104 204.33 73.7273C204.33 75.1548 204.527 76.4173 204.922 77.5146C205.326 78.6012 205.907 79.4535 206.663 80.0714C207.43 80.6786 208.373 80.9822 209.492 80.9822ZM233.898 86.4634C232.331 86.4634 230.936 86.1918 229.711 85.6484C228.486 85.0945 227.516 84.2795 226.802 83.2035C226.099 82.1168 225.748 80.7638 225.748 79.1445C225.748 77.7809 225.998 76.6357 226.499 75.7088C226.999 74.782 227.681 74.0362 228.544 73.4716C229.407 72.907 230.387 72.4808 231.485 72.1932C232.593 71.9055 233.754 71.7031 234.968 71.5859C236.396 71.4368 237.546 71.2983 238.42 71.1705C239.294 71.032 239.927 70.8295 240.322 70.5632C240.716 70.2969 240.913 69.9027 240.913 69.3807V69.2848C240.913 68.2727 240.593 67.4897 239.954 66.9357C239.325 66.3817 238.431 66.1048 237.269 66.1048C236.044 66.1048 235.069 66.3764 234.345 66.9197C233.621 67.4524 233.141 68.1236 232.907 68.9332L226.611 68.4219C226.93 66.9304 227.559 65.6413 228.496 64.5547C229.434 63.4574 230.643 62.6158 232.124 62.0298C233.615 61.4332 235.341 61.1349 237.301 61.1349C238.665 61.1349 239.97 61.2947 241.216 61.6143C242.474 61.9339 243.587 62.4293 244.556 63.1005C245.536 63.7717 246.309 64.6346 246.873 65.6893C247.438 66.7333 247.72 67.9851 247.72 69.4446V86H241.264V82.5962H241.073C240.678 83.3633 240.151 84.0398 239.491 84.6257C238.83 85.201 238.036 85.6538 237.11 85.984C236.183 86.3036 235.112 86.4634 233.898 86.4634ZM235.847 81.7653C236.849 81.7653 237.733 81.5682 238.5 81.174C239.267 80.7692 239.869 80.2259 240.306 79.544C240.742 78.8622 240.961 78.0898 240.961 77.2269V74.6222C240.748 74.7607 240.455 74.8885 240.082 75.0057C239.72 75.1122 239.309 75.2134 238.851 75.3093C238.393 75.3945 237.935 75.4744 237.477 75.549C237.019 75.6129 236.604 75.6715 236.231 75.7248C235.432 75.842 234.734 76.0284 234.137 76.2841C233.541 76.5398 233.077 76.886 232.747 77.3228C232.417 77.7489 232.252 78.2816 232.252 78.9208C232.252 79.8477 232.587 80.5561 233.258 81.0462C233.94 81.5256 234.803 81.7653 235.847 81.7653ZM273.424 68.4538L267.192 68.8374C267.086 68.3047 266.857 67.8253 266.505 67.3991C266.153 66.9624 265.69 66.6161 265.115 66.3604C264.55 66.0941 263.874 65.9609 263.085 65.9609C262.031 65.9609 261.141 66.1847 260.417 66.6321C259.692 67.0689 259.33 67.6548 259.33 68.3899C259.33 68.9759 259.564 69.4712 260.033 69.8761C260.502 70.2809 261.306 70.6058 262.446 70.8509L266.888 71.7457C269.275 72.2358 271.054 73.0241 272.226 74.1108C273.398 75.1974 273.984 76.625 273.984 78.3935C273.984 80.0021 273.51 81.4137 272.561 82.6282C271.624 83.8427 270.335 84.7908 268.694 85.4727C267.064 86.1438 265.184 86.4794 263.053 86.4794C259.804 86.4794 257.215 85.8029 255.287 84.4499C253.369 83.0863 252.245 81.2326 251.915 78.8888L258.611 78.5373C258.813 79.5281 259.303 80.2844 260.081 80.8065C260.859 81.3178 261.855 81.5735 263.069 81.5735C264.262 81.5735 265.221 81.3445 265.946 80.8864C266.681 80.4176 267.054 79.8157 267.064 79.0806C267.054 78.4627 266.793 77.9567 266.281 77.5625C265.77 77.1577 264.982 76.8487 263.916 76.6357L259.665 75.7887C257.268 75.3093 255.484 74.4783 254.312 73.2958C253.151 72.1133 252.57 70.6058 252.57 68.7734C252.57 67.1967 252.996 65.8384 253.849 64.6985C254.712 63.5586 255.921 62.6797 257.476 62.0618C259.042 61.4439 260.875 61.1349 262.973 61.1349C266.074 61.1349 268.513 61.7901 270.292 63.1005C272.082 64.4109 273.126 66.1953 273.424 68.4538Z" fill="white"/>
</svg>
