<svg width="393" height="140" viewBox="0 0 393 140" fill="none" xmlns="http://www.w3.org/2000/svg">
<rect width="393" height="140" rx="20" fill="#0C0C0C"/>
<path d="M84.246 62.8695C88.1864 62.8695 91.3807 59.6731 91.3807 55.7303C91.3807 51.7874 88.1864 48.5911 84.246 48.5911C80.3057 48.5911 77.1114 51.7874 77.1114 55.7303C77.1114 59.6731 80.3057 62.8695 84.246 62.8695Z" fill="#8C99CD"/>
<path d="M112.802 34.2783C116.742 34.2783 119.936 31.082 119.936 27.1392C119.936 23.1963 116.742 20 112.802 20C108.861 20 105.667 23.1963 105.667 27.1392C105.667 31.082 108.861 34.2783 112.802 34.2783Z" fill="#8C99CD"/>
<path d="M84.246 34.2783C88.1864 34.2783 91.3807 31.082 91.3807 27.1392C91.3807 23.1963 88.1864 20 84.246 20C80.3057 20 77.1114 23.1963 77.1114 27.1392C77.1114 31.082 80.3057 34.2783 84.246 34.2783Z" fill="#8C99CD"/>
<path d="M55.6903 34.2783C59.6307 34.2783 62.825 31.082 62.825 27.1392C62.825 23.1963 59.6307 20 55.6903 20C51.75 20 48.5557 23.1963 48.5557 27.1392C48.5557 31.082 51.75 34.2783 55.6903 34.2783Z" fill="#8C99CD"/>
<path d="M27.1346 34.2783C31.075 34.2783 34.2692 31.082 34.2692 27.1392C34.2692 23.1963 31.075 20 27.1346 20C23.1943 20 20 23.1963 20 27.1392C20 31.082 23.1943 34.2783 27.1346 34.2783Z" fill="#8C99CD"/>
<path d="M27.1346 62.8695C31.075 62.8695 34.2692 59.6731 34.2692 55.7303C34.2692 51.7874 31.075 48.5911 27.1346 48.5911C23.1943 48.5911 20 51.7874 20 55.7303C20 59.6731 23.1943 62.8695 27.1346 62.8695Z" fill="#8C99CD"/>
<path d="M84.246 62.8695C88.1864 62.8695 91.3807 59.6731 91.3807 55.7303C91.3807 51.7874 88.1864 48.5911 84.246 48.5911C80.3057 48.5911 77.1114 51.7874 77.1114 55.7303C77.1114 59.6731 80.3057 62.8695 84.246 62.8695Z" fill="url(#paint0_linear_207_124)"/>
<path d="M112.802 34.2783C116.742 34.2783 119.936 31.082 119.936 27.1392C119.936 23.1963 116.742 20 112.802 20C108.861 20 105.667 23.1963 105.667 27.1392C105.667 31.082 108.861 34.2783 112.802 34.2783Z" fill="url(#paint1_linear_207_124)"/>
<path d="M84.246 34.2783C88.1864 34.2783 91.3807 31.082 91.3807 27.1392C91.3807 23.1963 88.1864 20 84.246 20C80.3057 20 77.1114 23.1963 77.1114 27.1392C77.1114 31.082 80.3057 34.2783 84.246 34.2783Z" fill="url(#paint2_linear_207_124)"/>
<path d="M55.6903 34.2783C59.6307 34.2783 62.825 31.082 62.825 27.1392C62.825 23.1963 59.6307 20 55.6903 20C51.75 20 48.5557 23.1963 48.5557 27.1392C48.5557 31.082 51.75 34.2783 55.6903 34.2783Z" fill="url(#paint3_linear_207_124)"/>
<path d="M27.1346 34.2783C31.075 34.2783 34.2692 31.082 34.2692 27.1392C34.2692 23.1963 31.075 20 27.1346 20C23.1943 20 20 23.1963 20 27.1392C20 31.082 23.1943 34.2783 27.1346 34.2783Z" fill="url(#paint4_linear_207_124)"/>
<path d="M27.1346 62.8695C31.075 62.8695 34.2692 59.6731 34.2692 55.7303C34.2692 51.7874 31.075 48.5911 27.1346 48.5911C23.1943 48.5911 20 51.7874 20 55.7303C20 59.6731 23.1943 62.8695 27.1346 62.8695Z" fill="url(#paint5_linear_207_124)"/>
<path d="M220.321 38.6756C220.321 35.9233 218.091 33.692 215.34 33.692C212.59 33.692 210.36 35.9233 210.36 38.6756V88.5118C210.36 91.2642 212.59 93.4954 215.34 93.4954C218.091 93.4954 220.321 91.2642 220.321 88.5118V38.6756Z" fill="white"/>
<path d="M324.91 38.6756C324.91 35.9233 322.68 33.692 319.93 33.692C317.179 33.692 314.949 35.9233 314.949 38.6756V88.5118C314.949 91.2642 317.179 93.4954 319.93 93.4954C322.68 93.4954 324.91 91.2642 324.91 88.5118V38.6756Z" fill="white"/>
<path d="M180.477 43.6593C176.686 43.6593 173.153 44.7974 170.137 46.746C169.396 44.9353 167.604 43.6593 165.536 43.6593C162.779 43.6593 160.555 45.8838 160.555 48.6429V98.4791C160.555 101.238 162.779 103.463 165.536 103.463C168.293 103.463 170.516 101.238 170.516 98.4791V90.6329C173.446 92.4435 176.841 93.4954 180.477 93.4954C191.472 93.4954 200.399 83.9248 200.399 72.1297V65.0078C200.399 53.2126 191.472 43.642 180.477 43.642V43.6593ZM190.438 72.6643C190.438 78.6653 185.975 83.5454 180.477 83.5454C174.98 83.5454 170.516 78.6825 170.516 72.6643V64.5077C170.516 58.5066 174.98 53.6265 180.477 53.6265C185.975 53.6265 190.438 58.4894 190.438 64.5077V72.6643Z" fill="white"/>
<path d="M250.204 43.6593C239.209 43.6593 230.282 53.2299 230.282 65.025V72.1469C230.282 83.9421 239.209 93.5127 250.204 93.5127C261.198 93.5127 270.125 83.9421 270.125 72.1469V65.025C270.125 53.2299 261.198 43.6593 250.204 43.6593ZM260.164 72.6643C260.164 78.6653 255.701 83.5454 250.204 83.5454C244.706 83.5454 240.243 78.6825 240.243 72.6643V64.5077C240.243 58.5066 244.706 53.6265 250.204 53.6265C255.701 53.6265 260.164 58.4894 260.164 64.5077V72.6643Z" fill="white"/>
<path d="M300.008 83.5282C294.511 83.5282 290.047 79.0619 290.047 73.561V53.6265H300.008C302.765 53.6265 304.988 51.402 304.988 48.6429C304.988 45.8838 302.765 43.6593 300.008 43.6593H290.047V38.6756C290.047 35.9165 287.824 33.692 285.067 33.692C282.309 33.692 280.086 35.9165 280.086 38.6756V73.561C280.086 84.5456 289.03 93.4954 300.008 93.4954C302.765 93.4954 304.988 91.2709 304.988 88.5118C304.988 85.7527 302.765 83.5282 300.008 83.5282Z" fill="white"/>
<path d="M369.976 44.0731C367.442 42.9867 364.513 44.1593 363.427 46.6943L353.104 70.8019L342.781 46.6943C341.696 44.1593 338.766 42.9867 336.233 44.0731C333.699 45.1595 332.527 48.0911 333.613 50.626L347.676 83.4592L346.004 87.3564C344.487 90.995 340.972 93.4092 337.025 93.4954C334.268 93.5644 332.097 95.8407 332.165 98.5998C332.234 101.307 334.44 103.463 337.146 103.463C337.18 103.463 337.232 103.463 337.267 103.463C345.142 103.273 352.173 98.4618 355.189 91.2364L372.595 50.626C373.681 48.0911 372.509 45.1595 369.976 44.0731Z" fill="white"/>
<path d="M27.1346 77.1478C23.1882 77.1478 20 80.338 20 84.2869V112.861C20 116.81 23.1882 120 27.1346 120C31.0811 120 34.2692 116.81 34.2692 112.861V84.2869C34.2692 80.338 31.0811 77.1478 27.1346 77.1478Z" fill="white"/>
<path d="M84.246 77.1478C80.2996 77.1478 77.1114 80.338 77.1114 84.2869V112.861C77.1114 116.81 80.2996 120 84.246 120C88.1925 120 91.3807 116.81 91.3807 112.861V84.2869C91.3807 80.338 88.1925 77.1478 84.246 77.1478Z" fill="white"/>
<path d="M55.6903 48.5739C51.7439 48.5739 48.5557 51.7641 48.5557 55.7131V112.861C48.5557 116.81 51.7439 120 55.6903 120C59.6368 120 62.825 116.81 62.825 112.861V55.7131C62.825 51.7641 59.6368 48.5739 55.6903 48.5739Z" fill="white"/>
<path d="M112.802 48.5739C108.855 48.5739 105.667 51.7641 105.667 55.7131V112.861C105.667 116.81 108.855 120 112.802 120C116.748 120 119.936 116.81 119.936 112.861V55.7131C119.936 51.7641 116.748 48.5739 112.802 48.5739Z" fill="white"/>
<defs>
<linearGradient id="paint0_linear_207_124" x1="19.9827" y1="41.4347" x2="119.936" y2="41.4347" gradientUnits="userSpaceOnUse">
<stop stop-color="#FF2C6D"/>
<stop offset="1" stop-color="#7FE4FF"/>
</linearGradient>
<linearGradient id="paint1_linear_207_124" x1="19.9827" y1="41.4347" x2="119.936" y2="41.4347" gradientUnits="userSpaceOnUse">
<stop stop-color="#FF2C6D"/>
<stop offset="1" stop-color="#7FE4FF"/>
</linearGradient>
<linearGradient id="paint2_linear_207_124" x1="19.9827" y1="41.4347" x2="119.936" y2="41.4347" gradientUnits="userSpaceOnUse">
<stop stop-color="#FF2C6D"/>
<stop offset="1" stop-color="#7FE4FF"/>
</linearGradient>
<linearGradient id="paint3_linear_207_124" x1="19.9828" y1="41.4347" x2="119.936" y2="41.4347" gradientUnits="userSpaceOnUse">
<stop stop-color="#FF2C6D"/>
<stop offset="1" stop-color="#7FE4FF"/>
</linearGradient>
<linearGradient id="paint4_linear_207_124" x1="19.9828" y1="41.4347" x2="119.936" y2="41.4347" gradientUnits="userSpaceOnUse">
<stop stop-color="#FF2C6D"/>
<stop offset="1" stop-color="#7FE4FF"/>
</linearGradient>
<linearGradient id="paint5_linear_207_124" x1="19.9828" y1="41.4347" x2="119.936" y2="41.4347" gradientUnits="userSpaceOnUse">
<stop stop-color="#FF2C6D"/>
<stop offset="1" stop-color="#7FE4FF"/>
</linearGradient>
</defs>
</svg>
