<svg width="140" height="140" viewBox="0 0 140 140" fill="none" xmlns="http://www.w3.org/2000/svg">
<rect width="140" height="140" rx="20" fill="#0C0C0C"/>
<path d="M84.2869 62.8695C88.2298 62.8695 91.4261 59.6731 91.4261 55.7303C91.4261 51.7874 88.2298 48.5911 84.2869 48.5911C80.3441 48.5911 77.1478 51.7874 77.1478 55.7303C77.1478 59.6731 80.3441 62.8695 84.2869 62.8695Z" fill="#8C99CD"/>
<path d="M112.861 34.2783C116.804 34.2783 120 31.082 120 27.1392C120 23.1963 116.804 20 112.861 20C108.918 20 105.722 23.1963 105.722 27.1392C105.722 31.082 108.918 34.2783 112.861 34.2783Z" fill="#8C99CD"/>
<path d="M84.2869 34.2783C88.2298 34.2783 91.4261 31.082 91.4261 27.1392C91.4261 23.1963 88.2298 20 84.2869 20C80.3441 20 77.1478 23.1963 77.1478 27.1392C77.1478 31.082 80.3441 34.2783 84.2869 34.2783Z" fill="#8C99CD"/>
<path d="M55.713 34.2783C59.6559 34.2783 62.8522 31.082 62.8522 27.1392C62.8522 23.1963 59.6559 20 55.713 20C51.7702 20 48.5739 23.1963 48.5739 27.1392C48.5739 31.082 51.7702 34.2783 55.713 34.2783Z" fill="#8C99CD"/>
<path d="M27.1392 34.2783C31.082 34.2783 34.2783 31.082 34.2783 27.1392C34.2783 23.1963 31.082 20 27.1392 20C23.1963 20 20 23.1963 20 27.1392C20 31.082 23.1963 34.2783 27.1392 34.2783Z" fill="#8C99CD"/>
<path d="M27.1392 62.8695C31.082 62.8695 34.2783 59.6731 34.2783 55.7303C34.2783 51.7874 31.082 48.5911 27.1392 48.5911C23.1963 48.5911 20 51.7874 20 55.7303C20 59.6731 23.1963 62.8695 27.1392 62.8695Z" fill="#8C99CD"/>
<path d="M84.2869 62.8695C88.2298 62.8695 91.4261 59.6731 91.4261 55.7303C91.4261 51.7874 88.2298 48.5911 84.2869 48.5911C80.3441 48.5911 77.1478 51.7874 77.1478 55.7303C77.1478 59.6731 80.3441 62.8695 84.2869 62.8695Z" fill="url(#paint0_linear_207_127)"/>
<path d="M112.861 34.2783C116.804 34.2783 120 31.082 120 27.1392C120 23.1963 116.804 20 112.861 20C108.918 20 105.722 23.1963 105.722 27.1392C105.722 31.082 108.918 34.2783 112.861 34.2783Z" fill="url(#paint1_linear_207_127)"/>
<path d="M84.2869 34.2783C88.2298 34.2783 91.4261 31.082 91.4261 27.1392C91.4261 23.1963 88.2298 20 84.2869 20C80.3441 20 77.1478 23.1963 77.1478 27.1392C77.1478 31.082 80.3441 34.2783 84.2869 34.2783Z" fill="url(#paint2_linear_207_127)"/>
<path d="M55.713 34.2783C59.6559 34.2783 62.8522 31.082 62.8522 27.1392C62.8522 23.1963 59.6559 20 55.713 20C51.7702 20 48.5739 23.1963 48.5739 27.1392C48.5739 31.082 51.7702 34.2783 55.713 34.2783Z" fill="url(#paint3_linear_207_127)"/>
<path d="M27.1392 34.2783C31.082 34.2783 34.2783 31.082 34.2783 27.1392C34.2783 23.1963 31.082 20 27.1392 20C23.1963 20 20 23.1963 20 27.1392C20 31.082 23.1963 34.2783 27.1392 34.2783Z" fill="url(#paint4_linear_207_127)"/>
<path d="M27.1392 62.8695C31.082 62.8695 34.2783 59.6731 34.2783 55.7303C34.2783 51.7874 31.082 48.5911 27.1392 48.5911C23.1963 48.5911 20 51.7874 20 55.7303C20 59.6731 23.1963 62.8695 27.1392 62.8695Z" fill="url(#paint5_linear_207_127)"/>
<path d="M27.1392 77.1478C23.1902 77.1478 20 80.338 20 84.2869V112.861C20 116.81 23.1902 120 27.1392 120C31.0881 120 34.2783 116.81 34.2783 112.861V84.2869C34.2783 80.338 31.0881 77.1478 27.1392 77.1478Z" fill="white"/>
<path d="M84.2869 77.1478C80.338 77.1478 77.1478 80.338 77.1478 84.2869V112.861C77.1478 116.81 80.338 120 84.2869 120C88.2359 120 91.4261 116.81 91.4261 112.861V84.2869C91.4261 80.338 88.2359 77.1478 84.2869 77.1478Z" fill="white"/>
<path d="M55.713 48.5739C51.7641 48.5739 48.5739 51.7641 48.5739 55.7131V112.861C48.5739 116.81 51.7641 120 55.713 120C59.662 120 62.8522 116.81 62.8522 112.861V55.7131C62.8522 51.7641 59.662 48.5739 55.713 48.5739Z" fill="white"/>
<path d="M112.861 48.5739C108.912 48.5739 105.722 51.7641 105.722 55.7131V112.861C105.722 116.81 108.912 120 112.861 120C116.81 120 120 116.81 120 112.861V55.7131C120 51.7641 116.81 48.5739 112.861 48.5739Z" fill="white"/>
<defs>
<linearGradient id="paint0_linear_207_127" x1="19.9951" y1="41.4347" x2="48.3106" y2="41.4347" gradientUnits="userSpaceOnUse">
<stop stop-color="#FF2C6D"/>
<stop offset="1" stop-color="#7FE4FF"/>
</linearGradient>
<linearGradient id="paint1_linear_207_127" x1="19.9951" y1="41.4347" x2="48.3106" y2="41.4347" gradientUnits="userSpaceOnUse">
<stop stop-color="#FF2C6D"/>
<stop offset="1" stop-color="#7FE4FF"/>
</linearGradient>
<linearGradient id="paint2_linear_207_127" x1="19.9951" y1="41.4347" x2="48.3106" y2="41.4347" gradientUnits="userSpaceOnUse">
<stop stop-color="#FF2C6D"/>
<stop offset="1" stop-color="#7FE4FF"/>
</linearGradient>
<linearGradient id="paint3_linear_207_127" x1="19.9951" y1="41.4347" x2="48.3106" y2="41.4347" gradientUnits="userSpaceOnUse">
<stop stop-color="#FF2C6D"/>
<stop offset="1" stop-color="#7FE4FF"/>
</linearGradient>
<linearGradient id="paint4_linear_207_127" x1="19.9951" y1="41.4347" x2="48.3106" y2="41.4347" gradientUnits="userSpaceOnUse">
<stop stop-color="#FF2C6D"/>
<stop offset="1" stop-color="#7FE4FF"/>
</linearGradient>
<linearGradient id="paint5_linear_207_127" x1="19.9951" y1="41.4347" x2="48.3106" y2="41.4347" gradientUnits="userSpaceOnUse">
<stop stop-color="#FF2C6D"/>
<stop offset="1" stop-color="#7FE4FF"/>
</linearGradient>
</defs>
</svg>
