<svg width="305" height="140" viewBox="0 0 305 140" fill="none" xmlns="http://www.w3.org/2000/svg">
<rect width="304.512" height="140" rx="20" fill="#5A67D8"/>
<path fill-rule="evenodd" clip-rule="evenodd" d="M20.7739 88.6394C19.7565 87.0348 19.7412 84.9908 20.7342 83.3707L58.1259 22.3772C60.2057 18.9848 65.2275 19.2814 66.8935 22.8951L101.053 96.9943C102.32 99.7437 100.861 102.978 97.961 103.848L44.824 119.79C42.686 120.43 40.3825 119.571 39.1874 117.686L20.7739 88.6394ZM62.4401 40.2112C62.8004 38.4169 65.2589 38.1582 65.985 39.8381L89.5475 94.3604C89.9908 95.387 89.4389 96.5709 88.3673 96.8906L51.6538 107.85C50.3043 108.253 49.0116 107.074 49.2889 105.693L62.4401 40.2112Z" fill="white"/>
<path d="M134.356 86V53.2727H147.268C149.751 53.2727 151.865 53.7468 153.612 54.695C155.36 55.6325 156.691 56.9375 157.607 58.6101C158.534 60.272 158.998 62.1896 158.998 64.3629C158.998 66.5362 158.529 68.4538 157.592 70.1158C156.654 71.7777 155.296 73.0721 153.517 73.9989C151.748 74.9258 149.607 75.3892 147.093 75.3892H138.863V69.8441H145.974C147.306 69.8441 148.403 69.6151 149.266 69.157C150.139 68.6882 150.789 68.0437 151.215 67.2234C151.652 66.3924 151.871 65.4389 151.871 64.3629C151.871 63.2763 151.652 62.3281 151.215 61.5185C150.789 60.6982 150.139 60.0643 149.266 59.6168C148.392 59.1587 147.284 58.9297 145.942 58.9297H141.276V86H134.356ZM163.364 86V61.4545H169.964V65.7372H170.22C170.667 64.2138 171.418 63.0632 172.473 62.2855C173.528 61.4972 174.742 61.103 176.116 61.103C176.457 61.103 176.825 61.1243 177.219 61.1669C177.613 61.2095 177.959 61.2681 178.258 61.3427V67.3832C177.938 67.2873 177.496 67.2021 176.931 67.1275C176.367 67.0529 175.85 67.0156 175.381 67.0156C174.38 67.0156 173.485 67.234 172.697 67.6708C171.919 68.0969 171.301 68.6935 170.843 69.4606C170.396 70.2276 170.172 71.1119 170.172 72.1133V86H163.364ZM181.777 86V61.4545H188.585V86H181.777ZM185.197 58.2905C184.185 58.2905 183.317 57.9549 182.592 57.2837C181.879 56.6019 181.522 55.7869 181.522 54.8388C181.522 53.9013 181.879 53.0969 182.592 52.4258C183.317 51.744 184.185 51.4031 185.197 51.4031C186.209 51.4031 187.072 51.744 187.786 52.4258C188.51 53.0969 188.873 53.9013 188.873 54.8388C188.873 55.7869 188.51 56.6019 187.786 57.2837C187.072 57.9549 186.209 58.2905 185.197 58.2905ZM214.461 68.4538L208.228 68.8374C208.122 68.3047 207.893 67.8253 207.541 67.3991C207.19 66.9624 206.726 66.6161 206.151 66.3604C205.586 66.0941 204.91 65.9609 204.122 65.9609C203.067 65.9609 202.177 66.1847 201.453 66.6321C200.728 67.0689 200.366 67.6548 200.366 68.3899C200.366 68.9759 200.601 69.4712 201.069 69.8761C201.538 70.2809 202.342 70.6058 203.482 70.8509L207.925 71.7457C210.311 72.2358 212.09 73.0241 213.262 74.1108C214.434 75.1974 215.02 76.625 215.02 78.3935C215.02 80.0021 214.546 81.4137 213.598 82.6282C212.66 83.8427 211.371 84.7908 209.731 85.4727C208.101 86.1438 206.22 86.4794 204.09 86.4794C200.84 86.4794 198.252 85.8029 196.323 84.4499C194.406 83.0863 193.282 81.2326 192.952 78.8888L199.647 78.5373C199.85 79.5281 200.34 80.2844 201.117 80.8065C201.895 81.3178 202.891 81.5735 204.106 81.5735C205.299 81.5735 206.258 81.3445 206.982 80.8864C207.717 80.4176 208.09 79.8157 208.101 79.0806C208.09 78.4627 207.829 77.9567 207.318 77.5625C206.806 77.1577 206.018 76.8487 204.953 76.6357L200.702 75.7887C198.305 75.3093 196.52 74.4783 195.349 73.2958C194.187 72.1133 193.607 70.6058 193.607 68.7734C193.607 67.1967 194.033 65.8384 194.885 64.6985C195.748 63.5586 196.957 62.6797 198.513 62.0618C200.079 61.4439 201.911 61.1349 204.01 61.1349C207.11 61.1349 209.55 61.7901 211.329 63.1005C213.118 64.4109 214.162 66.1953 214.461 68.4538ZM219.307 86V61.4545H225.795V65.7852H226.082C226.594 64.3469 227.446 63.2124 228.639 62.3814C229.832 61.5504 231.26 61.1349 232.922 61.1349C234.605 61.1349 236.038 61.5558 237.22 62.3974C238.403 63.2283 239.191 64.3576 239.585 65.7852H239.841C240.342 64.3789 241.247 63.255 242.558 62.4134C243.879 61.5611 245.44 61.1349 247.24 61.1349C249.53 61.1349 251.389 61.8647 252.817 63.3242C254.255 64.7731 254.974 66.8292 254.974 69.4925V86H248.183V70.8349C248.183 69.4712 247.821 68.4485 247.096 67.7667C246.372 67.0849 245.466 66.744 244.38 66.744C243.144 66.744 242.18 67.1381 241.487 67.9265C240.795 68.7042 240.448 69.7322 240.448 71.0107V86H233.849V70.6911C233.849 69.4872 233.502 68.5284 232.81 67.8146C232.128 67.1009 231.228 66.744 230.109 66.744C229.353 66.744 228.671 66.9357 228.064 67.3192C227.467 67.6921 226.993 68.2195 226.642 68.9013C226.29 69.5724 226.114 70.3608 226.114 71.2663V86H219.307ZM267.351 86.4634C265.785 86.4634 264.389 86.1918 263.164 85.6484C261.939 85.0945 260.97 84.2795 260.256 83.2035C259.553 82.1168 259.201 80.7638 259.201 79.1445C259.201 77.7809 259.451 76.6357 259.952 75.7088C260.453 74.782 261.135 74.0362 261.998 73.4716C262.861 72.907 263.841 72.4808 264.938 72.1932C266.046 71.9055 267.207 71.7031 268.422 71.5859C269.849 71.4368 271 71.2983 271.873 71.1705C272.747 71.032 273.381 70.8295 273.775 70.5632C274.169 70.2969 274.366 69.9027 274.366 69.3807V69.2848C274.366 68.2727 274.047 67.4897 273.407 66.9357C272.779 66.3817 271.884 66.1048 270.723 66.1048C269.498 66.1048 268.523 66.3764 267.798 66.9197C267.074 67.4524 266.595 68.1236 266.36 68.9332L260.064 68.4219C260.384 66.9304 261.012 65.6413 261.95 64.5547C262.887 63.4574 264.096 62.6158 265.577 62.0298C267.069 61.4332 268.794 61.1349 270.755 61.1349C272.118 61.1349 273.423 61.2947 274.67 61.6143C275.927 61.9339 277.04 62.4293 278.01 63.1005C278.99 63.7717 279.762 64.6346 280.327 65.6893C280.891 66.7333 281.174 67.9851 281.174 69.4446V86H274.718V82.5962H274.526C274.132 83.3633 273.604 84.0398 272.944 84.6257C272.283 85.201 271.49 85.6538 270.563 85.984C269.636 86.3036 268.565 86.4634 267.351 86.4634ZM269.3 81.7653C270.302 81.7653 271.186 81.5682 271.953 81.174C272.72 80.7692 273.322 80.2259 273.759 79.544C274.196 78.8622 274.414 78.0898 274.414 77.2269V74.6222C274.201 74.7607 273.908 74.8885 273.535 75.0057C273.173 75.1122 272.763 75.2134 272.305 75.3093C271.847 75.3945 271.389 75.4744 270.93 75.549C270.472 75.6129 270.057 75.6715 269.684 75.7248C268.885 75.842 268.187 76.0284 267.591 76.2841C266.994 76.5398 266.531 76.886 266.2 77.3228C265.87 77.7489 265.705 78.2816 265.705 78.9208C265.705 79.8477 266.041 80.5561 266.712 81.0462C267.394 81.5256 268.256 81.7653 269.3 81.7653Z" fill="white"/>
</svg>
