<svg width="140" height="140" viewBox="0 0 140 140" fill="none" xmlns="http://www.w3.org/2000/svg">
<rect width="140" height="140" rx="20" fill="#5A67D8"/>
<path fill-rule="evenodd" clip-rule="evenodd" d="M30.0178 88.6394C29.0004 87.0348 28.985 84.9908 29.9781 83.3707L67.3698 22.3772C69.4496 18.9848 74.4714 19.2814 76.1374 22.8951L110.296 96.9943C111.564 99.7437 110.105 102.978 107.205 103.848L54.0679 119.79C51.9299 120.43 49.6264 119.571 48.4313 117.686L30.0178 88.6394ZM71.684 40.2112C72.0443 38.4169 74.5028 38.1582 75.2289 39.8381L98.7914 94.3604C99.2347 95.387 98.6828 96.5709 97.6112 96.8906L60.8977 107.85C59.5482 108.253 58.2555 107.074 58.5328 105.693L71.684 40.2112Z" fill="white"/>
</svg>
