<svg width="457" height="140" viewBox="0 0 457 140" fill="none" xmlns="http://www.w3.org/2000/svg">
<rect width="457" height="140" rx="20" fill="#4088DA"/>
<path d="M73.901 108.694C75.1452 106.532 77.9022 105.79 80.0572 107.038C82.2123 108.287 82.9516 111.054 81.7074 113.217C80.5214 115.278 78.8152 116.99 76.7613 118.181C74.7069 119.371 72.3743 120 70.0021 120C67.6295 120 65.2979 119.371 63.243 118.181C61.188 116.99 59.479 115.279 58.2925 113.217C57.0485 111.054 57.7877 108.287 59.9427 107.038C62.0977 105.79 64.8546 106.532 66.0989 108.694C66.4944 109.382 67.0643 109.954 67.7491 110.351C68.4336 110.747 69.2119 110.956 70.0021 110.956C70.7924 110.955 71.5708 110.747 72.2552 110.351C72.9395 109.954 73.5057 109.381 73.901 108.694Z" fill="white"/>
<path d="M111.081 51.8784C111.081 42.5237 107.908 34.3168 102.977 27.1841C101.557 25.1296 102.037 22.2842 104.049 20.8338C106.06 19.3835 108.847 19.8735 110.267 21.9277C116.039 30.2776 120 40.2861 120 51.8784C120 54.3934 118.004 56.4322 115.541 56.4322C113.078 56.4322 111.081 54.3934 111.081 51.8784Z" fill="white"/>
<path d="M20 51.8784C20 40.2861 23.9611 30.2776 29.7329 21.9277C31.1532 19.8735 33.9396 19.3835 35.9515 20.8338C37.9631 22.2842 38.4429 25.1296 37.0227 27.1841C32.0925 34.3168 28.9185 42.5237 28.9185 51.8784C28.9185 54.3934 26.9221 56.4322 24.4593 56.4322C21.9965 56.4322 20 54.3934 20 51.8784Z" fill="white"/>
<path fill-rule="evenodd" clip-rule="evenodd" d="M69.9964 20C78.4859 20 86.6304 23.3446 92.6335 29.3007C98.6367 35.2571 102.007 43.3381 102.007 51.7618C102.007 61.493 103.543 67.5468 105.553 71.7679C107.064 74.9415 108.926 77.2724 111.046 79.5534L113.248 81.8485L113.346 81.9548C114.539 83.2556 115.326 84.8715 115.61 86.6075C115.894 88.3425 115.665 90.1221 114.949 91.7297C114.232 93.3375 113.058 94.7051 111.573 95.6645C110.273 96.5041 108.781 97.0034 107.241 97.1136L106.58 97.1357H33.4124C31.6398 97.1344 29.9041 96.6211 28.4196 95.66C26.9351 94.6989 25.7631 93.3303 25.048 91.7209C24.3332 90.1117 24.1052 88.3298 24.3914 86.5942C24.6778 84.8594 25.4661 83.2448 26.6601 81.946L26.7538 81.8441C29.7924 78.7316 32.425 75.9992 34.4395 71.7679C36.4491 67.5468 37.9855 61.4932 37.9855 51.7618C37.9855 43.3381 41.3605 35.2571 47.3637 29.3007C53.3665 23.3455 61.5078 20.0003 69.9964 20ZM49.774 81.7965C48.1782 81.7965 46.8846 83.0929 46.8845 84.6921C46.8845 86.2914 48.1782 87.5879 49.774 87.5879H90.2262C91.822 87.5879 93.1157 86.2914 93.1157 84.6921C93.1156 83.0929 91.822 81.7966 90.2262 81.7965H49.774ZM72.043 30.5216C70.9852 29.4615 69.0413 29.6448 67.9064 30.5724L50.6205 47.8961C49.4921 49.0269 49.4921 50.8599 50.6205 51.9908C51.7489 53.1216 53.578 53.1216 54.7063 51.9908L67.1106 39.5595V73.1093C67.1107 74.7085 68.4043 76.0049 70.0001 76.0049C71.5958 76.0048 72.8895 74.7085 72.8895 73.1093V39.5595L85.2938 51.9908C86.4222 53.1216 88.2513 53.1216 89.3797 51.9908C90.508 50.8599 90.508 49.0269 89.3797 47.8961L72.043 30.5216Z" fill="white"/>
<path d="M152.844 86V53.2727H165.756C168.239 53.2727 170.353 53.7468 172.1 54.695C173.848 55.6325 175.179 56.9375 176.096 58.6101C177.022 60.272 177.486 62.1896 177.486 64.3629C177.486 66.5362 177.017 68.4538 176.08 70.1158C175.142 71.7777 173.784 73.0721 172.005 73.9989C170.236 74.9258 168.095 75.3892 165.581 75.3892H157.351V69.8441H164.462C165.794 69.8441 166.891 69.6151 167.754 69.157C168.627 68.6882 169.277 68.0437 169.703 67.2234C170.14 66.3924 170.359 65.4389 170.359 64.3629C170.359 63.2763 170.14 62.3281 169.703 61.5185C169.277 60.6982 168.627 60.0643 167.754 59.6168C166.88 59.1587 165.772 58.9297 164.43 58.9297H159.764V86H152.844ZM197.593 75.549V61.4545H204.4V86H197.864V81.5415H197.609C197.055 82.9798 196.133 84.1357 194.844 85.0092C193.566 85.8828 192.005 86.3196 190.162 86.3196C188.521 86.3196 187.078 85.9467 185.831 85.201C184.585 84.4553 183.61 83.3952 182.907 82.021C182.215 80.6467 181.863 79.0007 181.852 77.0831V61.4545H188.66V75.8686C188.671 77.3175 189.059 78.4627 189.826 79.3043C190.593 80.146 191.622 80.5668 192.911 80.5668C193.731 80.5668 194.498 80.3803 195.212 80.0075C195.926 79.6239 196.501 79.0593 196.938 78.3136C197.385 77.5678 197.603 76.6463 197.593 75.549ZM230.268 68.4538L224.036 68.8374C223.929 68.3047 223.7 67.8253 223.349 67.3991C222.997 66.9624 222.534 66.6161 221.958 66.3604C221.394 66.0941 220.717 65.9609 219.929 65.9609C218.874 65.9609 217.985 66.1847 217.26 66.6321C216.536 67.0689 216.174 67.6548 216.174 68.3899C216.174 68.9759 216.408 69.4712 216.877 69.8761C217.346 70.2809 218.15 70.6058 219.29 70.8509L223.732 71.7457C226.119 72.2358 227.898 73.0241 229.07 74.1108C230.241 75.1974 230.827 76.625 230.827 78.3935C230.827 80.0021 230.353 81.4137 229.405 82.6282C228.468 83.8427 227.179 84.7908 225.538 85.4727C223.908 86.1438 222.028 86.4794 219.897 86.4794C216.648 86.4794 214.059 85.8029 212.131 84.4499C210.213 83.0863 209.089 81.2326 208.759 78.8888L215.455 78.5373C215.657 79.5281 216.147 80.2844 216.925 80.8065C217.702 81.3178 218.699 81.5735 219.913 81.5735C221.106 81.5735 222.065 81.3445 222.789 80.8864C223.525 80.4176 223.897 79.8157 223.908 79.0806C223.897 78.4627 223.636 77.9567 223.125 77.5625C222.614 77.1577 221.825 76.8487 220.76 76.6357L216.509 75.7887C214.112 75.3093 212.328 74.4783 211.156 73.2958C209.995 72.1133 209.414 70.6058 209.414 68.7734C209.414 67.1967 209.84 65.8384 210.692 64.6985C211.555 63.5586 212.765 62.6797 214.32 62.0618C215.886 61.4439 217.718 61.1349 219.817 61.1349C222.917 61.1349 225.357 61.7901 227.136 63.1005C228.926 64.4109 229.97 66.1953 230.268 68.4538ZM241.922 71.8097V86H235.114V53.2727H241.73V65.7852H242.017C242.571 64.3363 243.466 63.2017 244.702 62.3814C245.938 61.5504 247.488 61.1349 249.352 61.1349C251.057 61.1349 252.543 61.5078 253.811 62.2536C255.089 62.9886 256.08 64.0486 256.783 65.4336C257.497 66.8079 257.848 68.4538 257.838 70.3714V86H251.03V71.5859C251.041 70.0732 250.657 68.896 249.88 68.0543C249.113 67.2127 248.037 66.7919 246.652 66.7919C245.725 66.7919 244.905 66.989 244.191 67.3832C243.488 67.7773 242.934 68.3526 242.529 69.109C242.135 69.8548 241.932 70.755 241.922 71.8097ZM301.112 53.2727V86H295.135L280.897 65.4016H280.657V86H273.738V53.2727H279.81L293.937 73.8551H294.225V53.2727H301.112ZM317.791 86.4794C315.309 86.4794 313.162 85.9521 311.351 84.8974C309.551 83.832 308.161 82.3512 307.18 80.4549C306.2 78.5479 305.71 76.3374 305.71 73.8232C305.71 71.2876 306.2 69.0717 307.18 67.1754C308.161 65.2685 309.551 63.7876 311.351 62.733C313.162 61.6676 315.309 61.1349 317.791 61.1349C320.273 61.1349 322.415 61.6676 324.215 62.733C326.026 63.7876 327.422 65.2685 328.402 67.1754C329.382 69.0717 329.872 71.2876 329.872 73.8232C329.872 76.3374 329.382 78.5479 328.402 80.4549C327.422 82.3512 326.026 83.832 324.215 84.8974C322.415 85.9521 320.273 86.4794 317.791 86.4794ZM317.823 81.206C318.952 81.206 319.895 80.8864 320.652 80.2472C321.408 79.5973 321.978 78.7131 322.362 77.5945C322.756 76.4759 322.953 75.2028 322.953 73.7752C322.953 72.3477 322.756 71.0746 322.362 69.956C321.978 68.8374 321.408 67.9531 320.652 67.3033C319.895 66.6534 318.952 66.3285 317.823 66.3285C316.683 66.3285 315.724 66.6534 314.947 67.3033C314.18 67.9531 313.599 68.8374 313.205 69.956C312.821 71.0746 312.63 72.3477 312.63 73.7752C312.63 75.2028 312.821 76.4759 313.205 77.5945C313.599 78.7131 314.18 79.5973 314.947 80.2472C315.724 80.8864 316.683 81.206 317.823 81.206ZM347.354 61.4545V66.5682H332.573V61.4545H347.354ZM335.929 55.5739H342.736V78.4574C342.736 79.0859 342.832 79.576 343.024 79.9276C343.216 80.2685 343.482 80.5082 343.823 80.6467C344.174 80.7852 344.579 80.8544 345.037 80.8544C345.357 80.8544 345.676 80.8278 345.996 80.7745C346.316 80.7106 346.561 80.6626 346.731 80.6307L347.802 85.6964C347.461 85.8029 346.982 85.9254 346.364 86.0639C345.746 86.2131 344.995 86.3036 344.11 86.3356C342.47 86.3995 341.032 86.1811 339.796 85.6804C338.571 85.1797 337.617 84.402 336.935 83.3473C336.254 82.2926 335.918 80.9609 335.929 79.3523V55.5739ZM351.789 86V61.4545H358.596V86H351.789ZM355.209 58.2905C354.197 58.2905 353.328 57.9549 352.604 57.2837C351.89 56.6019 351.533 55.7869 351.533 54.8388C351.533 53.9013 351.89 53.0969 352.604 52.4258C353.328 51.744 354.197 51.4031 355.209 51.4031C356.221 51.4031 357.084 51.744 357.797 52.4258C358.522 53.0969 358.884 53.9013 358.884 54.8388C358.884 55.7869 358.522 56.6019 357.797 57.2837C357.084 57.9549 356.221 58.2905 355.209 58.2905ZM377.249 61.4545V66.5682H362.1V61.4545H377.249ZM365.568 86V59.6808C365.568 57.9016 365.914 56.4261 366.606 55.2543C367.31 54.0824 368.268 53.2035 369.483 52.6175C370.697 52.0316 372.077 51.7386 373.622 51.7386C374.666 51.7386 375.619 51.8185 376.482 51.9783C377.356 52.1381 378.006 52.282 378.432 52.4098L377.217 57.5234C376.951 57.4382 376.621 57.3583 376.226 57.2837C375.843 57.2092 375.449 57.1719 375.044 57.1719C374.043 57.1719 373.345 57.4062 372.951 57.875C372.556 58.3331 372.359 58.9776 372.359 59.8086V86H365.568ZM381.408 86V61.4545H388.216V86H381.408ZM384.828 58.2905C383.816 58.2905 382.947 57.9549 382.223 57.2837C381.509 56.6019 381.152 55.7869 381.152 54.8388C381.152 53.9013 381.509 53.0969 382.223 52.4258C382.947 51.744 383.816 51.4031 384.828 51.4031C385.84 51.4031 386.703 51.744 387.417 52.4258C388.141 53.0969 388.503 53.9013 388.503 54.8388C388.503 55.7869 388.141 56.6019 387.417 57.2837C386.703 57.9549 385.84 58.2905 384.828 58.2905ZM404.855 86.4794C402.33 86.4794 400.157 85.968 398.335 84.9453C396.524 83.9119 395.128 82.4524 394.148 80.5668C393.168 78.6705 392.678 76.4279 392.678 73.8391C392.678 71.3143 393.168 69.0984 394.148 67.1914C395.128 65.2844 396.508 63.7983 398.287 62.733C400.077 61.6676 402.176 61.1349 404.583 61.1349C406.203 61.1349 407.71 61.396 409.106 61.918C410.512 62.4293 411.737 63.2017 412.781 64.2351C413.836 65.2685 414.656 66.5682 415.242 68.1342C415.828 69.6896 416.121 71.5114 416.121 73.5994V75.4691H395.395V71.2504H409.713C409.713 70.2702 409.5 69.402 409.074 68.6456C408.647 67.8892 408.056 67.2979 407.3 66.8718C406.554 66.435 405.686 66.2166 404.695 66.2166C403.662 66.2166 402.745 66.4563 401.946 66.9357C401.158 67.4045 400.54 68.0384 400.093 68.8374C399.645 69.6257 399.416 70.5046 399.406 71.4741V75.4851C399.406 76.6996 399.629 77.7489 400.077 78.6332C400.535 79.5174 401.179 80.1992 402.01 80.6786C402.841 81.158 403.827 81.3977 404.967 81.3977C405.723 81.3977 406.416 81.2912 407.044 81.0781C407.673 80.8651 408.211 80.5455 408.658 80.1193C409.106 79.6932 409.446 79.1712 409.681 78.5533L415.977 78.9688C415.657 80.4815 415.002 81.8026 414.011 82.9318C413.031 84.0504 411.764 84.924 410.208 85.5526C408.663 86.1705 406.879 86.4794 404.855 86.4794ZM420.563 86V61.4545H427.163V65.7372H427.419C427.866 64.2138 428.617 63.0632 429.672 62.2855C430.727 61.4972 431.941 61.103 433.315 61.103C433.656 61.103 434.024 61.1243 434.418 61.1669C434.812 61.2095 435.158 61.2681 435.457 61.3427V67.3832C435.137 67.2873 434.695 67.2021 434.13 67.1275C433.566 67.0529 433.049 67.0156 432.58 67.0156C431.579 67.0156 430.684 67.234 429.896 67.6708C429.118 68.0969 428.5 68.6935 428.042 69.4606C427.595 70.2276 427.371 71.1119 427.371 72.1133V86H420.563Z" fill="white"/>
</svg>
