<svg width="329" height="140" viewBox="0 0 329 140" fill="none" xmlns="http://www.w3.org/2000/svg">
<rect width="328.523" height="140" rx="20" fill="#284761"/>
<path d="M69.8991 20C44.3803 20 45.9735 31.0665 45.9735 31.0665L46.0019 42.5318H70.3542V45.9739H36.3296C36.3296 45.9739 20 44.122 20 69.8704C20 95.6196 34.2529 94.7064 34.2529 94.7064H42.7589V82.7578C42.7589 82.7578 42.3003 68.5049 56.7842 68.5049H80.9373C80.9373 68.5049 94.5073 68.7241 94.5073 55.39V33.3428C94.5073 33.3428 96.5683 20 69.8991 20ZM56.4713 27.7102C57.0468 27.7096 57.6167 27.8226 58.1484 28.0426C58.6802 28.2626 59.1634 28.5852 59.5703 28.9922C59.9771 29.3991 60.2998 29.8822 60.5199 30.414C60.7398 30.9457 60.8528 31.5157 60.8523 32.0911C60.8528 32.6666 60.7398 33.2364 60.5199 33.7682C60.2998 34.3 59.9771 34.7832 59.5703 35.1901C59.1634 35.597 58.6802 35.9197 58.1484 36.1396C57.6167 36.3596 57.0468 36.4726 56.4713 36.472C55.8958 36.4726 55.326 36.3596 54.7942 36.1396C54.2624 35.9197 53.7793 35.597 53.3724 35.1901C52.9655 34.7832 52.6428 34.3 52.4228 33.7682C52.2028 33.2364 52.0898 32.6666 52.0903 32.0911C52.0898 31.5157 52.2028 30.9457 52.4228 30.414C52.6428 29.8822 52.9655 29.3991 53.3724 28.9922C53.7793 28.5852 54.2624 28.2626 54.7942 28.0426C55.326 27.8226 55.8958 27.7096 56.4713 27.7102Z" fill="#387EB8"/>
<path d="M70.6239 120C96.1429 120 94.5495 108.933 94.5495 108.933L94.5211 97.4686H70.1684V94.0264H104.193C104.193 94.0264 120.523 95.8783 120.523 70.1291C120.523 44.3803 106.27 45.2934 106.27 45.2934H97.7637V57.2417C97.7637 57.2417 98.2223 71.4945 83.7384 71.4945H59.5853C59.5853 71.4945 46.0154 71.2753 46.0154 84.6099V106.658C46.0154 106.658 43.9551 120 70.6239 120ZM84.0517 112.291C83.4762 112.291 82.9063 112.178 82.3746 111.958C81.8428 111.738 81.3597 111.415 80.9528 111.009C80.5459 110.602 80.2232 110.119 80.0032 109.587C79.7832 109.055 79.6702 108.485 79.6707 107.91C79.6702 107.334 79.7831 106.764 80.0031 106.232C80.223 105.701 80.5457 105.217 80.9526 104.81C81.3595 104.403 81.8427 104.081 82.3745 103.861C82.9062 103.641 83.4762 103.528 84.0517 103.528C84.6272 103.528 85.1971 103.641 85.7288 103.861C86.2606 104.081 86.7438 104.403 87.1506 104.81C87.5575 105.217 87.8802 105.7 88.1003 106.232C88.3202 106.764 88.4332 107.334 88.4327 107.909C88.4332 108.485 88.3202 109.055 88.1003 109.586C87.8802 110.118 87.5575 110.601 87.1506 111.008C86.7438 111.415 86.2606 111.738 85.7288 111.958C85.1971 112.178 84.6272 112.291 84.0517 112.291Z" fill="#FFE052"/>
<path d="M153.367 86V53.2727H166.279C168.761 53.2727 170.876 53.7468 172.623 54.695C174.37 55.6325 175.702 56.9375 176.618 58.6101C177.545 60.272 178.009 62.1896 178.009 64.3629C178.009 66.5362 177.54 68.4538 176.602 70.1158C175.665 71.7777 174.306 73.0721 172.527 73.9989C170.759 74.9258 168.618 75.3892 166.103 75.3892H157.874V69.8441H164.985C166.316 69.8441 167.414 69.6151 168.277 69.157C169.15 68.6882 169.8 68.0437 170.226 67.2234C170.663 66.3924 170.881 65.4389 170.881 64.3629C170.881 63.2763 170.663 62.3281 170.226 61.5185C169.8 60.6982 169.15 60.0643 168.277 59.6168C167.403 59.1587 166.295 58.9297 164.953 58.9297H160.287V86H153.367ZM186.578 95.2045C185.715 95.2045 184.905 95.1353 184.149 94.9968C183.403 94.869 182.785 94.7038 182.295 94.5014L183.829 89.4197C184.628 89.6648 185.347 89.7979 185.987 89.8192C186.636 89.8406 187.196 89.6914 187.664 89.3718C188.144 89.0522 188.533 88.5089 188.831 87.7418L189.231 86.7031L180.425 61.4545H187.585L192.666 79.4801H192.922L198.052 61.4545H205.259L195.718 88.6527C195.26 89.9737 194.637 91.1243 193.849 92.1044C193.071 93.0952 192.086 93.8569 190.892 94.3896C189.699 94.9329 188.261 95.2045 186.578 95.2045ZM221.798 61.4545V66.5682H207.016V61.4545H221.798ZM210.372 55.5739H217.18V78.4574C217.18 79.0859 217.276 79.576 217.467 79.9276C217.659 80.2685 217.925 80.5082 218.266 80.6467C218.618 80.7852 219.023 80.8544 219.481 80.8544C219.8 80.8544 220.12 80.8278 220.44 80.7745C220.759 80.7106 221.004 80.6626 221.175 80.6307L222.245 85.6964C221.905 85.8029 221.425 85.9254 220.807 86.0639C220.189 86.2131 219.438 86.3036 218.554 86.3356C216.913 86.3995 215.475 86.1811 214.239 85.6804C213.014 85.1797 212.061 84.402 211.379 83.3473C210.697 82.2926 210.362 80.9609 210.372 79.3523V55.5739ZM233.567 71.8097V86H226.76V53.2727H233.376V65.7852H233.663C234.217 64.3363 235.112 63.2017 236.348 62.3814C237.584 61.5504 239.134 61.1349 240.998 61.1349C242.703 61.1349 244.189 61.5078 245.457 62.2536C246.735 62.9886 247.726 64.0486 248.429 65.4336C249.143 66.8079 249.494 68.4538 249.484 70.3714V86H242.676V71.5859C242.687 70.0732 242.303 68.896 241.525 68.0543C240.758 67.2127 239.682 66.7919 238.297 66.7919C237.371 66.7919 236.55 66.989 235.837 67.3832C235.133 67.7773 234.579 68.3526 234.175 69.109C233.78 69.8548 233.578 70.755 233.567 71.8097ZM265.931 86.4794C263.449 86.4794 261.302 85.9521 259.491 84.8974C257.691 83.832 256.3 82.3512 255.32 80.4549C254.34 78.5479 253.85 76.3374 253.85 73.8232C253.85 71.2876 254.34 69.0717 255.32 67.1754C256.3 65.2685 257.691 63.7876 259.491 62.733C261.302 61.6676 263.449 61.1349 265.931 61.1349C268.413 61.1349 270.555 61.6676 272.355 62.733C274.166 63.7876 275.562 65.2685 276.542 67.1754C277.522 69.0717 278.012 71.2876 278.012 73.8232C278.012 76.3374 277.522 78.5479 276.542 80.4549C275.562 82.3512 274.166 83.832 272.355 84.8974C270.555 85.9521 268.413 86.4794 265.931 86.4794ZM265.963 81.206C267.092 81.206 268.035 80.8864 268.792 80.2472C269.548 79.5973 270.118 78.7131 270.501 77.5945C270.896 76.4759 271.093 75.2028 271.093 73.7752C271.093 72.3477 270.896 71.0746 270.501 69.956C270.118 68.8374 269.548 67.9531 268.792 67.3033C268.035 66.6534 267.092 66.3285 265.963 66.3285C264.823 66.3285 263.864 66.6534 263.087 67.3033C262.32 67.9531 261.739 68.8374 261.345 69.956C260.961 71.0746 260.77 72.3477 260.77 73.7752C260.77 75.2028 260.961 76.4759 261.345 77.5945C261.739 78.7131 262.32 79.5973 263.087 80.2472C263.864 80.8864 264.823 81.206 265.963 81.206ZM289.246 71.8097V86H282.439V61.4545H288.926V65.7852H289.214C289.757 64.3576 290.668 63.2283 291.947 62.3974C293.225 61.5558 294.775 61.1349 296.597 61.1349C298.301 61.1349 299.788 61.5078 301.055 62.2536C302.323 62.9993 303.309 64.0646 304.012 65.4496C304.715 66.8239 305.066 68.4645 305.066 70.3714V86H298.259V71.5859C298.27 70.0838 297.886 68.9119 297.108 68.0703C296.331 67.218 295.26 66.7919 293.896 66.7919C292.98 66.7919 292.17 66.989 291.467 67.3832C290.775 67.7773 290.232 68.3526 289.837 69.109C289.454 69.8548 289.257 70.755 289.246 71.8097Z" fill="white"/>
</svg>
