<svg width="140" height="140" viewBox="0 0 140 140" fill="none" xmlns="http://www.w3.org/2000/svg">
<rect width="140" height="140" rx="20" fill="#284761"/>
<path d="M69.6379 20C44.119 20 45.7123 31.0665 45.7123 31.0665L45.7406 42.5318H70.093V45.9739H36.0684C36.0684 45.9739 19.7388 44.122 19.7388 69.8704C19.7388 95.6195 33.9917 94.7064 33.9917 94.7064H42.4977V82.7578C42.4977 82.7578 42.0391 68.5049 56.523 68.5049H80.6761C80.6761 68.5049 94.246 68.7241 94.246 55.39V33.3428C94.246 33.3428 96.307 20 69.6379 20ZM56.2101 27.7102C56.7856 27.7096 57.3554 27.8226 57.8872 28.0426C58.419 28.2626 58.9022 28.5852 59.3091 28.9922C59.7159 29.3991 60.0386 29.8822 60.2586 30.414C60.4786 30.9457 60.5916 31.5157 60.5911 32.0911C60.5916 32.6666 60.4786 33.2364 60.2586 33.7682C60.0386 34.3 59.7159 34.7832 59.3091 35.1901C58.9022 35.597 58.419 35.9197 57.8872 36.1396C57.3554 36.3596 56.7856 36.4725 56.2101 36.472C55.6346 36.4725 55.0647 36.3596 54.533 36.1396C54.0012 35.9197 53.5181 35.597 53.1112 35.1901C52.7043 34.7832 52.3816 34.3 52.1615 33.7682C51.9416 33.2364 51.8286 32.6666 51.8291 32.0911C51.8286 31.5157 51.9416 30.9457 52.1615 30.414C52.3816 29.8822 52.7043 29.3991 53.1112 28.9922C53.5181 28.5852 54.0012 28.2626 54.533 28.0426C55.0647 27.8226 55.6346 27.7096 56.2101 27.7102Z" fill="#387EB8"/>
<path d="M70.3627 120C95.8816 120 94.2882 108.933 94.2882 108.933L94.2599 97.4686H69.9072V94.0264H103.932C103.932 94.0264 120.261 95.8783 120.261 70.1291C120.261 44.3803 106.009 45.2934 106.009 45.2934H97.5024V57.2417C97.5024 57.2417 97.961 71.4945 83.4771 71.4945H59.3241C59.3241 71.4945 45.7541 71.2753 45.7541 84.6099V106.658C45.7541 106.658 43.6939 120 70.3627 120ZM83.7905 112.291C83.215 112.291 82.6451 112.178 82.1133 111.958C81.5816 111.738 81.0985 111.415 80.6915 111.009C80.2846 110.602 79.962 110.119 79.7419 109.587C79.522 109.055 79.409 108.485 79.4095 107.91C79.409 107.334 79.5219 106.764 79.7418 106.232C79.9618 105.701 80.2844 105.217 80.6913 104.81C81.0983 104.403 81.5815 104.081 82.1132 103.861C82.645 103.641 83.215 103.528 83.7905 103.528C84.366 103.528 84.9358 103.641 85.4676 103.861C85.9994 104.081 86.4826 104.403 86.8894 104.81C87.2963 105.217 87.619 105.7 87.839 106.232C88.059 106.764 88.1719 107.334 88.1714 107.909C88.1719 108.485 88.059 109.055 87.839 109.586C87.619 110.118 87.2963 110.601 86.8894 111.008C86.4826 111.415 85.9994 111.738 85.4676 111.958C84.9358 112.178 84.366 112.291 83.7905 112.291Z" fill="#FFE052"/>
</svg>
