<svg width="140" height="140" viewBox="0 0 140 140" fill="none" xmlns="http://www.w3.org/2000/svg">
<rect width="140" height="140" rx="20" fill="#284761"/>
<path d="M69.6378 20C44.119 20 45.7122 31.0665 45.7122 31.0665L45.7406 42.5318H70.0929V45.9739H36.0683C36.0683 45.9739 19.7387 44.122 19.7387 69.8704C19.7387 95.6195 33.9916 94.7064 33.9916 94.7064H42.4976V82.7578C42.4976 82.7578 42.039 68.5049 56.5229 68.5049H80.676C80.676 68.5049 94.246 68.7241 94.246 55.39V33.3428C94.246 33.3428 96.307 20 69.6378 20ZM56.21 27.7102C56.7855 27.7096 57.3554 27.8226 57.8871 28.0426C58.4189 28.2626 58.9021 28.5852 59.309 28.9922C59.7158 29.3991 60.0385 29.8822 60.2586 30.414C60.4785 30.9457 60.5915 31.5157 60.591 32.0911C60.5915 32.6666 60.4785 33.2364 60.2586 33.7682C60.0385 34.3 59.7158 34.7832 59.309 35.1901C58.9021 35.597 58.4189 35.9197 57.8871 36.1396C57.3554 36.3596 56.7855 36.4725 56.21 36.472C55.6345 36.4725 55.0647 36.3596 54.5329 36.1396C54.0011 35.9197 53.518 35.597 53.1111 35.1901C52.7042 34.7832 52.3815 34.3 52.1615 33.7682C51.9415 33.2364 51.8285 32.6666 51.829 32.0911C51.8285 31.5157 51.9415 30.9457 52.1615 30.414C52.3815 29.8822 52.7042 29.3991 53.1111 28.9922C53.518 28.5852 54.0011 28.2626 54.5329 28.0426C55.0647 27.8226 55.6345 27.7096 56.21 27.7102Z" fill="#387EB8"/>
<path d="M70.3626 120C95.8816 120 94.2882 108.933 94.2882 108.933L94.2598 97.4686H69.9071V94.0264H103.932C103.932 94.0264 120.261 95.8783 120.261 70.1291C120.261 44.3803 106.009 45.2934 106.009 45.2934H97.5024V57.2417C97.5024 57.2417 97.961 71.4945 83.4771 71.4945H59.324C59.324 71.4945 45.7541 71.2753 45.7541 84.6099V106.658C45.7541 106.658 43.6938 120 70.3626 120ZM83.7904 112.291C83.2149 112.291 82.6451 112.178 82.1133 111.958C81.5815 111.738 81.0984 111.415 80.6915 111.009C80.2846 110.602 79.9619 110.119 79.7419 109.587C79.5219 109.055 79.4089 108.485 79.4094 107.91C79.4089 107.334 79.5218 106.764 79.7418 106.232C79.9617 105.701 80.2844 105.217 80.6913 104.81C81.0982 104.403 81.5814 104.081 82.1132 103.861C82.645 103.641 83.2149 103.528 83.7904 103.528C84.3659 103.528 84.9358 103.641 85.4675 103.861C85.9993 104.081 86.4825 104.403 86.8893 104.81C87.2962 105.217 87.6189 105.7 87.839 106.232C88.0589 106.764 88.1719 107.334 88.1714 107.909C88.1719 108.485 88.0589 109.055 87.839 109.586C87.6189 110.118 87.2962 110.601 86.8893 111.008C86.4825 111.415 85.9993 111.738 85.4675 111.958C84.9358 112.178 84.3659 112.291 83.7904 112.291Z" fill="#FFE052"/>
</svg>
