<svg width="140" height="140" viewBox="0 0 140 140" fill="none" xmlns="http://www.w3.org/2000/svg">
<rect width="140" height="140" rx="20" fill="#EE4C2C"/>
<path d="M99.1293 49.2459L91.708 56.672C103.894 68.8654 103.894 88.485 91.708 100.495C79.5226 112.689 59.9158 112.689 47.9136 100.495C35.7281 88.3016 35.7281 68.6821 47.9136 56.672L67.2455 37.3275L69.9941 34.5771V20L40.8589 49.1543C24.6421 65.3816 24.6421 91.6021 40.8589 107.829C57.0756 124.057 83.279 124.057 99.2209 107.829C115.346 91.6021 115.346 65.565 99.1293 49.2459Z" fill="white"/>
<path d="M84.5618 47.5037C87.5473 47.5037 89.9674 45.0821 89.9674 42.0947C89.9674 39.1073 87.5473 36.6855 84.5618 36.6855C81.5764 36.6855 79.1562 39.1073 79.1562 42.0947C79.1562 45.0821 81.5764 47.5037 84.5618 47.5037Z" fill="white"/>
</svg>
