<svg width="333" height="140" viewBox="0 0 333 140" fill="none" xmlns="http://www.w3.org/2000/svg">
<rect width="332.607" height="140" rx="20" fill="#EE4C2C"/>
<path d="M90.433 49.2459L83.0117 56.672C95.1972 68.8654 95.1972 88.485 83.0117 100.495C70.8263 112.689 51.2196 112.689 39.2173 100.495C27.0318 88.3016 27.0318 68.6821 39.2173 56.672L58.5492 37.3275L61.2978 34.5771V20L32.1626 49.1543C15.9458 65.3816 15.9458 91.6021 32.1626 107.829C48.3793 124.057 74.5827 124.057 90.5246 107.829C106.65 91.6021 106.65 65.565 90.433 49.2459Z" fill="white"/>
<path d="M75.8655 47.5037C78.851 47.5037 81.2711 45.0821 81.2711 42.0947C81.2711 39.1073 78.851 36.6855 75.8655 36.6855C72.8801 36.6855 70.46 39.1073 70.46 42.0947C70.46 45.0821 72.8801 47.5037 75.8655 47.5037Z" fill="white"/>
<path d="M135.451 86V53.2727H148.363C150.846 53.2727 152.96 53.7468 154.707 54.695C156.455 55.6325 157.786 56.9375 158.702 58.6101C159.629 60.272 160.093 62.1896 160.093 64.3629C160.093 66.5362 159.624 68.4538 158.686 70.1158C157.749 71.7777 156.391 73.0721 154.612 73.9989C152.843 74.9258 150.702 75.3892 148.188 75.3892H139.958V69.8441H147.069C148.401 69.8441 149.498 69.6151 150.361 69.157C151.234 68.6882 151.884 68.0437 152.31 67.2234C152.747 66.3924 152.966 65.4389 152.966 64.3629C152.966 63.2763 152.747 62.3281 152.31 61.5185C151.884 60.6982 151.234 60.0643 150.361 59.6168C149.487 59.1587 148.379 58.9297 147.037 58.9297H142.371V86H135.451ZM168.662 95.2045C167.799 95.2045 166.989 95.1353 166.233 94.9968C165.487 94.869 164.869 94.7038 164.379 94.5014L165.913 89.4197C166.712 89.6648 167.432 89.7979 168.071 89.8192C168.721 89.8406 169.28 89.6914 169.749 89.3718C170.228 89.0522 170.617 88.5089 170.915 87.7418L171.315 86.7031L162.51 61.4545H169.669L174.75 79.4801H175.006L180.136 61.4545H187.343L177.803 88.6527C177.345 89.9737 176.721 91.1243 175.933 92.1044C175.155 93.0952 174.17 93.8569 172.977 94.3896C171.784 94.9329 170.345 95.2045 168.662 95.2045ZM188.17 58.9776V53.2727H215.048V58.9776H205.029V86H198.189V58.9776H188.17ZM226.878 86.4794C224.395 86.4794 222.249 85.9521 220.438 84.8974C218.637 83.832 217.247 82.3512 216.267 80.4549C215.287 78.5479 214.797 76.3374 214.797 73.8232C214.797 71.2876 215.287 69.0717 216.267 67.1754C217.247 65.2685 218.637 63.7876 220.438 62.733C222.249 61.6676 224.395 61.1349 226.878 61.1349C229.36 61.1349 231.501 61.6676 233.302 62.733C235.113 63.7876 236.508 65.2685 237.488 67.1754C238.469 69.0717 238.959 71.2876 238.959 73.8232C238.959 76.3374 238.469 78.5479 237.488 80.4549C236.508 82.3512 235.113 83.832 233.302 84.8974C231.501 85.9521 229.36 86.4794 226.878 86.4794ZM226.91 81.206C228.039 81.206 228.982 80.8864 229.738 80.2472C230.494 79.5973 231.064 78.7131 231.448 77.5945C231.842 76.4759 232.039 75.2028 232.039 73.7752C232.039 72.3477 231.842 71.0746 231.448 69.956C231.064 68.8374 230.494 67.9531 229.738 67.3033C228.982 66.6534 228.039 66.3285 226.91 66.3285C225.77 66.3285 224.811 66.6534 224.033 67.3033C223.266 67.9531 222.686 68.8374 222.291 69.956C221.908 71.0746 221.716 72.3477 221.716 73.7752C221.716 75.2028 221.908 76.4759 222.291 77.5945C222.686 78.7131 223.266 79.5973 224.033 80.2472C224.811 80.8864 225.77 81.206 226.91 81.206ZM243.385 86V61.4545H249.985V65.7372H250.241C250.688 64.2138 251.439 63.0632 252.494 62.2855C253.548 61.4972 254.763 61.103 256.137 61.103C256.478 61.103 256.846 61.1243 257.24 61.1669C257.634 61.2095 257.98 61.2681 258.279 61.3427V67.3832C257.959 67.2873 257.517 67.2021 256.952 67.1275C256.388 67.0529 255.871 67.0156 255.402 67.0156C254.401 67.0156 253.506 67.234 252.717 67.6708C251.94 68.0969 251.322 68.6935 250.864 69.4606C250.416 70.2276 250.193 71.1119 250.193 72.1133V86H243.385ZM271.746 86.4794C269.232 86.4794 267.069 85.9467 265.258 84.8814C263.457 83.8054 262.072 82.3139 261.103 80.407C260.144 78.5 259.665 76.3054 259.665 73.8232C259.665 71.3089 260.15 69.1037 261.119 67.2074C262.099 65.3004 263.489 63.8143 265.29 62.7489C267.09 61.6729 269.232 61.1349 271.714 61.1349C273.855 61.1349 275.73 61.5238 277.339 62.3015C278.947 63.0792 280.221 64.1712 281.158 65.5774C282.096 66.9837 282.612 68.6349 282.708 70.5312H276.284C276.103 69.3061 275.624 68.3207 274.846 67.5749C274.079 66.8185 273.072 66.4403 271.826 66.4403C270.771 66.4403 269.849 66.728 269.061 67.3033C268.283 67.8679 267.676 68.6935 267.239 69.7802C266.803 70.8668 266.584 72.1825 266.584 73.7273C266.584 75.2933 266.797 76.625 267.223 77.7223C267.66 78.8196 268.273 79.6559 269.061 80.2312C269.849 80.8065 270.771 81.0941 271.826 81.0941C272.603 81.0941 273.301 80.9343 273.919 80.6147C274.548 80.2951 275.064 79.8317 275.469 79.2244C275.885 78.6065 276.156 77.8661 276.284 77.0032H282.708C282.602 78.8782 282.09 80.5295 281.174 81.957C280.269 83.3739 279.017 84.4819 277.419 85.2809C275.821 86.0799 273.93 86.4794 271.746 86.4794ZM293.874 71.8097V86H287.067V53.2727H293.682V65.7852H293.97C294.524 64.3363 295.419 63.2017 296.655 62.3814C297.891 61.5504 299.441 61.1349 301.305 61.1349C303.01 61.1349 304.496 61.5078 305.763 62.2536C307.042 62.9886 308.033 64.0486 308.736 65.4336C309.45 66.8079 309.801 68.4538 309.79 70.3714V86H302.983V71.5859C302.994 70.0732 302.61 68.896 301.832 68.0543C301.065 67.2127 299.989 66.7919 298.604 66.7919C297.678 66.7919 296.857 66.989 296.143 67.3832C295.44 67.7773 294.886 68.3526 294.481 69.109C294.087 69.8548 293.885 70.755 293.874 71.8097Z" fill="white"/>
</svg>
