<svg width="140" height="140" viewBox="0 0 140 140" fill="none" xmlns="http://www.w3.org/2000/svg">
<rect width="140" height="140" rx="20" fill="#61DAFB"/>
<path d="M70.0001 80.5053C75.802 80.5053 80.5053 75.8019 80.5053 70.0002C80.5053 64.1983 75.802 59.4949 70.0001 59.4949C64.1982 59.4949 59.495 64.1983 59.495 70.0002C59.495 75.8019 64.1982 80.5053 70.0001 80.5053Z" fill="#61DAFB"/>
<path d="M70.0001 80.5053C75.802 80.5053 80.5053 75.8019 80.5053 70.0002C80.5053 64.1983 75.802 59.4949 70.0001 59.4949C64.1982 59.4949 59.495 64.1983 59.495 70.0002C59.495 75.8019 64.1982 80.5053 70.0001 80.5053Z" stroke="white" stroke-width="5"/>
<path d="M70 91.5229C101.132 91.5229 126.369 81.8868 126.369 70C126.369 58.1134 101.132 48.4772 70 48.4772C38.8681 48.4772 13.6307 58.1134 13.6307 70C13.6307 81.8868 38.8681 91.5229 70 91.5229Z" stroke="white" stroke-width="5"/>
<path d="M51.3607 80.7614C66.9267 107.723 87.8904 124.761 98.1847 118.817C108.479 112.874 104.205 86.1996 88.6393 59.2386C73.0733 32.2775 52.1096 15.2394 41.8153 21.1827C31.5211 27.1261 35.7947 53.8004 51.3607 80.7614Z" stroke="white" stroke-width="5"/>
<path d="M51.3607 59.2386C35.7948 86.1996 31.5211 112.874 41.8153 118.817C52.1096 124.761 73.0735 107.722 88.6393 80.7614C104.205 53.8004 108.479 27.1261 98.1847 21.1827C87.8906 15.2393 66.9267 32.2775 51.3607 59.2386Z" stroke="white" stroke-width="5"/>
</svg>
