<svg width="375" height="140" viewBox="0 0 375 140" fill="none" xmlns="http://www.w3.org/2000/svg">
<rect width="374.739" height="140" rx="20" fill="#58C4DC"/>
<path d="M76.3695 80.5053C82.1714 80.5053 86.8746 75.8019 86.8746 70.0002C86.8746 64.1983 82.1714 59.4949 76.3695 59.4949C70.5676 59.4949 65.8643 64.1983 65.8643 70.0002C65.8643 75.8019 70.5676 80.5053 76.3695 80.5053Z" fill="#58C4DC"/>
<path d="M76.3693 91.5229C107.501 91.5229 132.739 81.8868 132.739 70C132.739 58.1134 107.501 48.4772 76.3693 48.4772C45.2374 48.4772 20 58.1134 20 70C20 81.8868 45.2374 91.5229 76.3693 91.5229Z" fill="#58C4DC"/>
<path d="M57.73 80.7614C73.296 107.723 94.2598 124.761 104.554 118.817C114.848 112.874 110.575 86.1996 95.0087 59.2386C79.4427 32.2775 58.4789 15.2394 48.1847 21.1827C37.8904 27.1261 42.164 53.8004 57.73 80.7614Z" fill="#58C4DC"/>
<path d="M57.73 59.2386C42.1641 86.1996 37.8904 112.874 48.1847 118.817C58.4789 124.761 79.4428 107.722 95.0087 80.7614C110.575 53.8004 114.848 27.1261 104.554 21.1827C94.2599 15.2393 73.296 32.2775 57.73 59.2386Z" fill="#58C4DC"/>
<path d="M76.3695 80.5053C82.1714 80.5053 86.8746 75.8019 86.8746 70.0002C86.8746 64.1983 82.1714 59.4949 76.3695 59.4949C70.5676 59.4949 65.8643 64.1983 65.8643 70.0002C65.8643 75.8019 70.5676 80.5053 76.3695 80.5053Z" stroke="white" stroke-width="5"/>
<path d="M76.3693 91.5229C107.501 91.5229 132.739 81.8868 132.739 70C132.739 58.1134 107.501 48.4772 76.3693 48.4772C45.2374 48.4772 20 58.1134 20 70C20 81.8868 45.2374 91.5229 76.3693 91.5229Z" stroke="white" stroke-width="5"/>
<path d="M57.73 80.7614C73.296 107.723 94.2598 124.761 104.554 118.817C114.848 112.874 110.575 86.1996 95.0087 59.2386C79.4427 32.2775 58.4789 15.2394 48.1847 21.1827C37.8904 27.1261 42.164 53.8004 57.73 80.7614Z" stroke="white" stroke-width="5"/>
<path d="M57.73 59.2386C42.1641 86.1996 37.8904 112.874 48.1847 118.817C58.4789 124.761 79.4428 107.722 95.0087 80.7614C110.575 53.8004 114.848 27.1261 104.554 21.1827C94.2599 15.2393 73.296 32.2775 57.73 59.2386Z" stroke="white" stroke-width="5"/>
<path d="M165.583 86V53.2727H178.495C180.967 53.2727 183.076 53.7148 184.823 54.5991C186.581 55.4727 187.918 56.7138 188.834 58.3224C189.761 59.9205 190.224 61.8008 190.224 63.9634C190.224 66.1367 189.756 68.0064 188.818 69.5724C187.881 71.1278 186.522 72.321 184.743 73.152C182.975 73.983 180.833 74.3984 178.319 74.3984H169.674V68.8374H177.201C178.522 68.8374 179.619 68.6562 180.493 68.294C181.366 67.9318 182.016 67.3885 182.442 66.6641C182.879 65.9396 183.097 65.0394 183.097 63.9634C183.097 62.8768 182.879 61.9606 182.442 61.2148C182.016 60.4691 181.361 59.9045 180.477 59.521C179.603 59.1268 178.5 58.9297 177.169 58.9297H172.502V86H165.583ZM183.257 71.1065L191.391 86H183.752L175.794 71.1065H183.257ZM205.777 86.4794C203.252 86.4794 201.079 85.968 199.257 84.9453C197.446 83.9119 196.051 82.4524 195.07 80.5668C194.09 78.6705 193.6 76.4279 193.6 73.8391C193.6 71.3143 194.09 69.0984 195.07 67.1914C196.051 65.2844 197.43 63.7983 199.209 62.733C200.999 61.6676 203.098 61.1349 205.505 61.1349C207.125 61.1349 208.632 61.396 210.028 61.918C211.434 62.4293 212.659 63.2017 213.703 64.2351C214.758 65.2685 215.578 66.5682 216.164 68.1342C216.75 69.6896 217.043 71.5114 217.043 73.5994V75.4691H196.317V71.2504H210.635C210.635 70.2702 210.422 69.402 209.996 68.6456C209.57 67.8892 208.978 67.2979 208.222 66.8718C207.476 66.435 206.608 66.2166 205.617 66.2166C204.584 66.2166 203.668 66.4563 202.869 66.9357C202.08 67.4045 201.462 68.0384 201.015 68.8374C200.568 69.6257 200.339 70.5046 200.328 71.4741V75.4851C200.328 76.6996 200.552 77.7489 200.999 78.6332C201.457 79.5174 202.102 80.1992 202.933 80.6786C203.764 81.158 204.749 81.3977 205.889 81.3977C206.645 81.3977 207.338 81.2912 207.966 81.0781C208.595 80.8651 209.133 80.5455 209.58 80.1193C210.028 79.6932 210.369 79.1712 210.603 78.5533L216.899 78.9688C216.58 80.4815 215.924 81.8026 214.934 82.9318C213.954 84.0504 212.686 84.924 211.13 85.5526C209.586 86.1705 207.801 86.4794 205.777 86.4794ZM228.485 86.4634C226.919 86.4634 225.523 86.1918 224.298 85.6484C223.073 85.0945 222.103 84.2795 221.39 83.2035C220.687 82.1168 220.335 80.7638 220.335 79.1445C220.335 77.7809 220.585 76.6357 221.086 75.7088C221.587 74.782 222.269 74.0362 223.131 73.4716C223.994 72.907 224.975 72.4808 226.072 72.1932C227.18 71.9055 228.341 71.7031 229.555 71.5859C230.983 71.4368 232.134 71.2983 233.007 71.1705C233.881 71.032 234.515 70.8295 234.909 70.5632C235.303 70.2969 235.5 69.9027 235.5 69.3807V69.2848C235.5 68.2727 235.18 67.4897 234.541 66.9357C233.913 66.3817 233.018 66.1048 231.857 66.1048C230.631 66.1048 229.657 66.3764 228.932 66.9197C228.208 67.4524 227.728 68.1236 227.494 68.9332L221.198 68.4219C221.518 66.9304 222.146 65.6413 223.084 64.5547C224.021 63.4574 225.23 62.6158 226.711 62.0298C228.203 61.4332 229.928 61.1349 231.889 61.1349C233.252 61.1349 234.557 61.2947 235.804 61.6143C237.061 61.9339 238.174 62.4293 239.144 63.1005C240.124 63.7717 240.896 64.6346 241.461 65.6893C242.025 66.7333 242.308 67.9851 242.308 69.4446V86H235.852V82.5962H235.66C235.266 83.3633 234.738 84.0398 234.078 84.6257C233.417 85.201 232.624 85.6538 231.697 85.984C230.77 86.3036 229.699 86.4634 228.485 86.4634ZM230.434 81.7653C231.436 81.7653 232.32 81.5682 233.087 81.174C233.854 80.7692 234.456 80.2259 234.893 79.544C235.33 78.8622 235.548 78.0898 235.548 77.2269V74.6222C235.335 74.7607 235.042 74.8885 234.669 75.0057C234.307 75.1122 233.897 75.2134 233.439 75.3093C232.981 75.3945 232.522 75.4744 232.064 75.549C231.606 75.6129 231.191 75.6715 230.818 75.7248C230.019 75.842 229.321 76.0284 228.725 76.2841C228.128 76.5398 227.665 76.886 227.334 77.3228C227.004 77.7489 226.839 78.2816 226.839 78.9208C226.839 79.8477 227.174 80.5561 227.846 81.0462C228.527 81.5256 229.39 81.7653 230.434 81.7653ZM258.679 86.4794C256.165 86.4794 254.002 85.9467 252.191 84.8814C250.391 83.8054 249.006 82.3139 248.036 80.407C247.078 78.5 246.598 76.3054 246.598 73.8232C246.598 71.3089 247.083 69.1037 248.052 67.2074C249.033 65.3004 250.423 63.8143 252.223 62.7489C254.024 61.6729 256.165 61.1349 258.647 61.1349C260.789 61.1349 262.664 61.5238 264.272 62.3015C265.881 63.0792 267.154 64.1712 268.092 65.5774C269.029 66.9837 269.546 68.6349 269.642 70.5312H263.218C263.036 69.3061 262.557 68.3207 261.779 67.5749C261.012 66.8185 260.006 66.4403 258.759 66.4403C257.704 66.4403 256.783 66.728 255.995 67.3033C255.217 67.8679 254.61 68.6935 254.173 69.7802C253.736 70.8668 253.518 72.1825 253.518 73.7273C253.518 75.2933 253.731 76.625 254.157 77.7223C254.594 78.8196 255.206 79.6559 255.995 80.2312C256.783 80.8065 257.704 81.0941 258.759 81.0941C259.537 81.0941 260.235 80.9343 260.853 80.6147C261.481 80.2951 261.998 79.8317 262.403 79.2244C262.818 78.6065 263.09 77.8661 263.218 77.0032H269.642C269.535 78.8782 269.024 80.5295 268.108 81.957C267.202 83.3739 265.95 84.4819 264.352 85.2809C262.754 86.0799 260.863 86.4794 258.679 86.4794ZM287.056 61.4545V66.5682H272.274V61.4545H287.056ZM275.63 55.5739H282.438V78.4574C282.438 79.0859 282.534 79.576 282.725 79.9276C282.917 80.2685 283.183 80.5082 283.524 80.6467C283.876 80.7852 284.281 80.8544 284.739 80.8544C285.058 80.8544 285.378 80.8278 285.698 80.7745C286.017 80.7106 286.262 80.6626 286.433 80.6307L287.503 85.6964C287.162 85.8029 286.683 85.9254 286.065 86.0639C285.447 86.2131 284.696 86.3036 283.812 86.3356C282.171 86.3995 280.733 86.1811 279.497 85.6804C278.272 85.1797 277.319 84.402 276.637 83.3473C275.955 82.2926 275.62 80.9609 275.63 79.3523V55.5739ZM315.137 53.2727H321.976V76.0923C321.976 78.2017 321.502 80.0341 320.554 81.5895C319.617 83.1449 318.312 84.3434 316.639 85.185C314.967 86.0266 313.022 86.4474 310.806 86.4474C308.836 86.4474 307.046 86.1012 305.437 85.4087C303.839 84.7056 302.571 83.6403 301.634 82.2127C300.696 80.7745 300.233 78.9687 300.244 76.7955H307.131C307.152 77.6584 307.328 78.3988 307.658 79.0167C307.999 79.6239 308.463 80.0927 309.049 80.4229C309.645 80.7425 310.348 80.9023 311.158 80.9023C312.01 80.9023 312.729 80.7212 313.315 80.359C313.912 79.9862 314.365 79.4428 314.674 78.729C314.983 78.0153 315.137 77.1364 315.137 76.0923V53.2727ZM345.451 62.685C345.323 61.396 344.775 60.3945 343.805 59.6808C342.836 58.967 341.52 58.6101 339.858 58.6101C338.729 58.6101 337.775 58.7699 336.998 59.0895C336.22 59.3984 335.624 59.8299 335.208 60.3839C334.803 60.9379 334.601 61.5664 334.601 62.2695C334.579 62.8555 334.702 63.3668 334.968 63.8036C335.245 64.2404 335.624 64.6186 336.103 64.9382C336.582 65.2472 337.136 65.5188 337.765 65.7532C338.393 65.9769 339.065 66.1687 339.778 66.3285L342.719 67.0316C344.146 67.3512 345.457 67.7773 346.65 68.31C347.843 68.8427 348.876 69.4979 349.75 70.2756C350.624 71.0533 351.3 71.9695 351.779 73.0241C352.269 74.0788 352.52 75.288 352.53 76.6516C352.52 78.6545 352.008 80.391 350.996 81.8612C349.995 83.3207 348.546 84.4553 346.65 85.2649C344.764 86.0639 342.49 86.4634 339.826 86.4634C337.184 86.4634 334.883 86.0586 332.923 85.2489C330.973 84.4393 329.45 83.2408 328.353 81.6534C327.266 80.0554 326.696 78.0792 326.643 75.7248H333.338C333.413 76.8221 333.727 77.7383 334.281 78.4734C334.846 79.1978 335.597 79.7464 336.534 80.1193C337.483 80.4815 338.553 80.6626 339.746 80.6626C340.918 80.6626 341.936 80.4922 342.799 80.1513C343.672 79.8104 344.349 79.3363 344.828 78.729C345.307 78.1218 345.547 77.424 345.547 76.6357C345.547 75.9006 345.329 75.2827 344.892 74.782C344.466 74.2812 343.837 73.8551 343.006 73.5036C342.186 73.152 341.179 72.8324 339.986 72.5447L336.423 71.6499C333.663 70.9787 331.485 69.9293 329.887 68.5018C328.289 67.0742 327.495 65.1513 327.506 62.733C327.495 60.7514 328.022 59.0202 329.088 57.5394C330.164 56.0586 331.639 54.9027 333.514 54.0717C335.389 53.2408 337.52 52.8253 339.906 52.8253C342.335 52.8253 344.455 53.2408 346.266 54.0717C348.088 54.9027 349.505 56.0586 350.517 57.5394C351.529 59.0202 352.051 60.7354 352.083 62.685H345.451Z" fill="white"/>
</svg>
