<svg width="543" height="140" viewBox="0 0 543 140" fill="none" xmlns="http://www.w3.org/2000/svg">
<rect width="542.194" height="140" rx="20" fill="#7B61C1"/>
<path fill-rule="evenodd" clip-rule="evenodd" d="M68.3216 20H70.2759L70.9152 20.0355L70.9196 20.0358L72.2298 20.1047L72.8318 20.1716L73.4629 20.2048L74.1826 20.2806L74.7846 20.3809L75.4201 20.4478L76.7003 20.6612L77.3357 20.7949L77.946 20.8967L78.6258 21.0477L79.2278 21.2149L79.8298 21.3487L81.7106 21.8712L82.9634 22.2888L84.1354 22.7024L84.7374 22.9365L85.3199 23.1421L85.9585 23.4051L86.527 23.6726L87.1122 23.9136L87.6804 24.1977L88.249 24.4653L88.8158 24.7487L89.4168 25.0668L91.0572 25.9896L91.5887 26.3085L92.1542 26.6619L93.5997 27.6255L94.637 28.1442L95.2387 28.4274L96.375 29.0665L96.8766 29.3675L97.4237 29.6752L98.0071 30.0398L98.5087 30.3743L99.0438 30.7087L99.592 31.0741L101.144 32.2125L101.613 32.5804L102.14 32.9673L103.611 34.2279L104.079 34.6627L104.568 35.0822L105.933 36.4471L106.825 37.4073L107.226 37.8421L107.696 38.3476L108.116 38.8727L108.538 39.3649L108.906 39.8666L109.307 40.3348L110.09 41.4027L110.477 41.9656L110.805 42.4584L110.817 42.4762L111.179 43.0024L111.532 43.5314L111.897 44.1148L112.224 44.6969L112.509 45.2347L112.833 45.7536L113.178 46.3666L113.454 46.9525L113.746 47.5053L114.03 48.0721L114.321 48.6904L114.561 49.2742L114.829 49.876L115.324 51.0802L115.537 51.7192L115.738 52.2875L116.139 53.4916L116.353 54.0961L116.879 55.9896L117.29 57.8423L117.432 58.5171L117.739 60.3546L117.74 60.3609L117.741 60.3673L117.846 61.0369L117.989 62.3187L118.022 62.9541L118.089 63.554L118.125 64.2018L118.158 64.8329L118.158 64.8373L118.194 65.4766V67.3996L118.158 68.039L118.158 68.0433L118.125 68.6788L118.056 69.9243L118.05 69.9745L118.089 70.3476L118.161 71.6305V72.2325L118.194 72.8345V74.1555L118.161 74.7575V75.3929L118.122 76.0781L118.056 76.678L118.022 77.3134L117.885 78.5522L117.884 78.5608L117.813 79.2328L117.607 80.4689L117.605 80.4815L117.499 81.1504L117.364 81.7587L117.264 82.3607L117.113 83.0405L116.946 83.6426L116.812 84.2445L116.289 86.1253L116.072 86.7761L115.872 87.3444L115.659 87.9833L115.425 88.5518L115.224 89.1539L114.728 90.3581L114.446 90.994L114.164 91.5935L113.896 92.1286L113.345 93.2989L113.027 93.8649L112.726 94.4335L112.398 95.0156L112.064 95.5509L111.763 96.0859L111.393 96.6784L111.018 97.2228L110.678 97.7334L110.291 98.2963L109.159 99.8399L108.771 100.333L108.35 100.86L107.511 101.838L107.076 102.307L106.675 102.775L106.201 103.285L104.857 104.629L104.347 105.103L103.878 105.504L103.41 105.939L102.427 106.782L101.944 107.162L101.933 107.17L101.437 107.567L100.944 107.955L99.893 108.725L99.3448 109.091L98.8097 109.425L98.3081 109.76L97.773 110.094L97.2423 110.448L95.5554 111.397L95.0203 111.664L94.4695 111.974L93.8329 112.274L93.5948 112.378L92.4552 113.137L91.9202 113.472L91.3895 113.826L89.1674 115.076L88.5835 115.368L88.015 115.635L87.4798 115.903L86.8615 116.194L86.2928 116.428L85.6894 116.712L85.0859 116.925L84.5392 117.15L83.9013 117.398L83.2978 117.611L82.6957 117.812L82.0912 118.025L79.5957 118.718L77.743 119.13L77.0682 119.272L75.8327 119.478L75.8264 119.479L75.82 119.48L75.1504 119.586L74.5097 119.657L73.2431 119.79L73.2345 119.791L72.5977 119.862L71.9229 119.897L71.9186 119.898L71.3209 119.931L71.3166 119.931L70.0061 120H68.0541L67.3747 119.964L66.7771 119.931L65.4625 119.862L64.8257 119.791L64.8171 119.79L64.186 119.724L63.5452 119.653L62.8693 119.546L62.2736 119.446L62.2609 119.444L61.6318 119.345L60.9837 119.237L60.3589 119.098L60.3424 119.095L59.7152 118.963L58.4645 118.685L56.571 118.159L56.0025 117.958L55.4005 117.791L54.761 117.565L54.159 117.331L53.5764 117.125L52.9856 116.882L52.3685 116.642L51.7859 116.387L51.2323 116.127L50.6636 115.893L50.0121 115.586L49.4614 115.276L48.9434 115.017L48.3424 114.699L47.7722 114.378L47.2704 114.077L46.7235 113.77L46.1401 113.405L44.6193 112.391L44.1925 112.19L43.0734 111.631L40.8706 110.392L40.2873 110.027L39.7854 109.693L39.2505 109.358L38.7024 108.993L38.2006 108.625L37.699 108.29L37.1241 107.869L36.6559 107.467L36.1542 107.1L34.2152 105.438L33.7047 104.964L33.2698 104.529L32.8016 104.094L31.8715 103.164L31.452 102.674L31.0172 102.206L29.7772 100.759L29.3558 100.233L28.992 99.7696L28.9838 99.7593L28.5709 99.2433L28.1708 98.6976L27.7838 98.1348L27.4311 97.6057L27.1145 97.0992L26.7466 96.5975L26.3642 95.9856L26.0632 95.4504L25.7186 94.899L25.4012 94.2997L25.0829 93.7337L24.8153 93.1652L24.5143 92.6301L23.6726 90.8414L23.1846 89.6563L22.9505 89.0543L22.7023 88.4515L22.4894 87.8129L22.2888 87.2443L21.8712 85.9915L21.3487 84.1107L21.2149 83.5087L21.0369 82.8678L20.9301 82.227L20.6626 81.0229L20.5545 80.3749L20.4478 79.6989L20.3097 78.4562L20.2433 77.8251L20.2424 77.8164L20.1047 76.5776L20.0692 75.9029L20.069 75.8985L20.0334 75.2592V74.655L20 74.0195V72.7363L20.0334 72.1009V71.4967L20.0715 70.8115L20.1384 70.2095L20.1514 69.9748L20.105 69.5564L20.0692 68.9129L20.069 68.9085L20.0334 68.2336V67.6338L20 67.0317V65.7107L20.069 64.4694L20.0692 64.465L20.1024 63.8339L20.1027 63.8296L20.1384 63.1861L20.205 62.5863L20.2407 61.9098L20.3482 61.2646L20.4144 60.669L20.5211 59.993L20.8284 58.1492L20.9705 57.4744L21.1146 56.8257L21.2818 56.2237L21.4156 55.6217L21.7744 54.3302L21.975 53.7617L22.1387 53.1724L22.3557 52.5216L22.5686 51.9181L22.8167 51.2801L23.0509 50.7116L23.285 50.1096L23.773 48.9245L24.3389 47.7218L24.6483 47.1374L24.9159 46.6023L25.234 46.0013L25.8625 44.884L26.1969 44.3489L26.498 43.8138L26.8683 43.2213L27.2487 42.6679L27.5831 42.1663L27.9701 41.6034L29.1211 40.0338L29.5431 39.5416L29.9444 39.0399L31.1845 37.5932L31.6586 37.0826L32.0933 36.6478L32.5281 36.1796L33.4583 35.2494L33.9265 34.8481L34.3613 34.4133L35.361 33.5564L35.8626 33.1551L36.3549 32.7332L36.8825 32.3463L37.3507 31.9784L38.4014 31.2079L38.9495 30.8425L39.4846 30.508L39.9863 30.1736L40.5214 29.8392L41.052 29.4854L42.7389 28.5365L43.3229 28.2445L43.8915 27.977L44.5943 27.6255L45.8391 26.7957L46.3742 26.4612L46.9048 26.1075L48.5918 25.1586L49.1441 24.8824L49.7126 24.5814L50.2794 24.298L50.8977 24.0071L51.4497 23.7798L51.9848 23.5122L52.6179 23.2515L53.2199 23.0174L53.8105 22.7742L54.4279 22.5563L55.0299 22.3557L55.5985 22.155L56.2493 21.938L58.7321 21.2484L60.6159 20.8298L61.2262 20.7281L61.8616 20.5943L62.5398 20.4812L63.1753 20.4144L63.7773 20.314L64.4492 20.2433L64.4578 20.2424L65.0946 20.1716L65.7344 20.1379L66.3677 20.0713L67.0485 20.0334H67.6862L68.3216 20ZM32.3114 40.9036L32.263 40.9601L31.8616 41.4618L31.4809 41.906L30.4245 43.3464L30.0757 43.8538L29.7413 44.3555L29.3859 44.8724L29.0873 45.3501L28.7863 45.8852L28.4519 46.4203L27.8763 47.4435L27.5925 47.9797L27.3249 48.5148L27.0323 49.0675L26.528 50.1391L26.0796 51.2282L25.8455 51.8302L25.6113 52.3988L25.4815 52.7327L25.4905 52.7177L25.7581 52.2494L26.0793 51.7141L26.3803 51.2459L26.6813 50.7442L27.0148 50.2254L27.3861 49.7055L27.7206 49.2707L28.055 48.8025L29.096 47.4492L29.3795 47.1142L29.5664 46.6469L29.7671 46.1118L29.9896 45.5557L30.2338 45.0322L30.4679 44.4971L31.195 42.9392L32.0344 41.3653L32.3114 40.9036ZM27.2942 55.7L27.2905 55.7075L27.0229 56.2091L26.7733 56.7084L26.5555 57.1751L25.8825 58.7133L25.6818 59.2819L25.4418 59.8305L25.2746 60.2765L25.1115 60.831L24.9108 61.3996L24.2649 63.5957L24.1427 64.1149L24.009 64.7169L23.8752 65.2855L23.7506 65.846L23.6585 66.3678L23.656 66.3819L23.3642 68.1334L23.1726 69.8574L23.1707 69.8915L23.1726 69.9085L23.2061 70.5105L23.3307 71.6325L23.5222 72.7819L23.5247 72.7961L23.6238 73.3575L23.8175 74.5197L23.9421 75.049L24.0758 75.651L24.198 76.1702L25.0111 78.9349L25.1936 79.4519L25.3943 79.9869L25.5815 80.5174L25.8097 81.0391L26.0104 81.5742L26.6811 83.1073L26.9226 83.5902L27.29 84.2791L27.2637 83.8589L27.1969 83.3573L27.1634 82.8222L27.0903 82.2738V81.6889L27.0234 80.6856V79.0469L27.0569 78.5452V78.0435L27.1273 76.9866L27.1643 76.4689L27.2312 75.9672L27.2646 75.499L27.3385 74.9446L27.4045 74.4834L27.4064 74.4694L27.4792 73.9231L27.581 73.448L27.6479 72.9797L27.862 71.9808L27.9737 71.4967L28.1075 71.0285L28.2078 70.5937L28.3564 70.0736L28.3732 70.0188L28.2747 69.6738L28.1744 69.2391L28.0406 68.7708L27.9289 68.2868L27.6145 66.8196L27.5476 66.3514L27.4458 65.8762L27.373 65.3299L27.3711 65.316L27.2986 64.8091L27.2646 64.3338L27.1973 63.8286L27.161 63.2845L27.1605 63.2774L27.1273 62.8127L27.0234 61.2541V59.1138L27.0932 58.0667L27.0936 58.0604L27.1269 57.5284L27.1634 56.9802L27.2303 56.4451L27.2638 55.9434L27.2942 55.7ZM30.3394 75.2226L30.3212 75.3494L30.3193 75.3633L30.2604 75.8054L30.227 76.2736L30.1601 76.7753L30.1304 77.1904L30.13 77.1975L30.0669 78.1437V78.6454L30.0334 79.1471V80.5853L30.1003 81.5887V82.074L30.161 82.529L30.1944 83.0641L30.2613 83.5658L30.2917 84.0521L30.3829 84.5079L30.455 85.0854L30.4566 85.0976L30.5167 85.5476L30.6996 86.5231L30.8333 87.0248L30.9359 87.5715L31.0559 88.0516L31.1897 88.5533L31.4461 89.5789L31.5995 90.0392L31.9207 91.0672L32.0602 91.4157L33.395 92.872L34.8873 94.3642L35.2382 94.6859L35.6396 95.0204L36.0409 95.3883L36.3925 95.6812L36.8272 96.0156L37.1995 96.3259L37.6343 96.6269L38.0357 96.9614L38.4387 97.2404L38.8075 97.517L39.218 97.7696L39.6528 98.0706L40.8855 98.8292L41.3203 99.0634L41.7357 99.319L42.165 99.5336L42.5791 99.7566L42.9932 99.9477L43.4615 100.182L44.2907 100.565L44.759 100.765L45.1515 100.946L45.2028 100.965L45.136 100.869L44.4336 99.7657L44.1704 99.3896L43.7532 98.6247L43.5046 98.2341L43.3147 97.8542L42.9 97.094L42.5544 96.3337L42.3872 95.9993L42.1842 95.5527L42.0504 95.1848L41.8931 94.8387L41.7376 94.4498L41.47 93.714L41.3131 93.3218L41.2128 92.9539L41.079 92.6195L40.961 92.1869L40.8607 91.8524L40.7604 91.4845L40.6413 91.0877L40.5744 90.7198L40.4779 90.3981L40.2608 89.3123L40.1939 88.9444L40.1168 88.5589L40.0833 88.2579L40.0148 87.9153L39.9414 87.1813L39.908 86.8804L39.9069 86.87L38.8237 86.0575L38.5465 85.82L38.3159 85.6182L38.0483 85.4175L37.7003 85.113L37.4662 84.8789L36.8933 84.3776L36.6592 84.11L36.4294 83.909L36.091 83.5706L35.8569 83.303L35.5893 83.0355L35.33 82.739L35.3222 82.7302L35.0585 82.4336L34.7919 82.1289L34.5614 81.8326L34.2938 81.5315L33.5379 80.5596L33.3038 80.2252L33.0697 79.9242L32.7835 79.5154L32.5828 79.1809L32.3487 78.8465L32.1311 78.4837L31.8803 78.0896L31.6701 77.7043L31.4695 77.3699L31.2783 77.0194L31.0147 76.6052L30.8153 76.1665L30.6391 75.8142L30.4136 75.4007L30.3394 75.2226ZM43.2573 88.9468L43.4017 89.6688L43.5058 90.016L43.5727 90.3838L43.6544 90.6559L43.7547 91.0238L43.855 91.3583L43.9377 91.6614L44.0715 91.9959L44.1718 92.3638L44.2825 92.6405L44.55 93.3762L44.6621 93.6563L44.8392 94.046L44.973 94.4139L45.1044 94.703L45.2716 95.0375L45.595 95.7488L45.9829 96.4601L46.1275 96.7492L46.3471 97.0943L46.7326 97.801L46.9376 98.0938L47.6399 99.1975L47.8473 99.4937L48.1148 99.8616L48.3489 100.196L48.5882 100.525L48.8288 100.826L49.1299 101.194L49.3753 101.501L50.3197 102.55L50.7617 102.645L51.1536 102.735L51.9601 102.859L52.4282 102.926L53.2494 103.052L53.6841 103.086L54.1189 103.153L54.5015 103.182L54.8452 103.211H55.2752L55.7099 103.244H56.1496L56.5509 103.278H57.2618L57.6632 103.244H58.0693L58.4369 103.216L58.4465 103.215L58.9006 103.177H59.2065L59.5459 103.121L60.3375 103.055L60.7054 102.988L61.1068 102.954L62.4427 102.711L62.8106 102.611L63.1785 102.544L63.5336 102.447L63.8494 102.384L64.1342 102.299L64.5021 102.199L65.4231 101.922L65.5966 101.853L65.5752 101.838L65.341 101.704L65.1069 101.536L64.8728 101.403L64.5311 101.159L64.3891 101.04L64.155 100.907L63.7537 100.572L63.5196 100.438L63.0281 100.029L62.8608 99.8949L62.4595 99.5605L62.2389 99.384L62.061 99.2061L61.9244 99.0923L61.7038 98.9158L61.5365 98.7486L61.3693 98.6148L61.0842 98.3297L61.0028 98.228L60.9011 98.1466L60.3484 97.5939L60.267 97.4922L60.1653 97.4108L59.7799 97.0253L59.5793 96.7747L59.529 96.7076L59.1277 96.3063L59.0274 96.1725L58.7933 95.9384L58.6929 95.8046L58.5592 95.6709L58.4588 95.5371L58.3585 95.4367L58.2582 95.3029L58.1578 95.2026L58.0575 95.0688L57.8568 94.8682L57.7565 94.7344L57.3254 94.3033L57.3027 94.2692L57.2686 94.2465L56.7335 93.7114L56.6331 93.6445L56.4659 93.4773L56.2653 93.3435L56.1984 93.2766L56.1556 93.2481L56.1222 93.237L55.9215 93.1032L55.8212 93.0697L55.6205 92.936L55.5202 92.9025L55.4198 92.8356L55.2192 92.7687L55.1188 92.7019L54.9076 92.6314L54.7924 92.5739L54.696 92.5497L54.5956 92.5163L54.4619 92.4828L54.3615 92.4494L54.0939 92.3825L53.9936 92.3491L53.4268 92.2074H53.2596L52.9807 92.1377L52.8135 92.1042L52.6798 92.0708L52.5125 92.0373L52.3787 92.0039L51.1078 91.7497L50.9634 91.6919L50.8992 91.6812L50.732 91.6478L50.3948 91.5916L50.2276 91.5247L49.8262 91.4578L49.659 91.3909L49.5023 91.3648L49.1177 91.2366L48.8836 91.2031L48.1838 90.9699L47.9498 90.903L47.7491 90.8361L47.1778 90.6729L46.9771 90.5726L46.7858 90.5179L46.5517 90.4176L46.3176 90.3507L44.8571 89.7247L44.5088 89.5941L44.2444 89.4431L44.0488 89.3592L43.7043 89.187L43.4702 89.0532L43.2573 88.9468ZM68.043 104.156L67.7759 104.263L67.4136 104.424L67.0096 104.545L66.772 104.625L66.4164 104.767L65.3307 105.092L64.9628 105.193L64.5787 105.308L64.2256 105.379L63.8449 105.482L63.477 105.549L63.1092 105.65L61.5019 105.942L61.1006 105.975L60.7327 106.042L59.919 106.11L59.4557 106.187H59.0258L58.6821 106.216L58.1849 106.254H57.7883L57.387 106.288H56.4257L56.0244 106.254H55.5944L55.1596 106.221H54.72L54.2659 106.183L54.2584 106.182L54.5739 106.44L54.9164 106.697L55.3178 106.965L55.7191 107.266L56.0629 107.495L56.4977 107.763L56.899 108.03L58.1431 108.796L58.5195 108.999L58.9878 109.233L59.4224 109.467L60.7674 110.139L61.2168 110.332L61.7186 110.566L62.1072 110.732L62.6089 110.9L63.1178 111.118L63.5613 111.295L64.5092 111.611L65.0444 111.778L65.5048 111.932L65.9952 112.054L66.4968 112.188L68.0473 112.576L69.136 112.78L69.5115 112.71L70.0464 112.576L70.5816 112.476L71.0615 112.356L71.5634 112.222L72.0675 112.096L72.5915 111.932L73.0795 111.802L73.5509 111.645L74.0862 111.477L74.5323 111.329L75.0191 111.134L75.4872 110.967L76.4475 110.583L76.8581 110.407L77.3264 110.173L77.7945 109.972L78.6712 109.534L79.1059 109.3L79.5352 109.085L79.9506 108.829L80.3853 108.595L81.6293 107.83L81.9733 107.6L82.3965 107.283L82.8041 107.032L83.1508 106.748L83.5786 106.463L83.921 106.206L83.9787 106.159L83.6988 106.182L82.7668 106.254H82.3368L81.9355 106.288H80.9742L80.5729 106.254H80.1381L79.7368 106.221H79.3354L78.4647 106.148L78.0353 106.109L77.6395 106.043L77.2272 106.009L76.8593 105.942L76.458 105.908L75.2186 105.683L74.8507 105.583L74.4641 105.513L74.1297 105.412L73.7618 105.345L73.365 105.226L72.9971 105.126L71.5769 104.7L71.2213 104.558L70.9202 104.457L70.5858 104.323L70.2578 104.214L69.6558 103.947L69.3548 103.846L69.0876 103.728L69.0706 103.736L68.3709 104.047L68.043 104.156ZM72.577 101.857L73.8258 102.232L74.1936 102.332L74.4657 102.414L74.8335 102.481L75.168 102.581L75.5172 102.645L75.8851 102.745L76.8531 102.921L77.2544 102.954L77.6223 103.021L78.0126 103.054L78.4196 103.122L78.7203 103.149L78.7316 103.15L79.4606 103.211H79.8619L80.2632 103.244H80.6981L81.0994 103.278H81.8103L82.2116 103.244H82.6513L83.4536 103.182L83.4632 103.182L83.8597 103.149L84.6771 103.086L85.1119 103.019L85.5467 102.985L85.8815 102.934L86.3497 102.834L87.2076 102.702L87.5995 102.611L87.8634 102.555L88.7518 101.567L88.9972 101.261L89.2982 100.893L89.5389 100.592L89.8065 100.224L90.0448 99.9261L90.279 99.5581L90.5465 99.2237L90.9889 98.5286L91.1938 98.2358L91.3786 97.897L91.6127 97.5291L91.8039 97.1786L92.0046 96.8441L92.3649 96.1836L92.5321 95.8157L92.7461 95.4234L92.8889 95.1378L93.1876 94.4807L93.3309 94.0866L93.4981 93.7522L93.7443 93.0753L93.8781 92.7408L93.9824 92.4538L94.0891 92.0628L94.2228 91.7283L94.3055 91.4252L94.4059 91.0907L94.5062 90.7228L94.6065 90.3884L94.6882 90.0888L94.7588 89.7357L94.8592 89.4013L94.9478 88.9579L94.8242 89.0197L94.5213 89.1928L94.2537 89.2931L94.0499 89.4096L93.7773 89.5264L93.5098 89.6602L91.9767 90.3172L91.7426 90.3841L91.5085 90.4845L91.2744 90.5513L91.0704 90.6388L90.7794 90.7358L90.3112 90.8696L89.9098 91.0033L89.6756 91.0702L89.1933 91.231L88.9927 91.2645L88.5913 91.3982L88.3906 91.4317L88.19 91.4986L87.8967 91.5474L87.8452 91.5577L87.6446 91.6246L87.3617 91.6812L87.161 91.7147L86.6514 91.8166L86.4842 91.8835L85.8681 92.0067H85.7037L85.5811 92.0373L85.414 92.0708L85.2801 92.1042L85.113 92.1376L83.9997 92.416L83.8994 92.4494L83.6318 92.5163L83.5315 92.5497L83.3977 92.5832L83.2758 92.6238L83.2089 92.6684L83.0083 92.7353L82.908 92.8022L82.7073 92.8691L82.6069 92.9359L82.5066 92.9694L82.3059 93.1032L82.2725 93.1143L81.938 93.3373L81.9046 93.3484L81.8618 93.377L81.7615 93.4773L81.6612 93.5442L81.5943 93.611L81.4939 93.678L80.5007 94.6712L80.4933 94.6823L80.3037 94.9351L79.8689 95.3698L79.6683 95.6374L79.4342 95.8715L79.3338 96.0053L79.2001 96.1391L79.0997 96.2729L78.9659 96.4066L78.8656 96.5404L78.18 97.226L78.0462 97.3932L77.1926 98.2469L77.0908 98.3283L76.957 98.4955L76.7243 98.6817L76.3435 99.0626L76.1428 99.1963L76.022 99.3171L75.8015 99.4936L75.6648 99.6075L75.4404 99.8318L75.1826 100.004L74.7813 100.338L74.5806 100.472L74.3987 100.624L74.0992 100.837L73.8984 100.971L73.4303 101.306L73.2296 101.439L72.9533 101.637L72.6789 101.794L72.577 101.857ZM98.2526 87.2485L98.1792 87.9822L98.0947 88.4045L98.0438 88.6336L98.0133 88.9389L97.9332 89.3792L97.783 90.1305L97.6826 90.465L97.6195 90.7808L97.5005 91.217L97.4002 91.5514L97.2998 91.9193L97.1995 92.2537L97.0815 92.6864L96.9477 93.0208L96.8537 93.3656L96.6905 93.8144L96.5568 94.1488L96.2678 94.9435L96.1005 95.2779L95.9763 95.6196L95.6061 96.4341L95.4144 96.8175L95.2271 97.1609L95.0598 97.5288L94.6175 98.3398L94.4168 98.6742L94.2067 99.0595L93.9726 99.4274L93.756 99.8244L93.4928 100.2L93.0288 100.93L93.1932 100.854L93.6474 100.679L94.0703 100.498L94.4651 100.316L94.9332 100.081L95.3473 99.8904L96.1962 99.4333L96.6255 99.2186L97.0409 98.963L97.4757 98.7289L98.2737 98.2378L98.7085 97.9368L99.1189 97.6843L99.4877 97.4076L100.326 96.8276L100.727 96.4931L101.162 96.1921L102.287 95.2546L103.089 94.5187L103.466 94.2053L104.21 93.4612L104.587 93.1154L105.626 91.9816L105.994 91.5469L106.161 91.365L106.24 91.1676L106.394 90.6747L106.561 90.1729L106.711 89.6931L106.837 89.1888L106.971 88.687L107.238 87.6169L107.361 87.1586L107.553 86.1351L107.651 85.6424L107.655 85.6246L107.743 85.1523L107.805 84.6567L107.806 84.6506L107.871 84.1611L107.873 84.1489L107.939 83.6199L107.94 83.6138L108 83.1645L108.03 82.6789L108.03 82.6758L108.063 82.1804L108.064 82.1741L108.097 81.6421L108.097 81.639L108.161 80.6858V78.7457L108.064 77.2979L108.064 77.2907L108.03 76.8261L108 76.3705L107.942 75.9319L107.94 75.918L107.843 75.2388L107.646 75.6314L107.468 76.0238L107.254 76.4161L107.053 76.8175L106.825 77.2361L106.598 77.614L106.364 77.982L106.163 78.3164L105.929 78.6844L105.711 79.0471L105.243 79.7161L105.023 80.083L104.756 80.4259L104.494 80.8008L104.201 81.1302L103.502 82.0286L103.236 82.3333L102.972 82.6299L102.964 82.6387L102.705 82.9351L102.437 83.2027L102.203 83.4702L101.865 83.8087L101.635 84.0097L101.401 84.2773L100.828 84.7786L100.594 85.0127L99.9785 85.5513L99.7511 85.7218L99.517 85.9559L98.5776 86.6604L98.3518 86.8016L98.2958 86.8496L98.286 86.9473L98.2526 87.2485ZM98.4281 82.9082L98.5364 82.8134L98.7706 82.5793L99.2679 82.1441L99.502 81.8766L99.8074 81.6094L100.004 81.4127L100.238 81.1451L100.506 80.8776L100.711 80.6433L100.974 80.3467L100.982 80.3379L101.18 80.1119L101.886 79.2043L102.128 78.9316L102.334 78.6377L102.535 78.3785L102.717 78.0766L103.185 77.4077L103.368 77.1017L103.603 76.7337L103.803 76.3993L104.037 76.0314L104.212 75.7405L104.385 75.4233L104.586 75.022L104.773 74.6786L104.929 74.3351L105.119 73.9552L105.297 73.5291L105.497 73.1612L105.626 72.8517L105.793 72.4169L106.128 71.6143L106.269 71.2471L106.393 70.845L106.543 70.3946L106.68 70.0382L106.47 69.3549L106.302 68.9201L106.175 68.5052L105.86 67.7503L105.693 67.3156L105.397 66.6047L105.196 66.2368L105.019 65.8107L104.853 65.4797L103.877 63.691L103.703 63.3999L103.469 63.0321L103.285 62.7261L102.635 61.7971L102.401 61.4961L102.167 61.1616L101.077 59.7605L100.84 59.5238L100.581 59.2273L100.573 59.2185L100.309 58.9219L100.137 58.7254L99.8699 58.4913L99.6027 58.1859L99.406 57.9893L99.1385 57.7552L98.9043 57.521L98.4281 57.1043V57.3847L98.3947 57.6522V57.9094L98.3612 58.2104V58.4884L98.3145 58.862L98.2811 59.0961L98.1807 59.8988L98.1138 60.3671L98.0676 60.7366L97.9971 60.9835L97.9302 61.4517L97.8633 61.6858L97.8419 61.8355L97.7916 62.1375L97.7247 62.3716L97.6913 62.5723L97.6244 62.8064L97.5855 63.0395L97.4517 63.4408L97.4183 63.6415L97.2768 64.0659L97.2434 64.2332L97.1096 64.6345L97.0674 64.8454L96.9657 65.0998L96.9424 65.1697L96.9002 65.3805L96.8333 65.5477L96.7999 65.7149L96.6584 66.0686L96.6537 66.0781L96.6326 66.1832L96.5524 66.3838L96.5189 66.5176L96.452 66.6848L96.4186 66.8186L96.3517 66.9858L96.2695 67.3146L96.2026 67.4484L96.1357 67.716L96.0688 67.8497L95.9277 68.4144L95.8942 68.5148L95.8608 68.6485L95.8528 68.6723V68.8396L95.786 69.0402V69.174L95.7525 69.2743V69.4081L95.7191 69.5084V69.7426L95.6856 69.8429V69.9331H95.6555L95.6333 70H95.6856V70.2495L95.7191 70.3833V70.584L95.7525 70.7177V70.7846L95.8194 71.0522V71.127L95.8273 71.1508L95.9197 71.5204V71.6207L95.9518 71.7489L96.0354 71.9162L96.1692 72.4513L96.2523 72.6176L96.3081 72.8963L96.3699 73.0199L96.4186 73.2148L96.4855 73.382L96.5189 73.5159L96.5992 73.7165L96.6314 73.8773L96.754 74.1226L96.7999 74.352L96.9427 74.7092L96.9762 74.9098L97.034 75.0543L97.0761 75.2651L97.0994 75.335L97.2103 75.6122L97.2511 75.8568L97.2666 75.9035L97.3775 76.1807L97.4183 76.4254L97.5577 76.8434L97.5911 77.0776L97.6524 77.2615L97.6913 77.4946L97.7582 77.7287L97.7916 77.9293L97.8633 78.1804L97.9302 78.6486L97.9971 78.8827L98.0804 79.4658L98.1011 79.6312L98.168 79.8654L98.2142 80.235L98.2476 80.4691L98.2943 80.8427V81.1103L98.3947 81.913V82.1806L98.4281 82.4481V82.9082ZM95.3845 70L95.1839 69.9331H92.6756V69.3544L92.709 69.2541V69.02L92.7425 68.9197V68.7859L92.7759 68.6855V68.6442L92.8428 68.3766V68.2762L92.9352 67.9067L92.9687 67.8063L93.0021 67.6726L93.0355 67.5723L93.2288 66.7991L93.2957 66.6653L93.3626 66.3978L93.4295 66.264L93.4811 66.0576L93.548 65.8904L93.5814 65.7566L93.6483 65.5894L93.6818 65.4556L93.7353 65.3219L93.7811 65.0925L93.9038 64.8472L93.9359 64.6864L94.0028 64.5192L94.0275 64.3956L94.138 64.064L94.17 63.9841L94.1948 63.8605L94.3285 63.4591L94.362 63.2919L94.4881 62.9137L94.5215 62.713L94.6553 62.3117L94.6833 62.1434L94.7502 61.9093L94.7837 61.7086L94.8505 61.4745L94.8671 61.3752L94.9126 61.0566L94.9795 60.8225L95.0464 60.3543L95.1096 60.1329L95.1303 59.9674L95.1972 59.4994L95.2975 58.6966L95.331 58.4622L95.3512 58.301V58.0437L95.3846 57.7427V57.4648L95.4181 57.1973V56.639L95.4515 56.338V55.6018L95.4181 55.3008V54.8099L94.7125 54.3689L94.4784 54.2351L94.2108 54.0679L94.0388 53.9696L93.5036 53.702L93.2695 53.5683L93.0788 53.4729L92.8063 53.3561L92.6025 53.2396L92.3349 53.1393L92.0705 52.9882L91.7133 52.8351L91.4457 52.7348L91.0333 52.558L90.7564 52.4789L90.5557 52.3786L90.3644 52.3239L90.1303 52.2236L89.9564 52.1739L89.6654 52.0769L89.4312 51.9766L89.321 51.9398L89.0869 51.8729L88.9672 51.833L88.7989 51.805L88.4514 51.7057L88.3318 51.6658L88.1311 51.6323L87.7297 51.4986L87.6216 51.4805L87.3387 51.424L87.138 51.3571L87.0865 51.3468L86.7493 51.2906L86.5821 51.2237L86.5179 51.213L85.1212 50.9336L84.9874 50.9002L84.8202 50.8668L84.6865 50.8333L84.5192 50.7999L84.2629 50.7358H84.0957L83.4585 50.5765L83.3582 50.5431L82.9568 50.4427L82.8565 50.4093L82.7227 50.3758L82.4661 50.2903L82.3323 50.2234L82.2879 50.2086L82.1542 50.1752L81.8078 50.0597L81.7074 49.9928L81.5068 49.9259L81.4064 49.859L81.3061 49.8256L81.2058 49.7587L81.1054 49.7253L80.9048 49.5915L80.6586 49.5094L80.4458 49.2967L80.1448 49.096L80.0779 49.0291L79.8773 48.8953L79.8104 48.8285L79.4833 48.6104L79.399 48.4839L79.175 48.2599L79.0746 48.193L78.7635 47.8819L78.6966 47.7816L78.2953 47.3802L78.2284 47.2799L78.0575 47.109L77.9572 46.9752L77.7565 46.7745L77.6562 46.6408L77.422 46.4066L77.2862 46.2255L77.1524 46.1252L76.9872 45.905L76.8535 45.7712L76.7532 45.6374L76.6194 45.5036L76.519 45.3699L76.1344 44.9852L76.0006 44.818L75.2489 44.0663L75.0162 43.8801L74.8824 43.7129L74.7807 43.6315L74.4462 43.2971L74.3324 43.206L74.0677 42.9854L73.9576 42.8753L73.7569 42.7415L73.5326 42.5172L73.4461 42.4451L73.2454 42.3113L72.8441 41.9769L72.6434 41.8431L72.4241 41.6603L72.2553 41.5398L72.0547 41.406L71.8628 41.2689L71.5798 41.1072L71.3204 40.8911L71.228 40.8251L70.9604 40.6913L70.6922 40.4997L70.4984 40.389L70.2663 40.2439L70.0254 40.1234L69.7292 39.9542L69.4971 39.8091L69.324 39.7226L69.0836 39.6158L68.7638 39.7757L68.4962 39.9429L68.2287 40.0767L67.9966 40.2218L67.7004 40.391L67.5011 40.4906L67.3011 40.6335L67.067 40.7673L66.5988 41.1017L66.3647 41.2355L66.2381 41.3259L65.9788 41.542L65.7447 41.6758L65.3833 41.9769L65.1827 42.1107L64.7813 42.4451L64.6378 42.5408L64.5276 42.6509L64.263 42.8715L64.0957 43.0053L63.8951 43.1725L63.7812 43.2636L63.4467 43.5981L63.345 43.6795L63.2112 43.8467L62.9785 44.0328L62.2268 44.7845L62.093 44.9518L61.7084 45.3364L61.6081 45.4702L61.3405 45.7377L61.2402 45.8715L61.1064 46.0053L61.0061 46.1391L60.7719 46.3732L60.6716 46.507L60.5713 46.6073L60.471 46.7411L60.3706 46.8414L60.2703 46.9752L59.9693 47.2762L59.8689 47.41L59.698 47.5809L59.5468 47.8077L59.3261 47.9548L59.1789 48.1756L58.9522 48.3268L58.6846 48.5943L58.5842 48.6612L58.417 48.8284L58.3167 48.8953L58.2498 48.9622L57.9488 49.1629L57.8819 49.2298L57.4899 49.4911L57.3895 49.5246L57.2786 49.5985L57.2117 49.632L56.9213 49.8256L56.7206 49.8925L56.6203 49.9594L56.3528 50.0486L56.2859 50.0931L55.8391 50.2421L55.7054 50.2755L55.6838 50.2827L55.5677 50.3601L55.2372 50.4427L55.1368 50.4762L54.4997 50.6355H54.3965L54.2433 50.6661L53.7082 50.7999L53.541 50.8333L53.4072 50.8668L53.24 50.9002L53.1062 50.9337L51.5423 51.2464L51.4781 51.2571L51.3109 51.324L50.9096 51.3909L50.7423 51.4578L50.4977 51.4986L50.297 51.5655L50.0963 51.5989L49.695 51.7327L49.4619 51.7715L49.3412 51.806L48.9399 51.9398L48.7058 52.0067L48.5051 52.0736L48.3313 52.1232L48.1273 52.2107L47.9266 52.2776L47.6624 52.3908L47.4283 52.4577L46.96 52.6584L46.7259 52.7253L46.4245 52.8544L46.1601 53.0055L45.8118 53.1361L45.6887 53.1889L45.4243 53.34L45.1567 53.4403L44.9914 53.5348L44.7238 53.6686L44.4897 53.8024L44.2487 53.9229L44.0166 54.0679L43.7205 54.2371L43.4795 54.3576L43.3119 54.4624L43.0778 54.6296L42.7766 54.8179L42.7759 54.8242V55.4345L42.7425 55.7355V56.4384L42.7759 56.7394V57.2976L42.8094 57.5652V57.8662L42.8763 58.4013V58.6688L42.8964 58.8304L42.9299 59.0644L42.9633 59.332L42.9968 59.5661L43.0175 59.7316L43.0807 59.9529L43.1306 60.3019L43.164 60.5694L43.181 60.6887L43.2431 60.906L43.2934 61.208L43.3148 61.3576L43.3769 61.5749L43.4103 61.7755L43.4448 61.8962L43.5387 62.1779L43.5721 62.3786L43.639 62.5792L43.6725 62.7799L43.8063 63.1813L43.8397 63.3819L43.8553 63.4286L43.9662 63.7058L43.9996 63.9065L44.0574 64.0509L44.0996 64.2618L44.1228 64.3316L44.2246 64.5861L44.2568 64.7469L44.3794 64.9921L44.4253 65.2215L44.4922 65.3887L44.5132 65.4938L44.5801 65.6276L44.6135 65.7948L44.6642 65.8961L44.7129 66.0911L44.7798 66.2583L44.8314 66.4647L44.8983 66.5984L45.0915 67.3715L45.125 67.4719L45.1919 67.7394L45.2253 67.8398L45.2588 67.9735L45.2922 68.0739L45.3846 68.4435V68.5183L45.4515 68.719V68.9531L45.485 69.0534V69.2875L45.5184 69.3879V70.679L45.485 70.7793V71.0135L45.4515 71.1138V71.1552L45.4181 71.289V71.3893L45.3257 71.7589L45.3177 71.7827V71.8575L45.2253 72.2271L45.1919 72.3275L45.0581 72.8626L44.9726 73.1192L44.9317 73.2009L44.8467 73.541L44.7798 73.7082L44.7311 73.9032L44.6804 74.0045L44.647 74.1717L44.5801 74.3055L44.5466 74.4727L44.4797 74.6065L44.4587 74.7116L44.3784 74.9123L44.345 75.0461L44.2246 75.347L44.1999 75.4707L44.133 75.6713L44.0908 75.8822L43.989 76.1366L43.9658 76.2064L43.9323 76.3737L43.8218 76.7052L43.7989 76.7624L43.7728 76.9191L43.639 77.3204L43.6056 77.5211L43.5443 77.7051L43.5108 77.9392L43.4439 78.1398L43.4105 78.3739L43.3436 78.5746L43.3148 78.7761L43.2479 79.0103L43.181 79.4785L43.1141 79.7126L43.0302 80.3L42.9633 80.8352L42.9299 81.0694L42.8428 81.7659V82.0335L42.799 82.3838L42.7759 82.5917V83.1706L42.7425 83.4382V84.4317L42.7759 84.7327V85.0671L42.7891 85.1858L42.9775 85.3035L43.2116 85.4707L43.3791 85.5755L43.6884 85.7301L43.9225 85.8973L44.3894 86.1308L44.6235 86.2646L44.891 86.3983L45.1252 86.5321L45.3158 86.6274L45.5884 86.7442L45.7922 86.8607L45.979 86.9308L47.3279 87.5089L47.562 87.5758L47.7962 87.6761L48.073 87.7552L48.2737 87.8555L48.6389 87.9599L48.8395 88.0268L49.0737 88.0936L49.578 88.2617L49.8121 88.2952L50.2301 88.4345L50.4748 88.4753L50.642 88.5422L51.0433 88.6091L51.2106 88.676L51.2747 88.6867L51.4419 88.7201L51.7791 88.7763L51.9691 88.8523L53.0393 89.0664L53.1732 89.0998L53.3403 89.1332L53.4741 89.1667L53.6273 89.1973H53.7276L54.0761 89.267L54.8358 89.4569L54.9362 89.4904L55.2037 89.5573L55.304 89.5907L55.4378 89.6242L55.5382 89.6576L55.6719 89.6911L55.9286 89.7766L56.0623 89.8435L56.4531 89.9737L56.5534 90.0406L56.7541 90.1075L56.8544 90.1744L56.9548 90.2079L57.1554 90.3416L57.2558 90.3751L57.4564 90.5089L57.7026 90.5909L57.9154 90.8037L58.116 90.9374L58.1829 91.0043L58.3836 91.1381L58.5508 91.3053L58.6511 91.3722L58.9187 91.6398L59.1455 91.791L59.2525 91.9515L59.2866 91.9742L59.5977 92.2853L59.6646 92.3856L60.0362 92.7572L60.1365 92.891L60.3372 93.0917L60.4375 93.2255L60.5378 93.3258L60.6382 93.4596L60.7385 93.5599L60.8388 93.6937L60.9726 93.8275L61.073 93.9613L61.3071 94.1954L61.4074 94.3291L61.8087 94.7305L61.9592 94.9311L62.0261 95.0148L62.1758 95.1645L62.4086 95.3506L62.5947 95.5834L62.9116 95.9003L63.1443 96.0864L63.3305 96.3191L63.3798 96.3685L63.5471 96.5023L63.7143 96.6695L63.8282 96.7606L64.0929 96.9812L64.2494 97.1377L64.3633 97.2288L64.7644 97.5631L64.9319 97.6971L65.243 97.9563L65.4771 98.0901L65.8784 98.4246L66.1126 98.5583L66.3719 98.7745L66.4984 98.8648L66.7325 98.9986L66.9667 99.1658L67.2008 99.2996L67.4008 99.4425L67.6683 99.5763L67.9024 99.7435L68.3959 99.9902L68.6635 100.157L69.1117 100.382L69.3633 100.224L69.8984 99.9568L70.166 99.7895L70.3919 99.6766L70.5919 99.5337L70.8663 99.3769L71.1339 99.2097L71.3277 99.0989L71.5195 98.9619L71.7203 98.828L72.1885 98.4937L72.3892 98.3598L72.5578 98.2394L72.7772 98.0566L72.9779 97.9227L73.3792 97.5883L73.5228 97.4926L73.6329 97.3825L73.8976 97.1619L74.0115 97.0708L74.2251 96.8572L74.4258 96.7234L74.7138 96.4354L74.8155 96.354L74.9493 96.1868L75.182 96.0006L75.7999 95.3827L75.9337 95.2155L76.5859 94.5633L76.6863 94.4295L76.82 94.2957L76.9204 94.1619L77.0541 94.0282L77.1545 93.8944L77.3886 93.6603L77.5893 93.3927L78.024 92.9579L78.0351 92.9432L78.1615 92.7535L78.6632 92.2519L78.8144 92.0251L78.9749 91.9181L79.082 91.7575L79.3087 91.6063L79.5763 91.3388L79.6766 91.2719L79.7435 91.205L79.8439 91.1381L79.9442 91.0378L80.0445 90.9709L80.1114 90.904L80.5034 90.6427L80.5369 90.6315L80.8713 90.4085L80.9717 90.3751L81.1723 90.2413L81.2726 90.2079L81.373 90.141L81.5737 90.0741L81.674 90.0072L81.8747 89.9403L82.0242 89.8406L82.3548 89.758L82.5555 89.6911L82.6893 89.6576L82.7896 89.6242L83.0571 89.5573L83.1575 89.5238L84.4523 89.2001L84.6195 89.1667L84.7533 89.1332L84.9205 89.0998L85.0543 89.0663L85.4028 88.9967H85.57L85.6228 88.9861L85.7901 88.9192L86.6183 88.7536L86.819 88.7201L86.8705 88.7098L87.0711 88.6429L87.354 88.5863L87.4622 88.5683L87.6629 88.5014L87.8635 88.468L88.2649 88.3342L88.4655 88.3008L88.7859 88.194L89.02 88.1271L89.4213 87.9933L89.8895 87.8595L89.9998 87.8228L90.2641 87.7095L90.4982 87.6426L90.7323 87.5423L90.9664 87.4754L92.2428 86.9284L92.5103 86.7946L92.706 86.7108L92.9704 86.5597L93.2379 86.4594L93.4033 86.3649L93.6709 86.2311L93.8429 86.1328L94.1459 85.9434L94.3718 85.8304L94.6059 85.6632L94.9151 85.5086L95.0827 85.4039L95.3168 85.2366L95.4112 85.1777L95.4181 85.1089V84.4986L95.4515 84.1976V83.4947L95.4181 83.1937V82.6355L95.3846 82.3679V82.1004L95.2843 81.2977V81.0301L95.2641 80.8686L95.2307 80.6345L95.21 80.4691L95.1431 80.235L95.0969 79.8654L95.0464 79.5119L94.9795 79.2778L94.9126 78.8096L94.8505 78.5924L94.8171 78.3917L94.7502 78.1576L94.7222 77.9893L94.6497 77.7719L94.6163 77.5378L94.4881 77.1532L94.4619 76.9965L94.439 76.9393L94.3208 76.5846L94.2947 76.428L94.2718 76.3707L94.1613 76.0392L94.1366 75.9156L94.0606 75.7256L94.0272 75.5249L93.9025 75.2133L93.8815 75.1082L93.8767 75.0987L93.7353 74.745L93.7018 74.5778L93.6483 74.444L93.6149 74.3103L93.548 74.143L93.5298 74.0704L93.4629 73.9367L93.3807 73.6079L93.3798 73.6032L93.3291 73.5019L93.1954 72.9667L93.1545 72.8851L93.069 72.6285L93.0021 72.3609L92.9097 72.0837V71.9165L92.9018 71.8927L92.8094 71.5231V71.4482L92.7425 71.2476V71.0883L92.709 70.9545V70.7538L92.6756 70.6201V70H95.3845ZM39.7659 82.9207V82.425L39.8097 82.0309L39.8328 81.8461V81.5785L39.9464 80.6698L39.9798 80.4357L40.0467 79.9006L40.1634 79.0834L40.2303 78.8493L40.2972 78.381L40.3641 78.1469L40.4022 77.8802L40.4691 77.6796L40.5025 77.4455L40.5694 77.2448L40.6029 77.0107L40.6753 76.7933L40.7088 76.5926L40.8426 76.1913L40.8833 75.9466L40.9942 75.6694L41.0175 75.5996L41.0509 75.4324L41.1615 75.1008L41.1934 75.0209L41.2182 74.8973L41.2851 74.6966L41.3272 74.4857L41.4744 74.1178L41.5078 73.984L41.5613 73.8503L41.6072 73.6209L41.6741 73.4871L41.7076 73.3199L41.7744 73.1861L41.8079 73.0189L41.891 72.8526L41.9092 72.78L41.9761 72.6128L42.0917 72.1503L42.1753 71.9831L42.2998 71.4853L42.3077 71.4614V71.3866L42.4001 71.017L42.408 70.9932V70.9184L42.4415 70.7846V70.6253L42.4749 70.525V70.2909L42.5084 70.1906V69.8763L42.4749 69.776V69.5419L42.4415 69.4416V69.1819L42.3746 68.9144V68.8395L42.3666 68.8157L42.3332 68.682L42.2998 68.5816L42.2329 68.3141L42.1994 68.2137L42.0583 67.649L41.9914 67.5153L41.9092 67.1865L41.8423 67.0193L41.8241 66.9467L41.741 66.7804L41.7076 66.6132L41.6407 66.4794L41.5948 66.25L41.5279 66.0828L41.5069 65.9778L41.5021 65.9683L41.3607 65.6146L41.3272 65.4474L41.2952 65.3674L41.1847 65.0359L41.16 64.9123L41.084 64.7223L41.0506 64.5216L41.0277 64.4644L40.9095 64.1097L40.876 63.9091L40.7422 63.5077L40.7088 63.3071L40.6419 63.1064L40.6085 62.9057L40.5686 62.786L40.4693 62.4385L40.4358 62.2379L40.3641 61.9869L40.3186 61.6683L40.302 61.569L40.2303 61.318L40.1805 60.969L40.147 60.7014L40.13 60.5822L40.0595 60.3353L40.0133 59.9656L39.9798 59.7315L39.9464 59.464L39.9129 59.2299L39.8662 58.8562V58.5887L39.7993 58.0536V57.7526L39.7659 57.485V57.0783L39.6241 57.22L39.1268 57.6552L38.8927 57.9228L38.5873 58.1899L38.3906 58.3866L38.1565 58.6542L37.8889 58.9218L37.6548 59.1893L37.4181 59.426L37.2148 59.6874L36.9482 59.9921L36.7095 60.2606L36.0608 61.0947L35.8266 61.4292L35.5925 61.7302L35.4105 61.9903L35.2098 62.3247L34.7593 62.9683L34.5587 63.3361L34.3245 63.6706L33.3743 65.4128L33.1981 65.7652L33.0308 66.1331L32.8409 66.513L32.1999 68.0513L32.0524 68.4348L31.9186 68.8361L31.7577 69.2546L31.5206 70.0251L31.6847 70.5583L31.8519 70.9597L31.9918 71.4143L32.133 71.7814L32.774 73.3198L32.9747 73.7211L33.1315 74.0976L33.3074 74.42L33.5325 74.8703L33.6676 75.1674L33.8722 75.489L34.0824 75.8742L34.283 76.2087L34.4742 76.5592L34.6917 76.901L34.8754 77.207L35.1095 77.5415L35.3101 77.8759L35.4922 78.136L35.7263 78.437L35.9604 78.7715L36.6092 79.6056L36.8767 79.9066L37.1144 80.2122L37.3122 80.4383L37.3199 80.4471L37.5836 80.7436L37.7886 80.9779L38.0562 81.2455L38.2903 81.513L38.487 81.7097L38.7923 81.9769L39.0265 82.2445L39.5238 82.6796L39.7579 82.9137L39.7659 82.9207ZM30.3361 64.7874L30.4809 64.4689L30.706 64.0186L31.7624 62.0819L31.9965 61.7475L32.1972 61.3796L32.6832 60.6853L32.8838 60.3509L33.17 59.942L33.4041 59.641L33.6383 59.3066L34.3942 58.3347L34.6907 58.0011L34.8922 57.7708L35.1572 57.4301L35.4556 57.1317L35.6897 56.8642L35.9572 56.5966L36.1913 56.3291L36.5298 55.9907L36.7595 55.7896L36.9936 55.5221L37.5665 55.0208L37.8409 54.7465L38.1486 54.5156L38.4162 54.2815L38.9111 53.9103L39.1452 53.6762L39.5495 53.373L39.817 53.2058L39.8936 53.1483L39.908 53.0193L39.9813 52.2854L40.0482 51.9509L40.0817 51.6165L40.5076 49.4868L40.6266 49.0506L40.712 48.7658L40.7752 48.45L40.8941 48.0138L41.0123 47.6199L41.1461 47.252L41.2464 46.9175L41.5369 46.1187L41.6707 45.7843L41.9501 45.0159L42.1272 44.6262L42.261 44.2918L42.8125 43.0784L43.0132 42.744L43.1676 42.4043L43.8106 41.2254L44.0374 40.8475L44.489 40.1378L44.7056 39.7408L44.9956 39.3265L45.1946 39.0528L44.8811 39.1872L44.4463 39.3544L44.0659 39.5174L43.6493 39.7417L43.1939 39.952L42.7256 40.1861L42.3115 40.3772L41.9558 40.5687L41.521 40.8363L41.0647 41.082L40.6341 41.328L39.8087 41.836L39.4411 42.081L38.1711 42.9603L37.7698 43.2613L37.3667 43.5403L36.9944 43.8506L36.5596 44.185L35.8068 44.8124L34.6531 45.8699L34.2852 46.2378L33.908 46.5836L33.1944 47.3622L32.793 47.7635L32.4712 48.1145L32.1559 48.4929L32.0607 48.6055L32.026 48.7165L31.8203 49.2649L31.6664 49.7267L31.5164 50.2066L31.3792 50.7555L31.2119 51.2572L31.1031 51.6927L31.0006 52.2394L30.8668 52.7411L30.7686 53.2646L30.6445 53.7611L30.5836 54.2182L30.4742 54.8013L30.3829 55.258L30.2613 56.2305L30.2279 56.7321L30.161 57.2673L30.1308 57.7193L30.1304 57.7255L30.0972 58.2575L30.0334 59.214V61.1539L30.13 62.6018L30.1304 62.6089L30.1637 63.0736L30.194 63.5293L30.2604 64.0274L30.2934 64.4886L30.3361 64.7874ZM49.2313 38.6743L48.9895 39.0068L48.4544 39.6757L47.9476 40.3725L47.7135 40.707L47.4459 41.0749L47.2677 41.3295L47.0829 41.6682L46.5981 42.4301L46.4235 42.721L45.8625 43.7496L45.6825 44.1456L45.4818 44.4801L45.03 45.4741L44.8962 45.8086L44.7388 46.1547L44.4832 46.8578L44.3494 47.1923L44.1047 47.8651L44.0044 48.1995L43.8706 48.5674L43.7881 48.8424L43.7064 49.142L43.6358 49.4951L43.5206 49.8792L43.4389 50.1787L43.2679 51.0337L43.303 51.0137L43.5705 50.8799L43.8734 50.7069L44.1409 50.6065L44.3448 50.49L44.6899 50.3421L44.8767 50.2721L45.0805 50.1556L45.7156 49.8834L45.9497 49.8166L46.4179 49.6159L46.652 49.549L46.856 49.4616L47.0567 49.3947L47.3209 49.2814L47.6153 49.1973L47.816 49.1304L48.0501 49.0636L48.4514 48.9298L48.7989 48.8305L48.9672 48.8024L49.3685 48.6687L49.5692 48.6352L49.7699 48.5683L49.9265 48.5422L50.0938 48.4753L50.4951 48.4084L50.6623 48.3415L50.9995 48.2853L52.4456 47.9961L52.5794 47.9627L52.7466 47.9292L52.8804 47.8958L53.0477 47.8623L53.5828 47.7286L53.6932 47.7065L53.9364 47.6254H54.1291L54.2946 47.584L54.3162 47.5769L54.4323 47.4995L54.7628 47.4168L54.8632 47.3834L54.9607 47.359L55.1011 47.2654L55.3152 47.2118L55.3864 47.1644L55.587 47.0975L55.698 47.0235L55.7649 46.9901L56.0553 46.7965L56.0887 46.7853L56.3321 46.6231L56.399 46.5562L56.4993 46.4893L56.6666 46.322L56.7669 46.2552L57.5893 45.4328L57.6896 45.299L57.9906 44.998L58.0909 44.8643L58.1913 44.7639L58.2916 44.6301L58.3919 44.5298L58.4923 44.396L58.7264 44.1619L58.8267 44.0281L58.9605 43.8944L59.0608 43.7606L59.3284 43.493L59.4287 43.3592L59.8468 42.9412L59.9805 42.774L60.968 41.7866L61.0697 41.7052L61.2035 41.5379L61.4362 41.3518L61.7707 41.0173L61.9912 40.8409L62.1919 40.6736L62.3591 40.5399L62.4958 40.426L62.7201 40.2017L62.9779 40.0298L63.3792 39.6954L63.5799 39.5616L64.0212 39.1938L64.2553 39.06L64.3973 38.9417L64.739 38.6976L64.9731 38.5638L65.4414 38.2294L65.5783 38.1511L65.5568 38.1447L65.2224 38.0109L64.3014 37.7346L64.0018 37.6529L63.6674 37.586L63.2995 37.4857L62.965 37.4188L62.6099 37.3219L61.5812 37.1349L61.1798 37.068L60.8727 37.0122L60.4713 36.9787L60.1034 36.9118L58.2317 36.7559H57.429L57.0277 36.7224H56.312L55.8772 36.7559H55.4472L55.1035 36.7845L53.4165 36.9143L51.7259 37.1744L51.3129 37.2334L50.4941 37.4223L50.3013 37.4636L50.1056 37.7029L49.2313 38.6743ZM54.2321 33.8326L54.8583 33.7845L54.8679 33.7837L55.322 33.7458H55.7616L56.1964 33.7124H57.1529L57.5542 33.7458H58.3569L60.4986 33.9243L60.8665 33.9912L61.2678 34.0246L61.6965 34.1026L62.0978 34.1695L63.2764 34.3837L63.657 34.4876L63.9915 34.5544L64.3594 34.6548L64.6938 34.7217L65.13 34.8406L66.2158 35.1664L66.5502 35.3001L66.8423 35.3877L67.2069 35.5093L67.5413 35.6431L67.8693 35.7524L69.0926 36.2961L69.3575 36.1637L69.7157 36.0045L70.1176 35.8437L70.3916 35.7524L70.7135 35.6093L71.0479 35.509L71.349 35.3752L73.1309 34.8406L73.4987 34.7403L73.8956 34.6213L74.2822 34.551L74.65 34.4506L75.0689 34.3745L75.3553 34.3172L75.7695 34.2136L76.2517 34.126L76.6196 34.0925L76.9323 34.0357L77.4055 33.9568L77.8571 33.9192L77.8683 33.9182L78.2306 33.8853L79.904 33.7458H80.3101L80.7449 33.7124H81.6632L82.0979 33.7458H82.9341L83.9262 33.8221L83.6869 33.6264L82.9431 33.0685L82.1404 32.5334L81.761 32.2489L81.3618 32.0032L80.9967 31.7598L80.586 31.5386L80.1351 31.2611L79.7045 31.0151L79.3066 30.8008L78.8383 30.5667L78.4035 30.3326L77.9953 30.1285L77.527 29.9278L77.0752 29.7019L76.6147 29.5176L76.1464 29.317L75.6448 29.1163L75.1765 28.9157L74.7329 28.7382L73.785 28.4222L73.2499 28.255L72.7785 28.0979L72.3326 27.979L71.7666 27.8375L71.2744 27.6837L70.7822 27.5914L70.2471 27.4576L69.712 27.3573L69.1768 27.2235L69.175 27.2231L68.7644 27.3001L68.1959 27.4005L67.7243 27.4889L67.2661 27.6111L66.2267 27.8709L65.7028 28.0346L65.2149 28.1648L64.7434 28.3219L64.2083 28.4891L63.762 28.6379L63.2752 28.8326L62.807 28.9998L61.8469 29.3839L61.4362 29.5599L60.968 29.794L60.4997 29.9947L59.155 30.667L58.7202 30.9011L58.2909 31.1158L57.4626 31.6255L57.0613 31.8596L56.6762 32.0966L56.2639 32.3821L55.485 32.9013L54.7069 33.4849L54.339 33.7525L54.2321 33.8326ZM77.5132 26.6279L77.7666 26.7365L78.3094 26.9536L78.794 27.196L79.2623 27.3966L79.7904 27.6607L80.2252 27.8948L80.6935 28.129L81.165 28.3829L81.6709 28.672L82.0896 28.9296L82.5485 29.1767L82.986 29.4684L83.4564 29.7578L83.8796 30.0753L84.6823 30.6104L85.5438 31.2565L85.9117 31.5575L86.3131 31.8585L87.4994 32.8292L87.8338 33.1636L88.2018 33.4647L89.2862 34.5491L89.4597 34.7419L89.8559 34.8333L90.2794 34.9636L90.7476 35.0639L91.2773 35.2269L91.7455 35.3941L92.1803 35.5279L92.6972 35.7125L93.132 35.8798L93.6002 36.047L94.0785 36.2309L94.5918 36.4509L95.4614 36.8522L95.9296 37.0529L96.4253 37.2817L96.8808 37.5269L97.349 37.7611L98.2769 38.2607L98.7116 38.5282L99.1464 38.7624L99.6527 39.0739L100.088 39.375L100.522 39.6425L101.449 40.2839L101.85 40.5849L102.285 40.8859L102.425 40.9906L102.286 40.759L101.972 40.3199L101.637 39.8182L100.668 38.4613L100.339 38.0417L99.9706 37.6068L99.6228 37.1642L99.2214 36.7294L98.8535 36.2612L97.7309 35.045L97.2961 34.6437L96.8948 34.2089L96.0898 33.4658L95.6216 33.0645L95.1868 32.6631L94.764 32.3007L94.2958 31.9328L93.8275 31.5315L92.9625 30.8518L92.4816 30.5312L92.0777 30.235L91.719 30.0662L91.2178 29.847L90.0807 29.3787L89.581 29.1601L87.3964 28.3891L86.3086 28.0691L85.7465 27.913L85.1669 27.7766L84.5983 27.6094L84.1183 27.4964L83.5163 27.3961L82.9408 27.2607L82.4282 27.1702L82.414 27.1677L81.8618 27.0758L81.2861 27.008L80.7224 26.9086L80.1634 26.8464L79.6337 26.7841L79.0699 26.751L78.4679 26.6841L77.5132 26.6279ZM75.8955 23.5786L75.0147 23.4318L74.3793 23.3649L73.7773 23.2646L73.2261 23.2066L72.5863 23.1729L71.9843 23.106L70.757 23.0414L70.7526 23.0412L70.1923 23.01H68.4008L67.7653 23.0435H67.1321L66.6089 23.0725L65.9713 23.1397L65.3401 23.1729L64.7773 23.2354L64.1826 23.298L63.5806 23.3984L62.9451 23.4652L62.4193 23.5529L62.2972 23.5786H62.8536L63.4222 23.612H63.9907L65.7898 23.7179L66.3631 23.7896L66.374 23.7909L67.5057 23.924L68.0838 23.9963L68.6524 24.0966L69.1709 24.1614L69.8735 24.0297L71.0508 23.8912L71.0616 23.8899L71.5913 23.8237L72.2089 23.751L72.7775 23.7176L73.39 23.6455H73.9691L75.1063 23.5786H75.8955ZM48.9654 29.0318L48.3969 29.2659L47.8283 29.4666L47.3106 29.6797L46.8094 29.899L46.2758 30.1501L46.108 30.234L46.0134 30.2971L45.559 30.6303L45.0643 31.019L44.5894 31.3356L44.1658 31.6987L43.6975 32.0666L43.2501 32.4502L42.8189 32.8149L42.3717 33.1982L41.9794 33.5604L41.5446 33.9952L41.1319 34.3761L40.7306 34.8109L40.2958 35.2122L39.556 36.0137L39.206 36.4273L38.8047 36.8955L38.4575 37.3058L37.392 38.662L36.1091 40.458L35.8271 40.9281L35.8071 40.9591L36.0095 40.819L36.4108 40.518L37.7495 39.5912L38.1846 39.3011L39.0983 38.7389L39.6042 38.4498L40.0175 38.2272L40.4522 37.9597L40.9661 37.683L41.4215 37.4728L41.8898 37.2387L42.3038 37.0476L42.7569 36.8036L43.3128 36.5654L43.7476 36.3981L44.2158 36.1975L44.6941 36.0135L45.1623 35.8463L45.5971 35.6791L46.114 35.4945L47.0301 35.2126L47.4983 35.0788L47.9331 34.945L48.4532 34.7964L48.7226 34.7343L49.4962 33.9606L49.8934 33.5996L50.2012 33.3225L50.5608 32.963L50.9564 32.6392L51.3243 32.3048L52.115 31.6579L52.5507 31.3312L52.9185 31.0636L53.7458 30.4432L54.5722 29.8922L55.0295 29.5756L55.514 29.2775L55.9153 29.0434L56.8262 28.4828L57.3333 28.2293L57.7681 27.9952L59.2327 27.2629L59.7009 27.0622L60.1692 26.8281L60.576 26.6537L60.5434 26.6555H60.0213L59.4943 26.7175L58.8923 26.751L57.2686 26.942L56.6666 27.0423L56.1052 27.1084L55.6119 27.1954L55.0099 27.3292L54.4505 27.4279L53.9142 27.5541L53.3122 27.6879L52.793 27.81L50.5969 28.456L48.9654 29.0318ZM105.877 40.8865L106.026 41.1646L106.327 41.6663L106.899 42.7385L107.133 43.2402L107.4 43.7419L107.659 44.2965L107.91 44.8703L108.104 45.3551L108.345 45.8715L108.561 46.4461L108.777 46.9869L108.812 47.0991L109.165 47.5161L109.871 48.4346L110.206 48.9029L110.54 49.3376L110.912 49.8575L111.213 50.3258L111.561 50.8129L111.881 51.3463L112.182 51.8144L112.503 52.3498L112.676 52.652L112.502 52.1304L112.061 51.0605L111.794 50.4585L111.566 49.9049L111.321 49.3863L111.07 48.8827L110.76 48.2983L110.501 47.7471L110.244 47.29L109.899 46.7385L109.582 46.1391L109.307 45.6511L109.003 45.1644L108.693 44.6988L108.681 44.681L108.319 44.1548L107.991 43.662L107.979 43.6442L107.636 43.1458L106.947 42.207L106.546 41.7388L106.178 41.2371L105.877 40.8865ZM113.804 63.1564L113.309 61.4739L113.154 60.9766L112.766 59.8795L112.585 59.3956L112.36 58.8825L112.111 58.2766L111.937 57.8117L111.688 57.3457L111.446 56.7925L111.187 56.2736L110.961 55.7899L110.885 55.6474L110.89 55.6874L110.891 55.6996L110.964 56.2414L110.997 56.7766L111.064 57.2782L111.1 57.8597L111.101 57.866L111.137 58.4114V58.9162L111.171 59.4514V61.0534L111.137 61.5552V62.0568L111.063 63.1667L110.996 63.6349L110.963 64.1366L110.89 64.6471L110.888 64.661L110.822 65.1557L110.689 66.0852L110.687 66.0991L110.614 66.6455L110.499 67.1831L110.399 67.6178L110.087 69.0754L109.819 69.9449L109.811 69.9803L110.02 70.6571L110.232 71.6466L110.332 72.0811L110.646 73.5483L110.722 74.075L110.788 74.5698L110.789 74.5837L110.922 75.5132L110.997 76.0711L111.033 76.6152L111.033 76.6223L111.067 77.087L111.171 78.6455V80.7859L111.1 81.8392L111.067 82.3713L111.067 82.3744L111.034 82.8698L111.033 82.876L110.997 83.4576L110.925 83.9994L110.923 84.0116L110.878 84.373L111.095 83.9091L111.354 83.4236L111.58 82.9066L111.847 82.3714L112.05 81.9087L112.25 81.3736L112.479 80.852L112.666 80.3214L112.867 79.7862L113.067 79.2177L113.254 78.7201L113.737 77.0778L113.893 76.5159L114.029 75.9361L114.183 75.4153L114.276 74.8541L114.417 74.2555L114.421 74.2372L114.542 73.6926L114.637 73.1234L114.73 72.5953L114.796 72.0004L114.897 71.3984L114.954 70.8784L114.988 70.2764L115.022 69.9666L114.826 68.2026L114.825 68.193L114.764 67.67L114.477 65.9485L114.352 65.4192L114.221 64.8263L114.216 64.8081L113.96 63.7183L113.804 63.1564ZM112.614 87.4713L112.349 87.8844L112.048 88.3862L111.747 88.8544L111.446 89.3562L111.098 89.8974L110.741 90.3613L110.072 91.2978L109.031 92.6511L108.772 92.9577L108.661 93.2528L108.46 93.7543L108.26 94.2896L108.044 94.8287L107.793 95.4025L107.3 96.4588L106.765 97.4621L106.515 97.9983L106.193 98.5344L105.925 99.0361L105.871 99.1261L106.031 98.9396L106.409 98.4682L106.417 98.4578L106.761 98.0196L107.836 96.5533L108.179 96.0548L108.191 96.037L108.52 95.5442L108.875 95.0275L109.174 94.5495L109.475 94.0144L109.809 93.4792L110.083 92.9913L110.385 92.4227L110.668 91.9185L111.188 90.8145L111.455 90.2792L111.708 89.7419L111.961 89.1737L112.401 88.1037L112.602 87.5017L112.614 87.4713ZM97.5433 105.144L99.0876 103.471L99.4555 103.003L99.8569 102.568L100.167 102.174L100.517 101.684L100.885 101.249L101.169 100.851L101.504 100.349L102.152 99.4417L102.413 99.0062L102.149 99.2259L101.248 99.8499L100.814 100.175L100.355 100.458L99.9203 100.759L98.9792 101.338L98.5444 101.572L98.0902 101.852L97.5831 102.105L96.6928 102.585L96.2373 102.795L95.7691 103.029L95.2942 103.248L94.7808 103.468L94.3654 103.628L93.9141 103.836L93.3996 104.02L92.9648 104.187L92.4965 104.354L92.0163 104.539L91.4984 104.687L91.0635 104.821L90.5953 104.955L90.1235 105.1L89.6738 105.204L89.436 105.272L89.4269 105.28L89.1524 105.585L88.4024 106.335L88.0345 106.636L87.7001 106.97L87.3045 107.294L86.9366 107.628L85.7779 108.576L85.3177 108.921L84.943 109.171L84.5538 109.49L84.0919 109.774L83.7124 110.059L83.2535 110.364L81.8889 111.204L81.4542 111.438L80.9999 111.718L80.4927 111.971L80.058 112.206L79.0616 112.704L78.5933 112.904L78.1251 113.138L77.6279 113.352L78.2753 113.313L78.2777 113.313L78.8797 113.28L79.3997 113.249L79.9245 113.188L79.9293 113.187L80.4883 113.125L81.052 113.025L81.6277 112.958L82.1799 112.866L82.1941 112.863L83.2844 112.671L83.8359 112.548L83.8541 112.544L85.5122 112.154L86.075 111.998L87.1622 111.678L87.7309 111.477L88.2994 111.31L89.3623 110.935L89.8799 110.722L90.4151 110.488L91.5166 110.034L92.037 109.774L92.1456 109.726L92.281 109.636L92.7354 109.303L93.2035 108.935L93.7052 108.567L94.575 107.884L94.9861 107.504L95.4545 107.103L95.8892 106.701L96.3346 106.32L96.7163 105.938L97.1511 105.537L97.5433 105.144ZM75.8621 116.421H75.4766L74.8746 116.388H74.3008L73.7243 116.352L73.7188 116.352L72.5434 116.282L71.9749 116.216L71.4008 116.182L70.7791 116.104L70.2106 116.004L69.6754 115.937L69.1249 115.84L68.9534 115.87L68.4182 115.937L67.8497 116.037L67.2716 116.109L66.7084 116.176L66.6976 116.177L66.1243 116.249L63.7566 116.388H63.1881L62.6195 116.421H62.4146L62.7494 116.474L63.3451 116.574L63.3578 116.576L63.9465 116.669L64.5054 116.731L64.514 116.732L65.1452 116.798L65.7081 116.861L66.9353 116.925L66.9397 116.925L67.5373 116.959L68.1332 116.99H69.927L71.154 116.925L71.1584 116.925L71.756 116.892L71.7604 116.892L72.3521 116.861L72.915 116.798L74.1816 116.665L74.1903 116.664L74.7492 116.602L75.3379 116.509L75.3506 116.507L75.8621 116.421ZM53.0872 112.247L53.6801 112.379L54.7849 112.639L55.2976 112.73L55.3117 112.732L55.9067 112.831L57.0034 113.025L57.5575 113.086L57.5623 113.087L58.6946 113.22L58.7043 113.221L59.2577 113.282L60.351 113.347L60.5981 113.361L60.4889 113.314L59.9871 113.08L59.5003 112.871L58.0356 112.139L57.6009 111.905L57.1326 111.67L56.6395 111.405L55.2749 110.565L54.8735 110.298L54.4388 110.03L53.9799 109.724L53.5786 109.423L53.1772 109.155L52.7171 108.81L51.9812 108.208L51.5799 107.907L51.1293 107.539L50.7949 107.204L50.4577 106.928L50.0941 106.601L49.6969 106.24L48.9747 105.518L48.7603 105.28L48.7586 105.279L48.7208 105.27L48.2527 105.137L47.8178 105.036L47.2977 104.888L46.8163 104.74L46.3481 104.572L45.8959 104.433L45.4298 104.254L44.9616 104.087L44.5268 103.92L44.0124 103.736L43.5353 103.516L43.067 103.315L42.1573 102.895L41.6891 102.661L41.2336 102.451L40.7781 102.206L40.271 101.952L39.8168 101.672L39.382 101.438L38.0061 100.592L37.5713 100.291L37.1122 100.008L36.6783 99.6827L36.2119 99.3597L35.8105 99.0253L35.768 98.9959L35.9753 99.3414L36.6234 100.249L36.9578 100.75L37.2582 101.171L37.6096 101.618L37.9393 102.047L38.6381 102.936L39.0209 103.351L39.4036 103.803L39.4098 103.81L39.7673 104.228L40.5838 105.044L40.9647 105.457L41.3774 105.838L41.8122 106.272L42.6393 107.036L43.0622 107.398L43.5521 107.783L43.9685 108.168L44.4219 108.5L45.3584 109.236L45.8127 109.569L46.1081 109.766L46.577 110.001L47.1099 110.22L47.6448 110.454L48.1628 110.667L48.7313 110.868L49.3 111.102L49.7942 111.276L50.3628 111.444L50.9313 111.644L52.5588 112.123L53.069 112.243L53.0872 112.247ZM32.2557 99.0258L32.2016 98.9357L31.0946 96.8601L30.6017 95.8039L30.3676 95.2688L30.1233 94.7453L29.9159 94.2267L29.664 93.6511L29.484 93.1111L29.4162 92.9303L29.3301 92.8183L28.9622 92.3835L28.2557 91.465L27.9213 90.9968L27.5868 90.562L27.2155 90.0421L26.9145 89.574L26.58 89.1057L26.2465 88.5869L25.914 88.0327L25.6574 87.5516L25.4867 87.286L25.5251 87.4013L25.7451 87.9357L25.9793 88.5377L26.4277 89.6268L27.1914 91.2495L27.4924 91.7847L27.7599 92.3532L28.0435 92.8575L28.3283 93.3953L28.6525 93.9141L28.9536 94.4492L29.24 94.9075L29.6079 95.4092L29.9602 95.9729L30.2764 96.4472L30.6252 96.9546L30.9608 97.4123L31.3466 97.8944L31.7103 98.3575L31.7185 98.3678L32.0958 98.8393L32.2557 99.0258ZM107.839 64.7531L107.839 64.7509L107.841 64.737L107.907 64.2423L107.967 63.8233L108 63.3216L108.067 62.8533L108.127 61.9566V61.4549L108.161 60.9532V59.5453L108.127 59.0102V58.5116L108.097 58.06L108.097 58.0569L108.066 57.5713L108 57.0696L107.966 56.5345L107.905 56.0791L107.778 55.0573L107.686 54.6007L107.487 53.5393L107.484 53.5215L107.385 53.0287L107.292 52.5287L107.172 52.0492L107.038 51.547L106.912 51.0428L106.748 50.5189L106.614 50.0172L106.461 49.5259L106.307 49.0642L106.124 48.5757L105.793 48.1856L105.1 47.429L104.331 46.6598L103.985 46.2826L102.855 45.2472L102.454 44.9127L102.053 44.5448L101.3 43.9175L100.896 43.6065L100.524 43.3281L100.09 43.0272L99.6884 42.7262L98.8756 42.1635L98.4409 41.896L98.0061 41.595L97.6429 41.3714L97.2081 41.1373L96.7733 40.8698L95.9621 40.4329L95.4938 40.1988L95.0797 39.9758L94.7059 39.8033L94.2376 39.6026L93.3681 39.2013L92.9849 39.037L93.0981 39.1927L93.359 39.5654L93.8556 40.3458L94.0563 40.6802L94.307 41.0743L94.9462 42.246L95.1133 42.5804L95.3274 42.9729L95.673 43.7331L95.8402 44.0676L96.0432 44.5142L96.177 44.8821L96.3343 45.2282L96.4899 45.6171L96.7803 46.4158L96.8806 46.7503L97.0209 47.136L97.1326 47.5456L97.2151 47.8205L97.3731 48.2551L97.4485 48.632L97.534 48.9168L97.6529 49.353L97.783 50.0033L97.8871 50.3504L97.9798 50.8604L98.012 51.1817L98.0612 51.4281L98.1441 51.8012L98.2126 52.486L98.2779 52.8124L98.3146 53.1423L98.5342 53.307L98.7683 53.5076L99.8849 54.3451L100.159 54.6194L100.962 55.3218L101.196 55.5559L101.464 55.79L101.802 56.1284L102.003 56.3582L102.271 56.5923L102.563 56.9265L102.571 56.9354L102.834 57.2319L103.039 57.4662L103.338 57.7646L104.589 59.3735L104.823 59.7079L105.057 60.0089L105.812 61.0866L106.03 61.4495L106.264 61.8174L106.49 62.1953L107.521 64.0855L107.757 64.5572L107.839 64.7531ZM94.9557 51.0543L94.8592 50.7325L94.7217 50.045L94.64 49.7454L94.5247 49.3613L94.4663 49.0693L94.3568 48.7681L94.2386 48.3742L94.1497 48.0479L94.0224 47.6979L93.922 47.3634L93.6774 46.6906L93.5654 46.4106L93.3882 46.0209L93.2544 45.653L93.123 45.3638L92.9558 45.0294L92.6325 44.3181L92.4452 43.9747L92.278 43.6403L91.7131 42.6047L91.4956 42.2629L91.2949 41.9284L90.8551 41.2373L90.6478 40.9411L90.3607 40.5464L90.1452 40.2078L89.9069 39.9098L89.6393 39.5419L89.131 38.9066L88.8299 38.5386L88.5845 38.2318L87.8706 37.4386L87.4162 37.3337L86.948 37.2668L86.5053 37.1646L85.3125 36.9811L84.8778 36.9477L84.443 36.8808L82.8185 36.7559H81.9823L81.5476 36.7224H80.8605L80.4257 36.7559H80.0292L78.4975 36.8835L78.4862 36.8844L78.1239 36.9174L77.7785 36.9462L77.4489 37.0011L77.0259 37.078L76.658 37.1115L76.4044 37.1576L76.0159 37.2547L75.6334 37.3312L75.3165 37.3888L74.9486 37.4892L74.5994 37.5527L74.3273 37.6343L73.9594 37.7346L72.5959 38.1437L72.7854 38.2385L73.1612 38.5069L73.3032 38.6252L73.4884 38.7311L73.7648 38.9285L73.9654 39.0622L74.2649 39.2761L74.4469 39.4278L74.6475 39.5616L75.0489 39.896L75.2496 40.0298L75.5644 40.2922L75.6745 40.4023L75.8752 40.5361L76.0995 40.7604L76.2363 40.8744L76.4568 41.0508L76.7912 41.3852L77.0239 41.5714L77.1577 41.7386L77.2594 41.82L78.2469 42.8074L78.3807 42.9747L78.7987 43.3927L78.899 43.5265L79.0328 43.6602L79.1332 43.794L79.2669 43.9278L79.3024 43.9752L79.4362 44.0755L79.7017 44.4295L79.9358 44.6636L80.0362 44.7974L80.2368 44.998L80.3372 45.1318L80.5676 45.3622L80.6345 45.4626L81.0358 45.8639L81.0585 45.898L81.0926 45.9207L81.3602 46.1883L81.587 46.3395L81.6539 46.4398L81.728 46.4893L81.7949 46.5562L81.9956 46.69L82.0625 46.7568L82.2056 46.8522L82.239 46.8634L82.4397 46.9972L82.54 47.0306L82.6404 47.0975L82.7407 47.1309L82.8411 47.1978L83.0417 47.2647L83.1129 47.3122L83.1301 47.3165L83.4871 47.4355L83.6022 47.493L83.6987 47.5171L83.799 47.5506L84.2004 47.6509L84.3007 47.6844L84.4662 47.7258H84.5637L84.9122 47.7954L85.1798 47.8623L85.347 47.8958L85.4808 47.9292L85.648 47.9627L85.7818 47.9961L87.0607 48.2519L87.3979 48.3081L87.5651 48.375L87.6292 48.3857L87.9121 48.4422L88.1128 48.5091L88.1643 48.5194L88.4576 48.5683L88.8589 48.7021L89.0596 48.7355L89.3412 48.8294L89.4619 48.8639L89.695 48.9028L89.9767 48.9967L90.2108 49.0635L90.5019 49.1606L90.736 49.2609L90.8463 49.2977L91.1406 49.3818L91.3747 49.4821L91.6516 49.5612L91.8523 49.6616L92.0436 49.7162L92.5677 49.9408L92.8352 50.0411L93.4144 50.2894L93.6183 50.4059L93.8858 50.5062L94.1502 50.6573L94.3459 50.7411L94.6904 50.9134L94.9244 51.0471L94.9574 51.0636L94.9557 51.0543Z" fill="white"/>
<path d="M151.038 86V53.2727H163.95C166.422 53.2727 168.531 53.7148 170.278 54.5991C172.036 55.4727 173.373 56.7138 174.289 58.3224C175.216 59.9205 175.68 61.8008 175.68 63.9634C175.68 66.1367 175.211 68.0064 174.274 69.5724C173.336 71.1278 171.978 72.321 170.199 73.152C168.43 73.983 166.289 74.3984 163.775 74.3984H155.129V68.8374H162.656C163.977 68.8374 165.074 68.6562 165.948 68.294C166.821 67.9318 167.471 67.3885 167.897 66.6641C168.334 65.9396 168.553 65.0394 168.553 63.9634C168.553 62.8768 168.334 61.9606 167.897 61.2148C167.471 60.4691 166.816 59.9045 165.932 59.521C165.058 59.1268 163.956 58.9297 162.624 58.9297H157.958V86H151.038ZM168.712 71.1065L176.846 86H169.208L161.25 71.1065H168.712ZM191.232 86.4794C188.708 86.4794 186.534 85.968 184.713 84.9453C182.901 83.9119 181.506 82.4524 180.526 80.5668C179.546 78.6705 179.056 76.4279 179.056 73.8391C179.056 71.3143 179.546 69.0984 180.526 67.1914C181.506 65.2844 182.885 63.7983 184.665 62.733C186.454 61.6676 188.553 61.1349 190.961 61.1349C192.58 61.1349 194.088 61.396 195.483 61.918C196.889 62.4293 198.115 63.2017 199.159 64.2351C200.213 65.2685 201.034 66.5682 201.619 68.1342C202.205 69.6896 202.498 71.5114 202.498 73.5994V75.4691H181.772V71.2504H196.09C196.09 70.2702 195.877 69.402 195.451 68.6456C195.025 67.8892 194.434 67.2979 193.677 66.8718C192.932 66.435 192.063 66.2166 191.073 66.2166C190.039 66.2166 189.123 66.4563 188.324 66.9357C187.536 67.4045 186.918 68.0384 186.47 68.8374C186.023 69.6257 185.794 70.5046 185.783 71.4741V75.4851C185.783 76.6996 186.007 77.7489 186.454 78.6332C186.912 79.5174 187.557 80.1992 188.388 80.6786C189.219 81.158 190.204 81.3977 191.344 81.3977C192.101 81.3977 192.793 81.2912 193.422 81.0781C194.05 80.8651 194.588 80.5455 195.036 80.1193C195.483 79.6932 195.824 79.1712 196.058 78.5533L202.355 78.9688C202.035 80.4815 201.38 81.8026 200.389 82.9318C199.409 84.0504 198.141 84.924 196.586 85.5526C195.041 86.1705 193.257 86.4794 191.232 86.4794ZM213.94 86.4634C212.374 86.4634 210.979 86.1918 209.753 85.6484C208.528 85.0945 207.559 84.2795 206.845 83.2035C206.142 82.1168 205.79 80.7638 205.79 79.1445C205.79 77.7809 206.041 76.6357 206.541 75.7088C207.042 74.782 207.724 74.0362 208.587 73.4716C209.45 72.907 210.43 72.4808 211.527 72.1932C212.635 71.9055 213.796 71.7031 215.011 71.5859C216.438 71.4368 217.589 71.2983 218.463 71.1705C219.336 71.032 219.97 70.8295 220.364 70.5632C220.758 70.2969 220.955 69.9027 220.955 69.3807V69.2848C220.955 68.2727 220.636 67.4897 219.997 66.9357C219.368 66.3817 218.473 66.1048 217.312 66.1048C216.087 66.1048 215.112 66.3764 214.388 66.9197C213.663 67.4524 213.184 68.1236 212.949 68.9332L206.653 68.4219C206.973 66.9304 207.601 65.6413 208.539 64.5547C209.476 63.4574 210.686 62.6158 212.166 62.0298C213.658 61.4332 215.384 61.1349 217.344 61.1349C218.708 61.1349 220.013 61.2947 221.259 61.6143C222.516 61.9339 223.629 62.4293 224.599 63.1005C225.579 63.7717 226.351 64.6346 226.916 65.6893C227.481 66.7333 227.763 67.9851 227.763 69.4446V86H221.307V82.5962H221.115C220.721 83.3633 220.194 84.0398 219.533 84.6257C218.873 85.201 218.079 85.6538 217.152 85.984C216.225 86.3036 215.155 86.4634 213.94 86.4634ZM215.89 81.7653C216.891 81.7653 217.775 81.5682 218.542 81.174C219.309 80.7692 219.911 80.2259 220.348 79.544C220.785 78.8622 221.003 78.0898 221.003 77.2269V74.6222C220.79 74.7607 220.497 74.8885 220.124 75.0057C219.762 75.1122 219.352 75.2134 218.894 75.3093C218.436 75.3945 217.978 75.4744 217.52 75.549C217.062 75.6129 216.646 75.6715 216.273 75.7248C215.474 75.842 214.776 76.0284 214.18 76.2841C213.583 76.5398 213.12 76.886 212.79 77.3228C212.459 77.7489 212.294 78.2816 212.294 78.9208C212.294 79.8477 212.63 80.5561 213.301 81.0462C213.983 81.5256 214.846 81.7653 215.89 81.7653ZM244.135 86.4794C241.62 86.4794 239.458 85.9467 237.647 84.8814C235.846 83.8054 234.461 82.3139 233.492 80.407C232.533 78.5 232.054 76.3054 232.054 73.8232C232.054 71.3089 232.538 69.1037 233.508 67.2074C234.488 65.3004 235.878 63.8143 237.679 62.7489C239.479 61.6729 241.62 61.1349 244.103 61.1349C246.244 61.1349 248.119 61.5238 249.728 62.3015C251.336 63.0792 252.609 64.1712 253.547 65.5774C254.484 66.9837 255.001 68.6349 255.097 70.5312H248.673C248.492 69.3061 248.012 68.3207 247.235 67.5749C246.468 66.8185 245.461 66.4403 244.214 66.4403C243.16 66.4403 242.238 66.728 241.45 67.3033C240.672 67.8679 240.065 68.6935 239.628 69.7802C239.191 70.8668 238.973 72.1825 238.973 73.7273C238.973 75.2933 239.186 76.625 239.612 77.7223C240.049 78.8196 240.662 79.6559 241.45 80.2312C242.238 80.8065 243.16 81.0941 244.214 81.0941C244.992 81.0941 245.69 80.9343 246.308 80.6147C246.936 80.2951 247.453 79.8317 247.858 79.2244C248.273 78.6065 248.545 77.8661 248.673 77.0032H255.097C254.99 78.8782 254.479 80.5295 253.563 81.957C252.657 83.3739 251.406 84.4819 249.808 85.2809C248.21 86.0799 246.319 86.4794 244.135 86.4794ZM272.511 61.4545V66.5682H257.73V61.4545H272.511ZM261.085 55.5739H267.893V78.4574C267.893 79.0859 267.989 79.576 268.181 79.9276C268.372 80.2685 268.639 80.5082 268.98 80.6467C269.331 80.7852 269.736 80.8544 270.194 80.8544C270.514 80.8544 270.833 80.8278 271.153 80.7745C271.473 80.7106 271.718 80.6626 271.888 80.6307L272.959 85.6964C272.618 85.8029 272.138 85.9254 271.52 86.0639C270.903 86.2131 270.152 86.3036 269.267 86.3356C267.627 86.3995 266.188 86.1811 264.953 85.6804C263.728 85.1797 262.774 84.402 262.092 83.3473C261.41 82.2926 261.075 80.9609 261.085 79.3523V55.5739ZM314.863 53.2727V86H308.886L294.648 65.4016H294.408V86H287.489V53.2727H293.561L307.687 73.8551H307.975V53.2727H314.863ZM327.451 86.4634C325.885 86.4634 324.489 86.1918 323.264 85.6484C322.039 85.0945 321.07 84.2795 320.356 83.2035C319.653 82.1168 319.301 80.7638 319.301 79.1445C319.301 77.7809 319.551 76.6357 320.052 75.7088C320.553 74.782 321.235 74.0362 322.098 73.4716C322.96 72.907 323.941 72.4808 325.038 72.1932C326.146 71.9055 327.307 71.7031 328.522 71.5859C329.949 71.4368 331.1 71.2983 331.973 71.1705C332.847 71.032 333.481 70.8295 333.875 70.5632C334.269 70.2969 334.466 69.9027 334.466 69.3807V69.2848C334.466 68.2727 334.147 67.4897 333.507 66.9357C332.879 66.3817 331.984 66.1048 330.823 66.1048C329.598 66.1048 328.623 66.3764 327.898 66.9197C327.174 67.4524 326.695 68.1236 326.46 68.9332L320.164 68.4219C320.484 66.9304 321.112 65.6413 322.05 64.5547C322.987 63.4574 324.196 62.6158 325.677 62.0298C327.169 61.4332 328.894 61.1349 330.855 61.1349C332.218 61.1349 333.523 61.2947 334.77 61.6143C336.027 61.9339 337.14 62.4293 338.11 63.1005C339.09 63.7717 339.862 64.6346 340.427 65.6893C340.991 66.7333 341.274 67.9851 341.274 69.4446V86H334.818V82.5962H334.626C334.232 83.3633 333.704 84.0398 333.044 84.6257C332.383 85.201 331.59 85.6538 330.663 85.984C329.736 86.3036 328.665 86.4634 327.451 86.4634ZM329.4 81.7653C330.402 81.7653 331.286 81.5682 332.053 81.174C332.82 80.7692 333.422 80.2259 333.859 79.544C334.296 78.8622 334.514 78.0898 334.514 77.2269V74.6222C334.301 74.7607 334.008 74.8885 333.635 75.0057C333.273 75.1122 332.863 75.2134 332.405 75.3093C331.947 75.3945 331.489 75.4744 331.03 75.549C330.572 75.6129 330.157 75.6715 329.784 75.7248C328.985 75.842 328.287 76.0284 327.691 76.2841C327.094 76.5398 326.631 76.886 326.3 77.3228C325.97 77.7489 325.805 78.2816 325.805 78.9208C325.805 79.8477 326.141 80.5561 326.812 81.0462C327.494 81.5256 328.356 81.7653 329.4 81.7653ZM368.56 61.4545L359.978 86H352.308L343.727 61.4545H350.918L356.015 79.0167H356.271L361.353 61.4545H368.56ZM372.043 86V61.4545H378.851V86H372.043ZM375.463 58.2905C374.451 58.2905 373.583 57.9549 372.858 57.2837C372.145 56.6019 371.788 55.7869 371.788 54.8388C371.788 53.9013 372.145 53.0969 372.858 52.4258C373.583 51.744 374.451 51.4031 375.463 51.4031C376.475 51.4031 377.338 51.744 378.052 52.4258C378.776 53.0969 379.139 53.9013 379.139 54.8388C379.139 55.7869 378.776 56.6019 378.052 57.2837C377.338 57.9549 376.475 58.2905 375.463 58.2905ZM395.362 95.7159C393.157 95.7159 391.266 95.4123 389.689 94.805C388.123 94.2085 386.877 93.3935 385.95 92.3601C385.023 91.3267 384.421 90.1655 384.144 88.8764L390.441 88.0295C390.632 88.5195 390.936 88.9776 391.351 89.4038C391.767 89.8299 392.316 90.1708 392.997 90.4265C393.69 90.6928 394.531 90.826 395.522 90.826C397.003 90.826 398.223 90.4638 399.182 89.7393C400.151 89.0256 400.636 87.8271 400.636 86.1438V81.6534H400.348C400.05 82.3352 399.602 82.9798 399.006 83.587C398.409 84.1942 397.642 84.6896 396.705 85.0732C395.767 85.4567 394.649 85.6484 393.349 85.6484C391.506 85.6484 389.828 85.2223 388.315 84.37C386.813 83.5071 385.615 82.1914 384.72 80.4229C383.835 78.6438 383.393 76.396 383.393 73.6793C383.393 70.8988 383.846 68.5763 384.752 66.712C385.657 64.8477 386.861 63.4521 388.363 62.5252C389.876 61.5984 391.532 61.1349 393.333 61.1349C394.707 61.1349 395.858 61.3693 396.785 61.8381C397.711 62.2962 398.457 62.8714 399.022 63.5639C399.597 64.2457 400.039 64.9169 400.348 65.5774H400.604V61.4545H407.363V86.2397C407.363 88.3278 406.852 90.0749 405.829 91.4812C404.807 92.8874 403.39 93.9421 401.579 94.6452C399.778 95.359 397.706 95.7159 395.362 95.7159ZM395.506 80.5348C396.604 80.5348 397.53 80.2631 398.287 79.7198C399.054 79.1658 399.64 78.3775 400.045 77.3548C400.46 76.3214 400.668 75.0856 400.668 73.6474C400.668 72.2092 400.465 70.9627 400.061 69.908C399.656 68.8427 399.07 68.017 398.303 67.4311C397.536 66.8452 396.604 66.5522 395.506 66.5522C394.388 66.5522 393.445 66.8558 392.678 67.4631C391.911 68.0597 391.33 68.8906 390.936 69.956C390.542 71.0213 390.345 72.2518 390.345 73.6474C390.345 75.0643 390.542 76.2894 390.936 77.3228C391.341 78.3455 391.921 79.1392 392.678 79.7038C393.445 80.2578 394.388 80.5348 395.506 80.5348ZM419.78 86.4634C418.214 86.4634 416.818 86.1918 415.593 85.6484C414.368 85.0945 413.399 84.2795 412.685 83.2035C411.982 82.1168 411.63 80.7638 411.63 79.1445C411.63 77.7809 411.88 76.6357 412.381 75.7088C412.882 74.782 413.564 74.0362 414.427 73.4716C415.29 72.907 416.27 72.4808 417.367 72.1932C418.475 71.9055 419.636 71.7031 420.851 71.5859C422.278 71.4368 423.429 71.2983 424.302 71.1705C425.176 71.032 425.81 70.8295 426.204 70.5632C426.598 70.2969 426.795 69.9027 426.795 69.3807V69.2848C426.795 68.2727 426.476 67.4897 425.836 66.9357C425.208 66.3817 424.313 66.1048 423.152 66.1048C421.927 66.1048 420.952 66.3764 420.227 66.9197C419.503 67.4524 419.024 68.1236 418.789 68.9332L412.493 68.4219C412.813 66.9304 413.441 65.6413 414.379 64.5547C415.316 63.4574 416.525 62.6158 418.006 62.0298C419.498 61.4332 421.224 61.1349 423.184 61.1349C424.547 61.1349 425.852 61.2947 427.099 61.6143C428.356 61.9339 429.469 62.4293 430.439 63.1005C431.419 63.7717 432.191 64.6346 432.756 65.6893C433.32 66.7333 433.603 67.9851 433.603 69.4446V86H427.147V82.5962H426.955C426.561 83.3633 426.034 84.0398 425.373 84.6257C424.713 85.201 423.919 85.6538 422.992 85.984C422.065 86.3036 420.994 86.4634 419.78 86.4634ZM421.73 81.7653C422.731 81.7653 423.615 81.5682 424.382 81.174C425.149 80.7692 425.751 80.2259 426.188 79.544C426.625 78.8622 426.843 78.0898 426.843 77.2269V74.6222C426.63 74.7607 426.337 74.8885 425.964 75.0057C425.602 75.1122 425.192 75.2134 424.734 75.3093C424.276 75.3945 423.818 75.4744 423.36 75.549C422.901 75.6129 422.486 75.6715 422.113 75.7248C421.314 75.842 420.616 76.0284 420.02 76.2841C419.423 76.5398 418.96 76.886 418.629 77.3228C418.299 77.7489 418.134 78.2816 418.134 78.9208C418.134 79.8477 418.47 80.5561 419.141 81.0462C419.823 81.5256 420.686 81.7653 421.73 81.7653ZM451.94 61.4545V66.5682H437.158V61.4545H451.94ZM440.514 55.5739H447.322V78.4574C447.322 79.0859 447.418 79.576 447.609 79.9276C447.801 80.2685 448.067 80.5082 448.408 80.6467C448.76 80.7852 449.165 80.8544 449.623 80.8544C449.942 80.8544 450.262 80.8278 450.582 80.7745C450.901 80.7106 451.146 80.6626 451.317 80.6307L452.387 85.6964C452.047 85.8029 451.567 85.9254 450.949 86.0639C450.331 86.2131 449.58 86.3036 448.696 86.3356C447.055 86.3995 445.617 86.1811 444.381 85.6804C443.156 85.1797 442.203 84.402 441.521 83.3473C440.839 82.2926 440.504 80.9609 440.514 79.3523V55.5739ZM456.374 86V61.4545H463.182V86H456.374ZM459.794 58.2905C458.782 58.2905 457.914 57.9549 457.189 57.2837C456.476 56.6019 456.119 55.7869 456.119 54.8388C456.119 53.9013 456.476 53.0969 457.189 52.4258C457.914 51.744 458.782 51.4031 459.794 51.4031C460.806 51.4031 461.669 51.744 462.383 52.4258C463.107 53.0969 463.47 53.9013 463.47 54.8388C463.47 55.7869 463.107 56.6019 462.383 57.2837C461.669 57.9549 460.806 58.2905 459.794 58.2905ZM479.725 86.4794C477.243 86.4794 475.096 85.9521 473.285 84.8974C471.485 83.832 470.095 82.3512 469.115 80.4549C468.134 78.5479 467.644 76.3374 467.644 73.8232C467.644 71.2876 468.134 69.0717 469.115 67.1754C470.095 65.2685 471.485 63.7876 473.285 62.733C475.096 61.6676 477.243 61.1349 479.725 61.1349C482.208 61.1349 484.349 61.6676 486.149 62.733C487.96 63.7876 489.356 65.2685 490.336 67.1754C491.316 69.0717 491.806 71.2876 491.806 73.8232C491.806 76.3374 491.316 78.5479 490.336 80.4549C489.356 82.3512 487.96 83.832 486.149 84.8974C484.349 85.9521 482.208 86.4794 479.725 86.4794ZM479.757 81.206C480.887 81.206 481.829 80.8864 482.586 80.2472C483.342 79.5973 483.912 78.7131 484.296 77.5945C484.69 76.4759 484.887 75.2028 484.887 73.7752C484.887 72.3477 484.69 71.0746 484.296 69.956C483.912 68.8374 483.342 67.9531 482.586 67.3033C481.829 66.6534 480.887 66.3285 479.757 66.3285C478.617 66.3285 477.659 66.6534 476.881 67.3033C476.114 67.9531 475.533 68.8374 475.139 69.956C474.756 71.0746 474.564 72.3477 474.564 73.7752C474.564 75.2028 474.756 76.4759 475.139 77.5945C475.533 78.7131 476.114 79.5973 476.881 80.2472C477.659 80.8864 478.617 81.206 479.757 81.206ZM503.04 71.8097V86H496.233V61.4545H502.721V65.7852H503.008C503.552 64.3576 504.463 63.2283 505.741 62.3974C507.019 61.5558 508.57 61.1349 510.391 61.1349C512.096 61.1349 513.582 61.5078 514.85 62.2536C516.117 62.9993 517.103 64.0646 517.806 65.4496C518.509 66.8239 518.861 68.4645 518.861 70.3714V86H512.053V71.5859C512.064 70.0838 511.68 68.9119 510.903 68.0703C510.125 67.218 509.054 66.7919 507.691 66.7919C506.774 66.7919 505.965 66.989 505.262 67.3832C504.569 67.7773 504.026 68.3526 503.632 69.109C503.248 69.8548 503.051 70.755 503.04 71.8097Z" fill="white"/>
</svg>
