<svg width="562" height="140" viewBox="0 0 562 140" fill="none" xmlns="http://www.w3.org/2000/svg">
<rect width="562" height="140" rx="20" fill="#21005D"/>
<path d="M91.3862 36.934L84.4651 62.4002C84.3986 62.2536 84.3256 62.1102 84.2533 61.9655C84.1275 61.7029 83.9952 61.4423 83.8486 61.1894C82.1237 58.2003 79.4168 56.0082 76.1755 54.9161C75.8901 54.8196 75.6073 54.718 75.3134 54.6398C75.2254 54.6163 75.1368 54.6039 75.0488 54.5824C71.5026 53.7027 67.8195 54.2116 64.646 56.0434L24.2408 79.3722L32.288 49.8274L75.5388 24.857C80.696 21.8784 87.3127 23.6528 90.2901 28.8093C91.7218 31.2888 92.1095 34.1795 91.3862 36.934ZM77.0559 77.5809L64.8095 84.8662L42.7931 97.8405L51.1133 67.6198L66.2751 58.8657C66.8994 58.5053 67.5497 58.2101 68.2176 57.9833C69.9236 57.4034 71.743 57.2678 73.5363 57.5845C73.8485 57.6399 74.16 57.7038 74.4702 57.7872C77.2559 58.5333 79.5849 60.3208 81.027 62.8185L81.0316 62.8277C82.1589 64.7865 82.6294 67.698 82.256 70.3027C81.6513 73.3667 79.7882 76.0032 77.0559 77.5809ZM56.2417 115.069L42.7944 101.622L61.2086 90.7701L63.0338 89.6949L56.2417 115.069ZM93.1117 27.1802C89.237 20.4676 80.6217 18.1588 73.9097 22.0354L30.0776 47.3414C29.7055 47.5564 29.4338 47.9096 29.3204 48.324L20.0573 82.3327C19.8839 82.97 20.112 83.649 20.6346 84.0517C20.9266 84.2759 21.2771 84.3899 21.6297 84.3899C21.9092 84.3899 22.1907 84.3182 22.4436 84.1716L47.0953 69.9384L38.5841 100.854C38.5646 100.922 38.5529 100.992 38.5431 101.061C38.5424 101.067 38.5392 101.074 38.5385 101.08C38.5379 101.082 38.5385 101.084 38.5385 101.086C38.5242 101.196 38.5255 101.307 38.5346 101.416C38.5366 101.441 38.5392 101.466 38.5424 101.492C38.5561 101.6 38.577 101.707 38.6128 101.811C38.6141 101.815 38.6161 101.818 38.6174 101.822C38.6526 101.922 38.6995 102.018 38.7536 102.111C38.766 102.131 38.7777 102.15 38.7901 102.17C38.85 102.263 38.9178 102.351 38.9966 102.431C38.9992 102.433 39.0005 102.437 39.0025 102.438L55.9335 119.369C56.243 119.679 56.6588 119.846 57.0856 119.846C57.2264 119.846 57.3678 119.828 57.5072 119.79C58.0696 119.64 58.5088 119.201 58.6593 118.638L67.0388 87.3314L78.7039 80.3914C82.168 78.3909 84.5224 74.7013 85.655 70.4389C85.6628 70.4141 85.6706 70.3893 85.6771 70.3646L94.5336 37.7778C95.4804 34.1716 94.9754 30.4077 93.1117 27.1802Z" fill="white"/>
<path d="M127.844 86V53.2727H140.756C143.228 53.2727 145.337 53.7148 147.085 54.5991C148.842 55.4727 150.179 56.7138 151.096 58.3224C152.022 59.9205 152.486 61.8008 152.486 63.9634C152.486 66.1367 152.017 68.0064 151.08 69.5724C150.142 71.1278 148.784 72.321 147.005 73.152C145.236 73.983 143.095 74.3984 140.581 74.3984H131.935V68.8374H139.462C140.783 68.8374 141.88 68.6562 142.754 68.294C143.627 67.9318 144.277 67.3885 144.703 66.6641C145.14 65.9396 145.359 65.0394 145.359 63.9634C145.359 62.8768 145.14 61.9606 144.703 61.2148C144.277 60.4691 143.622 59.9045 142.738 59.521C141.864 59.1268 140.762 58.9297 139.43 58.9297H134.764V86H127.844ZM145.518 71.1065L153.652 86H146.014L138.056 71.1065H145.518ZM168.038 86.4794C165.514 86.4794 163.34 85.968 161.519 84.9453C159.707 83.9119 158.312 82.4524 157.332 80.5668C156.352 78.6705 155.862 76.4279 155.862 73.8391C155.862 71.3143 156.352 69.0984 157.332 67.1914C158.312 65.2844 159.691 63.7983 161.471 62.733C163.26 61.6676 165.359 61.1349 167.767 61.1349C169.386 61.1349 170.894 61.396 172.289 61.918C173.695 62.4293 174.921 63.2017 175.965 64.2351C177.019 65.2685 177.84 66.5682 178.426 68.1342C179.011 69.6896 179.304 71.5114 179.304 73.5994V75.4691H158.578V71.2504H172.896C172.896 70.2702 172.683 69.402 172.257 68.6456C171.831 67.8892 171.24 67.2979 170.483 66.8718C169.738 66.435 168.869 66.2166 167.879 66.2166C166.845 66.2166 165.929 66.4563 165.13 66.9357C164.342 67.4045 163.724 68.0384 163.276 68.8374C162.829 69.6257 162.6 70.5046 162.589 71.4741V75.4851C162.589 76.6996 162.813 77.7489 163.26 78.6332C163.718 79.5174 164.363 80.1992 165.194 80.6786C166.025 81.158 167.01 81.3977 168.15 81.3977C168.907 81.3977 169.599 81.2912 170.228 81.0781C170.856 80.8651 171.394 80.5455 171.842 80.1193C172.289 79.6932 172.63 79.1712 172.864 78.5533L179.161 78.9688C178.841 80.4815 178.186 81.8026 177.195 82.9318C176.215 84.0504 174.947 84.924 173.392 85.5526C171.847 86.1705 170.063 86.4794 168.038 86.4794ZM190.746 86.4634C189.18 86.4634 187.785 86.1918 186.559 85.6484C185.334 85.0945 184.365 84.2795 183.651 83.2035C182.948 82.1168 182.596 80.7638 182.596 79.1445C182.596 77.7809 182.847 76.6357 183.347 75.7088C183.848 74.782 184.53 74.0362 185.393 73.4716C186.256 72.907 187.236 72.4808 188.333 72.1932C189.441 71.9055 190.602 71.7031 191.817 71.5859C193.244 71.4368 194.395 71.2983 195.269 71.1705C196.142 71.032 196.776 70.8295 197.17 70.5632C197.564 70.2969 197.761 69.9027 197.761 69.3807V69.2848C197.761 68.2727 197.442 67.4897 196.803 66.9357C196.174 66.3817 195.279 66.1048 194.118 66.1048C192.893 66.1048 191.918 66.3764 191.194 66.9197C190.469 67.4524 189.99 68.1236 189.755 68.9332L183.459 68.4219C183.779 66.9304 184.407 65.6413 185.345 64.5547C186.282 63.4574 187.492 62.6158 188.972 62.0298C190.464 61.4332 192.19 61.1349 194.15 61.1349C195.514 61.1349 196.819 61.2947 198.065 61.6143C199.322 61.9339 200.435 62.4293 201.405 63.1005C202.385 63.7717 203.157 64.6346 203.722 65.6893C204.287 66.7333 204.569 67.9851 204.569 69.4446V86H198.113V82.5962H197.921C197.527 83.3633 197 84.0398 196.339 84.6257C195.679 85.201 194.885 85.6538 193.958 85.984C193.031 86.3036 191.961 86.4634 190.746 86.4634ZM192.696 81.7653C193.697 81.7653 194.581 81.5682 195.348 81.174C196.116 80.7692 196.717 80.2259 197.154 79.544C197.591 78.8622 197.809 78.0898 197.809 77.2269V74.6222C197.596 74.7607 197.303 74.8885 196.93 75.0057C196.568 75.1122 196.158 75.2134 195.7 75.3093C195.242 75.3945 194.784 75.4744 194.326 75.549C193.868 75.6129 193.452 75.6715 193.079 75.7248C192.28 75.842 191.582 76.0284 190.986 76.2841C190.389 76.5398 189.926 76.886 189.596 77.3228C189.265 77.7489 189.1 78.2816 189.1 78.9208C189.1 79.8477 189.436 80.5561 190.107 81.0462C190.789 81.5256 191.652 81.7653 192.696 81.7653ZM220.941 86.4794C218.426 86.4794 216.264 85.9467 214.453 84.8814C212.652 83.8054 211.267 82.3139 210.298 80.407C209.339 78.5 208.86 76.3054 208.86 73.8232C208.86 71.3089 209.344 69.1037 210.314 67.2074C211.294 65.3004 212.684 63.8143 214.485 62.7489C216.285 61.6729 218.426 61.1349 220.909 61.1349C223.05 61.1349 224.925 61.5238 226.534 62.3015C228.142 63.0792 229.415 64.1712 230.353 65.5774C231.29 66.9837 231.807 68.6349 231.903 70.5312H225.479C225.298 69.3061 224.818 68.3207 224.041 67.5749C223.274 66.8185 222.267 66.4403 221.021 66.4403C219.966 66.4403 219.044 66.728 218.256 67.3033C217.478 67.8679 216.871 68.6935 216.434 69.7802C215.997 70.8668 215.779 72.1825 215.779 73.7273C215.779 75.2933 215.992 76.625 216.418 77.7223C216.855 78.8196 217.468 79.6559 218.256 80.2312C219.044 80.8065 219.966 81.0941 221.021 81.0941C221.798 81.0941 222.496 80.9343 223.114 80.6147C223.742 80.2951 224.259 79.8317 224.664 79.2244C225.079 78.6065 225.351 77.8661 225.479 77.0032H231.903C231.796 78.8782 231.285 80.5295 230.369 81.957C229.463 83.3739 228.212 84.4819 226.614 85.2809C225.016 86.0799 223.125 86.4794 220.941 86.4794ZM249.317 61.4545V66.5682H234.536V61.4545H249.317ZM237.892 55.5739H244.699V78.4574C244.699 79.0859 244.795 79.576 244.987 79.9276C245.178 80.2685 245.445 80.5082 245.786 80.6467C246.137 80.7852 246.542 80.8544 247 80.8544C247.32 80.8544 247.639 80.8278 247.959 80.7745C248.279 80.7106 248.524 80.6626 248.694 80.6307L249.765 85.6964C249.424 85.8029 248.944 85.9254 248.327 86.0639C247.709 86.2131 246.958 86.3036 246.073 86.3356C244.433 86.3995 242.994 86.1811 241.759 85.6804C240.534 85.1797 239.58 84.402 238.898 83.3473C238.216 82.2926 237.881 80.9609 237.892 79.3523V55.5739ZM291.669 53.2727V86H285.692L271.454 65.4016H271.214V86H264.295V53.2727H270.367L284.494 73.8551H284.781V53.2727H291.669ZM304.257 86.4634C302.691 86.4634 301.295 86.1918 300.07 85.6484C298.845 85.0945 297.876 84.2795 297.162 83.2035C296.459 82.1168 296.107 80.7638 296.107 79.1445C296.107 77.7809 296.357 76.6357 296.858 75.7088C297.359 74.782 298.041 74.0362 298.904 73.4716C299.767 72.907 300.747 72.4808 301.844 72.1932C302.952 71.9055 304.113 71.7031 305.328 71.5859C306.755 71.4368 307.906 71.2983 308.779 71.1705C309.653 71.032 310.287 70.8295 310.681 70.5632C311.075 70.2969 311.272 69.9027 311.272 69.3807V69.2848C311.272 68.2727 310.953 67.4897 310.313 66.9357C309.685 66.3817 308.79 66.1048 307.629 66.1048C306.404 66.1048 305.429 66.3764 304.704 66.9197C303.98 67.4524 303.501 68.1236 303.266 68.9332L296.97 68.4219C297.29 66.9304 297.918 65.6413 298.856 64.5547C299.793 63.4574 301.002 62.6158 302.483 62.0298C303.975 61.4332 305.7 61.1349 307.661 61.1349C309.024 61.1349 310.329 61.2947 311.576 61.6143C312.833 61.9339 313.946 62.4293 314.916 63.1005C315.896 63.7717 316.668 64.6346 317.233 65.6893C317.797 66.7333 318.08 67.9851 318.08 69.4446V86H311.624V82.5962H311.432C311.038 83.3633 310.51 84.0398 309.85 84.6257C309.189 85.201 308.396 85.6538 307.469 85.984C306.542 86.3036 305.471 86.4634 304.257 86.4634ZM306.206 81.7653C307.208 81.7653 308.092 81.5682 308.859 81.174C309.626 80.7692 310.228 80.2259 310.665 79.544C311.102 78.8622 311.32 78.0898 311.32 77.2269V74.6222C311.107 74.7607 310.814 74.8885 310.441 75.0057C310.079 75.1122 309.669 75.2134 309.211 75.3093C308.753 75.3945 308.295 75.4744 307.836 75.549C307.378 75.6129 306.963 75.6715 306.59 75.7248C305.791 75.842 305.093 76.0284 304.497 76.2841C303.9 76.5398 303.437 76.886 303.106 77.3228C302.776 77.7489 302.611 78.2816 302.611 78.9208C302.611 79.8477 302.947 80.5561 303.618 81.0462C304.3 81.5256 305.162 81.7653 306.206 81.7653ZM336.417 61.4545V66.5682H321.635V61.4545H336.417ZM324.991 55.5739H331.799V78.4574C331.799 79.0859 331.895 79.576 332.086 79.9276C332.278 80.2685 332.544 80.5082 332.885 80.6467C333.237 80.7852 333.642 80.8544 334.1 80.8544C334.419 80.8544 334.739 80.8278 335.059 80.7745C335.378 80.7106 335.623 80.6626 335.794 80.6307L336.864 85.6964C336.523 85.8029 336.044 85.9254 335.426 86.0639C334.808 86.2131 334.057 86.3036 333.173 86.3356C331.532 86.3995 330.094 86.1811 328.858 85.6804C327.633 85.1797 326.68 84.402 325.998 83.3473C325.316 82.2926 324.98 80.9609 324.991 79.3523V55.5739ZM340.851 86V61.4545H347.659V86H340.851ZM344.271 58.2905C343.259 58.2905 342.391 57.9549 341.666 57.2837C340.953 56.6019 340.596 55.7869 340.596 54.8388C340.596 53.9013 340.953 53.0969 341.666 52.4258C342.391 51.744 343.259 51.4031 344.271 51.4031C345.283 51.4031 346.146 51.744 346.86 52.4258C347.584 53.0969 347.947 53.9013 347.947 54.8388C347.947 55.7869 347.584 56.6019 346.86 57.2837C346.146 57.9549 345.283 58.2905 344.271 58.2905ZM375.996 61.4545L367.414 86H359.744L351.163 61.4545H358.354L363.451 79.0167H363.707L368.789 61.4545H375.996ZM389.874 86.4794C387.35 86.4794 385.176 85.968 383.354 84.9453C381.543 83.9119 380.148 82.4524 379.168 80.5668C378.188 78.6705 377.698 76.4279 377.698 73.8391C377.698 71.3143 378.188 69.0984 379.168 67.1914C380.148 65.2844 381.527 63.7983 383.307 62.733C385.096 61.6676 387.195 61.1349 389.603 61.1349C391.222 61.1349 392.729 61.396 394.125 61.918C395.531 62.4293 396.756 63.2017 397.801 64.2351C398.855 65.2685 399.676 66.5682 400.261 68.1342C400.847 69.6896 401.14 71.5114 401.14 73.5994V75.4691H380.414V71.2504H394.732C394.732 70.2702 394.519 69.402 394.093 68.6456C393.667 67.8892 393.076 67.2979 392.319 66.8718C391.574 66.435 390.705 66.2166 389.715 66.2166C388.681 66.2166 387.765 66.4563 386.966 66.9357C386.178 67.4045 385.56 68.0384 385.112 68.8374C384.665 69.6257 384.436 70.5046 384.425 71.4741V75.4851C384.425 76.6996 384.649 77.7489 385.096 78.6332C385.554 79.5174 386.199 80.1992 387.03 80.6786C387.861 81.158 388.846 81.3977 389.986 81.3977C390.743 81.3977 391.435 81.2912 392.064 81.0781C392.692 80.8651 393.23 80.5455 393.678 80.1193C394.125 79.6932 394.466 79.1712 394.7 78.5533L400.997 78.9688C400.677 80.4815 400.022 81.8026 399.031 82.9318C398.051 84.0504 396.783 84.924 395.228 85.5526C393.683 86.1705 391.899 86.4794 389.874 86.4794ZM416.126 86V53.2727H429.038C431.52 53.2727 433.635 53.7468 435.382 54.695C437.129 55.6325 438.461 56.9375 439.377 58.6101C440.304 60.272 440.767 62.1896 440.767 64.3629C440.767 66.5362 440.298 68.4538 439.361 70.1158C438.423 71.7777 437.065 73.0721 435.286 73.9989C433.517 74.9258 431.376 75.3892 428.862 75.3892H420.632V69.8441H427.743C429.075 69.8441 430.172 69.6151 431.035 69.157C431.909 68.6882 432.559 68.0437 432.985 67.2234C433.422 66.3924 433.64 65.4389 433.64 64.3629C433.64 63.2763 433.422 62.3281 432.985 61.5185C432.559 60.6982 431.909 60.0643 431.035 59.6168C430.162 59.1587 429.054 58.9297 427.711 58.9297H423.045V86H416.126ZM451.474 86.4634C449.908 86.4634 448.512 86.1918 447.287 85.6484C446.062 85.0945 445.092 84.2795 444.379 83.2035C443.675 82.1168 443.324 80.7638 443.324 79.1445C443.324 77.7809 443.574 76.6357 444.075 75.7088C444.576 74.782 445.257 74.0362 446.12 73.4716C446.983 72.907 447.963 72.4808 449.061 72.1932C450.169 71.9055 451.33 71.7031 452.544 71.5859C453.972 71.4368 455.123 71.2983 455.996 71.1705C456.87 71.032 457.504 70.8295 457.898 70.5632C458.292 70.2969 458.489 69.9027 458.489 69.3807V69.2848C458.489 68.2727 458.169 67.4897 457.53 66.9357C456.902 66.3817 456.007 66.1048 454.846 66.1048C453.62 66.1048 452.646 66.3764 451.921 66.9197C451.197 67.4524 450.717 68.1236 450.483 68.9332L444.187 68.4219C444.506 66.9304 445.135 65.6413 446.072 64.5547C447.01 63.4574 448.219 62.6158 449.7 62.0298C451.191 61.4332 452.917 61.1349 454.877 61.1349C456.241 61.1349 457.546 61.2947 458.793 61.6143C460.05 61.9339 461.163 62.4293 462.132 63.1005C463.113 63.7717 463.885 64.6346 464.45 65.6893C465.014 66.7333 465.297 67.9851 465.297 69.4446V86H458.841V82.5962H458.649C458.255 83.3633 457.727 84.0398 457.067 84.6257C456.406 85.201 455.613 85.6538 454.686 85.984C453.759 86.3036 452.688 86.4634 451.474 86.4634ZM453.423 81.7653C454.425 81.7653 455.309 81.5682 456.076 81.174C456.843 80.7692 457.445 80.2259 457.882 79.544C458.319 78.8622 458.537 78.0898 458.537 77.2269V74.6222C458.324 74.7607 458.031 74.8885 457.658 75.0057C457.296 75.1122 456.886 75.2134 456.428 75.3093C455.969 75.3945 455.511 75.4744 455.053 75.549C454.595 75.6129 454.18 75.6715 453.807 75.7248C453.008 75.842 452.31 76.0284 451.713 76.2841C451.117 76.5398 450.653 76.886 450.323 77.3228C449.993 77.7489 449.828 78.2816 449.828 78.9208C449.828 79.8477 450.163 80.5561 450.835 81.0462C451.516 81.5256 452.379 81.7653 453.423 81.7653ZM470.578 95.2045V61.4545H477.29V65.5774H477.593C477.892 64.9169 478.323 64.2457 478.888 63.5639C479.463 62.8714 480.209 62.2962 481.125 61.8381C482.052 61.3693 483.202 61.1349 484.577 61.1349C486.366 61.1349 488.018 61.6037 489.53 62.5412C491.043 63.468 492.252 64.869 493.158 66.744C494.063 68.6083 494.516 70.9467 494.516 73.7592C494.516 76.4972 494.074 78.8089 493.19 80.6946C492.316 82.5696 491.123 83.9918 489.61 84.9613C488.108 85.9201 486.425 86.3995 484.561 86.3995C483.24 86.3995 482.116 86.1811 481.189 85.7443C480.273 85.3075 479.521 84.7589 478.936 84.0984C478.35 83.4272 477.902 82.7507 477.593 82.0689H477.385V95.2045H470.578ZM477.242 73.7273C477.242 75.1868 477.444 76.4599 477.849 77.5465C478.254 78.6332 478.84 79.4801 479.607 80.0874C480.374 80.6839 481.306 80.9822 482.403 80.9822C483.511 80.9822 484.449 80.6786 485.216 80.0714C485.983 79.4535 486.563 78.6012 486.958 77.5146C487.362 76.4173 487.565 75.1548 487.565 73.7273C487.565 72.3104 487.368 71.0639 486.974 69.9879C486.579 68.9119 485.999 68.0703 485.232 67.4631C484.465 66.8558 483.522 66.5522 482.403 66.5522C481.295 66.5522 480.358 66.8452 479.591 67.4311C478.834 68.017 478.254 68.848 477.849 69.924C477.444 71 477.242 72.2678 477.242 73.7273ZM510.241 86.4794C507.716 86.4794 505.542 85.968 503.721 84.9453C501.91 83.9119 500.514 82.4524 499.534 80.5668C498.554 78.6705 498.064 76.4279 498.064 73.8391C498.064 71.3143 498.554 69.0984 499.534 67.1914C500.514 65.2844 501.894 63.7983 503.673 62.733C505.463 61.6676 507.561 61.1349 509.969 61.1349C511.588 61.1349 513.096 61.396 514.491 61.918C515.898 62.4293 517.123 63.2017 518.167 64.2351C519.221 65.2685 520.042 66.5682 520.628 68.1342C521.214 69.6896 521.507 71.5114 521.507 73.5994V75.4691H500.78V71.2504H515.099C515.099 70.2702 514.885 69.402 514.459 68.6456C514.033 67.8892 513.442 67.2979 512.686 66.8718C511.94 66.435 511.072 66.2166 510.081 66.2166C509.047 66.2166 508.131 66.4563 507.332 66.9357C506.544 67.4045 505.926 68.0384 505.479 68.8374C505.031 69.6257 504.802 70.5046 504.791 71.4741V75.4851C504.791 76.6996 505.015 77.7489 505.463 78.6332C505.921 79.5174 506.565 80.1992 507.396 80.6786C508.227 81.158 509.213 81.3977 510.352 81.3977C511.109 81.3977 511.801 81.2912 512.43 81.0781C513.058 80.8651 513.596 80.5455 514.044 80.1193C514.491 79.6932 514.832 79.1712 515.067 78.5533L521.363 78.9688C521.043 80.4815 520.388 81.8026 519.397 82.9318C518.417 84.0504 517.149 84.924 515.594 85.5526C514.049 86.1705 512.265 86.4794 510.241 86.4794ZM525.949 86V61.4545H532.549V65.7372H532.805C533.252 64.2138 534.003 63.0632 535.058 62.2855C536.112 61.4972 537.327 61.103 538.701 61.103C539.042 61.103 539.41 61.1243 539.804 61.1669C540.198 61.2095 540.544 61.2681 540.843 61.3427V67.3832C540.523 67.2873 540.081 67.2021 539.516 67.1275C538.952 67.0529 538.435 67.0156 537.966 67.0156C536.965 67.0156 536.07 67.234 535.281 67.6708C534.504 68.0969 533.886 68.6935 533.428 69.4606C532.98 70.2276 532.757 71.1119 532.757 72.1133V86H525.949Z" fill="white"/>
</svg>
