<svg width="455" height="140" viewBox="0 0 455 140" fill="none" xmlns="http://www.w3.org/2000/svg">
<rect width="454.647" height="140" rx="20" fill="#002B3B"/>
<path fill-rule="evenodd" clip-rule="evenodd" d="M88.8981 82.1412L86.7566 85.86C86.1114 86.9802 84.9171 87.6706 83.6245 87.6706H67.2189C65.9262 87.6706 64.7319 86.9802 64.0867 85.86L61.945 82.1412H88.8981ZM94.8935 71.7311L91.1174 78.2876H59.7256L55.9498 71.7311H94.8935ZM91.2562 61.5511L94.8996 67.8776H55.9437L59.5871 61.5511H91.2562ZM83.6245 51.9276C84.9171 51.9276 86.1114 52.6181 86.7566 53.7382L89.0369 57.6975H61.8064L64.0867 53.7382C64.7319 52.6181 65.9262 51.9276 67.2189 51.9276H83.6245Z" fill="#00435B"/>
<path d="M43.3424 50.2022C41.525 41.3899 41.135 34.631 42.3097 29.7232C43.0084 26.8043 44.2857 24.423 46.2279 22.705C48.2784 20.8912 50.8708 20.0012 53.7838 20.0012C58.5893 20.0012 63.6411 22.1925 69.0398 26.3556C71.2418 28.0536 73.5272 30.1003 75.9007 32.4968C76.0896 32.2535 76.3032 32.0242 76.5411 31.8122C83.2513 25.8324 88.9008 22.117 93.7329 20.6845C96.606 19.8327 99.3035 19.7516 101.76 20.5783C104.353 21.4509 106.419 23.2547 107.877 25.7812C110.282 29.951 110.917 35.4301 110.02 42.1953C109.654 44.9529 109.029 47.9567 108.146 51.2113C108.479 51.2516 108.813 51.3254 109.144 51.4351C117.658 54.2564 123.687 57.2905 127.336 60.7578C129.508 62.8208 130.926 65.1176 131.439 67.6599C131.98 70.3433 131.452 73.0349 129.996 75.5595C127.595 79.7233 123.18 83.0072 116.89 85.6083C114.365 86.6526 111.507 87.5985 108.314 88.4493C108.46 88.7782 108.573 89.1275 108.649 89.4939C110.466 98.3062 110.856 105.065 109.681 109.973C108.983 112.892 107.705 115.273 105.763 116.991C103.713 118.805 101.12 119.695 98.2072 119.695C93.4017 119.695 88.3499 117.504 82.9513 113.341C80.7258 111.625 78.4152 109.552 76.0145 107.123C75.7675 107.509 75.4642 107.868 75.1055 108.188C68.3953 114.168 62.7458 117.883 57.9137 119.316C55.0406 120.167 52.3431 120.248 49.8867 119.422C47.2937 118.549 45.2277 116.745 43.77 114.219C41.3642 110.049 40.7299 104.57 41.6267 97.8047C42.0055 94.9474 42.6628 91.8258 43.5972 88.4347C43.232 88.3977 42.8652 88.3205 42.5026 88.2003C33.9888 85.379 27.9601 82.3449 24.3101 78.8775C22.1385 76.8146 20.7204 74.5178 20.2078 71.9755C19.6667 69.292 20.1943 66.6005 21.6503 64.0757C24.0515 59.9121 28.4666 56.6282 34.7564 54.0271C37.3573 52.9516 40.3101 51.9805 43.6185 51.1103C43.5006 50.8217 43.4076 50.5183 43.3424 50.2022Z" fill="#002B3B"/>
<path fill-rule="evenodd" clip-rule="evenodd" d="M65.2076 47.3948C69.6209 47.0436 74.1698 46.8885 78.8543 46.9295C79.7414 46.9373 80.4669 46.2243 80.4747 45.3371C80.478 44.9635 80.3509 44.6004 80.1153 44.3103C69.4532 31.1825 60.6736 24.6185 53.7769 24.6185C46.6567 24.6185 44.6254 32.4671 47.6831 48.1644C47.8507 49.0247 48.6771 49.5919 49.5402 49.4389C54.9838 48.4742 60.2063 47.7928 65.2076 47.3948Z" fill="#FF4154"/>
<path fill-rule="evenodd" clip-rule="evenodd" d="M89.9822 49.5555C92.5309 53.2282 94.9771 57.1174 97.3206 61.2234C97.7604 61.994 98.7415 62.2621 99.5121 61.8223C99.8352 61.6379 100.084 61.347 100.217 60.9995C106.248 45.1798 107.516 34.27 104.019 28.2698C100.412 22.0782 92.5509 24.2191 80.4368 34.6927C79.7708 35.2685 79.6923 36.2732 80.261 36.9453C83.8603 41.2 87.1006 45.4034 89.9822 49.5555Z" fill="#FF4154"/>
<path fill-rule="evenodd" clip-rule="evenodd" d="M100.679 71.6563C98.7718 75.6653 96.6277 79.6945 94.2471 83.744C93.7975 84.5088 94.0531 85.4933 94.8178 85.943C95.1416 86.1334 95.522 86.2042 95.8926 86.1433C112.514 83.4104 122.55 79.0486 126.003 73.0579C129.568 66.8707 123.834 61.1998 108.801 56.0452C107.972 55.7611 107.069 56.1928 106.77 57.0155C104.873 62.2293 102.843 67.1096 100.679 71.6563Z" fill="#FF4154"/>
<path fill-rule="evenodd" clip-rule="evenodd" d="M87.0414 92.4044C82.628 92.7557 78.0792 92.9109 73.3948 92.8698C72.5075 92.862 71.782 93.5749 71.7743 94.4621C71.771 94.8358 71.8981 95.1988 72.1337 95.4889C82.7958 108.617 91.5753 115.181 98.472 115.181C105.592 115.181 107.623 107.332 104.566 91.635C104.398 90.7745 103.572 90.2074 102.709 90.3603C97.2651 91.3251 92.0426 92.0064 87.0414 92.4044Z" fill="#FF4154"/>
<path fill-rule="evenodd" clip-rule="evenodd" d="M61.6645 90.4445C59.1158 86.7719 56.6697 82.8826 54.3261 78.7765C53.8863 78.0059 52.9052 77.7379 52.1346 78.1777C51.8115 78.3621 51.5624 78.6529 51.4299 79.0006C45.3986 94.8201 44.1311 105.73 47.6273 111.73C51.235 117.922 59.0958 115.781 71.2098 105.307C71.8759 104.732 71.9543 103.727 71.3857 103.055C67.7864 98.8 64.546 94.5966 61.6645 90.4445Z" fill="#FF4154"/>
<path fill-rule="evenodd" clip-rule="evenodd" d="M50.9673 67.7414C52.8749 63.7324 55.019 59.7032 57.3995 55.6536C57.8491 54.8889 57.5936 53.9044 56.8288 53.4548C56.505 53.2644 56.1247 53.1935 55.754 53.2545C39.133 55.9872 29.0963 60.349 25.6439 66.3398C22.0782 72.527 27.8122 78.1979 42.846 83.3525C43.6742 83.6365 44.5773 83.205 44.8766 82.3822C46.7737 77.1684 48.8039 72.2881 50.9673 67.7414Z" fill="#FF4154"/>
<path fill-rule="evenodd" clip-rule="evenodd" d="M68.5378 52.1285H82.3086C84.3225 52.1285 86.1826 53.2057 87.1851 54.9524L94.0996 67.0006C95.0943 68.7337 95.0943 70.8647 94.0996 72.5978L87.1851 84.646C86.1826 86.3927 84.3225 87.4699 82.3086 87.4699H68.5378C66.5238 87.4699 64.6637 86.3927 63.6613 84.646L56.7468 72.5978C55.752 70.8647 55.752 68.7337 56.7468 67.0006L63.6613 54.9524C64.6637 53.2057 66.5238 52.1285 68.5378 52.1285ZM80.2098 55.7649C82.2248 55.7649 84.0857 56.8432 85.0877 58.5914L89.9094 67.0032C90.9022 68.735 90.9022 70.8634 89.9094 72.5952L85.0877 81.007C84.0857 82.7552 82.2248 83.8335 80.2098 83.8335H70.6365C68.6215 83.8335 66.7606 82.7552 65.7586 81.007L60.937 72.5952C59.9442 70.8634 59.9442 68.735 60.937 67.0032L65.7586 58.5914C66.7606 56.8432 68.6215 55.7649 70.6365 55.7649H80.2098ZM77.9476 59.7422H72.8987C70.8858 59.7422 69.0265 60.8183 68.0237 62.5637L65.4758 66.9982C64.4792 68.7326 64.4792 70.8658 65.4758 72.6002L68.0237 77.0347C69.0265 78.7801 70.8858 79.8562 72.8987 79.8562H77.9476C79.9606 79.8562 81.8199 78.7801 82.8228 77.0347L85.3706 72.6002C86.3672 70.8658 86.3672 68.7326 85.3706 66.9982L82.8228 62.5637C81.8199 60.8183 79.9606 59.7422 77.9476 59.7422ZM75.7694 63.5492C77.7808 63.5492 79.6389 64.6237 80.6424 66.3669L81.0036 66.9945C82.0029 68.7308 82.0029 70.8676 81.0036 72.6039L80.6424 73.2315C79.6389 74.9747 77.7808 76.0492 75.7694 76.0492H75.077C73.0656 76.0492 71.2074 74.9747 70.204 73.2315L69.8428 72.6039C68.8435 70.8676 68.8435 68.7308 69.8428 66.9945L70.204 66.3669C71.2074 64.6237 73.0656 63.5492 75.077 63.5492H75.7694ZM75.424 67.2992C74.5289 67.2992 73.7032 67.7757 73.2563 68.5491C72.8094 69.3226 72.8094 70.2758 73.2563 71.0492C73.7032 71.8227 74.5289 72.2992 75.4223 72.2992C76.3176 72.2992 77.1431 71.8227 77.5901 71.0492C78.037 70.2758 78.037 69.3226 77.5901 68.5491C77.1431 67.7757 76.3176 67.2992 75.424 67.2992Z" fill="#FFD94C"/>
<path d="M164.491 86V53.2727H177.403C179.875 53.2727 181.984 53.7148 183.731 54.5991C185.489 55.4727 186.826 56.7138 187.742 58.3224C188.669 59.9205 189.133 61.8008 189.133 63.9634C189.133 66.1367 188.664 68.0064 187.727 69.5724C186.789 71.1278 185.431 72.321 183.652 73.152C181.883 73.983 179.742 74.3984 177.228 74.3984H168.582V68.8374H176.109C177.43 68.8374 178.527 68.6562 179.401 68.294C180.274 67.9318 180.924 67.3885 181.35 66.6641C181.787 65.9396 182.006 65.0394 182.006 63.9634C182.006 62.8768 181.787 61.9606 181.35 61.2148C180.924 60.4691 180.269 59.9045 179.385 59.521C178.511 59.1268 177.409 58.9297 176.077 58.9297H171.411V86H164.491ZM182.165 71.1065L190.299 86H182.661L174.703 71.1065H182.165ZM204.685 86.4794C202.161 86.4794 199.987 85.968 198.166 84.9453C196.354 83.9119 194.959 82.4524 193.979 80.5668C192.999 78.6705 192.509 76.4279 192.509 73.8391C192.509 71.3143 192.999 69.0984 193.979 67.1914C194.959 65.2844 196.338 63.7983 198.118 62.733C199.907 61.6676 202.006 61.1349 204.414 61.1349C206.033 61.1349 207.541 61.396 208.936 61.918C210.342 62.4293 211.568 63.2017 212.612 64.2351C213.666 65.2685 214.487 66.5682 215.072 68.1342C215.658 69.6896 215.951 71.5114 215.951 73.5994V75.4691H195.225V71.2504H209.543C209.543 70.2702 209.33 69.402 208.904 68.6456C208.478 67.8892 207.887 67.2979 207.13 66.8718C206.385 66.435 205.516 66.2166 204.526 66.2166C203.492 66.2166 202.576 66.4563 201.777 66.9357C200.989 67.4045 200.371 68.0384 199.923 68.8374C199.476 69.6257 199.247 70.5046 199.236 71.4741V75.4851C199.236 76.6996 199.46 77.7489 199.907 78.6332C200.365 79.5174 201.01 80.1992 201.841 80.6786C202.672 81.158 203.657 81.3977 204.797 81.3977C205.554 81.3977 206.246 81.2912 206.875 81.0781C207.503 80.8651 208.041 80.5455 208.489 80.1193C208.936 79.6932 209.277 79.1712 209.511 78.5533L215.808 78.9688C215.488 80.4815 214.833 81.8026 213.842 82.9318C212.862 84.0504 211.594 84.924 210.039 85.5526C208.494 86.1705 206.71 86.4794 204.685 86.4794ZM227.393 86.4634C225.827 86.4634 224.432 86.1918 223.206 85.6484C221.981 85.0945 221.012 84.2795 220.298 83.2035C219.595 82.1168 219.243 80.7638 219.243 79.1445C219.243 77.7809 219.494 76.6357 219.994 75.7088C220.495 74.782 221.177 74.0362 222.04 73.4716C222.903 72.907 223.883 72.4808 224.98 72.1932C226.088 71.9055 227.249 71.7031 228.464 71.5859C229.891 71.4368 231.042 71.2983 231.916 71.1705C232.789 71.032 233.423 70.8295 233.817 70.5632C234.211 70.2969 234.408 69.9027 234.408 69.3807V69.2848C234.408 68.2727 234.089 67.4897 233.45 66.9357C232.821 66.3817 231.926 66.1048 230.765 66.1048C229.54 66.1048 228.565 66.3764 227.841 66.9197C227.116 67.4524 226.637 68.1236 226.402 68.9332L220.106 68.4219C220.426 66.9304 221.054 65.6413 221.992 64.5547C222.929 63.4574 224.139 62.6158 225.619 62.0298C227.111 61.4332 228.837 61.1349 230.797 61.1349C232.161 61.1349 233.466 61.2947 234.712 61.6143C235.969 61.9339 237.082 62.4293 238.052 63.1005C239.032 63.7717 239.804 64.6346 240.369 65.6893C240.934 66.7333 241.216 67.9851 241.216 69.4446V86H234.76V82.5962H234.568C234.174 83.3633 233.647 84.0398 232.986 84.6257C232.326 85.201 231.532 85.6538 230.605 85.984C229.678 86.3036 228.608 86.4634 227.393 86.4634ZM229.343 81.7653C230.344 81.7653 231.228 81.5682 231.995 81.174C232.762 80.7692 233.364 80.2259 233.801 79.544C234.238 78.8622 234.456 78.0898 234.456 77.2269V74.6222C234.243 74.7607 233.95 74.8885 233.577 75.0057C233.215 75.1122 232.805 75.2134 232.347 75.3093C231.889 75.3945 231.431 75.4744 230.973 75.549C230.515 75.6129 230.099 75.6715 229.726 75.7248C228.927 75.842 228.229 76.0284 227.633 76.2841C227.036 76.5398 226.573 76.886 226.243 77.3228C225.912 77.7489 225.747 78.2816 225.747 78.9208C225.747 79.8477 226.083 80.5561 226.754 81.0462C227.436 81.5256 228.299 81.7653 229.343 81.7653ZM257.588 86.4794C255.073 86.4794 252.911 85.9467 251.1 84.8814C249.299 83.8054 247.914 82.3139 246.945 80.407C245.986 78.5 245.507 76.3054 245.507 73.8232C245.507 71.3089 245.991 69.1037 246.961 67.2074C247.941 65.3004 249.331 63.8143 251.132 62.7489C252.932 61.6729 255.073 61.1349 257.556 61.1349C259.697 61.1349 261.572 61.5238 263.181 62.3015C264.789 63.0792 266.062 64.1712 267 65.5774C267.937 66.9837 268.454 68.6349 268.55 70.5312H262.126C261.945 69.3061 261.465 68.3207 260.688 67.5749C259.921 66.8185 258.914 66.4403 257.667 66.4403C256.613 66.4403 255.691 66.728 254.903 67.3033C254.125 67.8679 253.518 68.6935 253.081 69.7802C252.644 70.8668 252.426 72.1825 252.426 73.7273C252.426 75.2933 252.639 76.625 253.065 77.7223C253.502 78.8196 254.115 79.6559 254.903 80.2312C255.691 80.8065 256.613 81.0941 257.667 81.0941C258.445 81.0941 259.143 80.9343 259.761 80.6147C260.389 80.2951 260.906 79.8317 261.311 79.2244C261.726 78.6065 261.998 77.8661 262.126 77.0032H268.55C268.443 78.8782 267.932 80.5295 267.016 81.957C266.11 83.3739 264.859 84.4819 263.261 85.2809C261.663 86.0799 259.772 86.4794 257.588 86.4794ZM285.964 61.4545V66.5682H271.183V61.4545H285.964ZM274.538 55.5739H281.346V78.4574C281.346 79.0859 281.442 79.576 281.634 79.9276C281.825 80.2685 282.092 80.5082 282.433 80.6467C282.784 80.7852 283.189 80.8544 283.647 80.8544C283.967 80.8544 284.286 80.8278 284.606 80.7745C284.926 80.7106 285.171 80.6626 285.341 80.6307L286.412 85.6964C286.071 85.8029 285.591 85.9254 284.974 86.0639C284.356 86.2131 283.605 86.3036 282.72 86.3356C281.08 86.3995 279.641 86.1811 278.406 85.6804C277.181 85.1797 276.227 84.402 275.545 83.3473C274.863 82.2926 274.528 80.9609 274.538 79.3523V55.5739ZM313.294 74.6222H319.175L322.131 78.4254L325.04 81.8132L330.521 88.6847H324.065L320.294 84.0504L318.36 81.3018L313.294 74.6222ZM331.016 69.6364C331.016 73.2053 330.34 76.2415 328.987 78.745C327.644 81.2486 325.812 83.1609 323.49 84.4819C321.178 85.7923 318.578 86.4474 315.691 86.4474C312.783 86.4474 310.173 85.7869 307.861 84.4659C305.549 83.1449 303.722 81.2326 302.38 78.729C301.038 76.2255 300.366 73.1946 300.366 69.6364C300.366 66.0675 301.038 63.0312 302.38 60.5277C303.722 58.0241 305.549 56.1172 307.861 54.8068C310.173 53.4858 312.783 52.8253 315.691 52.8253C318.578 52.8253 321.178 53.4858 323.49 54.8068C325.812 56.1172 327.644 58.0241 328.987 60.5277C330.34 63.0312 331.016 66.0675 331.016 69.6364ZM324.001 69.6364C324.001 67.3246 323.655 65.375 322.962 63.7876C322.28 62.2003 321.316 60.9964 320.07 60.1761C318.823 59.3558 317.364 58.9457 315.691 58.9457C314.019 58.9457 312.559 59.3558 311.313 60.1761C310.066 60.9964 309.097 62.2003 308.404 63.7876C307.723 65.375 307.382 67.3246 307.382 69.6364C307.382 71.9482 307.723 73.8977 308.404 75.4851C309.097 77.0724 310.066 78.2763 311.313 79.0966C312.559 79.9169 314.019 80.3271 315.691 80.3271C317.364 80.3271 318.823 79.9169 320.07 79.0966C321.316 78.2763 322.28 77.0724 322.962 75.4851C323.655 73.8977 324.001 71.9482 324.001 69.6364ZM351.754 75.549V61.4545H358.562V86H352.026V81.5415H351.77C351.216 82.9798 350.295 84.1357 349.006 85.0092C347.727 85.8828 346.167 86.3196 344.324 86.3196C342.683 86.3196 341.239 85.9467 339.993 85.201C338.747 84.4553 337.772 83.3952 337.069 82.021C336.376 80.6467 336.025 79.0007 336.014 77.0831V61.4545H342.822V75.8686C342.832 77.3175 343.221 78.4627 343.988 79.3043C344.755 80.146 345.783 80.5668 347.072 80.5668C347.893 80.5668 348.66 80.3803 349.373 80.0075C350.087 79.6239 350.662 79.0593 351.099 78.3136C351.547 77.5678 351.765 76.6463 351.754 75.549ZM375.193 86.4794C372.668 86.4794 370.495 85.968 368.673 84.9453C366.862 83.9119 365.467 82.4524 364.487 80.5668C363.506 78.6705 363.016 76.4279 363.016 73.8391C363.016 71.3143 363.506 69.0984 364.487 67.1914C365.467 65.2844 366.846 63.7983 368.625 62.733C370.415 61.6676 372.514 61.1349 374.922 61.1349C376.541 61.1349 378.048 61.396 379.444 61.918C380.85 62.4293 382.075 63.2017 383.119 64.2351C384.174 65.2685 384.994 66.5682 385.58 68.1342C386.166 69.6896 386.459 71.5114 386.459 73.5994V75.4691H365.733V71.2504H380.051C380.051 70.2702 379.838 69.402 379.412 68.6456C378.986 67.8892 378.395 67.2979 377.638 66.8718C376.892 66.435 376.024 66.2166 375.033 66.2166C374 66.2166 373.084 66.4563 372.285 66.9357C371.496 67.4045 370.879 68.0384 370.431 68.8374C369.984 69.6257 369.755 70.5046 369.744 71.4741V75.4851C369.744 76.6996 369.968 77.7489 370.415 78.6332C370.873 79.5174 371.518 80.1992 372.349 80.6786C373.18 81.158 374.165 81.3977 375.305 81.3977C376.061 81.3977 376.754 81.2912 377.383 81.0781C378.011 80.8651 378.549 80.5455 378.996 80.1193C379.444 79.6932 379.785 79.1712 380.019 78.5533L386.315 78.9688C385.996 80.4815 385.341 81.8026 384.35 82.9318C383.37 84.0504 382.102 84.924 380.547 85.5526C379.002 86.1705 377.217 86.4794 375.193 86.4794ZM390.902 86V61.4545H397.501V65.7372H397.757C398.205 64.2138 398.956 63.0632 400.01 62.2855C401.065 61.4972 402.28 61.103 403.654 61.103C403.995 61.103 404.362 61.1243 404.756 61.1669C405.151 61.2095 405.497 61.2681 405.795 61.3427V67.3832C405.476 67.2873 405.033 67.2021 404.469 67.1275C403.904 67.0529 403.387 67.0156 402.919 67.0156C401.917 67.0156 401.022 67.234 400.234 67.6708C399.456 68.0969 398.838 68.6935 398.38 69.4606C397.933 70.2276 397.709 71.1119 397.709 72.1133V86H390.902ZM414.265 95.2045C413.402 95.2045 412.592 95.1353 411.836 94.9968C411.09 94.869 410.472 94.7038 409.982 94.5014L411.516 89.4197C412.315 89.6648 413.034 89.7979 413.673 89.8192C414.323 89.8406 414.883 89.6914 415.351 89.3718C415.831 89.0522 416.22 88.5089 416.518 87.7418L416.917 86.7031L408.112 61.4545H415.271L420.353 79.4801H420.609L425.738 61.4545H432.945L423.405 88.6527C422.947 89.9737 422.324 91.1243 421.536 92.1044C420.758 93.0952 419.772 93.8569 418.579 94.3896C417.386 94.9329 415.948 95.2045 414.265 95.2045Z" fill="white"/>
</svg>
