<svg width="461" height="140" viewBox="0 0 461 140" fill="none" xmlns="http://www.w3.org/2000/svg">
<rect width="460.739" height="140" rx="20" fill="#61DAFB"/>
<path d="M76.3695 80.5053C82.1714 80.5053 86.8746 75.8019 86.8746 70.0002C86.8746 64.1983 82.1714 59.4949 76.3695 59.4949C70.5676 59.4949 65.8643 64.1983 65.8643 70.0002C65.8643 75.8019 70.5676 80.5053 76.3695 80.5053Z" fill="#61DAFB"/>
<path d="M76.3695 80.5053C82.1714 80.5053 86.8746 75.8019 86.8746 70.0002C86.8746 64.1983 82.1714 59.4949 76.3695 59.4949C70.5676 59.4949 65.8643 64.1983 65.8643 70.0002C65.8643 75.8019 70.5676 80.5053 76.3695 80.5053Z" stroke="white" stroke-width="5"/>
<path d="M76.3693 91.5229C107.501 91.5229 132.739 81.8868 132.739 70C132.739 58.1134 107.501 48.4772 76.3693 48.4772C45.2374 48.4772 20 58.1134 20 70C20 81.8868 45.2374 91.5229 76.3693 91.5229Z" stroke="white" stroke-width="5"/>
<path d="M57.73 80.7614C73.296 107.723 94.2598 124.761 104.554 118.817C114.848 112.874 110.575 86.1996 95.0087 59.2386C79.4427 32.2775 58.4789 15.2394 48.1847 21.1827C37.8904 27.1261 42.164 53.8004 57.73 80.7614Z" stroke="white" stroke-width="5"/>
<path d="M57.73 59.2386C42.1641 86.1996 37.8904 112.874 48.1847 118.817C58.4789 124.761 79.4428 107.722 95.0087 80.7614C110.575 53.8004 114.848 27.1261 104.554 21.1827C94.2599 15.2393 73.296 32.2775 57.73 59.2386Z" stroke="white" stroke-width="5"/>
<path d="M165.583 86V53.2727H178.495C180.967 53.2727 183.076 53.7148 184.823 54.5991C186.581 55.4727 187.918 56.7138 188.834 58.3224C189.761 59.9205 190.225 61.8008 190.225 63.9634C190.225 66.1367 189.756 68.0064 188.818 69.5724C187.881 71.1278 186.523 72.321 184.743 73.152C182.975 73.983 180.834 74.3984 178.319 74.3984H169.674V68.8374H177.201C178.522 68.8374 179.619 68.6562 180.493 68.294C181.366 67.9318 182.016 67.3885 182.442 66.6641C182.879 65.9396 183.097 65.0394 183.097 63.9634C183.097 62.8768 182.879 61.9606 182.442 61.2148C182.016 60.4691 181.361 59.9045 180.477 59.521C179.603 59.1268 178.5 58.9297 177.169 58.9297H172.503V86H165.583ZM183.257 71.1065L191.391 86H183.753L175.795 71.1065H183.257ZM205.777 86.4794C203.252 86.4794 201.079 85.968 199.257 84.9453C197.446 83.9119 196.051 82.4524 195.071 80.5668C194.09 78.6705 193.6 76.4279 193.6 73.8391C193.6 71.3143 194.09 69.0984 195.071 67.1914C196.051 65.2844 197.43 63.7983 199.209 62.733C200.999 61.6676 203.098 61.1349 205.506 61.1349C207.125 61.1349 208.632 61.396 210.028 61.918C211.434 62.4293 212.659 63.2017 213.703 64.2351C214.758 65.2685 215.578 66.5682 216.164 68.1342C216.75 69.6896 217.043 71.5114 217.043 73.5994V75.4691H196.317V71.2504H210.635C210.635 70.2702 210.422 69.402 209.996 68.6456C209.57 67.8892 208.979 67.2979 208.222 66.8718C207.476 66.435 206.608 66.2166 205.617 66.2166C204.584 66.2166 203.668 66.4563 202.869 66.9357C202.08 67.4045 201.463 68.0384 201.015 68.8374C200.568 69.6257 200.339 70.5046 200.328 71.4741V75.4851C200.328 76.6996 200.552 77.7489 200.999 78.6332C201.457 79.5174 202.102 80.1992 202.933 80.6786C203.764 81.158 204.749 81.3977 205.889 81.3977C206.645 81.3977 207.338 81.2912 207.966 81.0781C208.595 80.8651 209.133 80.5455 209.58 80.1193C210.028 79.6932 210.369 79.1712 210.603 78.5533L216.899 78.9688C216.58 80.4815 215.925 81.8026 214.934 82.9318C213.954 84.0504 212.686 84.924 211.131 85.5526C209.586 86.1705 207.801 86.4794 205.777 86.4794ZM228.485 86.4634C226.919 86.4634 225.523 86.1918 224.298 85.6484C223.073 85.0945 222.104 84.2795 221.39 83.2035C220.687 82.1168 220.335 80.7638 220.335 79.1445C220.335 77.7809 220.585 76.6357 221.086 75.7088C221.587 74.782 222.269 74.0362 223.132 73.4716C223.995 72.907 224.975 72.4808 226.072 72.1932C227.18 71.9055 228.341 71.7031 229.556 71.5859C230.983 71.4368 232.134 71.2983 233.007 71.1705C233.881 71.032 234.515 70.8295 234.909 70.5632C235.303 70.2969 235.5 69.9027 235.5 69.3807V69.2848C235.5 68.2727 235.181 67.4897 234.541 66.9357C233.913 66.3817 233.018 66.1048 231.857 66.1048C230.632 66.1048 229.657 66.3764 228.932 66.9197C228.208 67.4524 227.729 68.1236 227.494 68.9332L221.198 68.4219C221.518 66.9304 222.146 65.6413 223.084 64.5547C224.021 63.4574 225.23 62.6158 226.711 62.0298C228.203 61.4332 229.928 61.1349 231.889 61.1349C233.252 61.1349 234.557 61.2947 235.804 61.6143C237.061 61.9339 238.174 62.4293 239.144 63.1005C240.124 63.7717 240.896 64.6346 241.461 65.6893C242.025 66.7333 242.308 67.9851 242.308 69.4446V86H235.852V82.5962H235.66C235.266 83.3633 234.739 84.0398 234.078 84.6257C233.417 85.201 232.624 85.6538 231.697 85.984C230.77 86.3036 229.699 86.4634 228.485 86.4634ZM230.435 81.7653C231.436 81.7653 232.32 81.5682 233.087 81.174C233.854 80.7692 234.456 80.2259 234.893 79.544C235.33 78.8622 235.548 78.0898 235.548 77.2269V74.6222C235.335 74.7607 235.042 74.8885 234.669 75.0057C234.307 75.1122 233.897 75.2134 233.439 75.3093C232.981 75.3945 232.523 75.4744 232.064 75.549C231.606 75.6129 231.191 75.6715 230.818 75.7248C230.019 75.842 229.321 76.0284 228.725 76.2841C228.128 76.5398 227.665 76.886 227.334 77.3228C227.004 77.7489 226.839 78.2816 226.839 78.9208C226.839 79.8477 227.175 80.5561 227.846 81.0462C228.528 81.5256 229.39 81.7653 230.435 81.7653ZM258.679 86.4794C256.165 86.4794 254.003 85.9467 252.191 84.8814C250.391 83.8054 249.006 82.3139 248.037 80.407C247.078 78.5 246.598 76.3054 246.598 73.8232C246.598 71.3089 247.083 69.1037 248.053 67.2074C249.033 65.3004 250.423 63.8143 252.223 62.7489C254.024 61.6729 256.165 61.1349 258.647 61.1349C260.789 61.1349 262.664 61.5238 264.272 62.3015C265.881 63.0792 267.154 64.1712 268.092 65.5774C269.029 66.9837 269.546 68.6349 269.642 70.5312H263.218C263.037 69.3061 262.557 68.3207 261.78 67.5749C261.012 66.8185 260.006 66.4403 258.759 66.4403C257.705 66.4403 256.783 66.728 255.995 67.3033C255.217 67.8679 254.61 68.6935 254.173 69.7802C253.736 70.8668 253.518 72.1825 253.518 73.7273C253.518 75.2933 253.731 76.625 254.157 77.7223C254.594 78.8196 255.206 79.6559 255.995 80.2312C256.783 80.8065 257.705 81.0941 258.759 81.0941C259.537 81.0941 260.235 80.9343 260.853 80.6147C261.481 80.2951 261.998 79.8317 262.403 79.2244C262.818 78.6065 263.09 77.8661 263.218 77.0032H269.642C269.535 78.8782 269.024 80.5295 268.108 81.957C267.202 83.3739 265.95 84.4819 264.352 85.2809C262.754 86.0799 260.863 86.4794 258.679 86.4794ZM287.056 61.4545V66.5682H272.274V61.4545H287.056ZM275.63 55.5739H282.438V78.4574C282.438 79.0859 282.534 79.576 282.725 79.9276C282.917 80.2685 283.184 80.5082 283.524 80.6467C283.876 80.7852 284.281 80.8544 284.739 80.8544C285.059 80.8544 285.378 80.8278 285.698 80.7745C286.017 80.7106 286.262 80.6626 286.433 80.6307L287.504 85.6964C287.163 85.8029 286.683 85.9254 286.065 86.0639C285.447 86.2131 284.696 86.3036 283.812 86.3356C282.171 86.3995 280.733 86.1811 279.497 85.6804C278.272 85.1797 277.319 84.402 276.637 83.3473C275.955 82.2926 275.62 80.9609 275.63 79.3523V55.5739ZM329.407 53.2727V86H323.431L309.193 65.4016H308.953V86H302.033V53.2727H308.106L322.232 73.8551H322.52V53.2727H329.407ZM341.996 86.4634C340.43 86.4634 339.034 86.1918 337.809 85.6484C336.584 85.0945 335.614 84.2795 334.901 83.2035C334.197 82.1168 333.846 80.7638 333.846 79.1445C333.846 77.7809 334.096 76.6357 334.597 75.7088C335.098 74.782 335.779 74.0362 336.642 73.4716C337.505 72.907 338.485 72.4808 339.583 72.1932C340.691 71.9055 341.852 71.7031 343.066 71.5859C344.494 71.4368 345.644 71.2983 346.518 71.1705C347.392 71.032 348.026 70.8295 348.42 70.5632C348.814 70.2969 349.011 69.9027 349.011 69.3807V69.2848C349.011 68.2727 348.691 67.4897 348.052 66.9357C347.424 66.3817 346.529 66.1048 345.367 66.1048C344.142 66.1048 343.168 66.3764 342.443 66.9197C341.719 67.4524 341.239 68.1236 341.005 68.9332L334.709 68.4219C335.028 66.9304 335.657 65.6413 336.594 64.5547C337.532 63.4574 338.741 62.6158 340.222 62.0298C341.713 61.4332 343.439 61.1349 345.399 61.1349C346.763 61.1349 348.068 61.2947 349.315 61.6143C350.572 61.9339 351.685 62.4293 352.654 63.1005C353.635 63.7717 354.407 64.6346 354.972 65.6893C355.536 66.7333 355.818 67.9851 355.818 69.4446V86H349.363V82.5962H349.171C348.777 83.3633 348.249 84.0398 347.589 84.6257C346.928 85.201 346.135 85.6538 345.208 85.984C344.281 86.3036 343.21 86.4634 341.996 86.4634ZM343.945 81.7653C344.947 81.7653 345.831 81.5682 346.598 81.174C347.365 80.7692 347.967 80.2259 348.404 79.544C348.841 78.8622 349.059 78.0898 349.059 77.2269V74.6222C348.846 74.7607 348.553 74.8885 348.18 75.0057C347.818 75.1122 347.408 75.2134 346.95 75.3093C346.491 75.3945 346.033 75.4744 345.575 75.549C345.117 75.6129 344.702 75.6715 344.329 75.7248C343.53 75.842 342.832 76.0284 342.235 76.2841C341.639 76.5398 341.175 76.886 340.845 77.3228C340.515 77.7489 340.35 78.2816 340.35 78.9208C340.35 79.8477 340.685 80.5561 341.356 81.0462C342.038 81.5256 342.901 81.7653 343.945 81.7653ZM374.156 61.4545V66.5682H359.374V61.4545H374.156ZM362.73 55.5739H369.537V78.4574C369.537 79.0859 369.633 79.576 369.825 79.9276C370.017 80.2685 370.283 80.5082 370.624 80.6467C370.976 80.7852 371.38 80.8544 371.839 80.8544C372.158 80.8544 372.478 80.8278 372.797 80.7745C373.117 80.7106 373.362 80.6626 373.532 80.6307L374.603 85.6964C374.262 85.8029 373.783 85.9254 373.165 86.0639C372.547 86.2131 371.796 86.3036 370.912 86.3356C369.271 86.3995 367.833 86.1811 366.597 85.6804C365.372 85.1797 364.418 84.402 363.737 83.3473C363.055 82.2926 362.719 80.9609 362.73 79.3523V55.5739ZM378.59 86V61.4545H385.398V86H378.59ZM382.01 58.2905C380.998 58.2905 380.13 57.9549 379.405 57.2837C378.691 56.6019 378.334 55.7869 378.334 54.8388C378.334 53.9013 378.691 53.0969 379.405 52.4258C380.13 51.744 380.998 51.4031 382.01 51.4031C383.022 51.4031 383.885 51.744 384.599 52.4258C385.323 53.0969 385.685 53.9013 385.685 54.8388C385.685 55.7869 385.323 56.6019 384.599 57.2837C383.885 57.9549 383.022 58.2905 382.01 58.2905ZM413.734 61.4545L405.153 86H397.483L388.901 61.4545H396.092L401.19 79.0167H401.446L406.527 61.4545H413.734ZM427.613 86.4794C425.088 86.4794 422.915 85.968 421.093 84.9453C419.282 83.9119 417.887 82.4524 416.906 80.5668C415.926 78.6705 415.436 76.4279 415.436 73.8391C415.436 71.3143 415.926 69.0984 416.906 67.1914C417.887 65.2844 419.266 63.7983 421.045 62.733C422.835 61.6676 424.934 61.1349 427.341 61.1349C428.961 61.1349 430.468 61.396 431.864 61.918C433.27 62.4293 434.495 63.2017 435.539 64.2351C436.594 65.2685 437.414 66.5682 438 68.1342C438.586 69.6896 438.879 71.5114 438.879 73.5994V75.4691H418.153V71.2504H432.471C432.471 70.2702 432.258 69.402 431.832 68.6456C431.406 67.8892 430.814 67.2979 430.058 66.8718C429.312 66.435 428.444 66.2166 427.453 66.2166C426.42 66.2166 425.504 66.4563 424.705 66.9357C423.916 67.4045 423.299 68.0384 422.851 68.8374C422.404 69.6257 422.175 70.5046 422.164 71.4741V75.4851C422.164 76.6996 422.388 77.7489 422.835 78.6332C423.293 79.5174 423.938 80.1992 424.769 80.6786C425.6 81.158 426.585 81.3977 427.725 81.3977C428.481 81.3977 429.174 81.2912 429.802 81.0781C430.431 80.8651 430.969 80.5455 431.416 80.1193C431.864 79.6932 432.205 79.1712 432.439 78.5533L438.735 78.9688C438.416 80.4815 437.761 81.8026 436.77 82.9318C435.79 84.0504 434.522 84.924 432.966 85.5526C431.422 86.1705 429.637 86.4794 427.613 86.4794Z" fill="white"/>
</svg>
