<svg width="140" height="140" viewBox="0 0 140 140" fill="none" xmlns="http://www.w3.org/2000/svg">
<rect width="140" height="140" rx="20" fill="#61DAFB"/>
<path d="M70.0003 80.5053C75.8022 80.5053 80.5055 75.8019 80.5055 70.0002C80.5055 64.1983 75.8022 59.4949 70.0003 59.4949C64.1984 59.4949 59.4952 64.1983 59.4952 70.0002C59.4952 75.8019 64.1984 80.5053 70.0003 80.5053Z" fill="#61DAFB"/>
<path d="M70.0003 80.5053C75.8022 80.5053 80.5055 75.8019 80.5055 70.0002C80.5055 64.1983 75.8022 59.4949 70.0003 59.4949C64.1984 59.4949 59.4952 64.1983 59.4952 70.0002C59.4952 75.8019 64.1984 80.5053 70.0003 80.5053Z" stroke="white" stroke-width="5"/>
<path d="M70.0002 91.5229C101.132 91.5229 126.37 81.8868 126.37 70C126.37 58.1134 101.132 48.4772 70.0002 48.4772C38.8683 48.4772 13.6309 58.1134 13.6309 70C13.6309 81.8868 38.8683 91.5229 70.0002 91.5229Z" stroke="white" stroke-width="5"/>
<path d="M51.3609 80.7614C66.9269 107.723 87.8906 124.761 98.1849 118.817C108.479 112.874 104.206 86.1996 88.6395 59.2386C73.0735 32.2775 52.1098 15.2394 41.8155 21.1827C31.5213 27.1261 35.7949 53.8004 51.3609 80.7614Z" stroke="white" stroke-width="5"/>
<path d="M51.3609 59.2386C35.795 86.1996 31.5213 112.874 41.8155 118.817C52.1098 124.761 73.0736 107.722 88.6395 80.7614C104.206 53.8004 108.479 27.1261 98.1849 21.1827C87.8907 15.2393 66.9269 32.2775 51.3609 59.2386Z" stroke="white" stroke-width="5"/>
</svg>
