<svg width="417" height="140" viewBox="0 0 417 140" fill="none" xmlns="http://www.w3.org/2000/svg">
<rect width="417" height="140" rx="20" fill="black"/>
<path d="M123.647 52.537C140.681 52.537 153.078 64.366 152.198 85.864H110.715C112.264 91.839 116.403 96.973 124.687 96.973C129.326 96.973 133.564 95.694 136.764 91.698H151.079L150.838 92.977C148.359 103.926 135.883 110 124.687 110C106.932 110 95.0171 98.012 95.0171 81.309C95.0171 64.605 106.932 52.537 123.647 52.537ZM243.688 52.537C260.803 52.537 273.12 64.366 272.32 85.864H230.826C232.356 91.839 236.465 96.973 244.809 96.973C249.447 96.973 253.686 95.694 256.805 91.698H271.201L270.96 92.977C268.481 103.926 256.005 110 244.809 110C227.054 110 215.138 98.012 215.138 81.309C215.138 64.605 227.054 52.537 243.688 52.537ZM182.669 52.217C195.304 52.217 206.421 56.773 209.62 67.962L209.94 69.162H194.186C190.826 65.005 186.347 64.445 182.669 64.445C179.23 64.445 173.792 65.325 173.792 68.682C173.792 71.798 177.39 72.837 180.509 73.236L189.627 74.196C204.101 75.474 210.5 81.149 210.5 92.258C210.5 105.045 197.784 109.84 185.229 109.84C172.672 109.84 159.635 104.246 157.156 92.897L156.917 91.698H173.071C175.31 98.09 185.622 97.613 185.229 97.612C191.306 97.612 195.064 95.774 195.065 92.817C195.065 90.899 194.425 88.661 188.188 87.862L178.67 86.903C166.114 86.024 158.516 79.391 158.516 69.481C158.516 57.333 170.033 52.218 182.669 52.218V52.217ZM397 108.401H381.485L382.285 100.649C380.126 105.285 373.168 109.839 364.451 109.839C350.056 109.839 338.379 98.811 338.379 81.389C338.379 63.966 349.896 52.937 364.451 52.937C372.368 52.937 377.247 55.494 381.565 59.89V30H397V108.401ZM67.9857 30C83.1801 30 92.2172 39.03 92.2172 51.019C92.2172 63.007 83.1811 72.038 67.9847 72.039H60.3075L98.4555 108.4H71.5041L42.4743 80.83C40.3939 78.912 39.4342 76.674 39.4342 74.756C39.4342 72.039 41.3536 69.642 45.0321 68.603L59.9873 64.607C65.6651 63.088 69.5838 58.692 69.5848 52.938C69.5848 45.906 63.8269 41.829 56.709 41.829H20V30H67.9857ZM309.828 52.617C323.424 52.617 332.941 62.527 332.941 76.673V108.4H317.426V79.31C317.426 71.318 313.187 66.522 305.67 66.522C298.152 66.522 293.273 71.477 293.273 79.309V108.4H278.079V53.736H293.512L292.794 62.447C295.033 58.052 301.99 52.617 309.828 52.617ZM368.129 66.523C358.773 66.523 353.814 73.477 353.814 81.389C353.814 89.86 359.412 96.334 368.129 96.334C376.526 96.334 381.965 89.78 381.965 81.389C381.965 72.997 376.686 66.523 368.129 66.523ZM123.647 64.925C116.088 64.925 111.768 69.437 110.428 75.475H136.593C136.42 74.7189 136.209 73.9717 135.963 73.236C134.044 67.802 129.565 64.925 123.647 64.925ZM243.688 64.925C236.194 64.925 231.887 69.437 230.55 75.475H256.715C256.541 74.7189 256.331 73.9717 256.085 73.236C254.166 67.802 249.687 64.925 243.688 64.925Z" fill="white"/>
</svg>
