<svg width="140" height="140" viewBox="0 0 140 140" fill="none" xmlns="http://www.w3.org/2000/svg">
<rect width="140" height="140" rx="20" fill="#962074"/>
<path d="M103.419 27.1429C101.443 27.1429 99.8385 25.5429 99.8385 23.5714C99.8385 21.6 98.2343 20 96.2577 20H86.7114C84.7348 20 83.1306 21.6 83.1306 23.5714V35.4786C83.1306 37.45 81.5265 39.05 79.5499 39.05H36.5808C34.6042 39.05 33 40.65 33 42.6214V109.286C33 111.257 34.6042 112.857 36.5808 112.857C38.5573 112.857 40.1615 114.457 40.1615 116.429C40.1615 118.4 41.7657 120 43.7423 120H53.2886C55.2652 120 56.8694 118.4 56.8694 116.429V104.521C56.8694 102.55 58.4735 100.95 60.4501 100.95H103.419C105.396 100.95 107 99.35 107 97.3786V30.7143C107 28.7429 105.396 27.1429 103.419 27.1429Z" fill="white"/>
<path d="M102.223 77.1429H37.7695V62.8571H102.223V77.1429Z" fill="#B2218B"/>
<path d="M102.223 58.0999H37.7695V43.8142H102.223V58.0999Z" fill="#ED168F"/>
<path d="M102.223 96.1858H37.7695V81.9001H102.223V96.1858ZM52.0997 100.95V115.236H44.9382V108.093H37.7767V100.95H52.0997Z" fill="#752A8A"/>
<path d="M95.0688 24.7642V31.9071H102.23V39.0499H87.9073V24.7642H95.0688Z" fill="#ED168F"/>
</svg>
