<svg width="140" height="140" viewBox="0 0 140 140" fill="none" xmlns="http://www.w3.org/2000/svg">
<rect width="140" height="140" rx="20" fill="url(#paint0_linear_206_14)"/>
<path d="M104.179 94.1928C119.812 78.5292 122.41 55.7374 109.982 43.2849C97.556 30.8338 74.8116 33.4368 59.1799 49.0995C43.5482 64.7627 48.0701 94.6877 53.3781 100.007C57.6674 104.306 88.5486 109.856 104.179 94.1928Z" fill="#F89939"/>
<path d="M40.0362 71.5592C30.9674 62.4719 17.7695 60.9591 10.5576 68.1852C3.34758 75.4105 4.85504 88.6372 13.9257 97.7231C22.9963 106.813 40.3247 104.184 43.4024 101.097C45.893 98.6056 49.1077 80.6475 40.0362 71.5592Z" fill="#3499CD"/>
<path d="M71.3269 90.3536C69.7248 91.8313 68.3193 92.9219 67.1114 93.6226C65.9035 94.3256 64.7514 94.6766 63.6552 94.6766C62.3942 94.6766 61.377 94.1868 60.6057 93.2068C59.833 92.2258 59.4481 90.9104 59.4481 89.2556C59.4481 86.7761 59.9844 83.7994 61.0571 80.3288C62.1279 76.8554 63.4318 73.6548 64.9633 70.7267L69.4538 69.0608C69.5946 69.0136 69.7017 68.9895 69.7728 68.9895C70.1134 68.9895 70.395 69.2411 70.611 69.742C70.8293 70.2452 70.9391 70.9214 70.9391 71.7715C70.9391 74.1807 70.3857 76.5131 69.2766 78.7688C68.1679 81.0253 66.4361 83.4336 64.0794 85.9963C63.9848 87.2247 63.9377 88.0683 63.9377 88.5295C63.9377 89.5576 64.126 90.3712 64.5031 90.9738C64.8807 91.5774 65.381 91.8771 66.006 91.8771C66.6434 91.8771 67.3205 91.6486 68.0396 91.1879C68.7573 90.7264 69.8535 89.7708 71.3264 88.3172V90.3536H71.3269ZM64.5567 83.4285C66.053 81.7612 67.2683 79.8913 68.1988 77.8225C69.1293 75.7528 69.5941 73.9726 69.5941 72.481C69.5941 72.0462 69.53 71.6929 69.4012 71.4274C69.2715 71.1615 69.1054 71.0278 68.9055 71.0278C68.4712 71.0278 67.8365 72.1156 67.0052 74.2917C66.174 76.4673 65.3579 79.5134 64.5567 83.4285Z" fill="#010101"/>
<path d="M84.5515 90.3536C83.0551 91.8313 81.712 92.9219 80.5211 93.6226C79.3303 94.3256 78.0176 94.6766 76.579 94.6766C74.976 94.6766 73.6827 94.1628 72.6972 93.1365C71.7136 92.1074 71.2225 90.7564 71.2225 89.0789C71.2225 86.5758 72.088 84.311 73.8225 82.2856C75.5534 80.2594 77.4753 79.247 79.5846 79.247C80.6809 79.247 81.5578 79.5314 82.2188 80.098C82.8788 80.6655 83.2088 81.4087 83.2088 82.33C83.2088 84.7753 80.6162 86.7581 75.4306 88.282C75.9014 90.5839 77.1328 91.7365 79.1249 91.7365C79.9031 91.7365 80.6448 91.527 81.3515 91.1088C82.06 90.6889 83.1257 89.7574 84.552 88.3176L84.5515 90.3536ZM75.288 87.0772C78.3043 86.2262 79.8136 84.6564 79.8136 82.3652C79.8136 81.2316 79.4005 80.665 78.5766 80.665C77.7984 80.665 77.0567 81.2575 76.35 82.4457C75.6411 83.632 75.288 85.1749 75.288 87.0772Z" fill="#010101"/>
<path d="M103.432 90.3536C101.546 92.1486 100.197 93.3192 99.3843 93.8631C98.571 94.4061 97.7933 94.6771 97.0501 94.6771C95.1877 94.6771 94.3103 93.0301 94.416 89.7348C93.2376 91.4229 92.1497 92.6689 91.1537 93.4736C90.1586 94.2766 89.1307 94.6771 88.0686 94.6771C87.0329 94.6771 86.1522 94.191 85.4262 93.2165C84.7001 92.242 84.3397 91.0469 84.3397 89.6284C84.3397 87.8579 84.8248 86.1688 85.7963 84.5616C86.7698 82.9553 88.016 81.6576 89.5359 80.6655C91.0558 79.6734 92.4008 79.1767 93.5663 79.1767C95.04 79.1767 96.0716 79.8561 96.661 81.2136L100.274 79.2128H101.266L99.705 84.4025C98.9038 87.0134 98.5018 88.8028 98.5018 89.7708C98.5018 90.786 98.8604 91.2938 99.58 91.2938C100.038 91.2938 100.545 91.0492 101.099 90.5585C101.653 90.0677 102.43 89.3208 103.431 88.3172V90.3536H103.432ZM90.4913 91.329C91.6697 91.329 92.7802 90.3226 93.8252 88.3093C94.8683 86.2951 95.3894 84.4368 95.3894 82.7366C95.3894 82.0761 95.2408 81.5586 94.9477 81.1872C94.6519 80.8139 94.2572 80.6289 93.7634 80.6289C92.5841 80.6289 91.4662 81.6326 90.4133 83.6408C89.3587 85.649 88.8302 87.4972 88.8302 89.1844C88.8302 89.8231 88.9871 90.3397 89.2991 90.7356C89.6111 91.1315 90.0072 91.329 90.4913 91.329Z" fill="#010101"/>
<path d="M116.639 90.3536C113.68 93.2586 111.399 94.7122 109.797 94.7122C109.077 94.7122 108.47 94.4079 107.976 93.8016C107.482 93.1929 107.233 92.4395 107.233 91.5413C107.233 89.8763 108.124 87.6452 109.903 84.8456C109.03 85.2947 108.077 85.6064 107.039 85.784C106.273 87.2011 105.07 88.7251 103.433 90.3531H103.027V88.7607C103.945 87.8042 104.777 86.7761 105.519 85.6777C104.504 85.2286 103.998 84.5612 103.998 83.6769C103.998 82.7662 104.307 81.7954 104.927 80.7608C105.546 79.7284 106.397 79.2123 107.482 79.2123C108.401 79.2123 108.86 79.6831 108.86 80.6285C108.86 81.3727 108.595 82.435 108.064 83.8175C110.02 83.6042 111.729 82.1057 113.191 79.3177L114.799 79.2465L113.155 83.7814C112.472 85.6948 112.03 86.9981 111.83 87.6882C111.63 88.3782 111.529 88.9906 111.529 89.5211C111.529 90.0178 111.645 90.4146 111.874 90.7079C112.104 91.0052 112.414 91.1514 112.802 91.1514C113.226 91.1514 113.634 91.0062 114.022 90.7185C114.411 90.4267 115.283 89.6274 116.639 88.3167V90.3536H116.639Z" fill="#010101"/>
<path d="M134 90.3536C131.278 93.2368 128.943 94.6771 126.999 94.6771C126.209 94.6771 125.573 94.3996 125.09 93.8441C124.605 93.2896 124.364 92.5459 124.364 91.613C124.364 90.3494 124.883 88.418 125.921 85.821C126.474 84.427 126.752 83.54 126.752 83.1635C126.752 82.7852 126.603 82.596 126.31 82.596C126.146 82.596 125.926 82.6792 125.656 82.8434C125.407 83.0085 125.119 83.2407 124.789 83.5353C124.495 83.8064 124.164 84.1371 123.799 84.5256C123.48 84.859 123.138 85.2364 122.774 85.6601L121.783 86.8126C121.348 87.3436 121.076 87.9037 120.971 88.4948C120.793 89.4984 120.676 90.4206 120.616 91.2601C120.58 91.8845 120.563 92.7281 120.563 93.7932L116.656 94.7127C116.527 93.1184 116.461 91.9312 116.461 91.1528C116.461 89.2514 116.682 87.45 117.125 85.7498C117.567 84.0478 118.276 82.1358 119.255 80.0092L123.568 79.1771C122.661 81.6224 122.066 83.5464 121.783 84.9511C123.716 82.7902 125.248 81.2945 126.384 80.4606C127.518 79.6276 128.528 79.2132 129.411 79.2132C130.01 79.2132 130.512 79.4398 130.911 79.8936C131.312 80.3477 131.511 80.918 131.511 81.5997C131.511 82.7324 131.004 84.5986 129.992 87.1979C129.296 88.9804 128.948 90.1371 128.948 90.6713C128.948 91.3822 129.238 91.7374 129.816 91.7374C130.678 91.7374 132.074 90.5973 134 88.3181V90.3536Z" fill="#010101"/>
<path d="M79.4444 65.7053L79.01 65.8286C78.9827 65.756 78.9424 65.6855 78.8891 65.617C78.8372 65.5472 78.7662 65.4897 78.676 65.4445C78.5859 65.3993 78.4704 65.3767 78.3297 65.3767C78.1371 65.3767 77.9766 65.4212 77.8482 65.5102C77.7212 65.5978 77.6577 65.7094 77.6577 65.845C77.6577 65.9655 77.7014 66.0607 77.7888 66.1305C77.8762 66.2004 78.0128 66.2586 78.1986 66.3051L78.6658 66.4202C78.9472 66.4886 79.1568 66.5934 79.2948 66.7344C79.4328 66.8741 79.5018 67.0542 79.5018 67.2746C79.5018 67.4554 79.4498 67.617 79.346 67.7594C79.2436 67.9018 79.1002 68.0141 78.9157 68.0963C78.7313 68.1784 78.5169 68.2195 78.2724 68.2195C77.9514 68.2195 77.6857 68.1497 77.4753 68.01C77.265 67.8703 77.1318 67.6663 77.0758 67.3979L77.5348 67.2829C77.5785 67.4527 77.6611 67.58 77.7827 67.6649C77.9056 67.7498 78.0661 67.7923 78.2642 67.7923C78.4896 67.7923 78.6685 67.7443 78.801 67.6485C78.9349 67.5513 79.0018 67.4349 79.0018 67.2993C79.0018 67.1897 78.9636 67.098 78.8871 67.024C78.8106 66.9487 78.6931 66.8926 78.5346 66.8556L78.0101 66.7324C77.7219 66.6639 77.5102 66.5578 77.3749 66.414C77.2411 66.2688 77.1741 66.0874 77.1741 65.8697C77.1741 65.6916 77.224 65.5342 77.3237 65.3972C77.4248 65.2603 77.5621 65.1528 77.7355 65.0747C77.9104 64.9967 78.1085 64.9577 78.3297 64.9577C78.6412 64.9577 78.8857 65.0261 79.0633 65.1631C79.2422 65.3 79.3693 65.4808 79.4444 65.7053Z" fill="white"/>
<path d="M81.5082 68.2195C81.2131 68.2195 80.9591 68.1497 80.746 68.01C80.5329 67.8703 80.369 67.6779 80.2542 67.4328C80.1395 67.1877 80.0821 66.9076 80.0821 66.5927C80.0821 66.2723 80.1409 65.9895 80.2583 65.7444C80.3772 65.4979 80.5425 65.3055 80.7542 65.1672C80.9673 65.0275 81.2159 64.9577 81.5 64.9577C81.7213 64.9577 81.9207 64.9987 82.0983 65.0809C82.2759 65.1631 82.4214 65.2781 82.5347 65.426C82.6481 65.5739 82.7185 65.7464 82.7458 65.9436H82.2622C82.2253 65.7998 82.1434 65.6725 82.0163 65.5616C81.8907 65.4493 81.7213 65.3931 81.5082 65.3931C81.3197 65.3931 81.1544 65.4424 81.0124 65.541C80.8717 65.6382 80.7617 65.7759 80.6825 65.9539C80.6046 66.1305 80.5657 66.338 80.5657 66.5763C80.5657 66.82 80.6039 67.0323 80.6804 67.213C80.7583 67.3938 80.8676 67.5341 81.0083 67.6341C81.1503 67.7341 81.317 67.784 81.5082 67.784C81.6339 67.784 81.7479 67.7621 81.8504 67.7183C81.9528 67.6745 82.0396 67.6115 82.1106 67.5293C82.1816 67.4472 82.2322 67.3486 82.2622 67.2336H82.7458C82.7185 67.4198 82.6508 67.5875 82.5429 67.7368C82.4364 67.8847 82.295 68.0025 82.1188 68.0901C81.9439 68.1764 81.7404 68.2195 81.5082 68.2195Z" fill="white"/>
<path d="M83.4527 68.1538V64.9987H83.9362V68.1538H83.4527ZM83.6985 64.4729C83.6043 64.4729 83.523 64.4407 83.4547 64.3764C83.3878 64.312 83.3543 64.2346 83.3543 64.1443C83.3543 64.0539 83.3878 63.9765 83.4547 63.9121C83.523 63.8478 83.6043 63.8156 83.6985 63.8156C83.7928 63.8156 83.8734 63.8478 83.9403 63.9121C84.0086 63.9765 84.0428 64.0539 84.0428 64.1443C84.0428 64.2346 84.0086 64.312 83.9403 64.3764C83.8734 64.4407 83.7928 64.4729 83.6985 64.4729Z" fill="white"/>
<path d="M85.2726 67.0035L85.2645 66.4037H85.3628L86.7397 64.9987H87.338L85.8709 66.4859H85.83L85.2726 67.0035ZM84.8219 68.1538V63.9471H85.3054V68.1538H84.8219ZM86.8217 68.1538L85.5923 66.5927L85.9365 66.2558L87.4364 68.1538H86.8217Z" fill="white"/>
<path d="M87.9604 68.1538V64.9987H88.4439V68.1538H87.9604ZM88.2063 64.4729C88.112 64.4729 88.0307 64.4407 87.9624 64.3764C87.8955 64.312 87.862 64.2346 87.862 64.1443C87.862 64.0539 87.8955 63.9765 87.9624 63.9121C88.0307 63.8478 88.112 63.8156 88.2063 63.8156C88.3005 63.8156 88.3811 63.8478 88.448 63.9121C88.5163 63.9765 88.5505 64.0539 88.5505 64.1443C88.5505 64.2346 88.5163 64.312 88.448 64.3764C88.3811 64.4407 88.3005 64.4729 88.2063 64.4729Z" fill="white"/>
<path d="M90.6983 64.9987V65.4096H89.0673V64.9987H90.6983ZM89.5427 64.2428H90.0262V67.25C90.0262 67.3869 90.046 67.4896 90.0857 67.5581C90.1266 67.6252 90.1785 67.6704 90.2414 67.6937C90.3056 67.7156 90.3732 67.7265 90.4442 67.7265C90.4975 67.7265 90.5412 67.7238 90.5754 67.7183C90.6095 67.7115 90.6368 67.706 90.6573 67.7019L90.7557 68.1373C90.7229 68.1497 90.6771 68.162 90.6184 68.1743C90.5597 68.188 90.4852 68.1949 90.3951 68.1949C90.2585 68.1949 90.1246 68.1654 89.9935 68.1065C89.8637 68.0477 89.7558 67.958 89.6697 67.8375C89.585 67.7169 89.5427 67.5649 89.5427 67.3815V64.2428Z" fill="white"/>
<defs>
<linearGradient id="paint0_linear_206_14" x1="0" y1="0" x2="163.111" y2="103.62" gradientUnits="userSpaceOnUse">
<stop stop-color="#A3E0FF"/>
<stop offset="1" stop-color="#FF8C17"/>
</linearGradient>
</defs>
</svg>
