<svg width="337" height="140" viewBox="0 0 337 140" fill="none" xmlns="http://www.w3.org/2000/svg">
<rect width="337" height="140" rx="20" fill="#1B3965"/>
<path d="M60.787 92.7087L66.3967 79.0633H78.6671C83.1687 79.0633 87.138 75.8522 87.8063 71.4005C88.001 70.1124 87.9158 68.7974 87.5564 67.5452C87.1971 66.293 86.572 65.1329 85.7237 64.1441C84.8755 63.1553 83.8241 62.3609 82.6412 61.8152C81.4582 61.2694 80.1716 60.9851 78.8688 60.9815H38.1849L60.787 38.3793V47.2237H78.802C89.5629 47.2237 99.9297 55.8911 101.474 66.5409C101.958 69.6858 101.772 72.8975 100.929 75.9658C100.086 79.034 98.6042 81.8895 96.581 84.3454C94.5578 86.8014 92.0387 88.8024 89.1887 90.2174C86.3387 91.6325 83.222 92.4297 80.0425 92.557L98.5397 111.055C108.353 104.233 115.398 94.1214 118.399 82.5527C121.399 70.9839 120.156 58.7231 114.896 47.9917C109.635 37.2602 100.704 28.7681 89.722 24.0539C78.7395 19.3398 66.4317 18.7155 55.0286 22.2941C43.6254 25.8727 33.8813 33.4176 27.5618 43.5616C21.2422 53.7057 18.7652 65.7778 20.5797 77.5908C22.3941 89.4038 28.3799 100.176 37.4525 107.956C46.5251 115.736 58.0844 120.009 70.0359 120C75.3478 120.007 80.6243 119.136 85.6522 117.423L60.787 92.7087Z" fill="#2BB3EB"/>
<path d="M170.598 62.685C170.471 61.396 169.922 60.3945 168.952 59.6808C167.983 58.967 166.667 58.6101 165.005 58.6101C163.876 58.6101 162.923 58.7699 162.145 59.0895C161.367 59.3984 160.771 59.8299 160.355 60.3839C159.95 60.9379 159.748 61.5664 159.748 62.2695C159.727 62.8555 159.849 63.3668 160.115 63.8036C160.392 64.2404 160.771 64.6186 161.25 64.9382C161.729 65.2472 162.283 65.5188 162.912 65.7532C163.54 65.9769 164.212 66.1687 164.925 66.3285L167.866 67.0316C169.293 67.3512 170.604 67.7773 171.797 68.31C172.99 68.8427 174.023 69.4979 174.897 70.2756C175.771 71.0533 176.447 71.9695 176.926 73.0241C177.417 74.0788 177.667 75.288 177.678 76.6516C177.667 78.6545 177.156 80.391 176.143 81.8612C175.142 83.3207 173.693 84.4553 171.797 85.2649C169.911 86.0639 167.637 86.4634 164.973 86.4634C162.331 86.4634 160.03 86.0586 158.07 85.2489C156.12 84.4393 154.597 83.2408 153.5 81.6534C152.413 80.0554 151.843 78.0792 151.79 75.7248H158.485C158.56 76.8221 158.874 77.7383 159.428 78.4734C159.993 79.1978 160.744 79.7464 161.681 80.1193C162.63 80.4815 163.7 80.6626 164.893 80.6626C166.065 80.6626 167.083 80.4922 167.946 80.1513C168.819 79.8104 169.496 79.3363 169.975 78.729C170.455 78.1218 170.694 77.424 170.694 76.6357C170.694 75.9006 170.476 75.2827 170.039 74.782C169.613 74.2812 168.984 73.8551 168.153 73.5036C167.333 73.152 166.326 72.8324 165.133 72.5447L161.57 71.6499C158.81 70.9787 156.632 69.9293 155.034 68.5018C153.436 67.0742 152.642 65.1513 152.653 62.733C152.642 60.7514 153.169 59.0202 154.235 57.5394C155.311 56.0586 156.786 54.9027 158.661 54.0717C160.536 53.2408 162.667 52.8253 165.053 52.8253C167.482 52.8253 169.602 53.2408 171.413 54.0717C173.235 54.9027 174.652 56.0586 175.664 57.5394C176.676 59.0202 177.198 60.7354 177.23 62.685H170.598ZM182.204 86V61.4545H189.011V86H182.204ZM185.624 58.2905C184.612 58.2905 183.743 57.9549 183.019 57.2837C182.305 56.6019 181.948 55.7869 181.948 54.8388C181.948 53.9013 182.305 53.0969 183.019 52.4258C183.743 51.744 184.612 51.4031 185.624 51.4031C186.636 51.4031 187.499 51.744 188.212 52.4258C188.937 53.0969 189.299 53.9013 189.299 54.8388C189.299 55.7869 188.937 56.6019 188.212 57.2837C187.499 57.9549 186.636 58.2905 185.624 58.2905ZM205.523 95.7159C203.318 95.7159 201.427 95.4123 199.85 94.805C198.284 94.2085 197.037 93.3935 196.111 92.3601C195.184 91.3267 194.582 90.1655 194.305 88.8764L200.601 88.0295C200.793 88.5195 201.096 88.9776 201.512 89.4038C201.927 89.8299 202.476 90.1708 203.158 90.4265C203.85 90.6928 204.692 90.826 205.683 90.826C207.164 90.826 208.383 90.4638 209.342 89.7393C210.312 89.0256 210.796 87.8271 210.796 86.1438V81.6534H210.509C210.21 82.3352 209.763 82.9798 209.166 83.587C208.57 84.1942 207.803 84.6896 206.865 85.0732C205.928 85.4567 204.809 85.6484 203.509 85.6484C201.666 85.6484 199.988 85.2223 198.476 84.37C196.974 83.5071 195.775 82.1914 194.88 80.4229C193.996 78.6438 193.554 76.396 193.554 73.6793C193.554 70.8988 194.007 68.5763 194.912 66.712C195.818 64.8477 197.021 63.4521 198.524 62.5252C200.036 61.5984 201.693 61.1349 203.493 61.1349C204.868 61.1349 206.018 61.3693 206.945 61.8381C207.872 62.2962 208.618 62.8714 209.182 63.5639C209.758 64.2457 210.2 64.9169 210.509 65.5774H210.764V61.4545H217.524V86.2397C217.524 88.3278 217.013 90.0749 215.99 91.4812C214.967 92.8874 213.55 93.9421 211.739 94.6452C209.939 95.359 207.867 95.7159 205.523 95.7159ZM205.667 80.5348C206.764 80.5348 207.691 80.2631 208.447 79.7198C209.214 79.1658 209.8 78.3775 210.205 77.3548C210.621 76.3214 210.828 75.0856 210.828 73.6474C210.828 72.2092 210.626 70.9627 210.221 69.908C209.816 68.8427 209.23 68.017 208.463 67.4311C207.696 66.8452 206.764 66.5522 205.667 66.5522C204.548 66.5522 203.605 66.8558 202.838 67.4631C202.071 68.0597 201.491 68.8906 201.096 69.956C200.702 71.0213 200.505 72.2518 200.505 73.6474C200.505 75.0643 200.702 76.2894 201.096 77.3228C201.501 78.3455 202.082 79.1392 202.838 79.7038C203.605 80.2578 204.548 80.5348 205.667 80.5348ZM229.749 71.8097V86H222.941V61.4545H229.429V65.7852H229.717C230.26 64.3576 231.171 63.2283 232.449 62.3974C233.728 61.5558 235.278 61.1349 237.1 61.1349C238.804 61.1349 240.29 61.5078 241.558 62.2536C242.826 62.9993 243.811 64.0646 244.514 65.4496C245.218 66.8239 245.569 68.4645 245.569 70.3714V86H238.762V71.5859C238.772 70.0838 238.389 68.9119 237.611 68.0703C236.833 67.218 235.763 66.7919 234.399 66.7919C233.483 66.7919 232.673 66.989 231.97 67.3832C231.278 67.7773 230.734 68.3526 230.34 69.109C229.956 69.8548 229.759 70.755 229.749 71.8097ZM257.934 86.4634C256.368 86.4634 254.972 86.1918 253.747 85.6484C252.522 85.0945 251.552 84.2795 250.839 83.2035C250.135 82.1168 249.784 80.7638 249.784 79.1445C249.784 77.7809 250.034 76.6357 250.535 75.7088C251.036 74.782 251.717 74.0362 252.58 73.4716C253.443 72.907 254.423 72.4808 255.521 72.1932C256.629 71.9055 257.79 71.7031 259.004 71.5859C260.432 71.4368 261.582 71.2983 262.456 71.1705C263.33 71.032 263.964 70.8295 264.358 70.5632C264.752 70.2969 264.949 69.9027 264.949 69.3807V69.2848C264.949 68.2727 264.629 67.4897 263.99 66.9357C263.362 66.3817 262.467 66.1048 261.305 66.1048C260.08 66.1048 259.106 66.3764 258.381 66.9197C257.657 67.4524 257.177 68.1236 256.943 68.9332L250.647 68.4219C250.966 66.9304 251.595 65.6413 252.532 64.5547C253.47 63.4574 254.679 62.6158 256.16 62.0298C257.651 61.4332 259.377 61.1349 261.337 61.1349C262.701 61.1349 264.006 61.2947 265.253 61.6143C266.51 61.9339 267.623 62.4293 268.592 63.1005C269.573 63.7717 270.345 64.6346 270.91 65.6893C271.474 66.7333 271.756 67.9851 271.756 69.4446V86H265.301V82.5962H265.109C264.715 83.3633 264.187 84.0398 263.527 84.6257C262.866 85.201 262.073 85.6538 261.146 85.984C260.219 86.3036 259.148 86.4634 257.934 86.4634ZM259.883 81.7653C260.885 81.7653 261.769 81.5682 262.536 81.174C263.303 80.7692 263.905 80.2259 264.342 79.544C264.778 78.8622 264.997 78.0898 264.997 77.2269V74.6222C264.784 74.7607 264.491 74.8885 264.118 75.0057C263.756 75.1122 263.346 75.2134 262.888 75.3093C262.429 75.3945 261.971 75.4744 261.513 75.549C261.055 75.6129 260.64 75.6715 260.267 75.7248C259.468 75.842 258.77 76.0284 258.173 76.2841C257.577 76.5398 257.113 76.886 256.783 77.3228C256.453 77.7489 256.288 78.2816 256.288 78.9208C256.288 79.8477 256.623 80.5561 257.294 81.0462C257.976 81.5256 258.839 81.7653 259.883 81.7653ZM283.845 53.2727V86H277.038V53.2727H283.845ZM289.426 86V53.2727H302.338C304.81 53.2727 306.919 53.7148 308.667 54.5991C310.424 55.4727 311.761 56.7138 312.678 58.3224C313.604 59.9205 314.068 61.8008 314.068 63.9634C314.068 66.1367 313.599 68.0064 312.662 69.5724C311.724 71.1278 310.366 72.321 308.587 73.152C306.818 73.983 304.677 74.3984 302.163 74.3984H293.517V68.8374H301.044C302.365 68.8374 303.462 68.6562 304.336 68.294C305.21 67.9318 305.859 67.3885 306.286 66.6641C306.722 65.9396 306.941 65.0394 306.941 63.9634C306.941 62.8768 306.722 61.9606 306.286 61.2148C305.859 60.4691 305.204 59.9045 304.32 59.521C303.446 59.1268 302.344 58.9297 301.012 58.9297H296.346V86H289.426ZM307.1 71.1065L315.234 86H307.596L299.638 71.1065H307.1Z" fill="white"/>
</svg>
