<svg width="140" height="140" viewBox="0 0 140 140" fill="none" xmlns="http://www.w3.org/2000/svg">
<rect width="140" height="140" rx="20" fill="black"/>
<path fill-rule="evenodd" clip-rule="evenodd" d="M70 28.0645C46.8397 28.0645 28.0645 46.8397 28.0645 70C28.0645 93.1603 46.8397 111.935 70 111.935C93.1603 111.935 111.935 93.1603 111.935 70C111.935 46.8397 93.1603 28.0645 70 28.0645ZM20 70C20 42.3858 42.3858 20 70 20C97.6142 20 120 42.3858 120 70C120 97.6142 97.6142 120 70 120C42.3858 120 20 97.6142 20 70Z" fill="white"/>
<path d="M57.7569 67.4556C68.7758 58.4532 79.5544 49.1387 90.8133 40.4004C84.9077 49.475 78.8343 58.429 72.9286 67.5032C67.8633 67.5274 62.7984 67.5278 57.7569 67.4556ZM67.0714 72.4726C72.1605 72.4726 77.2258 72.4726 82.2911 72.5448C71.2004 81.4988 60.4698 90.8851 49.1867 99.5996C55.0923 90.525 61.1657 81.5472 67.0714 72.4726Z" fill="white"/>
</svg>
