<svg width="317" height="140" viewBox="0 0 317 140" fill="none" xmlns="http://www.w3.org/2000/svg">
<rect width="316.098" height="140" rx="20" fill="#6CB52D"/>
<path d="M111.148 25.7525C109.71 29.2487 107.85 32.3481 105.792 35.1252C96.7171 25.8765 84.0218 20 70.0124 20C42.4895 20 20 42.3655 20 69.9876C20 84.4185 26.1741 97.4114 35.9683 106.586L37.8279 108.247C46.4815 115.562 57.7387 120 69.9876 120C96.2708 120 117.917 99.4942 119.777 73.6077C121.265 61.0364 117.446 44.9442 111.148 25.7525ZM43.2085 107.007C41.7704 108.867 39.0925 109.065 37.2328 107.627C35.3732 106.189 35.1748 103.511 36.6129 101.651C38.0511 99.7917 40.729 99.5934 42.5886 101.031C44.3491 102.47 44.6467 105.148 43.2085 107.007ZM110.85 92.0555C98.5767 108.445 72.1944 102.891 55.3831 103.709C55.3831 103.709 52.3828 103.908 49.4074 104.329C49.4074 104.329 50.548 103.809 51.9861 103.288C63.8383 99.1718 69.4173 98.3288 76.6328 94.6343C90.1463 87.7163 103.635 72.5663 106.338 56.8956C101.18 71.9464 85.5095 84.9392 71.277 90.1959C61.4828 93.816 43.8532 97.3122 43.8532 97.3122L43.1341 96.8906C31.1827 91.0141 30.7612 65.0285 52.6308 56.6725C62.2266 52.9531 71.3018 55.0112 81.7158 52.5564C92.7498 49.9777 105.544 41.7208 110.677 30.91C116.405 48.3412 123.422 75.3434 110.85 92.0555Z" fill="white"/>
<path d="M170.697 62.685C170.569 61.396 170.02 60.3945 169.051 59.6808C168.081 58.967 166.765 58.6101 165.103 58.6101C163.974 58.6101 163.021 58.7699 162.243 59.0895C161.465 59.3984 160.869 59.8299 160.453 60.3839C160.048 60.9379 159.846 61.5664 159.846 62.2695C159.825 62.8555 159.947 63.3668 160.214 63.8036C160.491 64.2404 160.869 64.6186 161.348 64.9382C161.828 65.2472 162.382 65.5188 163.01 65.7532C163.639 65.9769 164.31 66.1687 165.024 66.3285L167.964 67.0316C169.391 67.3512 170.702 67.7773 171.895 68.31C173.088 68.8427 174.122 69.4979 174.995 70.2756C175.869 71.0533 176.545 71.9695 177.025 73.0241C177.515 74.0788 177.765 75.288 177.776 76.6516C177.765 78.6545 177.254 80.391 176.242 81.8612C175.24 83.3207 173.791 84.4553 171.895 85.2649C170.009 86.0639 167.735 86.4634 165.072 86.4634C162.429 86.4634 160.128 86.0586 158.168 85.2489C156.219 84.4393 154.695 83.2408 153.598 81.6534C152.511 80.0554 151.941 78.0792 151.888 75.7248H158.584C158.658 76.8221 158.972 77.7383 159.526 78.4734C160.091 79.1978 160.842 79.7464 161.78 80.1193C162.728 80.4815 163.798 80.6626 164.992 80.6626C166.163 80.6626 167.181 80.4922 168.044 80.1513C168.917 79.8104 169.594 79.3363 170.073 78.729C170.553 78.1218 170.792 77.424 170.792 76.6357C170.792 75.9006 170.574 75.2827 170.137 74.782C169.711 74.2812 169.083 73.8551 168.252 73.5036C167.431 73.152 166.424 72.8324 165.231 72.5447L161.668 71.6499C158.909 70.9787 156.73 69.9293 155.132 68.5018C153.534 67.0742 152.74 65.1513 152.751 62.733C152.74 60.7514 153.268 59.0202 154.333 57.5394C155.409 56.0586 156.884 54.9027 158.759 54.0717C160.634 53.2408 162.765 52.8253 165.151 52.8253C167.58 52.8253 169.7 53.2408 171.511 54.0717C173.333 54.9027 174.75 56.0586 175.762 57.5394C176.774 59.0202 177.296 60.7354 177.328 62.685H170.697ZM182.302 95.2045V61.4545H189.014V65.5774H189.317C189.616 64.9169 190.047 64.2457 190.612 63.5639C191.187 62.8714 191.933 62.2962 192.849 61.8381C193.776 61.3693 194.926 61.1349 196.301 61.1349C198.09 61.1349 199.742 61.6037 201.254 62.5412C202.767 63.468 203.976 64.869 204.882 66.744C205.788 68.6083 206.24 70.9467 206.24 73.7592C206.24 76.4972 205.798 78.8089 204.914 80.6946C204.04 82.5696 202.847 83.9918 201.334 84.9613C199.832 85.9201 198.149 86.3995 196.285 86.3995C194.964 86.3995 193.84 86.1811 192.913 85.7443C191.997 85.3075 191.246 84.7589 190.66 84.0984C190.074 83.4272 189.626 82.7507 189.317 82.0689H189.11V95.2045H182.302ZM188.966 73.7273C188.966 75.1868 189.168 76.4599 189.573 77.5465C189.978 78.6332 190.564 79.4801 191.331 80.0874C192.098 80.6839 193.03 80.9822 194.127 80.9822C195.235 80.9822 196.173 80.6786 196.94 80.0714C197.707 79.4535 198.288 78.6012 198.682 77.5146C199.087 76.4173 199.289 75.1548 199.289 73.7273C199.289 72.3104 199.092 71.0639 198.698 69.9879C198.303 68.9119 197.723 68.0703 196.956 67.4631C196.189 66.8558 195.246 66.5522 194.127 66.5522C193.019 66.5522 192.082 66.8452 191.315 67.4311C190.558 68.017 189.978 68.848 189.573 69.924C189.168 71 188.966 72.2678 188.966 73.7273ZM210.779 86V61.4545H217.378V65.7372H217.634C218.082 64.2138 218.833 63.0632 219.887 62.2855C220.942 61.4972 222.156 61.103 223.531 61.103C223.872 61.103 224.239 61.1243 224.633 61.1669C225.028 61.2095 225.374 61.2681 225.672 61.3427V67.3832C225.352 67.2873 224.91 67.2021 224.346 67.1275C223.781 67.0529 223.264 67.0156 222.796 67.0156C221.794 67.0156 220.899 67.234 220.111 67.6708C219.333 68.0969 218.715 68.6935 218.257 69.4606C217.81 70.2276 217.586 71.1119 217.586 72.1133V86H210.779ZM229.192 86V61.4545H235.999V86H229.192ZM232.611 58.2905C231.599 58.2905 230.731 57.9549 230.007 57.2837C229.293 56.6019 228.936 55.7869 228.936 54.8388C228.936 53.9013 229.293 53.0969 230.007 52.4258C230.731 51.744 231.599 51.4031 232.611 51.4031C233.624 51.4031 234.486 51.744 235.2 52.4258C235.925 53.0969 236.287 53.9013 236.287 54.8388C236.287 55.7869 235.925 56.6019 235.2 57.2837C234.486 57.9549 233.624 58.2905 232.611 58.2905ZM248.26 71.8097V86H241.452V61.4545H247.94V65.7852H248.228C248.771 64.3576 249.682 63.2283 250.961 62.3974C252.239 61.5558 253.789 61.1349 255.611 61.1349C257.315 61.1349 258.802 61.5078 260.069 62.2536C261.337 62.9993 262.322 64.0646 263.026 65.4496C263.729 66.8239 264.08 68.4645 264.08 70.3714V86H257.273V71.5859C257.283 70.0838 256.9 68.9119 256.122 68.0703C255.345 67.218 254.274 66.7919 252.91 66.7919C251.994 66.7919 251.184 66.989 250.481 67.3832C249.789 67.7773 249.245 68.3526 248.851 69.109C248.468 69.8548 248.271 70.755 248.26 71.8097ZM280.504 95.7159C278.299 95.7159 276.408 95.4123 274.831 94.805C273.265 94.2085 272.018 93.3935 271.092 92.3601C270.165 91.3267 269.563 90.1655 269.286 88.8764L275.582 88.0295C275.774 88.5195 276.077 88.9776 276.493 89.4038C276.908 89.8299 277.457 90.1708 278.139 90.4265C278.831 90.6928 279.673 90.826 280.664 90.826C282.144 90.826 283.364 90.4638 284.323 89.7393C285.293 89.0256 285.777 87.8271 285.777 86.1438V81.6534H285.49C285.191 82.3352 284.744 82.9798 284.147 83.587C283.551 84.1942 282.784 84.6896 281.846 85.0732C280.909 85.4567 279.79 85.6484 278.49 85.6484C276.647 85.6484 274.969 85.2223 273.457 84.37C271.955 83.5071 270.756 82.1914 269.861 80.4229C268.977 78.6438 268.535 76.396 268.535 73.6793C268.535 70.8988 268.988 68.5763 269.893 66.712C270.799 64.8477 272.002 63.4521 273.505 62.5252C275.017 61.5984 276.674 61.1349 278.474 61.1349C279.849 61.1349 280.999 61.3693 281.926 61.8381C282.853 62.2962 283.599 62.8714 284.163 63.5639C284.739 64.2457 285.181 64.9169 285.49 65.5774H285.745V61.4545H292.505V86.2397C292.505 88.3278 291.994 90.0749 290.971 91.4812C289.948 92.8874 288.531 93.9421 286.72 94.6452C284.92 95.359 282.848 95.7159 280.504 95.7159ZM280.648 80.5348C281.745 80.5348 282.672 80.2631 283.428 79.7198C284.195 79.1658 284.781 78.3775 285.186 77.3548C285.602 76.3214 285.809 75.0856 285.809 73.6474C285.809 72.2092 285.607 70.9627 285.202 69.908C284.797 68.8427 284.211 68.017 283.444 67.4311C282.677 66.8452 281.745 66.5522 280.648 66.5522C279.529 66.5522 278.586 66.8558 277.819 67.4631C277.052 68.0597 276.472 68.8906 276.077 69.956C275.683 71.0213 275.486 72.2518 275.486 73.6474C275.486 75.0643 275.683 76.2894 276.077 77.3228C276.482 78.3455 277.063 79.1392 277.819 79.7038C278.586 80.2578 279.529 80.5348 280.648 80.5348Z" fill="white"/>
</svg>
