<svg width="307" height="140" viewBox="0 0 307 140" fill="none" xmlns="http://www.w3.org/2000/svg">
<rect width="306.412" height="140" rx="20" fill="#449FD1"/>
<path d="M90.3933 24.437H27.6462C23.4408 24.437 20 27.8784 20 32.0836V101.282C20 105.487 23.4408 108.928 27.6462 108.928H68.9731C68.504 88.3649 75.526 48.4586 90.3933 24.437Z" fill="white"/>
<path d="M88.1138 26.6677H27.6462C24.6601 26.6677 22.2301 29.097 22.2301 32.0836V96.2333C35.9248 90.9773 56.4787 86.4422 70.6905 86.6482C73.5464 71.7153 81.9398 42.4501 88.1138 26.6677Z" fill="#97D9F6"/>
<path d="M105.029 22.1724C100.732 18.34 95.5287 19.8794 90.3933 24.437C89.6311 25.114 88.8705 25.8652 88.1138 26.6677C79.3289 35.9869 71.1746 53.2492 68.6413 66.4324C69.6281 68.4338 70.399 70.9877 70.9066 72.9385C71.0367 73.4391 71.1541 73.9088 71.2479 74.3085C71.471 75.2543 71.5908 75.8676 71.5908 75.8676C71.5908 75.8676 71.512 75.5696 71.1888 74.6324C71.1273 74.4527 71.0588 74.2565 70.9776 74.0255C70.9429 73.9301 70.8948 73.8143 70.842 73.6905C70.269 72.3584 68.6838 69.5468 67.9862 68.3226C67.3895 70.0828 66.8622 71.7294 66.4208 73.2191C68.4347 76.904 69.662 83.2188 69.662 83.2188C69.662 83.2188 69.5556 82.8096 69.0496 81.3812C68.6003 80.1179 66.3625 76.1971 65.8324 75.2804C64.9256 78.6279 64.5653 80.8879 64.8902 81.4382C65.521 82.5045 66.1218 84.3442 66.6494 86.3788C67.8412 90.9623 68.6696 96.5421 68.6696 96.5421C68.6696 96.5421 68.6964 96.9119 68.7414 97.4809C68.5758 101.33 68.6751 105.321 68.9731 108.928C69.368 113.703 70.1113 117.805 71.0588 120L71.702 119.649C70.3107 115.324 69.7456 109.656 69.9931 103.119C70.3675 93.1275 72.6668 81.0779 76.9153 68.5189C84.093 49.5603 94.0515 34.349 103.166 27.0846C94.8587 34.587 83.6153 58.8717 80.2496 67.8647C76.481 77.9351 73.8105 87.3853 72.2009 96.4395C74.9779 87.9513 83.9566 84.3027 83.9566 84.3027C83.9566 84.3027 88.3605 78.8715 93.5069 71.1122C90.4241 71.8153 85.3621 73.0189 83.6666 73.7315C81.1655 74.7806 80.4916 75.1385 80.4916 75.1385C80.4916 75.1385 88.593 70.2049 95.5437 67.9711C105.103 52.9158 115.517 31.5279 105.029 22.1724Z" fill="white"/>
<path d="M160.011 62.685C159.883 61.396 159.334 60.3945 158.365 59.6808C157.395 58.967 156.08 58.6101 154.418 58.6101C153.289 58.6101 152.335 58.7699 151.557 59.0895C150.78 59.3984 150.183 59.8299 149.768 60.3839C149.363 60.9379 149.16 61.5664 149.16 62.2695C149.139 62.8555 149.262 63.3668 149.528 63.8036C149.805 64.2404 150.183 64.6186 150.662 64.9382C151.142 65.2472 151.696 65.5188 152.324 65.7532C152.953 65.9769 153.624 66.1687 154.338 66.3285L157.278 67.0316C158.706 67.3512 160.016 67.7773 161.209 68.31C162.403 68.8427 163.436 69.4979 164.309 70.2756C165.183 71.0533 165.86 71.9695 166.339 73.0241C166.829 74.0788 167.079 75.288 167.09 76.6516C167.079 78.6545 166.568 80.391 165.556 81.8612C164.555 83.3207 163.106 84.4553 161.209 85.2649C159.324 86.0639 157.049 86.4634 154.386 86.4634C151.744 86.4634 149.443 86.0586 147.482 85.2489C145.533 84.4393 144.009 83.2408 142.912 81.6534C141.825 80.0554 141.256 78.0792 141.202 75.7248H147.898C147.972 76.8221 148.287 77.7383 148.841 78.4734C149.405 79.1978 150.156 79.7464 151.094 80.1193C152.042 80.4815 153.113 80.6626 154.306 80.6626C155.478 80.6626 156.495 80.4922 157.358 80.1513C158.232 79.8104 158.908 79.3363 159.388 78.729C159.867 78.1218 160.107 77.424 160.107 76.6357C160.107 75.9006 159.888 75.2827 159.452 74.782C159.025 74.2812 158.397 73.8551 157.566 73.5036C156.746 73.152 155.739 72.8324 154.546 72.5447L150.982 71.6499C148.223 70.9787 146.044 69.9293 144.446 68.5018C142.848 67.0742 142.055 65.1513 142.065 62.733C142.055 60.7514 142.582 59.0202 143.647 57.5394C144.723 56.0586 146.199 54.9027 148.074 54.0717C149.949 53.2408 152.079 52.8253 154.466 52.8253C156.895 52.8253 159.015 53.2408 160.826 54.0717C162.648 54.9027 164.064 56.0586 165.077 57.5394C166.089 59.0202 166.611 60.7354 166.643 62.685H160.011ZM184.097 74.6222H189.978L192.934 78.4254L195.842 81.8132L201.323 88.6847H194.867L191.096 84.0504L189.163 81.3018L184.097 74.6222ZM201.819 69.6364C201.819 73.2053 201.142 76.2415 199.789 78.745C198.447 81.2486 196.615 83.1609 194.292 84.4819C191.98 85.7923 189.381 86.4474 186.494 86.4474C183.586 86.4474 180.975 85.7869 178.664 84.4659C176.352 83.1449 174.525 81.2326 173.182 78.729C171.84 76.2255 171.169 73.1946 171.169 69.6364C171.169 66.0675 171.84 63.0312 173.182 60.5277C174.525 58.0241 176.352 56.1172 178.664 54.8068C180.975 53.4858 183.586 52.8253 186.494 52.8253C189.381 52.8253 191.98 53.4858 194.292 54.8068C196.615 56.1172 198.447 58.0241 199.789 60.5277C201.142 63.0312 201.819 66.0675 201.819 69.6364ZM194.804 69.6364C194.804 67.3246 194.457 65.375 193.765 63.7876C193.083 62.2003 192.119 60.9964 190.872 60.1761C189.626 59.3558 188.166 58.9457 186.494 58.9457C184.821 58.9457 183.362 59.3558 182.115 60.1761C180.869 60.9964 179.899 62.2003 179.207 63.7876C178.525 65.375 178.184 67.3246 178.184 69.6364C178.184 71.9482 178.525 73.8977 179.207 75.4851C179.899 77.0724 180.869 78.2763 182.115 79.0966C183.362 79.9169 184.821 80.3271 186.494 80.3271C188.166 80.3271 189.626 79.9169 190.872 79.0966C192.119 78.2763 193.083 77.0724 193.765 75.4851C194.457 73.8977 194.804 71.9482 194.804 69.6364ZM206.944 86V53.2727H213.864V80.2951H227.894V86H206.944ZM232.349 86V61.4545H239.156V86H232.349ZM235.769 58.2905C234.756 58.2905 233.888 57.9549 233.164 57.2837C232.45 56.6019 232.093 55.7869 232.093 54.8388C232.093 53.9013 232.45 53.0969 233.164 52.4258C233.888 51.744 234.756 51.4031 235.769 51.4031C236.781 51.4031 237.644 51.744 238.357 52.4258C239.082 53.0969 239.444 53.9013 239.444 54.8388C239.444 55.7869 239.082 56.6019 238.357 57.2837C237.644 57.9549 236.781 58.2905 235.769 58.2905ZM257.665 61.4545V66.5682H242.884V61.4545H257.665ZM246.24 55.5739H253.047V78.4574C253.047 79.0859 253.143 79.576 253.335 79.9276C253.526 80.2685 253.793 80.5082 254.134 80.6467C254.485 80.7852 254.89 80.8544 255.348 80.8544C255.668 80.8544 255.987 80.8278 256.307 80.7745C256.627 80.7106 256.872 80.6626 257.042 80.6307L258.113 85.6964C257.772 85.8029 257.292 85.9254 256.675 86.0639C256.057 86.2131 255.306 86.3036 254.421 86.3356C252.781 86.3995 251.343 86.1811 250.107 85.6804C248.882 85.1797 247.928 84.402 247.246 83.3473C246.564 82.2926 246.229 80.9609 246.24 79.3523V55.5739ZM273.022 86.4794C270.497 86.4794 268.324 85.968 266.502 84.9453C264.691 83.9119 263.296 82.4524 262.316 80.5668C261.335 78.6705 260.845 76.4279 260.845 73.8391C260.845 71.3143 261.335 69.0984 262.316 67.1914C263.296 65.2844 264.675 63.7983 266.454 62.733C268.244 61.6676 270.343 61.1349 272.751 61.1349C274.37 61.1349 275.877 61.396 277.273 61.918C278.679 62.4293 279.904 63.2017 280.948 64.2351C282.003 65.2685 282.823 66.5682 283.409 68.1342C283.995 69.6896 284.288 71.5114 284.288 73.5994V75.4691H263.562V71.2504H277.88C277.88 70.2702 277.667 69.402 277.241 68.6456C276.815 67.8892 276.224 67.2979 275.467 66.8718C274.721 66.435 273.853 66.2166 272.862 66.2166C271.829 66.2166 270.913 66.4563 270.114 66.9357C269.325 67.4045 268.708 68.0384 268.26 68.8374C267.813 69.6257 267.584 70.5046 267.573 71.4741V75.4851C267.573 76.6996 267.797 77.7489 268.244 78.6332C268.702 79.5174 269.347 80.1992 270.178 80.6786C271.009 81.158 271.994 81.3977 273.134 81.3977C273.89 81.3977 274.583 81.2912 275.211 81.0781C275.84 80.8651 276.378 80.5455 276.825 80.1193C277.273 79.6932 277.614 79.1712 277.848 78.5533L284.144 78.9688C283.825 80.4815 283.17 81.8026 282.179 82.9318C281.199 84.0504 279.931 84.924 278.376 85.5526C276.831 86.1705 275.046 86.4794 273.022 86.4794Z" fill="white"/>
</svg>
