<svg width="140" height="140" viewBox="0 0 140 140" fill="none" xmlns="http://www.w3.org/2000/svg">
<rect width="140" height="140" rx="20" fill="#FF4785"/>
<path d="M32.9694 112.15L29.8694 29.6002C29.8226 28.2891 30.2899 27.0116 31.1717 26.0401C32.0535 25.0687 33.2799 24.4802 34.5894 24.4002L104.789 20.0102C105.475 19.9664 106.163 20.0638 106.809 20.2964C107.456 20.5289 108.048 20.8917 108.549 21.3622C109.05 21.8327 109.449 22.401 109.722 23.0319C109.995 23.6628 110.135 24.3429 110.134 25.0302V114.975C110.134 115.654 109.995 116.326 109.728 116.95C109.461 117.574 109.07 118.138 108.579 118.607C108.088 119.076 107.507 119.441 106.871 119.68C106.235 119.918 105.558 120.025 104.879 119.995L37.7694 116.98C36.5086 116.923 35.3153 116.394 34.4262 115.499C33.537 114.603 33.017 113.411 32.9694 112.15Z" fill="white"/>
<path fill-rule="evenodd" clip-rule="evenodd" d="M99.2695 20.3555L89.6096 20.9555L89.1396 32.2904C89.1338 32.4323 89.1684 32.5728 89.2393 32.6957C89.3103 32.8187 89.4146 32.919 89.5403 32.9849C89.666 33.0509 89.8078 33.0799 89.9493 33.0685C90.0908 33.057 90.2261 33.0057 90.3396 32.9204L94.7395 29.5805L98.4595 32.5104C98.5718 32.5993 98.7073 32.6542 98.8498 32.6686C98.9923 32.6829 99.1359 32.6562 99.2637 32.5915C99.3915 32.5268 99.4981 32.4269 99.5709 32.3035C99.6437 32.1802 99.6797 32.0386 99.6745 31.8954L99.2695 20.3555ZM91.7496 58.3054C89.9846 59.6804 76.8046 60.6154 76.8046 58.6604C77.0846 51.1954 73.7446 50.8704 71.8846 50.8704C70.1246 50.8704 67.1546 51.4004 67.1546 55.4004C67.1546 59.4754 71.4946 61.7754 76.5896 64.4754C83.8246 68.3103 92.5895 72.9553 92.5895 84.6353C92.5895 95.8353 83.4896 102.015 71.8896 102.015C59.9146 102.015 49.4497 97.1703 50.6296 80.3753C51.0946 78.4053 66.3196 78.8753 66.3196 80.3753C66.1296 87.3053 67.7096 89.3453 71.6996 89.3453C74.7646 89.3453 76.1546 87.6553 76.1546 84.8153C76.1546 80.5103 71.6346 77.9703 66.4296 75.0503C59.3846 71.0953 51.0946 66.4403 51.0946 55.7554C51.0946 45.0954 58.4246 37.9854 71.5146 37.9854C84.6046 37.9854 91.7496 44.9854 91.7496 58.3054Z" fill="#FF4785"/>
</svg>
