<svg width="140" height="140" viewBox="0 0 140 140" fill="none" xmlns="http://www.w3.org/2000/svg">
<rect width="140" height="140" rx="20" fill="#FF4785"/>
<path d="M32.9692 112.15L29.8692 29.6002C29.8224 28.2891 30.2897 27.0116 31.1715 26.0401C32.0533 25.0687 33.2797 24.4802 34.5892 24.4002L104.789 20.0102C105.475 19.9664 106.162 20.0638 106.809 20.2964C107.456 20.5289 108.048 20.8917 108.549 21.3622C109.05 21.8327 109.449 22.401 109.722 23.0319C109.994 23.6628 110.135 24.3429 110.134 25.0302V114.975C110.133 115.654 109.995 116.326 109.728 116.95C109.46 117.574 109.069 118.138 108.578 118.607C108.087 119.076 107.506 119.441 106.871 119.68C106.235 119.918 105.557 120.025 104.879 119.995L37.7692 116.98C36.5084 116.923 35.3151 116.394 34.426 115.499C33.5368 114.603 33.0168 113.411 32.9692 112.15Z" fill="white"/>
<path fill-rule="evenodd" clip-rule="evenodd" d="M99.2694 20.3555L89.6095 20.9555L89.1395 32.2904C89.1337 32.4323 89.1683 32.5728 89.2392 32.6957C89.3102 32.8187 89.4145 32.919 89.5402 32.9849C89.6659 33.0509 89.8077 33.0799 89.9492 33.0685C90.0907 33.057 90.226 33.0057 90.3395 32.9204L94.7394 29.5805L98.4594 32.5104C98.5717 32.5993 98.7072 32.6542 98.8497 32.6686C98.9922 32.6829 99.1358 32.6562 99.2636 32.5915C99.3914 32.5268 99.498 32.4269 99.5708 32.3035C99.6436 32.1802 99.6796 32.0386 99.6744 31.8954L99.2694 20.3555ZM91.7495 58.3054C89.9845 59.6804 76.8045 60.6154 76.8045 58.6604C77.0845 51.1954 73.7445 50.8704 71.8845 50.8704C70.1245 50.8704 67.1545 51.4004 67.1545 55.4004C67.1545 59.4754 71.4945 61.7754 76.5895 64.4754C83.8245 68.3103 92.5894 72.9553 92.5894 84.6353C92.5894 95.8353 83.4895 102.015 71.8895 102.015C59.9145 102.015 49.4496 97.1703 50.6295 80.3753C51.0945 78.4053 66.3195 78.8753 66.3195 80.3753C66.1295 87.3053 67.7095 89.3453 71.6995 89.3453C74.7645 89.3453 76.1545 87.6553 76.1545 84.8153C76.1545 80.5103 71.6345 77.9703 66.4295 75.0503C59.3845 71.0953 51.0945 66.4403 51.0945 55.7554C51.0945 45.0954 58.4245 37.9854 71.5145 37.9854C84.6045 37.9854 91.7495 44.9854 91.7495 58.3054Z" fill="#FF4785"/>
</svg>
