<svg width="381" height="140" viewBox="0 0 381 140" fill="none" xmlns="http://www.w3.org/2000/svg">
<rect width="380.268" height="140" rx="20" fill="#FF4785"/>
<path d="M23.1032 112.15L20.0032 29.6002C19.9564 28.2891 20.4237 27.0116 21.3055 26.0401C22.1873 25.0687 23.4137 24.4802 24.7232 24.4002L94.923 20.0102C95.6089 19.9664 96.2965 20.0638 96.9432 20.2964C97.59 20.5289 98.1822 20.8917 98.6831 21.3622C99.1841 21.8327 99.5832 22.401 99.8558 23.0319C100.128 23.6628 100.269 24.3429 100.268 25.0302V114.975C100.267 115.654 100.129 116.326 99.8618 116.95C99.5945 117.574 99.2035 118.138 98.7125 118.607C98.2215 119.076 97.6405 119.441 97.0047 119.68C96.3689 119.918 95.6914 120.025 95.013 119.995L27.9032 116.98C26.6424 116.923 25.4491 116.394 24.56 115.499C23.6708 114.603 23.1508 113.411 23.1032 112.15Z" fill="white"/>
<path fill-rule="evenodd" clip-rule="evenodd" d="M89.4035 20.3555L79.7436 20.9555L79.2736 32.2904C79.2678 32.4323 79.3024 32.5728 79.3733 32.6957C79.4443 32.8187 79.5486 32.919 79.6743 32.9849C79.8 33.0509 79.9418 33.0799 80.0833 33.0685C80.2248 33.057 80.3601 33.0057 80.4736 32.9204L84.8735 29.5805L88.5935 32.5104C88.7058 32.5993 88.8413 32.6542 88.9838 32.6686C89.1263 32.6829 89.2699 32.6562 89.3977 32.5915C89.5255 32.5268 89.6321 32.4269 89.7049 32.3035C89.7777 32.1802 89.8137 32.0386 89.8085 31.8954L89.4035 20.3555ZM81.8836 58.3054C80.1186 59.6804 66.9386 60.6154 66.9386 58.6604C67.2186 51.1954 63.8786 50.8704 62.0186 50.8704C60.2586 50.8704 57.2886 51.4004 57.2886 55.4004C57.2886 59.4754 61.6286 61.7754 66.7236 64.4754C73.9586 68.3103 82.7235 72.9553 82.7235 84.6353C82.7235 95.8353 73.6236 102.015 62.0236 102.015C50.0486 102.015 39.5837 97.1703 40.7636 80.3753C41.2286 78.4053 56.4536 78.8753 56.4536 80.3753C56.2636 87.3053 57.8436 89.3453 61.8336 89.3453C64.8986 89.3453 66.2886 87.6553 66.2886 84.8153C66.2886 80.5103 61.7686 77.9703 56.5636 75.0503C49.5186 71.0953 41.2286 66.4403 41.2286 55.7554C41.2286 45.0954 48.5586 37.9854 61.6486 37.9854C74.7386 37.9854 81.8836 44.9854 81.8836 58.3054Z" fill="#FF4785"/>
<path d="M150.866 62.685C150.739 61.396 150.19 60.3945 149.22 59.6808C148.251 58.967 146.935 58.6101 145.273 58.6101C144.144 58.6101 143.191 58.7699 142.413 59.0895C141.635 59.3984 141.039 59.8299 140.623 60.3839C140.218 60.9379 140.016 61.5664 140.016 62.2695C139.995 62.8555 140.117 63.3668 140.383 63.8036C140.66 64.2404 141.039 64.6186 141.518 64.9382C141.997 65.2472 142.551 65.5188 143.18 65.7532C143.808 65.9769 144.48 66.1687 145.193 66.3285L148.134 67.0316C149.561 67.3512 150.872 67.7773 152.065 68.31C153.258 68.8427 154.291 69.4979 155.165 70.2756C156.039 71.0533 156.715 71.9695 157.194 73.0241C157.685 74.0788 157.935 75.288 157.946 76.6516C157.935 78.6545 157.424 80.391 156.411 81.8612C155.41 83.3207 153.961 84.4553 152.065 85.2649C150.179 86.0639 147.905 86.4634 145.241 86.4634C142.599 86.4634 140.298 86.0586 138.338 85.2489C136.388 84.4393 134.865 83.2408 133.768 81.6534C132.681 80.0554 132.111 78.0792 132.058 75.7248H138.753C138.828 76.8221 139.142 77.7383 139.696 78.4734C140.261 79.1978 141.012 79.7464 141.949 80.1193C142.898 80.4815 143.968 80.6626 145.161 80.6626C146.333 80.6626 147.351 80.4922 148.214 80.1513C149.087 79.8104 149.764 79.3363 150.243 78.729C150.723 78.1218 150.962 77.424 150.962 76.6357C150.962 75.9006 150.744 75.2827 150.307 74.782C149.881 74.2812 149.252 73.8551 148.421 73.5036C147.601 73.152 146.594 72.8324 145.401 72.5447L141.838 71.6499C139.078 70.9787 136.9 69.9293 135.302 68.5018C133.704 67.0742 132.91 65.1513 132.921 62.733C132.91 60.7514 133.437 59.0202 134.503 57.5394C135.579 56.0586 137.054 54.9027 138.929 54.0717C140.804 53.2408 142.935 52.8253 145.321 52.8253C147.75 52.8253 149.87 53.2408 151.681 54.0717C153.503 54.9027 154.92 56.0586 155.932 57.5394C156.944 59.0202 157.466 60.7354 157.498 62.685H150.866ZM175.528 61.4545V66.5682H160.746V61.4545H175.528ZM164.102 55.5739H170.909V78.4574C170.909 79.0859 171.005 79.576 171.197 79.9276C171.389 80.2685 171.655 80.5082 171.996 80.6467C172.348 80.7852 172.752 80.8544 173.211 80.8544C173.53 80.8544 173.85 80.8278 174.169 80.7745C174.489 80.7106 174.734 80.6626 174.904 80.6307L175.975 85.6964C175.634 85.8029 175.155 85.9254 174.537 86.0639C173.919 86.2131 173.168 86.3036 172.284 86.3356C170.643 86.3995 169.205 86.1811 167.969 85.6804C166.744 85.1797 165.79 84.402 165.109 83.3473C164.427 82.2926 164.091 80.9609 164.102 79.3523V55.5739ZM190.789 86.4794C188.306 86.4794 186.16 85.9521 184.349 84.8974C182.548 83.832 181.158 82.3512 180.178 80.4549C179.198 78.5479 178.708 76.3374 178.708 73.8232C178.708 71.2876 179.198 69.0717 180.178 67.1754C181.158 65.2685 182.548 63.7876 184.349 62.733C186.16 61.6676 188.306 61.1349 190.789 61.1349C193.271 61.1349 195.412 61.6676 197.213 62.733C199.024 63.7876 200.419 65.2685 201.399 67.1754C202.38 69.0717 202.87 71.2876 202.87 73.8232C202.87 76.3374 202.38 78.5479 201.399 80.4549C200.419 82.3512 199.024 83.832 197.213 84.8974C195.412 85.9521 193.271 86.4794 190.789 86.4794ZM190.821 81.206C191.95 81.206 192.893 80.8864 193.649 80.2472C194.406 79.5973 194.975 78.7131 195.359 77.5945C195.753 76.4759 195.95 75.2028 195.95 73.7752C195.95 72.3477 195.753 71.0746 195.359 69.956C194.975 68.8374 194.406 67.9531 193.649 67.3033C192.893 66.6534 191.95 66.3285 190.821 66.3285C189.681 66.3285 188.722 66.6534 187.944 67.3033C187.177 67.9531 186.597 68.8374 186.202 69.956C185.819 71.0746 185.627 72.3477 185.627 73.7752C185.627 75.2028 185.819 76.4759 186.202 77.5945C186.597 78.7131 187.177 79.5973 187.944 80.2472C188.722 80.8864 189.681 81.206 190.821 81.206ZM207.296 86V61.4545H213.896V65.7372H214.152C214.599 64.2138 215.35 63.0632 216.405 62.2855C217.46 61.4972 218.674 61.103 220.048 61.103C220.389 61.103 220.757 61.1243 221.151 61.1669C221.545 61.2095 221.891 61.2681 222.19 61.3427V67.3832C221.87 67.2873 221.428 67.2021 220.863 67.1275C220.299 67.0529 219.782 67.0156 219.313 67.0156C218.312 67.0156 217.417 67.234 216.629 67.6708C215.851 68.0969 215.233 68.6935 214.775 69.4606C214.327 70.2276 214.104 71.1119 214.104 72.1133V86H207.296ZM230.659 95.2045C229.796 95.2045 228.986 95.1353 228.23 94.9968C227.484 94.869 226.866 94.7038 226.376 94.5014L227.91 89.4197C228.71 89.6648 229.429 89.7979 230.068 89.8192C230.718 89.8406 231.277 89.6914 231.746 89.3718C232.225 89.0522 232.614 88.5089 232.912 87.7418L233.312 86.7031L224.507 61.4545H231.666L236.747 79.4801H237.003L242.133 61.4545H249.34L239.8 88.6527C239.342 89.9737 238.718 91.1243 237.93 92.1044C237.152 93.0952 236.167 93.8569 234.974 94.3896C233.781 94.9329 232.342 95.2045 230.659 95.2045ZM252.951 86V53.2727H259.759V65.5774H259.967C260.265 64.9169 260.696 64.2457 261.261 63.5639C261.836 62.8714 262.582 62.2962 263.498 61.8381C264.425 61.3693 265.576 61.1349 266.95 61.1349C268.74 61.1349 270.391 61.6037 271.904 62.5412C273.417 63.468 274.626 64.869 275.531 66.744C276.437 68.6083 276.89 70.9467 276.89 73.7592C276.89 76.4972 276.447 78.8089 275.563 80.6946C274.69 82.5696 273.496 83.9918 271.984 84.9613C270.482 85.9201 268.798 86.3995 266.934 86.3995C265.613 86.3995 264.489 86.1811 263.562 85.7443C262.646 85.3075 261.895 84.7589 261.309 84.0984C260.723 83.4272 260.276 82.7507 259.967 82.0689H259.663V86H252.951ZM259.615 73.7273C259.615 75.1868 259.817 76.4599 260.222 77.5465C260.627 78.6332 261.213 79.4801 261.98 80.0874C262.747 80.6839 263.679 80.9822 264.777 80.9822C265.885 80.9822 266.822 80.6786 267.589 80.0714C268.356 79.4535 268.937 78.6012 269.331 77.5146C269.736 76.4173 269.938 75.1548 269.938 73.7273C269.938 72.3104 269.741 71.0639 269.347 69.9879C268.953 68.9119 268.372 68.0703 267.605 67.4631C266.838 66.8558 265.895 66.5522 264.777 66.5522C263.669 66.5522 262.731 66.8452 261.964 67.4311C261.208 68.017 260.627 68.848 260.222 69.924C259.817 71 259.615 72.2678 259.615 73.7273ZM292.522 86.4794C290.04 86.4794 287.893 85.9521 286.082 84.8974C284.282 83.832 282.891 82.3512 281.911 80.4549C280.931 78.5479 280.441 76.3374 280.441 73.8232C280.441 71.2876 280.931 69.0717 281.911 67.1754C282.891 65.2685 284.282 63.7876 286.082 62.733C287.893 61.6676 290.04 61.1349 292.522 61.1349C295.004 61.1349 297.146 61.6676 298.946 62.733C300.757 63.7876 302.153 65.2685 303.133 67.1754C304.113 69.0717 304.603 71.2876 304.603 73.8232C304.603 76.3374 304.113 78.5479 303.133 80.4549C302.153 82.3512 300.757 83.832 298.946 84.8974C297.146 85.9521 295.004 86.4794 292.522 86.4794ZM292.554 81.206C293.683 81.206 294.626 80.8864 295.383 80.2472C296.139 79.5973 296.709 78.7131 297.092 77.5945C297.487 76.4759 297.684 75.2028 297.684 73.7752C297.684 72.3477 297.487 71.0746 297.092 69.956C296.709 68.8374 296.139 67.9531 295.383 67.3033C294.626 66.6534 293.683 66.3285 292.554 66.3285C291.414 66.3285 290.455 66.6534 289.678 67.3033C288.911 67.9531 288.33 68.8374 287.936 69.956C287.552 71.0746 287.361 72.3477 287.361 73.7752C287.361 75.2028 287.552 76.4759 287.936 77.5945C288.33 78.7131 288.911 79.5973 289.678 80.2472C290.455 80.8864 291.414 81.206 292.554 81.206ZM320.12 86.4794C317.638 86.4794 315.491 85.9521 313.68 84.8974C311.879 83.832 310.489 82.3512 309.509 80.4549C308.529 78.5479 308.039 76.3374 308.039 73.8232C308.039 71.2876 308.529 69.0717 309.509 67.1754C310.489 65.2685 311.879 63.7876 313.68 62.733C315.491 61.6676 317.638 61.1349 320.12 61.1349C322.602 61.1349 324.743 61.6676 326.544 62.733C328.355 63.7876 329.75 65.2685 330.731 67.1754C331.711 69.0717 332.201 71.2876 332.201 73.8232C332.201 76.3374 331.711 78.5479 330.731 80.4549C329.75 82.3512 328.355 83.832 326.544 84.8974C324.743 85.9521 322.602 86.4794 320.12 86.4794ZM320.152 81.206C321.281 81.206 322.224 80.8864 322.98 80.2472C323.737 79.5973 324.307 78.7131 324.69 77.5945C325.084 76.4759 325.281 75.2028 325.281 73.7752C325.281 72.3477 325.084 71.0746 324.69 69.956C324.307 68.8374 323.737 67.9531 322.98 67.3033C322.224 66.6534 321.281 66.3285 320.152 66.3285C319.012 66.3285 318.053 66.6534 317.275 67.3033C316.508 67.9531 315.928 68.8374 315.533 69.956C315.15 71.0746 314.958 72.3477 314.958 73.7752C314.958 75.2028 315.15 76.4759 315.533 77.5945C315.928 78.7131 316.508 79.5973 317.275 80.2472C318.053 80.8864 319.012 81.206 320.152 81.206ZM342.796 78.9368L342.812 70.771H343.802L351.664 61.4545H359.479L348.916 73.7912H347.302L342.796 78.9368ZM336.627 86V53.2727H343.435V86H336.627ZM351.968 86L344.745 75.3093L349.283 70.4993L359.942 86H351.968Z" fill="white"/>
</svg>
