<svg width="387" height="140" viewBox="0 0 387 140" fill="none" xmlns="http://www.w3.org/2000/svg">
<rect width="386.358" height="140" rx="20" fill="#1A3529"/>
<path d="M76.8941 118.339C74.3395 121.555 69.1596 119.793 69.0981 115.685L68.198 55.6032H108.597C115.914 55.6032 119.995 64.0548 115.445 69.7856L76.8941 118.339Z" fill="url(#paint0_linear_46_26)"/>
<path d="M76.8941 118.339C74.3395 121.555 69.1596 119.793 69.0981 115.685L68.198 55.6032H108.597C115.914 55.6032 119.995 64.0548 115.445 69.7856L76.8941 118.339Z" fill="url(#paint1_linear_46_26)" fill-opacity="0.2"/>
<path d="M60.464 21.6616C63.0187 18.4441 68.1986 20.207 68.2601 24.3149L68.6546 84.3969H28.7611C21.4435 84.3969 17.3623 75.9453 21.9126 70.2145L60.464 21.6616Z" fill="#3ECF8E"/>
<path d="M167.956 62.685C167.828 61.396 167.28 60.3945 166.31 59.6808C165.341 58.967 164.025 58.6101 162.363 58.6101C161.234 58.6101 160.28 58.7699 159.503 59.0895C158.725 59.3984 158.128 59.8299 157.713 60.3839C157.308 60.9379 157.106 61.5664 157.106 62.2695C157.084 62.8555 157.207 63.3668 157.473 63.8036C157.75 64.2404 158.128 64.6186 158.608 64.9382C159.087 65.2472 159.641 65.5188 160.27 65.7532C160.898 65.9769 161.569 66.1687 162.283 66.3285L165.223 67.0316C166.651 67.3512 167.961 67.7773 169.155 68.31C170.348 68.8427 171.381 69.4979 172.255 70.2756C173.128 71.0533 173.805 71.9695 174.284 73.0241C174.774 74.0788 175.025 75.288 175.035 76.6516C175.025 78.6545 174.513 80.391 173.501 81.8612C172.5 83.3207 171.051 84.4553 169.155 85.2649C167.269 86.0639 164.994 86.4634 162.331 86.4634C159.689 86.4634 157.388 86.0586 155.428 85.2489C153.478 84.4393 151.955 83.2408 150.857 81.6534C149.771 80.0554 149.201 78.0792 149.147 75.7248H155.843C155.918 76.8221 156.232 77.7383 156.786 78.4734C157.351 79.1978 158.102 79.7464 159.039 80.1193C159.987 80.4815 161.058 80.6626 162.251 80.6626C163.423 80.6626 164.44 80.4922 165.303 80.1513C166.177 79.8104 166.853 79.3363 167.333 78.729C167.812 78.1218 168.052 77.424 168.052 76.6357C168.052 75.9006 167.834 75.2827 167.397 74.782C166.971 74.2812 166.342 73.8551 165.511 73.5036C164.691 73.152 163.684 72.8324 162.491 72.5447L158.927 71.6499C156.168 70.9787 153.989 69.9293 152.391 68.5018C150.793 67.0742 150 65.1513 150.01 62.733C150 60.7514 150.527 59.0202 151.592 57.5394C152.668 56.0586 154.144 54.9027 156.019 54.0717C157.894 53.2408 160.025 52.8253 162.411 52.8253C164.84 52.8253 166.96 53.2408 168.771 54.0717C170.593 54.9027 172.01 56.0586 173.022 57.5394C174.034 59.0202 174.556 60.7354 174.588 62.685H167.956ZM195.302 75.549V61.4545H202.11V86H195.574V81.5415H195.318C194.764 82.9798 193.842 84.1357 192.553 85.0092C191.275 85.8828 189.714 86.3196 187.871 86.3196C186.231 86.3196 184.787 85.9467 183.541 85.201C182.294 84.4553 181.319 83.3952 180.616 82.021C179.924 80.6467 179.572 79.0007 179.562 77.0831V61.4545H186.369V75.8686C186.38 77.3175 186.769 78.4627 187.536 79.3043C188.303 80.146 189.331 80.5668 190.62 80.5668C191.44 80.5668 192.207 80.3803 192.921 80.0075C193.635 79.6239 194.21 79.0593 194.647 78.3136C195.094 77.5678 195.313 76.6463 195.302 75.549ZM207.555 95.2045V61.4545H214.266V65.5774H214.57C214.868 64.9169 215.3 64.2457 215.864 63.5639C216.44 62.8714 217.185 62.2962 218.102 61.8381C219.028 61.3693 220.179 61.1349 221.553 61.1349C223.343 61.1349 224.994 61.6037 226.507 62.5412C228.02 63.468 229.229 64.869 230.135 66.744C231.04 68.6083 231.493 70.9467 231.493 73.7592C231.493 76.4972 231.051 78.8089 230.167 80.6946C229.293 82.5696 228.1 83.9918 226.587 84.9613C225.085 85.9201 223.402 86.3995 221.537 86.3995C220.216 86.3995 219.092 86.1811 218.166 85.7443C217.249 85.3075 216.498 84.7589 215.912 84.0984C215.326 83.4272 214.879 82.7507 214.57 82.0689H214.362V95.2045H207.555ZM214.218 73.7273C214.218 75.1868 214.421 76.4599 214.826 77.5465C215.231 78.6332 215.816 79.4801 216.584 80.0874C217.351 80.6839 218.283 80.9822 219.38 80.9822C220.488 80.9822 221.425 80.6786 222.193 80.0714C222.96 79.4535 223.54 78.6012 223.934 77.5146C224.339 76.4173 224.542 75.1548 224.542 73.7273C224.542 72.3104 224.345 71.0639 223.95 69.9879C223.556 68.9119 222.976 68.0703 222.209 67.4631C221.441 66.8558 220.499 66.5522 219.38 66.5522C218.272 66.5522 217.335 66.8452 216.568 67.4311C215.811 68.017 215.231 68.848 214.826 69.924C214.421 71 214.218 72.2678 214.218 73.7273ZM243.031 86.4634C241.465 86.4634 240.069 86.1918 238.844 85.6484C237.619 85.0945 236.649 84.2795 235.935 83.2035C235.232 82.1168 234.881 80.7638 234.881 79.1445C234.881 77.7809 235.131 76.6357 235.632 75.7088C236.133 74.782 236.814 74.0362 237.677 73.4716C238.54 72.907 239.52 72.4808 240.618 72.1932C241.726 71.9055 242.887 71.7031 244.101 71.5859C245.529 71.4368 246.679 71.2983 247.553 71.1705C248.427 71.032 249.06 70.8295 249.455 70.5632C249.849 70.2969 250.046 69.9027 250.046 69.3807V69.2848C250.046 68.2727 249.726 67.4897 249.087 66.9357C248.459 66.3817 247.564 66.1048 246.402 66.1048C245.177 66.1048 244.202 66.3764 243.478 66.9197C242.754 67.4524 242.274 68.1236 242.04 68.9332L235.744 68.4219C236.063 66.9304 236.692 65.6413 237.629 64.5547C238.567 63.4574 239.776 62.6158 241.257 62.0298C242.748 61.4332 244.474 61.1349 246.434 61.1349C247.798 61.1349 249.103 61.2947 250.349 61.6143C251.607 61.9339 252.72 62.4293 253.689 63.1005C254.669 63.7717 255.442 64.6346 256.006 65.6893C256.571 66.7333 256.853 67.9851 256.853 69.4446V86H250.397V82.5962H250.206C249.812 83.3633 249.284 84.0398 248.624 84.6257C247.963 85.201 247.169 85.6538 246.243 85.984C245.316 86.3036 244.245 86.4634 243.031 86.4634ZM244.98 81.7653C245.982 81.7653 246.866 81.5682 247.633 81.174C248.4 80.7692 249.002 80.2259 249.439 79.544C249.875 78.8622 250.094 78.0898 250.094 77.2269V74.6222C249.881 74.7607 249.588 74.8885 249.215 75.0057C248.853 75.1122 248.443 75.2134 247.984 75.3093C247.526 75.3945 247.068 75.4744 246.61 75.549C246.152 75.6129 245.737 75.6715 245.364 75.7248C244.565 75.842 243.867 76.0284 243.27 76.2841C242.674 76.5398 242.21 76.886 241.88 77.3228C241.55 77.7489 241.385 78.2816 241.385 78.9208C241.385 79.8477 241.72 80.5561 242.391 81.0462C243.073 81.5256 243.936 81.7653 244.98 81.7653ZM262.263 86V53.2727H269.07V65.5774H269.278C269.576 64.9169 270.008 64.2457 270.572 63.5639C271.148 62.8714 271.893 62.2962 272.81 61.8381C273.736 61.3693 274.887 61.1349 276.261 61.1349C278.051 61.1349 279.702 61.6037 281.215 62.5412C282.728 63.468 283.937 64.869 284.843 66.744C285.748 68.6083 286.201 70.9467 286.201 73.7592C286.201 76.4972 285.759 78.8089 284.875 80.6946C284.001 82.5696 282.808 83.9918 281.295 84.9613C279.793 85.9201 278.11 86.3995 276.245 86.3995C274.924 86.3995 273.8 86.1811 272.873 85.7443C271.957 85.3075 271.206 84.7589 270.62 84.0984C270.034 83.4272 269.587 82.7507 269.278 82.0689H268.974V86H262.263ZM268.926 73.7273C268.926 75.1868 269.129 76.4599 269.534 77.5465C269.938 78.6332 270.524 79.4801 271.291 80.0874C272.058 80.6839 272.991 80.9822 274.088 80.9822C275.196 80.9822 276.133 80.6786 276.9 80.0714C277.668 79.4535 278.248 78.6012 278.642 77.5146C279.047 76.4173 279.25 75.1548 279.25 73.7273C279.25 72.3104 279.052 71.0639 278.658 69.9879C278.264 68.9119 277.683 68.0703 276.916 67.4631C276.149 66.8558 275.207 66.5522 274.088 66.5522C272.98 66.5522 272.043 66.8452 271.275 67.4311C270.519 68.017 269.938 68.848 269.534 69.924C269.129 71 268.926 72.2678 268.926 73.7273ZM297.743 86.4634C296.176 86.4634 294.781 86.1918 293.556 85.6484C292.331 85.0945 291.361 84.2795 290.647 83.2035C289.944 82.1168 289.593 80.7638 289.593 79.1445C289.593 77.7809 289.843 76.6357 290.344 75.7088C290.844 74.782 291.526 74.0362 292.389 73.4716C293.252 72.907 294.232 72.4808 295.33 72.1932C296.437 71.9055 297.599 71.7031 298.813 71.5859C300.241 71.4368 301.391 71.2983 302.265 71.1705C303.138 71.032 303.772 70.8295 304.167 70.5632C304.561 70.2969 304.758 69.9027 304.758 69.3807V69.2848C304.758 68.2727 304.438 67.4897 303.799 66.9357C303.17 66.3817 302.276 66.1048 301.114 66.1048C299.889 66.1048 298.914 66.3764 298.19 66.9197C297.466 67.4524 296.986 68.1236 296.752 68.9332L290.456 68.4219C290.775 66.9304 291.404 65.6413 292.341 64.5547C293.279 63.4574 294.488 62.6158 295.969 62.0298C297.46 61.4332 299.186 61.1349 301.146 61.1349C302.51 61.1349 303.815 61.2947 305.061 61.6143C306.319 61.9339 307.432 62.4293 308.401 63.1005C309.381 63.7717 310.154 64.6346 310.718 65.6893C311.283 66.7333 311.565 67.9851 311.565 69.4446V86H305.109V82.5962H304.918C304.523 83.3633 303.996 84.0398 303.336 84.6257C302.675 85.201 301.881 85.6538 300.955 85.984C300.028 86.3036 298.957 86.4634 297.743 86.4634ZM299.692 81.7653C300.694 81.7653 301.578 81.5682 302.345 81.174C303.112 80.7692 303.714 80.2259 304.151 79.544C304.587 78.8622 304.806 78.0898 304.806 77.2269V74.6222C304.593 74.7607 304.3 74.8885 303.927 75.0057C303.565 75.1122 303.154 75.2134 302.696 75.3093C302.238 75.3945 301.78 75.4744 301.322 75.549C300.864 75.6129 300.448 75.6715 300.076 75.7248C299.277 75.842 298.579 76.0284 297.982 76.2841C297.386 76.5398 296.922 76.886 296.592 77.3228C296.262 77.7489 296.097 78.2816 296.097 78.9208C296.097 79.8477 296.432 80.5561 297.103 81.0462C297.785 81.5256 298.648 81.7653 299.692 81.7653ZM337.269 68.4538L331.037 68.8374C330.931 68.3047 330.702 67.8253 330.35 67.3991C329.998 66.9624 329.535 66.6161 328.96 66.3604C328.395 66.0941 327.719 65.9609 326.93 65.9609C325.876 65.9609 324.986 66.1847 324.262 66.6321C323.537 67.0689 323.175 67.6548 323.175 68.3899C323.175 68.9759 323.409 69.4712 323.878 69.8761C324.347 70.2809 325.151 70.6058 326.291 70.8509L330.733 71.7457C333.12 72.2358 334.899 73.0241 336.071 74.1108C337.243 75.1974 337.829 76.625 337.829 78.3935C337.829 80.0021 337.355 81.4137 336.406 82.6282C335.469 83.8427 334.18 84.7908 332.539 85.4727C330.909 86.1438 329.029 86.4794 326.898 86.4794C323.649 86.4794 321.06 85.8029 319.132 84.4499C317.214 83.0863 316.09 81.2326 315.76 78.8888L322.456 78.5373C322.658 79.5281 323.148 80.2844 323.926 80.8065C324.704 81.3178 325.7 81.5735 326.914 81.5735C328.107 81.5735 329.066 81.3445 329.791 80.8864C330.526 80.4176 330.899 79.8157 330.909 79.0806C330.899 78.4627 330.638 77.9567 330.126 77.5625C329.615 77.1577 328.827 76.8487 327.761 76.6357L323.51 75.7887C321.113 75.3093 319.329 74.4783 318.157 73.2958C316.996 72.1133 316.415 70.6058 316.415 68.7734C316.415 67.1967 316.841 65.8384 317.694 64.6985C318.557 63.5586 319.766 62.6797 321.321 62.0618C322.887 61.4439 324.72 61.1349 326.818 61.1349C329.918 61.1349 332.358 61.7901 334.137 63.1005C335.927 64.4109 336.971 66.1953 337.269 68.4538ZM353.301 86.4794C350.777 86.4794 348.603 85.968 346.781 84.9453C344.97 83.9119 343.575 82.4524 342.595 80.5668C341.615 78.6705 341.125 76.4279 341.125 73.8391C341.125 71.3143 341.615 69.0984 342.595 67.1914C343.575 65.2844 344.954 63.7983 346.734 62.733C348.523 61.6676 350.622 61.1349 353.03 61.1349C354.649 61.1349 356.156 61.396 357.552 61.918C358.958 62.4293 360.183 63.2017 361.228 64.2351C362.282 65.2685 363.103 66.5682 363.688 68.1342C364.274 69.6896 364.567 71.5114 364.567 73.5994V75.4691H343.841V71.2504H358.159C358.159 70.2702 357.946 69.402 357.52 68.6456C357.094 67.8892 356.503 67.2979 355.746 66.8718C355.001 66.435 354.132 66.2166 353.142 66.2166C352.108 66.2166 351.192 66.4563 350.393 66.9357C349.605 67.4045 348.987 68.0384 348.539 68.8374C348.092 69.6257 347.863 70.5046 347.852 71.4741V75.4851C347.852 76.6996 348.076 77.7489 348.523 78.6332C348.981 79.5174 349.626 80.1992 350.457 80.6786C351.288 81.158 352.273 81.3977 353.413 81.3977C354.17 81.3977 354.862 81.2912 355.491 81.0781C356.119 80.8651 356.657 80.5455 357.105 80.1193C357.552 79.6932 357.893 79.1712 358.127 78.5533L364.424 78.9688C364.104 80.4815 363.449 81.8026 362.458 82.9318C361.478 84.0504 360.21 84.924 358.655 85.5526C357.11 86.1705 355.326 86.4794 353.301 86.4794Z" fill="white"/>
<defs>
<linearGradient id="paint0_linear_46_26" x1="20" y1="40.6869" x2="85.0155" y2="75.462" gradientUnits="userSpaceOnUse">
<stop stop-color="#103323"/>
<stop offset="1" stop-color="#3ECF8E"/>
</linearGradient>
<linearGradient id="paint1_linear_46_26" x1="-11.5256" y1="6.84158" x2="10.2593" y2="59.1418" gradientUnits="userSpaceOnUse">
<stop/>
<stop offset="1" stop-opacity="0"/>
</linearGradient>
</defs>
</svg>
