<svg width="140" height="140" viewBox="0 0 140 140" fill="none" xmlns="http://www.w3.org/2000/svg">
<rect width="140" height="140" rx="20" fill="#FF3E00"/>
<path d="M110.7 28.7999C100.3 13.8999 79.7 9.49993 64.9 18.9999L38.8 35.5999C31.7 40.0999 26.8 47.3999 25.3 55.5999C24.1 62.4999 25.1 69.5999 28.4 75.7999C26.2 79.1999 24.6 82.9999 23.9 86.9999C22.4 95.4999 24.4 104.2 29.3 111.2C39.7 126.1 60.2 130.5 75.1 121L101.2 104.4C108.3 99.8999 113.2 92.5999 114.7 84.3999C115.9 77.4999 114.9 70.3999 111.6 64.1999C113.8 60.7999 115.4 56.9999 116.1 52.9999C117.6 44.4999 115.6 35.7999 110.7 28.7999ZM103.2 50.1999C103 50.9999 102.8 51.7999 102.6 52.5999L102.1 54.0999L100.8 53.0999C97.7 50.7999 94.3 49.0999 90.6 47.9999L89.6 47.6999L89.7 46.6999C89.8 45.2999 89.4 43.9999 88.6 42.7999C87.1 40.5999 84.4 39.6999 81.9 40.2999C81.3 40.4999 80.8 40.6999 80.3 40.9999L54.2 57.6999C52.9 58.4999 52 59.7999 51.8 61.2999C51.5 62.7999 51.9 64.3999 52.8 65.6999C54.3 67.8999 57 68.7999 59.5 68.1999C60.1 67.9999 60.6 67.7999 61.1 67.4999L71.1 61.1999C72.7 60.1999 74.5 59.3999 76.4 58.8999C84.8 56.6999 93.7 59.9999 98.6 67.0999C101.6 71.2999 102.8 76.4999 101.9 81.5999C101 86.5999 98.1 90.9999 93.8 93.6999L67.6 110.3C66 111.3 64.2 112.1 62.3 112.6C53.9 114.8 45 111.5 40.1 104.4C37.1 100.2 35.9 94.9999 36.8 89.8999C37 89.0999 37.2 88.2999 37.4 87.4999L37.9 85.9999L39.2 86.9999C42.3 89.2999 45.7 90.9999 49.4 92.0999L50.4 92.3999L50.3 93.3999C50.2 94.7999 50.6 96.1999 51.4 97.2999C52.9 99.4999 55.6 100.4 58.1 99.7999C58.7 99.5999 59.2 99.3999 59.7 99.0999L85.8 82.4999C87.1 81.6999 88 80.3999 88.3 78.8999C88.6 77.3999 88.2 75.7999 87.3 74.4999C85.8 72.2999 83.1 71.3999 80.6 71.9999C80 72.1999 79.5 72.3999 79 72.6999L69 78.9999C67.4 79.9999 65.6 80.7999 63.7 81.2999C55.3 83.3999 46.4 80.0999 41.4 72.8999C38.4 68.6999 37.2 63.4999 38.1 58.3999C39 53.3999 41.9 48.9999 46.2 46.2999L72.4 29.6999C74 28.6999 75.8 27.8999 77.7 27.3999C86.1 25.1999 95 28.4999 99.9 35.5999C102.9 39.8999 104.1 45.0999 103.2 50.1999Z" fill="white"/>
<path d="M110.7 28.7999C100.3 13.8999 79.7 9.49993 64.9 18.9999L38.8 35.5999C31.7 40.0999 26.8 47.3999 25.3 55.5999C24.1 62.4999 25.1 69.5999 28.4 75.7999C26.2 79.1999 24.6 82.9999 23.9 86.9999C22.4 95.4999 24.4 104.2 29.3 111.2C39.7 126.1 60.2 130.5 75.1 121L101.2 104.4C108.3 99.8999 113.2 92.5999 114.7 84.3999C115.9 77.4999 114.9 70.3999 111.6 64.1999C113.8 60.7999 115.4 56.9999 116.1 52.9999C117.6 44.4999 115.6 35.7999 110.7 28.7999ZM103.2 50.1999C103 50.9999 102.8 51.7999 102.6 52.5999L102.1 54.0999L100.8 53.0999C97.7 50.7999 94.3 49.0999 90.6 47.9999L89.6 47.6999L89.7 46.6999C89.8 45.2999 89.4 43.9999 88.6 42.7999C87.1 40.5999 84.4 39.6999 81.9 40.2999C81.3 40.4999 80.8 40.6999 80.3 40.9999L54.2 57.6999C52.9 58.4999 52 59.7999 51.8 61.2999C51.5 62.7999 51.9 64.3999 52.8 65.6999C54.3 67.8999 57 68.7999 59.5 68.1999C60.1 67.9999 60.6 67.7999 61.1 67.4999L71.1 61.1999C72.7 60.1999 74.5 59.3999 76.4 58.8999C84.8 56.6999 93.7 59.9999 98.6 67.0999C101.6 71.2999 102.8 76.4999 101.9 81.5999C101 86.5999 98.1 90.9999 93.8 93.6999L67.6 110.3C66 111.3 64.2 112.1 62.3 112.6C53.9 114.8 45 111.5 40.1 104.4C37.1 100.2 35.9 94.9999 36.8 89.8999C37 89.0999 37.2 88.2999 37.4 87.4999L37.9 85.9999L39.2 86.9999C42.3 89.2999 45.7 90.9999 49.4 92.0999L50.4 92.3999L50.3 93.3999C50.2 94.7999 50.6 96.1999 51.4 97.2999C52.9 99.4999 55.6 100.4 58.1 99.7999C58.7 99.5999 59.2 99.3999 59.7 99.0999L85.8 82.4999C87.1 81.6999 88 80.3999 88.3 78.8999C88.6 77.3999 88.2 75.7999 87.3 74.4999C85.8 72.2999 83.1 71.3999 80.6 71.9999C80 72.1999 79.5 72.3999 79 72.6999L69 78.9999C67.4 79.9999 65.6 80.7999 63.7 81.2999C55.3 83.3999 46.4 80.0999 41.4 72.8999C38.4 68.6999 37.2 63.4999 38.1 58.3999C39 53.3999 41.9 48.9999 46.2 46.2999L72.4 29.6999C74 28.6999 75.8 27.8999 77.7 27.3999C86.1 25.1999 95 28.4999 99.9 35.5999C102.9 39.8999 104.1 45.0999 103.2 50.1999Z" fill="white"/>
</svg>
