<svg width="140" height="140" viewBox="0 0 140 140" fill="none" xmlns="http://www.w3.org/2000/svg">
<rect width="140" height="140" rx="20" fill="#06B6D4"/>
<path d="M70.0001 40.0082C56.6664 40.0082 48.3333 46.6732 44.9995 60.0019C50.0001 53.3369 55.8336 50.8385 62.4998 52.5041C66.3038 53.4545 69.0223 56.2142 72.0322 59.2679C76.934 64.2422 82.6074 69.9994 95.0008 69.9994C108.333 69.9994 116.668 63.3344 120 50.0044C115.001 56.6694 109.167 59.1691 102.5 57.5035C98.6972 56.5531 95.9786 53.7933 92.9688 50.7397C88.0669 45.7653 82.3923 40.0082 70.0001 40.0082ZM44.9995 69.9994C31.667 69.9994 23.3326 76.6644 20.0001 89.9943C24.9995 83.3294 30.833 80.8297 37.5005 82.4965C41.3031 83.4482 44.0217 86.2067 47.0315 89.2591C51.9334 94.2334 57.608 99.9918 70.0001 99.9918C83.3339 99.9918 91.667 93.3268 95.0008 79.9969C90.0001 86.6619 84.1667 89.1615 77.5005 87.4947C73.6965 86.5456 70.978 83.7845 67.9681 80.7321C63.0663 75.7578 57.3929 69.9994 44.9995 69.9994Z" fill="white"/>
</svg>
