<svg width="272" height="140" viewBox="0 0 272 140" fill="none" xmlns="http://www.w3.org/2000/svg">
<rect width="271.532" height="140" rx="20" fill="#345968"/>
<path d="M82.5561 56.4715C82.5542 57.74 82.3022 58.9957 81.8145 60.1667C81.3268 61.3377 80.6131 62.4011 79.7141 63.296C78.815 64.1909 77.7484 64.8998 76.5751 65.3821C75.4019 65.8644 74.1451 66.1107 72.8766 66.1068C71.6081 66.1107 70.3512 65.8644 69.178 65.3821C68.0048 64.8998 66.9381 64.1909 66.0391 63.296C65.1401 62.4011 64.4263 61.3377 63.9386 60.1667C63.451 58.9957 63.199 57.74 63.197 56.4715C63.1999 55.2036 63.4526 53.9487 63.9407 52.7785C64.4288 51.6083 65.1428 50.5458 66.0417 49.6517C66.9406 48.7575 68.0069 48.0493 69.1797 47.5675C70.3525 47.0856 71.6087 46.8396 72.8766 46.8435C74.1445 46.8396 75.4007 47.0856 76.5735 47.5675C77.7462 48.0493 78.8125 48.7575 79.7115 49.6517C80.6104 50.5458 81.3243 51.6083 81.8124 52.7785C82.3005 53.9487 82.5532 55.2036 82.5561 56.4715Z" fill="#FFC131"/>
<path d="M66.3351 83.5359C66.3322 84.8038 66.0795 86.0587 65.5914 87.2288C65.1033 88.399 64.3894 89.4615 63.4905 90.3557C62.5915 91.2498 61.5252 91.958 60.3525 92.4399C59.1797 92.9217 57.9235 93.1678 56.6556 93.1639C55.3871 93.1687 54.1301 92.9234 52.9565 92.442C51.7828 91.9606 50.7157 91.2525 49.8159 90.3583C48.9162 89.4641 48.2017 88.4012 47.7131 87.2306C47.2245 86.0599 46.9716 84.8044 46.9687 83.5359C46.9706 82.2668 47.2229 81.0105 47.711 79.839C48.1991 78.6675 48.9135 77.6037 49.8133 76.7087C50.7131 75.8137 51.7807 75.105 52.9548 74.6231C54.1288 74.1412 55.3865 73.8957 56.6556 73.9005C57.9241 73.8967 59.1809 74.1429 60.3542 74.6252C61.5274 75.1075 62.5941 75.8164 63.4931 76.7113C64.3921 77.6063 65.1059 78.6696 65.5935 79.8407C66.0812 81.0117 66.3332 82.2674 66.3351 83.5359Z" fill="#24C8DB"/>
<path d="M49.2744 47.8011C32.5672 51.2044 20 65.9079 20 83.5285C20 103.676 36.4125 120 56.6556 120C64.4565 120.01 72.0573 117.531 78.3518 112.923C84.6464 108.315 89.3064 101.819 91.6537 94.3793C87.2508 96.5381 82.5085 97.9212 77.6353 98.4678C75.2422 101.795 72.091 104.503 68.4426 106.37C64.7942 108.236 60.7537 109.207 56.6556 109.201C53.2765 109.209 49.9288 108.552 46.8037 107.267C43.6785 105.982 40.837 104.094 38.4415 101.711C36.046 99.3279 34.1433 96.4962 32.8422 93.3777C31.5411 90.2592 30.8669 86.915 30.8582 83.5359C30.8652 78.2668 32.4925 73.1273 35.5194 68.8144C38.5462 64.5014 42.8262 61.2236 47.779 59.4254C47.3731 55.4872 47.885 51.5084 49.2744 47.8011Z" fill="#24C8DB"/>
<path fill-rule="evenodd" clip-rule="evenodd" d="M80.2578 92.2062C96.9576 88.8103 109.532 74.0994 109.532 56.4788C109.532 36.3241 93.1197 20 72.8766 20C65.0747 19.9902 57.4733 22.4705 51.1786 27.0799C44.8839 31.6893 40.2245 38.1872 37.8784 45.628C42.2813 43.4691 47.0237 42.086 51.8968 41.5396C54.2904 38.2133 57.4417 35.5048 61.09 33.6384C64.7382 31.772 68.7786 30.8013 72.8766 30.8067C76.2556 30.7979 79.6033 31.4549 82.7285 32.7399C85.8537 34.025 88.6951 35.913 91.0907 38.2962C93.4862 40.6794 95.3888 43.5111 96.69 46.6296C97.9911 49.7481 98.6653 53.0924 98.674 56.4715C98.6669 61.7406 97.0397 66.88 94.0128 71.193C90.986 75.506 86.706 78.7838 81.7532 80.5819C82.159 84.5202 81.6472 88.4989 80.2578 92.2062Z" fill="#FFC131"/>
<path d="M141.13 58.9776V53.2727H168.009V58.9776H157.989V86H151.15V58.9776H141.13ZM175.967 86.4634C174.401 86.4634 173.005 86.1918 171.78 85.6484C170.555 85.0945 169.585 84.2795 168.872 83.2035C168.169 82.1168 167.817 80.7638 167.817 79.1445C167.817 77.7809 168.067 76.6357 168.568 75.7088C169.069 74.782 169.751 74.0362 170.614 73.4716C171.476 72.907 172.457 72.4808 173.554 72.1932C174.662 71.9055 175.823 71.7031 177.038 71.5859C178.465 71.4368 179.616 71.2983 180.489 71.1705C181.363 71.032 181.997 70.8295 182.391 70.5632C182.785 70.2969 182.982 69.9027 182.982 69.3807V69.2848C182.982 68.2727 182.663 67.4897 182.023 66.9357C181.395 66.3817 180.5 66.1048 179.339 66.1048C178.114 66.1048 177.139 66.3764 176.414 66.9197C175.69 67.4524 175.21 68.1236 174.976 68.9332L168.68 68.4219C169 66.9304 169.628 65.6413 170.566 64.5547C171.503 63.4574 172.712 62.6158 174.193 62.0298C175.685 61.4332 177.41 61.1349 179.371 61.1349C180.734 61.1349 182.039 61.2947 183.286 61.6143C184.543 61.9339 185.656 62.4293 186.626 63.1005C187.606 63.7717 188.378 64.6346 188.943 65.6893C189.507 66.7333 189.79 67.9851 189.79 69.4446V86H183.334V82.5962H183.142C182.748 83.3633 182.22 84.0398 181.56 84.6257C180.899 85.201 180.106 85.6538 179.179 85.984C178.252 86.3036 177.181 86.4634 175.967 86.4634ZM177.916 81.7653C178.918 81.7653 179.802 81.5682 180.569 81.174C181.336 80.7692 181.938 80.2259 182.375 79.544C182.812 78.8622 183.03 78.0898 183.03 77.2269V74.6222C182.817 74.7607 182.524 74.8885 182.151 75.0057C181.789 75.1122 181.379 75.2134 180.921 75.3093C180.463 75.3945 180.005 75.4744 179.546 75.549C179.088 75.6129 178.673 75.6715 178.3 75.7248C177.501 75.842 176.803 76.0284 176.207 76.2841C175.61 76.5398 175.147 76.886 174.816 77.3228C174.486 77.7489 174.321 78.2816 174.321 78.9208C174.321 79.8477 174.657 80.5561 175.328 81.0462C176.009 81.5256 176.872 81.7653 177.916 81.7653ZM210.812 75.549V61.4545H217.619V86H211.083V81.5415H210.828C210.274 82.9798 209.352 84.1357 208.063 85.0092C206.785 85.8828 205.224 86.3196 203.381 86.3196C201.74 86.3196 200.297 85.9467 199.05 85.201C197.804 84.4553 196.829 83.3952 196.126 82.021C195.433 80.6467 195.082 79.0007 195.071 77.0831V61.4545H201.879V75.8686C201.889 77.3175 202.278 78.4627 203.045 79.3043C203.812 80.146 204.84 80.5668 206.129 80.5668C206.95 80.5668 207.717 80.3803 208.43 80.0075C209.144 79.6239 209.72 79.0593 210.156 78.3136C210.604 77.5678 210.822 76.6463 210.812 75.549ZM223.064 86V61.4545H229.664V65.7372H229.92C230.367 64.2138 231.118 63.0632 232.173 62.2855C233.228 61.4972 234.442 61.103 235.816 61.103C236.157 61.103 236.525 61.1243 236.919 61.1669C237.313 61.2095 237.659 61.2681 237.958 61.3427V67.3832C237.638 67.2873 237.196 67.2021 236.631 67.1275C236.067 67.0529 235.55 67.0156 235.081 67.0156C234.08 67.0156 233.185 67.234 232.397 67.6708C231.619 68.0969 231.001 68.6935 230.543 69.4606C230.096 70.2276 229.872 71.1119 229.872 72.1133V86H223.064ZM241.477 86V61.4545H248.285V86H241.477ZM244.897 58.2905C243.885 58.2905 243.017 57.9549 242.292 57.2837C241.579 56.6019 241.222 55.7869 241.222 54.8388C241.222 53.9013 241.579 53.0969 242.292 52.4258C243.017 51.744 243.885 51.4031 244.897 51.4031C245.909 51.4031 246.772 51.744 247.486 52.4258C248.21 53.0969 248.573 53.9013 248.573 54.8388C248.573 55.7869 248.21 56.6019 247.486 57.2837C246.772 57.9549 245.909 58.2905 244.897 58.2905Z" fill="white"/>
</svg>
