<svg width="140" height="140" viewBox="0 0 140 140" fill="none" xmlns="http://www.w3.org/2000/svg">
<rect width="140" height="140" rx="20" fill="#345968"/>
<path d="M87.79 56.4715C87.7881 57.74 87.5361 58.9957 87.0484 60.1667C86.5607 61.3377 85.847 62.4011 84.9479 63.296C84.0489 64.1909 82.9823 64.8998 81.809 65.3821C80.6358 65.8644 79.379 66.1107 78.1105 66.1068C76.842 66.1107 75.5851 65.8644 74.4119 65.3821C73.2386 64.8998 72.172 64.1909 71.273 63.296C70.374 62.4011 69.6602 61.3377 69.1725 60.1667C68.6848 58.9957 68.4328 57.74 68.4309 56.4715C68.4338 55.2036 68.6865 53.9487 69.1746 52.7785C69.6627 51.6083 70.3767 50.5458 71.2756 49.6517C72.1745 48.7575 73.2408 48.0493 74.4136 47.5675C75.5863 47.0856 76.8426 46.8396 78.1105 46.8435C79.3784 46.8396 80.6346 47.0856 81.8073 47.5675C82.9801 48.0493 84.0464 48.7575 84.9453 49.6517C85.8443 50.5458 86.5582 51.6083 87.0463 52.7785C87.5344 53.9487 87.7871 55.2036 87.79 56.4715Z" fill="#FFC131"/>
<path d="M71.569 83.5359C71.5661 84.8038 71.3134 86.0587 70.8253 87.2288C70.3372 88.399 69.6233 89.4615 68.7244 90.3557C67.8254 91.2498 66.7591 91.958 65.5864 92.4399C64.4136 92.9217 63.1574 93.1678 61.8895 93.1639C60.621 93.1687 59.364 92.9234 58.1903 92.442C57.0167 91.9606 55.9495 91.2525 55.0498 90.3583C54.1501 89.4641 53.4355 88.4012 52.947 87.2306C52.4584 86.0599 52.2055 84.8044 52.2026 83.5359C52.2045 82.2668 52.4567 81.0105 52.9449 79.839C53.433 78.6675 54.1474 77.6037 55.0472 76.7087C55.947 75.8137 57.0145 75.105 58.1886 74.6231C59.3627 74.1412 60.6204 73.8957 61.8895 73.9005C63.158 73.8967 64.4148 74.1429 65.5881 74.6252C66.7613 75.1075 67.8279 75.8164 68.727 76.7113C69.626 77.6063 70.3397 78.6696 70.8274 79.8407C71.3151 81.0117 71.5671 82.2674 71.569 83.5359Z" fill="#24C8DB"/>
<path d="M54.5083 47.8011C37.8011 51.2044 25.2339 65.9079 25.2339 83.5285C25.2339 103.676 41.6464 120 61.8895 120C69.6904 120.01 77.2912 117.531 83.5857 112.923C89.8803 108.315 94.5403 101.819 96.8876 94.3793C92.4847 96.5381 87.7423 97.9212 82.8692 98.4678C80.4761 101.795 77.3249 104.503 73.6765 106.37C70.0281 108.236 65.9876 109.207 61.8895 109.201C58.5104 109.209 55.1627 108.552 52.0375 107.267C48.9124 105.982 46.0709 104.094 43.6754 101.711C41.2799 99.3279 39.3772 96.4962 38.0761 93.3777C36.7749 90.2592 36.1008 86.915 36.0921 83.5359C36.0991 78.2668 37.7264 73.1273 40.7532 68.8144C43.7801 64.5014 48.0601 61.2236 53.0129 59.4254C52.607 55.4872 53.1189 51.5084 54.5083 47.8011Z" fill="#24C8DB"/>
<path fill-rule="evenodd" clip-rule="evenodd" d="M85.4917 92.2062C102.191 88.8103 114.766 74.0994 114.766 56.4788C114.766 36.3241 98.3535 20 78.1105 20C70.3086 19.9902 62.7072 22.4705 56.4125 27.0799C50.1178 31.6893 45.4584 38.1872 43.1123 45.628C47.5152 43.4691 52.2576 42.086 57.1307 41.5396C59.5242 38.2133 62.6756 35.5048 66.3238 33.6384C69.9721 31.772 74.0125 30.8013 78.1105 30.8067C81.4895 30.7979 84.8372 31.4549 87.9624 32.7399C91.0876 34.025 93.929 35.913 96.3245 38.2962C98.7201 40.6794 100.623 43.5111 101.924 46.6296C103.225 49.7481 103.899 53.0924 103.908 56.4715C103.901 61.7406 102.274 66.88 99.2467 71.193C96.2198 75.506 91.9399 78.7838 86.9871 80.5819C87.3929 84.5202 86.8811 88.4989 85.4917 92.2062Z" fill="#FFC131"/>
</svg>
