<svg width="260" height="140" viewBox="0 0 260 140" fill="none" xmlns="http://www.w3.org/2000/svg">
<rect width="259.173" height="140" rx="20" fill="#684FB4"/>
<path d="M117.848 34.8009L71.7313 118.695C70.779 120.427 68.3328 120.437 67.3664 118.713L20.3354 34.8087C19.2824 32.9306 20.8612 30.6554 22.9535 31.0361L69.1197 39.4307C69.4142 39.4842 69.7158 39.4837 70.0102 39.4291L115.211 31.0479C117.296 30.6612 118.882 32.9189 117.848 34.8009Z" fill="url(#paint0_linear_8_869)"/>
<path d="M91.1109 20.0246L56.9835 26.8278C56.7108 26.8821 56.4636 27.0271 56.2808 27.24C56.0979 27.4528 55.9898 27.7215 55.9734 28.0037L53.8742 64.074C53.8626 64.2718 53.8966 64.4697 53.9733 64.6518C54.05 64.834 54.1675 64.9954 54.3162 65.1233C54.465 65.2513 54.6411 65.3421 54.8304 65.3887C55.0197 65.4354 55.2171 65.4364 55.407 65.3919L64.9086 63.1611C65.7976 62.9524 66.601 63.749 66.4181 64.6584L63.5952 78.7216C63.4054 79.6681 64.2786 80.4772 65.1871 80.1963L71.056 78.3826C71.9656 78.1017 72.84 78.9132 72.6474 79.8604L68.1614 101.95C67.8807 103.332 69.6873 104.086 70.4405 102.901L70.944 102.11L98.753 45.6495C99.219 44.7042 98.4156 43.6262 97.3955 43.8268L87.6146 45.747C86.6958 45.9272 85.9138 45.0565 86.1731 44.142L92.5566 21.6293C92.8162 20.7124 92.0308 19.8413 91.1109 20.0246Z" fill="url(#paint1_linear_8_869)"/>
<path d="M156.93 53.2727L164.84 78.1378H165.144L173.07 53.2727H180.74L169.458 86H160.541L149.243 53.2727H156.93ZM184.552 86V61.4545H191.359V86H184.552ZM187.971 58.2905C186.959 58.2905 186.091 57.9549 185.367 57.2837C184.653 56.6019 184.296 55.7869 184.296 54.8388C184.296 53.9013 184.653 53.0969 185.367 52.4258C186.091 51.744 186.959 51.4031 187.971 51.4031C188.983 51.4031 189.846 51.744 190.56 52.4258C191.284 53.0969 191.647 53.9013 191.647 54.8388C191.647 55.7869 191.284 56.6019 190.56 57.2837C189.846 57.9549 188.983 58.2905 187.971 58.2905ZM209.868 61.4545V66.5682H195.086V61.4545H209.868ZM198.442 55.5739H205.25V78.4574C205.25 79.0859 205.346 79.576 205.537 79.9276C205.729 80.2685 205.996 80.5082 206.336 80.6467C206.688 80.7852 207.093 80.8544 207.551 80.8544C207.871 80.8544 208.19 80.8278 208.51 80.7745C208.829 80.7106 209.074 80.6626 209.245 80.6307L210.315 85.6964C209.975 85.8029 209.495 85.9254 208.877 86.0639C208.259 86.2131 207.508 86.3036 206.624 86.3356C204.983 86.3995 203.545 86.1811 202.309 85.6804C201.084 85.1797 200.131 84.402 199.449 83.3473C198.767 82.2926 198.432 80.9609 198.442 79.3523V55.5739ZM225.225 86.4794C222.7 86.4794 220.527 85.968 218.705 84.9453C216.894 83.9119 215.498 82.4524 214.518 80.5668C213.538 78.6705 213.048 76.4279 213.048 73.8391C213.048 71.3143 213.538 69.0984 214.518 67.1914C215.498 65.2844 216.878 63.7983 218.657 62.733C220.447 61.6676 222.546 61.1349 224.953 61.1349C226.573 61.1349 228.08 61.396 229.476 61.918C230.882 62.4293 232.107 63.2017 233.151 64.2351C234.206 65.2685 235.026 66.5682 235.612 68.1342C236.198 69.6896 236.491 71.5114 236.491 73.5994V75.4691H215.765V71.2504H230.083C230.083 70.2702 229.87 69.402 229.444 68.6456C229.018 67.8892 228.426 67.2979 227.67 66.8718C226.924 66.435 226.056 66.2166 225.065 66.2166C224.032 66.2166 223.116 66.4563 222.317 66.9357C221.528 67.4045 220.91 68.0384 220.463 68.8374C220.015 69.6257 219.786 70.5046 219.776 71.4741V75.4851C219.776 76.6996 219.999 77.7489 220.447 78.6332C220.905 79.5174 221.549 80.1992 222.38 80.6786C223.211 81.158 224.197 81.3977 225.337 81.3977C226.093 81.3977 226.786 81.2912 227.414 81.0781C228.043 80.8651 228.581 80.5455 229.028 80.1193C229.476 79.6932 229.817 79.1712 230.051 78.5533L236.347 78.9688C236.027 80.4815 235.372 81.8026 234.382 82.9318C233.401 84.0504 232.134 84.924 230.578 85.5526C229.033 86.1705 227.249 86.4794 225.225 86.4794Z" fill="white"/>
<defs>
<linearGradient id="paint0_linear_8_869" x1="19.1871" y1="27.652" x2="77.8451" y2="97.3486" gradientUnits="userSpaceOnUse">
<stop stop-color="#41D1FF"/>
<stop offset="1" stop-color="#BD34FE"/>
</linearGradient>
<linearGradient id="paint1_linear_8_869" x1="73.3984" y1="21.8718" x2="83.9803" y2="93.224" gradientUnits="userSpaceOnUse">
<stop stop-color="#FFEA83"/>
<stop offset="0.083" stop-color="#FFDD35"/>
<stop offset="1" stop-color="#FFA800"/>
</linearGradient>
</defs>
</svg>
