<svg width="356" height="140" viewBox="0 0 356 140" fill="none" xmlns="http://www.w3.org/2000/svg">
<rect width="356" height="140" rx="20" fill="url(#paint0_linear_8_869)"/>
<path d="M72.6476 99.2611C71.7776 100.368 69.9983 99.7527 69.9983 98.3457V84.8351C69.9983 83.1966 68.6706 81.8693 67.032 81.8693H52.1148C50.9086 81.8693 50.2051 80.5048 50.9086 79.5245L60.7158 65.7934C62.12 63.8302 60.7158 61.1015 58.301 61.1015H40.2478C39.0415 61.1015 38.3384 59.7372 39.0415 58.757L51.7557 40.9554C52.0355 40.5656 52.4846 40.334 52.9619 40.334H90.8504C92.0566 40.334 92.7598 41.6983 92.0566 42.6785L82.249 56.4096C80.8452 58.3728 82.249 61.1015 84.6643 61.1015H99.5819C100.819 61.1015 101.514 62.528 100.748 63.5026L72.6476 99.2611Z" fill="white"/>
<path d="M29.0727 39.3232C17.011 56.5881 16.9406 83.3496 29.0727 100.677H37.2222C25.0929 83.3496 25.1633 56.5881 37.2222 39.3232H29.0727Z" fill="white"/>
<path d="M110.93 39.3232H102.78C114.842 56.5881 114.912 83.3499 102.78 100.677H110.93C123.059 83.3499 122.988 56.5881 110.93 39.3232Z" fill="white"/>
<path d="M178.637 79.8979L190.455 47.5H206.625L188.701 92.5H167.921L150 47.5H166.623L178.637 79.8979ZM227.598 92.5H212.015V47.5H227.598V92.5ZM284.202 58.5568H266.733V92.5H251.148V58.5568H233.68V47.5H284.202V58.5568ZM335.155 58.4296H305.869V64.4716H334.699V75.077H305.869V81.5706H336V92.5H290.283V47.5H335.155V58.4296Z" fill="white"/>
<defs>
<linearGradient id="paint0_linear_8_869" x1="0" y1="0" x2="363.055" y2="118.358" gradientUnits="userSpaceOnUse">
<stop stop-color="#955AD2"/>
<stop offset="0.283654" stop-color="#6311E2"/>
<stop offset="0.456731" stop-color="#7F1CF3"/>
<stop offset="0.620192" stop-color="#5213BA"/>
<stop offset="0.822115" stop-color="#8140E2"/>
<stop offset="1" stop-color="#410C94"/>
</linearGradient>
</defs>
</svg>
