<svg width="325" height="140" viewBox="0 0 325 140" fill="none" xmlns="http://www.w3.org/2000/svg">
<rect width="325" height="140" rx="20" fill="#3D6B66"/>
<path d="M20 26.875L70 113.125L120 26.875H100L70 78.625L39.75 26.875H20Z" fill="#41B883"/>
<path d="M39.75 26.875L70 78.875L100 26.875H81.5L70 46.875L58.25 26.875H39.75Z" fill="#35495E"/>
<path d="M158.757 53.2727L166.667 78.1378H166.971L174.897 53.2727H182.567L171.286 86H162.369L151.071 53.2727H158.757ZM202.119 75.549V61.4545H208.927V86H202.391V81.5415H202.135C201.581 82.9798 200.66 84.1357 199.371 85.0092C198.092 85.8828 196.531 86.3196 194.688 86.3196C193.048 86.3196 191.604 85.9467 190.358 85.201C189.111 84.4553 188.137 83.3952 187.433 82.021C186.741 80.6467 186.389 79.0007 186.379 77.0831V61.4545H193.186V75.8686C193.197 77.3175 193.586 78.4627 194.353 79.3043C195.12 80.146 196.148 80.5668 197.437 80.5668C198.257 80.5668 199.024 80.3803 199.738 80.0075C200.452 79.6239 201.027 79.0593 201.464 78.3136C201.911 77.5678 202.13 76.6463 202.119 75.549ZM225.558 86.4794C223.033 86.4794 220.86 85.968 219.038 84.9453C217.227 83.9119 215.831 82.4524 214.851 80.5668C213.871 78.6705 213.381 76.4279 213.381 73.8391C213.381 71.3143 213.871 69.0984 214.851 67.1914C215.831 65.2844 217.211 63.7983 218.99 62.733C220.78 61.6676 222.879 61.1349 225.286 61.1349C226.906 61.1349 228.413 61.396 229.809 61.918C231.215 62.4293 232.44 63.2017 233.484 64.2351C234.539 65.2685 235.359 66.5682 235.945 68.1342C236.531 69.6896 236.824 71.5114 236.824 73.5994V75.4691H216.098V71.2504H230.416C230.416 70.2702 230.203 69.402 229.777 68.6456C229.351 67.8892 228.759 67.2979 228.003 66.8718C227.257 66.435 226.389 66.2166 225.398 66.2166C224.365 66.2166 223.449 66.4563 222.65 66.9357C221.861 67.4045 221.243 68.0384 220.796 68.8374C220.348 69.6257 220.119 70.5046 220.109 71.4741V75.4851C220.109 76.6996 220.332 77.7489 220.78 78.6332C221.238 79.5174 221.883 80.1992 222.714 80.6786C223.544 81.158 224.53 81.3977 225.67 81.3977C226.426 81.3977 227.119 81.2912 227.747 81.0781C228.376 80.8651 228.914 80.5455 229.361 80.1193C229.809 79.6932 230.15 79.1712 230.384 78.5533L236.68 78.9688C236.361 80.4815 235.705 81.8026 234.715 82.9318C233.734 84.0504 232.467 84.924 230.911 85.5526C229.367 86.1705 227.582 86.4794 225.558 86.4794ZM264.913 53.2727H271.752V76.0923C271.752 78.2017 271.278 80.0341 270.33 81.5895C269.393 83.1449 268.088 84.3434 266.415 85.185C264.743 86.0266 262.798 86.4474 260.582 86.4474C258.612 86.4474 256.822 86.1012 255.213 85.4087C253.615 84.7056 252.347 83.6403 251.41 82.2127C250.472 80.7745 250.009 78.9687 250.02 76.7955H256.907C256.928 77.6584 257.104 78.3988 257.434 79.0167C257.775 79.6239 258.239 80.0927 258.825 80.4229C259.421 80.7425 260.124 80.9023 260.934 80.9023C261.786 80.9023 262.505 80.7212 263.091 80.359C263.688 79.9862 264.141 79.4428 264.45 78.729C264.759 78.0153 264.913 77.1364 264.913 76.0923V53.2727ZM295.227 62.685C295.099 61.396 294.551 60.3945 293.581 59.6808C292.612 58.967 291.296 58.6101 289.634 58.6101C288.505 58.6101 287.551 58.7699 286.774 59.0895C285.996 59.3984 285.4 59.8299 284.984 60.3839C284.579 60.9379 284.377 61.5664 284.377 62.2695C284.355 62.8555 284.478 63.3668 284.744 63.8036C285.021 64.2404 285.4 64.6186 285.879 64.9382C286.358 65.2472 286.912 65.5188 287.541 65.7532C288.169 65.9769 288.841 66.1687 289.554 66.3285L292.495 67.0316C293.922 67.3512 295.233 67.7773 296.426 68.31C297.619 68.8427 298.652 69.4979 299.526 70.2756C300.4 71.0533 301.076 71.9695 301.555 73.0241C302.045 74.0788 302.296 75.288 302.306 76.6516C302.296 78.6545 301.784 80.391 300.772 81.8612C299.771 83.3207 298.322 84.4553 296.426 85.2649C294.54 86.0639 292.266 86.4634 289.602 86.4634C286.96 86.4634 284.659 86.0586 282.699 85.2489C280.749 84.4393 279.226 83.2408 278.129 81.6534C277.042 80.0554 276.472 78.0792 276.419 75.7248H283.114C283.189 76.8221 283.503 77.7383 284.057 78.4734C284.622 79.1978 285.373 79.7464 286.31 80.1193C287.259 80.4815 288.329 80.6626 289.522 80.6626C290.694 80.6626 291.712 80.4922 292.575 80.1513C293.448 79.8104 294.125 79.3363 294.604 78.729C295.083 78.1218 295.323 77.424 295.323 76.6357C295.323 75.9006 295.105 75.2827 294.668 74.782C294.242 74.2812 293.613 73.8551 292.782 73.5036C291.962 73.152 290.955 72.8324 289.762 72.5447L286.199 71.6499C283.439 70.9787 281.261 69.9293 279.663 68.5018C278.065 67.0742 277.271 65.1513 277.282 62.733C277.271 60.7514 277.798 59.0202 278.864 57.5394C279.94 56.0586 281.415 54.9027 283.29 54.0717C285.165 53.2408 287.296 52.8253 289.682 52.8253C292.111 52.8253 294.231 53.2408 296.042 54.0717C297.864 54.9027 299.281 56.0586 300.293 57.5394C301.305 59.0202 301.827 60.7354 301.859 62.685H295.227Z" fill="white"/>
</svg>
