<svg width="140" height="140" viewBox="0 0 140 140" fill="none" xmlns="http://www.w3.org/2000/svg">
<rect width="140" height="140" rx="20" fill="#274D82"/>
<path d="M119.014 49.374L101.08 30.6526H39.7666L20.948 49.374L68.2477 106.328L119.014 49.374Z" fill="#142641"/>
<path fill-rule="evenodd" clip-rule="evenodd" d="M76.9627 28.2177L73.6386 30.1375L72.829 28.7355L70.8934 29.8525L69.9482 28.2177L67.0084 29.9148L66.0293 28.2177L65.68 28.4189L64.6092 26.5646L64.1129 26.8507L63.2015 25.2723L19.5402 50.4791L20.9479 52.9168L21.4431 52.6308L22.3556 54.2091L22.7038 54.0078L23.7757 55.8632L24.203 55.6157L24.8837 56.795L25.0476 56.6999L27.1009 60.2559L78.3704 30.6553L76.9627 28.2177ZM95.4885 77.7208H76.4167V79.6079H52.3128L113.906 44.0464L107.056 32.1824L105.681 32.9762L104.737 31.3412L89.3321 40.2361L90.2762 41.8698L38.9275 71.5156L45.7782 83.3806L46.0529 83.222V86.8757H51.0539V92.8987H86.6966V86.8757H92.0638V79.7672H95.4885V77.7208Z" fill="#274D82"/>
<path fill-rule="evenodd" clip-rule="evenodd" d="M103.492 25H37.4328L13.2979 49.0117L68.0927 115L126.702 49.2367L103.492 25ZM101.08 30.6526L119.014 49.374L68.2477 106.328L20.948 49.374L39.7666 30.6526H101.08Z" fill="#3068B7"/>
</svg>
