<svg width="140" height="140" viewBox="0 0 140 140" fill="none" xmlns="http://www.w3.org/2000/svg">
<rect width="140" height="140" rx="20" fill="#274D82"/>
<path d="M119.014 49.374L101.08 30.6526H39.7665L20.9478 49.374L68.2476 106.328L119.014 49.374Z" fill="#142641"/>
<path fill-rule="evenodd" clip-rule="evenodd" d="M76.9626 28.2177L73.6385 30.1375L72.8289 28.7355L70.8933 29.8525L69.9481 28.2177L67.0083 29.9148L66.0292 28.2177L65.6799 28.4189L64.6091 26.5646L64.1127 26.8507L63.2014 25.2723L19.5401 50.4791L20.9478 52.9168L21.443 52.6308L22.3554 54.2091L22.7037 54.0078L23.7755 55.8632L24.2029 55.6157L24.8836 56.795L25.0475 56.6999L27.1008 60.2559L78.3703 30.6553L76.9626 28.2177ZM95.4884 77.7208H76.4166V79.6079H52.3126L113.906 44.0464L107.056 32.1824L105.681 32.9762L104.737 31.3412L89.332 40.2361L90.2761 41.8698L38.9274 71.5156L45.778 83.3806L46.0528 83.222V86.8757H51.0537V92.8987H86.6965V86.8757H92.0637V79.7672H95.4884V77.7208Z" fill="#274D82"/>
<path fill-rule="evenodd" clip-rule="evenodd" d="M103.492 25H37.4327L13.2977 49.0117L68.0926 115L126.702 49.2367L103.492 25ZM101.08 30.6526L119.014 49.374L68.2476 106.328L20.9478 49.374L39.7665 30.6526H101.08Z" fill="#3068B7"/>
</svg>
