<svg width="271" height="140" viewBox="0 0 271 140" fill="none" xmlns="http://www.w3.org/2000/svg">
<rect width="270.405" height="140" rx="20" fill="#274D82"/>
<path d="M125.716 49.374L107.782 30.6526H46.4687L27.6501 49.374L74.9498 106.328L125.716 49.374Z" fill="#142641"/>
<path fill-rule="evenodd" clip-rule="evenodd" d="M83.6649 28.2177L80.3408 30.1375L79.5312 28.7355L77.5956 29.8525L76.6503 28.2177L73.7106 29.9148L72.7314 28.2177L72.3821 28.4189L71.3114 26.5646L70.815 26.8507L69.9037 25.2723L26.2424 50.4791L27.65 52.9168L28.1453 52.6308L29.0577 54.2091L29.4059 54.0078L30.4778 55.8632L30.9052 55.6157L31.5859 56.795L31.7497 56.6999L33.803 60.2559L85.0726 30.6553L83.6649 28.2177ZM102.191 77.7208H83.1188V79.6079H59.0149L120.608 44.0464L113.758 32.1824L112.383 32.9762L111.439 31.3412L96.0342 40.2361L96.9783 41.8698L45.6297 71.5156L52.4803 83.3806L52.7551 83.222V86.8757H57.756V92.8987H93.3987V86.8757H98.7659V79.7672H102.191V77.7208Z" fill="#274D82"/>
<path fill-rule="evenodd" clip-rule="evenodd" d="M110.195 25H44.135L20 49.0117L74.7948 115L133.405 49.2367L110.195 25ZM107.782 30.6526L125.716 49.374L74.9498 106.328L27.6501 49.374L46.4687 30.6526H107.782Z" fill="#3068B7"/>
<path d="M165.898 86V81.8931L182.229 58.9776H165.866V53.2727H190.923V57.3796L174.575 80.2951H190.955V86H165.898ZM207.226 86.4794C204.744 86.4794 202.597 85.9521 200.786 84.8974C198.986 83.832 197.596 82.3512 196.615 80.4549C195.635 78.5479 195.145 76.3374 195.145 73.8232C195.145 71.2876 195.635 69.0717 196.615 67.1754C197.596 65.2685 198.986 63.7876 200.786 62.733C202.597 61.6676 204.744 61.1349 207.226 61.1349C209.708 61.1349 211.85 61.6676 213.65 62.733C215.461 63.7876 216.857 65.2685 217.837 67.1754C218.817 69.0717 219.307 71.2876 219.307 73.8232C219.307 76.3374 218.817 78.5479 217.837 80.4549C216.857 82.3512 215.461 83.832 213.65 84.8974C211.85 85.9521 209.708 86.4794 207.226 86.4794ZM207.258 81.206C208.387 81.206 209.33 80.8864 210.087 80.2472C210.843 79.5973 211.413 78.7131 211.797 77.5945C212.191 76.4759 212.388 75.2028 212.388 73.7752C212.388 72.3477 212.191 71.0746 211.797 69.956C211.413 68.8374 210.843 67.9531 210.087 67.3033C209.33 66.6534 208.387 66.3285 207.258 66.3285C206.118 66.3285 205.159 66.6534 204.382 67.3033C203.615 67.9531 203.034 68.8374 202.64 69.956C202.256 71.0746 202.065 72.3477 202.065 73.7752C202.065 75.2028 202.256 76.4759 202.64 77.5945C203.034 78.7131 203.615 79.5973 204.382 80.2472C205.159 80.8864 206.118 81.206 207.258 81.206ZM232.778 86.3995C230.914 86.3995 229.226 85.9201 227.713 84.9613C226.211 83.9918 225.017 82.5696 224.133 80.6946C223.26 78.8089 222.823 76.4972 222.823 73.7592C222.823 70.9467 223.276 68.6083 224.181 66.744C225.087 64.869 226.291 63.468 227.793 62.5412C229.305 61.6037 230.962 61.1349 232.762 61.1349C234.137 61.1349 235.282 61.3693 236.198 61.8381C237.125 62.2962 237.871 62.8714 238.435 63.5639C239.011 64.2457 239.447 64.9169 239.746 65.5774H239.954V53.2727H246.745V86H240.033V82.0689H239.746C239.426 82.7507 238.973 83.4272 238.387 84.0984C237.812 84.7589 237.061 85.3075 236.134 85.7443C235.218 86.1811 234.099 86.3995 232.778 86.3995ZM234.936 80.9822C236.033 80.9822 236.96 80.6839 237.716 80.0874C238.483 79.4801 239.069 78.6332 239.474 77.5465C239.89 76.4599 240.097 75.1868 240.097 73.7273C240.097 72.2678 239.895 71 239.49 69.924C239.085 68.848 238.499 68.017 237.732 67.4311C236.965 66.8452 236.033 66.5522 234.936 66.5522C233.817 66.5522 232.874 66.8558 232.107 67.4631C231.34 68.0703 230.76 68.9119 230.365 69.9879C229.971 71.0639 229.774 72.3104 229.774 73.7273C229.774 75.1548 229.971 76.4173 230.365 77.5146C230.77 78.6012 231.351 79.4535 232.107 80.0714C232.874 80.6786 233.817 80.9822 234.936 80.9822Z" fill="white"/>
</svg>
