<svg width="395" height="280" viewBox="0 0 395 280" fill="none" xmlns="http://www.w3.org/2000/svg">
<path d="M218.704 275.419L386.217 188.058C397.928 181.951 397.928 172.049 386.217 165.942L369.072 157L218.704 235.419C206.993 241.527 188.007 241.527 176.296 235.419L25.9285 157L8.78305 165.942C-2.92768 172.049 -2.92768 181.951 8.78305 188.058L176.296 275.419C188.007 281.527 206.993 281.527 218.704 275.419Z" fill="#3AA9A9"/>
<path d="M218.704 235.419L369.072 157L336.475 140L218.704 201.419C206.993 207.527 188.007 207.527 176.296 201.419L58.5255 140L25.9285 157L176.296 235.419C188.007 241.527 206.993 241.527 218.704 235.419Z" fill="#2E8383"/>
<path d="M386.217 91.9416L218.704 4.58053C206.993 -1.52684 188.007 -1.52684 176.296 4.58052L8.78305 91.9416C-2.92768 98.049 -2.92768 107.951 8.78305 114.058L58.5255 140L176.296 201.419C188.007 207.527 206.993 207.527 218.704 201.419L336.475 140L386.217 114.058C397.928 107.951 397.928 98.049 386.217 91.9416Z" fill="#45D9D9"/>
</svg>
